%TF.GenerationSoftware,Altium Limited,Altium Designer,19.1.8 (144)*%
G04 Layer_Physical_Order=2*
G04 Layer_Color=16711680*
%FSLAX26Y26*%
%MOIN*%
%TF.FileFunction,Copper,L2,Bot,Signal*%
%TF.Part,Single*%
G01*
G75*
%TA.AperFunction,Conductor*%
%ADD14C,0.010000*%
%ADD15C,0.015000*%
%TA.AperFunction,ComponentPad*%
%ADD17C,0.060000*%
%ADD18R,0.060000X0.060000*%
%TA.AperFunction,ViaPad*%
%ADD19C,0.060000*%
%ADD20C,0.050000*%
G36*
X2200000Y2805000D02*
X2420000D01*
Y225000D01*
X2200000D01*
Y45000D01*
X260000D01*
Y245000D01*
X30000D01*
Y2815000D01*
X250000D01*
Y2995000D01*
X2200000D01*
Y2805000D01*
D02*
G37*
%LPC*%
G36*
X1675000Y2704687D02*
Y2670000D01*
X1709687D01*
X1708970Y2675442D01*
X1704940Y2685173D01*
X1698528Y2693528D01*
X1690173Y2699940D01*
X1680442Y2703970D01*
X1675000Y2704687D01*
D02*
G37*
G36*
X1665000D02*
X1659558Y2703970D01*
X1649827Y2699940D01*
X1641472Y2693528D01*
X1635060Y2685173D01*
X1631030Y2675442D01*
X1630313Y2670000D01*
X1665000D01*
Y2704687D01*
D02*
G37*
G36*
X1709687Y2660000D02*
X1675000D01*
Y2625313D01*
X1680442Y2626030D01*
X1690173Y2630060D01*
X1698528Y2636472D01*
X1704940Y2644827D01*
X1708970Y2654558D01*
X1709687Y2660000D01*
D02*
G37*
G36*
X1665000D02*
X1630313D01*
X1631030Y2654558D01*
X1635060Y2644827D01*
X1641472Y2636472D01*
X1649827Y2630060D01*
X1659558Y2626030D01*
X1665000Y2625313D01*
Y2660000D01*
D02*
G37*
G36*
X2200000Y2752843D02*
X1605000D01*
X1598172Y2751485D01*
X1592383Y2747617D01*
X1592383Y2747617D01*
X1332383Y2487617D01*
X998897Y2154131D01*
X990000Y2155302D01*
X980863Y2154099D01*
X972349Y2150572D01*
X965038Y2144962D01*
X959428Y2137651D01*
X955901Y2129137D01*
X954698Y2120000D01*
X955901Y2110863D01*
X959428Y2102349D01*
X965038Y2095038D01*
X972349Y2089428D01*
X980863Y2085901D01*
X990000Y2084698D01*
X999137Y2085901D01*
X1007651Y2089428D01*
X1014962Y2095038D01*
X1020572Y2102349D01*
X1024099Y2110863D01*
X1025302Y2120000D01*
X1024131Y2128897D01*
X1357617Y2462383D01*
X1612391Y2717157D01*
X2192609D01*
X2231994Y2677772D01*
X2231030Y2675442D01*
X2229655Y2665000D01*
X2231030Y2654558D01*
X2235060Y2644827D01*
X2241472Y2636472D01*
X2249827Y2630060D01*
X2259558Y2626030D01*
X2270000Y2624655D01*
X2280442Y2626030D01*
X2290173Y2630060D01*
X2298528Y2636472D01*
X2304940Y2644827D01*
X2308970Y2654558D01*
X2310345Y2665000D01*
X2308970Y2675442D01*
X2304940Y2685173D01*
X2298528Y2693528D01*
X2290173Y2699940D01*
X2280442Y2703970D01*
X2270000Y2705345D01*
X2259558Y2703970D01*
X2257228Y2703006D01*
X2212617Y2747617D01*
X2206828Y2751485D01*
X2200000Y2752843D01*
D02*
G37*
G36*
X2275000Y2604687D02*
Y2570000D01*
X2309687D01*
X2308970Y2575442D01*
X2304940Y2585173D01*
X2298528Y2593528D01*
X2290173Y2599940D01*
X2280442Y2603970D01*
X2275000Y2604687D01*
D02*
G37*
G36*
X2265000D02*
X2259558Y2603970D01*
X2249827Y2599940D01*
X2241472Y2593528D01*
X2235060Y2585173D01*
X2231030Y2575442D01*
X2230313Y2570000D01*
X2265000D01*
Y2604687D01*
D02*
G37*
G36*
X2309687Y2560000D02*
X2275000D01*
Y2525313D01*
X2280442Y2526030D01*
X2290173Y2530060D01*
X2298528Y2536472D01*
X2304940Y2544827D01*
X2308970Y2554558D01*
X2309687Y2560000D01*
D02*
G37*
G36*
X2265000D02*
X2230313D01*
X2231030Y2554558D01*
X2235060Y2544827D01*
X2241472Y2536472D01*
X2249827Y2530060D01*
X2259558Y2526030D01*
X2265000Y2525313D01*
Y2560000D01*
D02*
G37*
G36*
X1670000Y2605345D02*
X1659558Y2603970D01*
X1649827Y2599940D01*
X1641472Y2593528D01*
X1635060Y2585173D01*
X1631030Y2575442D01*
X1629655Y2565000D01*
X1631030Y2554558D01*
X1635060Y2544827D01*
X1641472Y2536472D01*
X1649827Y2530060D01*
X1659558Y2526030D01*
X1670000Y2524655D01*
X1680442Y2526030D01*
X1690173Y2530060D01*
X1698528Y2536472D01*
X1704940Y2544827D01*
X1708970Y2554558D01*
X1710345Y2565000D01*
X1708970Y2575442D01*
X1704940Y2585173D01*
X1698528Y2593528D01*
X1690173Y2599940D01*
X1680442Y2603970D01*
X1670000Y2605345D01*
D02*
G37*
G36*
X2270000Y2505345D02*
X2259558Y2503970D01*
X2249827Y2499940D01*
X2241472Y2493528D01*
X2235060Y2485173D01*
X2231030Y2475442D01*
X2229655Y2465000D01*
X2231030Y2454558D01*
X2235060Y2444827D01*
X2241472Y2436472D01*
X2249827Y2430060D01*
X2259558Y2426030D01*
X2270000Y2424655D01*
X2280442Y2426030D01*
X2290173Y2430060D01*
X2298528Y2436472D01*
X2304940Y2444827D01*
X2308970Y2454558D01*
X2310345Y2465000D01*
X2308970Y2475442D01*
X2304940Y2485173D01*
X2298528Y2493528D01*
X2290173Y2499940D01*
X2280442Y2503970D01*
X2270000Y2505345D01*
D02*
G37*
G36*
X1670000D02*
X1659558Y2503970D01*
X1649827Y2499940D01*
X1641472Y2493528D01*
X1635060Y2485173D01*
X1631030Y2475442D01*
X1629655Y2465000D01*
X1631030Y2454558D01*
X1635060Y2444827D01*
X1641472Y2436472D01*
X1649827Y2430060D01*
X1659558Y2426030D01*
X1670000Y2424655D01*
X1680442Y2426030D01*
X1690173Y2430060D01*
X1698528Y2436472D01*
X1704940Y2444827D01*
X1708970Y2454558D01*
X1710345Y2465000D01*
X1708970Y2475442D01*
X1704940Y2485173D01*
X1698528Y2493528D01*
X1690173Y2499940D01*
X1680442Y2503970D01*
X1670000Y2505345D01*
D02*
G37*
G36*
X885000Y2405000D02*
X850000D01*
Y2370000D01*
X885000D01*
Y2405000D01*
D02*
G37*
G36*
X840000D02*
X805000D01*
Y2370000D01*
X840000D01*
Y2405000D01*
D02*
G37*
G36*
X495000Y2514334D02*
X480498Y2512906D01*
X466553Y2508676D01*
X453702Y2501807D01*
X442438Y2492562D01*
X433193Y2481298D01*
X426324Y2468447D01*
X422094Y2454502D01*
X420666Y2440000D01*
X422094Y2425498D01*
X426324Y2411553D01*
X433193Y2398702D01*
X442438Y2387438D01*
X453702Y2378193D01*
X466553Y2371324D01*
X480498Y2367094D01*
X495000Y2365666D01*
X509502Y2367094D01*
X523447Y2371324D01*
X536298Y2378193D01*
X547562Y2387438D01*
X556807Y2398702D01*
X563676Y2411553D01*
X567906Y2425498D01*
X569334Y2440000D01*
X567906Y2454502D01*
X563676Y2468447D01*
X556807Y2481298D01*
X547562Y2492562D01*
X536298Y2501807D01*
X523447Y2508676D01*
X509502Y2512906D01*
X495000Y2514334D01*
D02*
G37*
G36*
X885000Y2360000D02*
X850000D01*
Y2325000D01*
X885000D01*
Y2360000D01*
D02*
G37*
G36*
X840000D02*
X805000D01*
Y2325000D01*
X840000D01*
Y2360000D01*
D02*
G37*
G36*
X2270000Y2405345D02*
X2259558Y2403970D01*
X2249827Y2399940D01*
X2241472Y2393528D01*
X2235060Y2385173D01*
X2231030Y2375442D01*
X2229655Y2365000D01*
X2231030Y2354558D01*
X2235060Y2344827D01*
X2241472Y2336472D01*
X2249827Y2330060D01*
X2259558Y2326030D01*
X2270000Y2324655D01*
X2280442Y2326030D01*
X2290173Y2330060D01*
X2298528Y2336472D01*
X2304940Y2344827D01*
X2308970Y2354558D01*
X2310345Y2365000D01*
X2308970Y2375442D01*
X2304940Y2385173D01*
X2298528Y2393528D01*
X2290173Y2399940D01*
X2280442Y2403970D01*
X2270000Y2405345D01*
D02*
G37*
G36*
X1670000D02*
X1659558Y2403970D01*
X1649827Y2399940D01*
X1641472Y2393528D01*
X1635060Y2385173D01*
X1631030Y2375442D01*
X1629655Y2365000D01*
X1631030Y2354558D01*
X1635060Y2344827D01*
X1641472Y2336472D01*
X1649827Y2330060D01*
X1659558Y2326030D01*
X1670000Y2324655D01*
X1680442Y2326030D01*
X1690173Y2330060D01*
X1698528Y2336472D01*
X1704940Y2344827D01*
X1708970Y2354558D01*
X1710345Y2365000D01*
X1708970Y2375442D01*
X1704940Y2385173D01*
X1698528Y2393528D01*
X1690173Y2399940D01*
X1680442Y2403970D01*
X1670000Y2405345D01*
D02*
G37*
G36*
X745000Y2355345D02*
X734558Y2353970D01*
X724827Y2349940D01*
X716472Y2343528D01*
X710060Y2335173D01*
X706029Y2325442D01*
X704655Y2315000D01*
X706029Y2304558D01*
X710060Y2294827D01*
X716472Y2286472D01*
X724827Y2280060D01*
X734558Y2276030D01*
X745000Y2274655D01*
X755442Y2276030D01*
X765173Y2280060D01*
X773528Y2286472D01*
X779940Y2294827D01*
X783971Y2304558D01*
X785345Y2315000D01*
X783971Y2325442D01*
X779940Y2335173D01*
X773528Y2343528D01*
X765173Y2349940D01*
X755442Y2353970D01*
X745000Y2355345D01*
D02*
G37*
G36*
X845000Y2305345D02*
X834558Y2303970D01*
X824827Y2299940D01*
X816472Y2293528D01*
X810060Y2285173D01*
X806029Y2275442D01*
X804655Y2265000D01*
X806029Y2254558D01*
X808050Y2249679D01*
X787106Y2228735D01*
X782202Y2229711D01*
X779940Y2235173D01*
X773528Y2243528D01*
X765173Y2249940D01*
X755442Y2253970D01*
X745000Y2255345D01*
X734558Y2253970D01*
X724827Y2249940D01*
X716472Y2243528D01*
X710060Y2235173D01*
X706029Y2225442D01*
X704655Y2215000D01*
X706029Y2204558D01*
X708050Y2199679D01*
X684186Y2175814D01*
X680870Y2170853D01*
X679706Y2165000D01*
Y1595000D01*
X680870Y1589147D01*
X684186Y1584186D01*
X708050Y1560321D01*
X706029Y1555442D01*
X704655Y1545000D01*
X706029Y1534558D01*
X710060Y1524827D01*
X716472Y1516472D01*
X724827Y1510060D01*
X734558Y1506030D01*
X745000Y1504655D01*
X755442Y1506030D01*
X765173Y1510060D01*
X770564Y1514197D01*
X775564Y1511731D01*
Y1492193D01*
X763856Y1480485D01*
X755442Y1483970D01*
X745000Y1485345D01*
X734558Y1483970D01*
X724827Y1479940D01*
X716472Y1473528D01*
X710060Y1465173D01*
X706029Y1455442D01*
X704655Y1445000D01*
X706029Y1434558D01*
X710060Y1424827D01*
X716472Y1416472D01*
X724827Y1410060D01*
X734558Y1406030D01*
X745000Y1404655D01*
X755442Y1406030D01*
X765173Y1410060D01*
X773528Y1416472D01*
X779940Y1424827D01*
X783971Y1434558D01*
X785345Y1445000D01*
X783971Y1455442D01*
X783414Y1456785D01*
X801672Y1475043D01*
X803454Y1477710D01*
X809096Y1477154D01*
X810060Y1474827D01*
X816472Y1466472D01*
X824827Y1460060D01*
X834558Y1456030D01*
X845000Y1454655D01*
X855442Y1456030D01*
X865173Y1460060D01*
X873528Y1466472D01*
X879940Y1474827D01*
X883971Y1484558D01*
X885345Y1495000D01*
X883971Y1505442D01*
X881950Y1510321D01*
X930814Y1559186D01*
X934130Y1564147D01*
X935294Y1570000D01*
Y2090000D01*
X934130Y2095853D01*
X930814Y2100814D01*
X881950Y2149679D01*
X883971Y2154558D01*
X885345Y2165000D01*
X883971Y2175442D01*
X879940Y2185173D01*
X873528Y2193528D01*
X865173Y2199940D01*
X855442Y2203970D01*
X845000Y2205345D01*
X834558Y2203970D01*
X824827Y2199940D01*
X816472Y2193528D01*
X810294Y2185477D01*
X809764Y2185452D01*
X805294Y2187999D01*
Y2203665D01*
X829679Y2228050D01*
X834558Y2226030D01*
X845000Y2224655D01*
X855442Y2226030D01*
X865173Y2230060D01*
X873528Y2236472D01*
X879940Y2244827D01*
X883971Y2254558D01*
X885345Y2265000D01*
X883971Y2275442D01*
X879940Y2285173D01*
X873528Y2293528D01*
X865173Y2299940D01*
X855442Y2303970D01*
X845000Y2305345D01*
D02*
G37*
G36*
X2270000D02*
X2259558Y2303970D01*
X2249827Y2299940D01*
X2241472Y2293528D01*
X2235060Y2285173D01*
X2231030Y2275442D01*
X2229655Y2265000D01*
X2231030Y2254558D01*
X2235060Y2244827D01*
X2241472Y2236472D01*
X2249827Y2230060D01*
X2259558Y2226030D01*
X2270000Y2224655D01*
X2280442Y2226030D01*
X2290173Y2230060D01*
X2298528Y2236472D01*
X2304940Y2244827D01*
X2308970Y2254558D01*
X2310345Y2265000D01*
X2308970Y2275442D01*
X2304940Y2285173D01*
X2298528Y2293528D01*
X2290173Y2299940D01*
X2280442Y2303970D01*
X2270000Y2305345D01*
D02*
G37*
G36*
X1670000D02*
X1659558Y2303970D01*
X1649827Y2299940D01*
X1641472Y2293528D01*
X1635060Y2285173D01*
X1631030Y2275442D01*
X1629655Y2265000D01*
X1631030Y2254558D01*
X1635060Y2244827D01*
X1641472Y2236472D01*
X1649827Y2230060D01*
X1659558Y2226030D01*
X1670000Y2224655D01*
X1680442Y2226030D01*
X1690173Y2230060D01*
X1698528Y2236472D01*
X1704940Y2244827D01*
X1708970Y2254558D01*
X1710345Y2265000D01*
X1708970Y2275442D01*
X1704940Y2285173D01*
X1698528Y2293528D01*
X1690173Y2299940D01*
X1680442Y2303970D01*
X1670000Y2305345D01*
D02*
G37*
G36*
X1475000Y2249644D02*
Y2220000D01*
X1504644D01*
X1504099Y2224137D01*
X1500572Y2232651D01*
X1494962Y2239962D01*
X1487651Y2245572D01*
X1479137Y2249099D01*
X1475000Y2249644D01*
D02*
G37*
G36*
X1465000D02*
X1460863Y2249099D01*
X1452349Y2245572D01*
X1445038Y2239962D01*
X1439428Y2232651D01*
X1435901Y2224137D01*
X1435356Y2220000D01*
X1465000D01*
Y2249644D01*
D02*
G37*
G36*
X1504644Y2210000D02*
X1475000D01*
Y2180356D01*
X1479137Y2180901D01*
X1487651Y2184428D01*
X1494962Y2190038D01*
X1500572Y2197349D01*
X1504099Y2205863D01*
X1504644Y2210000D01*
D02*
G37*
G36*
X1465000D02*
X1435356D01*
X1435901Y2205863D01*
X1439428Y2197349D01*
X1445038Y2190038D01*
X1452349Y2184428D01*
X1460863Y2180901D01*
X1465000Y2180356D01*
Y2210000D01*
D02*
G37*
G36*
X2270000Y2205345D02*
X2259558Y2203970D01*
X2249827Y2199940D01*
X2241472Y2193528D01*
X2235060Y2185173D01*
X2231030Y2175442D01*
X2229655Y2165000D01*
X2231030Y2154558D01*
X2235060Y2144827D01*
X2241472Y2136472D01*
X2249827Y2130060D01*
X2259558Y2126030D01*
X2270000Y2124655D01*
X2280442Y2126030D01*
X2290173Y2130060D01*
X2298528Y2136472D01*
X2304940Y2144827D01*
X2308970Y2154558D01*
X2310345Y2165000D01*
X2308970Y2175442D01*
X2304940Y2185173D01*
X2298528Y2193528D01*
X2290173Y2199940D01*
X2280442Y2203970D01*
X2270000Y2205345D01*
D02*
G37*
G36*
X1670000D02*
X1659558Y2203970D01*
X1649827Y2199940D01*
X1641472Y2193528D01*
X1635060Y2185173D01*
X1631030Y2175442D01*
X1629655Y2165000D01*
X1631030Y2154558D01*
X1635060Y2144827D01*
X1641472Y2136472D01*
X1649827Y2130060D01*
X1659558Y2126030D01*
X1670000Y2124655D01*
X1680442Y2126030D01*
X1690173Y2130060D01*
X1698528Y2136472D01*
X1704940Y2144827D01*
X1708970Y2154558D01*
X1710345Y2165000D01*
X1708970Y2175442D01*
X1704940Y2185173D01*
X1698528Y2193528D01*
X1690173Y2199940D01*
X1680442Y2203970D01*
X1670000Y2205345D01*
D02*
G37*
G36*
X2270000Y2105345D02*
X2259558Y2103970D01*
X2249827Y2099940D01*
X2241472Y2093528D01*
X2235060Y2085173D01*
X2231030Y2075442D01*
X2229655Y2065000D01*
X2231030Y2054558D01*
X2235060Y2044827D01*
X2241472Y2036472D01*
X2249827Y2030060D01*
X2259558Y2026030D01*
X2270000Y2024655D01*
X2280442Y2026030D01*
X2290173Y2030060D01*
X2298528Y2036472D01*
X2304940Y2044827D01*
X2308970Y2054558D01*
X2310345Y2065000D01*
X2308970Y2075442D01*
X2304940Y2085173D01*
X2298528Y2093528D01*
X2290173Y2099940D01*
X2280442Y2103970D01*
X2270000Y2105345D01*
D02*
G37*
G36*
X1670000D02*
X1659558Y2103970D01*
X1649827Y2099940D01*
X1641472Y2093528D01*
X1635060Y2085173D01*
X1631030Y2075442D01*
X1629655Y2065000D01*
X1631030Y2054558D01*
X1635060Y2044827D01*
X1641472Y2036472D01*
X1649827Y2030060D01*
X1659558Y2026030D01*
X1670000Y2024655D01*
X1680442Y2026030D01*
X1690173Y2030060D01*
X1698528Y2036472D01*
X1704940Y2044827D01*
X1708970Y2054558D01*
X1710345Y2065000D01*
X1708970Y2075442D01*
X1704940Y2085173D01*
X1698528Y2093528D01*
X1690173Y2099940D01*
X1680442Y2103970D01*
X1670000Y2105345D01*
D02*
G37*
G36*
X495000Y2114334D02*
X480498Y2112906D01*
X466553Y2108676D01*
X453702Y2101807D01*
X442438Y2092562D01*
X433193Y2081298D01*
X426324Y2068447D01*
X422094Y2054502D01*
X420666Y2040000D01*
X422094Y2025498D01*
X426324Y2011553D01*
X433193Y1998702D01*
X442438Y1987438D01*
X453702Y1978193D01*
X466553Y1971324D01*
X480498Y1967094D01*
X495000Y1965666D01*
X509502Y1967094D01*
X523447Y1971324D01*
X536298Y1978193D01*
X547562Y1987438D01*
X556807Y1998702D01*
X563676Y2011553D01*
X567906Y2025498D01*
X569334Y2040000D01*
X567906Y2054502D01*
X563676Y2068447D01*
X556807Y2081298D01*
X547562Y2092562D01*
X536298Y2101807D01*
X523447Y2108676D01*
X509502Y2112906D01*
X495000Y2114334D01*
D02*
G37*
G36*
X2270000Y2005345D02*
X2259558Y2003970D01*
X2249827Y1999940D01*
X2241472Y1993528D01*
X2235060Y1985173D01*
X2231030Y1975442D01*
X2229655Y1965000D01*
X2231030Y1954558D01*
X2235060Y1944827D01*
X2241472Y1936472D01*
X2249827Y1930060D01*
X2259558Y1926030D01*
X2270000Y1924655D01*
X2280442Y1926030D01*
X2290173Y1930060D01*
X2298528Y1936472D01*
X2304940Y1944827D01*
X2308970Y1954558D01*
X2310345Y1965000D01*
X2308970Y1975442D01*
X2304940Y1985173D01*
X2298528Y1993528D01*
X2290173Y1999940D01*
X2280442Y2003970D01*
X2270000Y2005345D01*
D02*
G37*
G36*
X1670000D02*
X1659558Y2003970D01*
X1649827Y1999940D01*
X1641472Y1993528D01*
X1635060Y1985173D01*
X1631030Y1975442D01*
X1629655Y1965000D01*
X1631030Y1954558D01*
X1635060Y1944827D01*
X1641472Y1936472D01*
X1649827Y1930060D01*
X1659558Y1926030D01*
X1670000Y1924655D01*
X1680442Y1926030D01*
X1690173Y1930060D01*
X1698528Y1936472D01*
X1704940Y1944827D01*
X1708970Y1954558D01*
X1710345Y1965000D01*
X1708970Y1975442D01*
X1704940Y1985173D01*
X1698528Y1993528D01*
X1690173Y1999940D01*
X1680442Y2003970D01*
X1670000Y2005345D01*
D02*
G37*
G36*
X2270000Y1905345D02*
X2259558Y1903970D01*
X2249827Y1899940D01*
X2241472Y1893528D01*
X2235060Y1885173D01*
X2231030Y1875442D01*
X2229655Y1865000D01*
X2231030Y1854558D01*
X2235060Y1844827D01*
X2241472Y1836472D01*
X2249827Y1830060D01*
X2259558Y1826030D01*
X2270000Y1824655D01*
X2280442Y1826030D01*
X2290173Y1830060D01*
X2298528Y1836472D01*
X2304940Y1844827D01*
X2308970Y1854558D01*
X2310345Y1865000D01*
X2308970Y1875442D01*
X2304940Y1885173D01*
X2298528Y1893528D01*
X2290173Y1899940D01*
X2280442Y1903970D01*
X2270000Y1905345D01*
D02*
G37*
G36*
X1670000D02*
X1659558Y1903970D01*
X1649827Y1899940D01*
X1641472Y1893528D01*
X1635060Y1885173D01*
X1631030Y1875442D01*
X1629655Y1865000D01*
X1631030Y1854558D01*
X1635060Y1844827D01*
X1641472Y1836472D01*
X1649827Y1830060D01*
X1659558Y1826030D01*
X1670000Y1824655D01*
X1680442Y1826030D01*
X1690173Y1830060D01*
X1698528Y1836472D01*
X1704940Y1844827D01*
X1708970Y1854558D01*
X1710345Y1865000D01*
X1708970Y1875442D01*
X1704940Y1885173D01*
X1698528Y1893528D01*
X1690173Y1899940D01*
X1680442Y1903970D01*
X1670000Y1905345D01*
D02*
G37*
G36*
X2270000Y1805345D02*
X2259558Y1803970D01*
X2249827Y1799940D01*
X2241472Y1793528D01*
X2235060Y1785173D01*
X2231030Y1775442D01*
X2229655Y1765000D01*
X2231030Y1754558D01*
X2235060Y1744827D01*
X2241472Y1736472D01*
X2249827Y1730060D01*
X2259558Y1726030D01*
X2270000Y1724655D01*
X2280442Y1726030D01*
X2290173Y1730060D01*
X2298528Y1736472D01*
X2304940Y1744827D01*
X2308970Y1754558D01*
X2310345Y1765000D01*
X2308970Y1775442D01*
X2304940Y1785173D01*
X2298528Y1793528D01*
X2290173Y1799940D01*
X2280442Y1803970D01*
X2270000Y1805345D01*
D02*
G37*
G36*
X1670000D02*
X1659558Y1803970D01*
X1649827Y1799940D01*
X1641472Y1793528D01*
X1635060Y1785173D01*
X1631030Y1775442D01*
X1629655Y1765000D01*
X1631030Y1754558D01*
X1635060Y1744827D01*
X1641472Y1736472D01*
X1649827Y1730060D01*
X1659558Y1726030D01*
X1670000Y1724655D01*
X1680442Y1726030D01*
X1690173Y1730060D01*
X1698528Y1736472D01*
X1704940Y1744827D01*
X1708970Y1754558D01*
X1710345Y1765000D01*
X1708970Y1775442D01*
X1704940Y1785173D01*
X1698528Y1793528D01*
X1690173Y1799940D01*
X1680442Y1803970D01*
X1670000Y1805345D01*
D02*
G37*
G36*
X495000Y1844334D02*
X480498Y1842906D01*
X466553Y1838676D01*
X453702Y1831807D01*
X442438Y1822562D01*
X433193Y1811298D01*
X426324Y1798447D01*
X422094Y1784502D01*
X420666Y1770000D01*
X422094Y1755498D01*
X426324Y1741553D01*
X433193Y1728702D01*
X442438Y1717438D01*
X453702Y1708193D01*
X466553Y1701324D01*
X480498Y1697094D01*
X495000Y1695666D01*
X509502Y1697094D01*
X523447Y1701324D01*
X536298Y1708193D01*
X547562Y1717438D01*
X556807Y1728702D01*
X563676Y1741553D01*
X567906Y1755498D01*
X569334Y1770000D01*
X567906Y1784502D01*
X563676Y1798447D01*
X556807Y1811298D01*
X547562Y1822562D01*
X536298Y1831807D01*
X523447Y1838676D01*
X509502Y1842906D01*
X495000Y1844334D01*
D02*
G37*
G36*
X1290000Y1770345D02*
X1279558Y1768970D01*
X1269827Y1764940D01*
X1261472Y1758528D01*
X1255060Y1750173D01*
X1251030Y1740442D01*
X1249655Y1730000D01*
X1251030Y1719558D01*
X1255060Y1709827D01*
X1261472Y1701472D01*
X1269827Y1695060D01*
X1279558Y1691030D01*
X1290000Y1689655D01*
X1300442Y1691030D01*
X1310173Y1695060D01*
X1318528Y1701472D01*
X1324940Y1709827D01*
X1328970Y1719558D01*
X1330345Y1730000D01*
X1328970Y1740442D01*
X1324940Y1750173D01*
X1318528Y1758528D01*
X1310173Y1764940D01*
X1300442Y1768970D01*
X1290000Y1770345D01*
D02*
G37*
G36*
X2270000Y1705345D02*
X2259558Y1703970D01*
X2249827Y1699940D01*
X2241472Y1693528D01*
X2235060Y1685173D01*
X2231030Y1675442D01*
X2229655Y1665000D01*
X2231030Y1654558D01*
X2235060Y1644827D01*
X2241472Y1636472D01*
X2249827Y1630060D01*
X2259558Y1626030D01*
X2270000Y1624655D01*
X2280442Y1626030D01*
X2290173Y1630060D01*
X2298528Y1636472D01*
X2304940Y1644827D01*
X2308970Y1654558D01*
X2310345Y1665000D01*
X2308970Y1675442D01*
X2304940Y1685173D01*
X2298528Y1693528D01*
X2290173Y1699940D01*
X2280442Y1703970D01*
X2270000Y1705345D01*
D02*
G37*
G36*
X1670000D02*
X1659558Y1703970D01*
X1649827Y1699940D01*
X1641472Y1693528D01*
X1635060Y1685173D01*
X1631030Y1675442D01*
X1629655Y1665000D01*
X1631030Y1654558D01*
X1635060Y1644827D01*
X1641472Y1636472D01*
X1649827Y1630060D01*
X1659558Y1626030D01*
X1670000Y1624655D01*
X1680442Y1626030D01*
X1690173Y1630060D01*
X1698528Y1636472D01*
X1704940Y1644827D01*
X1708970Y1654558D01*
X1710345Y1665000D01*
X1708970Y1675442D01*
X1704940Y1685173D01*
X1698528Y1693528D01*
X1690173Y1699940D01*
X1680442Y1703970D01*
X1670000Y1705345D01*
D02*
G37*
G36*
X1290000Y1670345D02*
X1279558Y1668970D01*
X1269827Y1664940D01*
X1261472Y1658528D01*
X1255060Y1650173D01*
X1251030Y1640442D01*
X1249655Y1630000D01*
X1251030Y1619558D01*
X1255060Y1609827D01*
X1261472Y1601472D01*
X1269827Y1595060D01*
X1279558Y1591030D01*
X1290000Y1589655D01*
X1300442Y1591030D01*
X1310173Y1595060D01*
X1318528Y1601472D01*
X1324940Y1609827D01*
X1328970Y1619558D01*
X1330345Y1630000D01*
X1328970Y1640442D01*
X1324940Y1650173D01*
X1318528Y1658528D01*
X1310173Y1664940D01*
X1300442Y1668970D01*
X1290000Y1670345D01*
D02*
G37*
G36*
X2270000Y1605345D02*
X2259558Y1603970D01*
X2249827Y1599940D01*
X2241472Y1593528D01*
X2235060Y1585173D01*
X2231030Y1575442D01*
X2229655Y1565000D01*
X2231030Y1554558D01*
X2235060Y1544827D01*
X2241472Y1536472D01*
X2249827Y1530060D01*
X2259558Y1526030D01*
X2270000Y1524655D01*
X2280442Y1526030D01*
X2290173Y1530060D01*
X2298528Y1536472D01*
X2304940Y1544827D01*
X2308970Y1554558D01*
X2310345Y1565000D01*
X2308970Y1575442D01*
X2304940Y1585173D01*
X2298528Y1593528D01*
X2290173Y1599940D01*
X2280442Y1603970D01*
X2270000Y1605345D01*
D02*
G37*
G36*
X1670000D02*
X1659558Y1603970D01*
X1649827Y1599940D01*
X1641472Y1593528D01*
X1635060Y1585173D01*
X1631030Y1575442D01*
X1629655Y1565000D01*
X1631030Y1554558D01*
X1635060Y1544827D01*
X1641472Y1536472D01*
X1649827Y1530060D01*
X1659558Y1526030D01*
X1670000Y1524655D01*
X1680442Y1526030D01*
X1690173Y1530060D01*
X1698528Y1536472D01*
X1704940Y1544827D01*
X1708970Y1554558D01*
X1710345Y1565000D01*
X1708970Y1575442D01*
X1704940Y1585173D01*
X1698528Y1593528D01*
X1690173Y1599940D01*
X1680442Y1603970D01*
X1670000Y1605345D01*
D02*
G37*
G36*
X1330000Y1570000D02*
X1250000D01*
Y1490000D01*
X1330000D01*
Y1570000D01*
D02*
G37*
G36*
X2270000Y1505345D02*
X2259558Y1503970D01*
X2249827Y1499940D01*
X2241472Y1493528D01*
X2235060Y1485173D01*
X2231030Y1475442D01*
X2229655Y1465000D01*
X2231030Y1454558D01*
X2235060Y1444827D01*
X2241472Y1436472D01*
X2249827Y1430060D01*
X2259558Y1426030D01*
X2270000Y1424655D01*
X2280442Y1426030D01*
X2290173Y1430060D01*
X2298528Y1436472D01*
X2304940Y1444827D01*
X2308970Y1454558D01*
X2310345Y1465000D01*
X2308970Y1475442D01*
X2304940Y1485173D01*
X2298528Y1493528D01*
X2290173Y1499940D01*
X2280442Y1503970D01*
X2270000Y1505345D01*
D02*
G37*
G36*
X1670000D02*
X1659558Y1503970D01*
X1649827Y1499940D01*
X1641472Y1493528D01*
X1635060Y1485173D01*
X1631030Y1475442D01*
X1629655Y1465000D01*
X1631030Y1454558D01*
X1635060Y1444827D01*
X1641472Y1436472D01*
X1649827Y1430060D01*
X1659558Y1426030D01*
X1670000Y1424655D01*
X1680442Y1426030D01*
X1690173Y1430060D01*
X1698528Y1436472D01*
X1704940Y1444827D01*
X1708970Y1454558D01*
X1710345Y1465000D01*
X1708970Y1475442D01*
X1704940Y1485173D01*
X1698528Y1493528D01*
X1690173Y1499940D01*
X1680442Y1503970D01*
X1670000Y1505345D01*
D02*
G37*
G36*
X2270000Y1405345D02*
X2259558Y1403970D01*
X2249827Y1399940D01*
X2241472Y1393528D01*
X2235060Y1385173D01*
X2231030Y1375442D01*
X2229655Y1365000D01*
X2231030Y1354558D01*
X2235060Y1344827D01*
X2241472Y1336472D01*
X2249827Y1330060D01*
X2259558Y1326030D01*
X2270000Y1324655D01*
X2280442Y1326030D01*
X2290173Y1330060D01*
X2298528Y1336472D01*
X2304940Y1344827D01*
X2308970Y1354558D01*
X2310345Y1365000D01*
X2308970Y1375442D01*
X2304940Y1385173D01*
X2298528Y1393528D01*
X2290173Y1399940D01*
X2280442Y1403970D01*
X2270000Y1405345D01*
D02*
G37*
G36*
X1670000D02*
X1659558Y1403970D01*
X1649827Y1399940D01*
X1641472Y1393528D01*
X1635060Y1385173D01*
X1631030Y1375442D01*
X1629655Y1365000D01*
X1631030Y1354558D01*
X1635060Y1344827D01*
X1641472Y1336472D01*
X1649827Y1330060D01*
X1659558Y1326030D01*
X1670000Y1324655D01*
X1680442Y1326030D01*
X1690173Y1330060D01*
X1698528Y1336472D01*
X1704940Y1344827D01*
X1708970Y1354558D01*
X1710345Y1365000D01*
X1708970Y1375442D01*
X1704940Y1385173D01*
X1698528Y1393528D01*
X1690173Y1399940D01*
X1680442Y1403970D01*
X1670000Y1405345D01*
D02*
G37*
G36*
X495000Y1444334D02*
X480498Y1442906D01*
X466553Y1438676D01*
X453702Y1431807D01*
X442438Y1422562D01*
X433193Y1411298D01*
X426324Y1398447D01*
X422094Y1384502D01*
X420666Y1370000D01*
X422094Y1355498D01*
X426324Y1341553D01*
X433193Y1328702D01*
X442438Y1317438D01*
X453702Y1308193D01*
X466553Y1301324D01*
X480498Y1297094D01*
X495000Y1295666D01*
X509502Y1297094D01*
X523447Y1301324D01*
X536298Y1308193D01*
X547562Y1317438D01*
X556807Y1328702D01*
X563676Y1341553D01*
X567906Y1355498D01*
X569334Y1370000D01*
X567906Y1384502D01*
X563676Y1398447D01*
X556807Y1411298D01*
X547562Y1422562D01*
X536298Y1431807D01*
X523447Y1438676D01*
X509502Y1442906D01*
X495000Y1444334D01*
D02*
G37*
G36*
X2275000Y1304687D02*
Y1270000D01*
X2309687D01*
X2308970Y1275442D01*
X2304940Y1285173D01*
X2298528Y1293528D01*
X2290173Y1299940D01*
X2280442Y1303970D01*
X2275000Y1304687D01*
D02*
G37*
G36*
X2265000D02*
X2259558Y1303970D01*
X2249827Y1299940D01*
X2241472Y1293528D01*
X2235060Y1285173D01*
X2231030Y1275442D01*
X2230313Y1270000D01*
X2265000D01*
Y1304687D01*
D02*
G37*
G36*
X2309687Y1260000D02*
X2275000D01*
Y1225313D01*
X2280442Y1226030D01*
X2290173Y1230060D01*
X2298528Y1236472D01*
X2304940Y1244827D01*
X2308970Y1254558D01*
X2309687Y1260000D01*
D02*
G37*
G36*
X2265000D02*
X2230313D01*
X2231030Y1254558D01*
X2235060Y1244827D01*
X2241472Y1236472D01*
X2249827Y1230060D01*
X2259558Y1226030D01*
X2265000Y1225313D01*
Y1260000D01*
D02*
G37*
G36*
X1670000Y1305345D02*
X1659558Y1303970D01*
X1649827Y1299940D01*
X1641472Y1293528D01*
X1635060Y1285173D01*
X1631030Y1275442D01*
X1629655Y1265000D01*
X1631030Y1254558D01*
X1633050Y1249679D01*
X925321Y541950D01*
X920442Y543971D01*
X910000Y545345D01*
X899558Y543971D01*
X889827Y539940D01*
X881472Y533528D01*
X875060Y525173D01*
X871029Y515442D01*
X869655Y505000D01*
X871029Y494558D01*
X875060Y484827D01*
X881472Y476472D01*
X889827Y470060D01*
X899558Y466029D01*
X910000Y464655D01*
X920442Y466029D01*
X930173Y470060D01*
X938528Y476472D01*
X944940Y484827D01*
X948971Y494558D01*
X950345Y505000D01*
X948971Y515442D01*
X946950Y520321D01*
X1654679Y1228050D01*
X1659558Y1226030D01*
X1670000Y1224655D01*
X1680442Y1226030D01*
X1690173Y1230060D01*
X1698528Y1236472D01*
X1704940Y1244827D01*
X1708970Y1254558D01*
X1710345Y1265000D01*
X1708970Y1275442D01*
X1704940Y1285173D01*
X1698528Y1293528D01*
X1690173Y1299940D01*
X1680442Y1303970D01*
X1670000Y1305345D01*
D02*
G37*
G36*
X2270000Y1205345D02*
X2259558Y1203970D01*
X2249827Y1199940D01*
X2241472Y1193528D01*
X2235060Y1185173D01*
X2231030Y1175442D01*
X2229655Y1165000D01*
X2231030Y1154558D01*
X2235060Y1144827D01*
X2241472Y1136472D01*
X2249827Y1130060D01*
X2259558Y1126030D01*
X2270000Y1124655D01*
X2280442Y1126030D01*
X2290173Y1130060D01*
X2298528Y1136472D01*
X2304940Y1144827D01*
X2308970Y1154558D01*
X2310345Y1165000D01*
X2308970Y1175442D01*
X2304940Y1185173D01*
X2298528Y1193528D01*
X2290173Y1199940D01*
X2280442Y1203970D01*
X2270000Y1205345D01*
D02*
G37*
G36*
X1670000D02*
X1659558Y1203970D01*
X1649827Y1199940D01*
X1641472Y1193528D01*
X1635060Y1185173D01*
X1631030Y1175442D01*
X1629655Y1165000D01*
X1631030Y1154558D01*
X1635060Y1144827D01*
X1641472Y1136472D01*
X1649827Y1130060D01*
X1659558Y1126030D01*
X1670000Y1124655D01*
X1680442Y1126030D01*
X1690173Y1130060D01*
X1698528Y1136472D01*
X1704940Y1144827D01*
X1708970Y1154558D01*
X1710345Y1165000D01*
X1708970Y1175442D01*
X1704940Y1185173D01*
X1698528Y1193528D01*
X1690173Y1199940D01*
X1680442Y1203970D01*
X1670000Y1205345D01*
D02*
G37*
G36*
X2270000Y1105345D02*
X2259558Y1103970D01*
X2249827Y1099940D01*
X2241472Y1093528D01*
X2235060Y1085173D01*
X2231030Y1075442D01*
X2229655Y1065000D01*
X2231030Y1054558D01*
X2235060Y1044827D01*
X2241472Y1036472D01*
X2249827Y1030060D01*
X2259558Y1026030D01*
X2270000Y1024655D01*
X2280442Y1026030D01*
X2290173Y1030060D01*
X2298528Y1036472D01*
X2304940Y1044827D01*
X2308970Y1054558D01*
X2310345Y1065000D01*
X2308970Y1075442D01*
X2304940Y1085173D01*
X2298528Y1093528D01*
X2290173Y1099940D01*
X2280442Y1103970D01*
X2270000Y1105345D01*
D02*
G37*
G36*
X1670000D02*
X1659558Y1103970D01*
X1649827Y1099940D01*
X1641472Y1093528D01*
X1635060Y1085173D01*
X1631030Y1075442D01*
X1629655Y1065000D01*
X1631030Y1054558D01*
X1635060Y1044827D01*
X1641472Y1036472D01*
X1649827Y1030060D01*
X1659558Y1026030D01*
X1670000Y1024655D01*
X1680442Y1026030D01*
X1690173Y1030060D01*
X1698528Y1036472D01*
X1704940Y1044827D01*
X1708970Y1054558D01*
X1710345Y1065000D01*
X1708970Y1075442D01*
X1704940Y1085173D01*
X1698528Y1093528D01*
X1690173Y1099940D01*
X1680442Y1103970D01*
X1670000Y1105345D01*
D02*
G37*
G36*
X2270000Y1005345D02*
X2259558Y1003971D01*
X2249827Y999940D01*
X2241472Y993528D01*
X2235060Y985173D01*
X2231030Y975442D01*
X2229655Y965000D01*
X2231030Y954558D01*
X2235060Y944827D01*
X2241472Y936472D01*
X2249827Y930060D01*
X2259558Y926029D01*
X2270000Y924655D01*
X2280442Y926029D01*
X2290173Y930060D01*
X2298528Y936472D01*
X2304940Y944827D01*
X2308970Y954558D01*
X2310345Y965000D01*
X2308970Y975442D01*
X2304940Y985173D01*
X2298528Y993528D01*
X2290173Y999940D01*
X2280442Y1003971D01*
X2270000Y1005345D01*
D02*
G37*
G36*
X1670000D02*
X1659558Y1003971D01*
X1649827Y999940D01*
X1641472Y993528D01*
X1635060Y985173D01*
X1631030Y975442D01*
X1629655Y965000D01*
X1631030Y954558D01*
X1635060Y944827D01*
X1641472Y936472D01*
X1649827Y930060D01*
X1659558Y926029D01*
X1670000Y924655D01*
X1680442Y926029D01*
X1690173Y930060D01*
X1698528Y936472D01*
X1704940Y944827D01*
X1708970Y954558D01*
X1710345Y965000D01*
X1708970Y975442D01*
X1704940Y985173D01*
X1698528Y993528D01*
X1690173Y999940D01*
X1680442Y1003971D01*
X1670000Y1005345D01*
D02*
G37*
G36*
X2270000Y905345D02*
X2259558Y903971D01*
X2249827Y899940D01*
X2241472Y893528D01*
X2235060Y885173D01*
X2231030Y875442D01*
X2229655Y865000D01*
X2231030Y854558D01*
X2235060Y844827D01*
X2241472Y836472D01*
X2249827Y830060D01*
X2259558Y826029D01*
X2270000Y824655D01*
X2280442Y826029D01*
X2290173Y830060D01*
X2298528Y836472D01*
X2304940Y844827D01*
X2308970Y854558D01*
X2310345Y865000D01*
X2308970Y875442D01*
X2304940Y885173D01*
X2298528Y893528D01*
X2290173Y899940D01*
X2280442Y903971D01*
X2270000Y905345D01*
D02*
G37*
G36*
X1670000D02*
X1659558Y903971D01*
X1649827Y899940D01*
X1641472Y893528D01*
X1635060Y885173D01*
X1631030Y875442D01*
X1629655Y865000D01*
X1631030Y854558D01*
X1635060Y844827D01*
X1641472Y836472D01*
X1649827Y830060D01*
X1659558Y826029D01*
X1670000Y824655D01*
X1680442Y826029D01*
X1690173Y830060D01*
X1698528Y836472D01*
X1704940Y844827D01*
X1708970Y854558D01*
X1710345Y865000D01*
X1708970Y875442D01*
X1704940Y885173D01*
X1698528Y893528D01*
X1690173Y899940D01*
X1680442Y903971D01*
X1670000Y905345D01*
D02*
G37*
G36*
X915000Y844687D02*
Y810000D01*
X949687D01*
X948971Y815442D01*
X944940Y825173D01*
X938528Y833528D01*
X930173Y839940D01*
X920442Y843971D01*
X915000Y844687D01*
D02*
G37*
G36*
X905000D02*
X899558Y843971D01*
X889827Y839940D01*
X881472Y833528D01*
X875060Y825173D01*
X871029Y815442D01*
X870313Y810000D01*
X905000D01*
Y844687D01*
D02*
G37*
G36*
X949687Y800000D02*
X915000D01*
Y765313D01*
X920442Y766029D01*
X930173Y770060D01*
X938528Y776472D01*
X944940Y784827D01*
X948971Y794558D01*
X949687Y800000D01*
D02*
G37*
G36*
X905000D02*
X870313D01*
X871029Y794558D01*
X875060Y784827D01*
X881472Y776472D01*
X889827Y770060D01*
X899558Y766029D01*
X905000Y765313D01*
Y800000D01*
D02*
G37*
G36*
X610000Y845345D02*
X599558Y843971D01*
X589827Y839940D01*
X581472Y833528D01*
X575060Y825173D01*
X571029Y815442D01*
X569655Y805000D01*
X571029Y794558D01*
X575060Y784827D01*
X581472Y776472D01*
X589827Y770060D01*
X599558Y766029D01*
X610000Y764655D01*
X620442Y766029D01*
X630173Y770060D01*
X638528Y776472D01*
X644940Y784827D01*
X648971Y794558D01*
X650345Y805000D01*
X648971Y815442D01*
X644940Y825173D01*
X638528Y833528D01*
X630173Y839940D01*
X620442Y843971D01*
X610000Y845345D01*
D02*
G37*
G36*
X2270000Y805345D02*
X2259558Y803971D01*
X2249827Y799940D01*
X2241472Y793528D01*
X2235060Y785173D01*
X2231030Y775442D01*
X2229655Y765000D01*
X2231030Y754558D01*
X2235060Y744827D01*
X2241472Y736472D01*
X2249827Y730060D01*
X2259558Y726029D01*
X2270000Y724655D01*
X2280442Y726029D01*
X2290173Y730060D01*
X2298528Y736472D01*
X2304940Y744827D01*
X2308970Y754558D01*
X2310345Y765000D01*
X2308970Y775442D01*
X2304940Y785173D01*
X2298528Y793528D01*
X2290173Y799940D01*
X2280442Y803971D01*
X2270000Y805345D01*
D02*
G37*
G36*
X1670000D02*
X1659558Y803971D01*
X1649827Y799940D01*
X1641472Y793528D01*
X1635060Y785173D01*
X1631030Y775442D01*
X1629655Y765000D01*
X1631030Y754558D01*
X1635060Y744827D01*
X1641472Y736472D01*
X1649827Y730060D01*
X1659558Y726029D01*
X1670000Y724655D01*
X1680442Y726029D01*
X1690173Y730060D01*
X1698528Y736472D01*
X1704940Y744827D01*
X1708970Y754558D01*
X1710345Y765000D01*
X1708970Y775442D01*
X1704940Y785173D01*
X1698528Y793528D01*
X1690173Y799940D01*
X1680442Y803971D01*
X1670000Y805345D01*
D02*
G37*
G36*
X330000Y750345D02*
X319558Y748971D01*
X309827Y744940D01*
X301472Y738528D01*
X295060Y730173D01*
X291029Y720442D01*
X289655Y710000D01*
X291029Y699558D01*
X295060Y689827D01*
X301472Y681472D01*
X309827Y675060D01*
X319558Y671029D01*
X330000Y669655D01*
X340442Y671029D01*
X350173Y675060D01*
X358528Y681472D01*
X364940Y689827D01*
X368971Y699558D01*
X370345Y710000D01*
X368971Y720442D01*
X364940Y730173D01*
X358528Y738528D01*
X350173Y744940D01*
X340442Y748971D01*
X330000Y750345D01*
D02*
G37*
G36*
X910000Y745345D02*
X899558Y743971D01*
X889827Y739940D01*
X881472Y733528D01*
X875060Y725173D01*
X871029Y715442D01*
X869655Y705000D01*
X871029Y694558D01*
X875060Y684827D01*
X881472Y676472D01*
X889827Y670060D01*
X899558Y666029D01*
X910000Y664655D01*
X920442Y666029D01*
X930173Y670060D01*
X938528Y676472D01*
X944940Y684827D01*
X948971Y694558D01*
X950345Y705000D01*
X948971Y715442D01*
X944940Y725173D01*
X938528Y733528D01*
X930173Y739940D01*
X920442Y743971D01*
X910000Y745345D01*
D02*
G37*
G36*
X610000D02*
X599558Y743971D01*
X589827Y739940D01*
X581472Y733528D01*
X575060Y725173D01*
X571029Y715442D01*
X569655Y705000D01*
X571029Y694558D01*
X575060Y684827D01*
X581472Y676472D01*
X589827Y670060D01*
X599558Y666029D01*
X610000Y664655D01*
X620442Y666029D01*
X630173Y670060D01*
X638528Y676472D01*
X644940Y684827D01*
X648971Y694558D01*
X650345Y705000D01*
X648971Y715442D01*
X644940Y725173D01*
X638528Y733528D01*
X630173Y739940D01*
X620442Y743971D01*
X610000Y745345D01*
D02*
G37*
G36*
X2270000Y705345D02*
X2259558Y703971D01*
X2249827Y699940D01*
X2241472Y693528D01*
X2235060Y685173D01*
X2231030Y675442D01*
X2229655Y665000D01*
X2231030Y654558D01*
X2235060Y644827D01*
X2241472Y636472D01*
X2249827Y630060D01*
X2259558Y626029D01*
X2270000Y624655D01*
X2280442Y626029D01*
X2290173Y630060D01*
X2298528Y636472D01*
X2304940Y644827D01*
X2308970Y654558D01*
X2310345Y665000D01*
X2308970Y675442D01*
X2304940Y685173D01*
X2298528Y693528D01*
X2290173Y699940D01*
X2280442Y703971D01*
X2270000Y705345D01*
D02*
G37*
G36*
X1670000D02*
X1659558Y703971D01*
X1649827Y699940D01*
X1641472Y693528D01*
X1635060Y685173D01*
X1631030Y675442D01*
X1629655Y665000D01*
X1631030Y654558D01*
X1635060Y644827D01*
X1641472Y636472D01*
X1649827Y630060D01*
X1659558Y626029D01*
X1670000Y624655D01*
X1680442Y626029D01*
X1690173Y630060D01*
X1698528Y636472D01*
X1704940Y644827D01*
X1708970Y654558D01*
X1710345Y665000D01*
X1708970Y675442D01*
X1704940Y685173D01*
X1698528Y693528D01*
X1690173Y699940D01*
X1680442Y703971D01*
X1670000Y705345D01*
D02*
G37*
G36*
X330000Y650345D02*
X319558Y648971D01*
X309827Y644940D01*
X301472Y638528D01*
X295060Y630173D01*
X291029Y620442D01*
X289655Y610000D01*
X291029Y599558D01*
X295060Y589827D01*
X301472Y581472D01*
X309827Y575060D01*
X319558Y571029D01*
X330000Y569655D01*
X340442Y571029D01*
X350173Y575060D01*
X358528Y581472D01*
X364940Y589827D01*
X368971Y599558D01*
X370345Y610000D01*
X368971Y620442D01*
X364940Y630173D01*
X358528Y638528D01*
X350173Y644940D01*
X340442Y648971D01*
X330000Y650345D01*
D02*
G37*
G36*
X910000Y645345D02*
X899558Y643971D01*
X889827Y639940D01*
X881472Y633528D01*
X875060Y625173D01*
X871029Y615442D01*
X869655Y605000D01*
X871029Y594558D01*
X875060Y584827D01*
X881472Y576472D01*
X889827Y570060D01*
X899558Y566029D01*
X910000Y564655D01*
X920442Y566029D01*
X930173Y570060D01*
X938528Y576472D01*
X944940Y584827D01*
X948971Y594558D01*
X950345Y605000D01*
X948971Y615442D01*
X944940Y625173D01*
X938528Y633528D01*
X930173Y639940D01*
X920442Y643971D01*
X910000Y645345D01*
D02*
G37*
G36*
X610000D02*
X599558Y643971D01*
X589827Y639940D01*
X581472Y633528D01*
X575060Y625173D01*
X571029Y615442D01*
X569655Y605000D01*
X571029Y594558D01*
X575060Y584827D01*
X581472Y576472D01*
X589827Y570060D01*
X599558Y566029D01*
X610000Y564655D01*
X620442Y566029D01*
X630173Y570060D01*
X638528Y576472D01*
X644940Y584827D01*
X648971Y594558D01*
X650345Y605000D01*
X648971Y615442D01*
X644940Y625173D01*
X638528Y633528D01*
X630173Y639940D01*
X620442Y643971D01*
X610000Y645345D01*
D02*
G37*
G36*
X2270000Y605345D02*
X2259558Y603971D01*
X2249827Y599940D01*
X2241472Y593528D01*
X2235060Y585173D01*
X2231030Y575442D01*
X2229655Y565000D01*
X2231030Y554558D01*
X2235060Y544827D01*
X2241472Y536472D01*
X2249827Y530060D01*
X2259558Y526029D01*
X2270000Y524655D01*
X2280442Y526029D01*
X2290173Y530060D01*
X2298528Y536472D01*
X2304940Y544827D01*
X2308970Y554558D01*
X2310345Y565000D01*
X2308970Y575442D01*
X2304940Y585173D01*
X2298528Y593528D01*
X2290173Y599940D01*
X2280442Y603971D01*
X2270000Y605345D01*
D02*
G37*
G36*
X1670000D02*
X1659558Y603971D01*
X1649827Y599940D01*
X1641472Y593528D01*
X1635060Y585173D01*
X1631030Y575442D01*
X1629655Y565000D01*
X1631030Y554558D01*
X1635060Y544827D01*
X1641472Y536472D01*
X1649827Y530060D01*
X1659558Y526029D01*
X1670000Y524655D01*
X1680442Y526029D01*
X1690173Y530060D01*
X1698528Y536472D01*
X1704940Y544827D01*
X1708970Y554558D01*
X1710345Y565000D01*
X1708970Y575442D01*
X1704940Y585173D01*
X1698528Y593528D01*
X1690173Y599940D01*
X1680442Y603971D01*
X1670000Y605345D01*
D02*
G37*
G36*
X370000Y550000D02*
X290000D01*
Y470000D01*
X370000D01*
Y550000D01*
D02*
G37*
G36*
X610000Y545345D02*
X599558Y543971D01*
X589827Y539940D01*
X581472Y533528D01*
X575060Y525173D01*
X571029Y515442D01*
X569655Y505000D01*
X571029Y494558D01*
X575060Y484827D01*
X581472Y476472D01*
X589827Y470060D01*
X599558Y466029D01*
X610000Y464655D01*
X620442Y466029D01*
X630173Y470060D01*
X638528Y476472D01*
X644940Y484827D01*
X648971Y494558D01*
X650345Y505000D01*
X648971Y515442D01*
X644940Y525173D01*
X638528Y533528D01*
X630173Y539940D01*
X620442Y543971D01*
X610000Y545345D01*
D02*
G37*
G36*
X2270000Y505345D02*
X2259558Y503971D01*
X2249827Y499940D01*
X2241472Y493528D01*
X2235060Y485173D01*
X2231030Y475442D01*
X2229655Y465000D01*
X2231030Y454558D01*
X2235060Y444827D01*
X2241472Y436472D01*
X2249827Y430060D01*
X2259558Y426029D01*
X2270000Y424655D01*
X2280442Y426029D01*
X2290173Y430060D01*
X2298528Y436472D01*
X2304940Y444827D01*
X2308970Y454558D01*
X2310345Y465000D01*
X2308970Y475442D01*
X2304940Y485173D01*
X2298528Y493528D01*
X2290173Y499940D01*
X2280442Y503971D01*
X2270000Y505345D01*
D02*
G37*
G36*
X1670000D02*
X1659558Y503971D01*
X1649827Y499940D01*
X1641472Y493528D01*
X1635060Y485173D01*
X1631030Y475442D01*
X1629655Y465000D01*
X1631030Y454558D01*
X1635060Y444827D01*
X1641472Y436472D01*
X1649827Y430060D01*
X1659558Y426029D01*
X1670000Y424655D01*
X1680442Y426029D01*
X1690173Y430060D01*
X1698528Y436472D01*
X1704940Y444827D01*
X1708970Y454558D01*
X1710345Y465000D01*
X1708970Y475442D01*
X1704940Y485173D01*
X1698528Y493528D01*
X1690173Y499940D01*
X1680442Y503971D01*
X1670000Y505345D01*
D02*
G37*
G36*
X2270000Y405345D02*
X2259558Y403971D01*
X2249827Y399940D01*
X2241472Y393528D01*
X2235060Y385173D01*
X2231030Y375442D01*
X2229655Y365000D01*
X2231030Y354558D01*
X2235060Y344827D01*
X2241472Y336472D01*
X2249827Y330060D01*
X2259558Y326029D01*
X2270000Y324655D01*
X2280442Y326029D01*
X2290173Y330060D01*
X2298528Y336472D01*
X2304940Y344827D01*
X2308970Y354558D01*
X2310345Y365000D01*
X2308970Y375442D01*
X2304940Y385173D01*
X2298528Y393528D01*
X2290173Y399940D01*
X2280442Y403971D01*
X2270000Y405345D01*
D02*
G37*
G36*
X1670000D02*
X1659558Y403971D01*
X1649827Y399940D01*
X1641472Y393528D01*
X1635060Y385173D01*
X1631030Y375442D01*
X1629655Y365000D01*
X1631030Y354558D01*
X1635060Y344827D01*
X1641472Y336472D01*
X1649827Y330060D01*
X1659558Y326029D01*
X1670000Y324655D01*
X1680442Y326029D01*
X1690173Y330060D01*
X1698528Y336472D01*
X1704940Y344827D01*
X1708970Y354558D01*
X1710345Y365000D01*
X1708970Y375442D01*
X1704940Y385173D01*
X1698528Y393528D01*
X1690173Y399940D01*
X1680442Y403971D01*
X1670000Y405345D01*
D02*
G37*
%LPD*%
G36*
X810294Y2144523D02*
X816472Y2136472D01*
X824827Y2130060D01*
X834558Y2126030D01*
X845000Y2124655D01*
X855442Y2126030D01*
X860321Y2128050D01*
X904706Y2083665D01*
Y1913770D01*
X904079Y1913294D01*
X899706Y1911923D01*
X805294Y2006335D01*
Y2142001D01*
X809764Y2144548D01*
X810294Y2144523D01*
D02*
G37*
G36*
X774706Y2081073D02*
Y2000000D01*
X775870Y1994147D01*
X779186Y1989186D01*
X874706Y1893665D01*
Y1735000D01*
X850000D01*
Y1695000D01*
X840000D01*
Y1735000D01*
X806152D01*
Y1770735D01*
X804988Y1776588D01*
X801672Y1781549D01*
X760294Y1822928D01*
Y2078039D01*
X765173Y2080060D01*
X769706Y2083539D01*
X774706Y2081073D01*
D02*
G37*
G36*
X716472Y2086472D02*
X724827Y2080060D01*
X729706Y2078039D01*
Y1816593D01*
X730870Y1810740D01*
X734186Y1805778D01*
X775564Y1764400D01*
Y1678269D01*
X770564Y1675803D01*
X765173Y1679940D01*
X755442Y1683970D01*
X745000Y1685345D01*
X734558Y1683970D01*
X724827Y1679940D01*
X716472Y1673528D01*
X715029Y1671648D01*
X710294Y1673255D01*
Y2086745D01*
X715029Y2088352D01*
X716472Y2086472D01*
D02*
G37*
G36*
X904079Y1626707D02*
X904706Y1626230D01*
Y1576335D01*
X860321Y1531950D01*
X855442Y1533970D01*
X845000Y1535345D01*
X834558Y1533970D01*
X824827Y1529940D01*
X816472Y1523528D01*
X811152Y1516595D01*
X806152Y1518293D01*
Y1571707D01*
X811152Y1573405D01*
X816472Y1566472D01*
X824827Y1560060D01*
X834558Y1556030D01*
X845000Y1554655D01*
X855442Y1556030D01*
X865173Y1560060D01*
X873528Y1566472D01*
X879940Y1574827D01*
X883971Y1584558D01*
X885345Y1595000D01*
X883971Y1605442D01*
X881950Y1610321D01*
X899706Y1628077D01*
X904079Y1626707D01*
D02*
G37*
D14*
X790000Y2000000D02*
X890000Y1900000D01*
Y1640000D02*
Y1900000D01*
X845000Y1595000D02*
X890000Y1640000D01*
X920000Y1570000D02*
Y2090000D01*
X845000Y2165000D02*
X920000Y2090000D01*
X845000Y1495000D02*
X920000Y1570000D01*
X790000Y2000000D02*
Y2210000D01*
X845000Y2265000D01*
X745000Y2115000D02*
X753640Y2123640D01*
X910000Y505000D02*
X1670000Y1265000D01*
X790858Y1485858D02*
Y1770735D01*
X695000Y1595000D02*
Y2165000D01*
X745000Y1816593D02*
X790858Y1770735D01*
X745000Y1445000D02*
X750000D01*
X790858Y1485858D01*
X695000Y1595000D02*
X745000Y1545000D01*
X695000Y2165000D02*
X745000Y2215000D01*
Y1816593D02*
Y2115000D01*
D15*
X1345000Y2475000D02*
X1605000Y2735000D01*
X990000Y2120000D02*
X1345000Y2475000D01*
X1605000Y2735000D02*
X2200000D01*
X2270000Y2665000D01*
D17*
Y1065000D02*
D03*
Y1165000D02*
D03*
Y1265000D02*
D03*
Y2665000D02*
D03*
Y2565000D02*
D03*
Y2465000D02*
D03*
X1670000Y1265000D02*
D03*
X2270000Y965000D02*
D03*
Y865000D02*
D03*
Y765000D02*
D03*
Y665000D02*
D03*
Y565000D02*
D03*
Y465000D02*
D03*
Y365000D02*
D03*
X1670000D02*
D03*
Y465000D02*
D03*
Y565000D02*
D03*
Y665000D02*
D03*
Y765000D02*
D03*
Y865000D02*
D03*
Y965000D02*
D03*
Y1065000D02*
D03*
Y1165000D02*
D03*
X2270000Y2365000D02*
D03*
Y2265000D02*
D03*
Y2165000D02*
D03*
Y2065000D02*
D03*
Y1965000D02*
D03*
Y1865000D02*
D03*
Y1765000D02*
D03*
Y1665000D02*
D03*
Y1565000D02*
D03*
Y1465000D02*
D03*
Y1365000D02*
D03*
X1670000D02*
D03*
Y1465000D02*
D03*
Y1565000D02*
D03*
Y1665000D02*
D03*
Y1765000D02*
D03*
Y1865000D02*
D03*
Y1965000D02*
D03*
Y2065000D02*
D03*
Y2165000D02*
D03*
Y2265000D02*
D03*
Y2365000D02*
D03*
Y2465000D02*
D03*
Y2565000D02*
D03*
Y2665000D02*
D03*
X1290000Y1630000D02*
D03*
Y1730000D02*
D03*
X330000Y710000D02*
D03*
Y610000D02*
D03*
X910000Y505000D02*
D03*
Y605000D02*
D03*
Y705000D02*
D03*
Y805000D02*
D03*
X610000D02*
D03*
Y705000D02*
D03*
Y605000D02*
D03*
Y505000D02*
D03*
X745000Y2115000D02*
D03*
Y2215000D02*
D03*
Y2315000D02*
D03*
X845000Y2165000D02*
D03*
Y2265000D02*
D03*
X495000Y2040000D02*
D03*
Y2440000D02*
D03*
X745000Y1445000D02*
D03*
Y1545000D02*
D03*
Y1645000D02*
D03*
X845000Y1495000D02*
D03*
Y1595000D02*
D03*
X495000Y1370000D02*
D03*
Y1770000D02*
D03*
D18*
X1290000Y1530000D02*
D03*
X330000Y510000D02*
D03*
X845000Y2365000D02*
D03*
Y1695000D02*
D03*
D19*
X2300000Y125000D02*
D03*
X145000Y135000D02*
D03*
X130000Y2915000D02*
D03*
X2310000Y2905000D02*
D03*
D20*
X990000Y2120000D02*
D03*
X1470000Y2215000D02*
D03*
%TF.MD5,5a757934aa62027c01c11669f3f8cb04*%
M02*
