M48
;Layer_Color=9474304
;FILE_FORMAT=2:5
INCH,TZ
;TYPE=PLATED
T1F00S00C0.02800
T2F00S00C0.03000
T3F00S00C0.03504
T4F00S00C0.04000
T5F00S00C0.04016
T6F00S00C0.15748
;TYPE=NON_PLATED
T7F00S00C0.12795
%
T01
X99000Y212000
X147000Y221500
T02
X91000Y50500
Y60500
Y70500
Y80500
X61000
Y70500
Y60500
Y50500
T03
X74500Y144500
Y154500
Y164500
X84500Y159500
Y149500
Y169500
Y216500
Y226500
Y236500
X74500Y231500
Y221500
Y211500
T04
X167000Y36500
Y46500
Y56500
Y66500
Y76500
Y86500
Y96500
Y106500
Y116500
Y126500
X227000
Y116500
Y106500
Y96500
Y86500
Y76500
Y66500
Y56500
Y46500
Y36500
Y136500
Y146500
Y156500
Y166500
Y176500
Y186500
Y196500
Y206500
Y216500
Y226500
Y236500
Y246500
Y256500
Y266500
X167000
Y256500
Y246500
Y236500
Y226500
Y216500
Y206500
Y196500
Y186500
Y176500
Y166500
Y156500
Y146500
Y136500
T05
X33000Y51000
Y61000
Y71000
X129000Y153000
Y163000
Y173000
T06
X230000Y12500
X14500Y13500
X231000Y290500
X13000Y291500
T07
X49500Y137000
Y177000
Y204000
Y244000
M30
