%TF.GenerationSoftware,Altium Limited,Altium Designer,19.1.8 (144)*%
G04 Layer_Color=2752767*
%FSLAX26Y26*%
%MOIN*%
%TF.FileFunction,Drawing*%
%TF.Part,Single*%
G01*
G75*
%TA.AperFunction,NonConductor*%
%ADD46C,0.005000*%
%ADD47C,0.006667*%
D46*
X2250000Y1045000D02*
Y1085000D01*
X2290000D01*
Y1045000D01*
X2250000D01*
Y1145000D02*
Y1185000D01*
X2290000D01*
Y1145000D01*
X2250000D01*
Y1245000D02*
Y1285000D01*
X2290000D01*
Y1245000D01*
X2250000D01*
Y2645000D02*
Y2685000D01*
X2290000D01*
Y2645000D01*
X2250000D01*
Y2545000D02*
Y2585000D01*
X2290000D01*
Y2545000D01*
X2250000D01*
Y2445000D02*
Y2485000D01*
X2290000D01*
Y2445000D01*
X2250000D01*
X1650000Y1245000D02*
Y1285000D01*
X1690000D01*
Y1245000D01*
X1650000D01*
X2250000Y945000D02*
Y985000D01*
X2290000D01*
Y945000D01*
X2250000D01*
Y845000D02*
Y885000D01*
X2290000D01*
Y845000D01*
X2250000D01*
Y745000D02*
Y785000D01*
X2290000D01*
Y745000D01*
X2250000D01*
Y645000D02*
Y685000D01*
X2290000D01*
Y645000D01*
X2250000D01*
Y545000D02*
Y585000D01*
X2290000D01*
Y545000D01*
X2250000D01*
Y445000D02*
Y485000D01*
X2290000D01*
Y445000D01*
X2250000D01*
Y345000D02*
Y385000D01*
X2290000D01*
Y345000D01*
X2250000D01*
X1650000D02*
Y385000D01*
X1690000D01*
Y345000D01*
X1650000D01*
Y445000D02*
Y485000D01*
X1690000D01*
Y445000D01*
X1650000D01*
Y545000D02*
Y585000D01*
X1690000D01*
Y545000D01*
X1650000D01*
Y645000D02*
Y685000D01*
X1690000D01*
Y645000D01*
X1650000D01*
Y745000D02*
Y785000D01*
X1690000D01*
Y745000D01*
X1650000D01*
Y845000D02*
Y885000D01*
X1690000D01*
Y845000D01*
X1650000D01*
Y945000D02*
Y985000D01*
X1690000D01*
Y945000D01*
X1650000D01*
Y1045000D02*
Y1085000D01*
X1690000D01*
Y1045000D01*
X1650000D01*
Y1145000D02*
Y1185000D01*
X1690000D01*
Y1145000D01*
X1650000D01*
X2250000Y2345000D02*
Y2385000D01*
X2290000D01*
Y2345000D01*
X2250000D01*
Y2245000D02*
Y2285000D01*
X2290000D01*
Y2245000D01*
X2250000D01*
Y2145000D02*
Y2185000D01*
X2290000D01*
Y2145000D01*
X2250000D01*
Y2045000D02*
Y2085000D01*
X2290000D01*
Y2045000D01*
X2250000D01*
Y1945000D02*
Y1985000D01*
X2290000D01*
Y1945000D01*
X2250000D01*
Y1845000D02*
Y1885000D01*
X2290000D01*
Y1845000D01*
X2250000D01*
Y1745000D02*
Y1785000D01*
X2290000D01*
Y1745000D01*
X2250000D01*
Y1645000D02*
Y1685000D01*
X2290000D01*
Y1645000D01*
X2250000D01*
Y1545000D02*
Y1585000D01*
X2290000D01*
Y1545000D01*
X2250000D01*
Y1445000D02*
Y1485000D01*
X2290000D01*
Y1445000D01*
X2250000D01*
Y1345000D02*
Y1385000D01*
X2290000D01*
Y1345000D01*
X2250000D01*
X1650000D02*
Y1385000D01*
X1690000D01*
Y1345000D01*
X1650000D01*
Y1445000D02*
Y1485000D01*
X1690000D01*
Y1445000D01*
X1650000D01*
Y1545000D02*
Y1585000D01*
X1690000D01*
Y1545000D01*
X1650000D01*
Y1645000D02*
Y1685000D01*
X1690000D01*
Y1645000D01*
X1650000D01*
Y1745000D02*
Y1785000D01*
X1690000D01*
Y1745000D01*
X1650000D01*
Y1845000D02*
Y1885000D01*
X1690000D01*
Y1845000D01*
X1650000D01*
Y1945000D02*
Y1985000D01*
X1690000D01*
Y1945000D01*
X1650000D01*
Y2045000D02*
Y2085000D01*
X1690000D01*
Y2045000D01*
X1650000D01*
Y2145000D02*
Y2185000D01*
X1690000D01*
Y2145000D01*
X1650000D01*
Y2245000D02*
Y2285000D01*
X1690000D01*
Y2245000D01*
X1650000D01*
Y2345000D02*
Y2385000D01*
X1690000D01*
Y2345000D01*
X1650000D01*
Y2445000D02*
Y2485000D01*
X1690000D01*
Y2445000D01*
X1650000D01*
Y2545000D02*
Y2585000D01*
X1690000D01*
Y2545000D01*
X1650000D01*
Y2645000D02*
Y2685000D01*
X1690000D01*
Y2645000D01*
X1650000D01*
X910000Y485000D02*
X890000Y525000D01*
X930000D01*
X910000Y485000D01*
Y585000D02*
X890000Y625000D01*
X930000D01*
X910000Y585000D01*
Y685000D02*
X890000Y725000D01*
X930000D01*
X910000Y685000D01*
Y785000D02*
X890000Y825000D01*
X930000D01*
X910000Y785000D01*
X610000D02*
X590000Y825000D01*
X630000D01*
X610000Y785000D01*
Y685000D02*
X590000Y725000D01*
X630000D01*
X610000Y685000D01*
Y585000D02*
X590000Y625000D01*
X630000D01*
X610000Y585000D01*
Y485000D02*
X590000Y525000D01*
X630000D01*
X610000Y485000D01*
X745000Y2095000D02*
X755000Y2105000D01*
X765000D01*
X755000Y2115000D01*
X765000Y2125000D01*
X755000D01*
X745000Y2135000D01*
X735000Y2125000D01*
X725000D01*
X735000Y2115000D01*
X725000Y2105000D01*
X735000D01*
X745000Y2095000D01*
Y2195000D02*
X755000Y2205000D01*
X765000D01*
X755000Y2215000D01*
X765000Y2225000D01*
X755000D01*
X745000Y2235000D01*
X735000Y2225000D01*
X725000D01*
X735000Y2215000D01*
X725000Y2205000D01*
X735000D01*
X745000Y2195000D01*
Y2295000D02*
X755000Y2305000D01*
X765000D01*
X755000Y2315000D01*
X765000Y2325000D01*
X755000D01*
X745000Y2335000D01*
X735000Y2325000D01*
X725000D01*
X735000Y2315000D01*
X725000Y2305000D01*
X735000D01*
X745000Y2295000D01*
X845000Y2145000D02*
X855000Y2155000D01*
X865000D01*
X855000Y2165000D01*
X865000Y2175000D01*
X855000D01*
X845000Y2185000D01*
X835000Y2175000D01*
X825000D01*
X835000Y2165000D01*
X825000Y2155000D01*
X835000D01*
X845000Y2145000D01*
Y2245000D02*
X855000Y2255000D01*
X865000D01*
X855000Y2265000D01*
X865000Y2275000D01*
X855000D01*
X845000Y2285000D01*
X835000Y2275000D01*
X825000D01*
X835000Y2265000D01*
X825000Y2255000D01*
X835000D01*
X845000Y2245000D01*
Y2345000D02*
X855000Y2355000D01*
X865000D01*
X855000Y2365000D01*
X865000Y2375000D01*
X855000D01*
X845000Y2385000D01*
X835000Y2375000D01*
X825000D01*
X835000Y2365000D01*
X825000Y2355000D01*
X835000D01*
X845000Y2345000D01*
X475000Y2020000D02*
X485000Y2040000D01*
X475000Y2060000D01*
X495000Y2050000D01*
X515000Y2060000D01*
X505000Y2040000D01*
X515000Y2020000D01*
X495000Y2030000D01*
X475000Y2020000D01*
Y2420000D02*
X485000Y2440000D01*
X475000Y2460000D01*
X495000Y2450000D01*
X515000Y2460000D01*
X505000Y2440000D01*
X515000Y2420000D01*
X495000Y2430000D01*
X475000Y2420000D01*
X745000Y1425000D02*
X755000Y1435000D01*
X765000D01*
X755000Y1445000D01*
X765000Y1455000D01*
X755000D01*
X745000Y1465000D01*
X735000Y1455000D01*
X725000D01*
X735000Y1445000D01*
X725000Y1435000D01*
X735000D01*
X745000Y1425000D01*
Y1525000D02*
X755000Y1535000D01*
X765000D01*
X755000Y1545000D01*
X765000Y1555000D01*
X755000D01*
X745000Y1565000D01*
X735000Y1555000D01*
X725000D01*
X735000Y1545000D01*
X725000Y1535000D01*
X735000D01*
X745000Y1525000D01*
Y1625000D02*
X755000Y1635000D01*
X765000D01*
X755000Y1645000D01*
X765000Y1655000D01*
X755000D01*
X745000Y1665000D01*
X735000Y1655000D01*
X725000D01*
X735000Y1645000D01*
X725000Y1635000D01*
X735000D01*
X745000Y1625000D01*
X845000Y1475000D02*
X855000Y1485000D01*
X865000D01*
X855000Y1495000D01*
X865000Y1505000D01*
X855000D01*
X845000Y1515000D01*
X835000Y1505000D01*
X825000D01*
X835000Y1495000D01*
X825000Y1485000D01*
X835000D01*
X845000Y1475000D01*
Y1575000D02*
X855000Y1585000D01*
X865000D01*
X855000Y1595000D01*
X865000Y1605000D01*
X855000D01*
X845000Y1615000D01*
X835000Y1605000D01*
X825000D01*
X835000Y1595000D01*
X825000Y1585000D01*
X835000D01*
X845000Y1575000D01*
Y1675000D02*
X855000Y1685000D01*
X865000D01*
X855000Y1695000D01*
X865000Y1705000D01*
X855000D01*
X845000Y1715000D01*
X835000Y1705000D01*
X825000D01*
X835000Y1695000D01*
X825000Y1685000D01*
X835000D01*
X845000Y1675000D01*
X475000Y1350000D02*
X485000Y1370000D01*
X475000Y1390000D01*
X495000Y1380000D01*
X515000Y1390000D01*
X505000Y1370000D01*
X515000Y1350000D01*
X495000Y1360000D01*
X475000Y1350000D01*
Y1750000D02*
X485000Y1770000D01*
X475000Y1790000D01*
X495000Y1780000D01*
X515000Y1790000D01*
X505000Y1770000D01*
X515000Y1750000D01*
X495000Y1760000D01*
X475000Y1750000D01*
X2290000Y115000D02*
Y105000D01*
X2310000D01*
Y115000D01*
X2320000D01*
Y135000D01*
X2310000D01*
Y145000D01*
X2290000D01*
Y135000D01*
X2280000D01*
Y115000D01*
X2290000D01*
X135000Y125000D02*
Y115000D01*
X155000D01*
Y125000D01*
X165000D01*
Y145000D01*
X155000D01*
Y155000D01*
X135000D01*
Y145000D01*
X125000D01*
Y125000D01*
X135000D01*
X120000Y2905000D02*
Y2895000D01*
X140000D01*
Y2905000D01*
X150000D01*
Y2925000D01*
X140000D01*
Y2935000D01*
X120000D01*
Y2925000D01*
X110000D01*
Y2905000D01*
X120000D01*
X2300000Y2895000D02*
Y2885000D01*
X2320000D01*
Y2895000D01*
X2330000D01*
Y2915000D01*
X2320000D01*
Y2925000D01*
X2300000D01*
Y2915000D01*
X2290000D01*
Y2895000D01*
X2300000D01*
X970000Y2100000D02*
X980000D01*
X990000Y2110000D01*
X1000000Y2100000D01*
X1010000D01*
Y2110000D01*
X1000000Y2120000D01*
X1010000Y2130000D01*
Y2140000D01*
X1000000D01*
X990000Y2130000D01*
X980000Y2140000D01*
X970000D01*
Y2130000D01*
X980000Y2120000D01*
X970000Y2110000D01*
Y2100000D01*
X1450000Y2195000D02*
X1460000D01*
X1470000Y2205000D01*
X1480000Y2195000D01*
X1490000D01*
Y2205000D01*
X1480000Y2215000D01*
X1490000Y2225000D01*
Y2235000D01*
X1480000D01*
X1470000Y2225000D01*
X1460000Y2235000D01*
X1450000D01*
Y2225000D01*
X1460000Y2215000D01*
X1450000Y2205000D01*
Y2195000D01*
D47*
X1310000Y1530000D02*
G03*
X1310000Y1530000I-20000J0D01*
G01*
Y1630000D02*
G03*
X1310000Y1630000I-20000J0D01*
G01*
Y1730000D02*
G03*
X1310000Y1730000I-20000J0D01*
G01*
X350000Y710000D02*
G03*
X350000Y710000I-20000J0D01*
G01*
Y610000D02*
G03*
X350000Y610000I-20000J0D01*
G01*
Y510000D02*
G03*
X350000Y510000I-20000J0D01*
G01*
%TF.MD5,fb37bd3f83ad1f3a1a63e8d594b6643e*%
M02*
