%TF.GenerationSoftware,Altium Limited,Altium Designer,19.1.8 (144)*%
G04 Layer_Color=32768*
%FSLAX26Y26*%
%MOIN*%
%TF.FileFunction,Other,Mechanical_15*%
%TF.Part,Single*%
G01*
G75*
%TA.AperFunction,NonConductor*%
%ADD16C,0.010000*%
%ADD32C,0.003937*%
%ADD33C,0.001968*%
D16*
X60000Y2525000D02*
X500000D01*
X60000Y1960000D02*
Y2525000D01*
Y1960000D02*
X925000D01*
Y2525000D01*
X495000D02*
X925000D01*
X60000Y1855000D02*
X500000D01*
X60000Y1290000D02*
Y1855000D01*
Y1290000D02*
X925000D01*
Y1855000D01*
X495000D02*
X925000D01*
D32*
X1111417Y1615315D02*
Y1654685D01*
X1091732Y1635000D02*
X1131102D01*
X1240000Y1971732D02*
Y2011102D01*
X1220315Y1991417D02*
X1259685D01*
X1100315Y1990000D02*
X1139685D01*
X1120000Y1970315D02*
Y2009685D01*
X1230000Y2200315D02*
Y2239685D01*
X1210315Y2220000D02*
X1249685D01*
D33*
X1044488Y1599567D02*
X1178347D01*
X1044488Y1670433D02*
X1178347D01*
Y1599567D02*
Y1670433D01*
X1044488Y1599567D02*
Y1670433D01*
X1202599Y2058346D02*
X1277402D01*
X1202599Y1924488D02*
X1277402D01*
Y2058346D01*
X1202599Y1924488D02*
Y2058346D01*
X1155433Y1923071D02*
Y2056929D01*
X1084567Y1923071D02*
Y2056929D01*
X1155433D01*
X1084567Y1923071D02*
X1155433D01*
X1066614Y2338110D02*
X1393386D01*
X1066614Y2101890D02*
X1393386D01*
X1066614D02*
Y2338110D01*
X1393386Y2101890D02*
Y2338110D01*
%TF.MD5,d2cabdaf3e31f87130466b7564a3ce82*%
M02*
