G04*
G04 #@! TF.GenerationSoftware,Altium Limited,Altium Designer,19.1.8 (144)*
G04*
G04 Layer_Color=255*
%FSLAX25Y25*%
%MOIN*%
G70*
G01*
G75*
%ADD12C,0.01000*%
%ADD26C,0.06000*%
%ADD27R,0.06000X0.06000*%
D12*
X1000Y302000D02*
X1000Y1000D01*
X243000D01*
X243000Y302000D02*
X243000Y1000D01*
X1000Y302000D02*
X243000D01*
D26*
X227000Y106500D02*
D03*
Y116500D02*
D03*
Y126500D02*
D03*
Y266500D02*
D03*
Y256500D02*
D03*
Y246500D02*
D03*
X167000Y126500D02*
D03*
X227000Y96500D02*
D03*
Y86500D02*
D03*
Y76500D02*
D03*
Y66500D02*
D03*
Y56500D02*
D03*
Y46500D02*
D03*
Y36500D02*
D03*
X167000D02*
D03*
Y46500D02*
D03*
Y56500D02*
D03*
Y66500D02*
D03*
Y76500D02*
D03*
Y86500D02*
D03*
Y96500D02*
D03*
Y106500D02*
D03*
Y116500D02*
D03*
X227000Y236500D02*
D03*
Y226500D02*
D03*
Y216500D02*
D03*
Y206500D02*
D03*
Y196500D02*
D03*
Y186500D02*
D03*
Y176500D02*
D03*
Y166500D02*
D03*
Y156500D02*
D03*
Y146500D02*
D03*
Y136500D02*
D03*
X167000D02*
D03*
Y146500D02*
D03*
Y156500D02*
D03*
Y166500D02*
D03*
Y176500D02*
D03*
Y186500D02*
D03*
Y196500D02*
D03*
Y206500D02*
D03*
Y216500D02*
D03*
Y226500D02*
D03*
Y236500D02*
D03*
Y246500D02*
D03*
Y256500D02*
D03*
Y266500D02*
D03*
X129000Y163000D02*
D03*
Y173000D02*
D03*
X33000Y71000D02*
D03*
Y61000D02*
D03*
X91000Y50500D02*
D03*
Y60500D02*
D03*
Y70500D02*
D03*
Y80500D02*
D03*
X61000D02*
D03*
Y70500D02*
D03*
Y60500D02*
D03*
Y50500D02*
D03*
X74500Y211500D02*
D03*
Y221500D02*
D03*
Y231500D02*
D03*
X84500Y216500D02*
D03*
Y226500D02*
D03*
X49500Y204000D02*
D03*
Y244000D02*
D03*
X74500Y144500D02*
D03*
Y154500D02*
D03*
Y164500D02*
D03*
X84500Y149500D02*
D03*
Y159500D02*
D03*
X49500Y137000D02*
D03*
Y177000D02*
D03*
X230000Y12500D02*
D03*
X14500Y13500D02*
D03*
X13000Y291500D02*
D03*
X231000Y290500D02*
D03*
D27*
X129000Y153000D02*
D03*
X33000Y51000D02*
D03*
X84500Y236500D02*
D03*
Y169500D02*
D03*
M02*
