G04*
G04 #@! TF.GenerationSoftware,Altium Limited,Altium Designer,19.1.8 (144)*
G04*
G04 Layer_Color=32768*
%FSLAX25Y25*%
%MOIN*%
G70*
G01*
G75*
%ADD12C,0.01000*%
%ADD29C,0.00394*%
%ADD30C,0.00197*%
D12*
X6000Y252500D02*
X50000D01*
X6000Y196000D02*
Y252500D01*
Y196000D02*
X92500D01*
Y252500D01*
X49500D02*
X92500D01*
X6000Y185500D02*
X50000D01*
X6000Y129000D02*
Y185500D01*
Y129000D02*
X92500D01*
Y185500D01*
X49500D02*
X92500D01*
X1000Y302000D02*
X1000Y1000D01*
X243000D01*
X243000Y302000D02*
X243000Y1000D01*
X1000Y302000D02*
X243000D01*
D29*
X111142Y161531D02*
Y165469D01*
X109173Y163500D02*
X113110D01*
X124000Y197173D02*
Y201110D01*
X122031Y199142D02*
X125969D01*
X110031Y199000D02*
X113969D01*
X112000Y197031D02*
Y200969D01*
X123000Y220031D02*
Y223969D01*
X121031Y222000D02*
X124969D01*
D30*
X104449Y159957D02*
X117835D01*
X104449Y167043D02*
X117835D01*
Y159957D02*
Y167043D01*
X104449Y159957D02*
Y167043D01*
X120260Y205835D02*
X127740D01*
X120260Y192449D02*
X127740D01*
Y205835D01*
X120260Y192449D02*
Y205835D01*
X115543Y192307D02*
Y205693D01*
X108457Y192307D02*
Y205693D01*
X115543D01*
X108457Y192307D02*
X115543D01*
X106661Y233811D02*
X139339D01*
X106661Y210189D02*
X139339D01*
X106661D02*
Y233811D01*
X139339Y210189D02*
Y233811D01*
M02*
