M48
;Layer_Color=9474304
;FILE_FORMAT=2:5
INCH,LZ
;TYPE=PLATED
T1F00S00C0.02800
T2F00S00C0.03000
T3F00S00C0.03504
T4F00S00C0.04000
T5F00S00C0.04016
T6F00S00C0.15748
;TYPE=NON_PLATED
T7F00S00C0.12795
%
T01
X0099Y0212
X0147Y02215
T02
X0091Y00505
Y00605
Y00705
Y00805
X0061
Y00705
Y00605
Y00505
T03
X00745Y01445
Y01545
Y01645
X00845Y01595
Y01495
Y01695
Y02165
Y02265
Y02365
X00745Y02315
Y02215
Y02115
T04
X0167Y00365
Y00465
Y00565
Y00665
Y00765
Y00865
Y00965
Y01065
Y01165
Y01265
X0227
Y01165
Y01065
Y00965
Y00865
Y00765
Y00665
Y00565
Y00465
Y00365
Y01365
Y01465
Y01565
Y01665
Y01765
Y01865
Y01965
Y02065
Y02165
Y02265
Y02365
Y02465
Y02565
Y02665
X0167
Y02565
Y02465
Y02365
Y02265
Y02165
Y02065
Y01965
Y01865
Y01765
Y01665
Y01565
Y01465
Y01365
T05
X0033Y0051
Y0061
Y0071
X0129Y0153
Y0163
Y0173
T06
X023Y00125
X00145Y00135
X0231Y02905
X0013Y02915
T07
X00495Y0137
Y0177
Y0204
Y0244
M30
