%TF.GenerationSoftware,Altium Limited,Altium Designer,19.1.8 (144)*%
G04 Layer_Color=255*
%FSLAX26Y26*%
%MOIN*%
%TF.FileFunction,Pads,Top*%
%TF.Part,Single*%
G01*
G75*
%TA.AperFunction,SMDPad,CuDef*%
%ADD10R,0.041339X0.051181*%
%ADD11R,0.055118X0.041339*%
%ADD12R,0.051181X0.041339*%
%ADD13O,0.064961X0.025591*%
%TA.AperFunction,ComponentPad*%
%ADD17C,0.060000*%
%ADD18R,0.060000X0.060000*%
%TA.AperFunction,ViaPad*%
%ADD19C,0.060000*%
D10*
X1147835Y1635000D02*
D03*
X1075000D02*
D03*
D11*
X1240000Y2027835D02*
D03*
Y1955000D02*
D03*
D12*
X1120000Y2026417D02*
D03*
Y1953583D02*
D03*
D13*
X1118780Y2295000D02*
D03*
Y2245000D02*
D03*
Y2195000D02*
D03*
Y2145000D02*
D03*
X1341220Y2295000D02*
D03*
Y2245000D02*
D03*
Y2195000D02*
D03*
Y2145000D02*
D03*
D17*
X2270000Y1065000D02*
D03*
Y1165000D02*
D03*
Y1265000D02*
D03*
Y2665000D02*
D03*
Y2565000D02*
D03*
Y2465000D02*
D03*
X1670000Y1265000D02*
D03*
X2270000Y965000D02*
D03*
Y865000D02*
D03*
Y765000D02*
D03*
Y665000D02*
D03*
Y565000D02*
D03*
Y465000D02*
D03*
Y365000D02*
D03*
X1670000D02*
D03*
Y465000D02*
D03*
Y565000D02*
D03*
Y665000D02*
D03*
Y765000D02*
D03*
Y865000D02*
D03*
Y965000D02*
D03*
Y1065000D02*
D03*
Y1165000D02*
D03*
X2270000Y2365000D02*
D03*
Y2265000D02*
D03*
Y2165000D02*
D03*
Y2065000D02*
D03*
Y1965000D02*
D03*
Y1865000D02*
D03*
Y1765000D02*
D03*
Y1665000D02*
D03*
Y1565000D02*
D03*
Y1465000D02*
D03*
Y1365000D02*
D03*
X1670000D02*
D03*
Y1465000D02*
D03*
Y1565000D02*
D03*
Y1665000D02*
D03*
Y1765000D02*
D03*
Y1865000D02*
D03*
Y1965000D02*
D03*
Y2065000D02*
D03*
Y2165000D02*
D03*
Y2265000D02*
D03*
Y2365000D02*
D03*
Y2465000D02*
D03*
Y2565000D02*
D03*
Y2665000D02*
D03*
X1290000Y1630000D02*
D03*
Y1730000D02*
D03*
X330000Y710000D02*
D03*
Y610000D02*
D03*
X910000Y505000D02*
D03*
Y605000D02*
D03*
Y705000D02*
D03*
Y805000D02*
D03*
X610000D02*
D03*
Y705000D02*
D03*
Y605000D02*
D03*
Y505000D02*
D03*
X745000Y2115000D02*
D03*
Y2215000D02*
D03*
Y2315000D02*
D03*
X845000Y2165000D02*
D03*
Y2265000D02*
D03*
X495000Y2040000D02*
D03*
Y2440000D02*
D03*
X745000Y1445000D02*
D03*
Y1545000D02*
D03*
Y1645000D02*
D03*
X845000Y1495000D02*
D03*
Y1595000D02*
D03*
X495000Y1370000D02*
D03*
Y1770000D02*
D03*
D18*
X1290000Y1530000D02*
D03*
X330000Y510000D02*
D03*
X845000Y2365000D02*
D03*
Y1695000D02*
D03*
D19*
X2300000Y125000D02*
D03*
X145000Y135000D02*
D03*
X130000Y2915000D02*
D03*
X2310000Y2905000D02*
D03*
%TF.MD5,1a9a736ae3191c1e529bc1a72b5fc05a*%
M02*
