%TF.GenerationSoftware,Altium Limited,Altium Designer,19.1.8 (144)*%
G04 Layer_Color=16711935*
%FSLAX26Y26*%
%MOIN*%
%TF.FileFunction,Soldermask,Bot*%
%TF.Part,Single*%
G01*
G75*
%TA.AperFunction,ComponentPad*%
%ADD21C,0.068000*%
%ADD22R,0.068000X0.068000*%
%TA.AperFunction,ViaPad*%
%ADD23C,0.068000*%
%ADD24C,0.058000*%
D21*
X2270000Y1065000D02*
D03*
Y1165000D02*
D03*
Y1265000D02*
D03*
Y2665000D02*
D03*
Y2565000D02*
D03*
Y2465000D02*
D03*
X1670000Y1265000D02*
D03*
X2270000Y965000D02*
D03*
Y865000D02*
D03*
Y765000D02*
D03*
Y665000D02*
D03*
Y565000D02*
D03*
Y465000D02*
D03*
Y365000D02*
D03*
X1670000D02*
D03*
Y465000D02*
D03*
Y565000D02*
D03*
Y665000D02*
D03*
Y765000D02*
D03*
Y865000D02*
D03*
Y965000D02*
D03*
Y1065000D02*
D03*
Y1165000D02*
D03*
X2270000Y2365000D02*
D03*
Y2265000D02*
D03*
Y2165000D02*
D03*
Y2065000D02*
D03*
Y1965000D02*
D03*
Y1865000D02*
D03*
Y1765000D02*
D03*
Y1665000D02*
D03*
Y1565000D02*
D03*
Y1465000D02*
D03*
Y1365000D02*
D03*
X1670000D02*
D03*
Y1465000D02*
D03*
Y1565000D02*
D03*
Y1665000D02*
D03*
Y1765000D02*
D03*
Y1865000D02*
D03*
Y1965000D02*
D03*
Y2065000D02*
D03*
Y2165000D02*
D03*
Y2265000D02*
D03*
Y2365000D02*
D03*
Y2465000D02*
D03*
Y2565000D02*
D03*
Y2665000D02*
D03*
X1290000Y1630000D02*
D03*
Y1730000D02*
D03*
X330000Y710000D02*
D03*
Y610000D02*
D03*
X910000Y505000D02*
D03*
Y605000D02*
D03*
Y705000D02*
D03*
Y805000D02*
D03*
X610000D02*
D03*
Y705000D02*
D03*
Y605000D02*
D03*
Y505000D02*
D03*
X745000Y2115000D02*
D03*
Y2215000D02*
D03*
Y2315000D02*
D03*
X845000Y2165000D02*
D03*
Y2265000D02*
D03*
X495000Y2040000D02*
D03*
Y2440000D02*
D03*
X745000Y1445000D02*
D03*
Y1545000D02*
D03*
Y1645000D02*
D03*
X845000Y1495000D02*
D03*
Y1595000D02*
D03*
X495000Y1370000D02*
D03*
Y1770000D02*
D03*
D22*
X1290000Y1530000D02*
D03*
X330000Y510000D02*
D03*
X845000Y2365000D02*
D03*
Y1695000D02*
D03*
D23*
X2300000Y125000D02*
D03*
X145000Y135000D02*
D03*
X130000Y2915000D02*
D03*
X2310000Y2905000D02*
D03*
D24*
X990000Y2120000D02*
D03*
X1470000Y2215000D02*
D03*
%TF.MD5,eaec83360253110ec11ba425e96e20db*%
M02*
