G04*
G04 #@! TF.GenerationSoftware,Altium Limited,Altium Designer,19.1.8 (144)*
G04*
G04 Layer_Color=255*
%FSLAX25Y25*%
%MOIN*%
G70*
G01*
G75*
%ADD12C,0.01000*%
%ADD14C,0.00394*%
%ADD15C,0.00197*%
%ADD16R,0.04134X0.05118*%
%ADD17R,0.05512X0.04134*%
%ADD18R,0.05118X0.04134*%
%ADD19O,0.06496X0.02559*%
%ADD28C,0.06000*%
%ADD29R,0.06000X0.06000*%
D12*
X157000Y26500D02*
Y276500D01*
Y26500D02*
X237000D01*
Y276500D01*
X157000D02*
X237000D01*
X124000Y178000D02*
X134000D01*
X124000Y147999D02*
Y178000D01*
Y147999D02*
X134000D01*
Y178000D01*
X38000Y45999D02*
Y76000D01*
X28000Y45999D02*
X38000D01*
X28000D02*
Y76000D01*
X38000D01*
X96000Y45500D02*
Y85500D01*
X56000Y45500D02*
X96000D01*
X56000D02*
Y85500D01*
X96000D01*
X6000Y252500D02*
X50000D01*
X6000Y196000D02*
Y252500D01*
Y196000D02*
X92500D01*
Y252500D01*
X49500D02*
X92500D01*
X6000Y185500D02*
X50000D01*
X6000Y129000D02*
Y185500D01*
Y129000D02*
X92500D01*
Y185500D01*
X49500D02*
X92500D01*
D14*
X129299Y215701D02*
G03*
X129299Y215701I-1969J0D01*
G01*
X106909Y161020D02*
X115374D01*
X106909Y165980D02*
X115374D01*
Y161020D02*
Y165980D01*
X106909Y161020D02*
Y165980D01*
X121520Y203374D02*
X126480D01*
X121520Y194909D02*
X126480D01*
Y203374D01*
X121520Y194909D02*
Y203374D01*
X114480Y194768D02*
Y203232D01*
X109520Y194768D02*
Y203232D01*
X114480D01*
X109520Y194768D02*
X114480D01*
X115126Y231842D02*
X130874D01*
X115126Y212158D02*
X130874D01*
X115126D02*
Y231842D01*
X130874Y212158D02*
Y231842D01*
X111142Y161531D02*
Y165469D01*
X109173Y163500D02*
X113110D01*
X124000Y197173D02*
Y201110D01*
X122031Y199142D02*
X125969D01*
X110031Y199000D02*
X113969D01*
X112000Y197031D02*
Y200969D01*
X123000Y220031D02*
Y223969D01*
X121031Y222000D02*
X124969D01*
D15*
X104449Y159957D02*
X117835D01*
X104449Y167043D02*
X117835D01*
Y159957D02*
Y167043D01*
X104449Y159957D02*
Y167043D01*
X120260Y205835D02*
X127740D01*
X120260Y192449D02*
X127740D01*
Y205835D01*
X120260Y192449D02*
Y205835D01*
X115543Y192307D02*
Y205693D01*
X108457Y192307D02*
Y205693D01*
X115543D01*
X108457Y192307D02*
X115543D01*
X106661Y233811D02*
X139339D01*
X106661Y210189D02*
X139339D01*
X106661D02*
Y233811D01*
X139339Y210189D02*
Y233811D01*
D16*
X114784Y163500D02*
D03*
X107500D02*
D03*
D17*
X124000Y202783D02*
D03*
Y195500D02*
D03*
D18*
X112000Y202642D02*
D03*
Y195358D02*
D03*
D19*
X111878Y229500D02*
D03*
Y224500D02*
D03*
Y219500D02*
D03*
Y214500D02*
D03*
X134122Y229500D02*
D03*
Y224500D02*
D03*
Y219500D02*
D03*
Y214500D02*
D03*
D28*
X227000Y106500D02*
D03*
Y116500D02*
D03*
Y126500D02*
D03*
Y266500D02*
D03*
Y256500D02*
D03*
Y246500D02*
D03*
X167000Y126500D02*
D03*
X227000Y96500D02*
D03*
Y86500D02*
D03*
Y76500D02*
D03*
Y66500D02*
D03*
Y56500D02*
D03*
Y46500D02*
D03*
Y36500D02*
D03*
X167000D02*
D03*
Y46500D02*
D03*
Y56500D02*
D03*
Y66500D02*
D03*
Y76500D02*
D03*
Y86500D02*
D03*
Y96500D02*
D03*
Y106500D02*
D03*
Y116500D02*
D03*
X227000Y236500D02*
D03*
Y226500D02*
D03*
Y216500D02*
D03*
Y206500D02*
D03*
Y196500D02*
D03*
Y186500D02*
D03*
Y176500D02*
D03*
Y166500D02*
D03*
Y156500D02*
D03*
Y146500D02*
D03*
Y136500D02*
D03*
X167000D02*
D03*
Y146500D02*
D03*
Y156500D02*
D03*
Y166500D02*
D03*
Y176500D02*
D03*
Y186500D02*
D03*
Y196500D02*
D03*
Y206500D02*
D03*
Y216500D02*
D03*
Y226500D02*
D03*
Y236500D02*
D03*
Y246500D02*
D03*
Y256500D02*
D03*
Y266500D02*
D03*
X129000Y163000D02*
D03*
Y173000D02*
D03*
X33000Y71000D02*
D03*
Y61000D02*
D03*
X91000Y50500D02*
D03*
Y60500D02*
D03*
Y70500D02*
D03*
Y80500D02*
D03*
X61000D02*
D03*
Y70500D02*
D03*
Y60500D02*
D03*
Y50500D02*
D03*
X74500Y211500D02*
D03*
Y221500D02*
D03*
Y231500D02*
D03*
X84500Y216500D02*
D03*
Y226500D02*
D03*
X49500Y204000D02*
D03*
Y244000D02*
D03*
X74500Y144500D02*
D03*
Y154500D02*
D03*
Y164500D02*
D03*
X84500Y149500D02*
D03*
Y159500D02*
D03*
X49500Y137000D02*
D03*
Y177000D02*
D03*
X230000Y12500D02*
D03*
X14500Y13500D02*
D03*
X13000Y291500D02*
D03*
X231000Y290500D02*
D03*
D29*
X129000Y153000D02*
D03*
X33000Y51000D02*
D03*
X84500Y236500D02*
D03*
Y169500D02*
D03*
M02*
