G04*
G04 #@! TF.GenerationSoftware,Altium Limited,Altium Designer,19.1.8 (144)*
G04*
G04 Layer_Physical_Order=1*
G04 Layer_Color=255*
%FSLAX25Y25*%
%MOIN*%
G70*
G01*
G75*
%ADD12C,0.01000*%
%ADD14C,0.00394*%
%ADD15C,0.00197*%
%ADD16R,0.04134X0.05118*%
%ADD17R,0.05512X0.04134*%
%ADD18R,0.05118X0.04134*%
%ADD19O,0.06496X0.02559*%
%ADD27C,0.01500*%
%ADD28C,0.06000*%
%ADD29R,0.06000X0.06000*%
%ADD30C,0.05000*%
G36*
X220000Y280500D02*
X242000D01*
X242000Y22500D01*
X220000D01*
Y4500D01*
X26000D01*
Y24500D01*
X3000Y24500D01*
X3000Y281500D01*
X25000D01*
Y299500D01*
X220000D01*
X220000Y280500D01*
D02*
G37*
%LPC*%
G36*
X167500Y270469D02*
Y267000D01*
X170969D01*
X170897Y267544D01*
X170494Y268517D01*
X169853Y269353D01*
X169017Y269994D01*
X168044Y270397D01*
X167500Y270469D01*
D02*
G37*
G36*
X166500D02*
X165956Y270397D01*
X164983Y269994D01*
X164147Y269353D01*
X163506Y268517D01*
X163103Y267544D01*
X163031Y267000D01*
X166500D01*
Y270469D01*
D02*
G37*
G36*
X170969Y266000D02*
X167500D01*
Y262531D01*
X168044Y262603D01*
X169017Y263006D01*
X169853Y263647D01*
X170494Y264483D01*
X170897Y265456D01*
X170969Y266000D01*
D02*
G37*
G36*
X166500D02*
X163031D01*
X163103Y265456D01*
X163506Y264483D01*
X164147Y263647D01*
X164983Y263006D01*
X165956Y262603D01*
X166500Y262531D01*
Y266000D01*
D02*
G37*
G36*
X227000Y270534D02*
X225956Y270397D01*
X224983Y269994D01*
X224147Y269353D01*
X223506Y268517D01*
X223103Y267544D01*
X222966Y266500D01*
X223103Y265456D01*
X223506Y264483D01*
X224147Y263647D01*
X224983Y263006D01*
X225956Y262603D01*
X227000Y262466D01*
X228044Y262603D01*
X229017Y263006D01*
X229853Y263647D01*
X230494Y264483D01*
X230897Y265456D01*
X231034Y266500D01*
X230897Y267544D01*
X230494Y268517D01*
X229853Y269353D01*
X229017Y269994D01*
X228044Y270397D01*
X227000Y270534D01*
D02*
G37*
G36*
X227500Y260469D02*
Y257000D01*
X230969D01*
X230897Y257544D01*
X230494Y258517D01*
X229853Y259353D01*
X229017Y259994D01*
X228044Y260397D01*
X227500Y260469D01*
D02*
G37*
G36*
X226500D02*
X225956Y260397D01*
X224983Y259994D01*
X224147Y259353D01*
X223506Y258517D01*
X223103Y257544D01*
X223031Y257000D01*
X226500D01*
Y260469D01*
D02*
G37*
G36*
X230969Y256000D02*
X227500D01*
Y252531D01*
X228044Y252603D01*
X229017Y253006D01*
X229853Y253647D01*
X230494Y254483D01*
X230897Y255456D01*
X230969Y256000D01*
D02*
G37*
G36*
X226500D02*
X223031D01*
X223103Y255456D01*
X223506Y254483D01*
X224147Y253647D01*
X224983Y253006D01*
X225956Y252603D01*
X226500Y252531D01*
Y256000D01*
D02*
G37*
G36*
X167000Y260535D02*
X165956Y260397D01*
X164983Y259994D01*
X164147Y259353D01*
X163506Y258517D01*
X163103Y257544D01*
X162966Y256500D01*
X163103Y255456D01*
X163506Y254483D01*
X164147Y253647D01*
X164983Y253006D01*
X165956Y252603D01*
X167000Y252466D01*
X168044Y252603D01*
X169017Y253006D01*
X169853Y253647D01*
X170494Y254483D01*
X170897Y255456D01*
X171035Y256500D01*
X170897Y257544D01*
X170494Y258517D01*
X169853Y259353D01*
X169017Y259994D01*
X168044Y260397D01*
X167000Y260535D01*
D02*
G37*
G36*
X227000Y250535D02*
X225956Y250397D01*
X224983Y249994D01*
X224147Y249353D01*
X223506Y248517D01*
X223304Y248029D01*
X173364D01*
X172779Y247913D01*
X172283Y247581D01*
X171500Y246798D01*
X170972Y246978D01*
X170897Y247544D01*
X170494Y248517D01*
X169853Y249353D01*
X169017Y249994D01*
X168044Y250397D01*
X167000Y250535D01*
X165956Y250397D01*
X164983Y249994D01*
X164147Y249353D01*
X163506Y248517D01*
X163103Y247544D01*
X162966Y246500D01*
X163103Y245456D01*
X163506Y244483D01*
X163890Y243983D01*
X163643Y243483D01*
X137454D01*
X136868Y243367D01*
X136372Y243035D01*
X128293Y234956D01*
X127961Y234459D01*
X127845Y233874D01*
Y227279D01*
X127961Y226694D01*
X128293Y226198D01*
X129856Y224635D01*
X129829Y224500D01*
X129856Y224365D01*
X122919Y217428D01*
X122587Y216932D01*
X122471Y216347D01*
Y205850D01*
X120244D01*
Y199716D01*
X127756D01*
Y202636D01*
X127785Y202783D01*
X127756Y202931D01*
Y205850D01*
X125529D01*
Y215713D01*
X129369Y219552D01*
X129862Y219338D01*
X130006Y218611D01*
X130510Y217857D01*
X131264Y217353D01*
X131756Y217255D01*
Y216745D01*
X131264Y216647D01*
X130510Y216143D01*
X130006Y215389D01*
X129829Y214500D01*
X130006Y213611D01*
X130510Y212857D01*
X131264Y212353D01*
X132153Y212176D01*
X136091D01*
X136980Y212353D01*
X137734Y212857D01*
X137810Y212971D01*
X150805D01*
X152857Y210919D01*
X153353Y210587D01*
X153938Y210471D01*
X164700D01*
X164955Y210024D01*
X164952Y209971D01*
X164147Y209353D01*
X163506Y208517D01*
X163103Y207544D01*
X162966Y206500D01*
X163103Y205456D01*
X163506Y204483D01*
X164147Y203647D01*
X164983Y203006D01*
X165956Y202603D01*
X167000Y202466D01*
X168044Y202603D01*
X169017Y203006D01*
X169853Y203647D01*
X170494Y204483D01*
X170897Y205456D01*
X171035Y206500D01*
X170897Y207544D01*
X170494Y208517D01*
X169853Y209353D01*
X169048Y209971D01*
X169045Y210024D01*
X169300Y210471D01*
X169500D01*
X170085Y210587D01*
X170581Y210919D01*
X173081Y213419D01*
X173413Y213915D01*
X173529Y214500D01*
Y221500D01*
X173413Y222085D01*
X173081Y222581D01*
X170695Y224968D01*
X170897Y225456D01*
X171035Y226500D01*
X170897Y227544D01*
X170494Y228517D01*
X169853Y229353D01*
X169017Y229994D01*
X168044Y230397D01*
X167000Y230535D01*
X165956Y230397D01*
X164983Y229994D01*
X164147Y229353D01*
X163506Y228517D01*
X163103Y227544D01*
X162966Y226500D01*
X163103Y225456D01*
X163506Y224483D01*
X164147Y223647D01*
X164983Y223006D01*
X165956Y222603D01*
X167000Y222465D01*
X168044Y222603D01*
X168532Y222805D01*
X170471Y220866D01*
Y219325D01*
X169997Y219165D01*
X169853Y219353D01*
X169017Y219994D01*
X168044Y220397D01*
X167000Y220534D01*
X165956Y220397D01*
X165468Y220195D01*
X155081Y230581D01*
X154585Y230913D01*
X154000Y231029D01*
X137810D01*
X137734Y231143D01*
X136980Y231647D01*
X136091Y231824D01*
X132153D01*
X131403Y231675D01*
X130903Y231962D01*
Y233241D01*
X138087Y240424D01*
X164760D01*
X164826Y240296D01*
X164892Y239924D01*
X164147Y239353D01*
X163506Y238517D01*
X163103Y237544D01*
X162966Y236500D01*
X163103Y235456D01*
X163506Y234483D01*
X164147Y233647D01*
X164983Y233006D01*
X165956Y232603D01*
X167000Y232466D01*
X168044Y232603D01*
X169017Y233006D01*
X169853Y233647D01*
X170494Y234483D01*
X170897Y235456D01*
X171035Y236500D01*
X170897Y237544D01*
X170494Y238517D01*
X169853Y239353D01*
X169059Y239962D01*
X169051Y240135D01*
X169133Y240487D01*
X169403Y240541D01*
X169899Y240872D01*
X173997Y244971D01*
X223304D01*
X223506Y244483D01*
X224147Y243647D01*
X224983Y243006D01*
X225956Y242603D01*
X227000Y242465D01*
X228044Y242603D01*
X229017Y243006D01*
X229853Y243647D01*
X230494Y244483D01*
X230897Y245456D01*
X231034Y246500D01*
X230897Y247544D01*
X230494Y248517D01*
X229853Y249353D01*
X229017Y249994D01*
X228044Y250397D01*
X227000Y250535D01*
D02*
G37*
G36*
X88500Y240500D02*
X85000D01*
Y237000D01*
X88500D01*
Y240500D01*
D02*
G37*
G36*
X84000D02*
X80500D01*
Y237000D01*
X84000D01*
Y240500D01*
D02*
G37*
G36*
X49500Y251433D02*
X48050Y251291D01*
X46655Y250868D01*
X45370Y250181D01*
X44244Y249256D01*
X43319Y248130D01*
X42632Y246845D01*
X42209Y245450D01*
X42067Y244000D01*
X42209Y242550D01*
X42632Y241155D01*
X43319Y239870D01*
X44244Y238744D01*
X45370Y237819D01*
X46655Y237132D01*
X48050Y236709D01*
X49500Y236567D01*
X50950Y236709D01*
X52345Y237132D01*
X53630Y237819D01*
X54756Y238744D01*
X55681Y239870D01*
X56368Y241155D01*
X56791Y242550D01*
X56933Y244000D01*
X56791Y245450D01*
X56368Y246845D01*
X55681Y248130D01*
X54756Y249256D01*
X53630Y250181D01*
X52345Y250868D01*
X50950Y251291D01*
X49500Y251433D01*
D02*
G37*
G36*
X88500Y236000D02*
X84500D01*
X80500D01*
Y233029D01*
X78196D01*
X77994Y233517D01*
X77353Y234353D01*
X76517Y234994D01*
X75544Y235397D01*
X74500Y235535D01*
X73456Y235397D01*
X72483Y234994D01*
X71647Y234353D01*
X71006Y233517D01*
X70603Y232544D01*
X70465Y231500D01*
X70603Y230456D01*
X70805Y229968D01*
X68919Y228081D01*
X68587Y227585D01*
X68471Y227000D01*
Y190176D01*
X68587Y189591D01*
X68919Y189095D01*
X72971Y185043D01*
Y168196D01*
X72483Y167994D01*
X71647Y167353D01*
X71006Y166517D01*
X70603Y165544D01*
X70465Y164500D01*
X70603Y163456D01*
X71006Y162483D01*
X71647Y161647D01*
X72483Y161006D01*
X73456Y160603D01*
X74500Y160466D01*
X75544Y160603D01*
X76517Y161006D01*
X77353Y161647D01*
X77994Y162483D01*
X78196Y162971D01*
X81674D01*
X81835Y162497D01*
X81647Y162353D01*
X81006Y161517D01*
X80603Y160544D01*
X80466Y159500D01*
X80603Y158456D01*
X81006Y157483D01*
X81647Y156647D01*
X82483Y156006D01*
X83456Y155603D01*
X84500Y155465D01*
X85544Y155603D01*
X86032Y155805D01*
X89919Y151919D01*
X90415Y151587D01*
X91000Y151471D01*
X125000D01*
Y149000D01*
X133000D01*
Y157000D01*
X125000D01*
Y154529D01*
X91633D01*
X88195Y157968D01*
X88397Y158456D01*
X88534Y159500D01*
X88397Y160544D01*
X87994Y161517D01*
X87353Y162353D01*
X87165Y162497D01*
X87326Y162971D01*
X104433D01*
Y159941D01*
X110567D01*
Y167059D01*
X104433D01*
Y166029D01*
X88500D01*
Y169000D01*
X84500D01*
X80500D01*
Y166029D01*
X78196D01*
X77994Y166517D01*
X77353Y167353D01*
X76517Y167994D01*
X76029Y168196D01*
Y185677D01*
X75913Y186262D01*
X75581Y186758D01*
X71529Y190810D01*
Y208107D01*
X72029Y208354D01*
X72483Y208006D01*
X73456Y207603D01*
X74500Y207466D01*
X75544Y207603D01*
X76517Y208006D01*
X77353Y208647D01*
X77994Y209483D01*
X78091Y209716D01*
X96341D01*
X96504Y209504D01*
X97235Y208943D01*
X98086Y208590D01*
X99000Y208470D01*
X99914Y208590D01*
X100765Y208943D01*
X101496Y209504D01*
X102057Y210235D01*
X102410Y211086D01*
X102530Y212000D01*
X102410Y212914D01*
X102057Y213765D01*
X101496Y214496D01*
X100765Y215057D01*
X99914Y215410D01*
X99000Y215530D01*
X98086Y215410D01*
X97235Y215057D01*
X96504Y214496D01*
X95943Y213765D01*
X95744Y213284D01*
X87648D01*
X87458Y213784D01*
X87994Y214483D01*
X88397Y215456D01*
X88534Y216500D01*
X88397Y217544D01*
X87994Y218517D01*
X87353Y219353D01*
X86517Y219994D01*
X85544Y220397D01*
X84500Y220534D01*
X83456Y220397D01*
X82483Y219994D01*
X81647Y219353D01*
X81006Y218517D01*
X80603Y217544D01*
X80466Y216500D01*
X80603Y215456D01*
X81006Y214483D01*
X81542Y213784D01*
X81352Y213284D01*
X78091D01*
X77994Y213517D01*
X77353Y214353D01*
X76517Y214994D01*
X75544Y215397D01*
X74500Y215534D01*
X73456Y215397D01*
X72483Y214994D01*
X72029Y214646D01*
X71529Y214893D01*
Y218107D01*
X72029Y218354D01*
X72483Y218006D01*
X73456Y217603D01*
X74500Y217465D01*
X75544Y217603D01*
X76517Y218006D01*
X77353Y218647D01*
X77994Y219483D01*
X78397Y220456D01*
X78535Y221500D01*
X78397Y222544D01*
X77994Y223517D01*
X77353Y224353D01*
X76517Y224994D01*
X75544Y225397D01*
X74500Y225535D01*
X73456Y225397D01*
X72483Y224994D01*
X72029Y224646D01*
X71529Y224893D01*
Y226366D01*
X72968Y227805D01*
X73456Y227603D01*
X74500Y227466D01*
X75544Y227603D01*
X76517Y228006D01*
X77353Y228647D01*
X77994Y229483D01*
X78196Y229971D01*
X81674D01*
X81835Y229497D01*
X81647Y229353D01*
X81006Y228517D01*
X80603Y227544D01*
X80466Y226500D01*
X80603Y225456D01*
X81006Y224483D01*
X81647Y223647D01*
X82483Y223006D01*
X83456Y222603D01*
X84500Y222465D01*
X85544Y222603D01*
X86032Y222805D01*
X90419Y218419D01*
X90915Y218087D01*
X91500Y217971D01*
X108190D01*
X108266Y217857D01*
X109020Y217353D01*
X109512Y217255D01*
Y216745D01*
X109020Y216647D01*
X108266Y216143D01*
X107762Y215389D01*
X107585Y214500D01*
X107762Y213611D01*
X108266Y212857D01*
X109020Y212353D01*
X109909Y212176D01*
X110471D01*
Y205709D01*
X108441D01*
Y199575D01*
X115559D01*
Y205709D01*
X113529D01*
Y212176D01*
X113847D01*
X114736Y212353D01*
X115490Y212857D01*
X115994Y213611D01*
X116171Y214500D01*
X115994Y215389D01*
X115490Y216143D01*
X114736Y216647D01*
X114244Y216745D01*
Y217255D01*
X114736Y217353D01*
X115490Y217857D01*
X115994Y218611D01*
X116171Y219500D01*
X115994Y220389D01*
X115490Y221143D01*
X114736Y221647D01*
X114244Y221745D01*
Y222255D01*
X114736Y222353D01*
X115490Y222857D01*
X115994Y223611D01*
X116171Y224500D01*
X115994Y225389D01*
X115490Y226143D01*
X114736Y226647D01*
X114244Y226745D01*
Y227255D01*
X114736Y227353D01*
X115490Y227857D01*
X115994Y228611D01*
X116171Y229500D01*
X115994Y230389D01*
X115490Y231143D01*
X114736Y231647D01*
X113847Y231824D01*
X109909D01*
X109020Y231647D01*
X108266Y231143D01*
X107762Y230389D01*
X107585Y229500D01*
X107762Y228611D01*
X108266Y227857D01*
X109020Y227353D01*
X109512Y227255D01*
Y226745D01*
X109020Y226647D01*
X108266Y226143D01*
X108190Y226029D01*
X98627D01*
X92075Y232581D01*
X91579Y232913D01*
X90994Y233029D01*
X88500D01*
Y236000D01*
D02*
G37*
G36*
X227000Y240534D02*
X225956Y240397D01*
X224983Y239994D01*
X224147Y239353D01*
X223506Y238517D01*
X223103Y237544D01*
X222966Y236500D01*
X223103Y235456D01*
X223506Y234483D01*
X224147Y233647D01*
X224983Y233006D01*
X225956Y232603D01*
X227000Y232466D01*
X228044Y232603D01*
X229017Y233006D01*
X229853Y233647D01*
X230494Y234483D01*
X230897Y235456D01*
X231034Y236500D01*
X230897Y237544D01*
X230494Y238517D01*
X229853Y239353D01*
X229017Y239994D01*
X228044Y240397D01*
X227000Y240534D01*
D02*
G37*
G36*
Y230535D02*
X225956Y230397D01*
X224983Y229994D01*
X224147Y229353D01*
X223506Y228517D01*
X223103Y227544D01*
X222966Y226500D01*
X223103Y225456D01*
X223506Y224483D01*
X224147Y223647D01*
X224983Y223006D01*
X225956Y222603D01*
X227000Y222465D01*
X228044Y222603D01*
X229017Y223006D01*
X229853Y223647D01*
X230494Y224483D01*
X230897Y225456D01*
X231034Y226500D01*
X230897Y227544D01*
X230494Y228517D01*
X229853Y229353D01*
X229017Y229994D01*
X228044Y230397D01*
X227000Y230535D01*
D02*
G37*
G36*
Y220534D02*
X225956Y220397D01*
X224983Y219994D01*
X224147Y219353D01*
X223506Y218517D01*
X223103Y217544D01*
X222966Y216500D01*
X223103Y215456D01*
X223506Y214483D01*
X224147Y213647D01*
X224983Y213006D01*
X225956Y212603D01*
X227000Y212466D01*
X228044Y212603D01*
X229017Y213006D01*
X229853Y213647D01*
X230494Y214483D01*
X230897Y215456D01*
X231034Y216500D01*
X230897Y217544D01*
X230494Y218517D01*
X229853Y219353D01*
X229017Y219994D01*
X228044Y220397D01*
X227000Y220534D01*
D02*
G37*
G36*
Y210535D02*
X225956Y210397D01*
X224983Y209994D01*
X224147Y209353D01*
X223506Y208517D01*
X223103Y207544D01*
X222966Y206500D01*
X223103Y205456D01*
X223506Y204483D01*
X224147Y203647D01*
X224983Y203006D01*
X225956Y202603D01*
X227000Y202466D01*
X228044Y202603D01*
X229017Y203006D01*
X229853Y203647D01*
X230494Y204483D01*
X230897Y205456D01*
X231034Y206500D01*
X230897Y207544D01*
X230494Y208517D01*
X229853Y209353D01*
X229017Y209994D01*
X228044Y210397D01*
X227000Y210535D01*
D02*
G37*
G36*
X49500Y211433D02*
X48050Y211291D01*
X46655Y210868D01*
X45370Y210181D01*
X44244Y209256D01*
X43319Y208130D01*
X42632Y206845D01*
X42209Y205450D01*
X42067Y204000D01*
X42209Y202550D01*
X42632Y201155D01*
X43319Y199870D01*
X44244Y198744D01*
X45370Y197819D01*
X46655Y197132D01*
X48050Y196709D01*
X49500Y196567D01*
X50950Y196709D01*
X52345Y197132D01*
X53630Y197819D01*
X54756Y198744D01*
X55681Y199870D01*
X56368Y201155D01*
X56791Y202550D01*
X56933Y204000D01*
X56791Y205450D01*
X56368Y206845D01*
X55681Y208130D01*
X54756Y209256D01*
X53630Y210181D01*
X52345Y210868D01*
X50950Y211291D01*
X49500Y211433D01*
D02*
G37*
G36*
X127756Y198567D02*
X124500D01*
Y196000D01*
X127756D01*
Y198567D01*
D02*
G37*
G36*
X123500D02*
X120244D01*
Y196000D01*
X123500D01*
Y198567D01*
D02*
G37*
G36*
X115559Y198425D02*
X112500D01*
Y195858D01*
X115559D01*
Y198425D01*
D02*
G37*
G36*
X111500D02*
X108441D01*
Y195858D01*
X111500D01*
Y198425D01*
D02*
G37*
G36*
X227000Y200535D02*
X225956Y200397D01*
X224983Y199994D01*
X224147Y199353D01*
X223506Y198517D01*
X223103Y197544D01*
X222966Y196500D01*
X223103Y195456D01*
X223506Y194483D01*
X224147Y193647D01*
X224983Y193006D01*
X225956Y192603D01*
X227000Y192465D01*
X228044Y192603D01*
X229017Y193006D01*
X229853Y193647D01*
X230494Y194483D01*
X230897Y195456D01*
X231034Y196500D01*
X230897Y197544D01*
X230494Y198517D01*
X229853Y199353D01*
X229017Y199994D01*
X228044Y200397D01*
X227000Y200535D01*
D02*
G37*
G36*
X167000D02*
X165956Y200397D01*
X164983Y199994D01*
X164147Y199353D01*
X163506Y198517D01*
X163103Y197544D01*
X162966Y196500D01*
X163103Y195456D01*
X163506Y194483D01*
X164147Y193647D01*
X164983Y193006D01*
X165956Y192603D01*
X167000Y192465D01*
X168044Y192603D01*
X169017Y193006D01*
X169853Y193647D01*
X170494Y194483D01*
X170897Y195456D01*
X171035Y196500D01*
X170897Y197544D01*
X170494Y198517D01*
X169853Y199353D01*
X169017Y199994D01*
X168044Y200397D01*
X167000Y200535D01*
D02*
G37*
G36*
X127756Y195000D02*
X124500D01*
Y192433D01*
X127756D01*
Y195000D01*
D02*
G37*
G36*
X123500D02*
X120244D01*
Y192433D01*
X123500D01*
Y195000D01*
D02*
G37*
G36*
X115559Y194858D02*
X112500D01*
Y192291D01*
X115559D01*
Y194858D01*
D02*
G37*
G36*
X111500D02*
X108441D01*
Y192291D01*
X111500D01*
Y194858D01*
D02*
G37*
G36*
X227000Y190534D02*
X225956Y190397D01*
X224983Y189994D01*
X224147Y189353D01*
X223506Y188517D01*
X223103Y187544D01*
X222966Y186500D01*
X223103Y185456D01*
X223506Y184483D01*
X224147Y183647D01*
X224983Y183006D01*
X225956Y182603D01*
X227000Y182466D01*
X228044Y182603D01*
X229017Y183006D01*
X229853Y183647D01*
X230494Y184483D01*
X230897Y185456D01*
X231034Y186500D01*
X230897Y187544D01*
X230494Y188517D01*
X229853Y189353D01*
X229017Y189994D01*
X228044Y190397D01*
X227000Y190534D01*
D02*
G37*
G36*
X167000D02*
X165956Y190397D01*
X164983Y189994D01*
X164147Y189353D01*
X163506Y188517D01*
X163103Y187544D01*
X162966Y186500D01*
X163103Y185456D01*
X163506Y184483D01*
X164147Y183647D01*
X164983Y183006D01*
X165956Y182603D01*
X167000Y182466D01*
X168044Y182603D01*
X169017Y183006D01*
X169853Y183647D01*
X170494Y184483D01*
X170897Y185456D01*
X171035Y186500D01*
X170897Y187544D01*
X170494Y188517D01*
X169853Y189353D01*
X169017Y189994D01*
X168044Y190397D01*
X167000Y190534D01*
D02*
G37*
G36*
X227000Y180535D02*
X225956Y180397D01*
X224983Y179994D01*
X224147Y179353D01*
X223506Y178517D01*
X223103Y177544D01*
X222966Y176500D01*
X223103Y175456D01*
X223506Y174483D01*
X224147Y173647D01*
X224983Y173006D01*
X225956Y172603D01*
X227000Y172466D01*
X228044Y172603D01*
X229017Y173006D01*
X229853Y173647D01*
X230494Y174483D01*
X230897Y175456D01*
X231034Y176500D01*
X230897Y177544D01*
X230494Y178517D01*
X229853Y179353D01*
X229017Y179994D01*
X228044Y180397D01*
X227000Y180535D01*
D02*
G37*
G36*
X167000D02*
X165956Y180397D01*
X164983Y179994D01*
X164147Y179353D01*
X163506Y178517D01*
X163103Y177544D01*
X162966Y176500D01*
X163103Y175456D01*
X163506Y174483D01*
X164147Y173647D01*
X164983Y173006D01*
X165956Y172603D01*
X167000Y172466D01*
X168044Y172603D01*
X169017Y173006D01*
X169853Y173647D01*
X170494Y174483D01*
X170897Y175456D01*
X171035Y176500D01*
X170897Y177544D01*
X170494Y178517D01*
X169853Y179353D01*
X169017Y179994D01*
X168044Y180397D01*
X167000Y180535D01*
D02*
G37*
G36*
X88500Y173500D02*
X85000D01*
Y170000D01*
X88500D01*
Y173500D01*
D02*
G37*
G36*
X84000D02*
X80500D01*
Y170000D01*
X84000D01*
Y173500D01*
D02*
G37*
G36*
X49500Y184433D02*
X48050Y184291D01*
X46655Y183868D01*
X45370Y183181D01*
X44244Y182256D01*
X43319Y181130D01*
X42632Y179845D01*
X42209Y178450D01*
X42067Y177000D01*
X42209Y175550D01*
X42632Y174155D01*
X43319Y172870D01*
X44244Y171744D01*
X45370Y170819D01*
X46655Y170132D01*
X48050Y169709D01*
X49500Y169567D01*
X50950Y169709D01*
X52345Y170132D01*
X53630Y170819D01*
X54756Y171744D01*
X55681Y172870D01*
X56368Y174155D01*
X56791Y175550D01*
X56933Y177000D01*
X56791Y178450D01*
X56368Y179845D01*
X55681Y181130D01*
X54756Y182256D01*
X53630Y183181D01*
X52345Y183868D01*
X50950Y184291D01*
X49500Y184433D01*
D02*
G37*
G36*
X129000Y177034D02*
X127956Y176897D01*
X126983Y176494D01*
X126147Y175853D01*
X125506Y175017D01*
X125103Y174044D01*
X124966Y173000D01*
X125103Y171956D01*
X125506Y170983D01*
X126147Y170147D01*
X126983Y169506D01*
X127956Y169103D01*
X129000Y168965D01*
X130044Y169103D01*
X131017Y169506D01*
X131853Y170147D01*
X132494Y170983D01*
X132897Y171956D01*
X133035Y173000D01*
X132897Y174044D01*
X132494Y175017D01*
X131853Y175853D01*
X131017Y176494D01*
X130044Y176897D01*
X129000Y177034D01*
D02*
G37*
G36*
X227000Y170535D02*
X225956Y170397D01*
X224983Y169994D01*
X224147Y169353D01*
X223506Y168517D01*
X223103Y167544D01*
X222966Y166500D01*
X223103Y165456D01*
X223506Y164483D01*
X224147Y163647D01*
X224983Y163006D01*
X225956Y162603D01*
X227000Y162466D01*
X228044Y162603D01*
X229017Y163006D01*
X229853Y163647D01*
X230494Y164483D01*
X230897Y165456D01*
X231034Y166500D01*
X230897Y167544D01*
X230494Y168517D01*
X229853Y169353D01*
X229017Y169994D01*
X228044Y170397D01*
X227000Y170535D01*
D02*
G37*
G36*
X167000D02*
X165956Y170397D01*
X164983Y169994D01*
X164147Y169353D01*
X163506Y168517D01*
X163103Y167544D01*
X162966Y166500D01*
X163103Y165456D01*
X163506Y164483D01*
X164147Y163647D01*
X164983Y163006D01*
X165956Y162603D01*
X167000Y162466D01*
X168044Y162603D01*
X169017Y163006D01*
X169853Y163647D01*
X170494Y164483D01*
X170897Y165456D01*
X171035Y166500D01*
X170897Y167544D01*
X170494Y168517D01*
X169853Y169353D01*
X169017Y169994D01*
X168044Y170397D01*
X167000Y170535D01*
D02*
G37*
G36*
X117850Y167059D02*
X111716D01*
Y159941D01*
X117850D01*
Y161471D01*
X125304D01*
X125506Y160983D01*
X126147Y160147D01*
X126983Y159506D01*
X127956Y159103D01*
X129000Y158966D01*
X130044Y159103D01*
X131017Y159506D01*
X131853Y160147D01*
X132494Y160983D01*
X132897Y161956D01*
X133035Y163000D01*
X132897Y164044D01*
X132494Y165017D01*
X131853Y165853D01*
X131017Y166494D01*
X130044Y166897D01*
X129000Y167034D01*
X127956Y166897D01*
X126983Y166494D01*
X126147Y165853D01*
X125506Y165017D01*
X125304Y164529D01*
X117850D01*
Y167059D01*
D02*
G37*
G36*
X227000Y160535D02*
X225956Y160397D01*
X224983Y159994D01*
X224147Y159353D01*
X223506Y158517D01*
X223103Y157544D01*
X222966Y156500D01*
X223103Y155456D01*
X223506Y154483D01*
X224147Y153647D01*
X224983Y153006D01*
X225956Y152603D01*
X227000Y152465D01*
X228044Y152603D01*
X229017Y153006D01*
X229853Y153647D01*
X230494Y154483D01*
X230897Y155456D01*
X231034Y156500D01*
X230897Y157544D01*
X230494Y158517D01*
X229853Y159353D01*
X229017Y159994D01*
X228044Y160397D01*
X227000Y160535D01*
D02*
G37*
G36*
X167000D02*
X165956Y160397D01*
X164983Y159994D01*
X164147Y159353D01*
X163506Y158517D01*
X163103Y157544D01*
X162966Y156500D01*
X163103Y155456D01*
X163506Y154483D01*
X164147Y153647D01*
X164983Y153006D01*
X165956Y152603D01*
X167000Y152465D01*
X168044Y152603D01*
X169017Y153006D01*
X169853Y153647D01*
X170494Y154483D01*
X170897Y155456D01*
X171035Y156500D01*
X170897Y157544D01*
X170494Y158517D01*
X169853Y159353D01*
X169017Y159994D01*
X168044Y160397D01*
X167000Y160535D01*
D02*
G37*
G36*
X74500Y158535D02*
X73456Y158397D01*
X72483Y157994D01*
X71647Y157353D01*
X71006Y156517D01*
X70603Y155544D01*
X70465Y154500D01*
X70603Y153456D01*
X71006Y152483D01*
X71647Y151647D01*
X72483Y151006D01*
X73456Y150603D01*
X74500Y150466D01*
X75544Y150603D01*
X76517Y151006D01*
X77353Y151647D01*
X77994Y152483D01*
X78397Y153456D01*
X78535Y154500D01*
X78397Y155544D01*
X77994Y156517D01*
X77353Y157353D01*
X76517Y157994D01*
X75544Y158397D01*
X74500Y158535D01*
D02*
G37*
G36*
X84500Y153534D02*
X83456Y153397D01*
X82483Y152994D01*
X81647Y152353D01*
X81006Y151517D01*
X80603Y150544D01*
X80466Y149500D01*
X80603Y148456D01*
X81006Y147483D01*
X81647Y146647D01*
X82483Y146006D01*
X83456Y145603D01*
X84500Y145466D01*
X85544Y145603D01*
X86517Y146006D01*
X87353Y146647D01*
X87994Y147483D01*
X88397Y148456D01*
X88534Y149500D01*
X88397Y150544D01*
X87994Y151517D01*
X87353Y152353D01*
X86517Y152994D01*
X85544Y153397D01*
X84500Y153534D01*
D02*
G37*
G36*
X227000Y150534D02*
X225956Y150397D01*
X224983Y149994D01*
X224147Y149353D01*
X223506Y148517D01*
X223103Y147544D01*
X222966Y146500D01*
X223103Y145456D01*
X223506Y144483D01*
X224147Y143647D01*
X224983Y143006D01*
X225956Y142603D01*
X227000Y142465D01*
X228044Y142603D01*
X229017Y143006D01*
X229853Y143647D01*
X230494Y144483D01*
X230897Y145456D01*
X231034Y146500D01*
X230897Y147544D01*
X230494Y148517D01*
X229853Y149353D01*
X229017Y149994D01*
X228044Y150397D01*
X227000Y150534D01*
D02*
G37*
G36*
X167000D02*
X165956Y150397D01*
X164983Y149994D01*
X164147Y149353D01*
X163506Y148517D01*
X163103Y147544D01*
X162966Y146500D01*
X163103Y145456D01*
X163506Y144483D01*
X164147Y143647D01*
X164983Y143006D01*
X165956Y142603D01*
X167000Y142465D01*
X168044Y142603D01*
X169017Y143006D01*
X169853Y143647D01*
X170494Y144483D01*
X170897Y145456D01*
X171035Y146500D01*
X170897Y147544D01*
X170494Y148517D01*
X169853Y149353D01*
X169017Y149994D01*
X168044Y150397D01*
X167000Y150534D01*
D02*
G37*
G36*
X74500Y148535D02*
X73456Y148397D01*
X72483Y147994D01*
X71647Y147353D01*
X71006Y146517D01*
X70603Y145544D01*
X70465Y144500D01*
X70603Y143456D01*
X71006Y142483D01*
X71647Y141647D01*
X72483Y141006D01*
X73456Y140603D01*
X74500Y140465D01*
X75544Y140603D01*
X76517Y141006D01*
X77353Y141647D01*
X77994Y142483D01*
X78397Y143456D01*
X78535Y144500D01*
X78397Y145544D01*
X77994Y146517D01*
X77353Y147353D01*
X76517Y147994D01*
X75544Y148397D01*
X74500Y148535D01*
D02*
G37*
G36*
X227000Y140534D02*
X225956Y140397D01*
X224983Y139994D01*
X224147Y139353D01*
X223506Y138517D01*
X223103Y137544D01*
X222966Y136500D01*
X223103Y135456D01*
X223506Y134483D01*
X224147Y133647D01*
X224983Y133006D01*
X225956Y132603D01*
X227000Y132466D01*
X228044Y132603D01*
X229017Y133006D01*
X229853Y133647D01*
X230494Y134483D01*
X230897Y135456D01*
X231034Y136500D01*
X230897Y137544D01*
X230494Y138517D01*
X229853Y139353D01*
X229017Y139994D01*
X228044Y140397D01*
X227000Y140534D01*
D02*
G37*
G36*
X167000D02*
X165956Y140397D01*
X164983Y139994D01*
X164147Y139353D01*
X163506Y138517D01*
X163103Y137544D01*
X162966Y136500D01*
X163103Y135456D01*
X163506Y134483D01*
X164147Y133647D01*
X164983Y133006D01*
X165956Y132603D01*
X167000Y132466D01*
X168044Y132603D01*
X169017Y133006D01*
X169853Y133647D01*
X170494Y134483D01*
X170897Y135456D01*
X171035Y136500D01*
X170897Y137544D01*
X170494Y138517D01*
X169853Y139353D01*
X169017Y139994D01*
X168044Y140397D01*
X167000Y140534D01*
D02*
G37*
G36*
X49500Y144433D02*
X48050Y144291D01*
X46655Y143868D01*
X45370Y143181D01*
X44244Y142256D01*
X43319Y141130D01*
X42632Y139845D01*
X42209Y138450D01*
X42067Y137000D01*
X42209Y135550D01*
X42632Y134155D01*
X43319Y132870D01*
X44244Y131744D01*
X45370Y130819D01*
X46655Y130132D01*
X48050Y129709D01*
X49500Y129567D01*
X50950Y129709D01*
X52345Y130132D01*
X53630Y130819D01*
X54756Y131744D01*
X55681Y132870D01*
X56368Y134155D01*
X56791Y135550D01*
X56933Y137000D01*
X56791Y138450D01*
X56368Y139845D01*
X55681Y141130D01*
X54756Y142256D01*
X53630Y143181D01*
X52345Y143868D01*
X50950Y144291D01*
X49500Y144433D01*
D02*
G37*
G36*
X227500Y130469D02*
Y127000D01*
X230969D01*
X230897Y127544D01*
X230494Y128517D01*
X229853Y129353D01*
X229017Y129994D01*
X228044Y130397D01*
X227500Y130469D01*
D02*
G37*
G36*
X226500D02*
X225956Y130397D01*
X224983Y129994D01*
X224147Y129353D01*
X223506Y128517D01*
X223103Y127544D01*
X223031Y127000D01*
X226500D01*
Y130469D01*
D02*
G37*
G36*
X230969Y126000D02*
X227500D01*
Y122531D01*
X228044Y122603D01*
X229017Y123006D01*
X229853Y123647D01*
X230494Y124483D01*
X230897Y125456D01*
X230969Y126000D01*
D02*
G37*
G36*
X226500D02*
X223031D01*
X223103Y125456D01*
X223506Y124483D01*
X224147Y123647D01*
X224983Y123006D01*
X225956Y122603D01*
X226500Y122531D01*
Y126000D01*
D02*
G37*
G36*
X167000Y130535D02*
X165956Y130397D01*
X164983Y129994D01*
X164147Y129353D01*
X163506Y128517D01*
X163103Y127544D01*
X162966Y126500D01*
X163103Y125456D01*
X163506Y124483D01*
X164147Y123647D01*
X164983Y123006D01*
X165956Y122603D01*
X167000Y122466D01*
X168044Y122603D01*
X169017Y123006D01*
X169853Y123647D01*
X170494Y124483D01*
X170897Y125456D01*
X171035Y126500D01*
X170897Y127544D01*
X170494Y128517D01*
X169853Y129353D01*
X169017Y129994D01*
X168044Y130397D01*
X167000Y130535D01*
D02*
G37*
G36*
X227000Y120535D02*
X225956Y120397D01*
X224983Y119994D01*
X224147Y119353D01*
X223506Y118517D01*
X223103Y117544D01*
X222966Y116500D01*
X223103Y115456D01*
X223506Y114483D01*
X224147Y113647D01*
X224983Y113006D01*
X225956Y112603D01*
X227000Y112466D01*
X228044Y112603D01*
X229017Y113006D01*
X229853Y113647D01*
X230494Y114483D01*
X230897Y115456D01*
X231034Y116500D01*
X230897Y117544D01*
X230494Y118517D01*
X229853Y119353D01*
X229017Y119994D01*
X228044Y120397D01*
X227000Y120535D01*
D02*
G37*
G36*
X167000D02*
X165956Y120397D01*
X164983Y119994D01*
X164147Y119353D01*
X163506Y118517D01*
X163103Y117544D01*
X162966Y116500D01*
X163103Y115456D01*
X163506Y114483D01*
X164147Y113647D01*
X164983Y113006D01*
X165956Y112603D01*
X167000Y112466D01*
X168044Y112603D01*
X169017Y113006D01*
X169853Y113647D01*
X170494Y114483D01*
X170897Y115456D01*
X171035Y116500D01*
X170897Y117544D01*
X170494Y118517D01*
X169853Y119353D01*
X169017Y119994D01*
X168044Y120397D01*
X167000Y120535D01*
D02*
G37*
G36*
X227000Y110535D02*
X225956Y110397D01*
X224983Y109994D01*
X224147Y109353D01*
X223506Y108517D01*
X223103Y107544D01*
X222966Y106500D01*
X223103Y105456D01*
X223506Y104483D01*
X224147Y103647D01*
X224983Y103006D01*
X225956Y102603D01*
X227000Y102465D01*
X228044Y102603D01*
X229017Y103006D01*
X229853Y103647D01*
X230494Y104483D01*
X230897Y105456D01*
X231034Y106500D01*
X230897Y107544D01*
X230494Y108517D01*
X229853Y109353D01*
X229017Y109994D01*
X228044Y110397D01*
X227000Y110535D01*
D02*
G37*
G36*
X167000D02*
X165956Y110397D01*
X164983Y109994D01*
X164147Y109353D01*
X163506Y108517D01*
X163103Y107544D01*
X162966Y106500D01*
X163103Y105456D01*
X163506Y104483D01*
X164147Y103647D01*
X164983Y103006D01*
X165956Y102603D01*
X167000Y102465D01*
X168044Y102603D01*
X169017Y103006D01*
X169853Y103647D01*
X170494Y104483D01*
X170897Y105456D01*
X171035Y106500D01*
X170897Y107544D01*
X170494Y108517D01*
X169853Y109353D01*
X169017Y109994D01*
X168044Y110397D01*
X167000Y110535D01*
D02*
G37*
G36*
X227000Y100534D02*
X225956Y100397D01*
X224983Y99994D01*
X224147Y99353D01*
X223506Y98517D01*
X223103Y97544D01*
X222966Y96500D01*
X223103Y95456D01*
X223506Y94483D01*
X224147Y93647D01*
X224983Y93006D01*
X225956Y92603D01*
X227000Y92466D01*
X228044Y92603D01*
X229017Y93006D01*
X229853Y93647D01*
X230494Y94483D01*
X230897Y95456D01*
X231034Y96500D01*
X230897Y97544D01*
X230494Y98517D01*
X229853Y99353D01*
X229017Y99994D01*
X228044Y100397D01*
X227000Y100534D01*
D02*
G37*
G36*
X167000D02*
X165956Y100397D01*
X164983Y99994D01*
X164147Y99353D01*
X163506Y98517D01*
X163103Y97544D01*
X162966Y96500D01*
X163103Y95456D01*
X163506Y94483D01*
X164147Y93647D01*
X164983Y93006D01*
X165956Y92603D01*
X167000Y92466D01*
X168044Y92603D01*
X169017Y93006D01*
X169853Y93647D01*
X170494Y94483D01*
X170897Y95456D01*
X171035Y96500D01*
X170897Y97544D01*
X170494Y98517D01*
X169853Y99353D01*
X169017Y99994D01*
X168044Y100397D01*
X167000Y100534D01*
D02*
G37*
G36*
X227000Y90535D02*
X225956Y90397D01*
X224983Y89994D01*
X224147Y89353D01*
X223506Y88517D01*
X223103Y87544D01*
X222966Y86500D01*
X223103Y85456D01*
X223506Y84483D01*
X224147Y83647D01*
X224983Y83006D01*
X225956Y82603D01*
X227000Y82465D01*
X228044Y82603D01*
X229017Y83006D01*
X229853Y83647D01*
X230494Y84483D01*
X230897Y85456D01*
X231034Y86500D01*
X230897Y87544D01*
X230494Y88517D01*
X229853Y89353D01*
X229017Y89994D01*
X228044Y90397D01*
X227000Y90535D01*
D02*
G37*
G36*
X167000D02*
X165956Y90397D01*
X164983Y89994D01*
X164147Y89353D01*
X163506Y88517D01*
X163103Y87544D01*
X162966Y86500D01*
X163103Y85456D01*
X163506Y84483D01*
X164147Y83647D01*
X164983Y83006D01*
X165956Y82603D01*
X167000Y82465D01*
X168044Y82603D01*
X169017Y83006D01*
X169853Y83647D01*
X170494Y84483D01*
X170897Y85456D01*
X171035Y86500D01*
X170897Y87544D01*
X170494Y88517D01*
X169853Y89353D01*
X169017Y89994D01*
X168044Y90397D01*
X167000Y90535D01*
D02*
G37*
G36*
X91500Y84469D02*
Y81000D01*
X94969D01*
X94897Y81544D01*
X94494Y82517D01*
X93853Y83353D01*
X93017Y83994D01*
X92044Y84397D01*
X91500Y84469D01*
D02*
G37*
G36*
X90500D02*
X89956Y84397D01*
X88983Y83994D01*
X88147Y83353D01*
X87506Y82517D01*
X87103Y81544D01*
X87031Y81000D01*
X90500D01*
Y84469D01*
D02*
G37*
G36*
X94969Y80000D02*
X91500D01*
Y76531D01*
X92044Y76603D01*
X93017Y77006D01*
X93853Y77647D01*
X94494Y78483D01*
X94897Y79456D01*
X94969Y80000D01*
D02*
G37*
G36*
X90500D02*
X87031D01*
X87103Y79456D01*
X87506Y78483D01*
X88147Y77647D01*
X88983Y77006D01*
X89956Y76603D01*
X90500Y76531D01*
Y80000D01*
D02*
G37*
G36*
X61000Y84535D02*
X59956Y84397D01*
X58983Y83994D01*
X58147Y83353D01*
X57506Y82517D01*
X57103Y81544D01*
X56966Y80500D01*
X57103Y79456D01*
X57305Y78968D01*
X50867Y72529D01*
X36696D01*
X36494Y73017D01*
X35853Y73853D01*
X35017Y74494D01*
X34044Y74897D01*
X33000Y75034D01*
X31956Y74897D01*
X30983Y74494D01*
X30147Y73853D01*
X29506Y73017D01*
X29103Y72044D01*
X28965Y71000D01*
X29103Y69956D01*
X29506Y68983D01*
X30147Y68147D01*
X30983Y67506D01*
X31956Y67103D01*
X33000Y66966D01*
X34044Y67103D01*
X35017Y67506D01*
X35853Y68147D01*
X36494Y68983D01*
X36696Y69471D01*
X51500D01*
X52085Y69587D01*
X52581Y69919D01*
X59468Y76805D01*
X59956Y76603D01*
X61000Y76465D01*
X62044Y76603D01*
X63017Y77006D01*
X63853Y77647D01*
X64494Y78483D01*
X64897Y79456D01*
X65035Y80500D01*
X64897Y81544D01*
X64494Y82517D01*
X63853Y83353D01*
X63017Y83994D01*
X62044Y84397D01*
X61000Y84535D01*
D02*
G37*
G36*
X227000Y80534D02*
X225956Y80397D01*
X224983Y79994D01*
X224147Y79353D01*
X223506Y78517D01*
X223103Y77544D01*
X222966Y76500D01*
X223103Y75456D01*
X223506Y74483D01*
X224147Y73647D01*
X224983Y73006D01*
X225956Y72603D01*
X227000Y72465D01*
X228044Y72603D01*
X229017Y73006D01*
X229853Y73647D01*
X230494Y74483D01*
X230897Y75456D01*
X231034Y76500D01*
X230897Y77544D01*
X230494Y78517D01*
X229853Y79353D01*
X229017Y79994D01*
X228044Y80397D01*
X227000Y80534D01*
D02*
G37*
G36*
X167000D02*
X165956Y80397D01*
X164983Y79994D01*
X164147Y79353D01*
X163506Y78517D01*
X163103Y77544D01*
X162966Y76500D01*
X163103Y75456D01*
X163506Y74483D01*
X164147Y73647D01*
X164983Y73006D01*
X165956Y72603D01*
X167000Y72465D01*
X168044Y72603D01*
X169017Y73006D01*
X169853Y73647D01*
X170494Y74483D01*
X170897Y75456D01*
X171035Y76500D01*
X170897Y77544D01*
X170494Y78517D01*
X169853Y79353D01*
X169017Y79994D01*
X168044Y80397D01*
X167000Y80534D01*
D02*
G37*
G36*
X91000Y74534D02*
X89956Y74397D01*
X88983Y73994D01*
X88147Y73353D01*
X87506Y72517D01*
X87103Y71544D01*
X86966Y70500D01*
X87103Y69456D01*
X87506Y68483D01*
X88147Y67647D01*
X88983Y67006D01*
X89956Y66603D01*
X91000Y66466D01*
X92044Y66603D01*
X93017Y67006D01*
X93853Y67647D01*
X94494Y68483D01*
X94897Y69456D01*
X95034Y70500D01*
X94897Y71544D01*
X94494Y72517D01*
X93853Y73353D01*
X93017Y73994D01*
X92044Y74397D01*
X91000Y74534D01*
D02*
G37*
G36*
X61000D02*
X59956Y74397D01*
X58983Y73994D01*
X58147Y73353D01*
X57506Y72517D01*
X57103Y71544D01*
X56966Y70500D01*
X57103Y69456D01*
X57305Y68968D01*
X50867Y62529D01*
X36696D01*
X36494Y63017D01*
X35853Y63853D01*
X35017Y64494D01*
X34044Y64897D01*
X33000Y65035D01*
X31956Y64897D01*
X30983Y64494D01*
X30147Y63853D01*
X29506Y63017D01*
X29103Y62044D01*
X28965Y61000D01*
X29103Y59956D01*
X29506Y58983D01*
X30147Y58147D01*
X30983Y57506D01*
X31956Y57103D01*
X33000Y56966D01*
X34044Y57103D01*
X35017Y57506D01*
X35853Y58147D01*
X36494Y58983D01*
X36696Y59471D01*
X51500D01*
X52085Y59587D01*
X52581Y59919D01*
X59468Y66805D01*
X59956Y66603D01*
X61000Y66466D01*
X62044Y66603D01*
X63017Y67006D01*
X63853Y67647D01*
X64494Y68483D01*
X64897Y69456D01*
X65035Y70500D01*
X64897Y71544D01*
X64494Y72517D01*
X63853Y73353D01*
X63017Y73994D01*
X62044Y74397D01*
X61000Y74534D01*
D02*
G37*
G36*
X227000Y70534D02*
X225956Y70397D01*
X224983Y69994D01*
X224147Y69353D01*
X223506Y68517D01*
X223103Y67544D01*
X222966Y66500D01*
X223103Y65456D01*
X223506Y64483D01*
X224147Y63647D01*
X224983Y63006D01*
X225956Y62603D01*
X227000Y62466D01*
X228044Y62603D01*
X229017Y63006D01*
X229853Y63647D01*
X230494Y64483D01*
X230897Y65456D01*
X231034Y66500D01*
X230897Y67544D01*
X230494Y68517D01*
X229853Y69353D01*
X229017Y69994D01*
X228044Y70397D01*
X227000Y70534D01*
D02*
G37*
G36*
X167000D02*
X165956Y70397D01*
X164983Y69994D01*
X164147Y69353D01*
X163506Y68517D01*
X163103Y67544D01*
X162966Y66500D01*
X163103Y65456D01*
X163506Y64483D01*
X164147Y63647D01*
X164983Y63006D01*
X165956Y62603D01*
X167000Y62466D01*
X168044Y62603D01*
X169017Y63006D01*
X169853Y63647D01*
X170494Y64483D01*
X170897Y65456D01*
X171035Y66500D01*
X170897Y67544D01*
X170494Y68517D01*
X169853Y69353D01*
X169017Y69994D01*
X168044Y70397D01*
X167000Y70534D01*
D02*
G37*
G36*
X61000Y64534D02*
X59956Y64397D01*
X58983Y63994D01*
X58147Y63353D01*
X57506Y62517D01*
X57103Y61544D01*
X56966Y60500D01*
X57103Y59456D01*
X57506Y58483D01*
X58147Y57647D01*
X58983Y57006D01*
X59956Y56603D01*
X61000Y56466D01*
X62044Y56603D01*
X63017Y57006D01*
X63853Y57647D01*
X64494Y58483D01*
X64897Y59456D01*
X65035Y60500D01*
X64897Y61544D01*
X64494Y62517D01*
X63853Y63353D01*
X63017Y63994D01*
X62044Y64397D01*
X61000Y64534D01*
D02*
G37*
G36*
X227000Y60535D02*
X225956Y60397D01*
X224983Y59994D01*
X224147Y59353D01*
X223506Y58517D01*
X223103Y57544D01*
X222966Y56500D01*
X223103Y55456D01*
X223506Y54483D01*
X224147Y53647D01*
X224983Y53006D01*
X225956Y52603D01*
X227000Y52465D01*
X228044Y52603D01*
X229017Y53006D01*
X229853Y53647D01*
X230494Y54483D01*
X230897Y55456D01*
X231034Y56500D01*
X230897Y57544D01*
X230494Y58517D01*
X229853Y59353D01*
X229017Y59994D01*
X228044Y60397D01*
X227000Y60535D01*
D02*
G37*
G36*
X91000Y64534D02*
X89956Y64397D01*
X88983Y63994D01*
X88147Y63353D01*
X87506Y62517D01*
X87103Y61544D01*
X86966Y60500D01*
X87103Y59456D01*
X87506Y58483D01*
X88147Y57647D01*
X88983Y57006D01*
X89956Y56603D01*
X91000Y56466D01*
X92044Y56603D01*
X92532Y56805D01*
X93919Y55419D01*
X94415Y55087D01*
X95000Y54971D01*
X163304D01*
X163506Y54483D01*
X164147Y53647D01*
X164983Y53006D01*
X165956Y52603D01*
X167000Y52465D01*
X168044Y52603D01*
X169017Y53006D01*
X169853Y53647D01*
X170494Y54483D01*
X170897Y55456D01*
X171035Y56500D01*
X170897Y57544D01*
X170494Y58517D01*
X169853Y59353D01*
X169017Y59994D01*
X168044Y60397D01*
X167000Y60535D01*
X165956Y60397D01*
X164983Y59994D01*
X164147Y59353D01*
X163506Y58517D01*
X163304Y58029D01*
X95634D01*
X94695Y58968D01*
X94897Y59456D01*
X95034Y60500D01*
X94897Y61544D01*
X94494Y62517D01*
X93853Y63353D01*
X93017Y63994D01*
X92044Y64397D01*
X91000Y64534D01*
D02*
G37*
G36*
Y54535D02*
X89956Y54397D01*
X88983Y53994D01*
X88147Y53353D01*
X87506Y52517D01*
X87103Y51544D01*
X86966Y50500D01*
X87103Y49456D01*
X87506Y48483D01*
X88147Y47647D01*
X88983Y47006D01*
X89956Y46603D01*
X91000Y46466D01*
X92044Y46603D01*
X93017Y47006D01*
X93853Y47647D01*
X94494Y48483D01*
X94897Y49456D01*
X95034Y50500D01*
X94897Y51544D01*
X94494Y52517D01*
X93853Y53353D01*
X93017Y53994D01*
X92044Y54397D01*
X91000Y54535D01*
D02*
G37*
G36*
X37000Y55000D02*
X29000D01*
Y47000D01*
X37000D01*
Y48971D01*
X57304D01*
X57506Y48483D01*
X58147Y47647D01*
X58983Y47006D01*
X59956Y46603D01*
X61000Y46466D01*
X62044Y46603D01*
X63017Y47006D01*
X63853Y47647D01*
X64494Y48483D01*
X64897Y49456D01*
X65035Y50500D01*
X64897Y51544D01*
X64494Y52517D01*
X63853Y53353D01*
X63017Y53994D01*
X62044Y54397D01*
X61000Y54535D01*
X59956Y54397D01*
X58983Y53994D01*
X58147Y53353D01*
X57506Y52517D01*
X57304Y52029D01*
X37000D01*
Y55000D01*
D02*
G37*
G36*
X227000Y50534D02*
X225956Y50397D01*
X224983Y49994D01*
X224147Y49353D01*
X223506Y48517D01*
X223103Y47544D01*
X222966Y46500D01*
X223103Y45456D01*
X223506Y44483D01*
X224147Y43647D01*
X224983Y43006D01*
X225956Y42603D01*
X227000Y42465D01*
X228044Y42603D01*
X229017Y43006D01*
X229853Y43647D01*
X230494Y44483D01*
X230897Y45456D01*
X231034Y46500D01*
X230897Y47544D01*
X230494Y48517D01*
X229853Y49353D01*
X229017Y49994D01*
X228044Y50397D01*
X227000Y50534D01*
D02*
G37*
G36*
X167000D02*
X165956Y50397D01*
X164983Y49994D01*
X164147Y49353D01*
X163506Y48517D01*
X163103Y47544D01*
X162966Y46500D01*
X163103Y45456D01*
X163506Y44483D01*
X164147Y43647D01*
X164983Y43006D01*
X165956Y42603D01*
X167000Y42465D01*
X168044Y42603D01*
X169017Y43006D01*
X169853Y43647D01*
X170494Y44483D01*
X170897Y45456D01*
X171035Y46500D01*
X170897Y47544D01*
X170494Y48517D01*
X169853Y49353D01*
X169017Y49994D01*
X168044Y50397D01*
X167000Y50534D01*
D02*
G37*
G36*
X227000Y40534D02*
X225956Y40397D01*
X224983Y39994D01*
X224147Y39353D01*
X223506Y38517D01*
X223103Y37544D01*
X222966Y36500D01*
X223103Y35456D01*
X223506Y34483D01*
X224147Y33647D01*
X224983Y33006D01*
X225956Y32603D01*
X227000Y32465D01*
X228044Y32603D01*
X229017Y33006D01*
X229853Y33647D01*
X230494Y34483D01*
X230897Y35456D01*
X231034Y36500D01*
X230897Y37544D01*
X230494Y38517D01*
X229853Y39353D01*
X229017Y39994D01*
X228044Y40397D01*
X227000Y40534D01*
D02*
G37*
G36*
X167000D02*
X165956Y40397D01*
X164983Y39994D01*
X164147Y39353D01*
X163506Y38517D01*
X163103Y37544D01*
X162966Y36500D01*
X163103Y35456D01*
X163506Y34483D01*
X164147Y33647D01*
X164983Y33006D01*
X165956Y32603D01*
X167000Y32465D01*
X168044Y32603D01*
X169017Y33006D01*
X169853Y33647D01*
X170494Y34483D01*
X170897Y35456D01*
X171035Y36500D01*
X170897Y37544D01*
X170494Y38517D01*
X169853Y39353D01*
X169017Y39994D01*
X168044Y40397D01*
X167000Y40534D01*
D02*
G37*
%LPD*%
G36*
X163305Y218032D02*
X163103Y217544D01*
X162966Y216500D01*
X163103Y215456D01*
X163506Y214483D01*
X163854Y214029D01*
X163607Y213529D01*
X154572D01*
X152520Y215581D01*
X152023Y215913D01*
X151438Y216029D01*
X137810D01*
X137734Y216143D01*
X136980Y216647D01*
X136488Y216745D01*
Y217255D01*
X136980Y217353D01*
X137734Y217857D01*
X138238Y218611D01*
X138315Y219000D01*
X134122D01*
Y220000D01*
X138315D01*
X138238Y220389D01*
X137734Y221143D01*
X136980Y221647D01*
X136488Y221745D01*
Y222255D01*
X136980Y222353D01*
X137734Y222857D01*
X138238Y223611D01*
X138415Y224500D01*
X138238Y225389D01*
X137734Y226143D01*
X136980Y226647D01*
X136488Y226745D01*
Y227255D01*
X136980Y227353D01*
X137734Y227857D01*
X137810Y227971D01*
X153366D01*
X163305Y218032D01*
D02*
G37*
%LPC*%
G36*
X147500Y224964D02*
Y222000D01*
X150464D01*
X150410Y222414D01*
X150057Y223265D01*
X149496Y223996D01*
X148765Y224557D01*
X147914Y224910D01*
X147500Y224964D01*
D02*
G37*
G36*
X146500D02*
X146086Y224910D01*
X145235Y224557D01*
X144504Y223996D01*
X143943Y223265D01*
X143590Y222414D01*
X143536Y222000D01*
X146500D01*
Y224964D01*
D02*
G37*
G36*
X150464Y221000D02*
X147500D01*
Y218036D01*
X147914Y218090D01*
X148765Y218443D01*
X149496Y219004D01*
X150057Y219735D01*
X150410Y220586D01*
X150464Y221000D01*
D02*
G37*
G36*
X146500D02*
X143536D01*
X143590Y220586D01*
X143943Y219735D01*
X144504Y219004D01*
X145235Y218443D01*
X146086Y218090D01*
X146500Y218036D01*
Y221000D01*
D02*
G37*
%LPD*%
G36*
X96912Y223419D02*
X97408Y223087D01*
X97994Y222971D01*
X108190D01*
X108266Y222857D01*
X109020Y222353D01*
X109512Y222255D01*
Y221745D01*
X109020Y221647D01*
X108266Y221143D01*
X108190Y221029D01*
X92133D01*
X88195Y224968D01*
X88397Y225456D01*
X88534Y226500D01*
X88397Y227544D01*
X87994Y228517D01*
X87353Y229353D01*
X87165Y229497D01*
X87326Y229971D01*
X90360D01*
X96912Y223419D01*
D02*
G37*
D12*
X98500Y211500D02*
X99000Y212000D01*
X51500Y71000D02*
X61000Y80500D01*
X33000Y71000D02*
X51500D01*
Y61000D02*
X61000Y70500D01*
X33000Y61000D02*
X51500D01*
X33000Y51000D02*
X33500Y50500D01*
X61000D01*
X91000Y60500D02*
X95000Y56500D01*
X167000D01*
X124000Y205039D02*
X125411Y203628D01*
X123845D02*
X125411D01*
X124000Y216347D02*
X132153Y224500D01*
X124000Y205039D02*
Y216347D01*
X124689Y202783D02*
X126256D01*
X124000D02*
X124689D01*
X125472Y203567D02*
X126256Y202783D01*
X125411Y203628D02*
X125472Y203567D01*
X124689Y202783D02*
X125472Y203567D01*
X132153Y224500D02*
X134122D01*
X137454Y241954D02*
X168818D01*
X129374Y233874D02*
X137454Y241954D01*
X129374Y227279D02*
Y233874D01*
Y227279D02*
X132153Y224500D01*
X167000Y226500D02*
X172000Y221500D01*
Y214500D02*
Y221500D01*
X169500Y212000D02*
X172000Y214500D01*
X153938Y212000D02*
X169500D01*
X151438Y214500D02*
X153938Y212000D01*
X134122Y214500D02*
X151438D01*
X154000Y229500D02*
X167000Y216500D01*
X134122Y229500D02*
X154000D01*
X168818Y241954D02*
X173364Y246500D01*
X227000D01*
X70000Y190176D02*
Y227000D01*
X74500Y231500D01*
X70000Y190176D02*
X74500Y185677D01*
Y164500D02*
Y185677D01*
Y231500D02*
X90994D01*
X97994Y224500D01*
X111878D01*
X84500Y226500D02*
X91500Y219500D01*
X111878D01*
Y214500D02*
X112000Y214378D01*
Y202642D02*
Y214378D01*
X84500Y159500D02*
X91000Y153000D01*
X129000D01*
X115284Y163000D02*
X129000D01*
X114784Y163500D02*
X115284Y163000D01*
X106500Y164500D02*
X107500Y163500D01*
X74500Y164500D02*
X106500D01*
X166136Y127364D02*
X167000Y126500D01*
X226500Y196500D02*
X227000D01*
X167000Y126500D02*
X167864Y127364D01*
X157000Y26500D02*
Y276500D01*
Y26500D02*
X237000D01*
Y276500D01*
X157000D02*
X237000D01*
X124000Y178000D02*
X134000D01*
X124000Y147999D02*
Y178000D01*
Y147999D02*
X134000D01*
Y178000D01*
X38000Y45999D02*
Y76000D01*
X28000Y45999D02*
X38000D01*
X28000D02*
Y76000D01*
X38000D01*
X96000Y45500D02*
Y85500D01*
X56000Y45500D02*
X96000D01*
X56000D02*
Y85500D01*
X96000D01*
X6000Y252500D02*
X50000D01*
X6000Y196000D02*
Y252500D01*
Y196000D02*
X92500D01*
Y252500D01*
X49500D02*
X92500D01*
X6000Y185500D02*
X50000D01*
X6000Y129000D02*
Y185500D01*
Y129000D02*
X92500D01*
Y185500D01*
X49500D02*
X92500D01*
D14*
X129299Y215701D02*
G03*
X129299Y215701I-1969J0D01*
G01*
X106909Y161020D02*
X115374D01*
X106909Y165980D02*
X115374D01*
Y161020D02*
Y165980D01*
X106909Y161020D02*
Y165980D01*
X121520Y203374D02*
X126480D01*
X121520Y194909D02*
X126480D01*
Y203374D01*
X121520Y194909D02*
Y203374D01*
X114480Y194768D02*
Y203232D01*
X109520Y194768D02*
Y203232D01*
X114480D01*
X109520Y194768D02*
X114480D01*
X115126Y231842D02*
X130874D01*
X115126Y212158D02*
X130874D01*
X115126D02*
Y231842D01*
X130874Y212158D02*
Y231842D01*
X111142Y161531D02*
Y165469D01*
X109173Y163500D02*
X113110D01*
X124000Y197173D02*
Y201110D01*
X122031Y199142D02*
X125969D01*
X110031Y199000D02*
X113969D01*
X112000Y197031D02*
Y200969D01*
X123000Y220031D02*
Y223969D01*
X121031Y222000D02*
X124969D01*
D15*
X104449Y159957D02*
X117835D01*
X104449Y167043D02*
X117835D01*
Y159957D02*
Y167043D01*
X104449Y159957D02*
Y167043D01*
X120260Y205835D02*
X127740D01*
X120260Y192449D02*
X127740D01*
Y205835D01*
X120260Y192449D02*
Y205835D01*
X115543Y192307D02*
Y205693D01*
X108457Y192307D02*
Y205693D01*
X115543D01*
X108457Y192307D02*
X115543D01*
X106661Y233811D02*
X139339D01*
X106661Y210189D02*
X139339D01*
X106661D02*
Y233811D01*
X139339Y210189D02*
Y233811D01*
D16*
X114784Y163500D02*
D03*
X107500D02*
D03*
D17*
X124000Y202783D02*
D03*
Y195500D02*
D03*
D18*
X112000Y202642D02*
D03*
Y195358D02*
D03*
D19*
X111878Y229500D02*
D03*
Y224500D02*
D03*
Y219500D02*
D03*
Y214500D02*
D03*
X134122Y229500D02*
D03*
Y224500D02*
D03*
Y219500D02*
D03*
Y214500D02*
D03*
D27*
X74500Y211500D02*
X98500D01*
D28*
X227000Y106500D02*
D03*
Y116500D02*
D03*
Y126500D02*
D03*
Y266500D02*
D03*
Y256500D02*
D03*
Y246500D02*
D03*
X167000Y126500D02*
D03*
X227000Y96500D02*
D03*
Y86500D02*
D03*
Y76500D02*
D03*
Y66500D02*
D03*
Y56500D02*
D03*
Y46500D02*
D03*
Y36500D02*
D03*
X167000D02*
D03*
Y46500D02*
D03*
Y56500D02*
D03*
Y66500D02*
D03*
Y76500D02*
D03*
Y86500D02*
D03*
Y96500D02*
D03*
Y106500D02*
D03*
Y116500D02*
D03*
X227000Y236500D02*
D03*
Y226500D02*
D03*
Y216500D02*
D03*
Y206500D02*
D03*
Y196500D02*
D03*
Y186500D02*
D03*
Y176500D02*
D03*
Y166500D02*
D03*
Y156500D02*
D03*
Y146500D02*
D03*
Y136500D02*
D03*
X167000D02*
D03*
Y146500D02*
D03*
Y156500D02*
D03*
Y166500D02*
D03*
Y176500D02*
D03*
Y186500D02*
D03*
Y196500D02*
D03*
Y206500D02*
D03*
Y216500D02*
D03*
Y226500D02*
D03*
Y236500D02*
D03*
Y246500D02*
D03*
Y256500D02*
D03*
Y266500D02*
D03*
X129000Y163000D02*
D03*
Y173000D02*
D03*
X33000Y71000D02*
D03*
Y61000D02*
D03*
X91000Y50500D02*
D03*
Y60500D02*
D03*
Y70500D02*
D03*
Y80500D02*
D03*
X61000D02*
D03*
Y70500D02*
D03*
Y60500D02*
D03*
Y50500D02*
D03*
X74500Y211500D02*
D03*
Y221500D02*
D03*
Y231500D02*
D03*
X84500Y216500D02*
D03*
Y226500D02*
D03*
X49500Y204000D02*
D03*
Y244000D02*
D03*
X74500Y144500D02*
D03*
Y154500D02*
D03*
Y164500D02*
D03*
X84500Y149500D02*
D03*
Y159500D02*
D03*
X49500Y137000D02*
D03*
Y177000D02*
D03*
X230000Y12500D02*
D03*
X14500Y13500D02*
D03*
X13000Y291500D02*
D03*
X231000Y290500D02*
D03*
D29*
X129000Y153000D02*
D03*
X33000Y51000D02*
D03*
X84500Y236500D02*
D03*
Y169500D02*
D03*
D30*
X99000Y212000D02*
D03*
X147000Y221500D02*
D03*
M02*
