%TF.GenerationSoftware,Altium Limited,Altium Designer,19.1.8 (144)*%
G04 Layer_Color=128*
%FSLAX26Y26*%
%MOIN*%
%TF.FileFunction,Drillmap*%
%TF.Part,Single*%
G01*
G75*
%TA.AperFunction,NonConductor*%
%ADD46C,0.005000*%
D46*
X2250000Y1065000D02*
X2290000D01*
X2270000Y1045000D02*
Y1085000D01*
X2250000Y1165000D02*
X2290000D01*
X2270000Y1145000D02*
Y1185000D01*
X2250000Y1265000D02*
X2290000D01*
X2270000Y1245000D02*
Y1285000D01*
X2250000Y2665000D02*
X2290000D01*
X2270000Y2645000D02*
Y2685000D01*
X2250000Y2565000D02*
X2290000D01*
X2270000Y2545000D02*
Y2585000D01*
X2250000Y2465000D02*
X2290000D01*
X2270000Y2445000D02*
Y2485000D01*
X1650000Y1265000D02*
X1690000D01*
X1670000Y1245000D02*
Y1285000D01*
X2250000Y965000D02*
X2290000D01*
X2270000Y945000D02*
Y985000D01*
X2250000Y865000D02*
X2290000D01*
X2270000Y845000D02*
Y885000D01*
X2250000Y765000D02*
X2290000D01*
X2270000Y745000D02*
Y785000D01*
X2250000Y665000D02*
X2290000D01*
X2270000Y645000D02*
Y685000D01*
X2250000Y565000D02*
X2290000D01*
X2270000Y545000D02*
Y585000D01*
X2250000Y465000D02*
X2290000D01*
X2270000Y445000D02*
Y485000D01*
X2250000Y365000D02*
X2290000D01*
X2270000Y345000D02*
Y385000D01*
X1650000Y365000D02*
X1690000D01*
X1670000Y345000D02*
Y385000D01*
X1650000Y465000D02*
X1690000D01*
X1670000Y445000D02*
Y485000D01*
X1650000Y565000D02*
X1690000D01*
X1670000Y545000D02*
Y585000D01*
X1650000Y665000D02*
X1690000D01*
X1670000Y645000D02*
Y685000D01*
X1650000Y765000D02*
X1690000D01*
X1670000Y745000D02*
Y785000D01*
X1650000Y865000D02*
X1690000D01*
X1670000Y845000D02*
Y885000D01*
X1650000Y965000D02*
X1690000D01*
X1670000Y945000D02*
Y985000D01*
X1650000Y1065000D02*
X1690000D01*
X1670000Y1045000D02*
Y1085000D01*
X1650000Y1165000D02*
X1690000D01*
X1670000Y1145000D02*
Y1185000D01*
X2250000Y2365000D02*
X2290000D01*
X2270000Y2345000D02*
Y2385000D01*
X2250000Y2265000D02*
X2290000D01*
X2270000Y2245000D02*
Y2285000D01*
X2250000Y2165000D02*
X2290000D01*
X2270000Y2145000D02*
Y2185000D01*
X2250000Y2065000D02*
X2290000D01*
X2270000Y2045000D02*
Y2085000D01*
X2250000Y1965000D02*
X2290000D01*
X2270000Y1945000D02*
Y1985000D01*
X2250000Y1865000D02*
X2290000D01*
X2270000Y1845000D02*
Y1885000D01*
X2250000Y1765000D02*
X2290000D01*
X2270000Y1745000D02*
Y1785000D01*
X2250000Y1665000D02*
X2290000D01*
X2270000Y1645000D02*
Y1685000D01*
X2250000Y1565000D02*
X2290000D01*
X2270000Y1545000D02*
Y1585000D01*
X2250000Y1465000D02*
X2290000D01*
X2270000Y1445000D02*
Y1485000D01*
X2250000Y1365000D02*
X2290000D01*
X2270000Y1345000D02*
Y1385000D01*
X1650000Y1365000D02*
X1690000D01*
X1670000Y1345000D02*
Y1385000D01*
X1650000Y1465000D02*
X1690000D01*
X1670000Y1445000D02*
Y1485000D01*
X1650000Y1565000D02*
X1690000D01*
X1670000Y1545000D02*
Y1585000D01*
X1650000Y1665000D02*
X1690000D01*
X1670000Y1645000D02*
Y1685000D01*
X1650000Y1765000D02*
X1690000D01*
X1670000Y1745000D02*
Y1785000D01*
X1650000Y1865000D02*
X1690000D01*
X1670000Y1845000D02*
Y1885000D01*
X1650000Y1965000D02*
X1690000D01*
X1670000Y1945000D02*
Y1985000D01*
X1650000Y2065000D02*
X1690000D01*
X1670000Y2045000D02*
Y2085000D01*
X1650000Y2165000D02*
X1690000D01*
X1670000Y2145000D02*
Y2185000D01*
X1650000Y2265000D02*
X1690000D01*
X1670000Y2245000D02*
Y2285000D01*
X1650000Y2365000D02*
X1690000D01*
X1670000Y2345000D02*
Y2385000D01*
X1650000Y2465000D02*
X1690000D01*
X1670000Y2445000D02*
Y2485000D01*
X1650000Y2565000D02*
X1690000D01*
X1670000Y2545000D02*
Y2585000D01*
X1650000Y2665000D02*
X1690000D01*
X1670000Y2645000D02*
Y2685000D01*
X1269921Y1530000D02*
X1310079D01*
X1290000Y1509921D02*
Y1550079D01*
X1269921Y1630000D02*
X1310079D01*
X1290000Y1609921D02*
Y1650079D01*
X1269921Y1730000D02*
X1310079D01*
X1290000Y1709921D02*
Y1750079D01*
X309921Y710000D02*
X350079D01*
X330000Y689921D02*
Y730079D01*
X309921Y610000D02*
X350079D01*
X330000Y589921D02*
Y630079D01*
X309921Y510000D02*
X350079D01*
X330000Y489921D02*
Y530079D01*
X895000Y505000D02*
X925000D01*
X910000Y490000D02*
Y520000D01*
X895000Y605000D02*
X925000D01*
X910000Y590000D02*
Y620000D01*
X895000Y705000D02*
X925000D01*
X910000Y690000D02*
Y720000D01*
X895000Y805000D02*
X925000D01*
X910000Y790000D02*
Y820000D01*
X595000Y805000D02*
X625000D01*
X610000Y790000D02*
Y820000D01*
X595000Y705000D02*
X625000D01*
X610000Y690000D02*
Y720000D01*
X595000Y605000D02*
X625000D01*
X610000Y590000D02*
Y620000D01*
X595000Y505000D02*
X625000D01*
X610000Y490000D02*
Y520000D01*
X727480Y2115000D02*
X762520D01*
X745000Y2097480D02*
Y2132520D01*
X727480Y2215000D02*
X762520D01*
X745000Y2197480D02*
Y2232520D01*
X727480Y2315000D02*
X762520D01*
X745000Y2297480D02*
Y2332520D01*
X827480Y2165000D02*
X862520D01*
X845000Y2147480D02*
Y2182520D01*
X827480Y2265000D02*
X862520D01*
X845000Y2247480D02*
Y2282520D01*
X827480Y2365000D02*
X862520D01*
X845000Y2347480D02*
Y2382520D01*
X431024Y2040000D02*
X558976D01*
X495000Y1976024D02*
Y2103976D01*
X431024Y2440000D02*
X558976D01*
X495000Y2376024D02*
Y2503976D01*
X727480Y1445000D02*
X762520D01*
X745000Y1427480D02*
Y1462520D01*
X727480Y1545000D02*
X762520D01*
X745000Y1527480D02*
Y1562520D01*
X727480Y1645000D02*
X762520D01*
X745000Y1627480D02*
Y1662520D01*
X827480Y1495000D02*
X862520D01*
X845000Y1477480D02*
Y1512520D01*
X827480Y1595000D02*
X862520D01*
X845000Y1577480D02*
Y1612520D01*
X827480Y1695000D02*
X862520D01*
X845000Y1677480D02*
Y1712520D01*
X431024Y1370000D02*
X558976D01*
X495000Y1306024D02*
Y1433976D01*
X431024Y1770000D02*
X558976D01*
X495000Y1706024D02*
Y1833976D01*
X2221260Y125000D02*
X2378740D01*
X2300000Y46260D02*
Y203740D01*
X66260Y135000D02*
X223740D01*
X145000Y56260D02*
Y213740D01*
X51260Y2915000D02*
X208740D01*
X130000Y2836260D02*
Y2993740D01*
X2231260Y2905000D02*
X2388740D01*
X2310000Y2826260D02*
Y2983740D01*
X976000Y2120000D02*
X1004000D01*
X990000Y2106000D02*
Y2134000D01*
X1456000Y2215000D02*
X1484000D01*
X1470000Y2201000D02*
Y2229000D01*
%TF.MD5,2ecaa010fd97833017b7c17ed888035b*%
M02*
