M48
;Layer_Color=9474304
;FILE_FORMAT=2:5
INCH,TZ
;TYPE=PLATED
T1F00S00C0.01181
T2F00S00C0.03543
T3F00S00C0.04000
T4F00S00C0.04016
T5F00S00C0.15748
%
T01
X78500Y91000
X80709Y173228
T02
X211122Y50787
X220965
X247047Y50197
X256890
X288583Y64567
Y74410
X45669Y169291
X35827Y169685
X55512Y169291
X65354
X212992
X222835
X253937
X263779
X288976Y155512
X288976Y145669
Y135827
X288583Y84252
T03
X206000Y80000
X216000
X226000
X236000
X246000
X256000
X266000
X196000
X186000
X176000
X166000
X156000
X146000
X136000
X126000
X116000
X106000
X96000
X86000
X76000
X66000
X56000
X46000
X36000
Y140000
X46000
X56000
X66000
X76000
X86000
X96000
X106000
X116000
X126000
X136000
X146000
X156000
X166000
X176000
X186000
X196000
X206000
X216000
X226000
X236000
X246000
X256000
X266000
T04
X206000Y68000
X216000
X226000
X236000
X246000
X256000
X266000
X196000
X186000
X176000
X166000
X156000
X146000
X136000
X126000
X116000
X106000
X96000
X86000
X76000
X66000
X56000
X76000Y56000
Y46000
X86000
X96000
Y56000
X86000
X116000
Y46000
X126000
X136000
Y56000
X126000
X156000
Y46000
X166000
X176000
Y56000
X166000
X46000Y68000
X36000
Y154000
X46000
X56000
X66000
X76000
X86000
X96000
X106000
X116000
X126000
X136000
X146000
X156000
X166000
X176000
X186000
X196000
X148189Y181496
X138189
X128189
X111181Y181102
X101181
X91181
X206000Y154000
X216000
X226000
X236000
X246000
X256000
X266000
T05
X15748Y27559
X12000Y193000
X290000Y110500
M30
