M48
;Layer_Color=9474304
;FILE_FORMAT=2:5
INCH,TZ
;TYPE=PLATED
T1F00S00C0.02800
T2F00S00C0.03543
T3F00S00C0.04000
T4F00S00C0.04016
T5F00S00C0.15748
%
T01
X78500Y91000
X87000Y187000
T02
X211157Y21000
X221000
X247158
X257000
X289000Y21158
Y31000
X289394Y40843
X46000Y192000
X36158Y192394
X55843Y192000
X65685
X219000
X228842
X256000
X265843
X289394Y194685
X289000Y184843
Y175000
T03
X206000Y80000
X216000
X226000
X236000
X246000
X256000
X266000
X196000
X186000
X176000
X166000
X156000
X146000
X136000
X126000
X116000
X106000
X96000
X86000
X76000
X66000
X56000
X46000
X36000
Y140000
X46000
X56000
X66000
X76000
X86000
X96000
X106000
X116000
X126000
X136000
X146000
X156000
X166000
X176000
X186000
X196000
X206000
X216000
X226000
X236000
X246000
X256000
X266000
T04
X206000Y50000
X216000
X226000
X236000
X246000
X256000
X266000
X196000
X186000
X176000
X166000
X156000
X146000
X136000
X126000
X116000
X106000
X96000
X86000
X76000
X66000
X56000
X76000Y24000
Y14000
X86000
X96000
Y24000
X86000
X116000
Y14000
X126000
X136000
Y24000
X126000
X156000
Y14000
X166000
X176000
Y24000
X166000
X46000Y50000
X36000
Y169500
X46000
X56000
X66000
X76000
X86000
X96000
X106000
X116000
X126000
X136000
X146000
X156000
X166000
X176000
X186000
X196000
X148000Y195000
X138000
X128000
X111500
X101500
X91500
X206000Y169500
X216000
X226000
X236000
X246000
X256000
X266000
T05
X14000Y22000
X12000Y193000
X290000Y110500
M30
