G04*
G04 #@! TF.GenerationSoftware,Altium Limited,Altium Designer,19.1.8 (144)*
G04*
G04 Layer_Color=8388736*
%FSLAX25Y25*%
%MOIN*%
G70*
G01*
G75*
%ADD11C,0.01000*%
%ADD13R,0.04934X0.06312*%
%ADD14C,0.06800*%
%ADD15R,0.06800X0.06800*%
%ADD16C,0.10800*%
%ADD17O,0.10800X0.10848*%
%ADD18C,0.05800*%
D11*
X1000Y9000D02*
X303000D01*
X303000Y205000D02*
X303000Y9000D01*
X1000Y205000D02*
X303000D01*
X1000D02*
X1000Y9000D01*
D13*
X138000Y182500D02*
D03*
X145283D02*
D03*
D14*
X289000Y21158D02*
D03*
Y31000D02*
D03*
X289394Y40843D02*
D03*
Y194685D02*
D03*
X289000Y184843D02*
D03*
Y175000D02*
D03*
X265843Y192000D02*
D03*
X256000D02*
D03*
X211157Y21000D02*
D03*
X221000D02*
D03*
X56000Y80000D02*
D03*
X76000D02*
D03*
X66000D02*
D03*
X46000D02*
D03*
X36000D02*
D03*
X106000D02*
D03*
X96000D02*
D03*
X86000D02*
D03*
X126000D02*
D03*
X116000D02*
D03*
X46000Y140000D02*
D03*
X36000D02*
D03*
X66000D02*
D03*
X56000D02*
D03*
X86000D02*
D03*
X76000D02*
D03*
X106000D02*
D03*
X96000D02*
D03*
X126000D02*
D03*
X116000D02*
D03*
X176000Y80000D02*
D03*
X196000D02*
D03*
X186000D02*
D03*
X146000D02*
D03*
X136000D02*
D03*
X166000D02*
D03*
X156000D02*
D03*
X216000D02*
D03*
X206000D02*
D03*
X236000D02*
D03*
X226000D02*
D03*
X266000D02*
D03*
X246000D02*
D03*
X176000Y140000D02*
D03*
X196000D02*
D03*
X186000D02*
D03*
X146000D02*
D03*
X136000D02*
D03*
X166000D02*
D03*
X156000D02*
D03*
X216000D02*
D03*
X206000D02*
D03*
X256000Y80000D02*
D03*
X226000Y140000D02*
D03*
X246000D02*
D03*
X236000D02*
D03*
X266000D02*
D03*
X256000D02*
D03*
X219000Y192000D02*
D03*
X228842D02*
D03*
X65685D02*
D03*
X55843D02*
D03*
X46000D02*
D03*
X36158Y192394D02*
D03*
X257000Y21000D02*
D03*
X247158D02*
D03*
X256000Y169500D02*
D03*
X246000D02*
D03*
X236000D02*
D03*
X226000D02*
D03*
X186000D02*
D03*
X196000D02*
D03*
X206000D02*
D03*
X216000D02*
D03*
X146000D02*
D03*
X156000D02*
D03*
X166000D02*
D03*
X176000D02*
D03*
X106000D02*
D03*
X116000D02*
D03*
X126000D02*
D03*
X136000D02*
D03*
X66000D02*
D03*
X56000D02*
D03*
X46000D02*
D03*
X96000D02*
D03*
X86000D02*
D03*
X76000D02*
D03*
X266000D02*
D03*
X138000Y195000D02*
D03*
X148000D02*
D03*
X101500D02*
D03*
X111500D02*
D03*
X46000Y50000D02*
D03*
X56000D02*
D03*
X66000D02*
D03*
X76000D02*
D03*
X116000D02*
D03*
X106000D02*
D03*
X96000D02*
D03*
X86000D02*
D03*
X156000D02*
D03*
X146000D02*
D03*
X136000D02*
D03*
X126000D02*
D03*
X196000D02*
D03*
X186000D02*
D03*
X176000D02*
D03*
X166000D02*
D03*
X236000D02*
D03*
X246000D02*
D03*
X256000D02*
D03*
X206000D02*
D03*
X216000D02*
D03*
X226000D02*
D03*
X36000D02*
D03*
X166000Y14000D02*
D03*
X176000D02*
D03*
X156000Y24000D02*
D03*
X166000D02*
D03*
X176000D02*
D03*
X86000Y14000D02*
D03*
X96000D02*
D03*
X76000Y24000D02*
D03*
X86000D02*
D03*
X96000D02*
D03*
X126000Y14000D02*
D03*
X136000D02*
D03*
X116000Y24000D02*
D03*
X126000D02*
D03*
X136000D02*
D03*
D15*
X36000Y169500D02*
D03*
X128000Y195000D02*
D03*
X91500D02*
D03*
X266000Y50000D02*
D03*
X156000Y14000D02*
D03*
X76000D02*
D03*
X116000D02*
D03*
D16*
X12000Y193000D02*
D03*
X290000Y110500D02*
D03*
D17*
X14000Y22000D02*
D03*
D18*
X87000Y187000D02*
D03*
X78500Y91000D02*
D03*
M02*
