G04*
G04 #@! TF.GenerationSoftware,Altium Limited,Altium Designer,20.0.12 (288)*
G04*
G04 Layer_Color=16711935*
%FSLAX25Y25*%
%MOIN*%
G70*
G01*
G75*
%ADD11C,0.01000*%
%ADD35C,0.00394*%
D11*
X1000Y15748D02*
X303000D01*
X303000Y205000D02*
X303000Y15748D01*
X1000Y205000D02*
X303000D01*
X1000D02*
X1000Y15748D01*
D35*
X89768Y108169D02*
G03*
X89768Y108169I-1969J0D01*
G01*
X71658Y104626D02*
Y120374D01*
X91343Y104626D02*
Y120374D01*
X71658D02*
X91343D01*
X71658Y104626D02*
X91343D01*
X99768Y120520D02*
X108232D01*
X99768Y125480D02*
X108232D01*
X99768Y120520D02*
Y125480D01*
X108232Y120520D02*
Y125480D01*
X60728Y163898D02*
X69193D01*
X60728Y158937D02*
X69193D01*
Y163898D01*
X60728Y158937D02*
Y163898D01*
X86811Y171772D02*
X95276D01*
X86811Y166811D02*
X95276D01*
Y171772D01*
X86811Y166811D02*
Y171772D01*
X137500Y166417D02*
Y171378D01*
X145965Y166417D02*
Y171378D01*
X137500D02*
X145965D01*
X137500Y166417D02*
X145965D01*
X263520Y126591D02*
X268480D01*
X263520Y118126D02*
X268480D01*
X263520D02*
Y126591D01*
X268480Y118126D02*
Y126591D01*
X49232Y104520D02*
Y109480D01*
X40768Y104520D02*
Y109480D01*
X49232D01*
X40768Y104520D02*
X49232D01*
X243520Y90768D02*
X248480D01*
X243520Y99232D02*
X248480D01*
Y90768D02*
Y99232D01*
X243520Y90768D02*
Y99232D01*
X253520Y118268D02*
X258480D01*
X253520Y126732D02*
X258480D01*
Y118268D02*
Y126732D01*
X253520Y118268D02*
Y126732D01*
X253520Y99090D02*
X258480D01*
X253520Y90626D02*
X258480D01*
X253520D02*
Y99090D01*
X258480Y90626D02*
Y99090D01*
M02*
