%TF.GenerationSoftware,Altium Limited,Altium Designer,19.1.8 (144)*%
G04 Layer_Physical_Order=2*
G04 Layer_Color=16711680*
%FSLAX26Y26*%
%MOIN*%
%TF.FileFunction,Copper,L2,Bot,Signal*%
%TF.Part,Single*%
G01*
G75*
%TA.AperFunction,SMDPad,CuDef*%
%ADD10R,0.041339X0.055118*%
%TA.AperFunction,Conductor*%
%ADD11C,0.010000*%
%ADD12C,0.030000*%
%ADD14C,0.025000*%
%TA.AperFunction,ComponentPad*%
%ADD15C,0.060000*%
%ADD16R,0.060000X0.060000*%
%TA.AperFunction,ViaPad*%
%ADD17C,0.100000*%
%ADD18O,0.100000X0.100480*%
%ADD19C,0.050000*%
%TA.AperFunction,SMDPad,CuDef*%
%ADD20R,0.041339X0.051181*%
%ADD21R,0.055118X0.041339*%
%ADD22O,0.025591X0.064961*%
G36*
X3020000Y1200000D02*
X2800000D01*
Y1000000D01*
X3020000D01*
Y100000D01*
X1781022D01*
X1780028Y105000D01*
X1780173Y105060D01*
X1788528Y111472D01*
X1794940Y119827D01*
X1798970Y129558D01*
X1800345Y140000D01*
X1798970Y150442D01*
X1794940Y160173D01*
X1788528Y168528D01*
X1780173Y174940D01*
X1770442Y178970D01*
X1760000Y180345D01*
X1749558Y178970D01*
X1739827Y174940D01*
X1731472Y168528D01*
X1725060Y160173D01*
X1721030Y150442D01*
X1719655Y140000D01*
X1721030Y129558D01*
X1725060Y119827D01*
X1731472Y111472D01*
X1739827Y105060D01*
X1739972Y105000D01*
X1738978Y100000D01*
X1681022D01*
X1680028Y105000D01*
X1680173Y105060D01*
X1688528Y111472D01*
X1694940Y119827D01*
X1698970Y129558D01*
X1700345Y140000D01*
X1698970Y150442D01*
X1694940Y160173D01*
X1688528Y168528D01*
X1680173Y174940D01*
X1670442Y178970D01*
X1660000Y180345D01*
X1649558Y178970D01*
X1639827Y174940D01*
X1631472Y168528D01*
X1625060Y160173D01*
X1621030Y150442D01*
X1619655Y140000D01*
X1621030Y129558D01*
X1625060Y119827D01*
X1631472Y111472D01*
X1639827Y105060D01*
X1639972Y105000D01*
X1638978Y100000D01*
X1600000D01*
Y180000D01*
X1520000D01*
Y100000D01*
X1381022D01*
X1380028Y105000D01*
X1380173Y105060D01*
X1388528Y111472D01*
X1394940Y119827D01*
X1398970Y129558D01*
X1399687Y135000D01*
X1360000D01*
X1320313D01*
X1321030Y129558D01*
X1325060Y119827D01*
X1331472Y111472D01*
X1339827Y105060D01*
X1339972Y105000D01*
X1338978Y100000D01*
X1281022D01*
X1280028Y105000D01*
X1280173Y105060D01*
X1288528Y111472D01*
X1294940Y119827D01*
X1298970Y129558D01*
X1299687Y135000D01*
X1260000D01*
X1220313D01*
X1221030Y129558D01*
X1225060Y119827D01*
X1231472Y111472D01*
X1239827Y105060D01*
X1239972Y105000D01*
X1238978Y100000D01*
X1200000D01*
Y135000D01*
X1160000D01*
X1120000D01*
Y100000D01*
X981022D01*
X980028Y105000D01*
X980173Y105060D01*
X988528Y111472D01*
X994940Y119827D01*
X998971Y129558D01*
X1000345Y140000D01*
X998971Y150442D01*
X994940Y160173D01*
X988528Y168528D01*
X985490Y170860D01*
Y209140D01*
X988528Y211472D01*
X994940Y219827D01*
X998971Y229558D01*
X1000345Y240000D01*
X998971Y250442D01*
X994940Y260173D01*
X988528Y268528D01*
X980173Y274940D01*
X970442Y278971D01*
X960000Y280345D01*
X949558Y278971D01*
X939827Y274940D01*
X931472Y268528D01*
X929140Y265490D01*
X890860D01*
X888528Y268528D01*
X880173Y274940D01*
X870442Y278971D01*
X860000Y280345D01*
X849558Y278971D01*
X839827Y274940D01*
X831472Y268528D01*
X829140Y265490D01*
X790860D01*
X788528Y268528D01*
X780173Y274940D01*
X770442Y278971D01*
X760000Y280345D01*
X749558Y278971D01*
X739827Y274940D01*
X731472Y268528D01*
X727184Y262941D01*
X479502D01*
X307941Y434502D01*
Y1315498D01*
X353017Y1360574D01*
X360000Y1359655D01*
X370442Y1361030D01*
X380173Y1365060D01*
X388528Y1371472D01*
X394940Y1379827D01*
X398971Y1389558D01*
X400345Y1400000D01*
X398971Y1410442D01*
X394940Y1420173D01*
X388528Y1428528D01*
X380173Y1434940D01*
X370442Y1438970D01*
X360000Y1440345D01*
X349558Y1438970D01*
X339827Y1434940D01*
X331472Y1428528D01*
X325060Y1420173D01*
X321029Y1410442D01*
X319655Y1400000D01*
X320574Y1393017D01*
X268778Y1341222D01*
X263805Y1333779D01*
X262059Y1325000D01*
Y425000D01*
X263805Y416221D01*
X268778Y408778D01*
X453778Y223778D01*
X461221Y218805D01*
X470000Y217059D01*
X727184D01*
X731472Y211472D01*
X734510Y209140D01*
Y180000D01*
X720000D01*
Y100000D01*
X240000D01*
Y320000D01*
X20000D01*
Y1820000D01*
X220000D01*
Y2040000D01*
X3020000D01*
Y1200000D01*
D02*
G37*
G36*
X931472Y211472D02*
X934510Y209140D01*
Y170860D01*
X931472Y168528D01*
X925060Y160173D01*
X921029Y150442D01*
X919655Y140000D01*
X921029Y129558D01*
X925060Y119827D01*
X931472Y111472D01*
X939827Y105060D01*
X939972Y105000D01*
X938978Y100000D01*
X881022D01*
X880028Y105000D01*
X880173Y105060D01*
X888528Y111472D01*
X894940Y119827D01*
X898971Y129558D01*
X900345Y140000D01*
X898971Y150442D01*
X894940Y160173D01*
X888528Y168528D01*
X885490Y170860D01*
Y209140D01*
X888528Y211472D01*
X890860Y214510D01*
X929140D01*
X931472Y211472D01*
D02*
G37*
G36*
X831472D02*
X834510Y209140D01*
Y170860D01*
X831472Y168528D01*
X825060Y160173D01*
X821029Y150442D01*
X819655Y140000D01*
X821029Y129558D01*
X825060Y119827D01*
X831472Y111472D01*
X839827Y105060D01*
X839972Y105000D01*
X838978Y100000D01*
X800000D01*
Y180000D01*
X785490D01*
Y209140D01*
X788528Y211472D01*
X790860Y214510D01*
X829140D01*
X831472Y211472D01*
D02*
G37*
%LPC*%
G36*
X2565000Y1959687D02*
Y1925000D01*
X2599687D01*
X2598970Y1930442D01*
X2594940Y1940173D01*
X2588528Y1948528D01*
X2580173Y1954940D01*
X2570442Y1958970D01*
X2565000Y1959687D01*
D02*
G37*
G36*
X2195000D02*
Y1925000D01*
X2229687D01*
X2228970Y1930442D01*
X2224940Y1940173D01*
X2218528Y1948528D01*
X2210173Y1954940D01*
X2200442Y1958970D01*
X2195000Y1959687D01*
D02*
G37*
G36*
X2555000D02*
X2549558Y1958970D01*
X2539827Y1954940D01*
X2531472Y1948528D01*
X2525060Y1940173D01*
X2521030Y1930442D01*
X2520313Y1925000D01*
X2555000D01*
Y1959687D01*
D02*
G37*
G36*
X2185000D02*
X2179558Y1958970D01*
X2169827Y1954940D01*
X2161472Y1948528D01*
X2155060Y1940173D01*
X2151030Y1930442D01*
X2150313Y1925000D01*
X2185000D01*
Y1959687D01*
D02*
G37*
G36*
X1320000Y1990000D02*
X1240000D01*
Y1926477D01*
X1239706Y1925000D01*
X1240000Y1923523D01*
Y1910000D01*
X1253523D01*
X1255000Y1909706D01*
X1256477Y1910000D01*
X1320000D01*
Y1990000D01*
D02*
G37*
G36*
X1480000Y1990345D02*
X1469558Y1988970D01*
X1459827Y1984940D01*
X1451472Y1978528D01*
X1445060Y1970173D01*
X1441030Y1960442D01*
X1439655Y1950000D01*
X1441030Y1939558D01*
X1445060Y1929827D01*
X1451472Y1921472D01*
X1459827Y1915060D01*
X1469558Y1911030D01*
X1480000Y1909655D01*
X1490442Y1911030D01*
X1500173Y1915060D01*
X1508528Y1921472D01*
X1514940Y1929827D01*
X1518970Y1939558D01*
X1520345Y1950000D01*
X1518970Y1960442D01*
X1514940Y1970173D01*
X1508528Y1978528D01*
X1500173Y1984940D01*
X1490442Y1988970D01*
X1480000Y1990345D01*
D02*
G37*
G36*
X1380000D02*
X1369558Y1988970D01*
X1359827Y1984940D01*
X1351472Y1978528D01*
X1345060Y1970173D01*
X1341030Y1960442D01*
X1339655Y1950000D01*
X1341030Y1939558D01*
X1345060Y1929827D01*
X1351472Y1921472D01*
X1359827Y1915060D01*
X1369558Y1911030D01*
X1380000Y1909655D01*
X1390442Y1911030D01*
X1400173Y1915060D01*
X1408528Y1921472D01*
X1414940Y1929827D01*
X1418970Y1939558D01*
X1420345Y1950000D01*
X1418970Y1960442D01*
X1414940Y1970173D01*
X1408528Y1978528D01*
X1400173Y1984940D01*
X1390442Y1988970D01*
X1380000Y1990345D01*
D02*
G37*
G36*
X1115000D02*
X1104558Y1988970D01*
X1094827Y1984940D01*
X1086472Y1978528D01*
X1080060Y1970173D01*
X1076030Y1960442D01*
X1074655Y1950000D01*
X1076030Y1939558D01*
X1080060Y1929827D01*
X1086472Y1921472D01*
X1094827Y1915060D01*
X1104558Y1911030D01*
X1115000Y1909655D01*
X1125442Y1911030D01*
X1135173Y1915060D01*
X1143528Y1921472D01*
X1149940Y1929827D01*
X1153970Y1939558D01*
X1155345Y1950000D01*
X1153970Y1960442D01*
X1149940Y1970173D01*
X1143528Y1978528D01*
X1135173Y1984940D01*
X1125442Y1988970D01*
X1115000Y1990345D01*
D02*
G37*
G36*
X361575Y1964282D02*
X351133Y1962908D01*
X341402Y1958877D01*
X333046Y1952465D01*
X326635Y1944110D01*
X322604Y1934379D01*
X321230Y1923937D01*
X322604Y1913495D01*
X326635Y1903764D01*
X333046Y1895409D01*
X341402Y1888997D01*
X351133Y1884966D01*
X361575Y1883592D01*
X372017Y1884966D01*
X381747Y1888997D01*
X390103Y1895409D01*
X396515Y1903764D01*
X400545Y1913495D01*
X401920Y1923937D01*
X400545Y1934379D01*
X396515Y1944110D01*
X390103Y1952465D01*
X381747Y1958877D01*
X372017Y1962908D01*
X361575Y1964282D01*
D02*
G37*
G36*
X2599687Y1915000D02*
X2565000D01*
Y1880313D01*
X2570442Y1881030D01*
X2580173Y1885060D01*
X2588528Y1891472D01*
X2594940Y1899827D01*
X2598970Y1909558D01*
X2599687Y1915000D01*
D02*
G37*
G36*
X2229687D02*
X2195000D01*
Y1880313D01*
X2200442Y1881030D01*
X2210173Y1885060D01*
X2218528Y1891472D01*
X2224940Y1899827D01*
X2228970Y1909558D01*
X2229687Y1915000D01*
D02*
G37*
G36*
X2555000D02*
X2520313D01*
X2521030Y1909558D01*
X2525060Y1899827D01*
X2531472Y1891472D01*
X2539827Y1885060D01*
X2549558Y1881030D01*
X2555000Y1880313D01*
Y1915000D01*
D02*
G37*
G36*
X2185000D02*
X2150313D01*
X2151030Y1909558D01*
X2155060Y1899827D01*
X2161472Y1891472D01*
X2169827Y1885060D01*
X2179558Y1881030D01*
X2185000Y1880313D01*
Y1915000D01*
D02*
G37*
G36*
X2658425Y1960345D02*
X2647983Y1958970D01*
X2638253Y1954940D01*
X2629897Y1948528D01*
X2623485Y1940173D01*
X2619455Y1930442D01*
X2618080Y1920000D01*
X2619455Y1909558D01*
X2623485Y1899827D01*
X2629897Y1891472D01*
X2638253Y1885060D01*
X2647983Y1881030D01*
X2658425Y1879655D01*
X2668867Y1881030D01*
X2678598Y1885060D01*
X2686954Y1891472D01*
X2693365Y1899827D01*
X2697396Y1909558D01*
X2698770Y1920000D01*
X2697396Y1930442D01*
X2693365Y1940173D01*
X2686954Y1948528D01*
X2678598Y1954940D01*
X2668867Y1958970D01*
X2658425Y1960345D01*
D02*
G37*
G36*
X2288425D02*
X2277983Y1958970D01*
X2268253Y1954940D01*
X2259897Y1948528D01*
X2253485Y1940173D01*
X2249455Y1930442D01*
X2248080Y1920000D01*
X2249455Y1909558D01*
X2253485Y1899827D01*
X2259897Y1891472D01*
X2268253Y1885060D01*
X2277983Y1881030D01*
X2288425Y1879655D01*
X2298867Y1881030D01*
X2308598Y1885060D01*
X2316954Y1891472D01*
X2323365Y1899827D01*
X2327396Y1909558D01*
X2328770Y1920000D01*
X2327396Y1930442D01*
X2323365Y1940173D01*
X2316954Y1948528D01*
X2308598Y1954940D01*
X2298867Y1958970D01*
X2288425Y1960345D01*
D02*
G37*
G36*
X2890000Y1888770D02*
X2879558Y1887396D01*
X2869827Y1883365D01*
X2861472Y1876954D01*
X2855060Y1868598D01*
X2853039Y1863719D01*
X2598425D01*
X2592573Y1862555D01*
X2587611Y1859240D01*
X2463284Y1734913D01*
X2460000Y1735345D01*
X2449558Y1733970D01*
X2439827Y1729940D01*
X2431472Y1723528D01*
X2425060Y1715173D01*
X2421030Y1705442D01*
X2419655Y1695000D01*
X2421030Y1684558D01*
X2425060Y1674827D01*
X2431472Y1666472D01*
X2439827Y1660060D01*
X2449558Y1656030D01*
X2460000Y1654655D01*
X2470442Y1656030D01*
X2480173Y1660060D01*
X2488528Y1666472D01*
X2494940Y1674827D01*
X2498970Y1684558D01*
X2500345Y1695000D01*
X2498970Y1705442D01*
X2494940Y1715173D01*
X2491406Y1719778D01*
X2604760Y1833131D01*
X2853039D01*
X2855060Y1828253D01*
X2861472Y1819897D01*
X2869827Y1813485D01*
X2879558Y1809455D01*
X2890000Y1808080D01*
X2900442Y1809455D01*
X2910173Y1813485D01*
X2918528Y1819897D01*
X2924940Y1828253D01*
X2928970Y1837983D01*
X2930345Y1848425D01*
X2928970Y1858867D01*
X2924940Y1868598D01*
X2918528Y1876954D01*
X2910173Y1883365D01*
X2900442Y1887396D01*
X2890000Y1888770D01*
D02*
G37*
G36*
X2885000Y1789687D02*
X2879558Y1788970D01*
X2869827Y1784940D01*
X2861472Y1778528D01*
X2855060Y1770173D01*
X2851030Y1760442D01*
X2850313Y1755000D01*
X2885000D01*
Y1789687D01*
D02*
G37*
G36*
X2893937Y1987196D02*
X2883495Y1985821D01*
X2873764Y1981790D01*
X2865409Y1975379D01*
X2858997Y1967023D01*
X2854966Y1957293D01*
X2853592Y1946850D01*
X2854966Y1936408D01*
X2858997Y1926678D01*
X2865409Y1918322D01*
X2873764Y1911910D01*
X2883495Y1907880D01*
X2893937Y1906505D01*
X2904379Y1907880D01*
X2914110Y1911910D01*
X2921098Y1917273D01*
X2944706Y1893665D01*
Y1762695D01*
X2934995Y1752985D01*
X2929716Y1754777D01*
X2928970Y1760442D01*
X2924940Y1770173D01*
X2918528Y1778528D01*
X2910173Y1784940D01*
X2900442Y1788970D01*
X2895000Y1789687D01*
Y1750000D01*
X2890000D01*
Y1745000D01*
X2850313D01*
X2851030Y1739558D01*
X2855060Y1729827D01*
X2861472Y1721472D01*
X2869827Y1715060D01*
X2879558Y1711030D01*
X2885223Y1710284D01*
X2887015Y1705005D01*
X2880944Y1698934D01*
X2780000D01*
X2774147Y1697769D01*
X2769186Y1694454D01*
X2497606Y1422874D01*
X2492616Y1423201D01*
X2488528Y1428528D01*
X2480173Y1434940D01*
X2470442Y1438970D01*
X2460000Y1440345D01*
X2449558Y1438970D01*
X2439827Y1434940D01*
X2431472Y1428528D01*
X2425060Y1420173D01*
X2421030Y1410442D01*
X2419655Y1400000D01*
X2421030Y1389558D01*
X2425060Y1379827D01*
X2431472Y1371472D01*
X2439827Y1365060D01*
X2449558Y1361030D01*
X2455223Y1360284D01*
X2457015Y1355005D01*
X2272305Y1170294D01*
X2105000D01*
X2099147Y1169130D01*
X2094186Y1165814D01*
X1767702Y839331D01*
X1760000Y840345D01*
X1749558Y838971D01*
X1739827Y834940D01*
X1731472Y828528D01*
X1725060Y820173D01*
X1721030Y810442D01*
X1719655Y800000D01*
X1721030Y789558D01*
X1725060Y779827D01*
X1731472Y771472D01*
X1739827Y765060D01*
X1749558Y761029D01*
X1760000Y759655D01*
X1770442Y761029D01*
X1780173Y765060D01*
X1788528Y771472D01*
X1794940Y779827D01*
X1798970Y789558D01*
X1800345Y800000D01*
X1798970Y810442D01*
X1794940Y820173D01*
X1793577Y821948D01*
X2111335Y1139706D01*
X2278640D01*
X2284492Y1140870D01*
X2289454Y1144186D01*
X2515814Y1370546D01*
X2519130Y1375508D01*
X2519878Y1379271D01*
X2524954Y1379816D01*
X2525081Y1379800D01*
X2531472Y1371472D01*
X2539827Y1365060D01*
X2544706Y1363039D01*
Y1292087D01*
X2522441D01*
Y1230748D01*
X2597559D01*
Y1292087D01*
X2575294D01*
Y1363039D01*
X2580173Y1365060D01*
X2588528Y1371472D01*
X2594940Y1379827D01*
X2598970Y1389558D01*
X2600345Y1400000D01*
X2598970Y1410442D01*
X2594940Y1420173D01*
X2588528Y1428528D01*
X2580173Y1434940D01*
X2570442Y1438970D01*
X2564777Y1439716D01*
X2562985Y1444995D01*
X2786335Y1668346D01*
X2887279D01*
X2893132Y1669510D01*
X2898094Y1672825D01*
X2970814Y1745546D01*
X2974130Y1750508D01*
X2975294Y1756360D01*
Y1900000D01*
X2974130Y1905853D01*
X2970814Y1910814D01*
X2934207Y1947422D01*
X2932907Y1957293D01*
X2928877Y1967023D01*
X2922465Y1975379D01*
X2914110Y1981790D01*
X2904379Y1985821D01*
X2893937Y1987196D01*
D02*
G37*
G36*
X1765000Y1734687D02*
Y1700000D01*
X1799687D01*
X1798970Y1705442D01*
X1794940Y1715173D01*
X1788528Y1723528D01*
X1780173Y1729940D01*
X1770442Y1733970D01*
X1765000Y1734687D01*
D02*
G37*
G36*
X465000D02*
Y1700000D01*
X499687D01*
X498971Y1705442D01*
X494940Y1715173D01*
X488528Y1723528D01*
X480173Y1729940D01*
X470442Y1733970D01*
X465000Y1734687D01*
D02*
G37*
G36*
X1755000D02*
X1749558Y1733970D01*
X1739827Y1729940D01*
X1731472Y1723528D01*
X1725060Y1715173D01*
X1721030Y1705442D01*
X1720313Y1700000D01*
X1755000D01*
Y1734687D01*
D02*
G37*
G36*
X455000D02*
X449558Y1733970D01*
X439827Y1729940D01*
X431472Y1723528D01*
X425060Y1715173D01*
X421029Y1705442D01*
X420313Y1700000D01*
X455000D01*
Y1734687D01*
D02*
G37*
G36*
X1799687Y1690000D02*
X1765000D01*
Y1655313D01*
X1770442Y1656030D01*
X1780173Y1660060D01*
X1788528Y1666472D01*
X1794940Y1674827D01*
X1798970Y1684558D01*
X1799687Y1690000D01*
D02*
G37*
G36*
X499687D02*
X465000D01*
Y1655313D01*
X470442Y1656030D01*
X480173Y1660060D01*
X488528Y1666472D01*
X494940Y1674827D01*
X498971Y1684558D01*
X499687Y1690000D01*
D02*
G37*
G36*
X1755000D02*
X1720313D01*
X1721030Y1684558D01*
X1725060Y1674827D01*
X1731472Y1666472D01*
X1739827Y1660060D01*
X1749558Y1656030D01*
X1755000Y1655313D01*
Y1690000D01*
D02*
G37*
G36*
X455000D02*
X420313D01*
X421029Y1684558D01*
X425060Y1674827D01*
X431472Y1666472D01*
X439827Y1660060D01*
X449558Y1656030D01*
X455000Y1655313D01*
Y1690000D01*
D02*
G37*
G36*
X400000Y1735000D02*
X320000D01*
Y1655000D01*
X400000D01*
Y1735000D01*
D02*
G37*
G36*
X2660000Y1735345D02*
X2649558Y1733970D01*
X2639827Y1729940D01*
X2631472Y1723528D01*
X2625060Y1715173D01*
X2621030Y1705442D01*
X2619655Y1695000D01*
X2621030Y1684558D01*
X2625060Y1674827D01*
X2631472Y1666472D01*
X2639827Y1660060D01*
X2649558Y1656030D01*
X2660000Y1654655D01*
X2670442Y1656030D01*
X2680173Y1660060D01*
X2688528Y1666472D01*
X2694940Y1674827D01*
X2698970Y1684558D01*
X2700345Y1695000D01*
X2698970Y1705442D01*
X2694940Y1715173D01*
X2688528Y1723528D01*
X2680173Y1729940D01*
X2670442Y1733970D01*
X2660000Y1735345D01*
D02*
G37*
G36*
X2560000D02*
X2549558Y1733970D01*
X2539827Y1729940D01*
X2531472Y1723528D01*
X2525060Y1715173D01*
X2521030Y1705442D01*
X2519655Y1695000D01*
X2521030Y1684558D01*
X2525060Y1674827D01*
X2531472Y1666472D01*
X2539827Y1660060D01*
X2549558Y1656030D01*
X2560000Y1654655D01*
X2570442Y1656030D01*
X2580173Y1660060D01*
X2588528Y1666472D01*
X2594940Y1674827D01*
X2598970Y1684558D01*
X2600345Y1695000D01*
X2598970Y1705442D01*
X2594940Y1715173D01*
X2588528Y1723528D01*
X2580173Y1729940D01*
X2570442Y1733970D01*
X2560000Y1735345D01*
D02*
G37*
G36*
X2360000D02*
X2349558Y1733970D01*
X2339827Y1729940D01*
X2331472Y1723528D01*
X2325060Y1715173D01*
X2321030Y1705442D01*
X2319655Y1695000D01*
X2321030Y1684558D01*
X2325060Y1674827D01*
X2331472Y1666472D01*
X2339827Y1660060D01*
X2349558Y1656030D01*
X2360000Y1654655D01*
X2370442Y1656030D01*
X2380173Y1660060D01*
X2388528Y1666472D01*
X2394940Y1674827D01*
X2398970Y1684558D01*
X2400345Y1695000D01*
X2398970Y1705442D01*
X2394940Y1715173D01*
X2388528Y1723528D01*
X2380173Y1729940D01*
X2370442Y1733970D01*
X2360000Y1735345D01*
D02*
G37*
G36*
X2260000D02*
X2249558Y1733970D01*
X2239827Y1729940D01*
X2231472Y1723528D01*
X2225060Y1715173D01*
X2221030Y1705442D01*
X2219655Y1695000D01*
X2221030Y1684558D01*
X2225060Y1674827D01*
X2231472Y1666472D01*
X2239827Y1660060D01*
X2249558Y1656030D01*
X2260000Y1654655D01*
X2270442Y1656030D01*
X2280173Y1660060D01*
X2288528Y1666472D01*
X2294940Y1674827D01*
X2298970Y1684558D01*
X2300345Y1695000D01*
X2298970Y1705442D01*
X2294940Y1715173D01*
X2288528Y1723528D01*
X2280173Y1729940D01*
X2270442Y1733970D01*
X2260000Y1735345D01*
D02*
G37*
G36*
X2160000D02*
X2149558Y1733970D01*
X2139827Y1729940D01*
X2131472Y1723528D01*
X2125060Y1715173D01*
X2121030Y1705442D01*
X2119655Y1695000D01*
X2121030Y1684558D01*
X2125060Y1674827D01*
X2131472Y1666472D01*
X2139827Y1660060D01*
X2149558Y1656030D01*
X2160000Y1654655D01*
X2170442Y1656030D01*
X2180173Y1660060D01*
X2188528Y1666472D01*
X2194940Y1674827D01*
X2198970Y1684558D01*
X2200345Y1695000D01*
X2198970Y1705442D01*
X2194940Y1715173D01*
X2188528Y1723528D01*
X2180173Y1729940D01*
X2170442Y1733970D01*
X2160000Y1735345D01*
D02*
G37*
G36*
X2060000D02*
X2049558Y1733970D01*
X2039827Y1729940D01*
X2031472Y1723528D01*
X2025060Y1715173D01*
X2021030Y1705442D01*
X2019655Y1695000D01*
X2021030Y1684558D01*
X2025060Y1674827D01*
X2031472Y1666472D01*
X2039827Y1660060D01*
X2049558Y1656030D01*
X2060000Y1654655D01*
X2070442Y1656030D01*
X2080173Y1660060D01*
X2088528Y1666472D01*
X2094940Y1674827D01*
X2098970Y1684558D01*
X2100345Y1695000D01*
X2098970Y1705442D01*
X2094940Y1715173D01*
X2088528Y1723528D01*
X2080173Y1729940D01*
X2070442Y1733970D01*
X2060000Y1735345D01*
D02*
G37*
G36*
X1960000D02*
X1949558Y1733970D01*
X1939827Y1729940D01*
X1931472Y1723528D01*
X1925060Y1715173D01*
X1921030Y1705442D01*
X1919655Y1695000D01*
X1921030Y1684558D01*
X1925060Y1674827D01*
X1931472Y1666472D01*
X1939827Y1660060D01*
X1949558Y1656030D01*
X1960000Y1654655D01*
X1970442Y1656030D01*
X1980173Y1660060D01*
X1988528Y1666472D01*
X1994940Y1674827D01*
X1998970Y1684558D01*
X2000345Y1695000D01*
X1998970Y1705442D01*
X1994940Y1715173D01*
X1988528Y1723528D01*
X1980173Y1729940D01*
X1970442Y1733970D01*
X1960000Y1735345D01*
D02*
G37*
G36*
X1860000D02*
X1849558Y1733970D01*
X1839827Y1729940D01*
X1831472Y1723528D01*
X1825060Y1715173D01*
X1821030Y1705442D01*
X1819655Y1695000D01*
X1821030Y1684558D01*
X1825060Y1674827D01*
X1831472Y1666472D01*
X1839827Y1660060D01*
X1849558Y1656030D01*
X1860000Y1654655D01*
X1870442Y1656030D01*
X1880173Y1660060D01*
X1888528Y1666472D01*
X1894940Y1674827D01*
X1898970Y1684558D01*
X1900345Y1695000D01*
X1898970Y1705442D01*
X1894940Y1715173D01*
X1888528Y1723528D01*
X1880173Y1729940D01*
X1870442Y1733970D01*
X1860000Y1735345D01*
D02*
G37*
G36*
X1660000D02*
X1649558Y1733970D01*
X1639827Y1729940D01*
X1631472Y1723528D01*
X1625060Y1715173D01*
X1621030Y1705442D01*
X1619655Y1695000D01*
X1621030Y1684558D01*
X1625060Y1674827D01*
X1631472Y1666472D01*
X1639827Y1660060D01*
X1649558Y1656030D01*
X1660000Y1654655D01*
X1670442Y1656030D01*
X1680173Y1660060D01*
X1688528Y1666472D01*
X1694940Y1674827D01*
X1698970Y1684558D01*
X1700345Y1695000D01*
X1698970Y1705442D01*
X1694940Y1715173D01*
X1688528Y1723528D01*
X1680173Y1729940D01*
X1670442Y1733970D01*
X1660000Y1735345D01*
D02*
G37*
G36*
X1560000D02*
X1549558Y1733970D01*
X1539827Y1729940D01*
X1531472Y1723528D01*
X1525060Y1715173D01*
X1521030Y1705442D01*
X1519655Y1695000D01*
X1521030Y1684558D01*
X1525060Y1674827D01*
X1531472Y1666472D01*
X1539827Y1660060D01*
X1549558Y1656030D01*
X1560000Y1654655D01*
X1570442Y1656030D01*
X1580173Y1660060D01*
X1588528Y1666472D01*
X1594940Y1674827D01*
X1598970Y1684558D01*
X1600345Y1695000D01*
X1598970Y1705442D01*
X1594940Y1715173D01*
X1588528Y1723528D01*
X1580173Y1729940D01*
X1570442Y1733970D01*
X1560000Y1735345D01*
D02*
G37*
G36*
X1460000D02*
X1449558Y1733970D01*
X1439827Y1729940D01*
X1431472Y1723528D01*
X1425060Y1715173D01*
X1421030Y1705442D01*
X1419655Y1695000D01*
X1421030Y1684558D01*
X1425060Y1674827D01*
X1431472Y1666472D01*
X1439827Y1660060D01*
X1449558Y1656030D01*
X1460000Y1654655D01*
X1470442Y1656030D01*
X1480173Y1660060D01*
X1488528Y1666472D01*
X1494940Y1674827D01*
X1498970Y1684558D01*
X1500345Y1695000D01*
X1498970Y1705442D01*
X1494940Y1715173D01*
X1488528Y1723528D01*
X1480173Y1729940D01*
X1470442Y1733970D01*
X1460000Y1735345D01*
D02*
G37*
G36*
X1360000D02*
X1349558Y1733970D01*
X1339827Y1729940D01*
X1331472Y1723528D01*
X1325060Y1715173D01*
X1321030Y1705442D01*
X1319655Y1695000D01*
X1321030Y1684558D01*
X1325060Y1674827D01*
X1331472Y1666472D01*
X1339827Y1660060D01*
X1349558Y1656030D01*
X1360000Y1654655D01*
X1370442Y1656030D01*
X1380173Y1660060D01*
X1388528Y1666472D01*
X1394940Y1674827D01*
X1398970Y1684558D01*
X1400345Y1695000D01*
X1398970Y1705442D01*
X1394940Y1715173D01*
X1388528Y1723528D01*
X1380173Y1729940D01*
X1370442Y1733970D01*
X1360000Y1735345D01*
D02*
G37*
G36*
X1260000D02*
X1249558Y1733970D01*
X1239827Y1729940D01*
X1231472Y1723528D01*
X1225060Y1715173D01*
X1221030Y1705442D01*
X1219655Y1695000D01*
X1221030Y1684558D01*
X1225060Y1674827D01*
X1231472Y1666472D01*
X1239827Y1660060D01*
X1249558Y1656030D01*
X1260000Y1654655D01*
X1270442Y1656030D01*
X1280173Y1660060D01*
X1288528Y1666472D01*
X1294940Y1674827D01*
X1298970Y1684558D01*
X1300345Y1695000D01*
X1298970Y1705442D01*
X1294940Y1715173D01*
X1288528Y1723528D01*
X1280173Y1729940D01*
X1270442Y1733970D01*
X1260000Y1735345D01*
D02*
G37*
G36*
X1160000D02*
X1149558Y1733970D01*
X1139827Y1729940D01*
X1131472Y1723528D01*
X1125060Y1715173D01*
X1121030Y1705442D01*
X1119655Y1695000D01*
X1121030Y1684558D01*
X1125060Y1674827D01*
X1131472Y1666472D01*
X1139827Y1660060D01*
X1149558Y1656030D01*
X1160000Y1654655D01*
X1170442Y1656030D01*
X1180173Y1660060D01*
X1188528Y1666472D01*
X1194940Y1674827D01*
X1198970Y1684558D01*
X1200345Y1695000D01*
X1198970Y1705442D01*
X1194940Y1715173D01*
X1188528Y1723528D01*
X1180173Y1729940D01*
X1170442Y1733970D01*
X1160000Y1735345D01*
D02*
G37*
G36*
X1060000D02*
X1049558Y1733970D01*
X1039827Y1729940D01*
X1031472Y1723528D01*
X1025060Y1715173D01*
X1021029Y1705442D01*
X1019655Y1695000D01*
X1021029Y1684558D01*
X1025060Y1674827D01*
X1031472Y1666472D01*
X1039827Y1660060D01*
X1049558Y1656030D01*
X1060000Y1654655D01*
X1070442Y1656030D01*
X1080173Y1660060D01*
X1088528Y1666472D01*
X1094940Y1674827D01*
X1098970Y1684558D01*
X1100345Y1695000D01*
X1098970Y1705442D01*
X1094940Y1715173D01*
X1088528Y1723528D01*
X1080173Y1729940D01*
X1070442Y1733970D01*
X1060000Y1735345D01*
D02*
G37*
G36*
X885000Y1995294D02*
X520000D01*
X514147Y1994130D01*
X509186Y1990814D01*
X475321Y1956950D01*
X470442Y1958970D01*
X460000Y1960345D01*
X449558Y1958970D01*
X439827Y1954940D01*
X431472Y1948528D01*
X425060Y1940173D01*
X421029Y1930442D01*
X419655Y1920000D01*
X421029Y1909558D01*
X425060Y1899827D01*
X431472Y1891472D01*
X439827Y1885060D01*
X449558Y1881030D01*
X460000Y1879655D01*
X470442Y1881030D01*
X480173Y1885060D01*
X488528Y1891472D01*
X494940Y1899827D01*
X498971Y1909558D01*
X500345Y1920000D01*
X498971Y1930442D01*
X496950Y1935321D01*
X526335Y1964706D01*
X553243D01*
X553571Y1959706D01*
X547983Y1958970D01*
X538253Y1954940D01*
X529897Y1948528D01*
X523485Y1940173D01*
X519455Y1930442D01*
X518080Y1920000D01*
X519455Y1909558D01*
X523485Y1899827D01*
X529897Y1891472D01*
X538253Y1885060D01*
X544706Y1882387D01*
Y1835591D01*
X529331D01*
Y1764409D01*
X544706D01*
Y1758640D01*
X545870Y1752787D01*
X549186Y1747825D01*
X557015Y1739995D01*
X555223Y1734716D01*
X549558Y1733970D01*
X539827Y1729940D01*
X531472Y1723528D01*
X525060Y1715173D01*
X521029Y1705442D01*
X519655Y1695000D01*
X521029Y1684558D01*
X525060Y1674827D01*
X531472Y1666472D01*
X539827Y1660060D01*
X549558Y1656030D01*
X560000Y1654655D01*
X570442Y1656030D01*
X580173Y1660060D01*
X584706Y1663539D01*
X589706Y1661073D01*
Y1433927D01*
X584706Y1431461D01*
X580173Y1434940D01*
X570442Y1438970D01*
X560000Y1440345D01*
X549558Y1438970D01*
X539827Y1434940D01*
X531472Y1428528D01*
X525060Y1420173D01*
X521029Y1410442D01*
X519655Y1400000D01*
X521029Y1389558D01*
X523050Y1384679D01*
X479186Y1340814D01*
X475870Y1335853D01*
X474706Y1330000D01*
Y1107559D01*
X455748D01*
Y1032441D01*
X517087D01*
Y1045966D01*
X715382D01*
X718250Y1040966D01*
X716758Y1033465D01*
Y994095D01*
X718527Y985200D01*
X723566Y977660D01*
X724706Y976898D01*
Y955000D01*
X725870Y949147D01*
X729186Y944186D01*
X751877Y921494D01*
X750901Y919137D01*
X749698Y910000D01*
X750901Y900863D01*
X754428Y892349D01*
X760038Y885038D01*
X767349Y879428D01*
X775863Y875901D01*
X785000Y874698D01*
X794137Y875901D01*
X802651Y879428D01*
X809962Y885038D01*
X815572Y892349D01*
X819099Y900863D01*
X820302Y910000D01*
X819099Y919137D01*
X815572Y927651D01*
X809962Y934962D01*
X802651Y940572D01*
X794137Y944099D01*
X785000Y945302D01*
X775863Y944099D01*
X773506Y943123D01*
X755294Y961335D01*
Y976898D01*
X756434Y977660D01*
X761473Y985200D01*
X762451Y990119D01*
X767549D01*
X768527Y985200D01*
X773566Y977660D01*
X781106Y972622D01*
X790000Y970853D01*
X798894Y972622D01*
X806434Y977660D01*
X811473Y985200D01*
X812451Y990119D01*
X817549D01*
X818527Y985200D01*
X823566Y977660D01*
X831106Y972622D01*
X835000Y971847D01*
Y1013779D01*
Y1055712D01*
X831106Y1054937D01*
X823566Y1049899D01*
X818527Y1042359D01*
X817549Y1037440D01*
X812451D01*
X811473Y1042359D01*
X806434Y1049899D01*
X798894Y1054937D01*
X790000Y1056706D01*
X788654Y1056439D01*
X773019Y1072074D01*
X768057Y1075389D01*
X762205Y1076554D01*
X517087D01*
Y1107559D01*
X505294D01*
Y1323665D01*
X544679Y1363050D01*
X549558Y1361030D01*
X560000Y1359655D01*
X570442Y1361030D01*
X580173Y1365060D01*
X585736Y1369329D01*
X587055Y1369282D01*
X591756Y1367822D01*
X594186Y1364186D01*
X659186Y1299186D01*
X664147Y1295870D01*
X670000Y1294706D01*
X763665D01*
X774706Y1283665D01*
Y1273102D01*
X773566Y1272340D01*
X768527Y1264800D01*
X767549Y1259881D01*
X762451D01*
X761473Y1264800D01*
X756434Y1272340D01*
X748894Y1277378D01*
X740000Y1279147D01*
X731106Y1277378D01*
X723566Y1272340D01*
X718527Y1264800D01*
X716758Y1255905D01*
Y1216535D01*
X718527Y1207641D01*
X723566Y1200101D01*
X731106Y1195063D01*
X740000Y1193293D01*
X748894Y1195063D01*
X756434Y1200101D01*
X761473Y1207641D01*
X762451Y1212559D01*
X767549D01*
X768527Y1207641D01*
X773566Y1200101D01*
X781106Y1195063D01*
X790000Y1193293D01*
X798894Y1195063D01*
X806434Y1200101D01*
X811473Y1207641D01*
X812451Y1212559D01*
X817549D01*
X818527Y1207641D01*
X823566Y1200101D01*
X831106Y1195063D01*
X840000Y1193293D01*
X848894Y1195063D01*
X856434Y1200101D01*
X861473Y1207641D01*
X862451Y1212559D01*
X867549D01*
X868527Y1207641D01*
X873566Y1200101D01*
X881106Y1195063D01*
X890000Y1193293D01*
X898894Y1195063D01*
X906434Y1200101D01*
X911473Y1207641D01*
X913242Y1216535D01*
Y1220927D01*
X972913D01*
Y1194409D01*
X1034252D01*
Y1265591D01*
X972913D01*
Y1251514D01*
X913242D01*
Y1255905D01*
X911473Y1264800D01*
X906434Y1272340D01*
X898894Y1277378D01*
X890000Y1279147D01*
X881106Y1277378D01*
X873566Y1272340D01*
X868527Y1264800D01*
X867549Y1259881D01*
X862451D01*
X861473Y1264800D01*
X856434Y1272340D01*
X855294Y1273102D01*
Y1310025D01*
X920814Y1375546D01*
X921386Y1376402D01*
X927534Y1376603D01*
X931472Y1371472D01*
X939827Y1365060D01*
X949558Y1361030D01*
X960000Y1359655D01*
X970442Y1361030D01*
X980173Y1365060D01*
X988528Y1371472D01*
X994940Y1379827D01*
X998971Y1389558D01*
X1000345Y1400000D01*
X998971Y1410442D01*
X994940Y1420173D01*
X988528Y1428528D01*
X980173Y1434940D01*
X970442Y1438970D01*
X960000Y1440345D01*
X949558Y1438970D01*
X939827Y1434940D01*
X931472Y1428528D01*
X930029Y1426648D01*
X925294Y1428255D01*
Y1666745D01*
X930029Y1668352D01*
X931472Y1666472D01*
X939827Y1660060D01*
X949558Y1656030D01*
X960000Y1654655D01*
X970442Y1656030D01*
X980173Y1660060D01*
X988528Y1666472D01*
X994940Y1674827D01*
X998971Y1684558D01*
X1000345Y1695000D01*
X998971Y1705442D01*
X994940Y1715173D01*
X988528Y1723528D01*
X980173Y1729940D01*
X970442Y1733970D01*
X960000Y1735345D01*
X949558Y1733970D01*
X939827Y1729940D01*
X931472Y1723528D01*
X930029Y1721648D01*
X925294Y1723255D01*
Y1764409D01*
X977087D01*
Y1784706D01*
X1000000D01*
X1005853Y1785870D01*
X1010814Y1789186D01*
X1030814Y1809186D01*
X1034130Y1814147D01*
X1035294Y1820000D01*
Y1915153D01*
X1043528Y1921472D01*
X1049940Y1929827D01*
X1053970Y1939558D01*
X1055345Y1950000D01*
X1053970Y1960442D01*
X1049940Y1970173D01*
X1043528Y1978528D01*
X1035173Y1984940D01*
X1025442Y1988970D01*
X1015000Y1990345D01*
X1004558Y1988970D01*
X994827Y1984940D01*
X986472Y1978528D01*
X980060Y1970173D01*
X976029Y1960442D01*
X974655Y1950000D01*
X976029Y1939558D01*
X980060Y1929827D01*
X986472Y1921472D01*
X994827Y1915060D01*
X1004558Y1911030D01*
X1004706Y1911010D01*
Y1826335D01*
X993665Y1815294D01*
X977087D01*
Y1835591D01*
X925294D01*
Y1910000D01*
X955000D01*
Y1990000D01*
X896629D01*
X895814Y1990814D01*
X890853Y1994130D01*
X885000Y1995294D01*
D02*
G37*
G36*
X1765000Y1439687D02*
Y1405000D01*
X1799687D01*
X1798970Y1410442D01*
X1794940Y1420173D01*
X1788528Y1428528D01*
X1780173Y1434940D01*
X1770442Y1438970D01*
X1765000Y1439687D01*
D02*
G37*
G36*
X465000D02*
Y1405000D01*
X499687D01*
X498971Y1410442D01*
X494940Y1420173D01*
X488528Y1428528D01*
X480173Y1434940D01*
X470442Y1438970D01*
X465000Y1439687D01*
D02*
G37*
G36*
X1755000D02*
X1749558Y1438970D01*
X1739827Y1434940D01*
X1731472Y1428528D01*
X1725060Y1420173D01*
X1721030Y1410442D01*
X1720313Y1405000D01*
X1755000D01*
Y1439687D01*
D02*
G37*
G36*
X455000D02*
X449558Y1438970D01*
X439827Y1434940D01*
X431472Y1428528D01*
X425060Y1420173D01*
X421029Y1410442D01*
X420313Y1405000D01*
X455000D01*
Y1439687D01*
D02*
G37*
G36*
X1799687Y1395000D02*
X1765000D01*
Y1360313D01*
X1770442Y1361030D01*
X1780173Y1365060D01*
X1788528Y1371472D01*
X1794940Y1379827D01*
X1798970Y1389558D01*
X1799687Y1395000D01*
D02*
G37*
G36*
X499687D02*
X465000D01*
Y1360313D01*
X470442Y1361030D01*
X480173Y1365060D01*
X488528Y1371472D01*
X494940Y1379827D01*
X498971Y1389558D01*
X499687Y1395000D01*
D02*
G37*
G36*
X1755000D02*
X1720313D01*
X1721030Y1389558D01*
X1725060Y1379827D01*
X1731472Y1371472D01*
X1739827Y1365060D01*
X1749558Y1361030D01*
X1755000Y1360313D01*
Y1395000D01*
D02*
G37*
G36*
X455000D02*
X420313D01*
X421029Y1389558D01*
X425060Y1379827D01*
X431472Y1371472D01*
X439827Y1365060D01*
X449558Y1361030D01*
X455000Y1360313D01*
Y1395000D01*
D02*
G37*
G36*
X2360000Y1440345D02*
X2349558Y1438970D01*
X2339827Y1434940D01*
X2331472Y1428528D01*
X2325060Y1420173D01*
X2321030Y1410442D01*
X2319655Y1400000D01*
X2321030Y1389558D01*
X2325060Y1379827D01*
X2331472Y1371472D01*
X2339827Y1365060D01*
X2349558Y1361030D01*
X2360000Y1359655D01*
X2370442Y1361030D01*
X2380173Y1365060D01*
X2388528Y1371472D01*
X2394940Y1379827D01*
X2398970Y1389558D01*
X2400345Y1400000D01*
X2398970Y1410442D01*
X2394940Y1420173D01*
X2388528Y1428528D01*
X2380173Y1434940D01*
X2370442Y1438970D01*
X2360000Y1440345D01*
D02*
G37*
G36*
X2260000D02*
X2249558Y1438970D01*
X2239827Y1434940D01*
X2231472Y1428528D01*
X2225060Y1420173D01*
X2221030Y1410442D01*
X2219655Y1400000D01*
X2221030Y1389558D01*
X2225060Y1379827D01*
X2231472Y1371472D01*
X2239827Y1365060D01*
X2249558Y1361030D01*
X2260000Y1359655D01*
X2270442Y1361030D01*
X2280173Y1365060D01*
X2288528Y1371472D01*
X2294940Y1379827D01*
X2298970Y1389558D01*
X2300345Y1400000D01*
X2298970Y1410442D01*
X2294940Y1420173D01*
X2288528Y1428528D01*
X2280173Y1434940D01*
X2270442Y1438970D01*
X2260000Y1440345D01*
D02*
G37*
G36*
X2160000D02*
X2149558Y1438970D01*
X2139827Y1434940D01*
X2131472Y1428528D01*
X2125060Y1420173D01*
X2121030Y1410442D01*
X2119655Y1400000D01*
X2121030Y1389558D01*
X2125060Y1379827D01*
X2131472Y1371472D01*
X2139827Y1365060D01*
X2149558Y1361030D01*
X2160000Y1359655D01*
X2170442Y1361030D01*
X2180173Y1365060D01*
X2188528Y1371472D01*
X2194940Y1379827D01*
X2198970Y1389558D01*
X2200345Y1400000D01*
X2198970Y1410442D01*
X2194940Y1420173D01*
X2188528Y1428528D01*
X2180173Y1434940D01*
X2170442Y1438970D01*
X2160000Y1440345D01*
D02*
G37*
G36*
X2060000D02*
X2049558Y1438970D01*
X2039827Y1434940D01*
X2031472Y1428528D01*
X2025060Y1420173D01*
X2021030Y1410442D01*
X2019655Y1400000D01*
X2021030Y1389558D01*
X2025060Y1379827D01*
X2031472Y1371472D01*
X2039827Y1365060D01*
X2049558Y1361030D01*
X2060000Y1359655D01*
X2070442Y1361030D01*
X2080173Y1365060D01*
X2088528Y1371472D01*
X2094940Y1379827D01*
X2098970Y1389558D01*
X2100345Y1400000D01*
X2098970Y1410442D01*
X2094940Y1420173D01*
X2088528Y1428528D01*
X2080173Y1434940D01*
X2070442Y1438970D01*
X2060000Y1440345D01*
D02*
G37*
G36*
X1960000D02*
X1949558Y1438970D01*
X1939827Y1434940D01*
X1931472Y1428528D01*
X1925060Y1420173D01*
X1921030Y1410442D01*
X1919655Y1400000D01*
X1921030Y1389558D01*
X1925060Y1379827D01*
X1931472Y1371472D01*
X1939827Y1365060D01*
X1949558Y1361030D01*
X1960000Y1359655D01*
X1970442Y1361030D01*
X1980173Y1365060D01*
X1988528Y1371472D01*
X1994940Y1379827D01*
X1998970Y1389558D01*
X2000345Y1400000D01*
X1998970Y1410442D01*
X1994940Y1420173D01*
X1988528Y1428528D01*
X1980173Y1434940D01*
X1970442Y1438970D01*
X1960000Y1440345D01*
D02*
G37*
G36*
X1860000D02*
X1849558Y1438970D01*
X1839827Y1434940D01*
X1831472Y1428528D01*
X1825060Y1420173D01*
X1821030Y1410442D01*
X1819655Y1400000D01*
X1821030Y1389558D01*
X1825060Y1379827D01*
X1831472Y1371472D01*
X1839827Y1365060D01*
X1849558Y1361030D01*
X1860000Y1359655D01*
X1870442Y1361030D01*
X1880173Y1365060D01*
X1888528Y1371472D01*
X1894940Y1379827D01*
X1898970Y1389558D01*
X1900345Y1400000D01*
X1898970Y1410442D01*
X1894940Y1420173D01*
X1888528Y1428528D01*
X1880173Y1434940D01*
X1870442Y1438970D01*
X1860000Y1440345D01*
D02*
G37*
G36*
X1660000D02*
X1649558Y1438970D01*
X1639827Y1434940D01*
X1631472Y1428528D01*
X1625060Y1420173D01*
X1621030Y1410442D01*
X1619655Y1400000D01*
X1621030Y1389558D01*
X1625060Y1379827D01*
X1631472Y1371472D01*
X1639827Y1365060D01*
X1649558Y1361030D01*
X1660000Y1359655D01*
X1670442Y1361030D01*
X1680173Y1365060D01*
X1688528Y1371472D01*
X1694940Y1379827D01*
X1698970Y1389558D01*
X1700345Y1400000D01*
X1698970Y1410442D01*
X1694940Y1420173D01*
X1688528Y1428528D01*
X1680173Y1434940D01*
X1670442Y1438970D01*
X1660000Y1440345D01*
D02*
G37*
G36*
X1560000D02*
X1549558Y1438970D01*
X1539827Y1434940D01*
X1531472Y1428528D01*
X1525060Y1420173D01*
X1521030Y1410442D01*
X1519655Y1400000D01*
X1521030Y1389558D01*
X1525060Y1379827D01*
X1531472Y1371472D01*
X1539827Y1365060D01*
X1549558Y1361030D01*
X1560000Y1359655D01*
X1570442Y1361030D01*
X1580173Y1365060D01*
X1588528Y1371472D01*
X1594940Y1379827D01*
X1598970Y1389558D01*
X1600345Y1400000D01*
X1598970Y1410442D01*
X1594940Y1420173D01*
X1588528Y1428528D01*
X1580173Y1434940D01*
X1570442Y1438970D01*
X1560000Y1440345D01*
D02*
G37*
G36*
X1460000D02*
X1449558Y1438970D01*
X1439827Y1434940D01*
X1431472Y1428528D01*
X1425060Y1420173D01*
X1421030Y1410442D01*
X1419655Y1400000D01*
X1421030Y1389558D01*
X1425060Y1379827D01*
X1431472Y1371472D01*
X1439827Y1365060D01*
X1449558Y1361030D01*
X1460000Y1359655D01*
X1470442Y1361030D01*
X1480173Y1365060D01*
X1488528Y1371472D01*
X1494940Y1379827D01*
X1498970Y1389558D01*
X1500345Y1400000D01*
X1498970Y1410442D01*
X1494940Y1420173D01*
X1488528Y1428528D01*
X1480173Y1434940D01*
X1470442Y1438970D01*
X1460000Y1440345D01*
D02*
G37*
G36*
X1360000D02*
X1349558Y1438970D01*
X1339827Y1434940D01*
X1331472Y1428528D01*
X1325060Y1420173D01*
X1321030Y1410442D01*
X1319655Y1400000D01*
X1321030Y1389558D01*
X1325060Y1379827D01*
X1331472Y1371472D01*
X1339827Y1365060D01*
X1349558Y1361030D01*
X1360000Y1359655D01*
X1370442Y1361030D01*
X1380173Y1365060D01*
X1388528Y1371472D01*
X1394940Y1379827D01*
X1398970Y1389558D01*
X1400345Y1400000D01*
X1398970Y1410442D01*
X1394940Y1420173D01*
X1388528Y1428528D01*
X1380173Y1434940D01*
X1370442Y1438970D01*
X1360000Y1440345D01*
D02*
G37*
G36*
X1260000D02*
X1249558Y1438970D01*
X1239827Y1434940D01*
X1231472Y1428528D01*
X1225060Y1420173D01*
X1221030Y1410442D01*
X1219655Y1400000D01*
X1221030Y1389558D01*
X1225060Y1379827D01*
X1231472Y1371472D01*
X1239827Y1365060D01*
X1249558Y1361030D01*
X1260000Y1359655D01*
X1270442Y1361030D01*
X1280173Y1365060D01*
X1288528Y1371472D01*
X1294940Y1379827D01*
X1298970Y1389558D01*
X1300345Y1400000D01*
X1298970Y1410442D01*
X1294940Y1420173D01*
X1288528Y1428528D01*
X1280173Y1434940D01*
X1270442Y1438970D01*
X1260000Y1440345D01*
D02*
G37*
G36*
X1160000D02*
X1149558Y1438970D01*
X1139827Y1434940D01*
X1131472Y1428528D01*
X1125060Y1420173D01*
X1121030Y1410442D01*
X1119655Y1400000D01*
X1121030Y1389558D01*
X1125060Y1379827D01*
X1131472Y1371472D01*
X1139827Y1365060D01*
X1149558Y1361030D01*
X1160000Y1359655D01*
X1170442Y1361030D01*
X1180173Y1365060D01*
X1188528Y1371472D01*
X1194940Y1379827D01*
X1198970Y1389558D01*
X1200345Y1400000D01*
X1198970Y1410442D01*
X1194940Y1420173D01*
X1188528Y1428528D01*
X1180173Y1434940D01*
X1170442Y1438970D01*
X1160000Y1440345D01*
D02*
G37*
G36*
X1060000D02*
X1049558Y1438970D01*
X1039827Y1434940D01*
X1031472Y1428528D01*
X1025060Y1420173D01*
X1021029Y1410442D01*
X1019655Y1400000D01*
X1021029Y1389558D01*
X1025060Y1379827D01*
X1031472Y1371472D01*
X1039827Y1365060D01*
X1049558Y1361030D01*
X1060000Y1359655D01*
X1070442Y1361030D01*
X1080173Y1365060D01*
X1088528Y1371472D01*
X1094940Y1379827D01*
X1098970Y1389558D01*
X1100345Y1400000D01*
X1098970Y1410442D01*
X1094940Y1420173D01*
X1088528Y1428528D01*
X1080173Y1434940D01*
X1070442Y1438970D01*
X1060000Y1440345D01*
D02*
G37*
G36*
X1107087Y1265591D02*
X1081417D01*
Y1235000D01*
X1107087D01*
Y1265591D01*
D02*
G37*
G36*
X1071417D02*
X1045748D01*
Y1235000D01*
X1071417D01*
Y1265591D01*
D02*
G37*
G36*
X2660000Y1440345D02*
X2649558Y1438970D01*
X2639827Y1434940D01*
X2631472Y1428528D01*
X2625060Y1420173D01*
X2621030Y1410442D01*
X2619655Y1400000D01*
X2621030Y1389558D01*
X2625060Y1379827D01*
X2631472Y1371472D01*
X2639827Y1365060D01*
X2644706Y1363039D01*
Y1290669D01*
X2622441D01*
Y1229331D01*
X2697559D01*
Y1290669D01*
X2675294D01*
Y1363039D01*
X2680173Y1365060D01*
X2688528Y1371472D01*
X2694940Y1379827D01*
X2698970Y1389558D01*
X2700345Y1400000D01*
X2698970Y1410442D01*
X2694940Y1420173D01*
X2688528Y1428528D01*
X2680173Y1434940D01*
X2670442Y1438970D01*
X2660000Y1440345D01*
D02*
G37*
G36*
X1107087Y1225000D02*
X1081417D01*
Y1194409D01*
X1107087D01*
Y1225000D01*
D02*
G37*
G36*
X1071417D02*
X1045748D01*
Y1194409D01*
X1071417D01*
Y1225000D01*
D02*
G37*
G36*
X2597559Y1219252D02*
X2565000D01*
Y1193583D01*
X2597559D01*
Y1219252D01*
D02*
G37*
G36*
X2555000D02*
X2522441D01*
Y1193583D01*
X2555000D01*
Y1219252D01*
D02*
G37*
G36*
X2697559Y1217835D02*
X2665000D01*
Y1192166D01*
X2697559D01*
Y1217835D01*
D02*
G37*
G36*
X2655000D02*
X2622441D01*
Y1192166D01*
X2655000D01*
Y1217835D01*
D02*
G37*
G36*
X2597559Y1183583D02*
X2565000D01*
Y1157913D01*
X2597559D01*
Y1183583D01*
D02*
G37*
G36*
X2555000D02*
X2522441D01*
Y1157913D01*
X2555000D01*
Y1183583D01*
D02*
G37*
G36*
X2697559Y1182166D02*
X2665000D01*
Y1156496D01*
X2697559D01*
Y1182166D01*
D02*
G37*
G36*
X2655000D02*
X2622441D01*
Y1156496D01*
X2655000D01*
Y1182166D01*
D02*
G37*
G36*
X444252Y1107559D02*
X418583D01*
Y1075000D01*
X444252D01*
Y1107559D01*
D02*
G37*
G36*
X408583D02*
X382913D01*
Y1075000D01*
X408583D01*
Y1107559D01*
D02*
G37*
G36*
X890000Y1056706D02*
X881106Y1054937D01*
X873566Y1049899D01*
X868527Y1042359D01*
X867549Y1037440D01*
X862451D01*
X861473Y1042359D01*
X856434Y1049899D01*
X848894Y1054937D01*
X845000Y1055712D01*
Y1013779D01*
Y971847D01*
X848894Y972622D01*
X856434Y977660D01*
X861473Y985200D01*
X862451Y990119D01*
X867549D01*
X868527Y985200D01*
X873566Y977660D01*
X874706Y976898D01*
Y936335D01*
X775321Y836950D01*
X770442Y838971D01*
X760000Y840345D01*
X749558Y838971D01*
X739827Y834940D01*
X731472Y828528D01*
X725060Y820173D01*
X721029Y810442D01*
X719655Y800000D01*
X721029Y789558D01*
X725060Y779827D01*
X731472Y771472D01*
X739827Y765060D01*
X749558Y761029D01*
X760000Y759655D01*
X770442Y761029D01*
X780173Y765060D01*
X788528Y771472D01*
X794940Y779827D01*
X798971Y789558D01*
X800345Y800000D01*
X798971Y810442D01*
X796950Y815321D01*
X900814Y919186D01*
X904130Y924147D01*
X905294Y930000D01*
Y976898D01*
X906434Y977660D01*
X911473Y985200D01*
X913242Y994095D01*
Y1033465D01*
X911473Y1042359D01*
X906434Y1049899D01*
X898894Y1054937D01*
X890000Y1056706D01*
D02*
G37*
G36*
X444252Y1065000D02*
X418583D01*
Y1032441D01*
X444252D01*
Y1065000D01*
D02*
G37*
G36*
X408583D02*
X382913D01*
Y1032441D01*
X408583D01*
Y1065000D01*
D02*
G37*
G36*
X2497559Y1017087D02*
X2465000D01*
Y991417D01*
X2497559D01*
Y1017087D01*
D02*
G37*
G36*
X2455000D02*
X2422441D01*
Y991417D01*
X2455000D01*
Y1017087D01*
D02*
G37*
G36*
X2597559Y1015669D02*
X2565000D01*
Y990000D01*
X2597559D01*
Y1015669D01*
D02*
G37*
G36*
X2555000D02*
X2522441D01*
Y990000D01*
X2555000D01*
Y1015669D01*
D02*
G37*
G36*
X2497559Y981417D02*
X2465000D01*
Y955748D01*
X2497559D01*
Y981417D01*
D02*
G37*
G36*
X2455000D02*
X2422441D01*
Y955748D01*
X2455000D01*
Y981417D01*
D02*
G37*
G36*
X2597559Y980000D02*
X2565000D01*
Y954331D01*
X2597559D01*
Y980000D01*
D02*
G37*
G36*
X2555000D02*
X2522441D01*
Y954331D01*
X2555000D01*
Y980000D01*
D02*
G37*
G36*
X365000Y839687D02*
Y805000D01*
X399687D01*
X398971Y810442D01*
X394940Y820173D01*
X388528Y828528D01*
X380173Y834940D01*
X370442Y838971D01*
X365000Y839687D01*
D02*
G37*
G36*
X355000D02*
X349558Y838971D01*
X339827Y834940D01*
X331472Y828528D01*
X325060Y820173D01*
X321029Y810442D01*
X320313Y805000D01*
X355000D01*
Y839687D01*
D02*
G37*
G36*
X399687Y795000D02*
X365000D01*
Y760313D01*
X370442Y761029D01*
X380173Y765060D01*
X388528Y771472D01*
X394940Y779827D01*
X398971Y789558D01*
X399687Y795000D01*
D02*
G37*
G36*
X355000D02*
X320313D01*
X321029Y789558D01*
X325060Y779827D01*
X331472Y771472D01*
X339827Y765060D01*
X349558Y761029D01*
X355000Y760313D01*
Y795000D01*
D02*
G37*
G36*
X2660000Y840345D02*
X2649558Y838971D01*
X2639827Y834940D01*
X2631472Y828528D01*
X2625060Y820173D01*
X2621030Y810442D01*
X2619655Y800000D01*
X2621030Y789558D01*
X2625060Y779827D01*
X2631472Y771472D01*
X2639827Y765060D01*
X2649558Y761029D01*
X2660000Y759655D01*
X2670442Y761029D01*
X2680173Y765060D01*
X2688528Y771472D01*
X2694940Y779827D01*
X2698970Y789558D01*
X2700345Y800000D01*
X2698970Y810442D01*
X2694940Y820173D01*
X2688528Y828528D01*
X2680173Y834940D01*
X2670442Y838971D01*
X2660000Y840345D01*
D02*
G37*
G36*
X2597559Y942835D02*
X2522441D01*
Y881496D01*
X2544706D01*
Y836961D01*
X2539827Y834940D01*
X2531472Y828528D01*
X2525060Y820173D01*
X2521030Y810442D01*
X2519655Y800000D01*
X2521030Y789558D01*
X2525060Y779827D01*
X2531472Y771472D01*
X2539827Y765060D01*
X2549558Y761029D01*
X2560000Y759655D01*
X2570442Y761029D01*
X2580173Y765060D01*
X2588528Y771472D01*
X2594940Y779827D01*
X2598970Y789558D01*
X2600345Y800000D01*
X2598970Y810442D01*
X2594940Y820173D01*
X2588528Y828528D01*
X2580173Y834940D01*
X2575294Y836961D01*
Y881496D01*
X2597559D01*
Y942835D01*
D02*
G37*
G36*
X2497559Y944252D02*
X2422441D01*
Y882913D01*
X2444706D01*
Y836961D01*
X2439827Y834940D01*
X2431472Y828528D01*
X2425060Y820173D01*
X2421030Y810442D01*
X2419655Y800000D01*
X2421030Y789558D01*
X2425060Y779827D01*
X2431472Y771472D01*
X2439827Y765060D01*
X2449558Y761029D01*
X2460000Y759655D01*
X2470442Y761029D01*
X2480173Y765060D01*
X2488528Y771472D01*
X2494940Y779827D01*
X2498970Y789558D01*
X2500345Y800000D01*
X2498970Y810442D01*
X2494940Y820173D01*
X2488528Y828528D01*
X2480173Y834940D01*
X2475294Y836961D01*
Y882913D01*
X2497559D01*
Y944252D01*
D02*
G37*
G36*
X2360000Y840345D02*
X2349558Y838971D01*
X2339827Y834940D01*
X2331472Y828528D01*
X2325060Y820173D01*
X2321030Y810442D01*
X2319655Y800000D01*
X2321030Y789558D01*
X2325060Y779827D01*
X2331472Y771472D01*
X2339827Y765060D01*
X2349558Y761029D01*
X2360000Y759655D01*
X2370442Y761029D01*
X2380173Y765060D01*
X2388528Y771472D01*
X2394940Y779827D01*
X2398970Y789558D01*
X2400345Y800000D01*
X2398970Y810442D01*
X2394940Y820173D01*
X2388528Y828528D01*
X2380173Y834940D01*
X2370442Y838971D01*
X2360000Y840345D01*
D02*
G37*
G36*
X2260000D02*
X2249558Y838971D01*
X2239827Y834940D01*
X2231472Y828528D01*
X2225060Y820173D01*
X2221030Y810442D01*
X2219655Y800000D01*
X2221030Y789558D01*
X2225060Y779827D01*
X2231472Y771472D01*
X2239827Y765060D01*
X2249558Y761029D01*
X2260000Y759655D01*
X2270442Y761029D01*
X2280173Y765060D01*
X2288528Y771472D01*
X2294940Y779827D01*
X2298970Y789558D01*
X2300345Y800000D01*
X2298970Y810442D01*
X2294940Y820173D01*
X2288528Y828528D01*
X2280173Y834940D01*
X2270442Y838971D01*
X2260000Y840345D01*
D02*
G37*
G36*
X2160000D02*
X2149558Y838971D01*
X2139827Y834940D01*
X2131472Y828528D01*
X2125060Y820173D01*
X2121030Y810442D01*
X2119655Y800000D01*
X2121030Y789558D01*
X2125060Y779827D01*
X2131472Y771472D01*
X2139827Y765060D01*
X2149558Y761029D01*
X2160000Y759655D01*
X2170442Y761029D01*
X2180173Y765060D01*
X2188528Y771472D01*
X2194940Y779827D01*
X2198970Y789558D01*
X2200345Y800000D01*
X2198970Y810442D01*
X2194940Y820173D01*
X2188528Y828528D01*
X2180173Y834940D01*
X2170442Y838971D01*
X2160000Y840345D01*
D02*
G37*
G36*
X2060000D02*
X2049558Y838971D01*
X2039827Y834940D01*
X2031472Y828528D01*
X2025060Y820173D01*
X2021030Y810442D01*
X2019655Y800000D01*
X2021030Y789558D01*
X2025060Y779827D01*
X2031472Y771472D01*
X2039827Y765060D01*
X2049558Y761029D01*
X2060000Y759655D01*
X2070442Y761029D01*
X2080173Y765060D01*
X2088528Y771472D01*
X2094940Y779827D01*
X2098970Y789558D01*
X2100345Y800000D01*
X2098970Y810442D01*
X2094940Y820173D01*
X2088528Y828528D01*
X2080173Y834940D01*
X2070442Y838971D01*
X2060000Y840345D01*
D02*
G37*
G36*
X1960000D02*
X1949558Y838971D01*
X1939827Y834940D01*
X1931472Y828528D01*
X1925060Y820173D01*
X1921030Y810442D01*
X1919655Y800000D01*
X1921030Y789558D01*
X1925060Y779827D01*
X1931472Y771472D01*
X1939827Y765060D01*
X1949558Y761029D01*
X1960000Y759655D01*
X1970442Y761029D01*
X1980173Y765060D01*
X1988528Y771472D01*
X1994940Y779827D01*
X1998970Y789558D01*
X2000345Y800000D01*
X1998970Y810442D01*
X1994940Y820173D01*
X1988528Y828528D01*
X1980173Y834940D01*
X1970442Y838971D01*
X1960000Y840345D01*
D02*
G37*
G36*
X1860000D02*
X1849558Y838971D01*
X1839827Y834940D01*
X1831472Y828528D01*
X1825060Y820173D01*
X1821030Y810442D01*
X1819655Y800000D01*
X1821030Y789558D01*
X1825060Y779827D01*
X1831472Y771472D01*
X1839827Y765060D01*
X1849558Y761029D01*
X1860000Y759655D01*
X1870442Y761029D01*
X1880173Y765060D01*
X1888528Y771472D01*
X1894940Y779827D01*
X1898970Y789558D01*
X1900345Y800000D01*
X1898970Y810442D01*
X1894940Y820173D01*
X1888528Y828528D01*
X1880173Y834940D01*
X1870442Y838971D01*
X1860000Y840345D01*
D02*
G37*
G36*
X1660000D02*
X1649558Y838971D01*
X1639827Y834940D01*
X1631472Y828528D01*
X1625060Y820173D01*
X1621030Y810442D01*
X1619655Y800000D01*
X1621030Y789558D01*
X1625060Y779827D01*
X1631472Y771472D01*
X1639827Y765060D01*
X1649558Y761029D01*
X1660000Y759655D01*
X1670442Y761029D01*
X1680173Y765060D01*
X1688528Y771472D01*
X1694940Y779827D01*
X1698970Y789558D01*
X1700345Y800000D01*
X1698970Y810442D01*
X1694940Y820173D01*
X1688528Y828528D01*
X1680173Y834940D01*
X1670442Y838971D01*
X1660000Y840345D01*
D02*
G37*
G36*
X1560000D02*
X1549558Y838971D01*
X1539827Y834940D01*
X1531472Y828528D01*
X1525060Y820173D01*
X1521030Y810442D01*
X1519655Y800000D01*
X1521030Y789558D01*
X1525060Y779827D01*
X1531472Y771472D01*
X1539827Y765060D01*
X1549558Y761029D01*
X1560000Y759655D01*
X1570442Y761029D01*
X1580173Y765060D01*
X1588528Y771472D01*
X1594940Y779827D01*
X1598970Y789558D01*
X1600345Y800000D01*
X1598970Y810442D01*
X1594940Y820173D01*
X1588528Y828528D01*
X1580173Y834940D01*
X1570442Y838971D01*
X1560000Y840345D01*
D02*
G37*
G36*
X1460000D02*
X1449558Y838971D01*
X1439827Y834940D01*
X1431472Y828528D01*
X1425060Y820173D01*
X1421030Y810442D01*
X1419655Y800000D01*
X1421030Y789558D01*
X1425060Y779827D01*
X1431472Y771472D01*
X1439827Y765060D01*
X1449558Y761029D01*
X1460000Y759655D01*
X1470442Y761029D01*
X1480173Y765060D01*
X1488528Y771472D01*
X1494940Y779827D01*
X1498970Y789558D01*
X1500345Y800000D01*
X1498970Y810442D01*
X1494940Y820173D01*
X1488528Y828528D01*
X1480173Y834940D01*
X1470442Y838971D01*
X1460000Y840345D01*
D02*
G37*
G36*
X1360000D02*
X1349558Y838971D01*
X1339827Y834940D01*
X1331472Y828528D01*
X1325060Y820173D01*
X1321030Y810442D01*
X1319655Y800000D01*
X1321030Y789558D01*
X1325060Y779827D01*
X1331472Y771472D01*
X1339827Y765060D01*
X1349558Y761029D01*
X1360000Y759655D01*
X1370442Y761029D01*
X1380173Y765060D01*
X1388528Y771472D01*
X1394940Y779827D01*
X1398970Y789558D01*
X1400345Y800000D01*
X1398970Y810442D01*
X1394940Y820173D01*
X1388528Y828528D01*
X1380173Y834940D01*
X1370442Y838971D01*
X1360000Y840345D01*
D02*
G37*
G36*
X1260000D02*
X1249558Y838971D01*
X1239827Y834940D01*
X1231472Y828528D01*
X1225060Y820173D01*
X1221030Y810442D01*
X1219655Y800000D01*
X1221030Y789558D01*
X1225060Y779827D01*
X1231472Y771472D01*
X1239827Y765060D01*
X1249558Y761029D01*
X1260000Y759655D01*
X1270442Y761029D01*
X1280173Y765060D01*
X1288528Y771472D01*
X1294940Y779827D01*
X1298970Y789558D01*
X1300345Y800000D01*
X1298970Y810442D01*
X1294940Y820173D01*
X1288528Y828528D01*
X1280173Y834940D01*
X1270442Y838971D01*
X1260000Y840345D01*
D02*
G37*
G36*
X1160000D02*
X1149558Y838971D01*
X1139827Y834940D01*
X1131472Y828528D01*
X1125060Y820173D01*
X1121030Y810442D01*
X1119655Y800000D01*
X1121030Y789558D01*
X1125060Y779827D01*
X1131472Y771472D01*
X1139827Y765060D01*
X1149558Y761029D01*
X1160000Y759655D01*
X1170442Y761029D01*
X1180173Y765060D01*
X1188528Y771472D01*
X1194940Y779827D01*
X1198970Y789558D01*
X1200345Y800000D01*
X1198970Y810442D01*
X1194940Y820173D01*
X1188528Y828528D01*
X1180173Y834940D01*
X1170442Y838971D01*
X1160000Y840345D01*
D02*
G37*
G36*
X1060000D02*
X1049558Y838971D01*
X1039827Y834940D01*
X1031472Y828528D01*
X1025060Y820173D01*
X1021029Y810442D01*
X1019655Y800000D01*
X1021029Y789558D01*
X1025060Y779827D01*
X1031472Y771472D01*
X1039827Y765060D01*
X1049558Y761029D01*
X1060000Y759655D01*
X1070442Y761029D01*
X1080173Y765060D01*
X1088528Y771472D01*
X1094940Y779827D01*
X1098970Y789558D01*
X1100345Y800000D01*
X1098970Y810442D01*
X1094940Y820173D01*
X1088528Y828528D01*
X1080173Y834940D01*
X1070442Y838971D01*
X1060000Y840345D01*
D02*
G37*
G36*
X960000D02*
X949558Y838971D01*
X939827Y834940D01*
X931472Y828528D01*
X925060Y820173D01*
X921029Y810442D01*
X919655Y800000D01*
X921029Y789558D01*
X925060Y779827D01*
X931472Y771472D01*
X939827Y765060D01*
X949558Y761029D01*
X960000Y759655D01*
X970442Y761029D01*
X980173Y765060D01*
X988528Y771472D01*
X994940Y779827D01*
X998971Y789558D01*
X1000345Y800000D01*
X998971Y810442D01*
X994940Y820173D01*
X988528Y828528D01*
X980173Y834940D01*
X970442Y838971D01*
X960000Y840345D01*
D02*
G37*
G36*
X860000D02*
X849558Y838971D01*
X839827Y834940D01*
X831472Y828528D01*
X825060Y820173D01*
X821029Y810442D01*
X819655Y800000D01*
X821029Y789558D01*
X825060Y779827D01*
X831472Y771472D01*
X839827Y765060D01*
X849558Y761029D01*
X860000Y759655D01*
X870442Y761029D01*
X880173Y765060D01*
X888528Y771472D01*
X894940Y779827D01*
X898971Y789558D01*
X900345Y800000D01*
X898971Y810442D01*
X894940Y820173D01*
X888528Y828528D01*
X880173Y834940D01*
X870442Y838971D01*
X860000Y840345D01*
D02*
G37*
G36*
X660000D02*
X649558Y838971D01*
X639827Y834940D01*
X631472Y828528D01*
X625060Y820173D01*
X621029Y810442D01*
X619655Y800000D01*
X621029Y789558D01*
X625060Y779827D01*
X631472Y771472D01*
X639827Y765060D01*
X649558Y761029D01*
X660000Y759655D01*
X670442Y761029D01*
X680173Y765060D01*
X688528Y771472D01*
X694940Y779827D01*
X698971Y789558D01*
X700345Y800000D01*
X698971Y810442D01*
X694940Y820173D01*
X688528Y828528D01*
X680173Y834940D01*
X670442Y838971D01*
X660000Y840345D01*
D02*
G37*
G36*
X560000D02*
X549558Y838971D01*
X539827Y834940D01*
X531472Y828528D01*
X525060Y820173D01*
X521029Y810442D01*
X519655Y800000D01*
X521029Y789558D01*
X525060Y779827D01*
X531472Y771472D01*
X539827Y765060D01*
X549558Y761029D01*
X560000Y759655D01*
X570442Y761029D01*
X580173Y765060D01*
X588528Y771472D01*
X594940Y779827D01*
X598971Y789558D01*
X600345Y800000D01*
X598971Y810442D01*
X594940Y820173D01*
X588528Y828528D01*
X580173Y834940D01*
X570442Y838971D01*
X560000Y840345D01*
D02*
G37*
G36*
X460000D02*
X449558Y838971D01*
X439827Y834940D01*
X431472Y828528D01*
X425060Y820173D01*
X421029Y810442D01*
X419655Y800000D01*
X421029Y789558D01*
X425060Y779827D01*
X431472Y771472D01*
X439827Y765060D01*
X449558Y761029D01*
X460000Y759655D01*
X470442Y761029D01*
X480173Y765060D01*
X488528Y771472D01*
X494940Y779827D01*
X498971Y789558D01*
X500345Y800000D01*
X498971Y810442D01*
X494940Y820173D01*
X488528Y828528D01*
X480173Y834940D01*
X470442Y838971D01*
X460000Y840345D01*
D02*
G37*
G36*
X365000Y539687D02*
Y505000D01*
X399687D01*
X398971Y510442D01*
X394940Y520173D01*
X388528Y528528D01*
X380173Y534940D01*
X370442Y538971D01*
X365000Y539687D01*
D02*
G37*
G36*
X355000D02*
X349558Y538971D01*
X339827Y534940D01*
X331472Y528528D01*
X325060Y520173D01*
X321029Y510442D01*
X320313Y505000D01*
X355000D01*
Y539687D01*
D02*
G37*
G36*
X399687Y495000D02*
X365000D01*
Y460313D01*
X370442Y461029D01*
X380173Y465060D01*
X388528Y471472D01*
X394940Y479827D01*
X398971Y489558D01*
X399687Y495000D01*
D02*
G37*
G36*
X355000D02*
X320313D01*
X321029Y489558D01*
X325060Y479827D01*
X331472Y471472D01*
X339827Y465060D01*
X349558Y461029D01*
X355000Y460313D01*
Y495000D01*
D02*
G37*
G36*
X2700000Y540000D02*
X2620000D01*
Y460000D01*
X2700000D01*
Y540000D01*
D02*
G37*
G36*
X2360000Y540345D02*
X2349558Y538971D01*
X2339827Y534940D01*
X2331472Y528528D01*
X2325060Y520173D01*
X2321030Y510442D01*
X2319655Y500000D01*
X2321030Y489558D01*
X2325060Y479827D01*
X2331472Y471472D01*
X2339827Y465060D01*
X2349558Y461029D01*
X2360000Y459655D01*
X2370442Y461029D01*
X2380173Y465060D01*
X2388528Y471472D01*
X2394940Y479827D01*
X2398970Y489558D01*
X2400345Y500000D01*
X2398970Y510442D01*
X2394940Y520173D01*
X2388528Y528528D01*
X2380173Y534940D01*
X2370442Y538971D01*
X2360000Y540345D01*
D02*
G37*
G36*
X2260000D02*
X2249558Y538971D01*
X2239827Y534940D01*
X2231472Y528528D01*
X2225060Y520173D01*
X2221030Y510442D01*
X2219655Y500000D01*
X2221030Y489558D01*
X2225060Y479827D01*
X2231472Y471472D01*
X2239827Y465060D01*
X2249558Y461029D01*
X2260000Y459655D01*
X2270442Y461029D01*
X2280173Y465060D01*
X2288528Y471472D01*
X2294940Y479827D01*
X2298970Y489558D01*
X2300345Y500000D01*
X2298970Y510442D01*
X2294940Y520173D01*
X2288528Y528528D01*
X2280173Y534940D01*
X2270442Y538971D01*
X2260000Y540345D01*
D02*
G37*
G36*
X2160000D02*
X2149558Y538971D01*
X2139827Y534940D01*
X2131472Y528528D01*
X2125060Y520173D01*
X2121030Y510442D01*
X2119655Y500000D01*
X2121030Y489558D01*
X2125060Y479827D01*
X2131472Y471472D01*
X2139827Y465060D01*
X2149558Y461029D01*
X2160000Y459655D01*
X2170442Y461029D01*
X2180173Y465060D01*
X2188528Y471472D01*
X2194940Y479827D01*
X2198970Y489558D01*
X2200345Y500000D01*
X2198970Y510442D01*
X2194940Y520173D01*
X2188528Y528528D01*
X2180173Y534940D01*
X2170442Y538971D01*
X2160000Y540345D01*
D02*
G37*
G36*
X2060000D02*
X2049558Y538971D01*
X2039827Y534940D01*
X2031472Y528528D01*
X2025060Y520173D01*
X2021030Y510442D01*
X2019655Y500000D01*
X2021030Y489558D01*
X2025060Y479827D01*
X2031472Y471472D01*
X2039827Y465060D01*
X2049558Y461029D01*
X2060000Y459655D01*
X2070442Y461029D01*
X2080173Y465060D01*
X2088528Y471472D01*
X2094940Y479827D01*
X2098970Y489558D01*
X2100345Y500000D01*
X2098970Y510442D01*
X2094940Y520173D01*
X2088528Y528528D01*
X2080173Y534940D01*
X2070442Y538971D01*
X2060000Y540345D01*
D02*
G37*
G36*
X1960000D02*
X1949558Y538971D01*
X1939827Y534940D01*
X1931472Y528528D01*
X1925060Y520173D01*
X1921030Y510442D01*
X1919655Y500000D01*
X1921030Y489558D01*
X1925060Y479827D01*
X1931472Y471472D01*
X1939827Y465060D01*
X1949558Y461029D01*
X1960000Y459655D01*
X1970442Y461029D01*
X1980173Y465060D01*
X1988528Y471472D01*
X1994940Y479827D01*
X1998970Y489558D01*
X2000345Y500000D01*
X1998970Y510442D01*
X1994940Y520173D01*
X1988528Y528528D01*
X1980173Y534940D01*
X1970442Y538971D01*
X1960000Y540345D01*
D02*
G37*
G36*
X1860000D02*
X1849558Y538971D01*
X1839827Y534940D01*
X1831472Y528528D01*
X1825060Y520173D01*
X1821030Y510442D01*
X1819655Y500000D01*
X1821030Y489558D01*
X1825060Y479827D01*
X1831472Y471472D01*
X1839827Y465060D01*
X1849558Y461029D01*
X1860000Y459655D01*
X1870442Y461029D01*
X1880173Y465060D01*
X1888528Y471472D01*
X1894940Y479827D01*
X1898970Y489558D01*
X1900345Y500000D01*
X1898970Y510442D01*
X1894940Y520173D01*
X1888528Y528528D01*
X1880173Y534940D01*
X1870442Y538971D01*
X1860000Y540345D01*
D02*
G37*
G36*
X1760000D02*
X1749558Y538971D01*
X1739827Y534940D01*
X1731472Y528528D01*
X1725060Y520173D01*
X1721030Y510442D01*
X1719655Y500000D01*
X1721030Y489558D01*
X1725060Y479827D01*
X1731472Y471472D01*
X1739827Y465060D01*
X1749558Y461029D01*
X1760000Y459655D01*
X1770442Y461029D01*
X1780173Y465060D01*
X1788528Y471472D01*
X1794940Y479827D01*
X1798970Y489558D01*
X1800345Y500000D01*
X1798970Y510442D01*
X1794940Y520173D01*
X1788528Y528528D01*
X1780173Y534940D01*
X1770442Y538971D01*
X1760000Y540345D01*
D02*
G37*
G36*
X1660000D02*
X1649558Y538971D01*
X1639827Y534940D01*
X1631472Y528528D01*
X1625060Y520173D01*
X1621030Y510442D01*
X1619655Y500000D01*
X1621030Y489558D01*
X1625060Y479827D01*
X1631472Y471472D01*
X1639827Y465060D01*
X1649558Y461029D01*
X1660000Y459655D01*
X1670442Y461029D01*
X1680173Y465060D01*
X1688528Y471472D01*
X1694940Y479827D01*
X1698970Y489558D01*
X1700345Y500000D01*
X1698970Y510442D01*
X1694940Y520173D01*
X1688528Y528528D01*
X1680173Y534940D01*
X1670442Y538971D01*
X1660000Y540345D01*
D02*
G37*
G36*
X1560000D02*
X1549558Y538971D01*
X1539827Y534940D01*
X1531472Y528528D01*
X1525060Y520173D01*
X1521030Y510442D01*
X1519655Y500000D01*
X1521030Y489558D01*
X1525060Y479827D01*
X1531472Y471472D01*
X1539827Y465060D01*
X1549558Y461029D01*
X1560000Y459655D01*
X1570442Y461029D01*
X1580173Y465060D01*
X1588528Y471472D01*
X1594940Y479827D01*
X1598970Y489558D01*
X1600345Y500000D01*
X1598970Y510442D01*
X1594940Y520173D01*
X1588528Y528528D01*
X1580173Y534940D01*
X1570442Y538971D01*
X1560000Y540345D01*
D02*
G37*
G36*
X1460000D02*
X1449558Y538971D01*
X1439827Y534940D01*
X1431472Y528528D01*
X1425060Y520173D01*
X1421030Y510442D01*
X1419655Y500000D01*
X1421030Y489558D01*
X1425060Y479827D01*
X1431472Y471472D01*
X1439827Y465060D01*
X1449558Y461029D01*
X1460000Y459655D01*
X1470442Y461029D01*
X1480173Y465060D01*
X1488528Y471472D01*
X1494940Y479827D01*
X1498970Y489558D01*
X1500345Y500000D01*
X1498970Y510442D01*
X1494940Y520173D01*
X1488528Y528528D01*
X1480173Y534940D01*
X1470442Y538971D01*
X1460000Y540345D01*
D02*
G37*
G36*
X1360000D02*
X1349558Y538971D01*
X1339827Y534940D01*
X1331472Y528528D01*
X1325060Y520173D01*
X1321030Y510442D01*
X1319655Y500000D01*
X1321030Y489558D01*
X1325060Y479827D01*
X1331472Y471472D01*
X1339827Y465060D01*
X1349558Y461029D01*
X1360000Y459655D01*
X1370442Y461029D01*
X1380173Y465060D01*
X1388528Y471472D01*
X1394940Y479827D01*
X1398970Y489558D01*
X1400345Y500000D01*
X1398970Y510442D01*
X1394940Y520173D01*
X1388528Y528528D01*
X1380173Y534940D01*
X1370442Y538971D01*
X1360000Y540345D01*
D02*
G37*
G36*
X1260000D02*
X1249558Y538971D01*
X1239827Y534940D01*
X1231472Y528528D01*
X1225060Y520173D01*
X1221030Y510442D01*
X1219655Y500000D01*
X1221030Y489558D01*
X1225060Y479827D01*
X1231472Y471472D01*
X1239827Y465060D01*
X1249558Y461029D01*
X1260000Y459655D01*
X1270442Y461029D01*
X1280173Y465060D01*
X1288528Y471472D01*
X1294940Y479827D01*
X1298970Y489558D01*
X1300345Y500000D01*
X1298970Y510442D01*
X1294940Y520173D01*
X1288528Y528528D01*
X1280173Y534940D01*
X1270442Y538971D01*
X1260000Y540345D01*
D02*
G37*
G36*
X1160000D02*
X1149558Y538971D01*
X1139827Y534940D01*
X1131472Y528528D01*
X1125060Y520173D01*
X1121030Y510442D01*
X1119655Y500000D01*
X1121030Y489558D01*
X1125060Y479827D01*
X1131472Y471472D01*
X1139827Y465060D01*
X1149558Y461029D01*
X1160000Y459655D01*
X1170442Y461029D01*
X1180173Y465060D01*
X1188528Y471472D01*
X1194940Y479827D01*
X1198970Y489558D01*
X1200345Y500000D01*
X1198970Y510442D01*
X1194940Y520173D01*
X1188528Y528528D01*
X1180173Y534940D01*
X1170442Y538971D01*
X1160000Y540345D01*
D02*
G37*
G36*
X1060000D02*
X1049558Y538971D01*
X1039827Y534940D01*
X1031472Y528528D01*
X1025060Y520173D01*
X1021029Y510442D01*
X1019655Y500000D01*
X1021029Y489558D01*
X1025060Y479827D01*
X1031472Y471472D01*
X1039827Y465060D01*
X1049558Y461029D01*
X1060000Y459655D01*
X1070442Y461029D01*
X1080173Y465060D01*
X1088528Y471472D01*
X1094940Y479827D01*
X1098970Y489558D01*
X1100345Y500000D01*
X1098970Y510442D01*
X1094940Y520173D01*
X1088528Y528528D01*
X1080173Y534940D01*
X1070442Y538971D01*
X1060000Y540345D01*
D02*
G37*
G36*
X960000D02*
X949558Y538971D01*
X939827Y534940D01*
X931472Y528528D01*
X925060Y520173D01*
X921029Y510442D01*
X919655Y500000D01*
X921029Y489558D01*
X925060Y479827D01*
X931472Y471472D01*
X939827Y465060D01*
X949558Y461029D01*
X960000Y459655D01*
X970442Y461029D01*
X980173Y465060D01*
X988528Y471472D01*
X994940Y479827D01*
X998971Y489558D01*
X1000345Y500000D01*
X998971Y510442D01*
X994940Y520173D01*
X988528Y528528D01*
X980173Y534940D01*
X970442Y538971D01*
X960000Y540345D01*
D02*
G37*
G36*
X860000D02*
X849558Y538971D01*
X839827Y534940D01*
X831472Y528528D01*
X825060Y520173D01*
X821029Y510442D01*
X819655Y500000D01*
X821029Y489558D01*
X825060Y479827D01*
X831472Y471472D01*
X839827Y465060D01*
X849558Y461029D01*
X860000Y459655D01*
X870442Y461029D01*
X880173Y465060D01*
X888528Y471472D01*
X894940Y479827D01*
X898971Y489558D01*
X900345Y500000D01*
X898971Y510442D01*
X894940Y520173D01*
X888528Y528528D01*
X880173Y534940D01*
X870442Y538971D01*
X860000Y540345D01*
D02*
G37*
G36*
X760000D02*
X749558Y538971D01*
X739827Y534940D01*
X731472Y528528D01*
X725060Y520173D01*
X721029Y510442D01*
X719655Y500000D01*
X721029Y489558D01*
X725060Y479827D01*
X731472Y471472D01*
X739827Y465060D01*
X749558Y461029D01*
X760000Y459655D01*
X770442Y461029D01*
X780173Y465060D01*
X788528Y471472D01*
X794940Y479827D01*
X798971Y489558D01*
X800345Y500000D01*
X798971Y510442D01*
X794940Y520173D01*
X788528Y528528D01*
X780173Y534940D01*
X770442Y538971D01*
X760000Y540345D01*
D02*
G37*
G36*
X660000D02*
X649558Y538971D01*
X639827Y534940D01*
X631472Y528528D01*
X625060Y520173D01*
X621029Y510442D01*
X619655Y500000D01*
X621029Y489558D01*
X625060Y479827D01*
X631472Y471472D01*
X639827Y465060D01*
X649558Y461029D01*
X660000Y459655D01*
X670442Y461029D01*
X680173Y465060D01*
X688528Y471472D01*
X694940Y479827D01*
X698971Y489558D01*
X700345Y500000D01*
X698971Y510442D01*
X694940Y520173D01*
X688528Y528528D01*
X680173Y534940D01*
X670442Y538971D01*
X660000Y540345D01*
D02*
G37*
G36*
X560000D02*
X549558Y538971D01*
X539827Y534940D01*
X531472Y528528D01*
X525060Y520173D01*
X521029Y510442D01*
X519655Y500000D01*
X521029Y489558D01*
X525060Y479827D01*
X531472Y471472D01*
X539827Y465060D01*
X549558Y461029D01*
X560000Y459655D01*
X570442Y461029D01*
X580173Y465060D01*
X588528Y471472D01*
X594940Y479827D01*
X598971Y489558D01*
X600345Y500000D01*
X598971Y510442D01*
X594940Y520173D01*
X588528Y528528D01*
X580173Y534940D01*
X570442Y538971D01*
X560000Y540345D01*
D02*
G37*
G36*
X460000D02*
X449558Y538971D01*
X439827Y534940D01*
X431472Y528528D01*
X425060Y520173D01*
X421029Y510442D01*
X419655Y500000D01*
X421029Y489558D01*
X425060Y479827D01*
X431472Y471472D01*
X439827Y465060D01*
X449558Y461029D01*
X460000Y459655D01*
X470442Y461029D01*
X480173Y465060D01*
X488528Y471472D01*
X494940Y479827D01*
X498971Y489558D01*
X500345Y500000D01*
X498971Y510442D01*
X494940Y520173D01*
X488528Y528528D01*
X480173Y534940D01*
X470442Y538971D01*
X460000Y540345D01*
D02*
G37*
G36*
X2890000Y350345D02*
X2879558Y348971D01*
X2869827Y344940D01*
X2861472Y338528D01*
X2855060Y330173D01*
X2851030Y320442D01*
X2849655Y310000D01*
X2851030Y299558D01*
X2855060Y289827D01*
X2861472Y281472D01*
X2869827Y275060D01*
X2879558Y271029D01*
X2890000Y269655D01*
X2900442Y271029D01*
X2910173Y275060D01*
X2918528Y281472D01*
X2924940Y289827D01*
X2928970Y299558D01*
X2930345Y310000D01*
X2928970Y320442D01*
X2924940Y330173D01*
X2918528Y338528D01*
X2910173Y344940D01*
X2900442Y348971D01*
X2890000Y350345D01*
D02*
G37*
G36*
X1365000Y279687D02*
Y245000D01*
X1399687D01*
X1398970Y250442D01*
X1394940Y260173D01*
X1388528Y268528D01*
X1380173Y274940D01*
X1370442Y278971D01*
X1365000Y279687D01*
D02*
G37*
G36*
X1265000D02*
Y245000D01*
X1299687D01*
X1298970Y250442D01*
X1294940Y260173D01*
X1288528Y268528D01*
X1280173Y274940D01*
X1270442Y278971D01*
X1265000Y279687D01*
D02*
G37*
G36*
X1165000D02*
Y245000D01*
X1199687D01*
X1198970Y250442D01*
X1194940Y260173D01*
X1188528Y268528D01*
X1180173Y274940D01*
X1170442Y278971D01*
X1165000Y279687D01*
D02*
G37*
G36*
X1355000D02*
X1349558Y278971D01*
X1339827Y274940D01*
X1331472Y268528D01*
X1325060Y260173D01*
X1321030Y250442D01*
X1320313Y245000D01*
X1355000D01*
Y279687D01*
D02*
G37*
G36*
X1255000D02*
X1249558Y278971D01*
X1239827Y274940D01*
X1231472Y268528D01*
X1225060Y260173D01*
X1221030Y250442D01*
X1220313Y245000D01*
X1255000D01*
Y279687D01*
D02*
G37*
G36*
X1155000D02*
X1149558Y278971D01*
X1139827Y274940D01*
X1131472Y268528D01*
X1125060Y260173D01*
X1121030Y250442D01*
X1120313Y245000D01*
X1155000D01*
Y279687D01*
D02*
G37*
G36*
X2895000Y251262D02*
Y216575D01*
X2929687D01*
X2928970Y222017D01*
X2924940Y231747D01*
X2918528Y240103D01*
X2910173Y246515D01*
X2900442Y250545D01*
X2895000Y251262D01*
D02*
G37*
G36*
X2885000D02*
X2879558Y250545D01*
X2869827Y246515D01*
X2861472Y240103D01*
X2855060Y231747D01*
X2851030Y222017D01*
X2850313Y216575D01*
X2885000D01*
Y251262D01*
D02*
G37*
G36*
X2575000Y249687D02*
Y215000D01*
X2609687D01*
X2608970Y220442D01*
X2604940Y230173D01*
X2598528Y238528D01*
X2590173Y244940D01*
X2580442Y248970D01*
X2575000Y249687D01*
D02*
G37*
G36*
X2116575D02*
Y215000D01*
X2151262D01*
X2150545Y220442D01*
X2146515Y230173D01*
X2140103Y238528D01*
X2131747Y244940D01*
X2122017Y248970D01*
X2116575Y249687D01*
D02*
G37*
G36*
X2565000D02*
X2559558Y248970D01*
X2549827Y244940D01*
X2541472Y238528D01*
X2535060Y230173D01*
X2531030Y220442D01*
X2530313Y215000D01*
X2565000D01*
Y249687D01*
D02*
G37*
G36*
X2106575D02*
X2101133Y248970D01*
X2091402Y244940D01*
X2083046Y238528D01*
X2076635Y230173D01*
X2072604Y220442D01*
X2071888Y215000D01*
X2106575D01*
Y249687D01*
D02*
G37*
G36*
X1399687Y235000D02*
X1365000D01*
Y200313D01*
X1370442Y201030D01*
X1380173Y205060D01*
X1388528Y211472D01*
X1394940Y219827D01*
X1398970Y229558D01*
X1399687Y235000D01*
D02*
G37*
G36*
X1299687D02*
X1265000D01*
Y200313D01*
X1270442Y201030D01*
X1280173Y205060D01*
X1288528Y211472D01*
X1294940Y219827D01*
X1298970Y229558D01*
X1299687Y235000D01*
D02*
G37*
G36*
X1199687D02*
X1165000D01*
Y200313D01*
X1170442Y201030D01*
X1180173Y205060D01*
X1188528Y211472D01*
X1194940Y219827D01*
X1198970Y229558D01*
X1199687Y235000D01*
D02*
G37*
G36*
X1355000D02*
X1320313D01*
X1321030Y229558D01*
X1325060Y219827D01*
X1331472Y211472D01*
X1339827Y205060D01*
X1349558Y201030D01*
X1355000Y200313D01*
Y235000D01*
D02*
G37*
G36*
X1255000D02*
X1220313D01*
X1221030Y229558D01*
X1225060Y219827D01*
X1231472Y211472D01*
X1239827Y205060D01*
X1249558Y201030D01*
X1255000Y200313D01*
Y235000D01*
D02*
G37*
G36*
X1155000D02*
X1120313D01*
X1121030Y229558D01*
X1125060Y219827D01*
X1131472Y211472D01*
X1139827Y205060D01*
X1149558Y201030D01*
X1155000Y200313D01*
Y235000D01*
D02*
G37*
G36*
X1660000Y280345D02*
X1649558Y278971D01*
X1639827Y274940D01*
X1631472Y268528D01*
X1625060Y260173D01*
X1621030Y250442D01*
X1619655Y240000D01*
X1621030Y229558D01*
X1625060Y219827D01*
X1631472Y211472D01*
X1639827Y205060D01*
X1649558Y201030D01*
X1660000Y199655D01*
X1670442Y201030D01*
X1680173Y205060D01*
X1688528Y211472D01*
X1694940Y219827D01*
X1698970Y229558D01*
X1700345Y240000D01*
X1698970Y250442D01*
X1694940Y260173D01*
X1688528Y268528D01*
X1680173Y274940D01*
X1670442Y278971D01*
X1660000Y280345D01*
D02*
G37*
G36*
X1560000D02*
X1549558Y278971D01*
X1539827Y274940D01*
X1531472Y268528D01*
X1525060Y260173D01*
X1521030Y250442D01*
X1519655Y240000D01*
X1521030Y229558D01*
X1525060Y219827D01*
X1531472Y211472D01*
X1539827Y205060D01*
X1549558Y201030D01*
X1560000Y199655D01*
X1570442Y201030D01*
X1580173Y205060D01*
X1588528Y211472D01*
X1594940Y219827D01*
X1598970Y229558D01*
X1600345Y240000D01*
X1598970Y250442D01*
X1594940Y260173D01*
X1588528Y268528D01*
X1580173Y274940D01*
X1570442Y278971D01*
X1560000Y280345D01*
D02*
G37*
G36*
X2560000Y540345D02*
X2549558Y538971D01*
X2539827Y534940D01*
X2531472Y528528D01*
X2525060Y520173D01*
X2521030Y510442D01*
X2519655Y500000D01*
X2521030Y489558D01*
X2523050Y484679D01*
X2460760Y422389D01*
X2457445Y417428D01*
X2456281Y411575D01*
Y246961D01*
X2451402Y244940D01*
X2443046Y238528D01*
X2436635Y230173D01*
X2432604Y220442D01*
X2431230Y210000D01*
X2432604Y199558D01*
X2436635Y189827D01*
X2443046Y181472D01*
X2444927Y180029D01*
X2443320Y175294D01*
X2238255D01*
X2236648Y180029D01*
X2238528Y181472D01*
X2244940Y189827D01*
X2248970Y199558D01*
X2250345Y210000D01*
X2248970Y220442D01*
X2246950Y225321D01*
X2465814Y444186D01*
X2469130Y449147D01*
X2470294Y455000D01*
Y461010D01*
X2470442Y461029D01*
X2480173Y465060D01*
X2488528Y471472D01*
X2494940Y479827D01*
X2498970Y489558D01*
X2500345Y500000D01*
X2498970Y510442D01*
X2494940Y520173D01*
X2488528Y528528D01*
X2480173Y534940D01*
X2470442Y538971D01*
X2460000Y540345D01*
X2449558Y538971D01*
X2439827Y534940D01*
X2431472Y528528D01*
X2425060Y520173D01*
X2421030Y510442D01*
X2419655Y500000D01*
X2421030Y489558D01*
X2425060Y479827D01*
X2431472Y471472D01*
X2438706Y465921D01*
X2438946Y460574D01*
X2225321Y246950D01*
X2220442Y248970D01*
X2210000Y250345D01*
X2199558Y248970D01*
X2189827Y244940D01*
X2181472Y238528D01*
X2175060Y230173D01*
X2171030Y220442D01*
X2169655Y210000D01*
X2171030Y199558D01*
X2175060Y189827D01*
X2181472Y181472D01*
X2183352Y180029D01*
X2181745Y175294D01*
X2139830D01*
X2138223Y180029D01*
X2140103Y181472D01*
X2146515Y189827D01*
X2150545Y199558D01*
X2151262Y205000D01*
X2111575D01*
X2071888D01*
X2072604Y199558D01*
X2076635Y189827D01*
X2083046Y181472D01*
X2084927Y180029D01*
X2083320Y175294D01*
X2003100D01*
X1927579Y250814D01*
X1922618Y254130D01*
X1916765Y255294D01*
X1796961D01*
X1794940Y260173D01*
X1788528Y268528D01*
X1780173Y274940D01*
X1770442Y278971D01*
X1760000Y280345D01*
X1749558Y278971D01*
X1739827Y274940D01*
X1731472Y268528D01*
X1725060Y260173D01*
X1721030Y250442D01*
X1719655Y240000D01*
X1721030Y229558D01*
X1725060Y219827D01*
X1731472Y211472D01*
X1739827Y205060D01*
X1749558Y201030D01*
X1760000Y199655D01*
X1770442Y201030D01*
X1780173Y205060D01*
X1788528Y211472D01*
X1794940Y219827D01*
X1796961Y224706D01*
X1910430D01*
X1985951Y149186D01*
X1990912Y145870D01*
X1996765Y144706D01*
X2645512D01*
X2651365Y145870D01*
X2656326Y149186D01*
X2878616Y371476D01*
X2883495Y369455D01*
X2893937Y368080D01*
X2904379Y369455D01*
X2914110Y373485D01*
X2922465Y379897D01*
X2928877Y388253D01*
X2932907Y397983D01*
X2934282Y408425D01*
X2932907Y418867D01*
X2928877Y428598D01*
X2922465Y436954D01*
X2914110Y443365D01*
X2904379Y447396D01*
X2893937Y448770D01*
X2883495Y447396D01*
X2873764Y443365D01*
X2865409Y436954D01*
X2858997Y428598D01*
X2854966Y418867D01*
X2853592Y408425D01*
X2854966Y397983D01*
X2856987Y393104D01*
X2639177Y175294D01*
X2598255D01*
X2596648Y180029D01*
X2598528Y181472D01*
X2604940Y189827D01*
X2608970Y199558D01*
X2609687Y205000D01*
X2570000D01*
X2530313D01*
X2531030Y199558D01*
X2535060Y189827D01*
X2541472Y181472D01*
X2543352Y180029D01*
X2541745Y175294D01*
X2499830D01*
X2498223Y180029D01*
X2500103Y181472D01*
X2506515Y189827D01*
X2510545Y199558D01*
X2511920Y210000D01*
X2510545Y220442D01*
X2506515Y230173D01*
X2500103Y238528D01*
X2491747Y244940D01*
X2486869Y246961D01*
Y405240D01*
X2544679Y463050D01*
X2549558Y461029D01*
X2560000Y459655D01*
X2570442Y461029D01*
X2580173Y465060D01*
X2588528Y471472D01*
X2594940Y479827D01*
X2598970Y489558D01*
X2600345Y500000D01*
X2598970Y510442D01*
X2594940Y520173D01*
X2588528Y528528D01*
X2580173Y534940D01*
X2570442Y538971D01*
X2560000Y540345D01*
D02*
G37*
G36*
X2929687Y206575D02*
X2895000D01*
Y171888D01*
X2900442Y172604D01*
X2910173Y176635D01*
X2918528Y183046D01*
X2924940Y191402D01*
X2928970Y201133D01*
X2929687Y206575D01*
D02*
G37*
G36*
X2885000D02*
X2850313D01*
X2851030Y201133D01*
X2855060Y191402D01*
X2861472Y183046D01*
X2869827Y176635D01*
X2879558Y172604D01*
X2885000Y171888D01*
Y206575D01*
D02*
G37*
G36*
X1365000Y179687D02*
Y145000D01*
X1399687D01*
X1398970Y150442D01*
X1394940Y160173D01*
X1388528Y168528D01*
X1380173Y174940D01*
X1370442Y178970D01*
X1365000Y179687D01*
D02*
G37*
G36*
X1265000D02*
Y145000D01*
X1299687D01*
X1298970Y150442D01*
X1294940Y160173D01*
X1288528Y168528D01*
X1280173Y174940D01*
X1270442Y178970D01*
X1265000Y179687D01*
D02*
G37*
G36*
X1200000Y180000D02*
X1165000D01*
Y145000D01*
X1200000D01*
Y180000D01*
D02*
G37*
G36*
X1355000Y179687D02*
X1349558Y178970D01*
X1339827Y174940D01*
X1331472Y168528D01*
X1325060Y160173D01*
X1321030Y150442D01*
X1320313Y145000D01*
X1355000D01*
Y179687D01*
D02*
G37*
G36*
X1255000D02*
X1249558Y178970D01*
X1239827Y174940D01*
X1231472Y168528D01*
X1225060Y160173D01*
X1221030Y150442D01*
X1220313Y145000D01*
X1255000D01*
Y179687D01*
D02*
G37*
G36*
X1155000Y180000D02*
X1120000D01*
Y145000D01*
X1155000D01*
Y180000D01*
D02*
G37*
%LPD*%
G36*
X875000Y1910000D02*
X894706D01*
Y1900811D01*
X890222Y1898600D01*
X887651Y1900572D01*
X879137Y1904099D01*
X870000Y1905302D01*
X860863Y1904099D01*
X852349Y1900572D01*
X845038Y1894962D01*
X839428Y1887651D01*
X835901Y1879137D01*
X834698Y1870000D01*
X835901Y1860863D01*
X839428Y1852349D01*
X845038Y1845038D01*
X850833Y1840591D01*
X849136Y1835591D01*
X842913D01*
Y1815294D01*
X663504D01*
Y1835591D01*
X602165D01*
Y1764409D01*
X663504D01*
Y1784706D01*
X842913D01*
Y1764409D01*
X894706D01*
Y1723255D01*
X889971Y1721648D01*
X888528Y1723528D01*
X880173Y1729940D01*
X870442Y1733970D01*
X860000Y1735345D01*
X849558Y1733970D01*
X839827Y1729940D01*
X831472Y1723528D01*
X825060Y1715173D01*
X821029Y1705442D01*
X819655Y1695000D01*
X821029Y1684558D01*
X825060Y1674827D01*
X831472Y1666472D01*
X839827Y1660060D01*
X849558Y1656030D01*
X860000Y1654655D01*
X870442Y1656030D01*
X880173Y1660060D01*
X888528Y1666472D01*
X889971Y1668352D01*
X894706Y1666745D01*
Y1428255D01*
X889971Y1426648D01*
X888528Y1428528D01*
X880173Y1434940D01*
X870442Y1438970D01*
X860000Y1440345D01*
X849558Y1438970D01*
X839827Y1434940D01*
X831472Y1428528D01*
X825060Y1420173D01*
X821029Y1410442D01*
X819655Y1400000D01*
X821029Y1389558D01*
X825060Y1379827D01*
X831472Y1371472D01*
X839827Y1365060D01*
X849558Y1361030D01*
X855223Y1360284D01*
X857015Y1355005D01*
X829186Y1327175D01*
X825870Y1322213D01*
X824706Y1316360D01*
Y1273102D01*
X823566Y1272340D01*
X818527Y1264800D01*
X817549Y1259881D01*
X812451D01*
X811473Y1264800D01*
X806434Y1272340D01*
X805294Y1273102D01*
Y1290000D01*
X804130Y1295853D01*
X800814Y1300814D01*
X780814Y1320814D01*
X775853Y1324130D01*
X770000Y1325294D01*
X676335D01*
X643504Y1358125D01*
X646336Y1362364D01*
X649558Y1361030D01*
X660000Y1359655D01*
X670442Y1361030D01*
X680173Y1365060D01*
X688528Y1371472D01*
X694940Y1379827D01*
X698971Y1389558D01*
X700345Y1400000D01*
X698971Y1410442D01*
X694940Y1420173D01*
X688528Y1428528D01*
X680173Y1434940D01*
X670442Y1438970D01*
X660000Y1440345D01*
X649558Y1438970D01*
X639827Y1434940D01*
X631472Y1428528D01*
X625294Y1420477D01*
X624764Y1420452D01*
X620294Y1422999D01*
Y1672001D01*
X624764Y1674548D01*
X625294Y1674523D01*
X631472Y1666472D01*
X639827Y1660060D01*
X649558Y1656030D01*
X660000Y1654655D01*
X670442Y1656030D01*
X680173Y1660060D01*
X688528Y1666472D01*
X694940Y1674827D01*
X698971Y1684558D01*
X700345Y1695000D01*
X698971Y1705442D01*
X694940Y1715173D01*
X688528Y1723528D01*
X680173Y1729940D01*
X670442Y1733970D01*
X660000Y1735345D01*
X649558Y1733970D01*
X639827Y1729940D01*
X631472Y1723528D01*
X625081Y1715200D01*
X624954Y1715184D01*
X619878Y1715729D01*
X619130Y1719492D01*
X615814Y1724454D01*
X580478Y1759790D01*
X582392Y1764409D01*
X590669D01*
Y1835591D01*
X575294D01*
Y1883691D01*
X578598Y1885060D01*
X586954Y1891472D01*
X593365Y1899827D01*
X597396Y1909558D01*
X598770Y1920000D01*
X597396Y1930442D01*
X593365Y1940173D01*
X586954Y1948528D01*
X578598Y1954940D01*
X568867Y1958970D01*
X563280Y1959706D01*
X563607Y1964706D01*
X651668D01*
X651996Y1959706D01*
X646408Y1958970D01*
X636678Y1954940D01*
X628322Y1948528D01*
X621910Y1940173D01*
X617880Y1930442D01*
X617163Y1925000D01*
X656850D01*
X696537D01*
X695821Y1930442D01*
X691790Y1940173D01*
X685379Y1948528D01*
X677023Y1954940D01*
X667293Y1958970D01*
X661705Y1959706D01*
X662033Y1964706D01*
X875000D01*
Y1910000D01*
D02*
G37*
%LPC*%
G36*
X696537Y1915000D02*
X661850D01*
Y1880313D01*
X667293Y1881030D01*
X677023Y1885060D01*
X685379Y1891472D01*
X691790Y1899827D01*
X695821Y1909558D01*
X696537Y1915000D01*
D02*
G37*
G36*
X651850D02*
X617163D01*
X617880Y1909558D01*
X621910Y1899827D01*
X628322Y1891472D01*
X636678Y1885060D01*
X646408Y1881030D01*
X651850Y1880313D01*
Y1915000D01*
D02*
G37*
G36*
X760000Y1735345D02*
X749558Y1733970D01*
X739827Y1729940D01*
X731472Y1723528D01*
X725060Y1715173D01*
X721029Y1705442D01*
X719655Y1695000D01*
X721029Y1684558D01*
X725060Y1674827D01*
X731472Y1666472D01*
X739827Y1660060D01*
X749558Y1656030D01*
X760000Y1654655D01*
X770442Y1656030D01*
X780173Y1660060D01*
X788528Y1666472D01*
X794940Y1674827D01*
X798971Y1684558D01*
X800345Y1695000D01*
X798971Y1705442D01*
X794940Y1715173D01*
X788528Y1723528D01*
X780173Y1729940D01*
X770442Y1733970D01*
X760000Y1735345D01*
D02*
G37*
G36*
Y1440345D02*
X749558Y1438970D01*
X739827Y1434940D01*
X731472Y1428528D01*
X725060Y1420173D01*
X721029Y1410442D01*
X719655Y1400000D01*
X721029Y1389558D01*
X725060Y1379827D01*
X731472Y1371472D01*
X739827Y1365060D01*
X749558Y1361030D01*
X760000Y1359655D01*
X770442Y1361030D01*
X780173Y1365060D01*
X788528Y1371472D01*
X794940Y1379827D01*
X798971Y1389558D01*
X800345Y1400000D01*
X798971Y1410442D01*
X794940Y1420173D01*
X788528Y1428528D01*
X780173Y1434940D01*
X770442Y1438970D01*
X760000Y1440345D01*
D02*
G37*
%LPD*%
D10*
X486417Y1070000D02*
D03*
X413583D02*
D03*
D11*
X490000Y1066417D02*
Y1330000D01*
X2645512Y160000D02*
X2893937Y408425D01*
X1996765Y160000D02*
X2645512D01*
X1916765Y240000D02*
X1996765Y160000D01*
X1760000Y240000D02*
X1916765D01*
X2471575Y411575D02*
X2560000Y500000D01*
X2471575Y210000D02*
Y411575D01*
X2455000Y495000D02*
X2460000Y500000D01*
X2455000Y455000D02*
Y495000D01*
X2210000Y210000D02*
X2455000Y455000D01*
X2960000Y1756360D02*
Y1900000D01*
X2919427Y1940573D02*
X2960000Y1900000D01*
X2900214Y1940573D02*
X2919427D01*
X2893937Y1946850D02*
X2900214Y1940573D01*
X2887279Y1683640D02*
X2960000Y1756360D01*
X2780000Y1683640D02*
X2887279D01*
X2598425Y1848425D02*
X2890000D01*
X2468640Y1718640D02*
X2598425Y1848425D01*
X2468640Y1703640D02*
Y1718640D01*
X2460000Y1695000D02*
X2468640Y1703640D01*
X2505000Y1408640D02*
X2780000Y1683640D01*
X2505000Y1381360D02*
Y1408640D01*
X2278640Y1155000D02*
X2505000Y1381360D01*
X2105000Y1155000D02*
X2278640D01*
X1760000Y810000D02*
X2105000Y1155000D01*
X790000Y1236220D02*
Y1290000D01*
X770000Y1310000D02*
X790000Y1290000D01*
X670000Y1310000D02*
X770000D01*
X870000Y1803583D02*
X873583Y1800000D01*
X870000Y1803583D02*
Y1870000D01*
X840000Y1316360D02*
X910000Y1386360D01*
Y1945000D01*
X915000Y1950000D01*
X1000000Y1800000D02*
X1020000Y1820000D01*
X946417Y1800000D02*
X1000000D01*
X632835D02*
X873583D01*
X1020000Y1820000D02*
Y1945000D01*
X840000Y1236220D02*
Y1316360D01*
X1015000Y1950000D02*
X1020000Y1945000D01*
X560000Y1758640D02*
Y1920000D01*
X605000Y1375000D02*
X670000Y1310000D01*
X495158Y1061260D02*
X762205D01*
X490000Y1066417D02*
X495158Y1061260D01*
X762205D02*
X790000Y1033465D01*
X460000Y1920000D02*
X520000Y1980000D01*
X885000D02*
X915000Y1950000D01*
X520000Y1980000D02*
X885000D01*
X2550000Y1260000D02*
X2560000Y1270000D01*
Y1400000D01*
X2660000Y1260000D02*
Y1400000D01*
X2560000Y800000D02*
Y912165D01*
X2460000Y913583D02*
X2460000Y913582D01*
Y800000D02*
Y913582D01*
X605000Y1375000D02*
Y1713640D01*
X490000Y1330000D02*
X560000Y1400000D01*
X790000Y1013779D02*
Y1033465D01*
X1255000Y1925000D02*
X1280000Y1950000D01*
X890000Y1236220D02*
X1001614D01*
X560000Y1758640D02*
X605000Y1713640D01*
X740000Y955000D02*
X785000Y910000D01*
X740000Y955000D02*
Y1013779D01*
X760000Y800000D02*
X890000Y930000D01*
Y1013779D01*
X1760000Y800000D02*
Y810000D01*
D12*
X760000Y140000D02*
Y240000D01*
X860000Y140000D02*
Y240000D01*
X960000Y140000D02*
Y240000D01*
X860000D02*
X960000D01*
X760000D02*
X860000D01*
D14*
X470000D02*
X760000D01*
X285000Y425000D02*
X470000Y240000D01*
X285000Y425000D02*
Y1325000D01*
X360000Y1400000D01*
D15*
X2890000Y211575D02*
D03*
Y310000D02*
D03*
X2893937Y408425D02*
D03*
Y1946850D02*
D03*
X2890000Y1848425D02*
D03*
Y1750000D02*
D03*
X2658425Y1920000D02*
D03*
X2560000D02*
D03*
X2111575Y210000D02*
D03*
X2210000D02*
D03*
X560000Y800000D02*
D03*
X760000D02*
D03*
X660000D02*
D03*
X460000D02*
D03*
X360000D02*
D03*
X1060000D02*
D03*
X960000D02*
D03*
X860000D02*
D03*
X1260000D02*
D03*
X1160000D02*
D03*
X460000Y1400000D02*
D03*
X360000D02*
D03*
X660000D02*
D03*
X560000D02*
D03*
X860000D02*
D03*
X760000D02*
D03*
X1060000D02*
D03*
X960000D02*
D03*
X1260000D02*
D03*
X1160000D02*
D03*
X1760000Y800000D02*
D03*
X1960000D02*
D03*
X1860000D02*
D03*
X1460000D02*
D03*
X1360000D02*
D03*
X1660000D02*
D03*
X1560000D02*
D03*
X2160000D02*
D03*
X2060000D02*
D03*
X2360000D02*
D03*
X2260000D02*
D03*
X2660000D02*
D03*
X2460000D02*
D03*
X1760000Y1400000D02*
D03*
X1960000D02*
D03*
X1860000D02*
D03*
X1460000D02*
D03*
X1360000D02*
D03*
X1660000D02*
D03*
X1560000D02*
D03*
X2160000D02*
D03*
X2060000D02*
D03*
X2560000Y800000D02*
D03*
X2260000Y1400000D02*
D03*
X2460000D02*
D03*
X2360000D02*
D03*
X2660000D02*
D03*
X2560000D02*
D03*
X2190000Y1920000D02*
D03*
X2288425D02*
D03*
X656850D02*
D03*
X558425D02*
D03*
X460000D02*
D03*
X361575Y1923937D02*
D03*
X2570000Y210000D02*
D03*
X2471575D02*
D03*
X2560000Y1695000D02*
D03*
X2460000D02*
D03*
X2360000D02*
D03*
X2260000D02*
D03*
X1860000D02*
D03*
X1960000D02*
D03*
X2060000D02*
D03*
X2160000D02*
D03*
X1460000D02*
D03*
X1560000D02*
D03*
X1660000D02*
D03*
X1760000D02*
D03*
X1060000D02*
D03*
X1160000D02*
D03*
X1260000D02*
D03*
X1360000D02*
D03*
X660000D02*
D03*
X560000D02*
D03*
X460000D02*
D03*
X960000D02*
D03*
X860000D02*
D03*
X760000D02*
D03*
X2660000D02*
D03*
X1380000Y1950000D02*
D03*
X1480000D02*
D03*
X1015000D02*
D03*
X1115000D02*
D03*
X460000Y500000D02*
D03*
X560000D02*
D03*
X660000D02*
D03*
X760000D02*
D03*
X1160000D02*
D03*
X1060000D02*
D03*
X960000D02*
D03*
X860000D02*
D03*
X1560000D02*
D03*
X1460000D02*
D03*
X1360000D02*
D03*
X1260000D02*
D03*
X1960000D02*
D03*
X1860000D02*
D03*
X1760000D02*
D03*
X1660000D02*
D03*
X2360000D02*
D03*
X2460000D02*
D03*
X2560000D02*
D03*
X2060000D02*
D03*
X2160000D02*
D03*
X2260000D02*
D03*
X360000D02*
D03*
X1660000Y140000D02*
D03*
X1760000D02*
D03*
X1560000Y240000D02*
D03*
X1660000D02*
D03*
X1760000D02*
D03*
X860000Y140000D02*
D03*
X960000D02*
D03*
X760000Y240000D02*
D03*
X860000D02*
D03*
X960000D02*
D03*
X1260000Y140000D02*
D03*
X1360000D02*
D03*
X1160000Y240000D02*
D03*
X1260000D02*
D03*
X1360000D02*
D03*
D16*
X360000Y1695000D02*
D03*
X1280000Y1950000D02*
D03*
X915000D02*
D03*
X2660000Y500000D02*
D03*
X1560000Y140000D02*
D03*
X760000D02*
D03*
X1160000D02*
D03*
D17*
X120000Y1930000D02*
D03*
X2900000Y1105000D02*
D03*
D18*
X140000Y220000D02*
D03*
D19*
X870000Y1870000D02*
D03*
X785000Y910000D02*
D03*
D20*
X632835Y1800000D02*
D03*
X560000D02*
D03*
X873583D02*
D03*
X946417D02*
D03*
X1003583Y1230000D02*
D03*
X1076417D02*
D03*
D21*
X2560000Y1261417D02*
D03*
Y1188583D02*
D03*
X2460000Y986417D02*
D03*
Y913583D02*
D03*
X2560000Y912165D02*
D03*
Y985000D02*
D03*
X2660000Y1187165D02*
D03*
Y1260000D02*
D03*
D22*
X740000Y1236220D02*
D03*
X790000D02*
D03*
X840000D02*
D03*
X790000Y1013779D02*
D03*
X840000D02*
D03*
X740000D02*
D03*
X890000Y1236220D02*
D03*
Y1013779D02*
D03*
%TF.MD5,f696918798cad57ff34405719575aa58*%
M02*
