G04*
G04 #@! TF.GenerationSoftware,Altium Limited,Altium Designer,20.0.12 (288)*
G04*
G04 Layer_Color=16711935*
%FSLAX25Y25*%
%MOIN*%
G70*
G01*
G75*
%ADD11C,0.01000*%
%ADD13R,0.04934X0.06312*%
%ADD14C,0.06706*%
%ADD15R,0.06706X0.06706*%
%ADD16C,0.10800*%
%ADD17O,0.10800X0.10848*%
%ADD30O,0.03359X0.07296*%
%ADD31R,0.04934X0.05918*%
%ADD32R,0.06312X0.04934*%
D11*
X1000Y15748D02*
X303000D01*
X303000Y205000D02*
X303000Y15748D01*
X1000Y205000D02*
X303000D01*
X1000D02*
X1000Y15748D01*
D13*
X48642Y107000D02*
D03*
X41358D02*
D03*
D14*
X36000Y68000D02*
D03*
X226000D02*
D03*
X216000D02*
D03*
X206000D02*
D03*
X256000D02*
D03*
X246000D02*
D03*
X236000D02*
D03*
X166000D02*
D03*
X176000D02*
D03*
X186000D02*
D03*
X196000D02*
D03*
X126000D02*
D03*
X136000D02*
D03*
X146000D02*
D03*
X156000D02*
D03*
X86000D02*
D03*
X96000D02*
D03*
X106000D02*
D03*
X116000D02*
D03*
X76000D02*
D03*
X66000D02*
D03*
X56000D02*
D03*
X46000D02*
D03*
X256000Y140000D02*
D03*
X266000D02*
D03*
X236000D02*
D03*
X246000D02*
D03*
X226000D02*
D03*
Y80000D02*
D03*
X206000Y140000D02*
D03*
X216000D02*
D03*
X156000D02*
D03*
X166000D02*
D03*
X136000D02*
D03*
X146000D02*
D03*
X186000D02*
D03*
X196000D02*
D03*
X176000D02*
D03*
X256000Y80000D02*
D03*
X266000D02*
D03*
X236000D02*
D03*
X246000D02*
D03*
X206000D02*
D03*
X216000D02*
D03*
X156000D02*
D03*
X166000D02*
D03*
X136000D02*
D03*
X146000D02*
D03*
X186000D02*
D03*
X196000D02*
D03*
X176000D02*
D03*
X116000Y140000D02*
D03*
X126000D02*
D03*
X96000D02*
D03*
X106000D02*
D03*
X76000D02*
D03*
X86000D02*
D03*
X56000D02*
D03*
X66000D02*
D03*
X36000D02*
D03*
X46000D02*
D03*
X116000Y80000D02*
D03*
X126000D02*
D03*
X86000D02*
D03*
X96000D02*
D03*
X106000D02*
D03*
X36000D02*
D03*
X46000D02*
D03*
X66000D02*
D03*
X76000D02*
D03*
X56000D02*
D03*
X45669Y169291D02*
D03*
X55512D02*
D03*
X35827Y169685D02*
D03*
X65354Y169291D02*
D03*
X288583Y64567D02*
D03*
Y74410D02*
D03*
X288583Y84252D02*
D03*
X288976Y135827D02*
D03*
Y145669D02*
D03*
X288976Y155512D02*
D03*
X256000Y154000D02*
D03*
X246000D02*
D03*
X236000D02*
D03*
X226000D02*
D03*
X186000D02*
D03*
X196000D02*
D03*
X206000D02*
D03*
X216000D02*
D03*
X146000D02*
D03*
X156000D02*
D03*
X166000D02*
D03*
X176000D02*
D03*
X106000D02*
D03*
X116000D02*
D03*
X126000D02*
D03*
X136000D02*
D03*
X66000D02*
D03*
X56000D02*
D03*
X46000D02*
D03*
X96000D02*
D03*
X86000D02*
D03*
X76000D02*
D03*
X266000D02*
D03*
X212992Y169291D02*
D03*
X222835D02*
D03*
X256890Y50197D02*
D03*
X247047D02*
D03*
X126000Y46000D02*
D03*
X136000D02*
D03*
X116000Y56000D02*
D03*
X126000D02*
D03*
X136000D02*
D03*
X148189Y181496D02*
D03*
X138189D02*
D03*
X111181Y181102D02*
D03*
X101181D02*
D03*
X220965Y50787D02*
D03*
X211122D02*
D03*
X253937Y169291D02*
D03*
X263779D02*
D03*
X86000Y46000D02*
D03*
X96000D02*
D03*
X76000Y56000D02*
D03*
X86000D02*
D03*
X96000D02*
D03*
X166000Y46000D02*
D03*
X176000D02*
D03*
X156000Y56000D02*
D03*
X166000D02*
D03*
X176000D02*
D03*
D15*
X266000Y68000D02*
D03*
X36000Y154000D02*
D03*
X116000Y46000D02*
D03*
X128189Y181496D02*
D03*
X91181Y181102D02*
D03*
X76000Y46000D02*
D03*
X156000D02*
D03*
D16*
X12000Y193000D02*
D03*
X290000Y110500D02*
D03*
D17*
X15748Y27559D02*
D03*
D30*
X74000Y123622D02*
D03*
X79000D02*
D03*
X84000D02*
D03*
X89000D02*
D03*
X74000Y101378D02*
D03*
X79000D02*
D03*
X84000D02*
D03*
X89000D02*
D03*
D31*
X100358Y123000D02*
D03*
X107642D02*
D03*
X68602Y161417D02*
D03*
X61319D02*
D03*
X94685Y169291D02*
D03*
X87402D02*
D03*
D32*
X266000Y126000D02*
D03*
Y118717D02*
D03*
X246000Y91358D02*
D03*
Y98642D02*
D03*
X256000Y118858D02*
D03*
Y126142D02*
D03*
Y98500D02*
D03*
Y91216D02*
D03*
M02*
