G04*
G04 #@! TF.GenerationSoftware,Altium Limited,Altium Designer,19.1.8 (144)*
G04*
G04 Layer_Color=32896*
%FSLAX25Y25*%
%MOIN*%
G70*
G01*
G75*
%ADD10C,0.00787*%
%ADD11C,0.01000*%
%ADD33C,0.02362*%
%ADD34C,0.00984*%
D10*
X71658Y106201D02*
Y118799D01*
Y106201D02*
X91343D01*
X71658Y118799D02*
X91343D01*
Y106201D02*
Y118799D01*
D11*
X221001Y39998D02*
X222001Y40998D01*
X224000D01*
X225000Y39998D01*
Y38999D01*
X224000Y37999D01*
X222001D01*
X221001Y36999D01*
Y36000D01*
X222001Y35000D01*
X224000D01*
X225000Y36000D01*
X218002Y39998D02*
Y38999D01*
X219002D01*
X217003D01*
X218002D01*
Y36000D01*
X217003Y35000D01*
X211004D02*
X213004D01*
X214004Y36000D01*
Y37999D01*
X213004Y38999D01*
X211004D01*
X210005Y37999D01*
Y36999D01*
X214004D01*
X205007Y35000D02*
X207006D01*
X208005Y36000D01*
Y37999D01*
X207006Y38999D01*
X205007D01*
X204007Y37999D01*
Y36999D01*
X208005D01*
X202007Y38999D02*
Y35000D01*
Y36999D01*
X201008Y37999D01*
X200008Y38999D01*
X199008D01*
X196009Y35000D02*
X194010D01*
X195010D01*
Y38999D01*
X196009D01*
X191011Y35000D02*
Y38999D01*
X188012D01*
X187012Y37999D01*
Y35000D01*
X183014Y33001D02*
X182014D01*
X181014Y34000D01*
Y38999D01*
X184013D01*
X185013Y37999D01*
Y36000D01*
X184013Y35000D01*
X181014D01*
X173017Y40998D02*
Y35000D01*
X171018Y36999D01*
X169018Y35000D01*
Y40998D01*
X167019D02*
Y35000D01*
Y37999D01*
X166019Y38999D01*
X164020D01*
X163020Y37999D01*
Y35000D01*
X158022D02*
X160021D01*
X161021Y36000D01*
Y37999D01*
X160021Y38999D01*
X158022D01*
X157022Y37999D01*
Y36999D01*
X161021D01*
X152024Y35000D02*
X154023D01*
X155023Y36000D01*
Y37999D01*
X154023Y38999D01*
X152024D01*
X151024Y37999D01*
Y36999D01*
X155023D01*
X149025Y35000D02*
X147025D01*
X148025D01*
Y40998D01*
X149025D01*
X134029Y35000D02*
X138028D01*
X134029Y38999D01*
Y39998D01*
X135029Y40998D01*
X137029D01*
X138028Y39998D01*
X132030D02*
X131030Y40998D01*
X129031D01*
X128031Y39998D01*
Y36000D01*
X129031Y35000D01*
X131030D01*
X132030Y36000D01*
Y39998D01*
X122033Y35000D02*
X126032D01*
X122033Y38999D01*
Y39998D01*
X123033Y40998D01*
X125032D01*
X126032Y39998D01*
X120034D02*
X119034Y40998D01*
X117035D01*
X116035Y39998D01*
Y36000D01*
X117035Y35000D01*
X119034D01*
X120034Y36000D01*
Y39998D01*
X108038Y38999D02*
X106038Y35000D01*
X104039Y38999D01*
X102040Y39998D02*
X101040Y40998D01*
X99041D01*
X98041Y39998D01*
Y36000D01*
X99041Y35000D01*
X101040D01*
X102040Y36000D01*
Y39998D01*
X96042Y35000D02*
Y36000D01*
X95042D01*
Y35000D01*
X96042D01*
X91043D02*
X89044D01*
X90044D01*
Y40998D01*
X91043Y39998D01*
X272502Y123501D02*
X271502Y124501D01*
Y126500D01*
X272502Y127500D01*
X276500D01*
X277500Y126500D01*
Y124501D01*
X276500Y123501D01*
X271502Y117503D02*
Y121502D01*
X274501D01*
X273501Y119503D01*
Y118503D01*
X274501Y117503D01*
X276500D01*
X277500Y118503D01*
Y120502D01*
X276500Y121502D01*
X235002Y94501D02*
X234002Y95501D01*
Y97500D01*
X235002Y98500D01*
X239000D01*
X240000Y97500D01*
Y95501D01*
X239000Y94501D01*
X235002Y92502D02*
X234002Y91502D01*
Y89503D01*
X235002Y88503D01*
X236001D01*
X237001Y89503D01*
Y90503D01*
Y89503D01*
X238001Y88503D01*
X239000D01*
X240000Y89503D01*
Y91502D01*
X239000Y92502D01*
X245502Y123143D02*
X244502Y124143D01*
Y126142D01*
X245502Y127142D01*
X249500D01*
X250500Y126142D01*
Y124143D01*
X249500Y123143D01*
X250500Y117145D02*
Y121144D01*
X246501Y117145D01*
X245502D01*
X244502Y118145D01*
Y120144D01*
X245502Y121144D01*
X263502Y94501D02*
X262502Y95501D01*
Y97500D01*
X263502Y98500D01*
X267500D01*
X268500Y97500D01*
Y95501D01*
X267500Y94501D01*
X268500Y92502D02*
Y90503D01*
Y91502D01*
X262502D01*
X263502Y92502D01*
X69000Y128998D02*
Y124000D01*
X68000Y123000D01*
X66001D01*
X65001Y124000D01*
Y128998D01*
X63002Y123000D02*
X61003D01*
X62002D01*
Y128998D01*
X63002Y127998D01*
X121858Y119500D02*
Y125498D01*
X118859D01*
X117860Y124498D01*
Y122499D01*
X118859Y121499D01*
X121858D01*
X119859D02*
X117860Y119500D01*
X111862Y125498D02*
X113861Y124498D01*
X115860Y122499D01*
Y120500D01*
X114860Y119500D01*
X112861D01*
X111862Y120500D01*
Y121499D01*
X112861Y122499D01*
X115860D01*
X77500Y177500D02*
Y183498D01*
X74501D01*
X73501Y182498D01*
Y180499D01*
X74501Y179499D01*
X77500D01*
X75501D02*
X73501Y177500D01*
X67503Y183498D02*
X71502D01*
Y180499D01*
X69503Y181499D01*
X68503D01*
X67503Y180499D01*
Y178500D01*
X68503Y177500D01*
X70502D01*
X71502Y178500D01*
X112000Y178000D02*
Y183998D01*
X109001D01*
X108001Y182998D01*
Y180999D01*
X109001Y179999D01*
X112000D01*
X110001D02*
X108001Y178000D01*
X103003D02*
Y183998D01*
X106002Y180999D01*
X102003D01*
X44140Y113002D02*
X43141Y112002D01*
X41141D01*
X40142Y113002D01*
Y117000D01*
X41141Y118000D01*
X43141D01*
X44140Y117000D01*
X49139Y118000D02*
Y112002D01*
X46140Y115001D01*
X50138D01*
X1000Y9000D02*
X303000D01*
X303000Y205000D02*
X303000Y9000D01*
X1000Y205000D02*
X303000D01*
X1000D02*
X1000Y9000D01*
D33*
X88587Y110138D02*
G03*
X88587Y110138I-1181J0D01*
G01*
D34*
X92937Y101378D02*
G03*
X92937Y101378I-492J0D01*
G01*
M02*
