G04*
G04 #@! TF.GenerationSoftware,Altium Limited,Altium Designer,20.0.12 (288)*
G04*
G04 Layer_Color=32768*
%FSLAX25Y25*%
%MOIN*%
G70*
G01*
G75*
%ADD11C,0.01000*%
%ADD35C,0.00394*%
%ADD36C,0.00197*%
D11*
X1000Y15748D02*
X303000D01*
X303000Y205000D02*
X303000Y15748D01*
X1000Y205000D02*
X303000D01*
X1000D02*
X1000Y15748D01*
D35*
X79532Y112500D02*
X83469D01*
X81500Y110531D02*
Y114469D01*
X104000Y121031D02*
Y124969D01*
X102032Y123000D02*
X105968D01*
X64961Y159449D02*
Y163386D01*
X62992Y161417D02*
X66929D01*
X91043Y167323D02*
Y171260D01*
X89075Y169291D02*
X93012D01*
X139764Y168898D02*
X143701D01*
X141732Y166929D02*
Y170866D01*
X266000Y120390D02*
Y124327D01*
X264032Y122358D02*
X267969D01*
X43031Y107000D02*
X46968D01*
X45000Y105032D02*
Y108968D01*
X246000Y93032D02*
Y96969D01*
X244032Y95000D02*
X247969D01*
X256000Y120531D02*
Y124469D01*
X254031Y122500D02*
X257968D01*
X256000Y92890D02*
Y96827D01*
X254031Y94858D02*
X257968D01*
D36*
X69689Y96161D02*
Y128839D01*
X93311Y96161D02*
Y128839D01*
X69689D02*
X93311D01*
X69689Y96161D02*
X93311D01*
X97307Y119457D02*
X110693D01*
X97307Y126543D02*
X110693D01*
X97307Y119457D02*
Y126543D01*
X110693Y119457D02*
Y126543D01*
X58268Y164961D02*
X71653D01*
X58268Y157874D02*
X71653D01*
Y164961D01*
X58268Y157874D02*
Y164961D01*
X84350Y172835D02*
X97736D01*
X84350Y165748D02*
X97736D01*
Y172835D01*
X84350Y165748D02*
Y172835D01*
X135039Y165157D02*
Y172638D01*
X148425Y165157D02*
Y172638D01*
X135039D02*
X148425D01*
X135039Y165157D02*
X148425D01*
X262260Y129051D02*
X269740D01*
X262260Y115665D02*
X269740D01*
X262260D02*
Y129051D01*
X269740Y115665D02*
Y129051D01*
X51693Y103260D02*
Y110740D01*
X38307Y103260D02*
Y110740D01*
X51693D01*
X38307Y103260D02*
X51693D01*
X242260Y88307D02*
X249740D01*
X242260Y101693D02*
X249740D01*
Y88307D02*
Y101693D01*
X242260Y88307D02*
Y101693D01*
X252260Y115807D02*
X259740D01*
X252260Y129193D02*
X259740D01*
Y115807D02*
Y129193D01*
X252260Y115807D02*
Y129193D01*
X252260Y101551D02*
X259740D01*
X252260Y88165D02*
X259740D01*
X252260D02*
Y101551D01*
X259740Y88165D02*
Y101551D01*
M02*
