G04*
G04 #@! TF.GenerationSoftware,Altium Limited,Altium Designer,19.1.8 (144)*
G04*
G04 Layer_Color=32768*
%FSLAX25Y25*%
%MOIN*%
G70*
G01*
G75*
%ADD11C,0.01000*%
D11*
X279748Y50488D02*
X302189D01*
X302386Y50291D01*
Y11709D02*
Y50291D01*
X279748Y11709D02*
X302386D01*
X279748D02*
Y50488D01*
Y165551D02*
Y204331D01*
Y165551D02*
X302386D01*
Y204134D01*
X302189Y204331D02*
X302386Y204134D01*
X279748Y204331D02*
X302189D01*
X245843Y183000D02*
Y205000D01*
Y205386D02*
X275488D01*
Y182748D02*
Y205386D01*
X245843Y182748D02*
X275488D01*
X231157Y8000D02*
Y30000D01*
X201512Y7614D02*
X231157D01*
X201512D02*
Y30252D01*
X231157D01*
X208842Y182748D02*
X238488D01*
Y205386D01*
X208842D02*
X238488D01*
X208842Y183000D02*
Y205000D01*
X26512Y182748D02*
Y205189D01*
X26709Y205386D01*
X75134D01*
Y182748D02*
Y205386D01*
X26512Y182748D02*
X75134D01*
X26512D02*
Y192394D01*
X237512Y30252D02*
X267158D01*
X237512Y7614D02*
Y30252D01*
Y7614D02*
X267158D01*
Y8000D02*
Y30000D01*
X153000Y190000D02*
Y200000D01*
X122999D02*
X153000D01*
X122999Y190000D02*
Y200000D01*
Y190000D02*
X153000D01*
X116500D02*
Y200000D01*
X86499D02*
X116500D01*
X86499Y190000D02*
Y200000D01*
Y190000D02*
X116500D01*
X181000Y9000D02*
Y19000D01*
X150999Y9000D02*
Y19000D01*
Y9000D02*
X181000D01*
Y19000D02*
Y29000D01*
X150999D02*
X181000D01*
X150999Y19000D02*
Y29000D01*
X101000Y9000D02*
Y19000D01*
X70999Y9000D02*
Y19000D01*
Y9000D02*
X101000D01*
Y19000D02*
Y29000D01*
X70999D02*
X101000D01*
X70999Y19000D02*
Y29000D01*
X141000Y9000D02*
Y19000D01*
X110999Y9000D02*
Y19000D01*
Y9000D02*
X141000D01*
Y19000D02*
Y29000D01*
X110999D02*
X141000D01*
X110999Y19000D02*
Y29000D01*
X1000Y9000D02*
X303000D01*
X303000Y205000D02*
X303000Y9000D01*
X1000Y205000D02*
X303000D01*
X1000D02*
X1000Y9000D01*
M02*
