%TF.GenerationSoftware,Altium Limited,Altium Designer,19.1.8 (144)*%
G04 Layer_Color=32768*
%FSLAX26Y26*%
%MOIN*%
%TF.FileFunction,Other,Mechanical_3*%
%TF.Part,Single*%
G01*
G75*
%TA.AperFunction,NonConductor*%
%ADD26C,0.010000*%
D26*
X2797480Y504882D02*
X3021890D01*
X3023858Y502913D01*
Y117087D02*
Y502913D01*
X2797480Y117087D02*
X3023858D01*
X2797480D02*
Y504882D01*
Y1655512D02*
Y2043307D01*
Y1655512D02*
X3023858D01*
Y2041339D01*
X3021890Y2043307D02*
X3023858Y2041339D01*
X2797480Y2043307D02*
X3021890D01*
X2458425Y1830000D02*
Y2050000D01*
Y2053858D02*
X2754882D01*
Y1827480D02*
Y2053858D01*
X2458425Y1827480D02*
X2754882D01*
X2311575Y80000D02*
Y300000D01*
X2015118Y76142D02*
X2311575D01*
X2015118D02*
Y302520D01*
X2311575D01*
X2088425Y1827480D02*
X2384882D01*
Y2053858D01*
X2088425D02*
X2384882D01*
X2088425Y1830000D02*
Y2050000D01*
X265118Y1827480D02*
Y2051890D01*
X267087Y2053858D01*
X751339D01*
Y1827480D02*
Y2053858D01*
X265118Y1827480D02*
X751339D01*
X265118D02*
Y1923937D01*
X2375118Y302520D02*
X2671575D01*
X2375118Y76142D02*
Y302520D01*
Y76142D02*
X2671575D01*
Y80000D02*
Y300000D01*
X1530000Y1900000D02*
Y2000000D01*
X1229994D02*
X1530000D01*
X1229994Y1900000D02*
Y2000000D01*
Y1900000D02*
X1530000D01*
X1165000D02*
Y2000000D01*
X864994D02*
X1165000D01*
X864994Y1900000D02*
Y2000000D01*
Y1900000D02*
X1165000D01*
X1810000Y90000D02*
Y190000D01*
X1509994Y90000D02*
Y190000D01*
Y90000D02*
X1810000D01*
Y190000D02*
Y290000D01*
X1509994D02*
X1810000D01*
X1509994Y190000D02*
Y290000D01*
X1010000Y90000D02*
Y190000D01*
X709994Y90000D02*
Y190000D01*
Y90000D02*
X1010000D01*
Y190000D02*
Y290000D01*
X709994D02*
X1010000D01*
X709994Y190000D02*
Y290000D01*
X1410000Y90000D02*
Y190000D01*
X1109994Y90000D02*
Y190000D01*
Y90000D02*
X1410000D01*
Y190000D02*
Y290000D01*
X1109994D02*
X1410000D01*
X1109994Y190000D02*
Y290000D01*
%TF.MD5,0000ef2c2a3e9149f3241ececd0576dd*%
M02*
