G04*
G04 #@! TF.GenerationSoftware,Altium Limited,Altium Designer,20.0.12 (288)*
G04*
G04 Layer_Color=65535*
%FSLAX25Y25*%
%MOIN*%
G70*
G01*
G75*
%ADD10C,0.00787*%
%ADD11C,0.01000*%
G36*
X36131Y59511D02*
X37885D01*
Y59219D01*
X39638D01*
Y58926D01*
X41392D01*
Y58634D01*
X43146D01*
Y58342D01*
X44899D01*
Y58049D01*
X43146D01*
Y57757D01*
X41392D01*
Y57465D01*
X39638D01*
Y57173D01*
X37885D01*
Y56880D01*
X36131D01*
Y56588D01*
X35546D01*
Y56880D01*
X33793D01*
Y57173D01*
X32039D01*
Y57465D01*
X30286D01*
Y57757D01*
X28532D01*
Y58049D01*
X26778D01*
Y58342D01*
X28532D01*
Y58634D01*
X30286D01*
Y58926D01*
X32039D01*
Y59219D01*
X33793D01*
Y59511D01*
X35546D01*
Y59803D01*
X36131D01*
Y59511D01*
D02*
G37*
G36*
X52206Y52789D02*
X51914D01*
Y52496D01*
X51621D01*
Y52204D01*
X51329D01*
Y51912D01*
X51037D01*
Y51619D01*
X50745D01*
Y51327D01*
Y51035D01*
X50452D01*
Y50743D01*
X50160D01*
Y50450D01*
X49868D01*
Y50158D01*
X49575D01*
Y49866D01*
X49283D01*
Y49574D01*
Y49281D01*
X48991D01*
Y48989D01*
X48699D01*
Y48697D01*
X48406D01*
Y48404D01*
X48114D01*
Y48112D01*
X47822D01*
Y47820D01*
Y47528D01*
X47530D01*
Y47235D01*
X47237D01*
Y46943D01*
X46945D01*
Y46651D01*
X46653D01*
Y46359D01*
X46361D01*
Y46066D01*
Y45774D01*
X46068D01*
Y45482D01*
X45776D01*
Y45189D01*
X45484D01*
Y44897D01*
Y44605D01*
Y44313D01*
X45191D01*
Y44020D01*
Y43728D01*
X44899D01*
Y43436D01*
Y43144D01*
Y42851D01*
X44607D01*
Y42559D01*
Y42267D01*
X44315D01*
Y41974D01*
Y41682D01*
Y41390D01*
X44022D01*
Y41098D01*
Y40806D01*
X43730D01*
Y40513D01*
Y40221D01*
Y39929D01*
X43438D01*
Y39636D01*
Y39344D01*
X43146D01*
Y39052D01*
Y38760D01*
Y38467D01*
X42853D01*
Y38175D01*
Y37883D01*
X42561D01*
Y37591D01*
Y37298D01*
Y37006D01*
X42269D01*
Y36714D01*
Y36421D01*
X41976D01*
Y36129D01*
Y35837D01*
Y35545D01*
X41684D01*
Y35252D01*
Y34960D01*
X41392D01*
Y34668D01*
Y34376D01*
Y34083D01*
X41100D01*
Y33791D01*
Y33499D01*
X40807D01*
Y33206D01*
Y32914D01*
Y32622D01*
X40515D01*
Y32914D01*
Y33206D01*
Y33499D01*
Y33791D01*
Y34083D01*
Y34376D01*
X40807D01*
Y34668D01*
Y34960D01*
Y35252D01*
Y35545D01*
Y35837D01*
Y36129D01*
X41100D01*
Y36421D01*
Y36714D01*
Y37006D01*
Y37298D01*
Y37591D01*
Y37883D01*
X41392D01*
Y38175D01*
Y38467D01*
Y38760D01*
Y39052D01*
Y39344D01*
X41684D01*
Y39636D01*
Y39929D01*
Y40221D01*
Y40513D01*
Y40806D01*
Y41098D01*
X41976D01*
Y41390D01*
Y41682D01*
Y41974D01*
Y42267D01*
Y42559D01*
Y42851D01*
X42269D01*
Y43144D01*
Y43436D01*
Y43728D01*
Y44020D01*
Y44313D01*
Y44605D01*
X42561D01*
Y44897D01*
Y45189D01*
Y45482D01*
Y45774D01*
Y46066D01*
Y46359D01*
X42853D01*
Y46651D01*
Y46943D01*
Y47235D01*
Y47528D01*
X43438D01*
Y47820D01*
X43730D01*
Y48112D01*
X44315D01*
Y48404D01*
X44607D01*
Y48697D01*
X45191D01*
Y48989D01*
X45484D01*
Y49281D01*
X46068D01*
Y49574D01*
X46653D01*
Y49866D01*
X46945D01*
Y50158D01*
X47530D01*
Y50450D01*
X47822D01*
Y50743D01*
X48406D01*
Y51035D01*
X48699D01*
Y51327D01*
X49283D01*
Y51619D01*
X49868D01*
Y51912D01*
X50160D01*
Y52204D01*
X50745D01*
Y52496D01*
X51037D01*
Y52789D01*
X51621D01*
Y53081D01*
X52206D01*
Y52789D01*
D02*
G37*
G36*
X20056D02*
X20641D01*
Y52496D01*
X20933D01*
Y52204D01*
X21518D01*
Y51912D01*
X21810D01*
Y51619D01*
X22394D01*
Y51327D01*
X22687D01*
Y51035D01*
X23271D01*
Y50743D01*
X23856D01*
Y50450D01*
X24148D01*
Y50158D01*
X24733D01*
Y49866D01*
X25025D01*
Y49574D01*
X25609D01*
Y49281D01*
X25901D01*
Y48989D01*
X26486D01*
Y48697D01*
X27071D01*
Y48404D01*
X27363D01*
Y48112D01*
X27947D01*
Y47820D01*
X28240D01*
Y47528D01*
X28824D01*
Y47235D01*
Y46943D01*
Y46651D01*
Y46359D01*
X29116D01*
Y46066D01*
Y45774D01*
Y45482D01*
Y45189D01*
Y44897D01*
Y44605D01*
X29409D01*
Y44313D01*
Y44020D01*
Y43728D01*
Y43436D01*
Y43144D01*
Y42851D01*
X29701D01*
Y42559D01*
Y42267D01*
Y41974D01*
Y41682D01*
Y41390D01*
Y41098D01*
X29993D01*
Y40806D01*
Y40513D01*
Y40221D01*
Y39929D01*
Y39636D01*
Y39344D01*
X30286D01*
Y39052D01*
Y38760D01*
Y38467D01*
Y38175D01*
Y37883D01*
Y37591D01*
X30578D01*
Y37298D01*
Y37006D01*
Y36714D01*
Y36421D01*
Y36129D01*
Y35837D01*
X30870D01*
Y35545D01*
Y35252D01*
Y34960D01*
Y34668D01*
Y34376D01*
Y34083D01*
X31162D01*
Y33791D01*
Y33499D01*
Y33206D01*
Y32914D01*
Y32622D01*
X30870D01*
Y32914D01*
Y33206D01*
X30578D01*
Y33499D01*
Y33791D01*
Y34083D01*
X30286D01*
Y34376D01*
Y34668D01*
X29993D01*
Y34960D01*
Y35252D01*
Y35545D01*
X29701D01*
Y35837D01*
Y36129D01*
X29409D01*
Y36421D01*
Y36714D01*
Y37006D01*
X29116D01*
Y37298D01*
Y37591D01*
X28824D01*
Y37883D01*
Y38175D01*
Y38467D01*
X28532D01*
Y38760D01*
Y39052D01*
X28240D01*
Y39344D01*
Y39636D01*
Y39929D01*
X27947D01*
Y40221D01*
Y40513D01*
X27655D01*
Y40806D01*
Y41098D01*
Y41390D01*
X27363D01*
Y41682D01*
Y41974D01*
X27071D01*
Y42267D01*
Y42559D01*
Y42851D01*
X26778D01*
Y43144D01*
Y43436D01*
X26486D01*
Y43728D01*
Y44020D01*
Y44313D01*
X26194D01*
Y44605D01*
Y44897D01*
X25901D01*
Y45189D01*
Y45482D01*
X25609D01*
Y45774D01*
X25317D01*
Y46066D01*
Y46359D01*
X25025D01*
Y46651D01*
X24733D01*
Y46943D01*
X24440D01*
Y47235D01*
X24148D01*
Y47528D01*
X23856D01*
Y47820D01*
Y48112D01*
X23563D01*
Y48404D01*
X23271D01*
Y48697D01*
X22979D01*
Y48989D01*
X22687D01*
Y49281D01*
X22394D01*
Y49574D01*
Y49866D01*
X22102D01*
Y50158D01*
X21810D01*
Y50450D01*
X21518D01*
Y50743D01*
X21225D01*
Y51035D01*
X20933D01*
Y51327D01*
Y51619D01*
X20641D01*
Y51912D01*
X20348D01*
Y52204D01*
X20056D01*
Y52496D01*
X19764D01*
Y52789D01*
X19472D01*
Y53081D01*
X20056D01*
Y52789D01*
D02*
G37*
G36*
X51329Y56296D02*
X50745D01*
Y56004D01*
X50452D01*
Y55711D01*
X49868D01*
Y55419D01*
X49575D01*
Y55127D01*
X48991D01*
Y54835D01*
X48699D01*
Y54542D01*
X48114D01*
Y54250D01*
X47822D01*
Y53958D01*
X47237D01*
Y53665D01*
X46945D01*
Y53373D01*
X46361D01*
Y53081D01*
X45776D01*
Y52789D01*
X45484D01*
Y52496D01*
X44899D01*
Y52204D01*
X44607D01*
Y51912D01*
X44022D01*
Y51619D01*
X43730D01*
Y51327D01*
X43146D01*
Y51035D01*
X42853D01*
Y50743D01*
X42269D01*
Y50450D01*
X41976D01*
Y50158D01*
X41392D01*
Y49866D01*
X41100D01*
Y49574D01*
X40515D01*
Y49281D01*
Y48989D01*
Y48697D01*
X40223D01*
Y48404D01*
Y48112D01*
Y47820D01*
Y47528D01*
Y47235D01*
Y46943D01*
X39931D01*
Y46651D01*
Y46359D01*
Y46066D01*
Y45774D01*
Y45482D01*
Y45189D01*
Y44897D01*
X39638D01*
Y44605D01*
Y44313D01*
Y44020D01*
Y43728D01*
Y43436D01*
Y43144D01*
X39346D01*
Y42851D01*
Y42559D01*
Y42267D01*
Y41974D01*
Y41682D01*
Y41390D01*
X39054D01*
Y41098D01*
Y40806D01*
Y40513D01*
Y40221D01*
Y39929D01*
Y39636D01*
Y39344D01*
X38761D01*
Y39052D01*
Y38760D01*
Y38467D01*
Y38175D01*
Y37883D01*
Y37591D01*
X38469D01*
Y37298D01*
Y37006D01*
Y36714D01*
Y36421D01*
Y36129D01*
Y35837D01*
Y35545D01*
X38177D01*
Y35252D01*
Y34960D01*
Y34668D01*
Y34376D01*
Y34083D01*
Y33791D01*
X37885D01*
Y33499D01*
Y33206D01*
Y32914D01*
Y32622D01*
Y32330D01*
Y32037D01*
X37592D01*
Y31745D01*
Y31453D01*
Y31161D01*
Y30868D01*
Y30576D01*
Y30284D01*
Y29991D01*
X37300D01*
Y29699D01*
Y29407D01*
Y29115D01*
Y28822D01*
Y28530D01*
Y28238D01*
X37008D01*
Y28530D01*
Y28822D01*
Y29115D01*
Y29407D01*
Y29699D01*
Y29991D01*
Y30284D01*
Y30576D01*
Y30868D01*
Y31161D01*
Y31453D01*
Y31745D01*
Y32037D01*
Y32330D01*
Y32622D01*
Y32914D01*
Y33206D01*
Y33499D01*
Y33791D01*
Y34083D01*
Y34376D01*
Y34668D01*
Y34960D01*
Y35252D01*
Y35545D01*
Y35837D01*
Y36129D01*
Y36421D01*
Y36714D01*
Y37006D01*
Y37298D01*
Y37591D01*
Y37883D01*
Y38175D01*
Y38467D01*
Y38760D01*
Y39052D01*
Y39344D01*
Y39636D01*
Y39929D01*
Y40221D01*
Y40513D01*
Y40806D01*
Y41098D01*
Y41390D01*
Y41682D01*
Y41974D01*
Y42267D01*
Y42559D01*
Y42851D01*
Y43144D01*
Y43436D01*
Y43728D01*
Y44020D01*
Y44313D01*
Y44605D01*
Y44897D01*
Y45189D01*
Y45482D01*
Y45774D01*
Y46066D01*
Y46359D01*
Y46651D01*
Y46943D01*
Y47235D01*
Y47528D01*
Y47820D01*
Y48112D01*
Y48404D01*
Y48697D01*
Y48989D01*
Y49281D01*
Y49574D01*
Y49866D01*
Y50158D01*
Y50450D01*
Y50743D01*
Y51035D01*
Y51327D01*
Y51619D01*
Y51912D01*
Y52204D01*
Y52496D01*
Y52789D01*
Y53081D01*
Y53373D01*
Y53665D01*
Y53958D01*
Y54250D01*
X37300D01*
Y54542D01*
X39054D01*
Y54835D01*
X40807D01*
Y55127D01*
X42561D01*
Y55419D01*
X44315D01*
Y55711D01*
X46068D01*
Y56004D01*
X48114D01*
Y56296D01*
X49868D01*
Y56588D01*
X51329D01*
Y56296D01*
D02*
G37*
G36*
X21810D02*
X23563D01*
Y56004D01*
X25317D01*
Y55711D01*
X27363D01*
Y55419D01*
X29116D01*
Y55127D01*
X30870D01*
Y54835D01*
X32624D01*
Y54542D01*
X34377D01*
Y54250D01*
X34670D01*
Y53958D01*
Y53665D01*
Y53373D01*
Y53081D01*
Y52789D01*
Y52496D01*
Y52204D01*
Y51912D01*
Y51619D01*
Y51327D01*
Y51035D01*
Y50743D01*
Y50450D01*
Y50158D01*
Y49866D01*
Y49574D01*
Y49281D01*
Y48989D01*
Y48697D01*
Y48404D01*
Y48112D01*
Y47820D01*
Y47528D01*
Y47235D01*
Y46943D01*
Y46651D01*
Y46359D01*
Y46066D01*
Y45774D01*
Y45482D01*
Y45189D01*
Y44897D01*
Y44605D01*
Y44313D01*
Y44020D01*
Y43728D01*
Y43436D01*
Y43144D01*
Y42851D01*
Y42559D01*
Y42267D01*
Y41974D01*
Y41682D01*
Y41390D01*
Y41098D01*
Y40806D01*
Y40513D01*
Y40221D01*
Y39929D01*
Y39636D01*
Y39344D01*
Y39052D01*
Y38760D01*
Y38467D01*
Y38175D01*
Y37883D01*
Y37591D01*
Y37298D01*
Y37006D01*
Y36714D01*
Y36421D01*
Y36129D01*
Y35837D01*
Y35545D01*
Y35252D01*
Y34960D01*
Y34668D01*
Y34376D01*
Y34083D01*
Y33791D01*
Y33499D01*
Y33206D01*
Y32914D01*
Y32622D01*
Y32330D01*
Y32037D01*
Y31745D01*
Y31453D01*
Y31161D01*
Y30868D01*
Y30576D01*
Y30284D01*
Y29991D01*
Y29699D01*
Y29407D01*
Y29115D01*
Y28822D01*
Y28530D01*
Y28238D01*
Y27946D01*
X34377D01*
Y28238D01*
Y28530D01*
Y28822D01*
Y29115D01*
Y29407D01*
Y29699D01*
Y29991D01*
X34085D01*
Y30284D01*
Y30576D01*
Y30868D01*
Y31161D01*
Y31453D01*
Y31745D01*
X33793D01*
Y32037D01*
Y32330D01*
Y32622D01*
Y32914D01*
Y33206D01*
Y33499D01*
Y33791D01*
X33501D01*
Y34083D01*
Y34376D01*
Y34668D01*
Y34960D01*
Y35252D01*
Y35545D01*
X33208D01*
Y35837D01*
Y36129D01*
Y36421D01*
Y36714D01*
Y37006D01*
Y37298D01*
X32916D01*
Y37591D01*
Y37883D01*
Y38175D01*
Y38467D01*
Y38760D01*
Y39052D01*
Y39344D01*
X32624D01*
Y39636D01*
Y39929D01*
Y40221D01*
Y40513D01*
Y40806D01*
Y41098D01*
X32331D01*
Y41390D01*
Y41682D01*
Y41974D01*
Y42267D01*
Y42559D01*
Y42851D01*
Y43144D01*
X32039D01*
Y43436D01*
Y43728D01*
Y44020D01*
Y44313D01*
Y44605D01*
Y44897D01*
X31747D01*
Y45189D01*
Y45482D01*
Y45774D01*
Y46066D01*
Y46359D01*
Y46651D01*
X31455D01*
Y46943D01*
Y47235D01*
Y47528D01*
Y47820D01*
Y48112D01*
Y48404D01*
Y48697D01*
X31162D01*
Y48989D01*
Y49281D01*
Y49574D01*
X30578D01*
Y49866D01*
X30286D01*
Y50158D01*
X29701D01*
Y50450D01*
X29409D01*
Y50743D01*
X28824D01*
Y51035D01*
X28532D01*
Y51327D01*
X27947D01*
Y51619D01*
X27655D01*
Y51912D01*
X27071D01*
Y52204D01*
X26486D01*
Y52496D01*
X26194D01*
Y52789D01*
X25609D01*
Y53081D01*
X25317D01*
Y53373D01*
X24733D01*
Y53665D01*
X24440D01*
Y53958D01*
X23856D01*
Y54250D01*
X23563D01*
Y54542D01*
X22979D01*
Y54835D01*
X22687D01*
Y55127D01*
X22102D01*
Y55419D01*
X21810D01*
Y55711D01*
X21225D01*
Y56004D01*
X20933D01*
Y56296D01*
X20348D01*
Y56588D01*
X21810D01*
Y56296D01*
D02*
G37*
D10*
X271000Y75000D02*
Y145000D01*
X31000D02*
X271000D01*
X31000Y115000D02*
X36000D01*
Y105000D02*
Y115000D01*
X31000Y105000D02*
X36000D01*
X31000Y75000D02*
X271000D01*
X31000D02*
Y145000D01*
D11*
X10502Y90999D02*
X9502Y89999D01*
Y88000D01*
X10502Y87000D01*
X11501D01*
X12501Y88000D01*
Y89999D01*
X13501Y90999D01*
X14500D01*
X15500Y89999D01*
Y88000D01*
X14500Y87000D01*
X9502Y96997D02*
Y92998D01*
X15500D01*
Y96997D01*
X12501Y92998D02*
Y94997D01*
X15500Y98996D02*
X9502D01*
X11501Y100996D01*
X9502Y102995D01*
X15500D01*
Y114991D02*
Y110992D01*
X11501Y114991D01*
X10502D01*
X9502Y113991D01*
Y111992D01*
X10502Y110992D01*
Y116990D02*
X9502Y117990D01*
Y119989D01*
X10502Y120989D01*
X14500D01*
X15500Y119989D01*
Y117990D01*
X14500Y116990D01*
X10502D01*
X15500Y126987D02*
Y122988D01*
X11501Y126987D01*
X10502D01*
X9502Y125987D01*
Y123988D01*
X10502Y122988D01*
Y128986D02*
X9502Y129986D01*
Y131985D01*
X10502Y132985D01*
X14500D01*
X15500Y131985D01*
Y129986D01*
X14500Y128986D01*
X10502D01*
X16831Y168307D02*
Y174305D01*
X19830D01*
X20829Y173305D01*
Y171306D01*
X19830Y170306D01*
X16831D01*
X25828Y168307D02*
Y174305D01*
X22829Y171306D01*
X26827D01*
X272978Y133669D02*
X278976D01*
Y136668D01*
X277977Y137668D01*
X276977D01*
X275977Y136668D01*
Y133669D01*
Y136668D01*
X274978Y137668D01*
X273978D01*
X272978Y136668D01*
Y133669D01*
X274978Y139667D02*
X278976D01*
X276977D01*
X275977Y140667D01*
X274978Y141667D01*
Y142666D01*
Y146665D02*
Y148664D01*
X275977Y149664D01*
X278976D01*
Y146665D01*
X277977Y145665D01*
X276977Y146665D01*
Y149664D01*
X278976Y151663D02*
X272978D01*
X276977D02*
X274978Y154663D01*
X276977Y151663D02*
X278976Y154663D01*
Y160661D02*
Y158661D01*
X277977Y157661D01*
X275977D01*
X274978Y158661D01*
Y160661D01*
X275977Y161660D01*
X276977D01*
Y157661D01*
X273530Y59055D02*
Y63054D01*
Y61054D01*
X279528D01*
X273530Y65053D02*
X279528D01*
X276529D01*
X275529Y66053D01*
Y68052D01*
X276529Y69052D01*
X279528D01*
X275529Y71051D02*
X279528D01*
X277528D01*
X276529Y72051D01*
X275529Y73051D01*
Y74050D01*
X279528Y78049D02*
Y80048D01*
X278528Y81048D01*
X276529D01*
X275529Y80048D01*
Y78049D01*
X276529Y77049D01*
X278528D01*
X279528Y78049D01*
X274529Y84047D02*
X275529D01*
Y83047D01*
Y85047D01*
Y84047D01*
X278528D01*
X279528Y85047D01*
X274529Y89045D02*
X275529D01*
Y88046D01*
Y90045D01*
Y89045D01*
X278528D01*
X279528Y90045D01*
Y93044D02*
Y95043D01*
Y94044D01*
X273530D01*
Y93044D01*
X279528Y101041D02*
Y99042D01*
X278528Y98043D01*
X276529D01*
X275529Y99042D01*
Y101041D01*
X276529Y102041D01*
X277528D01*
Y98043D01*
X192033Y173228D02*
X198031D01*
Y177227D01*
X194033Y180226D02*
Y182225D01*
X195033Y183225D01*
X198031D01*
Y180226D01*
X197032Y179226D01*
X196032Y180226D01*
Y183225D01*
X200031Y185224D02*
X194033D01*
Y188224D01*
X195033Y189223D01*
X197032D01*
X198031Y188224D01*
Y185224D01*
X194033Y195221D02*
Y192222D01*
X195033Y191223D01*
X197032D01*
X198031Y192222D01*
Y195221D01*
X195774Y35433D02*
X201772D01*
Y38432D01*
X200772Y39432D01*
X199772D01*
X198773Y38432D01*
Y35433D01*
Y38432D01*
X197773Y39432D01*
X196773D01*
X195774Y38432D01*
Y35433D01*
X201772Y41431D02*
Y43431D01*
Y42431D01*
X195774D01*
Y41431D01*
X201772Y46429D02*
Y48429D01*
Y47429D01*
X197773D01*
Y46429D01*
X201772Y51428D02*
X197773D01*
Y54427D01*
X198773Y55427D01*
X201772D01*
Y57426D02*
X195774D01*
X199772D02*
X197773Y60425D01*
X199772Y57426D02*
X201772Y60425D01*
X269592Y27559D02*
X275590D01*
X272591D01*
Y31558D01*
X269592D01*
X275590D01*
Y34557D02*
Y36556D01*
X274591Y37556D01*
X272591D01*
X271592Y36556D01*
Y34557D01*
X272591Y33557D01*
X274591D01*
X275590Y34557D01*
X271592Y39555D02*
X275590D01*
X273591D01*
X272591Y40555D01*
X271592Y41554D01*
Y42554D01*
X275590Y45553D02*
X271592D01*
Y48552D01*
X272591Y49552D01*
X275590D01*
X278254Y169291D02*
X284252D01*
Y172290D01*
X283252Y173290D01*
X282253D01*
X281253Y172290D01*
Y169291D01*
Y172290D01*
X280253Y173290D01*
X279254D01*
X278254Y172290D01*
Y169291D01*
X284252Y175289D02*
Y177289D01*
Y176289D01*
X278254D01*
Y175289D01*
X284252Y180288D02*
Y182287D01*
Y181288D01*
X280253D01*
Y180288D01*
X284252Y185286D02*
X280253D01*
Y188285D01*
X281253Y189285D01*
X284252D01*
Y191284D02*
X278254D01*
X282253D02*
X280253Y194283D01*
X282253Y191284D02*
X284252Y194283D01*
X19000Y150500D02*
Y156498D01*
X21999D01*
X22999Y155498D01*
Y153499D01*
X21999Y152499D01*
X19000D01*
X28997Y150500D02*
X24998D01*
X28997Y154499D01*
Y155498D01*
X27997Y156498D01*
X25998D01*
X24998Y155498D01*
X13780Y64961D02*
Y70959D01*
X16779D01*
X17778Y69959D01*
Y67960D01*
X16779Y66960D01*
X13780D01*
X19778Y64961D02*
X21777D01*
X20777D01*
Y70959D01*
X19778Y69959D01*
X105002Y46999D02*
X104002Y45999D01*
Y44000D01*
X105002Y43000D01*
X109000D01*
X110000Y44000D01*
Y45999D01*
X109000Y46999D01*
X107001D01*
Y44999D01*
X110000Y48998D02*
X104002D01*
X110000Y52997D01*
X104002D01*
Y54996D02*
X110000D01*
Y57995D01*
X109000Y58995D01*
X105002D01*
X104002Y57995D01*
Y54996D01*
X160188Y183494D02*
X159188Y184494D01*
X157189D01*
X156189Y183494D01*
Y179496D01*
X157189Y178496D01*
X159188D01*
X160188Y179496D01*
X162187Y178496D02*
Y182495D01*
X164186Y184494D01*
X166186Y182495D01*
Y178496D01*
Y181495D01*
X162187D01*
X168185Y178496D02*
Y184494D01*
X172184Y178496D01*
Y184494D01*
X174183Y178496D02*
Y184494D01*
X177182D01*
X178182Y183494D01*
Y181495D01*
X177182Y180495D01*
X174183D01*
X176182D02*
X178182Y178496D01*
X94680Y173101D02*
X93680Y174100D01*
X91681D01*
X90681Y173101D01*
Y169102D01*
X91681Y168102D01*
X93680D01*
X94680Y169102D01*
X96679Y168102D02*
Y172101D01*
X98678Y174100D01*
X100678Y172101D01*
Y168102D01*
Y171101D01*
X96679D01*
X102677Y168102D02*
Y174100D01*
X106676Y168102D01*
Y174100D01*
X112674Y173101D02*
X111674Y174100D01*
X109675D01*
X108675Y173101D01*
Y169102D01*
X109675Y168102D01*
X111674D01*
X112674Y169102D01*
X157589Y170896D02*
X156590Y171896D01*
X154590D01*
X153591Y170896D01*
Y166897D01*
X154590Y165898D01*
X156590D01*
X157589Y166897D01*
X159589Y171896D02*
X163587D01*
Y170896D01*
X159589Y166897D01*
Y165898D01*
X62002Y50999D02*
Y47000D01*
X65001D01*
X64001Y48999D01*
Y49999D01*
X65001Y50999D01*
X67000D01*
X68000Y49999D01*
Y48000D01*
X67000Y47000D01*
X62002Y52998D02*
X66001D01*
X68000Y54997D01*
X66001Y56997D01*
X62002D01*
X185002Y43000D02*
X184002Y44000D01*
Y45999D01*
X185002Y46999D01*
X186001D01*
X187001Y45999D01*
Y44999D01*
Y45999D01*
X188001Y46999D01*
X189000D01*
X190000Y45999D01*
Y44000D01*
X189000Y43000D01*
X184002Y48998D02*
X188001D01*
X190000Y50997D01*
X188001Y52997D01*
X184002D01*
X185002Y54996D02*
X184002Y55996D01*
Y57995D01*
X185002Y58995D01*
X186001D01*
X187001Y57995D01*
Y56995D01*
Y57995D01*
X188001Y58995D01*
X189000D01*
X190000Y57995D01*
Y55996D01*
X189000Y54996D01*
X1000Y15748D02*
X303000D01*
X303000Y205000D02*
X303000Y15748D01*
X1000Y205000D02*
X303000D01*
X1000D02*
X1000Y15748D01*
M02*
