%TF.GenerationSoftware,Altium Limited,Altium Designer,19.1.8 (144)*%
G04 Layer_Color=32768*
%FSLAX26Y26*%
%MOIN*%
%TF.FileFunction,Other,Mechanical_15*%
%TF.Part,Single*%
G01*
G75*
%TA.AperFunction,NonConductor*%
%ADD36C,0.003937*%
%ADD37C,0.001968*%
D36*
X596417Y1780315D02*
Y1819685D01*
X576732Y1800000D02*
X616102D01*
X910000Y1780315D02*
Y1819685D01*
X890315Y1800000D02*
X929685D01*
X2540315Y1225000D02*
X2579685D01*
X2560000Y1205315D02*
Y1244685D01*
X2440315Y950000D02*
X2479685D01*
X2460000Y930315D02*
Y969685D01*
X2540315Y948583D02*
X2579685D01*
X2560000Y928898D02*
Y968268D01*
X2640315Y1223583D02*
X2679685D01*
X2660000Y1203898D02*
Y1243268D01*
X430315Y1070000D02*
X469685D01*
X450000Y1050315D02*
Y1089685D01*
X1020315Y1230000D02*
X1059685D01*
X1040000Y1210315D02*
Y1249685D01*
X815000Y1105315D02*
Y1144685D01*
X795315Y1125000D02*
X834685D01*
X1396732Y1825000D02*
X1436102D01*
X1416417Y1805315D02*
Y1844685D01*
D37*
X529488Y1835433D02*
X663346D01*
Y1764567D02*
Y1835433D01*
X529488Y1764567D02*
Y1835433D01*
Y1764567D02*
X663346D01*
X843071D02*
X976929D01*
X843071D02*
Y1835433D01*
X976929Y1764567D02*
Y1835433D01*
X843071D02*
X976929D01*
X2522599Y1158071D02*
Y1291929D01*
X2597402Y1158071D02*
Y1291929D01*
X2522599D02*
X2597402D01*
X2522599Y1158071D02*
X2597402D01*
X2422598Y883071D02*
Y1016929D01*
X2497401Y883071D02*
Y1016929D01*
X2422598D02*
X2497401D01*
X2422598Y883071D02*
X2497401D01*
X2597401Y881654D02*
Y1015512D01*
X2522598Y881654D02*
Y1015512D01*
Y881654D02*
X2597401D01*
X2522598Y1015512D02*
X2597401D01*
X2697401Y1156653D02*
Y1290512D01*
X2622598Y1156653D02*
Y1290512D01*
Y1156653D02*
X2697401D01*
X2622598Y1290512D02*
X2697401D01*
X516929Y1032599D02*
Y1107402D01*
X383071Y1032599D02*
X516929D01*
X383071Y1107402D02*
X516929D01*
X383071Y1032599D02*
Y1107402D01*
X973071Y1194567D02*
X1106929D01*
X973071D02*
Y1265433D01*
X1106929Y1194567D02*
Y1265433D01*
X973071D02*
X1106929D01*
X696890Y961614D02*
Y1288386D01*
X933110D01*
X696890Y961614D02*
X933110D01*
Y1288386D01*
X1349488Y1787599D02*
Y1862402D01*
X1483347Y1787599D02*
Y1862402D01*
X1349488D02*
X1483347D01*
X1349488Y1787599D02*
X1483347D01*
%TF.MD5,87a92ff55641e3b69620d580572b491b*%
M02*
