G04*
G04 #@! TF.GenerationSoftware,Altium Limited,Altium Designer,19.1.8 (144)*
G04*
G04 Layer_Color=65535*
%FSLAX25Y25*%
%MOIN*%
G70*
G01*
G75*
%ADD10C,0.00787*%
%ADD11C,0.01000*%
G36*
X49923Y43291D02*
X51677D01*
Y42999D01*
X53430D01*
Y42707D01*
X55184D01*
Y42415D01*
X56938D01*
Y42122D01*
X58691D01*
Y41830D01*
X56938D01*
Y41538D01*
X55184D01*
Y41245D01*
X53430D01*
Y40953D01*
X51677D01*
Y40661D01*
X49923D01*
Y40369D01*
X49339D01*
Y40661D01*
X47585D01*
Y40953D01*
X45831D01*
Y41245D01*
X44078D01*
Y41538D01*
X42324D01*
Y41830D01*
X40571D01*
Y42122D01*
X42324D01*
Y42415D01*
X44078D01*
Y42707D01*
X45831D01*
Y42999D01*
X47585D01*
Y43291D01*
X49339D01*
Y43584D01*
X49923D01*
Y43291D01*
D02*
G37*
G36*
X65998Y36569D02*
X65706D01*
Y36277D01*
X65414D01*
Y35985D01*
X65121D01*
Y35692D01*
X64829D01*
Y35400D01*
X64537D01*
Y35108D01*
Y34815D01*
X64245D01*
Y34523D01*
X63952D01*
Y34231D01*
X63660D01*
Y33939D01*
X63368D01*
Y33646D01*
X63075D01*
Y33354D01*
Y33062D01*
X62783D01*
Y32770D01*
X62491D01*
Y32477D01*
X62199D01*
Y32185D01*
X61906D01*
Y31893D01*
X61614D01*
Y31600D01*
Y31308D01*
X61322D01*
Y31016D01*
X61029D01*
Y30724D01*
X60737D01*
Y30431D01*
X60445D01*
Y30139D01*
X60153D01*
Y29847D01*
Y29555D01*
X59860D01*
Y29262D01*
X59568D01*
Y28970D01*
X59276D01*
Y28678D01*
Y28385D01*
Y28093D01*
X58984D01*
Y27801D01*
Y27509D01*
X58691D01*
Y27216D01*
Y26924D01*
Y26632D01*
X58399D01*
Y26340D01*
Y26047D01*
X58107D01*
Y25755D01*
Y25463D01*
Y25170D01*
X57815D01*
Y24878D01*
Y24586D01*
X57522D01*
Y24294D01*
Y24001D01*
Y23709D01*
X57230D01*
Y23417D01*
Y23125D01*
X56938D01*
Y22832D01*
Y22540D01*
Y22248D01*
X56645D01*
Y21956D01*
Y21663D01*
X56353D01*
Y21371D01*
Y21079D01*
Y20786D01*
X56061D01*
Y20494D01*
Y20202D01*
X55769D01*
Y19910D01*
Y19617D01*
Y19325D01*
X55476D01*
Y19033D01*
Y18741D01*
X55184D01*
Y18448D01*
Y18156D01*
Y17864D01*
X54892D01*
Y17571D01*
Y17279D01*
X54599D01*
Y16987D01*
Y16695D01*
Y16402D01*
X54307D01*
Y16695D01*
Y16987D01*
Y17279D01*
Y17571D01*
Y17864D01*
Y18156D01*
X54599D01*
Y18448D01*
Y18741D01*
Y19033D01*
Y19325D01*
Y19617D01*
Y19910D01*
X54892D01*
Y20202D01*
Y20494D01*
Y20786D01*
Y21079D01*
Y21371D01*
Y21663D01*
X55184D01*
Y21956D01*
Y22248D01*
Y22540D01*
Y22832D01*
Y23125D01*
X55476D01*
Y23417D01*
Y23709D01*
Y24001D01*
Y24294D01*
Y24586D01*
Y24878D01*
X55769D01*
Y25170D01*
Y25463D01*
Y25755D01*
Y26047D01*
Y26340D01*
Y26632D01*
X56061D01*
Y26924D01*
Y27216D01*
Y27509D01*
Y27801D01*
Y28093D01*
Y28385D01*
X56353D01*
Y28678D01*
Y28970D01*
Y29262D01*
Y29555D01*
Y29847D01*
Y30139D01*
X56645D01*
Y30431D01*
Y30724D01*
Y31016D01*
Y31308D01*
X57230D01*
Y31600D01*
X57522D01*
Y31893D01*
X58107D01*
Y32185D01*
X58399D01*
Y32477D01*
X58984D01*
Y32770D01*
X59276D01*
Y33062D01*
X59860D01*
Y33354D01*
X60445D01*
Y33646D01*
X60737D01*
Y33939D01*
X61322D01*
Y34231D01*
X61614D01*
Y34523D01*
X62199D01*
Y34815D01*
X62491D01*
Y35108D01*
X63075D01*
Y35400D01*
X63660D01*
Y35692D01*
X63952D01*
Y35985D01*
X64537D01*
Y36277D01*
X64829D01*
Y36569D01*
X65414D01*
Y36861D01*
X65998D01*
Y36569D01*
D02*
G37*
G36*
X33848D02*
X34433D01*
Y36277D01*
X34725D01*
Y35985D01*
X35310D01*
Y35692D01*
X35602D01*
Y35400D01*
X36186D01*
Y35108D01*
X36479D01*
Y34815D01*
X37063D01*
Y34523D01*
X37648D01*
Y34231D01*
X37940D01*
Y33939D01*
X38525D01*
Y33646D01*
X38817D01*
Y33354D01*
X39401D01*
Y33062D01*
X39694D01*
Y32770D01*
X40278D01*
Y32477D01*
X40863D01*
Y32185D01*
X41155D01*
Y31893D01*
X41740D01*
Y31600D01*
X42032D01*
Y31308D01*
X42616D01*
Y31016D01*
Y30724D01*
Y30431D01*
Y30139D01*
X42909D01*
Y29847D01*
Y29555D01*
Y29262D01*
Y28970D01*
Y28678D01*
Y28385D01*
X43201D01*
Y28093D01*
Y27801D01*
Y27509D01*
Y27216D01*
Y26924D01*
Y26632D01*
X43493D01*
Y26340D01*
Y26047D01*
Y25755D01*
Y25463D01*
Y25170D01*
Y24878D01*
X43786D01*
Y24586D01*
Y24294D01*
Y24001D01*
Y23709D01*
Y23417D01*
Y23125D01*
X44078D01*
Y22832D01*
Y22540D01*
Y22248D01*
Y21956D01*
Y21663D01*
Y21371D01*
X44370D01*
Y21079D01*
Y20786D01*
Y20494D01*
Y20202D01*
Y19910D01*
Y19617D01*
X44662D01*
Y19325D01*
Y19033D01*
Y18741D01*
Y18448D01*
Y18156D01*
Y17864D01*
X44955D01*
Y17571D01*
Y17279D01*
Y16987D01*
Y16695D01*
Y16402D01*
X44662D01*
Y16695D01*
Y16987D01*
X44370D01*
Y17279D01*
Y17571D01*
Y17864D01*
X44078D01*
Y18156D01*
Y18448D01*
X43786D01*
Y18741D01*
Y19033D01*
Y19325D01*
X43493D01*
Y19617D01*
Y19910D01*
X43201D01*
Y20202D01*
Y20494D01*
Y20786D01*
X42909D01*
Y21079D01*
Y21371D01*
X42616D01*
Y21663D01*
Y21956D01*
Y22248D01*
X42324D01*
Y22540D01*
Y22832D01*
X42032D01*
Y23125D01*
Y23417D01*
Y23709D01*
X41740D01*
Y24001D01*
Y24294D01*
X41447D01*
Y24586D01*
Y24878D01*
Y25170D01*
X41155D01*
Y25463D01*
Y25755D01*
X40863D01*
Y26047D01*
Y26340D01*
Y26632D01*
X40571D01*
Y26924D01*
Y27216D01*
X40278D01*
Y27509D01*
Y27801D01*
Y28093D01*
X39986D01*
Y28385D01*
Y28678D01*
X39694D01*
Y28970D01*
Y29262D01*
X39401D01*
Y29555D01*
X39109D01*
Y29847D01*
Y30139D01*
X38817D01*
Y30431D01*
X38525D01*
Y30724D01*
X38232D01*
Y31016D01*
X37940D01*
Y31308D01*
X37648D01*
Y31600D01*
Y31893D01*
X37356D01*
Y32185D01*
X37063D01*
Y32477D01*
X36771D01*
Y32770D01*
X36479D01*
Y33062D01*
X36186D01*
Y33354D01*
Y33646D01*
X35894D01*
Y33939D01*
X35602D01*
Y34231D01*
X35310D01*
Y34523D01*
X35017D01*
Y34815D01*
X34725D01*
Y35108D01*
Y35400D01*
X34433D01*
Y35692D01*
X34141D01*
Y35985D01*
X33848D01*
Y36277D01*
X33556D01*
Y36569D01*
X33264D01*
Y36861D01*
X33848D01*
Y36569D01*
D02*
G37*
G36*
X65121Y40076D02*
X64537D01*
Y39784D01*
X64245D01*
Y39492D01*
X63660D01*
Y39200D01*
X63368D01*
Y38907D01*
X62783D01*
Y38615D01*
X62491D01*
Y38323D01*
X61906D01*
Y38030D01*
X61614D01*
Y37738D01*
X61029D01*
Y37446D01*
X60737D01*
Y37154D01*
X60153D01*
Y36861D01*
X59568D01*
Y36569D01*
X59276D01*
Y36277D01*
X58691D01*
Y35985D01*
X58399D01*
Y35692D01*
X57815D01*
Y35400D01*
X57522D01*
Y35108D01*
X56938D01*
Y34815D01*
X56645D01*
Y34523D01*
X56061D01*
Y34231D01*
X55769D01*
Y33939D01*
X55184D01*
Y33646D01*
X54892D01*
Y33354D01*
X54307D01*
Y33062D01*
Y32770D01*
Y32477D01*
X54015D01*
Y32185D01*
Y31893D01*
Y31600D01*
Y31308D01*
Y31016D01*
Y30724D01*
X53723D01*
Y30431D01*
Y30139D01*
Y29847D01*
Y29555D01*
Y29262D01*
Y28970D01*
Y28678D01*
X53430D01*
Y28385D01*
Y28093D01*
Y27801D01*
Y27509D01*
Y27216D01*
Y26924D01*
X53138D01*
Y26632D01*
Y26340D01*
Y26047D01*
Y25755D01*
Y25463D01*
Y25170D01*
X52846D01*
Y24878D01*
Y24586D01*
Y24294D01*
Y24001D01*
Y23709D01*
Y23417D01*
Y23125D01*
X52554D01*
Y22832D01*
Y22540D01*
Y22248D01*
Y21956D01*
Y21663D01*
Y21371D01*
X52261D01*
Y21079D01*
Y20786D01*
Y20494D01*
Y20202D01*
Y19910D01*
Y19617D01*
Y19325D01*
X51969D01*
Y19033D01*
Y18741D01*
Y18448D01*
Y18156D01*
Y17864D01*
Y17571D01*
X51677D01*
Y17279D01*
Y16987D01*
Y16695D01*
Y16402D01*
Y16110D01*
Y15818D01*
X51385D01*
Y15526D01*
Y15233D01*
Y14941D01*
Y14649D01*
Y14356D01*
Y14064D01*
Y13772D01*
X51092D01*
Y13480D01*
Y13187D01*
Y12895D01*
Y12603D01*
Y12311D01*
Y12018D01*
X50800D01*
Y12311D01*
Y12603D01*
Y12895D01*
Y13187D01*
Y13480D01*
Y13772D01*
Y14064D01*
Y14356D01*
Y14649D01*
Y14941D01*
Y15233D01*
Y15526D01*
Y15818D01*
Y16110D01*
Y16402D01*
Y16695D01*
Y16987D01*
Y17279D01*
Y17571D01*
Y17864D01*
Y18156D01*
Y18448D01*
Y18741D01*
Y19033D01*
Y19325D01*
Y19617D01*
Y19910D01*
Y20202D01*
Y20494D01*
Y20786D01*
Y21079D01*
Y21371D01*
Y21663D01*
Y21956D01*
Y22248D01*
Y22540D01*
Y22832D01*
Y23125D01*
Y23417D01*
Y23709D01*
Y24001D01*
Y24294D01*
Y24586D01*
Y24878D01*
Y25170D01*
Y25463D01*
Y25755D01*
Y26047D01*
Y26340D01*
Y26632D01*
Y26924D01*
Y27216D01*
Y27509D01*
Y27801D01*
Y28093D01*
Y28385D01*
Y28678D01*
Y28970D01*
Y29262D01*
Y29555D01*
Y29847D01*
Y30139D01*
Y30431D01*
Y30724D01*
Y31016D01*
Y31308D01*
Y31600D01*
Y31893D01*
Y32185D01*
Y32477D01*
Y32770D01*
Y33062D01*
Y33354D01*
Y33646D01*
Y33939D01*
Y34231D01*
Y34523D01*
Y34815D01*
Y35108D01*
Y35400D01*
Y35692D01*
Y35985D01*
Y36277D01*
Y36569D01*
Y36861D01*
Y37154D01*
Y37446D01*
Y37738D01*
Y38030D01*
X51092D01*
Y38323D01*
X52846D01*
Y38615D01*
X54599D01*
Y38907D01*
X56353D01*
Y39200D01*
X58107D01*
Y39492D01*
X59860D01*
Y39784D01*
X61906D01*
Y40076D01*
X63660D01*
Y40369D01*
X65121D01*
Y40076D01*
D02*
G37*
G36*
X35602D02*
X37356D01*
Y39784D01*
X39109D01*
Y39492D01*
X41155D01*
Y39200D01*
X42909D01*
Y38907D01*
X44662D01*
Y38615D01*
X46416D01*
Y38323D01*
X48170D01*
Y38030D01*
X48462D01*
Y37738D01*
Y37446D01*
Y37154D01*
Y36861D01*
Y36569D01*
Y36277D01*
Y35985D01*
Y35692D01*
Y35400D01*
Y35108D01*
Y34815D01*
Y34523D01*
Y34231D01*
Y33939D01*
Y33646D01*
Y33354D01*
Y33062D01*
Y32770D01*
Y32477D01*
Y32185D01*
Y31893D01*
Y31600D01*
Y31308D01*
Y31016D01*
Y30724D01*
Y30431D01*
Y30139D01*
Y29847D01*
Y29555D01*
Y29262D01*
Y28970D01*
Y28678D01*
Y28385D01*
Y28093D01*
Y27801D01*
Y27509D01*
Y27216D01*
Y26924D01*
Y26632D01*
Y26340D01*
Y26047D01*
Y25755D01*
Y25463D01*
Y25170D01*
Y24878D01*
Y24586D01*
Y24294D01*
Y24001D01*
Y23709D01*
Y23417D01*
Y23125D01*
Y22832D01*
Y22540D01*
Y22248D01*
Y21956D01*
Y21663D01*
Y21371D01*
Y21079D01*
Y20786D01*
Y20494D01*
Y20202D01*
Y19910D01*
Y19617D01*
Y19325D01*
Y19033D01*
Y18741D01*
Y18448D01*
Y18156D01*
Y17864D01*
Y17571D01*
Y17279D01*
Y16987D01*
Y16695D01*
Y16402D01*
Y16110D01*
Y15818D01*
Y15526D01*
Y15233D01*
Y14941D01*
Y14649D01*
Y14356D01*
Y14064D01*
Y13772D01*
Y13480D01*
Y13187D01*
Y12895D01*
Y12603D01*
Y12311D01*
Y12018D01*
Y11726D01*
X48170D01*
Y12018D01*
Y12311D01*
Y12603D01*
Y12895D01*
Y13187D01*
Y13480D01*
Y13772D01*
X47877D01*
Y14064D01*
Y14356D01*
Y14649D01*
Y14941D01*
Y15233D01*
Y15526D01*
X47585D01*
Y15818D01*
Y16110D01*
Y16402D01*
Y16695D01*
Y16987D01*
Y17279D01*
Y17571D01*
X47293D01*
Y17864D01*
Y18156D01*
Y18448D01*
Y18741D01*
Y19033D01*
Y19325D01*
X47001D01*
Y19617D01*
Y19910D01*
Y20202D01*
Y20494D01*
Y20786D01*
Y21079D01*
X46708D01*
Y21371D01*
Y21663D01*
Y21956D01*
Y22248D01*
Y22540D01*
Y22832D01*
Y23125D01*
X46416D01*
Y23417D01*
Y23709D01*
Y24001D01*
Y24294D01*
Y24586D01*
Y24878D01*
X46124D01*
Y25170D01*
Y25463D01*
Y25755D01*
Y26047D01*
Y26340D01*
Y26632D01*
Y26924D01*
X45831D01*
Y27216D01*
Y27509D01*
Y27801D01*
Y28093D01*
Y28385D01*
Y28678D01*
X45539D01*
Y28970D01*
Y29262D01*
Y29555D01*
Y29847D01*
Y30139D01*
Y30431D01*
X45247D01*
Y30724D01*
Y31016D01*
Y31308D01*
Y31600D01*
Y31893D01*
Y32185D01*
Y32477D01*
X44955D01*
Y32770D01*
Y33062D01*
Y33354D01*
X44370D01*
Y33646D01*
X44078D01*
Y33939D01*
X43493D01*
Y34231D01*
X43201D01*
Y34523D01*
X42616D01*
Y34815D01*
X42324D01*
Y35108D01*
X41740D01*
Y35400D01*
X41447D01*
Y35692D01*
X40863D01*
Y35985D01*
X40278D01*
Y36277D01*
X39986D01*
Y36569D01*
X39401D01*
Y36861D01*
X39109D01*
Y37154D01*
X38525D01*
Y37446D01*
X38232D01*
Y37738D01*
X37648D01*
Y38030D01*
X37356D01*
Y38323D01*
X36771D01*
Y38615D01*
X36479D01*
Y38907D01*
X35894D01*
Y39200D01*
X35602D01*
Y39492D01*
X35017D01*
Y39784D01*
X34725D01*
Y40076D01*
X34141D01*
Y40369D01*
X35602D01*
Y40076D01*
D02*
G37*
G36*
X295357Y101566D02*
X295348Y101556D01*
X295330Y101519D01*
X295302Y101464D01*
X295274Y101390D01*
X295247Y101307D01*
X295219Y101205D01*
X295200Y101103D01*
X295191Y101001D01*
Y100955D01*
X295200Y100909D01*
X295210Y100844D01*
X295228Y100779D01*
X295256Y100696D01*
X295293Y100613D01*
X295348Y100539D01*
X295357Y100530D01*
X295376Y100502D01*
X295413Y100474D01*
X295459Y100428D01*
X295524Y100382D01*
X295598Y100335D01*
X295681Y100289D01*
X295783Y100252D01*
X295801Y100243D01*
X295857Y100234D01*
X295940Y100215D01*
X296051Y100187D01*
X296190Y100160D01*
X296347Y100141D01*
X296514Y100132D01*
X296699Y100123D01*
X299122D01*
Y99336D01*
X294479D01*
Y100049D01*
X295182D01*
X295173Y100058D01*
X295108Y100095D01*
X295024Y100141D01*
X294923Y100215D01*
X294821Y100289D01*
X294710Y100372D01*
X294618Y100456D01*
X294544Y100539D01*
X294534Y100548D01*
X294516Y100576D01*
X294488Y100631D01*
X294460Y100687D01*
X294432Y100761D01*
X294405Y100853D01*
X294386Y100946D01*
X294377Y101048D01*
Y101112D01*
X294386Y101196D01*
X294405Y101297D01*
X294442Y101418D01*
X294488Y101547D01*
X294553Y101695D01*
X294636Y101852D01*
X295357Y101566D01*
D02*
G37*
G36*
X297004Y98374D02*
Y94906D01*
X297013D01*
X297041D01*
X297078Y94915D01*
X297133D01*
X297198Y94924D01*
X297272Y94943D01*
X297439Y94970D01*
X297624Y95026D01*
X297827Y95100D01*
X298012Y95202D01*
X298179Y95331D01*
Y95340D01*
X298197Y95350D01*
X298243Y95405D01*
X298308Y95488D01*
X298373Y95599D01*
X298447Y95747D01*
X298512Y95914D01*
X298558Y96099D01*
X298567Y96201D01*
X298576Y96312D01*
Y96386D01*
X298567Y96469D01*
X298549Y96571D01*
X298521Y96682D01*
X298484Y96811D01*
X298429Y96931D01*
X298355Y97052D01*
X298345Y97061D01*
X298308Y97107D01*
X298253Y97163D01*
X298179Y97227D01*
X298077Y97301D01*
X297948Y97385D01*
X297799Y97468D01*
X297624Y97542D01*
X297726Y98356D01*
X297735D01*
X297753Y98347D01*
X297790Y98337D01*
X297846Y98319D01*
X297901Y98291D01*
X297975Y98263D01*
X298132Y98189D01*
X298308Y98097D01*
X298493Y97967D01*
X298669Y97819D01*
X298835Y97634D01*
Y97625D01*
X298854Y97607D01*
X298872Y97579D01*
X298900Y97542D01*
X298928Y97486D01*
X298956Y97431D01*
X298993Y97357D01*
X299030Y97274D01*
X299067Y97181D01*
X299104Y97089D01*
X299159Y96857D01*
X299205Y96598D01*
X299224Y96312D01*
Y96210D01*
X299215Y96145D01*
X299205Y96062D01*
X299187Y95960D01*
X299168Y95849D01*
X299150Y95729D01*
X299076Y95470D01*
X299021Y95331D01*
X298965Y95202D01*
X298891Y95063D01*
X298808Y94933D01*
X298715Y94813D01*
X298604Y94693D01*
X298595Y94684D01*
X298576Y94665D01*
X298539Y94637D01*
X298484Y94600D01*
X298419Y94554D01*
X298345Y94508D01*
X298253Y94452D01*
X298151Y94397D01*
X298031Y94341D01*
X297901Y94286D01*
X297753Y94240D01*
X297596Y94193D01*
X297429Y94156D01*
X297245Y94129D01*
X297050Y94110D01*
X296847Y94101D01*
X296837D01*
X296791D01*
X296736D01*
X296653Y94110D01*
X296551Y94119D01*
X296440Y94129D01*
X296310Y94147D01*
X296181Y94175D01*
X295885Y94249D01*
X295737Y94295D01*
X295580Y94351D01*
X295431Y94425D01*
X295293Y94508D01*
X295154Y94600D01*
X295024Y94702D01*
X295015Y94711D01*
X294997Y94730D01*
X294969Y94767D01*
X294923Y94813D01*
X294877Y94869D01*
X294821Y94943D01*
X294756Y95026D01*
X294701Y95128D01*
X294636Y95229D01*
X294581Y95350D01*
X294525Y95479D01*
X294479Y95618D01*
X294432Y95766D01*
X294405Y95923D01*
X294386Y96090D01*
X294377Y96265D01*
Y96358D01*
X294386Y96423D01*
X294395Y96497D01*
X294414Y96589D01*
X294432Y96691D01*
X294460Y96811D01*
X294488Y96922D01*
X294534Y97052D01*
X294581Y97172D01*
X294645Y97301D01*
X294719Y97431D01*
X294802Y97560D01*
X294904Y97681D01*
X295015Y97792D01*
X295024Y97801D01*
X295043Y97819D01*
X295080Y97847D01*
X295135Y97884D01*
X295200Y97930D01*
X295274Y97977D01*
X295367Y98032D01*
X295478Y98088D01*
X295598Y98143D01*
X295727Y98199D01*
X295876Y98245D01*
X296033Y98291D01*
X296209Y98328D01*
X296393Y98356D01*
X296588Y98374D01*
X296800Y98384D01*
X296810D01*
X296847D01*
X296912D01*
X297004Y98374D01*
D02*
G37*
G36*
X299122Y93675D02*
X299131Y93638D01*
X299141Y93574D01*
X299150Y93490D01*
X299168Y93398D01*
X299178Y93296D01*
X299187Y93093D01*
Y93019D01*
X299178Y92945D01*
X299168Y92852D01*
X299159Y92741D01*
X299131Y92630D01*
X299104Y92528D01*
X299058Y92427D01*
X299048Y92417D01*
X299030Y92390D01*
X299002Y92353D01*
X298956Y92297D01*
X298909Y92251D01*
X298845Y92195D01*
X298780Y92140D01*
X298697Y92103D01*
X298688D01*
X298651Y92084D01*
X298586Y92075D01*
X298493Y92057D01*
X298373Y92038D01*
X298299Y92029D01*
X298216D01*
X298114Y92020D01*
X298012Y92010D01*
X297901D01*
X297772D01*
X295089D01*
Y91428D01*
X294479D01*
Y92010D01*
X293332D01*
X292860Y92797D01*
X294479D01*
Y93592D01*
X295089D01*
Y92797D01*
X297818D01*
X297836D01*
X297873D01*
X297929D01*
X297994Y92806D01*
X298142Y92815D01*
X298206Y92824D01*
X298253Y92834D01*
X298271Y92843D01*
X298308Y92871D01*
X298355Y92908D01*
X298401Y92972D01*
X298410Y92991D01*
X298429Y93037D01*
X298447Y93120D01*
X298456Y93241D01*
Y93333D01*
X298447Y93379D01*
Y93444D01*
X298438Y93518D01*
X298429Y93592D01*
X299122Y93694D01*
Y93675D01*
D02*
G37*
G36*
X291330Y91668D02*
X284929D01*
Y92519D01*
X290571D01*
Y95673D01*
X291330D01*
Y91668D01*
D02*
G37*
G36*
X299122Y89883D02*
X296181D01*
X296171D01*
X296153D01*
X296125D01*
X296088D01*
X295987Y89874D01*
X295857Y89855D01*
X295718Y89818D01*
X295580Y89772D01*
X295441Y89707D01*
X295330Y89624D01*
X295321Y89615D01*
X295284Y89578D01*
X295237Y89522D01*
X295191Y89439D01*
X295135Y89337D01*
X295098Y89217D01*
X295061Y89069D01*
X295052Y88902D01*
Y88847D01*
X295061Y88782D01*
X295071Y88690D01*
X295098Y88597D01*
X295126Y88486D01*
X295173Y88375D01*
X295237Y88255D01*
X295247Y88246D01*
X295274Y88209D01*
X295311Y88153D01*
X295367Y88088D01*
X295441Y88014D01*
X295524Y87940D01*
X295626Y87876D01*
X295737Y87820D01*
X295755Y87811D01*
X295792Y87802D01*
X295866Y87783D01*
X295959Y87755D01*
X296079Y87728D01*
X296227Y87709D01*
X296393Y87700D01*
X296588Y87691D01*
X299122D01*
Y86904D01*
X292721D01*
Y87691D01*
X295015D01*
X295006Y87700D01*
X294988Y87718D01*
X294960Y87746D01*
X294914Y87792D01*
X294867Y87839D01*
X294812Y87903D01*
X294756Y87987D01*
X294691Y88070D01*
X294636Y88162D01*
X294581Y88264D01*
X294479Y88505D01*
X294432Y88634D01*
X294405Y88773D01*
X294386Y88921D01*
X294377Y89069D01*
Y89152D01*
X294386Y89254D01*
X294405Y89374D01*
X294423Y89513D01*
X294460Y89661D01*
X294516Y89809D01*
X294581Y89957D01*
X294590Y89975D01*
X294618Y90022D01*
X294664Y90086D01*
X294728Y90170D01*
X294812Y90253D01*
X294904Y90345D01*
X295015Y90429D01*
X295145Y90503D01*
X295163Y90512D01*
X295210Y90530D01*
X295293Y90558D01*
X295413Y90586D01*
X295561Y90614D01*
X295737Y90641D01*
X295950Y90660D01*
X296190Y90669D01*
X299122D01*
Y89883D01*
D02*
G37*
G36*
X290451Y90447D02*
X290461Y90429D01*
X290488Y90392D01*
X290525Y90345D01*
X290562Y90290D01*
X290609Y90225D01*
X290664Y90142D01*
X290720Y90059D01*
X290840Y89864D01*
X290969Y89642D01*
X291090Y89411D01*
X291191Y89161D01*
Y89152D01*
X291201Y89134D01*
X291210Y89097D01*
X291228Y89050D01*
X291247Y88986D01*
X291274Y88912D01*
X291293Y88828D01*
X291312Y88745D01*
X291358Y88542D01*
X291404Y88310D01*
X291432Y88061D01*
X291441Y87802D01*
Y87709D01*
X291432Y87644D01*
Y87561D01*
X291423Y87459D01*
X291404Y87348D01*
X291395Y87228D01*
X291339Y86960D01*
X291274Y86673D01*
X291173Y86377D01*
X291117Y86229D01*
X291043Y86081D01*
X291034Y86072D01*
X291025Y86044D01*
X290997Y86007D01*
X290969Y85952D01*
X290923Y85887D01*
X290877Y85822D01*
X290747Y85646D01*
X290581Y85461D01*
X290377Y85267D01*
X290146Y85082D01*
X289878Y84916D01*
X289869D01*
X289841Y84897D01*
X289804Y84879D01*
X289739Y84851D01*
X289674Y84823D01*
X289582Y84795D01*
X289489Y84758D01*
X289378Y84721D01*
X289258Y84684D01*
X289119Y84647D01*
X288981Y84620D01*
X288832Y84592D01*
X288509Y84546D01*
X288167Y84527D01*
X288157D01*
X288120D01*
X288074D01*
X288009Y84536D01*
X287926D01*
X287824Y84546D01*
X287723Y84564D01*
X287602Y84573D01*
X287473Y84601D01*
X287334Y84620D01*
X287038Y84694D01*
X286733Y84786D01*
X286428Y84916D01*
X286418Y84925D01*
X286390Y84934D01*
X286353Y84953D01*
X286298Y84990D01*
X286224Y85027D01*
X286150Y85073D01*
X285974Y85202D01*
X285771Y85360D01*
X285577Y85554D01*
X285382Y85776D01*
X285299Y85905D01*
X285216Y86035D01*
X285207Y86044D01*
X285197Y86072D01*
X285179Y86109D01*
X285151Y86164D01*
X285123Y86238D01*
X285086Y86322D01*
X285049Y86414D01*
X285012Y86525D01*
X284975Y86645D01*
X284948Y86775D01*
X284911Y86914D01*
X284883Y87062D01*
X284837Y87385D01*
X284818Y87552D01*
Y87848D01*
X284827Y87903D01*
Y87977D01*
X284846Y88153D01*
X284874Y88347D01*
X284920Y88551D01*
X284975Y88773D01*
X285049Y88986D01*
Y88995D01*
X285059Y89013D01*
X285068Y89041D01*
X285086Y89078D01*
X285142Y89180D01*
X285207Y89309D01*
X285299Y89448D01*
X285410Y89596D01*
X285530Y89735D01*
X285678Y89864D01*
X285697Y89883D01*
X285752Y89920D01*
X285836Y89975D01*
X285956Y90049D01*
X286104Y90123D01*
X286289Y90207D01*
X286492Y90290D01*
X286723Y90355D01*
X286927Y89587D01*
X286918D01*
X286909Y89578D01*
X286881Y89568D01*
X286844Y89559D01*
X286761Y89531D01*
X286649Y89494D01*
X286520Y89439D01*
X286400Y89374D01*
X286270Y89309D01*
X286159Y89226D01*
X286150Y89217D01*
X286113Y89189D01*
X286067Y89134D01*
X286002Y89069D01*
X285928Y88986D01*
X285854Y88875D01*
X285780Y88754D01*
X285715Y88616D01*
X285706Y88597D01*
X285688Y88551D01*
X285660Y88468D01*
X285623Y88357D01*
X285595Y88227D01*
X285567Y88079D01*
X285549Y87913D01*
X285540Y87737D01*
Y87635D01*
X285549Y87589D01*
Y87533D01*
X285558Y87395D01*
X285586Y87237D01*
X285613Y87062D01*
X285660Y86895D01*
X285724Y86729D01*
X285734Y86710D01*
X285752Y86655D01*
X285799Y86581D01*
X285845Y86488D01*
X285919Y86377D01*
X285993Y86257D01*
X286085Y86146D01*
X286187Y86044D01*
X286196Y86035D01*
X286233Y85998D01*
X286298Y85952D01*
X286372Y85896D01*
X286465Y85831D01*
X286576Y85767D01*
X286696Y85702D01*
X286825Y85637D01*
X286835D01*
X286853Y85628D01*
X286881Y85619D01*
X286927Y85600D01*
X286982Y85582D01*
X287047Y85563D01*
X287121Y85535D01*
X287205Y85517D01*
X287399Y85471D01*
X287621Y85434D01*
X287852Y85406D01*
X288111Y85397D01*
X288120D01*
X288148D01*
X288194D01*
X288250Y85406D01*
X288324D01*
X288416Y85415D01*
X288509Y85424D01*
X288611Y85434D01*
X288842Y85471D01*
X289082Y85517D01*
X289323Y85591D01*
X289554Y85683D01*
X289563D01*
X289582Y85702D01*
X289610Y85711D01*
X289647Y85739D01*
X289748Y85804D01*
X289878Y85905D01*
X290017Y86026D01*
X290155Y86174D01*
X290285Y86349D01*
X290405Y86544D01*
Y86553D01*
X290414Y86571D01*
X290433Y86599D01*
X290451Y86645D01*
X290470Y86692D01*
X290488Y86756D01*
X290544Y86904D01*
X290590Y87089D01*
X290636Y87293D01*
X290673Y87515D01*
X290683Y87746D01*
Y87839D01*
X290673Y87894D01*
Y87950D01*
X290655Y88088D01*
X290636Y88255D01*
X290599Y88431D01*
X290544Y88625D01*
X290479Y88819D01*
Y88828D01*
X290470Y88847D01*
X290461Y88865D01*
X290442Y88902D01*
X290396Y89004D01*
X290340Y89115D01*
X290276Y89245D01*
X290201Y89383D01*
X290118Y89513D01*
X290026Y89624D01*
X288823D01*
Y87737D01*
X288065D01*
Y90456D01*
X290442D01*
X290451Y90447D01*
D02*
G37*
G36*
X298752Y85702D02*
X298854D01*
X298965Y85693D01*
X299085Y85683D01*
X299335Y85656D01*
X299594Y85619D01*
X299714Y85591D01*
X299825Y85563D01*
X299927Y85526D01*
X300020Y85489D01*
X300029D01*
X300038Y85480D01*
X300094Y85443D01*
X300177Y85397D01*
X300278Y85323D01*
X300390Y85221D01*
X300510Y85101D01*
X300630Y84953D01*
X300732Y84786D01*
Y84777D01*
X300741Y84768D01*
X300760Y84740D01*
X300769Y84703D01*
X300797Y84657D01*
X300815Y84601D01*
X300861Y84462D01*
X300917Y84296D01*
X300954Y84092D01*
X300991Y83861D01*
X301000Y83611D01*
Y83528D01*
X300991Y83473D01*
Y83399D01*
X300981Y83325D01*
X300972Y83232D01*
X300954Y83130D01*
X300907Y82918D01*
X300843Y82696D01*
X300750Y82474D01*
X300621Y82270D01*
X300611Y82261D01*
X300602Y82252D01*
X300547Y82187D01*
X300464Y82113D01*
X300343Y82020D01*
X300186Y81928D01*
X299992Y81845D01*
X299881Y81817D01*
X299761Y81798D01*
X299640Y81780D01*
X299501D01*
X299603Y82548D01*
X299622D01*
X299659Y82557D01*
X299724Y82575D01*
X299807Y82594D01*
X299890Y82631D01*
X299973Y82677D01*
X300057Y82733D01*
X300121Y82807D01*
X300131Y82825D01*
X300158Y82862D01*
X300195Y82927D01*
X300232Y83019D01*
X300278Y83130D01*
X300315Y83269D01*
X300343Y83436D01*
X300353Y83611D01*
Y83704D01*
X300343Y83796D01*
X300325Y83926D01*
X300297Y84055D01*
X300260Y84194D01*
X300204Y84333D01*
X300131Y84453D01*
X300121Y84462D01*
X300094Y84499D01*
X300038Y84555D01*
X299973Y84620D01*
X299881Y84684D01*
X299779Y84749D01*
X299659Y84814D01*
X299520Y84860D01*
X299511D01*
X299474Y84869D01*
X299400Y84879D01*
X299307Y84888D01*
X299242Y84897D01*
X299168D01*
X299085Y84906D01*
X298993D01*
X298891D01*
X298771Y84916D01*
X298651D01*
X298512D01*
X298521Y84906D01*
X298539Y84888D01*
X298567Y84860D01*
X298604Y84823D01*
X298651Y84777D01*
X298706Y84712D01*
X298762Y84638D01*
X298817Y84564D01*
X298928Y84370D01*
X299030Y84157D01*
X299067Y84037D01*
X299095Y83907D01*
X299113Y83769D01*
X299122Y83630D01*
Y83584D01*
X299113Y83537D01*
Y83473D01*
X299104Y83389D01*
X299085Y83297D01*
X299067Y83195D01*
X299039Y83084D01*
X299002Y82964D01*
X298956Y82844D01*
X298900Y82723D01*
X298835Y82594D01*
X298752Y82474D01*
X298660Y82353D01*
X298558Y82242D01*
X298438Y82141D01*
X298429Y82131D01*
X298410Y82122D01*
X298364Y82094D01*
X298318Y82057D01*
X298243Y82020D01*
X298169Y81974D01*
X298077Y81928D01*
X297966Y81882D01*
X297855Y81835D01*
X297726Y81789D01*
X297596Y81743D01*
X297448Y81706D01*
X297133Y81641D01*
X296958Y81632D01*
X296782Y81623D01*
X296773D01*
X296754D01*
X296717D01*
X296671D01*
X296606Y81632D01*
X296542D01*
X296375Y81650D01*
X296190Y81678D01*
X295987Y81724D01*
X295774Y81780D01*
X295561Y81863D01*
X295552D01*
X295533Y81872D01*
X295505Y81891D01*
X295468Y81909D01*
X295367Y81965D01*
X295237Y82039D01*
X295098Y82141D01*
X294960Y82261D01*
X294812Y82400D01*
X294691Y82557D01*
Y82566D01*
X294682Y82575D01*
X294664Y82603D01*
X294645Y82640D01*
X294590Y82733D01*
X294534Y82862D01*
X294479Y83019D01*
X294423Y83204D01*
X294386Y83408D01*
X294377Y83630D01*
Y83713D01*
X294386Y83769D01*
X294395Y83833D01*
X294414Y83917D01*
X294432Y84009D01*
X294460Y84111D01*
X294497Y84213D01*
X294544Y84324D01*
X294599Y84435D01*
X294664Y84555D01*
X294738Y84666D01*
X294830Y84777D01*
X294932Y84888D01*
X295052Y84990D01*
X294479D01*
Y85711D01*
X298493D01*
X298502D01*
X298539D01*
X298595D01*
X298669D01*
X298752Y85702D01*
D02*
G37*
G36*
X299122Y79939D02*
X294479D01*
Y80725D01*
X299122D01*
Y79939D01*
D02*
G37*
G36*
X293618D02*
X292721D01*
Y80725D01*
X293618D01*
Y79939D01*
D02*
G37*
G36*
X291330Y78996D02*
Y78108D01*
X284929Y75629D01*
Y76554D01*
X289582Y78219D01*
X289591D01*
X289610Y78228D01*
X289637Y78237D01*
X289674Y78256D01*
X289730Y78265D01*
X289785Y78283D01*
X289924Y78330D01*
X290081Y78385D01*
X290257Y78441D01*
X290627Y78552D01*
X290618D01*
X290599Y78561D01*
X290571Y78570D01*
X290534Y78579D01*
X290433Y78607D01*
X290294Y78653D01*
X290137Y78700D01*
X289961Y78755D01*
X289776Y78820D01*
X289582Y78894D01*
X284929Y80633D01*
Y81493D01*
X291330Y78996D01*
D02*
G37*
G36*
X293480Y75462D02*
X295459D01*
Y78468D01*
X296218D01*
Y75462D01*
X299122D01*
Y74611D01*
X292721D01*
Y78940D01*
X293480D01*
Y75462D01*
D02*
G37*
G36*
X299122Y72465D02*
X292721D01*
Y73251D01*
X299122D01*
Y72465D01*
D02*
G37*
G36*
X291330Y73991D02*
X286307Y70643D01*
X291330D01*
Y69829D01*
X284929D01*
Y70698D01*
X289961Y74056D01*
X284929D01*
Y74870D01*
X291330D01*
Y73991D01*
D02*
G37*
G36*
X297004Y71512D02*
Y68044D01*
X297013D01*
X297041D01*
X297078Y68053D01*
X297133D01*
X297198Y68062D01*
X297272Y68081D01*
X297439Y68108D01*
X297624Y68164D01*
X297827Y68238D01*
X298012Y68340D01*
X298179Y68469D01*
Y68478D01*
X298197Y68488D01*
X298243Y68543D01*
X298308Y68626D01*
X298373Y68737D01*
X298447Y68885D01*
X298512Y69052D01*
X298558Y69237D01*
X298567Y69339D01*
X298576Y69450D01*
Y69524D01*
X298567Y69607D01*
X298549Y69709D01*
X298521Y69820D01*
X298484Y69949D01*
X298429Y70069D01*
X298355Y70190D01*
X298345Y70199D01*
X298308Y70245D01*
X298253Y70301D01*
X298179Y70365D01*
X298077Y70439D01*
X297948Y70523D01*
X297799Y70606D01*
X297624Y70680D01*
X297726Y71494D01*
X297735D01*
X297753Y71485D01*
X297790Y71475D01*
X297846Y71457D01*
X297901Y71429D01*
X297975Y71401D01*
X298132Y71327D01*
X298308Y71235D01*
X298493Y71105D01*
X298669Y70957D01*
X298835Y70772D01*
Y70763D01*
X298854Y70745D01*
X298872Y70717D01*
X298900Y70680D01*
X298928Y70624D01*
X298956Y70569D01*
X298993Y70495D01*
X299030Y70412D01*
X299067Y70319D01*
X299104Y70227D01*
X299159Y69995D01*
X299205Y69736D01*
X299224Y69450D01*
Y69348D01*
X299215Y69283D01*
X299205Y69200D01*
X299187Y69098D01*
X299168Y68987D01*
X299150Y68867D01*
X299076Y68608D01*
X299021Y68469D01*
X298965Y68340D01*
X298891Y68201D01*
X298808Y68071D01*
X298715Y67951D01*
X298604Y67831D01*
X298595Y67822D01*
X298576Y67803D01*
X298539Y67775D01*
X298484Y67738D01*
X298419Y67692D01*
X298345Y67646D01*
X298253Y67590D01*
X298151Y67535D01*
X298031Y67479D01*
X297901Y67424D01*
X297753Y67378D01*
X297596Y67331D01*
X297429Y67294D01*
X297245Y67267D01*
X297050Y67248D01*
X296847Y67239D01*
X296837D01*
X296791D01*
X296736D01*
X296653Y67248D01*
X296551Y67257D01*
X296440Y67267D01*
X296310Y67285D01*
X296181Y67313D01*
X295885Y67387D01*
X295737Y67433D01*
X295580Y67489D01*
X295431Y67563D01*
X295293Y67646D01*
X295154Y67738D01*
X295024Y67840D01*
X295015Y67849D01*
X294997Y67868D01*
X294969Y67905D01*
X294923Y67951D01*
X294877Y68007D01*
X294821Y68081D01*
X294756Y68164D01*
X294701Y68266D01*
X294636Y68367D01*
X294581Y68488D01*
X294525Y68617D01*
X294479Y68756D01*
X294432Y68904D01*
X294405Y69061D01*
X294386Y69228D01*
X294377Y69403D01*
Y69496D01*
X294386Y69561D01*
X294395Y69635D01*
X294414Y69727D01*
X294432Y69829D01*
X294460Y69949D01*
X294488Y70060D01*
X294534Y70190D01*
X294581Y70310D01*
X294645Y70439D01*
X294719Y70569D01*
X294802Y70698D01*
X294904Y70819D01*
X295015Y70930D01*
X295024Y70939D01*
X295043Y70957D01*
X295080Y70985D01*
X295135Y71022D01*
X295200Y71068D01*
X295274Y71115D01*
X295367Y71170D01*
X295478Y71226D01*
X295598Y71281D01*
X295727Y71337D01*
X295876Y71383D01*
X296033Y71429D01*
X296209Y71466D01*
X296393Y71494D01*
X296588Y71512D01*
X296800Y71522D01*
X296810D01*
X296847D01*
X296912D01*
X297004Y71512D01*
D02*
G37*
G36*
X288287Y68663D02*
X288361D01*
X288537Y68654D01*
X288740Y68626D01*
X288953Y68599D01*
X289175Y68552D01*
X289397Y68497D01*
X289406D01*
X289424Y68488D01*
X289452Y68478D01*
X289489Y68469D01*
X289591Y68432D01*
X289721Y68377D01*
X289869Y68321D01*
X290017Y68247D01*
X290174Y68155D01*
X290322Y68062D01*
X290340Y68053D01*
X290387Y68016D01*
X290451Y67960D01*
X290534Y67886D01*
X290627Y67803D01*
X290720Y67701D01*
X290821Y67600D01*
X290905Y67479D01*
X290914Y67461D01*
X290942Y67424D01*
X290979Y67359D01*
X291025Y67267D01*
X291080Y67156D01*
X291126Y67026D01*
X291182Y66878D01*
X291228Y66712D01*
Y66693D01*
X291238Y66665D01*
X291247Y66638D01*
X291256Y66545D01*
X291274Y66416D01*
X291293Y66268D01*
X291312Y66092D01*
X291321Y65898D01*
X291330Y65685D01*
Y63382D01*
X284929D01*
Y65842D01*
X284938Y66009D01*
X284948Y66194D01*
X284966Y66379D01*
X284994Y66564D01*
X285021Y66721D01*
Y66730D01*
X285031Y66749D01*
Y66776D01*
X285049Y66813D01*
X285077Y66915D01*
X285123Y67045D01*
X285188Y67193D01*
X285271Y67350D01*
X285364Y67507D01*
X285484Y67655D01*
X285493Y67664D01*
X285503Y67674D01*
X285530Y67701D01*
X285558Y67738D01*
X285651Y67831D01*
X285780Y67942D01*
X285937Y68062D01*
X286122Y68192D01*
X286335Y68312D01*
X286576Y68414D01*
X286585D01*
X286603Y68423D01*
X286640Y68441D01*
X286696Y68451D01*
X286761Y68478D01*
X286835Y68497D01*
X286918Y68515D01*
X287019Y68543D01*
X287121Y68571D01*
X287242Y68589D01*
X287501Y68636D01*
X287787Y68663D01*
X288102Y68673D01*
X288111D01*
X288130D01*
X288176D01*
X288222D01*
X288287Y68663D01*
D02*
G37*
G36*
X299122Y65574D02*
X298447D01*
X298456Y65565D01*
X298484Y65546D01*
X298521Y65518D01*
X298567Y65472D01*
X298623Y65417D01*
X298697Y65352D01*
X298762Y65278D01*
X298835Y65185D01*
X298909Y65084D01*
X298974Y64973D01*
X299039Y64852D01*
X299104Y64723D01*
X299150Y64575D01*
X299187Y64427D01*
X299215Y64260D01*
X299224Y64094D01*
Y64029D01*
X299215Y63946D01*
X299205Y63844D01*
X299187Y63724D01*
X299159Y63594D01*
X299122Y63465D01*
X299067Y63326D01*
X299058Y63308D01*
X299039Y63271D01*
X299002Y63206D01*
X298956Y63132D01*
X298900Y63039D01*
X298835Y62956D01*
X298762Y62873D01*
X298678Y62799D01*
X298669Y62790D01*
X298632Y62771D01*
X298586Y62743D01*
X298512Y62706D01*
X298429Y62660D01*
X298327Y62623D01*
X298216Y62586D01*
X298095Y62558D01*
X298086D01*
X298049Y62549D01*
X297994Y62540D01*
X297920D01*
X297809Y62531D01*
X297689Y62521D01*
X297531Y62512D01*
X297356D01*
X294479D01*
Y63298D01*
X297059D01*
X297069D01*
X297087D01*
X297115D01*
X297161D01*
X297263D01*
X297393Y63308D01*
X297531D01*
X297670Y63317D01*
X297790Y63326D01*
X297892Y63345D01*
X297901D01*
X297938Y63363D01*
X297994Y63382D01*
X298068Y63409D01*
X298142Y63456D01*
X298225Y63511D01*
X298299Y63576D01*
X298373Y63659D01*
X298382Y63668D01*
X298401Y63705D01*
X298429Y63752D01*
X298456Y63826D01*
X298493Y63909D01*
X298521Y64011D01*
X298539Y64122D01*
X298549Y64251D01*
Y64316D01*
X298539Y64381D01*
X298530Y64464D01*
X298502Y64566D01*
X298475Y64677D01*
X298429Y64797D01*
X298373Y64917D01*
X298364Y64936D01*
X298336Y64973D01*
X298299Y65028D01*
X298243Y65093D01*
X298169Y65167D01*
X298086Y65241D01*
X297994Y65306D01*
X297883Y65361D01*
X297864Y65370D01*
X297827Y65380D01*
X297753Y65398D01*
X297652Y65426D01*
X297522Y65454D01*
X297365Y65472D01*
X297180Y65481D01*
X296967Y65491D01*
X294479D01*
Y66277D01*
X299122D01*
Y65574D01*
D02*
G37*
G36*
X293480Y58054D02*
X295459D01*
Y61060D01*
X296218D01*
Y58054D01*
X299122D01*
Y57203D01*
X292721D01*
Y61532D01*
X293480D01*
Y58054D01*
D02*
G37*
%LPC*%
G36*
X296357Y97551D02*
X296347D01*
X296329D01*
X296301Y97542D01*
X296264D01*
X296153Y97523D01*
X296033Y97496D01*
X295885Y97449D01*
X295746Y97403D01*
X295607Y97329D01*
X295487Y97246D01*
X295478D01*
X295468Y97227D01*
X295413Y97181D01*
X295339Y97098D01*
X295256Y96987D01*
X295173Y96848D01*
X295098Y96682D01*
X295043Y96487D01*
X295034Y96386D01*
X295024Y96275D01*
Y96219D01*
X295034Y96182D01*
X295043Y96080D01*
X295071Y95960D01*
X295117Y95812D01*
X295182Y95655D01*
X295274Y95507D01*
X295394Y95359D01*
X295413Y95340D01*
X295459Y95303D01*
X295543Y95239D01*
X295654Y95174D01*
X295783Y95100D01*
X295950Y95035D01*
X296144Y94980D01*
X296357Y94952D01*
Y97551D01*
D02*
G37*
G36*
X296912Y84980D02*
X296754D01*
X296745D01*
X296717D01*
X296671D01*
X296616Y84971D01*
X296542D01*
X296458Y84962D01*
X296273Y84934D01*
X296060Y84888D01*
X295848Y84823D01*
X295635Y84731D01*
X295543Y84666D01*
X295459Y84601D01*
X295450D01*
X295441Y84583D01*
X295394Y84536D01*
X295321Y84453D01*
X295237Y84342D01*
X295163Y84213D01*
X295089Y84055D01*
X295043Y83880D01*
X295024Y83787D01*
Y83639D01*
X295034Y83602D01*
X295043Y83500D01*
X295080Y83380D01*
X295126Y83232D01*
X295210Y83084D01*
X295311Y82936D01*
X295385Y82862D01*
X295459Y82788D01*
X295468D01*
X295478Y82770D01*
X295505Y82751D01*
X295543Y82733D01*
X295580Y82705D01*
X295635Y82677D01*
X295700Y82640D01*
X295774Y82612D01*
X295857Y82575D01*
X295959Y82538D01*
X296060Y82511D01*
X296171Y82483D01*
X296301Y82464D01*
X296430Y82446D01*
X296569Y82427D01*
X296726D01*
X296736D01*
X296763D01*
X296810D01*
X296874Y82437D01*
X296949D01*
X297041Y82446D01*
X297235Y82474D01*
X297457Y82520D01*
X297670Y82575D01*
X297883Y82668D01*
X297975Y82723D01*
X298059Y82788D01*
X298077Y82807D01*
X298123Y82853D01*
X298188Y82927D01*
X298262Y83038D01*
X298345Y83167D01*
X298410Y83325D01*
X298456Y83500D01*
X298465Y83593D01*
X298475Y83695D01*
Y83750D01*
X298465Y83787D01*
X298456Y83889D01*
X298419Y84018D01*
X298373Y84157D01*
X298299Y84314D01*
X298197Y84462D01*
X298132Y84536D01*
X298059Y84610D01*
X298049D01*
X298040Y84629D01*
X298012Y84647D01*
X297975Y84666D01*
X297938Y84694D01*
X297883Y84731D01*
X297818Y84758D01*
X297735Y84795D01*
X297652Y84832D01*
X297559Y84860D01*
X297448Y84897D01*
X297328Y84925D01*
X297207Y84943D01*
X297069Y84962D01*
X296912Y84980D01*
D02*
G37*
G36*
X296357Y70689D02*
X296347D01*
X296329D01*
X296301Y70680D01*
X296264D01*
X296153Y70661D01*
X296033Y70634D01*
X295885Y70587D01*
X295746Y70541D01*
X295607Y70467D01*
X295487Y70384D01*
X295478D01*
X295468Y70365D01*
X295413Y70319D01*
X295339Y70236D01*
X295256Y70125D01*
X295173Y69986D01*
X295098Y69820D01*
X295043Y69625D01*
X295034Y69524D01*
X295024Y69413D01*
Y69357D01*
X295034Y69320D01*
X295043Y69218D01*
X295071Y69098D01*
X295117Y68950D01*
X295182Y68793D01*
X295274Y68645D01*
X295394Y68497D01*
X295413Y68478D01*
X295459Y68441D01*
X295543Y68377D01*
X295654Y68312D01*
X295783Y68238D01*
X295950Y68173D01*
X296144Y68118D01*
X296357Y68090D01*
Y70689D01*
D02*
G37*
G36*
X288083Y67803D02*
X288074D01*
X288037D01*
X287991D01*
X287917Y67794D01*
X287834D01*
X287741Y67785D01*
X287630Y67775D01*
X287519Y67766D01*
X287269Y67720D01*
X287010Y67664D01*
X286770Y67581D01*
X286649Y67526D01*
X286548Y67470D01*
X286539D01*
X286520Y67452D01*
X286492Y67433D01*
X286455Y67415D01*
X286363Y67341D01*
X286252Y67248D01*
X286132Y67128D01*
X286011Y66989D01*
X285910Y66832D01*
X285826Y66665D01*
X285817Y66647D01*
X285808Y66601D01*
X285780Y66517D01*
X285752Y66397D01*
X285734Y66249D01*
X285706Y66064D01*
X285697Y65953D01*
Y65833D01*
X285688Y65713D01*
Y64233D01*
X290571D01*
Y65750D01*
X290562Y65814D01*
X290553Y65953D01*
X290544Y66110D01*
X290525Y66277D01*
X290498Y66443D01*
X290461Y66582D01*
X290451Y66601D01*
X290442Y66647D01*
X290414Y66712D01*
X290377Y66795D01*
X290322Y66887D01*
X290266Y66980D01*
X290201Y67072D01*
X290128Y67165D01*
X290109Y67174D01*
X290072Y67211D01*
X290007Y67267D01*
X289915Y67331D01*
X289794Y67405D01*
X289656Y67489D01*
X289498Y67563D01*
X289323Y67627D01*
X289314D01*
X289295Y67637D01*
X289267Y67646D01*
X289230Y67655D01*
X289184Y67664D01*
X289119Y67683D01*
X289055Y67701D01*
X288981Y67720D01*
X288796Y67748D01*
X288583Y67775D01*
X288342Y67794D01*
X288083Y67803D01*
D02*
G37*
%LPD*%
D10*
X31000Y75000D02*
Y145000D01*
Y75000D02*
X271000D01*
X31000Y105000D02*
X36000D01*
Y115000D01*
X31000D02*
X36000D01*
X31000Y145000D02*
X271000D01*
Y75000D02*
Y145000D01*
D11*
X10502Y90999D02*
X9502Y89999D01*
Y88000D01*
X10502Y87000D01*
X11501D01*
X12501Y88000D01*
Y89999D01*
X13501Y90999D01*
X14500D01*
X15500Y89999D01*
Y88000D01*
X14500Y87000D01*
X9502Y96997D02*
Y92998D01*
X15500D01*
Y96997D01*
X12501Y92998D02*
Y94997D01*
X15500Y98996D02*
X9502D01*
X11501Y100996D01*
X9502Y102995D01*
X15500D01*
Y114991D02*
Y110992D01*
X11501Y114991D01*
X10502D01*
X9502Y113991D01*
Y111992D01*
X10502Y110992D01*
Y116990D02*
X9502Y117990D01*
Y119989D01*
X10502Y120989D01*
X14500D01*
X15500Y119989D01*
Y117990D01*
X14500Y116990D01*
X10502D01*
X15500Y126987D02*
Y122988D01*
X11501Y126987D01*
X10502D01*
X9502Y125987D01*
Y123988D01*
X10502Y122988D01*
Y128986D02*
X9502Y129986D01*
Y131985D01*
X10502Y132985D01*
X14500D01*
X15500Y131985D01*
Y129986D01*
X14500Y128986D01*
X10502D01*
X294002Y134000D02*
X300000D01*
Y136999D01*
X299000Y137999D01*
X298001D01*
X297001Y136999D01*
Y134000D01*
Y136999D01*
X296001Y137999D01*
X295002D01*
X294002Y136999D01*
Y134000D01*
X296001Y139998D02*
X300000D01*
X298001D01*
X297001Y140998D01*
X296001Y141997D01*
Y142997D01*
Y146996D02*
Y148995D01*
X297001Y149995D01*
X300000D01*
Y146996D01*
X299000Y145996D01*
X298001Y146996D01*
Y149995D01*
X300000Y151994D02*
X294002D01*
X298001D02*
X296001Y154993D01*
X298001Y151994D02*
X300000Y154993D01*
Y160991D02*
Y158992D01*
X299000Y157992D01*
X297001D01*
X296001Y158992D01*
Y160991D01*
X297001Y161991D01*
X298001D01*
Y157992D01*
X272002Y18000D02*
Y21999D01*
Y19999D01*
X278000D01*
X272002Y23998D02*
X278000D01*
X275001D01*
X274001Y24998D01*
Y26997D01*
X275001Y27997D01*
X278000D01*
X274001Y29996D02*
X278000D01*
X276001D01*
X275001Y30996D01*
X274001Y31995D01*
Y32995D01*
X278000Y36994D02*
Y38993D01*
X277000Y39993D01*
X275001D01*
X274001Y38993D01*
Y36994D01*
X275001Y35994D01*
X277000D01*
X278000Y36994D01*
X273002Y42992D02*
X274001D01*
Y41992D01*
Y43992D01*
Y42992D01*
X277000D01*
X278000Y43992D01*
X273002Y47990D02*
X274001D01*
Y46991D01*
Y48990D01*
Y47990D01*
X277000D01*
X278000Y48990D01*
Y51989D02*
Y53988D01*
Y52989D01*
X272002D01*
Y51989D01*
X278000Y59986D02*
Y57987D01*
X277000Y56987D01*
X275001D01*
X274001Y57987D01*
Y59986D01*
X275001Y60986D01*
X276001D01*
Y56987D01*
X20500Y143500D02*
X22499D01*
X21500D01*
Y149498D01*
X20500Y148498D01*
X210000Y181998D02*
Y176000D01*
X213999D01*
X216998Y179999D02*
X218997D01*
X219997Y178999D01*
Y176000D01*
X216998D01*
X215998Y177000D01*
X216998Y177999D01*
X219997D01*
X221996Y174001D02*
Y179999D01*
X224995D01*
X225995Y178999D01*
Y177000D01*
X224995Y176000D01*
X221996D01*
X231993Y179999D02*
X228994D01*
X227994Y178999D01*
Y177000D01*
X228994Y176000D01*
X231993D01*
X203000Y39998D02*
Y34000D01*
X205999D01*
X206999Y35000D01*
Y35999D01*
X205999Y36999D01*
X203000D01*
X205999D01*
X206999Y37999D01*
Y38998D01*
X205999Y39998D01*
X203000D01*
X208998Y34000D02*
X210997D01*
X209998D01*
Y39998D01*
X208998D01*
X213996Y34000D02*
X215996D01*
X214996D01*
Y37999D01*
X213996D01*
X218995Y34000D02*
Y37999D01*
X221994D01*
X222993Y36999D01*
Y34000D01*
X224993D02*
Y39998D01*
Y35999D02*
X227992Y37999D01*
X224993Y35999D02*
X227992Y34000D01*
X238000Y39798D02*
Y33800D01*
Y36799D01*
X241999D01*
Y39798D01*
Y33800D01*
X244998D02*
X246997D01*
X247997Y34800D01*
Y36799D01*
X246997Y37799D01*
X244998D01*
X243998Y36799D01*
Y34800D01*
X244998Y33800D01*
X249996Y37799D02*
Y33800D01*
Y35799D01*
X250996Y36799D01*
X251995Y37799D01*
X252995D01*
X255994Y33800D02*
Y37799D01*
X258993D01*
X259993Y36799D01*
Y33800D01*
X246000Y181998D02*
Y176000D01*
X248999D01*
X249999Y177000D01*
Y177999D01*
X248999Y178999D01*
X246000D01*
X248999D01*
X249999Y179999D01*
Y180998D01*
X248999Y181998D01*
X246000D01*
X251998Y176000D02*
X253997D01*
X252998D01*
Y181998D01*
X251998D01*
X256996Y176000D02*
X258996D01*
X257996D01*
Y179999D01*
X256996D01*
X261995Y176000D02*
Y179999D01*
X264994D01*
X265993Y178999D01*
Y176000D01*
X267993D02*
Y181998D01*
Y177999D02*
X270992Y179999D01*
X267993Y177999D02*
X270992Y176000D01*
X19000Y166000D02*
Y171998D01*
X21999D01*
X22999Y170998D01*
Y168999D01*
X21999Y167999D01*
X19000D01*
X28997Y166000D02*
X24998D01*
X28997Y169999D01*
Y170998D01*
X27997Y171998D01*
X25998D01*
X24998Y170998D01*
X32000Y58000D02*
Y63998D01*
X34999D01*
X35999Y62998D01*
Y60999D01*
X34999Y59999D01*
X32000D01*
X37998Y58000D02*
X39997D01*
X38998D01*
Y63998D01*
X37998Y62998D01*
X19000Y175000D02*
Y180998D01*
X21999D01*
X22999Y179998D01*
Y177999D01*
X21999Y176999D01*
X19000D01*
X27997Y175000D02*
Y180998D01*
X24998Y177999D01*
X28997D01*
X115499Y37498D02*
X114499Y38498D01*
X112500D01*
X111500Y37498D01*
Y33500D01*
X112500Y32500D01*
X114499D01*
X115499Y33500D01*
Y35499D01*
X113499D01*
X117498Y32500D02*
Y38498D01*
X121497Y32500D01*
Y38498D01*
X123496D02*
Y32500D01*
X126495D01*
X127495Y33500D01*
Y37498D01*
X126495Y38498D01*
X123496D01*
X159999Y196998D02*
X158999Y197998D01*
X157000D01*
X156000Y196998D01*
Y193000D01*
X157000Y192000D01*
X158999D01*
X159999Y193000D01*
X161998Y192000D02*
Y195999D01*
X163997Y197998D01*
X165997Y195999D01*
Y192000D01*
Y194999D01*
X161998D01*
X167996Y192000D02*
Y197998D01*
X171995Y192000D01*
Y197998D01*
X173994Y192000D02*
Y197998D01*
X176993D01*
X177993Y196998D01*
Y194999D01*
X176993Y193999D01*
X173994D01*
X175994D02*
X177993Y192000D01*
X94999Y186998D02*
X93999Y187998D01*
X92000D01*
X91000Y186998D01*
Y183000D01*
X92000Y182000D01*
X93999D01*
X94999Y183000D01*
X96998Y182000D02*
Y185999D01*
X98997Y187998D01*
X100997Y185999D01*
Y182000D01*
Y184999D01*
X96998D01*
X102996Y182000D02*
Y187998D01*
X106995Y182000D01*
Y187998D01*
X112993Y186998D02*
X111993Y187998D01*
X109994D01*
X108994Y186998D01*
Y183000D01*
X109994Y182000D01*
X111993D01*
X112993Y183000D01*
X157499Y184498D02*
X156499Y185498D01*
X154500D01*
X153500Y184498D01*
Y180500D01*
X154500Y179500D01*
X156499D01*
X157499Y180500D01*
X159498Y185498D02*
X163497D01*
Y184498D01*
X159498Y180500D01*
Y179500D01*
X75499Y38498D02*
X71500D01*
Y35499D01*
X73499Y36499D01*
X74499D01*
X75499Y35499D01*
Y33500D01*
X74499Y32500D01*
X72500D01*
X71500Y33500D01*
X77498Y38498D02*
Y34499D01*
X79497Y32500D01*
X81497Y34499D01*
Y38498D01*
X151500Y37498D02*
X152500Y38498D01*
X154499D01*
X155499Y37498D01*
Y36499D01*
X154499Y35499D01*
X153499D01*
X154499D01*
X155499Y34499D01*
Y33500D01*
X154499Y32500D01*
X152500D01*
X151500Y33500D01*
X157498Y38498D02*
Y34499D01*
X159497Y32500D01*
X161497Y34499D01*
Y38498D01*
X163496Y37498D02*
X164496Y38498D01*
X166495D01*
X167495Y37498D01*
Y36499D01*
X166495Y35499D01*
X165496D01*
X166495D01*
X167495Y34499D01*
Y33500D01*
X166495Y32500D01*
X164496D01*
X163496Y33500D01*
X1000Y9000D02*
X303000D01*
X303000Y205000D02*
X303000Y9000D01*
X1000Y205000D02*
X303000D01*
X1000D02*
X1000Y9000D01*
M02*
