G04*
G04 #@! TF.GenerationSoftware,Altium Limited,Altium Designer,19.1.8 (144)*
G04*
G04 Layer_Color=16711935*
%FSLAX25Y25*%
%MOIN*%
G70*
G01*
G75*
%ADD11C,0.01000*%
%ADD35C,0.00394*%
D11*
X1000Y9000D02*
X303000D01*
X303000Y205000D02*
X303000Y9000D01*
X1000Y205000D02*
X303000D01*
X1000D02*
X1000Y9000D01*
D35*
X89768Y108169D02*
G03*
X89768Y108169I-1969J0D01*
G01*
X55409Y177520D02*
Y182480D01*
X63874D01*
X55409Y177520D02*
X63874D01*
Y182480D01*
X86768Y177520D02*
Y182480D01*
Y177520D02*
X95232D01*
X86768Y182480D02*
X95232D01*
Y177520D02*
Y182480D01*
X253520Y118268D02*
Y126732D01*
X258480Y118268D02*
Y126732D01*
X253520D02*
X258480D01*
X253520Y118268D02*
X258480D01*
X243520Y90768D02*
Y99232D01*
X248480Y90768D02*
Y99232D01*
X243520D02*
X248480D01*
X243520Y90768D02*
X248480D01*
X258480Y90626D02*
Y99090D01*
X253520Y90626D02*
Y99090D01*
Y90626D02*
X258480D01*
X253520Y99090D02*
X258480D01*
X268480Y118126D02*
Y126591D01*
X263520Y118126D02*
Y126591D01*
Y118126D02*
X268480D01*
X263520Y126591D02*
X268480D01*
X49232Y104520D02*
Y109480D01*
X40768Y104520D02*
X49232D01*
X40768D02*
Y109480D01*
X49232D01*
X99768Y120520D02*
Y125480D01*
Y120520D02*
X108232D01*
X99768Y125480D02*
X108232D01*
Y120520D02*
Y125480D01*
X71658Y104626D02*
Y120374D01*
X91343D01*
X71658Y104626D02*
X91343D01*
Y120374D01*
X137409Y180020D02*
Y184980D01*
X145874Y180020D02*
Y184980D01*
X137409D02*
X145874D01*
X137409Y180020D02*
X145874D01*
M02*
