M48
;Layer_Color=9474304
;FILE_FORMAT=2:5
INCH,LZ
;TYPE=PLATED
T1F00S00C0.02800
T2F00S00C0.03543
T3F00S00C0.04000
T4F00S00C0.04016
T5F00S00C0.15748
%
T01
X00785Y0091
X0087Y0187
T02
X0211157Y0021
X0221
X0247158
X0257
X0289Y0021158
Y0031
X0289394Y0040843
X0046Y0192
X0036158Y0192394
X0055843Y0192
X0065685
X0219
X0228842
X0256
X0265843
X0289394Y0194685
X0289Y0184843
Y0175
T03
X0206Y008
X0216
X0226
X0236
X0246
X0256
X0266
X0196
X0186
X0176
X0166
X0156
X0146
X0136
X0126
X0116
X0106
X0096
X0086
X0076
X0066
X0056
X0046
X0036
Y014
X0046
X0056
X0066
X0076
X0086
X0096
X0106
X0116
X0126
X0136
X0146
X0156
X0166
X0176
X0186
X0196
X0206
X0216
X0226
X0236
X0246
X0256
X0266
T04
X0206Y005
X0216
X0226
X0236
X0246
X0256
X0266
X0196
X0186
X0176
X0166
X0156
X0146
X0136
X0126
X0116
X0106
X0096
X0086
X0076
X0066
X0056
X0076Y0024
Y0014
X0086
X0096
Y0024
X0086
X0116
Y0014
X0126
X0136
Y0024
X0126
X0156
Y0014
X0166
X0176
Y0024
X0166
X0046Y005
X0036
Y01695
X0046
X0056
X0066
X0076
X0086
X0096
X0106
X0116
X0126
X0136
X0146
X0156
X0166
X0176
X0186
X0196
X0148Y0195
X0138
X0128
X01115
X01015
X00915
X0206Y01695
X0216
X0226
X0236
X0246
X0256
X0266
T05
X0014Y0022
X0012Y0193
X029Y01105
M30
