G04*
G04 #@! TF.GenerationSoftware,Altium Limited,Altium Designer,20.0.12 (288)*
G04*
G04 Layer_Color=32768*
%FSLAX25Y25*%
%MOIN*%
G70*
G01*
G75*
%ADD11C,0.01000*%
D11*
X74803Y160039D02*
Y206102D01*
X26181D02*
X74803D01*
X26181Y160039D02*
X74803D01*
X26181D02*
Y206102D01*
X279331Y94488D02*
X313337D01*
X326181Y55118D02*
Y69488D01*
X279331Y55118D02*
X326181D01*
X279331D02*
Y94488D01*
X326181Y69488D02*
Y94488D01*
X313337D02*
X326181D01*
X279724Y165748D02*
X313730D01*
X326575Y126378D02*
Y140748D01*
X279724Y126378D02*
X326575D01*
X279724D02*
Y165748D01*
X326575Y140748D02*
Y165748D01*
X313730D02*
X326575D01*
X202835Y160039D02*
X232480D01*
Y205709D01*
X202835D02*
X232480D01*
X202835Y160291D02*
Y205709D01*
X237402Y59449D02*
X267047D01*
X237402Y13780D02*
Y59449D01*
Y13780D02*
X267047D01*
Y59197D01*
X141000Y41000D02*
Y51000D01*
X110999Y41000D02*
Y51000D01*
Y41000D02*
X141000D01*
Y51000D02*
Y61000D01*
X110999D02*
X141000D01*
X110999Y51000D02*
Y61000D01*
X123188Y176496D02*
X153189D01*
X123188D02*
Y186496D01*
X153189D01*
Y176496D02*
Y186496D01*
X86181Y176102D02*
X116181D01*
X86181D02*
Y186102D01*
X116181D01*
Y176102D02*
Y186102D01*
X201476Y60039D02*
X231122D01*
X201476Y14370D02*
Y60039D01*
Y14370D02*
X231122D01*
Y59787D01*
X243779Y160039D02*
X273425D01*
Y205709D01*
X243779D02*
X273425D01*
X243779Y160291D02*
Y205709D01*
X101000Y41000D02*
Y51000D01*
X70999Y41000D02*
Y51000D01*
Y41000D02*
X101000D01*
Y51000D02*
Y61000D01*
X70999D02*
X101000D01*
X70999Y51000D02*
Y61000D01*
X181000Y41000D02*
Y51000D01*
X150999Y41000D02*
Y51000D01*
Y41000D02*
X181000D01*
Y51000D02*
Y61000D01*
X150999D02*
X181000D01*
X150999Y51000D02*
Y61000D01*
X1000Y15748D02*
X303000D01*
X303000Y205000D02*
X303000Y15748D01*
X1000Y205000D02*
X303000D01*
X1000D02*
X1000Y15748D01*
M02*
