G04*
G04 #@! TF.GenerationSoftware,Altium Limited,Altium Designer,20.0.12 (288)*
G04*
G04 Layer_Physical_Order=1*
G04 Layer_Color=255*
%FSLAX25Y25*%
%MOIN*%
G70*
G01*
G75*
%ADD11C,0.01000*%
%ADD12R,0.04134X0.05512*%
%ADD18C,0.03000*%
%ADD19C,0.02500*%
%ADD20C,0.02000*%
%ADD21C,0.05906*%
%ADD22R,0.05906X0.05906*%
%ADD23C,0.10000*%
%ADD24O,0.10000X0.10048*%
%ADD25C,0.02362*%
G36*
X299213Y122047D02*
X279528D01*
Y98425D01*
X299213D01*
Y19685D01*
X27559D01*
Y39370D01*
X3937D01*
Y181102D01*
X23622D01*
Y200787D01*
X299213D01*
Y122047D01*
D02*
G37*
%LPC*%
G36*
X132142Y185449D02*
X124236D01*
Y180573D01*
X115603D01*
X115149Y180961D01*
X115168Y181102D01*
X115032Y182134D01*
X114634Y183096D01*
X114000Y183922D01*
X113174Y184555D01*
X112213Y184953D01*
X111181Y185089D01*
X110149Y184953D01*
X109188Y184555D01*
X108362Y183922D01*
X107728Y183096D01*
X107330Y182134D01*
X107194Y181102D01*
X107330Y180070D01*
X107728Y179109D01*
X108362Y178283D01*
X109188Y177650D01*
X110149Y177251D01*
X110687Y177181D01*
X110866Y176653D01*
X108971Y174758D01*
X82310D01*
X82281Y174801D01*
X81560Y175283D01*
X80709Y175452D01*
X79858Y175283D01*
X79136Y174801D01*
X78654Y174079D01*
X78485Y173228D01*
X78654Y172377D01*
X79136Y171656D01*
X79858Y171174D01*
X80709Y171004D01*
X81560Y171174D01*
X82281Y171656D01*
X82310Y171699D01*
X109604D01*
X110189Y171815D01*
X110686Y172147D01*
X116053Y177514D01*
X125736D01*
X125884Y177543D01*
X132142D01*
Y185449D01*
D02*
G37*
G36*
X148189Y185483D02*
X147157Y185347D01*
X146196Y184949D01*
X145370Y184315D01*
X144736Y183490D01*
X144338Y182528D01*
X144202Y181496D01*
X144338Y180464D01*
X144736Y179503D01*
X145370Y178677D01*
X146196Y178043D01*
X147157Y177645D01*
X148189Y177509D01*
X149221Y177645D01*
X150182Y178043D01*
X151008Y178677D01*
X151642Y179503D01*
X152040Y180464D01*
X152176Y181496D01*
X152040Y182528D01*
X151642Y183490D01*
X151008Y184315D01*
X150182Y184949D01*
X149221Y185347D01*
X148189Y185483D01*
D02*
G37*
G36*
X95134Y185055D02*
X87228D01*
Y177150D01*
X95134D01*
Y185055D01*
D02*
G37*
G36*
X101181Y185089D02*
X100149Y184953D01*
X99188Y184555D01*
X98362Y183922D01*
X97728Y183096D01*
X97330Y182134D01*
X97194Y181102D01*
X97330Y180070D01*
X97728Y179109D01*
X98362Y178283D01*
X99188Y177650D01*
X100149Y177251D01*
X101181Y177115D01*
X102213Y177251D01*
X103174Y177650D01*
X104000Y178283D01*
X104634Y179109D01*
X105032Y180070D01*
X105168Y181102D01*
X105032Y182134D01*
X104634Y183096D01*
X104000Y183922D01*
X103174Y184555D01*
X102213Y184953D01*
X101181Y185089D01*
D02*
G37*
G36*
X254437Y173212D02*
Y169791D01*
X257858D01*
X257788Y170323D01*
X257390Y171285D01*
X256756Y172110D01*
X255930Y172744D01*
X254969Y173142D01*
X254437Y173212D01*
D02*
G37*
G36*
X213492D02*
Y169791D01*
X216913D01*
X216843Y170323D01*
X216445Y171285D01*
X215811Y172110D01*
X214986Y172744D01*
X214024Y173142D01*
X213492Y173212D01*
D02*
G37*
G36*
X65854D02*
Y169791D01*
X69275D01*
X69205Y170323D01*
X68807Y171285D01*
X68173Y172110D01*
X67348Y172744D01*
X66386Y173142D01*
X65854Y173212D01*
D02*
G37*
G36*
X64854Y173212D02*
X64323Y173142D01*
X63361Y172744D01*
X62535Y172110D01*
X61902Y171285D01*
X61503Y170323D01*
X61433Y169791D01*
X64854D01*
Y173212D01*
D02*
G37*
G36*
X212492D02*
X211960Y173142D01*
X210999Y172744D01*
X210173Y172110D01*
X209539Y171285D01*
X209141Y170323D01*
X209071Y169791D01*
X212492D01*
Y173212D01*
D02*
G37*
G36*
X253437D02*
X252905Y173142D01*
X251944Y172744D01*
X251118Y172110D01*
X250484Y171285D01*
X250086Y170323D01*
X250016Y169791D01*
X253437D01*
Y173212D01*
D02*
G37*
G36*
X148441Y172653D02*
X145874D01*
Y169398D01*
X148441D01*
Y172653D01*
D02*
G37*
G36*
X144874D02*
X142307D01*
Y169398D01*
X144874D01*
Y172653D01*
D02*
G37*
G36*
X64854Y168791D02*
X61433D01*
X61503Y168260D01*
X61902Y167298D01*
X62535Y166472D01*
X63361Y165839D01*
X64323Y165440D01*
X64854Y165370D01*
Y168791D01*
D02*
G37*
G36*
X253437D02*
X250016D01*
X250086Y168260D01*
X250484Y167298D01*
X251118Y166472D01*
X251944Y165839D01*
X252905Y165440D01*
X253437Y165370D01*
Y168791D01*
D02*
G37*
G36*
X212492D02*
X209071D01*
X209141Y168260D01*
X209539Y167298D01*
X210173Y166472D01*
X210999Y165839D01*
X211960Y165440D01*
X212492Y165370D01*
Y168791D01*
D02*
G37*
G36*
X216913D02*
X213492D01*
Y165370D01*
X214024Y165440D01*
X214986Y165839D01*
X215811Y166472D01*
X216445Y167298D01*
X216843Y168260D01*
X216913Y168791D01*
D02*
G37*
G36*
X257858D02*
X254437D01*
Y165370D01*
X254969Y165440D01*
X255930Y165839D01*
X256756Y166472D01*
X257390Y167298D01*
X257788Y168260D01*
X257858Y168791D01*
D02*
G37*
G36*
X69275D02*
X65854D01*
Y165370D01*
X66386Y165440D01*
X67348Y165839D01*
X68173Y166472D01*
X68807Y167298D01*
X69205Y168260D01*
X69275Y168791D01*
D02*
G37*
G36*
X55512Y173278D02*
X54480Y173142D01*
X53518Y172744D01*
X52693Y172110D01*
X52059Y171285D01*
X51661Y170323D01*
X51525Y169291D01*
X51661Y168260D01*
X52059Y167298D01*
X52693Y166472D01*
X53518Y165839D01*
X54480Y165440D01*
X55512Y165305D01*
X56544Y165440D01*
X57505Y165839D01*
X58331Y166472D01*
X58965Y167298D01*
X59363Y168260D01*
X59499Y169291D01*
X59363Y170323D01*
X58965Y171285D01*
X58331Y172110D01*
X57505Y172744D01*
X56544Y173142D01*
X55512Y173278D01*
D02*
G37*
G36*
X45669D02*
X44637Y173142D01*
X43676Y172744D01*
X42850Y172110D01*
X42217Y171285D01*
X41818Y170323D01*
X41682Y169291D01*
X41818Y168260D01*
X42217Y167298D01*
X42850Y166472D01*
X43676Y165839D01*
X44637Y165440D01*
X45669Y165305D01*
X46701Y165440D01*
X47663Y165839D01*
X48488Y166472D01*
X49122Y167298D01*
X49520Y168260D01*
X49656Y169291D01*
X49520Y170323D01*
X49122Y171285D01*
X48488Y172110D01*
X47663Y172744D01*
X46701Y173142D01*
X45669Y173278D01*
D02*
G37*
G36*
X148441Y168398D02*
X145874D01*
Y165142D01*
X148441D01*
Y168398D01*
D02*
G37*
G36*
X144874D02*
X142307D01*
Y165142D01*
X144874D01*
Y168398D01*
D02*
G37*
G36*
X138189Y185483D02*
X137157Y185347D01*
X136196Y184949D01*
X135370Y184315D01*
X134736Y183490D01*
X134338Y182528D01*
X134202Y181496D01*
X134338Y180464D01*
X134736Y179503D01*
X135370Y178677D01*
X136196Y178043D01*
X136660Y177851D01*
Y172653D01*
X135024D01*
Y165142D01*
X141157D01*
Y172653D01*
X139718D01*
Y177851D01*
X140182Y178043D01*
X141008Y178677D01*
X141642Y179503D01*
X142040Y180464D01*
X142176Y181496D01*
X142040Y182528D01*
X141642Y183490D01*
X141008Y184315D01*
X140182Y184949D01*
X139221Y185347D01*
X138189Y185483D01*
D02*
G37*
G36*
X176500Y157921D02*
Y154500D01*
X179921D01*
X179851Y155032D01*
X179453Y155993D01*
X178819Y156819D01*
X177993Y157453D01*
X177032Y157851D01*
X176500Y157921D01*
D02*
G37*
G36*
X46500D02*
Y154500D01*
X49921D01*
X49851Y155032D01*
X49453Y155993D01*
X48819Y156819D01*
X47993Y157453D01*
X47032Y157851D01*
X46500Y157921D01*
D02*
G37*
G36*
X175500D02*
X174968Y157851D01*
X174007Y157453D01*
X173181Y156819D01*
X172547Y155993D01*
X172149Y155032D01*
X172079Y154500D01*
X175500D01*
Y157921D01*
D02*
G37*
G36*
X45500D02*
X44968Y157851D01*
X44007Y157453D01*
X43181Y156819D01*
X42547Y155993D01*
X42149Y155032D01*
X42079Y154500D01*
X45500D01*
Y157921D01*
D02*
G37*
G36*
X288976Y159499D02*
X287945Y159363D01*
X286983Y158965D01*
X286157Y158331D01*
X285524Y157505D01*
X285125Y156544D01*
X284990Y155512D01*
X285125Y154480D01*
X285524Y153518D01*
X286157Y152693D01*
X286983Y152059D01*
X287945Y151661D01*
X288976Y151525D01*
X290008Y151661D01*
X290970Y152059D01*
X291795Y152693D01*
X292429Y153518D01*
X292827Y154480D01*
X292963Y155512D01*
X292827Y156544D01*
X292429Y157505D01*
X291795Y158331D01*
X290970Y158965D01*
X290008Y159363D01*
X288976Y159499D01*
D02*
G37*
G36*
X49921Y153500D02*
X46500D01*
Y150079D01*
X47032Y150149D01*
X47993Y150547D01*
X48819Y151181D01*
X49453Y152007D01*
X49851Y152968D01*
X49921Y153500D01*
D02*
G37*
G36*
X179921D02*
X176500D01*
Y150079D01*
X177032Y150149D01*
X177993Y150547D01*
X178819Y151181D01*
X179453Y152007D01*
X179851Y152968D01*
X179921Y153500D01*
D02*
G37*
G36*
X45500D02*
X42079D01*
X42149Y152968D01*
X42547Y152007D01*
X43181Y151181D01*
X44007Y150547D01*
X44968Y150149D01*
X45500Y150079D01*
Y153500D01*
D02*
G37*
G36*
X175500D02*
X172079D01*
X172149Y152968D01*
X172547Y152007D01*
X173181Y151181D01*
X174007Y150547D01*
X174968Y150149D01*
X175500Y150079D01*
Y153500D01*
D02*
G37*
G36*
X176500Y143921D02*
Y140500D01*
X179921D01*
X179851Y141032D01*
X179453Y141993D01*
X178819Y142819D01*
X177993Y143453D01*
X177032Y143851D01*
X176500Y143921D01*
D02*
G37*
G36*
X46500D02*
Y140500D01*
X49921D01*
X49851Y141032D01*
X49453Y141993D01*
X48819Y142819D01*
X47993Y143453D01*
X47032Y143851D01*
X46500Y143921D01*
D02*
G37*
G36*
X45500D02*
X44968Y143851D01*
X44007Y143453D01*
X43181Y142819D01*
X42547Y141993D01*
X42149Y141032D01*
X42079Y140500D01*
X45500D01*
Y143921D01*
D02*
G37*
G36*
X175500D02*
X174968Y143851D01*
X174007Y143453D01*
X173181Y142819D01*
X172547Y141993D01*
X172149Y141032D01*
X172079Y140500D01*
X175500D01*
Y143921D01*
D02*
G37*
G36*
X263779Y173278D02*
X262748Y173142D01*
X261786Y172744D01*
X260960Y172110D01*
X260327Y171285D01*
X259928Y170323D01*
X259793Y169291D01*
X259928Y168260D01*
X260327Y167298D01*
X260960Y166472D01*
X261786Y165839D01*
X262250Y165646D01*
Y157548D01*
X262367Y156963D01*
X262698Y156466D01*
X262818Y156346D01*
X262547Y155993D01*
X262149Y155032D01*
X262013Y154000D01*
X262149Y152968D01*
X262547Y152007D01*
X263181Y151181D01*
X264007Y150547D01*
X264471Y150355D01*
Y143645D01*
X264007Y143453D01*
X263181Y142819D01*
X262547Y141993D01*
X262149Y141032D01*
X262013Y140000D01*
X262149Y138968D01*
X262547Y138007D01*
X262877Y137577D01*
X262631Y137077D01*
X259369D01*
X259123Y137577D01*
X259453Y138007D01*
X259851Y138968D01*
X259987Y140000D01*
X259851Y141032D01*
X259453Y141993D01*
X258819Y142819D01*
X257993Y143453D01*
X257529Y143645D01*
Y150355D01*
X257993Y150547D01*
X258819Y151181D01*
X259453Y152007D01*
X259851Y152968D01*
X259987Y154000D01*
X259851Y155032D01*
X259453Y155993D01*
X258819Y156819D01*
X257993Y157453D01*
X257032Y157851D01*
X256000Y157987D01*
X254968Y157851D01*
X254504Y157659D01*
X241790Y170373D01*
X241294Y170704D01*
X240709Y170821D01*
X226480D01*
X226287Y171285D01*
X225654Y172110D01*
X224828Y172744D01*
X223867Y173142D01*
X222835Y173278D01*
X221803Y173142D01*
X220841Y172744D01*
X220016Y172110D01*
X219382Y171285D01*
X218984Y170323D01*
X218848Y169291D01*
X218984Y168260D01*
X219382Y167298D01*
X220016Y166472D01*
X220841Y165839D01*
X221803Y165440D01*
X222835Y165305D01*
X223867Y165440D01*
X224828Y165839D01*
X225654Y166472D01*
X226287Y167298D01*
X226480Y167762D01*
X240075D01*
X252341Y155496D01*
X252149Y155032D01*
X252013Y154000D01*
X252149Y152968D01*
X252547Y152007D01*
X253181Y151181D01*
X254007Y150547D01*
X254471Y150355D01*
Y143645D01*
X254007Y143453D01*
X253181Y142819D01*
X252547Y141993D01*
X252149Y141032D01*
X252078Y140495D01*
X251550Y140315D01*
X251534Y140331D01*
X251038Y140663D01*
X250453Y140779D01*
X249884D01*
X249851Y141032D01*
X249453Y141993D01*
X248819Y142819D01*
X247993Y143453D01*
X247529Y143645D01*
Y150355D01*
X247993Y150547D01*
X248819Y151181D01*
X249453Y152007D01*
X249851Y152968D01*
X249987Y154000D01*
X249851Y155032D01*
X249453Y155993D01*
X248819Y156819D01*
X247993Y157453D01*
X247032Y157851D01*
X246000Y157987D01*
X244968Y157851D01*
X244007Y157453D01*
X243181Y156819D01*
X242547Y155993D01*
X242149Y155032D01*
X242013Y154000D01*
X242149Y152968D01*
X242547Y152007D01*
X243181Y151181D01*
X244007Y150547D01*
X244471Y150355D01*
Y143645D01*
X244007Y143453D01*
X243181Y142819D01*
X242547Y141993D01*
X242149Y141032D01*
X242013Y140000D01*
X242149Y138968D01*
X242547Y138007D01*
X243181Y137181D01*
X244007Y136547D01*
X244968Y136149D01*
X246000Y136013D01*
X247032Y136149D01*
X247993Y136547D01*
X248819Y137181D01*
X249233Y137721D01*
X249819D01*
X253074Y134466D01*
X253570Y134134D01*
X254156Y134018D01*
X278854D01*
X279440Y134134D01*
X279936Y134466D01*
X287480Y142010D01*
X287945Y141818D01*
X288976Y141682D01*
X290008Y141818D01*
X290970Y142217D01*
X291795Y142850D01*
X292429Y143676D01*
X292827Y144637D01*
X292963Y145669D01*
X292827Y146701D01*
X292429Y147663D01*
X291795Y148488D01*
X290970Y149122D01*
X290008Y149520D01*
X288976Y149656D01*
X287945Y149520D01*
X286983Y149122D01*
X286157Y148488D01*
X285524Y147663D01*
X285125Y146701D01*
X284990Y145669D01*
X285125Y144637D01*
X285318Y144173D01*
X278221Y137077D01*
X269369D01*
X269123Y137577D01*
X269453Y138007D01*
X269851Y138968D01*
X269987Y140000D01*
X269851Y141032D01*
X269453Y141993D01*
X268819Y142819D01*
X267993Y143453D01*
X267529Y143645D01*
Y150355D01*
X267993Y150547D01*
X268819Y151181D01*
X269453Y152007D01*
X269851Y152968D01*
X269987Y154000D01*
X269851Y155032D01*
X269453Y155993D01*
X268819Y156819D01*
X267993Y157453D01*
X267032Y157851D01*
X266000Y157987D01*
X265713Y157949D01*
X265309Y158317D01*
Y165646D01*
X265773Y165839D01*
X266599Y166472D01*
X267232Y167298D01*
X267631Y168260D01*
X267766Y169291D01*
X267631Y170323D01*
X267232Y171285D01*
X266599Y172110D01*
X265773Y172744D01*
X264811Y173142D01*
X263779Y173278D01*
D02*
G37*
G36*
X289476Y139748D02*
Y136327D01*
X292897D01*
X292827Y136859D01*
X292429Y137820D01*
X291795Y138646D01*
X290970Y139279D01*
X290008Y139678D01*
X289476Y139748D01*
D02*
G37*
G36*
X288476Y139748D02*
X287945Y139678D01*
X286983Y139279D01*
X286157Y138646D01*
X285524Y137820D01*
X285125Y136859D01*
X285055Y136327D01*
X288476D01*
Y139748D01*
D02*
G37*
G36*
X179921Y139500D02*
X176500D01*
Y136079D01*
X177032Y136149D01*
X177993Y136547D01*
X178819Y137181D01*
X179453Y138007D01*
X179851Y138968D01*
X179921Y139500D01*
D02*
G37*
G36*
X49921D02*
X46500D01*
Y136079D01*
X47032Y136149D01*
X47993Y136547D01*
X48819Y137181D01*
X49453Y138007D01*
X49851Y138968D01*
X49921Y139500D01*
D02*
G37*
G36*
X45500D02*
X42079D01*
X42149Y138968D01*
X42547Y138007D01*
X43181Y137181D01*
X44007Y136547D01*
X44968Y136149D01*
X45500Y136079D01*
Y139500D01*
D02*
G37*
G36*
X175500D02*
X172079D01*
X172149Y138968D01*
X172547Y138007D01*
X173181Y137181D01*
X174007Y136547D01*
X174968Y136149D01*
X175500Y136079D01*
Y139500D01*
D02*
G37*
G36*
X236000Y157987D02*
X234968Y157851D01*
X234007Y157453D01*
X233181Y156819D01*
X232547Y155993D01*
X232149Y155032D01*
X232013Y154000D01*
X232149Y152968D01*
X232547Y152007D01*
X233181Y151181D01*
X234007Y150547D01*
X234471Y150355D01*
Y143645D01*
X234007Y143453D01*
X233181Y142819D01*
X232547Y141993D01*
X232149Y141032D01*
X232013Y140000D01*
X232149Y138968D01*
X232547Y138007D01*
X233181Y137181D01*
X234007Y136547D01*
X234968Y136149D01*
X236000Y136013D01*
X237032Y136149D01*
X237993Y136547D01*
X238819Y137181D01*
X239453Y138007D01*
X239851Y138968D01*
X239987Y140000D01*
X239851Y141032D01*
X239453Y141993D01*
X238819Y142819D01*
X237993Y143453D01*
X237529Y143645D01*
Y150355D01*
X237993Y150547D01*
X238819Y151181D01*
X239453Y152007D01*
X239851Y152968D01*
X239987Y154000D01*
X239851Y155032D01*
X239453Y155993D01*
X238819Y156819D01*
X237993Y157453D01*
X237032Y157851D01*
X236000Y157987D01*
D02*
G37*
G36*
X226000D02*
X224968Y157851D01*
X224007Y157453D01*
X223181Y156819D01*
X222547Y155993D01*
X222149Y155032D01*
X222013Y154000D01*
X222149Y152968D01*
X222547Y152007D01*
X223181Y151181D01*
X224007Y150547D01*
X224471Y150355D01*
Y143645D01*
X224007Y143453D01*
X223181Y142819D01*
X222547Y141993D01*
X222149Y141032D01*
X222013Y140000D01*
X222149Y138968D01*
X222547Y138007D01*
X223181Y137181D01*
X224007Y136547D01*
X224968Y136149D01*
X226000Y136013D01*
X227032Y136149D01*
X227993Y136547D01*
X228819Y137181D01*
X229453Y138007D01*
X229851Y138968D01*
X229987Y140000D01*
X229851Y141032D01*
X229453Y141993D01*
X228819Y142819D01*
X227993Y143453D01*
X227529Y143645D01*
Y150355D01*
X227993Y150547D01*
X228819Y151181D01*
X229453Y152007D01*
X229851Y152968D01*
X229987Y154000D01*
X229851Y155032D01*
X229453Y155993D01*
X228819Y156819D01*
X227993Y157453D01*
X227032Y157851D01*
X226000Y157987D01*
D02*
G37*
G36*
X216000D02*
X214968Y157851D01*
X214007Y157453D01*
X213181Y156819D01*
X212547Y155993D01*
X212149Y155032D01*
X212013Y154000D01*
X212149Y152968D01*
X212547Y152007D01*
X213181Y151181D01*
X214007Y150547D01*
X214471Y150355D01*
Y143645D01*
X214007Y143453D01*
X213181Y142819D01*
X212547Y141993D01*
X212149Y141032D01*
X212013Y140000D01*
X212149Y138968D01*
X212547Y138007D01*
X213181Y137181D01*
X214007Y136547D01*
X214968Y136149D01*
X216000Y136013D01*
X217032Y136149D01*
X217993Y136547D01*
X218819Y137181D01*
X219453Y138007D01*
X219851Y138968D01*
X219987Y140000D01*
X219851Y141032D01*
X219453Y141993D01*
X218819Y142819D01*
X217993Y143453D01*
X217529Y143645D01*
Y150355D01*
X217993Y150547D01*
X218819Y151181D01*
X219453Y152007D01*
X219851Y152968D01*
X219987Y154000D01*
X219851Y155032D01*
X219453Y155993D01*
X218819Y156819D01*
X217993Y157453D01*
X217032Y157851D01*
X216000Y157987D01*
D02*
G37*
G36*
X206000D02*
X204968Y157851D01*
X204007Y157453D01*
X203181Y156819D01*
X202547Y155993D01*
X202149Y155032D01*
X202013Y154000D01*
X202149Y152968D01*
X202547Y152007D01*
X203181Y151181D01*
X204007Y150547D01*
X204471Y150355D01*
Y143645D01*
X204007Y143453D01*
X203181Y142819D01*
X202547Y141993D01*
X202149Y141032D01*
X202013Y140000D01*
X202149Y138968D01*
X202547Y138007D01*
X203181Y137181D01*
X204007Y136547D01*
X204968Y136149D01*
X206000Y136013D01*
X207032Y136149D01*
X207993Y136547D01*
X208819Y137181D01*
X209453Y138007D01*
X209851Y138968D01*
X209987Y140000D01*
X209851Y141032D01*
X209453Y141993D01*
X208819Y142819D01*
X207993Y143453D01*
X207529Y143645D01*
Y150355D01*
X207993Y150547D01*
X208819Y151181D01*
X209453Y152007D01*
X209851Y152968D01*
X209987Y154000D01*
X209851Y155032D01*
X209453Y155993D01*
X208819Y156819D01*
X207993Y157453D01*
X207032Y157851D01*
X206000Y157987D01*
D02*
G37*
G36*
X196000D02*
X194968Y157851D01*
X194007Y157453D01*
X193181Y156819D01*
X192547Y155993D01*
X192149Y155032D01*
X192013Y154000D01*
X192149Y152968D01*
X192547Y152007D01*
X193181Y151181D01*
X194007Y150547D01*
X194471Y150355D01*
Y143645D01*
X194007Y143453D01*
X193181Y142819D01*
X192547Y141993D01*
X192149Y141032D01*
X192013Y140000D01*
X192149Y138968D01*
X192547Y138007D01*
X193181Y137181D01*
X194007Y136547D01*
X194968Y136149D01*
X196000Y136013D01*
X197032Y136149D01*
X197993Y136547D01*
X198819Y137181D01*
X199453Y138007D01*
X199851Y138968D01*
X199987Y140000D01*
X199851Y141032D01*
X199453Y141993D01*
X198819Y142819D01*
X197993Y143453D01*
X197529Y143645D01*
Y150355D01*
X197993Y150547D01*
X198819Y151181D01*
X199453Y152007D01*
X199851Y152968D01*
X199987Y154000D01*
X199851Y155032D01*
X199453Y155993D01*
X198819Y156819D01*
X197993Y157453D01*
X197032Y157851D01*
X196000Y157987D01*
D02*
G37*
G36*
X186000D02*
X184968Y157851D01*
X184007Y157453D01*
X183181Y156819D01*
X182547Y155993D01*
X182149Y155032D01*
X182013Y154000D01*
X182149Y152968D01*
X182547Y152007D01*
X183181Y151181D01*
X184007Y150547D01*
X184471Y150355D01*
Y143645D01*
X184007Y143453D01*
X183181Y142819D01*
X182547Y141993D01*
X182149Y141032D01*
X182013Y140000D01*
X182149Y138968D01*
X182547Y138007D01*
X183181Y137181D01*
X184007Y136547D01*
X184968Y136149D01*
X186000Y136013D01*
X187032Y136149D01*
X187993Y136547D01*
X188819Y137181D01*
X189453Y138007D01*
X189851Y138968D01*
X189987Y140000D01*
X189851Y141032D01*
X189453Y141993D01*
X188819Y142819D01*
X187993Y143453D01*
X187529Y143645D01*
Y150355D01*
X187993Y150547D01*
X188819Y151181D01*
X189453Y152007D01*
X189851Y152968D01*
X189987Y154000D01*
X189851Y155032D01*
X189453Y155993D01*
X188819Y156819D01*
X187993Y157453D01*
X187032Y157851D01*
X186000Y157987D01*
D02*
G37*
G36*
X166000D02*
X164968Y157851D01*
X164007Y157453D01*
X163181Y156819D01*
X162547Y155993D01*
X162149Y155032D01*
X162013Y154000D01*
X162149Y152968D01*
X162547Y152007D01*
X163181Y151181D01*
X164007Y150547D01*
X164471Y150355D01*
Y143645D01*
X164007Y143453D01*
X163181Y142819D01*
X162547Y141993D01*
X162149Y141032D01*
X162013Y140000D01*
X162149Y138968D01*
X162547Y138007D01*
X163181Y137181D01*
X164007Y136547D01*
X164968Y136149D01*
X166000Y136013D01*
X167032Y136149D01*
X167993Y136547D01*
X168819Y137181D01*
X169453Y138007D01*
X169851Y138968D01*
X169987Y140000D01*
X169851Y141032D01*
X169453Y141993D01*
X168819Y142819D01*
X167993Y143453D01*
X167529Y143645D01*
Y150355D01*
X167993Y150547D01*
X168819Y151181D01*
X169453Y152007D01*
X169851Y152968D01*
X169987Y154000D01*
X169851Y155032D01*
X169453Y155993D01*
X168819Y156819D01*
X167993Y157453D01*
X167032Y157851D01*
X166000Y157987D01*
D02*
G37*
G36*
X156000D02*
X154968Y157851D01*
X154007Y157453D01*
X153181Y156819D01*
X152547Y155993D01*
X152149Y155032D01*
X152013Y154000D01*
X152149Y152968D01*
X152547Y152007D01*
X153181Y151181D01*
X154007Y150547D01*
X154471Y150355D01*
Y143645D01*
X154007Y143453D01*
X153181Y142819D01*
X152547Y141993D01*
X152149Y141032D01*
X152013Y140000D01*
X152149Y138968D01*
X152547Y138007D01*
X153181Y137181D01*
X154007Y136547D01*
X154968Y136149D01*
X156000Y136013D01*
X157032Y136149D01*
X157993Y136547D01*
X158819Y137181D01*
X159453Y138007D01*
X159851Y138968D01*
X159987Y140000D01*
X159851Y141032D01*
X159453Y141993D01*
X158819Y142819D01*
X157993Y143453D01*
X157529Y143645D01*
Y150355D01*
X157993Y150547D01*
X158819Y151181D01*
X159453Y152007D01*
X159851Y152968D01*
X159987Y154000D01*
X159851Y155032D01*
X159453Y155993D01*
X158819Y156819D01*
X157993Y157453D01*
X157032Y157851D01*
X156000Y157987D01*
D02*
G37*
G36*
X146000D02*
X144968Y157851D01*
X144007Y157453D01*
X143181Y156819D01*
X142547Y155993D01*
X142149Y155032D01*
X142013Y154000D01*
X142149Y152968D01*
X142547Y152007D01*
X143181Y151181D01*
X144007Y150547D01*
X144471Y150355D01*
Y143645D01*
X144007Y143453D01*
X143181Y142819D01*
X142547Y141993D01*
X142149Y141032D01*
X142013Y140000D01*
X142149Y138968D01*
X142547Y138007D01*
X143181Y137181D01*
X144007Y136547D01*
X144968Y136149D01*
X146000Y136013D01*
X147032Y136149D01*
X147993Y136547D01*
X148819Y137181D01*
X149453Y138007D01*
X149851Y138968D01*
X149987Y140000D01*
X149851Y141032D01*
X149453Y141993D01*
X148819Y142819D01*
X147993Y143453D01*
X147529Y143645D01*
Y150355D01*
X147993Y150547D01*
X148819Y151181D01*
X149453Y152007D01*
X149851Y152968D01*
X149987Y154000D01*
X149851Y155032D01*
X149453Y155993D01*
X148819Y156819D01*
X147993Y157453D01*
X147032Y157851D01*
X146000Y157987D01*
D02*
G37*
G36*
X136000D02*
X134968Y157851D01*
X134007Y157453D01*
X133181Y156819D01*
X132547Y155993D01*
X132149Y155032D01*
X132013Y154000D01*
X132149Y152968D01*
X132547Y152007D01*
X133181Y151181D01*
X134007Y150547D01*
X134471Y150355D01*
Y143645D01*
X134007Y143453D01*
X133181Y142819D01*
X132547Y141993D01*
X132149Y141032D01*
X132013Y140000D01*
X132149Y138968D01*
X132547Y138007D01*
X133181Y137181D01*
X134007Y136547D01*
X134968Y136149D01*
X136000Y136013D01*
X137032Y136149D01*
X137993Y136547D01*
X138819Y137181D01*
X139453Y138007D01*
X139851Y138968D01*
X139987Y140000D01*
X139851Y141032D01*
X139453Y141993D01*
X138819Y142819D01*
X137993Y143453D01*
X137529Y143645D01*
Y150355D01*
X137993Y150547D01*
X138819Y151181D01*
X139453Y152007D01*
X139851Y152968D01*
X139987Y154000D01*
X139851Y155032D01*
X139453Y155993D01*
X138819Y156819D01*
X137993Y157453D01*
X137032Y157851D01*
X136000Y157987D01*
D02*
G37*
G36*
X126000D02*
X124968Y157851D01*
X124007Y157453D01*
X123181Y156819D01*
X122547Y155993D01*
X122149Y155032D01*
X122013Y154000D01*
X122149Y152968D01*
X122547Y152007D01*
X123181Y151181D01*
X124007Y150547D01*
X124471Y150355D01*
Y143645D01*
X124007Y143453D01*
X123181Y142819D01*
X122547Y141993D01*
X122149Y141032D01*
X122013Y140000D01*
X122149Y138968D01*
X122547Y138007D01*
X123181Y137181D01*
X124007Y136547D01*
X124968Y136149D01*
X126000Y136013D01*
X127032Y136149D01*
X127993Y136547D01*
X128819Y137181D01*
X129453Y138007D01*
X129851Y138968D01*
X129987Y140000D01*
X129851Y141032D01*
X129453Y141993D01*
X128819Y142819D01*
X127993Y143453D01*
X127529Y143645D01*
Y150355D01*
X127993Y150547D01*
X128819Y151181D01*
X129453Y152007D01*
X129851Y152968D01*
X129987Y154000D01*
X129851Y155032D01*
X129453Y155993D01*
X128819Y156819D01*
X127993Y157453D01*
X127032Y157851D01*
X126000Y157987D01*
D02*
G37*
G36*
X116000D02*
X114968Y157851D01*
X114007Y157453D01*
X113181Y156819D01*
X112547Y155993D01*
X112149Y155032D01*
X112013Y154000D01*
X112149Y152968D01*
X112547Y152007D01*
X113181Y151181D01*
X114007Y150547D01*
X114471Y150355D01*
Y143645D01*
X114007Y143453D01*
X113181Y142819D01*
X112547Y141993D01*
X112149Y141032D01*
X112013Y140000D01*
X112149Y138968D01*
X112547Y138007D01*
X113181Y137181D01*
X114007Y136547D01*
X114968Y136149D01*
X116000Y136013D01*
X117032Y136149D01*
X117993Y136547D01*
X118819Y137181D01*
X119453Y138007D01*
X119851Y138968D01*
X119987Y140000D01*
X119851Y141032D01*
X119453Y141993D01*
X118819Y142819D01*
X117993Y143453D01*
X117529Y143645D01*
Y150355D01*
X117993Y150547D01*
X118819Y151181D01*
X119453Y152007D01*
X119851Y152968D01*
X119987Y154000D01*
X119851Y155032D01*
X119453Y155993D01*
X118819Y156819D01*
X117993Y157453D01*
X117032Y157851D01*
X116000Y157987D01*
D02*
G37*
G36*
X106000D02*
X104968Y157851D01*
X104007Y157453D01*
X103181Y156819D01*
X102547Y155993D01*
X102149Y155032D01*
X102013Y154000D01*
X102149Y152968D01*
X102547Y152007D01*
X103181Y151181D01*
X104007Y150547D01*
X104471Y150355D01*
Y143645D01*
X104007Y143453D01*
X103181Y142819D01*
X102547Y141993D01*
X102149Y141032D01*
X102013Y140000D01*
X102149Y138968D01*
X102547Y138007D01*
X103181Y137181D01*
X104007Y136547D01*
X104968Y136149D01*
X106000Y136013D01*
X107032Y136149D01*
X107993Y136547D01*
X108819Y137181D01*
X109453Y138007D01*
X109851Y138968D01*
X109987Y140000D01*
X109851Y141032D01*
X109453Y141993D01*
X108819Y142819D01*
X107993Y143453D01*
X107529Y143645D01*
Y150355D01*
X107993Y150547D01*
X108819Y151181D01*
X109453Y152007D01*
X109851Y152968D01*
X109987Y154000D01*
X109851Y155032D01*
X109453Y155993D01*
X108819Y156819D01*
X107993Y157453D01*
X107032Y157851D01*
X106000Y157987D01*
D02*
G37*
G36*
X96000D02*
X94968Y157851D01*
X94007Y157453D01*
X93181Y156819D01*
X92547Y155993D01*
X92149Y155032D01*
X92013Y154000D01*
X92149Y152968D01*
X92547Y152007D01*
X93181Y151181D01*
X94007Y150547D01*
X94471Y150355D01*
Y143645D01*
X94007Y143453D01*
X93181Y142819D01*
X92547Y141993D01*
X92149Y141032D01*
X92013Y140000D01*
X92149Y138968D01*
X92547Y138007D01*
X93181Y137181D01*
X94007Y136547D01*
X94968Y136149D01*
X96000Y136013D01*
X97032Y136149D01*
X97993Y136547D01*
X98819Y137181D01*
X99453Y138007D01*
X99851Y138968D01*
X99987Y140000D01*
X99851Y141032D01*
X99453Y141993D01*
X98819Y142819D01*
X97993Y143453D01*
X97529Y143645D01*
Y150355D01*
X97993Y150547D01*
X98819Y151181D01*
X99453Y152007D01*
X99851Y152968D01*
X99987Y154000D01*
X99851Y155032D01*
X99453Y155993D01*
X98819Y156819D01*
X97993Y157453D01*
X97032Y157851D01*
X96000Y157987D01*
D02*
G37*
G36*
X86000D02*
X84968Y157851D01*
X84007Y157453D01*
X83181Y156819D01*
X82547Y155993D01*
X82149Y155032D01*
X82013Y154000D01*
X82149Y152968D01*
X82547Y152007D01*
X83181Y151181D01*
X84007Y150547D01*
X84471Y150355D01*
Y143645D01*
X84007Y143453D01*
X83181Y142819D01*
X82547Y141993D01*
X82149Y141032D01*
X82013Y140000D01*
X82149Y138968D01*
X82547Y138007D01*
X83181Y137181D01*
X84007Y136547D01*
X84968Y136149D01*
X86000Y136013D01*
X87032Y136149D01*
X87993Y136547D01*
X88819Y137181D01*
X89453Y138007D01*
X89851Y138968D01*
X89987Y140000D01*
X89851Y141032D01*
X89453Y141993D01*
X88819Y142819D01*
X87993Y143453D01*
X87529Y143645D01*
Y150355D01*
X87993Y150547D01*
X88819Y151181D01*
X89453Y152007D01*
X89851Y152968D01*
X89987Y154000D01*
X89851Y155032D01*
X89453Y155993D01*
X88819Y156819D01*
X87993Y157453D01*
X87032Y157851D01*
X86000Y157987D01*
D02*
G37*
G36*
X76000D02*
X74968Y157851D01*
X74007Y157453D01*
X73181Y156819D01*
X72547Y155993D01*
X72149Y155032D01*
X72013Y154000D01*
X72149Y152968D01*
X72547Y152007D01*
X73181Y151181D01*
X74007Y150547D01*
X74471Y150355D01*
Y143645D01*
X74007Y143453D01*
X73181Y142819D01*
X72547Y141993D01*
X72149Y141032D01*
X72013Y140000D01*
X72149Y138968D01*
X72547Y138007D01*
X73181Y137181D01*
X74007Y136547D01*
X74968Y136149D01*
X76000Y136013D01*
X77032Y136149D01*
X77993Y136547D01*
X78819Y137181D01*
X79453Y138007D01*
X79851Y138968D01*
X79987Y140000D01*
X79851Y141032D01*
X79453Y141993D01*
X78819Y142819D01*
X77993Y143453D01*
X77529Y143645D01*
Y150355D01*
X77993Y150547D01*
X78819Y151181D01*
X79453Y152007D01*
X79851Y152968D01*
X79987Y154000D01*
X79851Y155032D01*
X79453Y155993D01*
X78819Y156819D01*
X77993Y157453D01*
X77032Y157851D01*
X76000Y157987D01*
D02*
G37*
G36*
X66000D02*
X64968Y157851D01*
X64007Y157453D01*
X63181Y156819D01*
X62547Y155993D01*
X62149Y155032D01*
X62013Y154000D01*
X62149Y152968D01*
X62547Y152007D01*
X63181Y151181D01*
X64007Y150547D01*
X64471Y150355D01*
Y143645D01*
X64007Y143453D01*
X63181Y142819D01*
X62547Y141993D01*
X62149Y141032D01*
X62013Y140000D01*
X62149Y138968D01*
X62547Y138007D01*
X63181Y137181D01*
X64007Y136547D01*
X64968Y136149D01*
X66000Y136013D01*
X67032Y136149D01*
X67993Y136547D01*
X68819Y137181D01*
X69453Y138007D01*
X69851Y138968D01*
X69987Y140000D01*
X69851Y141032D01*
X69453Y141993D01*
X68819Y142819D01*
X67993Y143453D01*
X67529Y143645D01*
Y150355D01*
X67993Y150547D01*
X68819Y151181D01*
X69453Y152007D01*
X69851Y152968D01*
X69987Y154000D01*
X69851Y155032D01*
X69453Y155993D01*
X68819Y156819D01*
X67993Y157453D01*
X67032Y157851D01*
X66000Y157987D01*
D02*
G37*
G36*
X56000D02*
X54968Y157851D01*
X54007Y157453D01*
X53181Y156819D01*
X52547Y155993D01*
X52149Y155032D01*
X52013Y154000D01*
X52149Y152968D01*
X52547Y152007D01*
X53181Y151181D01*
X53961Y150582D01*
Y143418D01*
X53181Y142819D01*
X52547Y141993D01*
X52149Y141032D01*
X52013Y140000D01*
X52149Y138968D01*
X52547Y138007D01*
X53181Y137181D01*
X54007Y136547D01*
X54968Y136149D01*
X56000Y136013D01*
X57032Y136149D01*
X57993Y136547D01*
X58819Y137181D01*
X59453Y138007D01*
X59851Y138968D01*
X59987Y140000D01*
X59851Y141032D01*
X59453Y141993D01*
X58819Y142819D01*
X58039Y143418D01*
Y150582D01*
X58819Y151181D01*
X59453Y152007D01*
X59851Y152968D01*
X59987Y154000D01*
X59851Y155032D01*
X59453Y155993D01*
X58819Y156819D01*
X57993Y157453D01*
X57032Y157851D01*
X56000Y157987D01*
D02*
G37*
G36*
X35827Y173672D02*
X34795Y173536D01*
X33833Y173138D01*
X33008Y172504D01*
X32374Y171678D01*
X31976Y170717D01*
X31840Y169685D01*
X31976Y168653D01*
X32374Y167692D01*
X33008Y166866D01*
X33451Y166526D01*
Y157953D01*
X32047D01*
Y150047D01*
X33451D01*
Y143026D01*
X33181Y142819D01*
X32547Y141993D01*
X32149Y141032D01*
X32013Y140000D01*
X32149Y138968D01*
X32547Y138007D01*
X33181Y137181D01*
X34007Y136547D01*
X34968Y136149D01*
X36000Y136013D01*
X37032Y136149D01*
X37993Y136547D01*
X38819Y137181D01*
X39453Y138007D01*
X39851Y138968D01*
X39987Y140000D01*
X39851Y141032D01*
X39453Y141993D01*
X38819Y142819D01*
X38549Y143026D01*
Y150047D01*
X39953D01*
Y157953D01*
X38549D01*
Y166791D01*
X38646Y166866D01*
X39279Y167692D01*
X39678Y168653D01*
X39814Y169685D01*
X39678Y170717D01*
X39279Y171678D01*
X38646Y172504D01*
X37820Y173138D01*
X36859Y173536D01*
X35827Y173672D01*
D02*
G37*
G36*
X292897Y135327D02*
X289476D01*
Y131906D01*
X290008Y131976D01*
X290970Y132374D01*
X291795Y133008D01*
X292429Y133833D01*
X292827Y134795D01*
X292897Y135327D01*
D02*
G37*
G36*
X288476D02*
X285055D01*
X285125Y134795D01*
X285524Y133833D01*
X286157Y133008D01*
X286983Y132374D01*
X287945Y131976D01*
X288476Y131906D01*
Y135327D01*
D02*
G37*
G36*
X278539Y85982D02*
X240453D01*
X239867Y85866D01*
X239371Y85534D01*
X237496Y83659D01*
X237032Y83851D01*
X236000Y83987D01*
X234968Y83851D01*
X234007Y83453D01*
X233181Y82819D01*
X232547Y81993D01*
X232149Y81032D01*
X232013Y80000D01*
X232149Y78968D01*
X232547Y78007D01*
X233181Y77181D01*
X234007Y76547D01*
X234471Y76355D01*
Y71645D01*
X234007Y71453D01*
X233181Y70819D01*
X232547Y69993D01*
X232149Y69032D01*
X232013Y68000D01*
X232149Y66968D01*
X232547Y66007D01*
X233181Y65181D01*
X234007Y64547D01*
X234968Y64149D01*
X236000Y64013D01*
X237032Y64149D01*
X237993Y64547D01*
X238819Y65181D01*
X239453Y66007D01*
X239851Y66968D01*
X239987Y68000D01*
X239851Y69032D01*
X239453Y69993D01*
X238819Y70819D01*
X237993Y71453D01*
X237529Y71645D01*
Y76355D01*
X237993Y76547D01*
X238819Y77181D01*
X239453Y78007D01*
X239851Y78968D01*
X239987Y80000D01*
X239851Y81032D01*
X239659Y81496D01*
X241086Y82923D01*
X242631D01*
X242877Y82423D01*
X242547Y81993D01*
X242149Y81032D01*
X242013Y80000D01*
X242149Y78968D01*
X242547Y78007D01*
X243181Y77181D01*
X244007Y76547D01*
X244471Y76355D01*
Y71645D01*
X244007Y71453D01*
X243181Y70819D01*
X242547Y69993D01*
X242149Y69032D01*
X242013Y68000D01*
X242149Y66968D01*
X242341Y66504D01*
X228154Y52317D01*
X224609D01*
X224417Y52781D01*
X223784Y53606D01*
X222958Y54240D01*
X221996Y54638D01*
X220965Y54774D01*
X219933Y54638D01*
X218971Y54240D01*
X218145Y53606D01*
X217512Y52781D01*
X217114Y51819D01*
X216978Y50787D01*
X217114Y49755D01*
X217512Y48794D01*
X218145Y47968D01*
X218971Y47335D01*
X219933Y46936D01*
X220965Y46801D01*
X221996Y46936D01*
X222958Y47335D01*
X223784Y47968D01*
X224417Y48794D01*
X224609Y49258D01*
X228787D01*
X229373Y49374D01*
X229869Y49706D01*
X244504Y64341D01*
X244968Y64149D01*
X246000Y64013D01*
X247032Y64149D01*
X247993Y64547D01*
X248819Y65181D01*
X249453Y66007D01*
X249851Y66968D01*
X249987Y68000D01*
X249851Y69032D01*
X249453Y69993D01*
X248819Y70819D01*
X247993Y71453D01*
X247529Y71645D01*
Y76355D01*
X247993Y76547D01*
X248819Y77181D01*
X249453Y78007D01*
X249851Y78968D01*
X249987Y80000D01*
X249851Y81032D01*
X249453Y81993D01*
X249123Y82423D01*
X249369Y82923D01*
X252631D01*
X252877Y82423D01*
X252547Y81993D01*
X252149Y81032D01*
X252013Y80000D01*
X252149Y78968D01*
X252547Y78007D01*
X253181Y77181D01*
X254007Y76547D01*
X254471Y76355D01*
Y71645D01*
X254007Y71453D01*
X253181Y70819D01*
X252547Y69993D01*
X252149Y69032D01*
X252013Y68000D01*
X252149Y66968D01*
X252547Y66007D01*
X253181Y65181D01*
X254007Y64547D01*
X254471Y64355D01*
Y59783D01*
X248543Y53856D01*
X248079Y54048D01*
X247047Y54184D01*
X246015Y54048D01*
X245054Y53650D01*
X244228Y53016D01*
X243595Y52190D01*
X243196Y51229D01*
X243060Y50197D01*
X243196Y49165D01*
X243595Y48203D01*
X244228Y47378D01*
X245054Y46744D01*
X246015Y46346D01*
X247047Y46210D01*
X248079Y46346D01*
X249041Y46744D01*
X249866Y47378D01*
X250500Y48203D01*
X250898Y49165D01*
X251034Y50197D01*
X250898Y51229D01*
X250706Y51693D01*
X257081Y58068D01*
X257413Y58564D01*
X257529Y59150D01*
Y64355D01*
X257993Y64547D01*
X258819Y65181D01*
X259453Y66007D01*
X259851Y66968D01*
X259987Y68000D01*
X259851Y69032D01*
X259453Y69993D01*
X258819Y70819D01*
X257993Y71453D01*
X257529Y71645D01*
Y76355D01*
X257993Y76547D01*
X258819Y77181D01*
X259453Y78007D01*
X259851Y78968D01*
X259987Y80000D01*
X259851Y81032D01*
X259453Y81993D01*
X259123Y82423D01*
X259369Y82923D01*
X262631D01*
X262877Y82423D01*
X262547Y81993D01*
X262149Y81032D01*
X262013Y80000D01*
X262149Y78968D01*
X262547Y78007D01*
X263181Y77181D01*
X264007Y76547D01*
X264471Y76355D01*
Y71953D01*
X262047D01*
Y64047D01*
X269953D01*
Y71953D01*
X267529D01*
Y76355D01*
X267993Y76547D01*
X268819Y77181D01*
X269453Y78007D01*
X269851Y78968D01*
X269987Y80000D01*
X269851Y81032D01*
X269453Y81993D01*
X269123Y82423D01*
X269369Y82923D01*
X277906D01*
X284924Y75905D01*
X284732Y75441D01*
X284596Y74410D01*
X284732Y73378D01*
X285130Y72416D01*
X285764Y71590D01*
X286589Y70957D01*
X287551Y70558D01*
X288583Y70423D01*
X289615Y70558D01*
X290576Y70957D01*
X291402Y71590D01*
X292035Y72416D01*
X292434Y73378D01*
X292569Y74410D01*
X292434Y75441D01*
X292035Y76403D01*
X291402Y77229D01*
X290576Y77862D01*
X289615Y78260D01*
X288583Y78396D01*
X287551Y78260D01*
X287087Y78068D01*
X279621Y85534D01*
X279125Y85866D01*
X278539Y85982D01*
D02*
G37*
G36*
X36500Y83921D02*
Y80500D01*
X39921D01*
X39851Y81032D01*
X39453Y81993D01*
X38819Y82819D01*
X37993Y83453D01*
X37032Y83851D01*
X36500Y83921D01*
D02*
G37*
G36*
X35500D02*
X34968Y83851D01*
X34007Y83453D01*
X33181Y82819D01*
X32547Y81993D01*
X32149Y81032D01*
X32079Y80500D01*
X35500D01*
Y83921D01*
D02*
G37*
G36*
X288583Y88239D02*
X287551Y88103D01*
X286589Y87705D01*
X285764Y87071D01*
X285130Y86245D01*
X284732Y85284D01*
X284596Y84252D01*
X284732Y83220D01*
X285130Y82258D01*
X285764Y81433D01*
X286589Y80799D01*
X287551Y80401D01*
X288583Y80265D01*
X289615Y80401D01*
X290576Y80799D01*
X291402Y81433D01*
X292035Y82258D01*
X292434Y83220D01*
X292569Y84252D01*
X292434Y85284D01*
X292035Y86245D01*
X291402Y87071D01*
X290576Y87705D01*
X289615Y88103D01*
X288583Y88239D01*
D02*
G37*
G36*
X39921Y79500D02*
X36500D01*
Y76079D01*
X37032Y76149D01*
X37993Y76547D01*
X38819Y77181D01*
X39453Y78007D01*
X39851Y78968D01*
X39921Y79500D01*
D02*
G37*
G36*
X35500D02*
X32079D01*
X32149Y78968D01*
X32547Y78007D01*
X33181Y77181D01*
X34007Y76547D01*
X34968Y76149D01*
X35500Y76079D01*
Y79500D01*
D02*
G37*
G36*
X36500Y71921D02*
Y68500D01*
X39921D01*
X39851Y69032D01*
X39453Y69993D01*
X38819Y70819D01*
X37993Y71453D01*
X37032Y71851D01*
X36500Y71921D01*
D02*
G37*
G36*
X35500D02*
X34968Y71851D01*
X34007Y71453D01*
X33181Y70819D01*
X32547Y69993D01*
X32149Y69032D01*
X32079Y68500D01*
X35500D01*
Y71921D01*
D02*
G37*
G36*
X289083Y68488D02*
Y65067D01*
X292504D01*
X292434Y65599D01*
X292035Y66560D01*
X291402Y67386D01*
X290576Y68020D01*
X289615Y68418D01*
X289083Y68488D01*
D02*
G37*
G36*
X288083D02*
X287551Y68418D01*
X286589Y68020D01*
X285764Y67386D01*
X285130Y66560D01*
X284732Y65599D01*
X284662Y65067D01*
X288083D01*
Y68488D01*
D02*
G37*
G36*
X39921Y67500D02*
X36500D01*
Y64079D01*
X37032Y64149D01*
X37993Y64547D01*
X38819Y65181D01*
X39453Y66007D01*
X39851Y66968D01*
X39921Y67500D01*
D02*
G37*
G36*
X35500D02*
X32079D01*
X32149Y66968D01*
X32547Y66007D01*
X33181Y65181D01*
X34007Y64547D01*
X34968Y64149D01*
X35500Y64079D01*
Y67500D01*
D02*
G37*
G36*
X226000Y83987D02*
X224968Y83851D01*
X224007Y83453D01*
X223181Y82819D01*
X222547Y81993D01*
X222149Y81032D01*
X222013Y80000D01*
X222149Y78968D01*
X222547Y78007D01*
X223181Y77181D01*
X224007Y76547D01*
X224471Y76355D01*
Y71645D01*
X224007Y71453D01*
X223181Y70819D01*
X222547Y69993D01*
X222149Y69032D01*
X222013Y68000D01*
X222149Y66968D01*
X222547Y66007D01*
X223181Y65181D01*
X224007Y64547D01*
X224968Y64149D01*
X226000Y64013D01*
X227032Y64149D01*
X227993Y64547D01*
X228819Y65181D01*
X229453Y66007D01*
X229851Y66968D01*
X229987Y68000D01*
X229851Y69032D01*
X229453Y69993D01*
X228819Y70819D01*
X227993Y71453D01*
X227529Y71645D01*
Y76355D01*
X227993Y76547D01*
X228819Y77181D01*
X229453Y78007D01*
X229851Y78968D01*
X229987Y80000D01*
X229851Y81032D01*
X229453Y81993D01*
X228819Y82819D01*
X227993Y83453D01*
X227032Y83851D01*
X226000Y83987D01*
D02*
G37*
G36*
X216000D02*
X214968Y83851D01*
X214007Y83453D01*
X213181Y82819D01*
X212547Y81993D01*
X212149Y81032D01*
X212013Y80000D01*
X212149Y78968D01*
X212547Y78007D01*
X213181Y77181D01*
X214007Y76547D01*
X214471Y76355D01*
Y71645D01*
X214007Y71453D01*
X213181Y70819D01*
X212547Y69993D01*
X212149Y69032D01*
X212013Y68000D01*
X212149Y66968D01*
X212547Y66007D01*
X213181Y65181D01*
X214007Y64547D01*
X214968Y64149D01*
X216000Y64013D01*
X217032Y64149D01*
X217993Y64547D01*
X218819Y65181D01*
X219453Y66007D01*
X219851Y66968D01*
X219987Y68000D01*
X219851Y69032D01*
X219453Y69993D01*
X218819Y70819D01*
X217993Y71453D01*
X217529Y71645D01*
Y76355D01*
X217993Y76547D01*
X218819Y77181D01*
X219453Y78007D01*
X219851Y78968D01*
X219987Y80000D01*
X219851Y81032D01*
X219453Y81993D01*
X218819Y82819D01*
X217993Y83453D01*
X217032Y83851D01*
X216000Y83987D01*
D02*
G37*
G36*
X206000D02*
X204968Y83851D01*
X204007Y83453D01*
X203181Y82819D01*
X202547Y81993D01*
X202149Y81032D01*
X202013Y80000D01*
X202149Y78968D01*
X202547Y78007D01*
X203181Y77181D01*
X204007Y76547D01*
X204471Y76355D01*
Y71645D01*
X204007Y71453D01*
X203181Y70819D01*
X202547Y69993D01*
X202149Y69032D01*
X202013Y68000D01*
X202149Y66968D01*
X202547Y66007D01*
X203181Y65181D01*
X204007Y64547D01*
X204968Y64149D01*
X206000Y64013D01*
X207032Y64149D01*
X207993Y64547D01*
X208819Y65181D01*
X209453Y66007D01*
X209851Y66968D01*
X209987Y68000D01*
X209851Y69032D01*
X209453Y69993D01*
X208819Y70819D01*
X207993Y71453D01*
X207529Y71645D01*
Y76355D01*
X207993Y76547D01*
X208819Y77181D01*
X209453Y78007D01*
X209851Y78968D01*
X209987Y80000D01*
X209851Y81032D01*
X209453Y81993D01*
X208819Y82819D01*
X207993Y83453D01*
X207032Y83851D01*
X206000Y83987D01*
D02*
G37*
G36*
X196000D02*
X194968Y83851D01*
X194007Y83453D01*
X193181Y82819D01*
X192547Y81993D01*
X192149Y81032D01*
X192013Y80000D01*
X192149Y78968D01*
X192547Y78007D01*
X193181Y77181D01*
X194007Y76547D01*
X194471Y76355D01*
Y71645D01*
X194007Y71453D01*
X193181Y70819D01*
X192547Y69993D01*
X192149Y69032D01*
X192013Y68000D01*
X192149Y66968D01*
X192547Y66007D01*
X193181Y65181D01*
X194007Y64547D01*
X194968Y64149D01*
X196000Y64013D01*
X197032Y64149D01*
X197993Y64547D01*
X198819Y65181D01*
X199453Y66007D01*
X199851Y66968D01*
X199987Y68000D01*
X199851Y69032D01*
X199453Y69993D01*
X198819Y70819D01*
X197993Y71453D01*
X197529Y71645D01*
Y76355D01*
X197993Y76547D01*
X198819Y77181D01*
X199453Y78007D01*
X199851Y78968D01*
X199987Y80000D01*
X199851Y81032D01*
X199453Y81993D01*
X198819Y82819D01*
X197993Y83453D01*
X197032Y83851D01*
X196000Y83987D01*
D02*
G37*
G36*
X186000D02*
X184968Y83851D01*
X184007Y83453D01*
X183181Y82819D01*
X182547Y81993D01*
X182149Y81032D01*
X182013Y80000D01*
X182149Y78968D01*
X182547Y78007D01*
X183181Y77181D01*
X184007Y76547D01*
X184471Y76355D01*
Y71645D01*
X184007Y71453D01*
X183181Y70819D01*
X182547Y69993D01*
X182149Y69032D01*
X182013Y68000D01*
X182149Y66968D01*
X182547Y66007D01*
X183181Y65181D01*
X184007Y64547D01*
X184968Y64149D01*
X186000Y64013D01*
X187032Y64149D01*
X187993Y64547D01*
X188819Y65181D01*
X189453Y66007D01*
X189851Y66968D01*
X189987Y68000D01*
X189851Y69032D01*
X189453Y69993D01*
X188819Y70819D01*
X187993Y71453D01*
X187529Y71645D01*
Y76355D01*
X187993Y76547D01*
X188819Y77181D01*
X189453Y78007D01*
X189851Y78968D01*
X189987Y80000D01*
X189851Y81032D01*
X189453Y81993D01*
X188819Y82819D01*
X187993Y83453D01*
X187032Y83851D01*
X186000Y83987D01*
D02*
G37*
G36*
X166000D02*
X164968Y83851D01*
X164007Y83453D01*
X163181Y82819D01*
X162547Y81993D01*
X162149Y81032D01*
X162013Y80000D01*
X162149Y78968D01*
X162547Y78007D01*
X163181Y77181D01*
X164007Y76547D01*
X164471Y76355D01*
Y71645D01*
X164007Y71453D01*
X163181Y70819D01*
X162547Y69993D01*
X162149Y69032D01*
X162013Y68000D01*
X162149Y66968D01*
X162547Y66007D01*
X163181Y65181D01*
X164007Y64547D01*
X164968Y64149D01*
X166000Y64013D01*
X167032Y64149D01*
X167993Y64547D01*
X168819Y65181D01*
X169453Y66007D01*
X169851Y66968D01*
X169987Y68000D01*
X169851Y69032D01*
X169453Y69993D01*
X168819Y70819D01*
X167993Y71453D01*
X167529Y71645D01*
Y76355D01*
X167993Y76547D01*
X168819Y77181D01*
X169453Y78007D01*
X169851Y78968D01*
X169987Y80000D01*
X169851Y81032D01*
X169453Y81993D01*
X168819Y82819D01*
X167993Y83453D01*
X167032Y83851D01*
X166000Y83987D01*
D02*
G37*
G36*
X156000D02*
X154968Y83851D01*
X154007Y83453D01*
X153181Y82819D01*
X152547Y81993D01*
X152149Y81032D01*
X152013Y80000D01*
X152149Y78968D01*
X152547Y78007D01*
X153181Y77181D01*
X154007Y76547D01*
X154471Y76355D01*
Y71645D01*
X154007Y71453D01*
X153181Y70819D01*
X152547Y69993D01*
X152149Y69032D01*
X152013Y68000D01*
X152149Y66968D01*
X152547Y66007D01*
X153181Y65181D01*
X154007Y64547D01*
X154968Y64149D01*
X156000Y64013D01*
X157032Y64149D01*
X157993Y64547D01*
X158819Y65181D01*
X159453Y66007D01*
X159851Y66968D01*
X159987Y68000D01*
X159851Y69032D01*
X159453Y69993D01*
X158819Y70819D01*
X157993Y71453D01*
X157529Y71645D01*
Y76355D01*
X157993Y76547D01*
X158819Y77181D01*
X159453Y78007D01*
X159851Y78968D01*
X159987Y80000D01*
X159851Y81032D01*
X159453Y81993D01*
X158819Y82819D01*
X157993Y83453D01*
X157032Y83851D01*
X156000Y83987D01*
D02*
G37*
G36*
X146000D02*
X144968Y83851D01*
X144007Y83453D01*
X143181Y82819D01*
X142547Y81993D01*
X142149Y81032D01*
X142013Y80000D01*
X142149Y78968D01*
X142547Y78007D01*
X143181Y77181D01*
X144007Y76547D01*
X144471Y76355D01*
Y71645D01*
X144007Y71453D01*
X143181Y70819D01*
X142547Y69993D01*
X142149Y69032D01*
X142013Y68000D01*
X142149Y66968D01*
X142547Y66007D01*
X143181Y65181D01*
X144007Y64547D01*
X144968Y64149D01*
X146000Y64013D01*
X147032Y64149D01*
X147993Y64547D01*
X148819Y65181D01*
X149453Y66007D01*
X149851Y66968D01*
X149987Y68000D01*
X149851Y69032D01*
X149453Y69993D01*
X148819Y70819D01*
X147993Y71453D01*
X147529Y71645D01*
Y76355D01*
X147993Y76547D01*
X148819Y77181D01*
X149453Y78007D01*
X149851Y78968D01*
X149987Y80000D01*
X149851Y81032D01*
X149453Y81993D01*
X148819Y82819D01*
X147993Y83453D01*
X147032Y83851D01*
X146000Y83987D01*
D02*
G37*
G36*
X136000D02*
X134968Y83851D01*
X134007Y83453D01*
X133181Y82819D01*
X132547Y81993D01*
X132149Y81032D01*
X132013Y80000D01*
X132149Y78968D01*
X132547Y78007D01*
X133181Y77181D01*
X134007Y76547D01*
X134471Y76355D01*
Y71645D01*
X134007Y71453D01*
X133181Y70819D01*
X132547Y69993D01*
X132149Y69032D01*
X132013Y68000D01*
X132149Y66968D01*
X132547Y66007D01*
X133181Y65181D01*
X134007Y64547D01*
X134968Y64149D01*
X136000Y64013D01*
X137032Y64149D01*
X137993Y64547D01*
X138819Y65181D01*
X139453Y66007D01*
X139851Y66968D01*
X139987Y68000D01*
X139851Y69032D01*
X139453Y69993D01*
X138819Y70819D01*
X137993Y71453D01*
X137529Y71645D01*
Y76355D01*
X137993Y76547D01*
X138819Y77181D01*
X139453Y78007D01*
X139851Y78968D01*
X139987Y80000D01*
X139851Y81032D01*
X139453Y81993D01*
X138819Y82819D01*
X137993Y83453D01*
X137032Y83851D01*
X136000Y83987D01*
D02*
G37*
G36*
X126000D02*
X124968Y83851D01*
X124007Y83453D01*
X123181Y82819D01*
X122547Y81993D01*
X122149Y81032D01*
X122013Y80000D01*
X122149Y78968D01*
X122547Y78007D01*
X123181Y77181D01*
X124007Y76547D01*
X124471Y76355D01*
Y71645D01*
X124007Y71453D01*
X123181Y70819D01*
X122547Y69993D01*
X122149Y69032D01*
X122013Y68000D01*
X122149Y66968D01*
X122547Y66007D01*
X123181Y65181D01*
X124007Y64547D01*
X124968Y64149D01*
X126000Y64013D01*
X127032Y64149D01*
X127993Y64547D01*
X128819Y65181D01*
X129453Y66007D01*
X129851Y66968D01*
X129987Y68000D01*
X129851Y69032D01*
X129453Y69993D01*
X128819Y70819D01*
X127993Y71453D01*
X127529Y71645D01*
Y76355D01*
X127993Y76547D01*
X128819Y77181D01*
X129453Y78007D01*
X129851Y78968D01*
X129987Y80000D01*
X129851Y81032D01*
X129453Y81993D01*
X128819Y82819D01*
X127993Y83453D01*
X127032Y83851D01*
X126000Y83987D01*
D02*
G37*
G36*
X116000D02*
X114968Y83851D01*
X114007Y83453D01*
X113181Y82819D01*
X112547Y81993D01*
X112149Y81032D01*
X112013Y80000D01*
X112149Y78968D01*
X112547Y78007D01*
X113181Y77181D01*
X114007Y76547D01*
X114471Y76355D01*
Y71645D01*
X114007Y71453D01*
X113181Y70819D01*
X112547Y69993D01*
X112149Y69032D01*
X112013Y68000D01*
X112149Y66968D01*
X112547Y66007D01*
X113181Y65181D01*
X114007Y64547D01*
X114968Y64149D01*
X116000Y64013D01*
X117032Y64149D01*
X117993Y64547D01*
X118819Y65181D01*
X119453Y66007D01*
X119851Y66968D01*
X119987Y68000D01*
X119851Y69032D01*
X119453Y69993D01*
X118819Y70819D01*
X117993Y71453D01*
X117529Y71645D01*
Y76355D01*
X117993Y76547D01*
X118819Y77181D01*
X119453Y78007D01*
X119851Y78968D01*
X119987Y80000D01*
X119851Y81032D01*
X119453Y81993D01*
X118819Y82819D01*
X117993Y83453D01*
X117032Y83851D01*
X116000Y83987D01*
D02*
G37*
G36*
X106000D02*
X104968Y83851D01*
X104007Y83453D01*
X103181Y82819D01*
X102547Y81993D01*
X102149Y81032D01*
X102013Y80000D01*
X102149Y78968D01*
X102547Y78007D01*
X103181Y77181D01*
X104007Y76547D01*
X104471Y76355D01*
Y71645D01*
X104007Y71453D01*
X103181Y70819D01*
X102547Y69993D01*
X102149Y69032D01*
X102013Y68000D01*
X102149Y66968D01*
X102547Y66007D01*
X103181Y65181D01*
X104007Y64547D01*
X104968Y64149D01*
X106000Y64013D01*
X107032Y64149D01*
X107993Y64547D01*
X108819Y65181D01*
X109453Y66007D01*
X109851Y66968D01*
X109987Y68000D01*
X109851Y69032D01*
X109453Y69993D01*
X108819Y70819D01*
X107993Y71453D01*
X107529Y71645D01*
Y76355D01*
X107993Y76547D01*
X108819Y77181D01*
X109453Y78007D01*
X109851Y78968D01*
X109987Y80000D01*
X109851Y81032D01*
X109453Y81993D01*
X108819Y82819D01*
X107993Y83453D01*
X107032Y83851D01*
X106000Y83987D01*
D02*
G37*
G36*
X96000D02*
X94968Y83851D01*
X94007Y83453D01*
X93181Y82819D01*
X92547Y81993D01*
X92149Y81032D01*
X92013Y80000D01*
X92149Y78968D01*
X92547Y78007D01*
X93181Y77181D01*
X94007Y76547D01*
X94471Y76355D01*
Y71645D01*
X94007Y71453D01*
X93181Y70819D01*
X92547Y69993D01*
X92149Y69032D01*
X92013Y68000D01*
X92149Y66968D01*
X92547Y66007D01*
X93181Y65181D01*
X94007Y64547D01*
X94968Y64149D01*
X96000Y64013D01*
X97032Y64149D01*
X97993Y64547D01*
X98819Y65181D01*
X99453Y66007D01*
X99851Y66968D01*
X99987Y68000D01*
X99851Y69032D01*
X99453Y69993D01*
X98819Y70819D01*
X97993Y71453D01*
X97529Y71645D01*
Y76355D01*
X97993Y76547D01*
X98819Y77181D01*
X99453Y78007D01*
X99851Y78968D01*
X99987Y80000D01*
X99851Y81032D01*
X99453Y81993D01*
X98819Y82819D01*
X97993Y83453D01*
X97032Y83851D01*
X96000Y83987D01*
D02*
G37*
G36*
X78500Y93224D02*
X77649Y93054D01*
X76928Y92572D01*
X76446Y91851D01*
X76276Y91000D01*
X76446Y90149D01*
X76928Y89428D01*
X77649Y88946D01*
X78500Y88776D01*
X78551Y88786D01*
X83669Y83668D01*
X83637Y83169D01*
X83181Y82819D01*
X82547Y81993D01*
X82149Y81032D01*
X82013Y80000D01*
X82149Y78968D01*
X82547Y78007D01*
X83181Y77181D01*
X84007Y76547D01*
X84471Y76355D01*
Y71645D01*
X84007Y71453D01*
X83181Y70819D01*
X82547Y69993D01*
X82149Y69032D01*
X82013Y68000D01*
X82149Y66968D01*
X82547Y66007D01*
X83181Y65181D01*
X84007Y64547D01*
X84968Y64149D01*
X86000Y64013D01*
X87032Y64149D01*
X87993Y64547D01*
X88819Y65181D01*
X89453Y66007D01*
X89851Y66968D01*
X89987Y68000D01*
X89851Y69032D01*
X89453Y69993D01*
X88819Y70819D01*
X87993Y71453D01*
X87529Y71645D01*
Y76355D01*
X87993Y76547D01*
X88819Y77181D01*
X89453Y78007D01*
X89851Y78968D01*
X89987Y80000D01*
X89851Y81032D01*
X89453Y81993D01*
X88819Y82819D01*
X87993Y83453D01*
X87498Y83658D01*
X87413Y84085D01*
X87081Y84581D01*
X80714Y90949D01*
X80724Y91000D01*
X80554Y91851D01*
X80072Y92572D01*
X79351Y93054D01*
X78500Y93224D01*
D02*
G37*
G36*
X76000Y83987D02*
X74968Y83851D01*
X74007Y83453D01*
X73181Y82819D01*
X72547Y81993D01*
X72149Y81032D01*
X72013Y80000D01*
X72149Y78968D01*
X72547Y78007D01*
X73181Y77181D01*
X74007Y76547D01*
X74471Y76355D01*
Y71645D01*
X74007Y71453D01*
X73181Y70819D01*
X72547Y69993D01*
X72149Y69032D01*
X72013Y68000D01*
X72149Y66968D01*
X72547Y66007D01*
X73181Y65181D01*
X74007Y64547D01*
X74968Y64149D01*
X76000Y64013D01*
X77032Y64149D01*
X77993Y64547D01*
X78819Y65181D01*
X79453Y66007D01*
X79851Y66968D01*
X79987Y68000D01*
X79851Y69032D01*
X79453Y69993D01*
X78819Y70819D01*
X77993Y71453D01*
X77529Y71645D01*
Y76355D01*
X77993Y76547D01*
X78819Y77181D01*
X79453Y78007D01*
X79851Y78968D01*
X79987Y80000D01*
X79851Y81032D01*
X79453Y81993D01*
X78819Y82819D01*
X77993Y83453D01*
X77032Y83851D01*
X76000Y83987D01*
D02*
G37*
G36*
X66000D02*
X64968Y83851D01*
X64007Y83453D01*
X63181Y82819D01*
X62547Y81993D01*
X62149Y81032D01*
X62013Y80000D01*
X62149Y78968D01*
X62547Y78007D01*
X63181Y77181D01*
X64007Y76547D01*
X64471Y76355D01*
Y71645D01*
X64007Y71453D01*
X63181Y70819D01*
X62547Y69993D01*
X62149Y69032D01*
X62013Y68000D01*
X62149Y66968D01*
X62547Y66007D01*
X63181Y65181D01*
X64007Y64547D01*
X64968Y64149D01*
X66000Y64013D01*
X67032Y64149D01*
X67993Y64547D01*
X68819Y65181D01*
X69453Y66007D01*
X69851Y66968D01*
X69987Y68000D01*
X69851Y69032D01*
X69453Y69993D01*
X68819Y70819D01*
X67993Y71453D01*
X67529Y71645D01*
Y76355D01*
X67993Y76547D01*
X68819Y77181D01*
X69453Y78007D01*
X69851Y78968D01*
X69987Y80000D01*
X69851Y81032D01*
X69453Y81993D01*
X68819Y82819D01*
X67993Y83453D01*
X67032Y83851D01*
X66000Y83987D01*
D02*
G37*
G36*
X56000D02*
X54968Y83851D01*
X54007Y83453D01*
X53181Y82819D01*
X52547Y81993D01*
X52149Y81032D01*
X52013Y80000D01*
X52149Y78968D01*
X52547Y78007D01*
X53181Y77181D01*
X54007Y76547D01*
X54471Y76355D01*
Y71645D01*
X54007Y71453D01*
X53181Y70819D01*
X52547Y69993D01*
X52149Y69032D01*
X52013Y68000D01*
X52149Y66968D01*
X52547Y66007D01*
X53181Y65181D01*
X54007Y64547D01*
X54968Y64149D01*
X56000Y64013D01*
X57032Y64149D01*
X57993Y64547D01*
X58819Y65181D01*
X59453Y66007D01*
X59851Y66968D01*
X59987Y68000D01*
X59851Y69032D01*
X59453Y69993D01*
X58819Y70819D01*
X57993Y71453D01*
X57529Y71645D01*
Y76355D01*
X57993Y76547D01*
X58819Y77181D01*
X59453Y78007D01*
X59851Y78968D01*
X59987Y80000D01*
X59851Y81032D01*
X59453Y81993D01*
X58819Y82819D01*
X57993Y83453D01*
X57032Y83851D01*
X56000Y83987D01*
D02*
G37*
G36*
X46000D02*
X44968Y83851D01*
X44007Y83453D01*
X43181Y82819D01*
X42547Y81993D01*
X42149Y81032D01*
X42013Y80000D01*
X42149Y78968D01*
X42547Y78007D01*
X43181Y77181D01*
X44007Y76547D01*
X44471Y76355D01*
Y71645D01*
X44007Y71453D01*
X43181Y70819D01*
X42547Y69993D01*
X42149Y69032D01*
X42013Y68000D01*
X42149Y66968D01*
X42547Y66007D01*
X43181Y65181D01*
X44007Y64547D01*
X44968Y64149D01*
X46000Y64013D01*
X47032Y64149D01*
X47993Y64547D01*
X48819Y65181D01*
X49453Y66007D01*
X49851Y66968D01*
X49987Y68000D01*
X49851Y69032D01*
X49453Y69993D01*
X48819Y70819D01*
X47993Y71453D01*
X47529Y71645D01*
Y76355D01*
X47993Y76547D01*
X48819Y77181D01*
X49453Y78007D01*
X49851Y78968D01*
X49987Y80000D01*
X49851Y81032D01*
X49453Y81993D01*
X48819Y82819D01*
X47993Y83453D01*
X47032Y83851D01*
X46000Y83987D01*
D02*
G37*
G36*
X292504Y64067D02*
X289083D01*
Y60646D01*
X289615Y60716D01*
X290576Y61114D01*
X291402Y61748D01*
X292035Y62573D01*
X292434Y63535D01*
X292504Y64067D01*
D02*
G37*
G36*
X288083D02*
X284662D01*
X284732Y63535D01*
X285130Y62573D01*
X285764Y61748D01*
X286589Y61114D01*
X287551Y60716D01*
X288083Y60646D01*
Y64067D01*
D02*
G37*
G36*
X176000Y83987D02*
X174968Y83851D01*
X174007Y83453D01*
X173181Y82819D01*
X172547Y81993D01*
X172149Y81032D01*
X172013Y80000D01*
X172149Y78968D01*
X172547Y78007D01*
X173181Y77181D01*
X173706Y76778D01*
Y71222D01*
X173181Y70819D01*
X172547Y69993D01*
X172149Y69032D01*
X172013Y68000D01*
X172149Y66968D01*
X172547Y66007D01*
X173181Y65181D01*
X173706Y64778D01*
Y59222D01*
X173181Y58819D01*
X172778Y58294D01*
X169222D01*
X168819Y58819D01*
X167993Y59453D01*
X167032Y59851D01*
X166000Y59987D01*
X164968Y59851D01*
X164007Y59453D01*
X163181Y58819D01*
X162778Y58294D01*
X159222D01*
X158819Y58819D01*
X157993Y59453D01*
X157032Y59851D01*
X156000Y59987D01*
X154968Y59851D01*
X154007Y59453D01*
X153181Y58819D01*
X152547Y57993D01*
X152149Y57032D01*
X152013Y56000D01*
X152149Y54968D01*
X152547Y54007D01*
X153181Y53181D01*
X154007Y52547D01*
X154968Y52149D01*
X156000Y52013D01*
X157032Y52149D01*
X157993Y52547D01*
X158819Y53181D01*
X159222Y53706D01*
X162778D01*
X163181Y53181D01*
X164007Y52547D01*
X164968Y52149D01*
X166000Y52013D01*
X167032Y52149D01*
X167993Y52547D01*
X168819Y53181D01*
X169222Y53706D01*
X172778D01*
X173181Y53181D01*
X173706Y52778D01*
Y49222D01*
X173181Y48819D01*
X172778Y48294D01*
X169222D01*
X168819Y48819D01*
X167993Y49453D01*
X167032Y49851D01*
X166000Y49987D01*
X164968Y49851D01*
X164007Y49453D01*
X163181Y48819D01*
X162778Y48294D01*
X159953D01*
Y49953D01*
X152047D01*
Y42047D01*
X159953D01*
Y43706D01*
X162778D01*
X163181Y43181D01*
X164007Y42547D01*
X164968Y42149D01*
X166000Y42013D01*
X167032Y42149D01*
X167993Y42547D01*
X168819Y43181D01*
X169222Y43706D01*
X172778D01*
X173181Y43181D01*
X174007Y42547D01*
X174968Y42149D01*
X176000Y42013D01*
X177032Y42149D01*
X177993Y42547D01*
X178819Y43181D01*
X179453Y44007D01*
X179851Y44968D01*
X179987Y46000D01*
X179851Y47032D01*
X179453Y47993D01*
X178819Y48819D01*
X178294Y49222D01*
Y52778D01*
X178819Y53181D01*
X179453Y54007D01*
X179851Y54968D01*
X179987Y56000D01*
X179851Y57032D01*
X179453Y57993D01*
X178819Y58819D01*
X178294Y59222D01*
Y64778D01*
X178819Y65181D01*
X179453Y66007D01*
X179851Y66968D01*
X179987Y68000D01*
X179851Y69032D01*
X179453Y69993D01*
X178819Y70819D01*
X178294Y71222D01*
Y76778D01*
X178819Y77181D01*
X179453Y78007D01*
X179851Y78968D01*
X179987Y80000D01*
X179851Y81032D01*
X179453Y81993D01*
X178819Y82819D01*
X177993Y83453D01*
X177032Y83851D01*
X176000Y83987D01*
D02*
G37*
G36*
X136500Y59921D02*
Y56500D01*
X139921D01*
X139851Y57032D01*
X139453Y57993D01*
X138819Y58819D01*
X137993Y59453D01*
X137032Y59851D01*
X136500Y59921D01*
D02*
G37*
G36*
X126500D02*
Y56500D01*
X129921D01*
X129851Y57032D01*
X129453Y57993D01*
X128819Y58819D01*
X127993Y59453D01*
X127032Y59851D01*
X126500Y59921D01*
D02*
G37*
G36*
X116500D02*
Y56500D01*
X119921D01*
X119851Y57032D01*
X119453Y57993D01*
X118819Y58819D01*
X117993Y59453D01*
X117032Y59851D01*
X116500Y59921D01*
D02*
G37*
G36*
X135500D02*
X134968Y59851D01*
X134007Y59453D01*
X133181Y58819D01*
X132547Y57993D01*
X132149Y57032D01*
X132079Y56500D01*
X135500D01*
Y59921D01*
D02*
G37*
G36*
X125500D02*
X124968Y59851D01*
X124007Y59453D01*
X123181Y58819D01*
X122547Y57993D01*
X122149Y57032D01*
X122079Y56500D01*
X125500D01*
Y59921D01*
D02*
G37*
G36*
X115500D02*
X114968Y59851D01*
X114007Y59453D01*
X113181Y58819D01*
X112547Y57993D01*
X112149Y57032D01*
X112079Y56500D01*
X115500D01*
Y59921D01*
D02*
G37*
G36*
X139921Y55500D02*
X136500D01*
Y52079D01*
X137032Y52149D01*
X137993Y52547D01*
X138819Y53181D01*
X139453Y54007D01*
X139851Y54968D01*
X139921Y55500D01*
D02*
G37*
G36*
X129921D02*
X126500D01*
Y52079D01*
X127032Y52149D01*
X127993Y52547D01*
X128819Y53181D01*
X129453Y54007D01*
X129851Y54968D01*
X129921Y55500D01*
D02*
G37*
G36*
X119921D02*
X116500D01*
Y52079D01*
X117032Y52149D01*
X117993Y52547D01*
X118819Y53181D01*
X119453Y54007D01*
X119851Y54968D01*
X119921Y55500D01*
D02*
G37*
G36*
X135500D02*
X132079D01*
X132149Y54968D01*
X132547Y54007D01*
X133181Y53181D01*
X134007Y52547D01*
X134968Y52149D01*
X135500Y52079D01*
Y55500D01*
D02*
G37*
G36*
X125500D02*
X122079D01*
X122149Y54968D01*
X122547Y54007D01*
X123181Y53181D01*
X124007Y52547D01*
X124968Y52149D01*
X125500Y52079D01*
Y55500D01*
D02*
G37*
G36*
X115500D02*
X112079D01*
X112149Y54968D01*
X112547Y54007D01*
X113181Y53181D01*
X114007Y52547D01*
X114968Y52149D01*
X115500Y52079D01*
Y55500D01*
D02*
G37*
G36*
X96000Y59987D02*
X94968Y59851D01*
X94007Y59453D01*
X93181Y58819D01*
X92547Y57993D01*
X92149Y57032D01*
X92013Y56000D01*
X92149Y54968D01*
X92547Y54007D01*
X93181Y53181D01*
X94007Y52547D01*
X94968Y52149D01*
X96000Y52013D01*
X97032Y52149D01*
X97993Y52547D01*
X98819Y53181D01*
X99453Y54007D01*
X99851Y54968D01*
X99987Y56000D01*
X99851Y57032D01*
X99453Y57993D01*
X98819Y58819D01*
X97993Y59453D01*
X97032Y59851D01*
X96000Y59987D01*
D02*
G37*
G36*
X86000D02*
X84968Y59851D01*
X84007Y59453D01*
X83181Y58819D01*
X82547Y57993D01*
X82149Y57032D01*
X82013Y56000D01*
X82149Y54968D01*
X82547Y54007D01*
X83181Y53181D01*
X84007Y52547D01*
X84968Y52149D01*
X86000Y52013D01*
X87032Y52149D01*
X87993Y52547D01*
X88819Y53181D01*
X89453Y54007D01*
X89851Y54968D01*
X89987Y56000D01*
X89851Y57032D01*
X89453Y57993D01*
X88819Y58819D01*
X87993Y59453D01*
X87032Y59851D01*
X86000Y59987D01*
D02*
G37*
G36*
X76000D02*
X74968Y59851D01*
X74007Y59453D01*
X73181Y58819D01*
X72547Y57993D01*
X72149Y57032D01*
X72013Y56000D01*
X72149Y54968D01*
X72547Y54007D01*
X73181Y53181D01*
X74007Y52547D01*
X74968Y52149D01*
X76000Y52013D01*
X77032Y52149D01*
X77993Y52547D01*
X78819Y53181D01*
X79453Y54007D01*
X79851Y54968D01*
X79987Y56000D01*
X79851Y57032D01*
X79453Y57993D01*
X78819Y58819D01*
X77993Y59453D01*
X77032Y59851D01*
X76000Y59987D01*
D02*
G37*
G36*
X211622Y54708D02*
Y51287D01*
X215043D01*
X214973Y51819D01*
X214575Y52781D01*
X213941Y53606D01*
X213116Y54240D01*
X212154Y54638D01*
X211622Y54708D01*
D02*
G37*
G36*
X210622D02*
X210090Y54638D01*
X209129Y54240D01*
X208303Y53606D01*
X207669Y52781D01*
X207271Y51819D01*
X207201Y51287D01*
X210622D01*
Y54708D01*
D02*
G37*
G36*
X257390Y54118D02*
Y50697D01*
X260811D01*
X260741Y51229D01*
X260343Y52190D01*
X259709Y53016D01*
X258883Y53650D01*
X257922Y54048D01*
X257390Y54118D01*
D02*
G37*
G36*
X256390D02*
X255858Y54048D01*
X254896Y53650D01*
X254071Y53016D01*
X253437Y52190D01*
X253039Y51229D01*
X252969Y50697D01*
X256390D01*
Y54118D01*
D02*
G37*
G36*
X210622Y50287D02*
X207201D01*
X207271Y49755D01*
X207669Y48794D01*
X208303Y47968D01*
X209129Y47335D01*
X210090Y46936D01*
X210622Y46866D01*
Y50287D01*
D02*
G37*
G36*
X215043D02*
X211622D01*
Y46866D01*
X212154Y46936D01*
X213116Y47335D01*
X213941Y47968D01*
X214575Y48794D01*
X214973Y49755D01*
X215043Y50287D01*
D02*
G37*
G36*
X136500Y49921D02*
Y46500D01*
X139921D01*
X139851Y47032D01*
X139453Y47993D01*
X138819Y48819D01*
X137993Y49453D01*
X137032Y49851D01*
X136500Y49921D01*
D02*
G37*
G36*
X126500D02*
Y46500D01*
X129921D01*
X129851Y47032D01*
X129453Y47993D01*
X128819Y48819D01*
X127993Y49453D01*
X127032Y49851D01*
X126500Y49921D01*
D02*
G37*
G36*
X119953Y49953D02*
X116500D01*
Y46500D01*
X119953D01*
Y49953D01*
D02*
G37*
G36*
X135500Y49921D02*
X134968Y49851D01*
X134007Y49453D01*
X133181Y48819D01*
X132547Y47993D01*
X132149Y47032D01*
X132079Y46500D01*
X135500D01*
Y49921D01*
D02*
G37*
G36*
X125500D02*
X124968Y49851D01*
X124007Y49453D01*
X123181Y48819D01*
X122547Y47993D01*
X122149Y47032D01*
X122079Y46500D01*
X125500D01*
Y49921D01*
D02*
G37*
G36*
X115500Y49953D02*
X112047D01*
Y46500D01*
X115500D01*
Y49953D01*
D02*
G37*
G36*
X256390Y49697D02*
X252969D01*
X253039Y49165D01*
X253437Y48203D01*
X254071Y47378D01*
X254896Y46744D01*
X255858Y46346D01*
X256390Y46276D01*
Y49697D01*
D02*
G37*
G36*
X260811D02*
X257390D01*
Y46276D01*
X257922Y46346D01*
X258883Y46744D01*
X259709Y47378D01*
X260343Y48203D01*
X260741Y49165D01*
X260811Y49697D01*
D02*
G37*
G36*
X139921Y45500D02*
X136500D01*
Y42079D01*
X137032Y42149D01*
X137993Y42547D01*
X138819Y43181D01*
X139453Y44007D01*
X139851Y44968D01*
X139921Y45500D01*
D02*
G37*
G36*
X129921D02*
X126500D01*
Y42079D01*
X127032Y42149D01*
X127993Y42547D01*
X128819Y43181D01*
X129453Y44007D01*
X129851Y44968D01*
X129921Y45500D01*
D02*
G37*
G36*
X135500D02*
X132079D01*
X132149Y44968D01*
X132547Y44007D01*
X133181Y43181D01*
X134007Y42547D01*
X134968Y42149D01*
X135500Y42079D01*
Y45500D01*
D02*
G37*
G36*
X125500D02*
X122079D01*
X122149Y44968D01*
X122547Y44007D01*
X123181Y43181D01*
X124007Y42547D01*
X124968Y42149D01*
X125500Y42079D01*
Y45500D01*
D02*
G37*
G36*
X119953D02*
X116500D01*
Y42047D01*
X119953D01*
Y45500D01*
D02*
G37*
G36*
X115500D02*
X112047D01*
Y42047D01*
X115500D01*
Y45500D01*
D02*
G37*
G36*
X79953Y49953D02*
X72047D01*
Y42047D01*
X79953D01*
Y49953D01*
D02*
G37*
G36*
X96000Y49987D02*
X94968Y49851D01*
X94007Y49453D01*
X93181Y48819D01*
X92547Y47993D01*
X92149Y47032D01*
X92013Y46000D01*
X92149Y44968D01*
X92547Y44007D01*
X93181Y43181D01*
X94007Y42547D01*
X94968Y42149D01*
X96000Y42013D01*
X97032Y42149D01*
X97993Y42547D01*
X98819Y43181D01*
X99453Y44007D01*
X99851Y44968D01*
X99987Y46000D01*
X99851Y47032D01*
X99453Y47993D01*
X98819Y48819D01*
X97993Y49453D01*
X97032Y49851D01*
X96000Y49987D01*
D02*
G37*
G36*
X86000D02*
X84968Y49851D01*
X84007Y49453D01*
X83181Y48819D01*
X82547Y47993D01*
X82149Y47032D01*
X82013Y46000D01*
X82149Y44968D01*
X82547Y44007D01*
X83181Y43181D01*
X84007Y42547D01*
X84968Y42149D01*
X86000Y42013D01*
X87032Y42149D01*
X87993Y42547D01*
X88819Y43181D01*
X89453Y44007D01*
X89851Y44968D01*
X89987Y46000D01*
X89851Y47032D01*
X89453Y47993D01*
X88819Y48819D01*
X87993Y49453D01*
X87032Y49851D01*
X86000Y49987D01*
D02*
G37*
%LPD*%
D11*
X80709Y173228D02*
X109604D01*
X115419Y179043D01*
X125736D01*
X128189Y181496D01*
X240453Y84453D02*
X278539D01*
X236000Y80000D02*
X240453Y84453D01*
X278539D02*
X288583Y74410D01*
X246000Y140000D02*
Y154000D01*
X278854Y135547D02*
X288976Y145669D01*
X254156Y135547D02*
X278854D01*
X250453Y139250D02*
X254156Y135547D01*
X246750Y139250D02*
X250453D01*
X246000Y140000D02*
X246750Y139250D01*
X265921Y154079D02*
Y155406D01*
X263779Y157548D02*
X265921Y155406D01*
X263779Y157548D02*
Y169291D01*
X240709D02*
X256000Y154000D01*
X222835Y169291D02*
X240709D01*
X256000Y59150D02*
Y68000D01*
X247047Y50197D02*
X256000Y59150D01*
X228787Y50787D02*
X246000Y68000D01*
X220965Y50787D02*
X228787D01*
X263779Y169291D02*
X263858Y169213D01*
X265921Y154079D02*
X266000Y154000D01*
X236000Y68000D02*
Y80000D01*
X266000Y140000D02*
Y154000D01*
X256000Y140000D02*
Y154000D01*
X66000Y140000D02*
Y154000D01*
X86000Y140000D02*
Y154000D01*
X138189Y168996D02*
Y181496D01*
X86000Y80000D02*
Y83500D01*
X78500Y91000D02*
X86000Y83500D01*
X246000Y68000D02*
Y80000D01*
X256000Y68000D02*
Y80000D01*
X116000Y140000D02*
Y154000D01*
X126000Y140000D02*
Y154000D01*
X138732Y168898D02*
X139232Y168398D01*
X86000Y68000D02*
Y80000D01*
X236000Y140000D02*
Y154000D01*
X76000Y140000D02*
Y154000D01*
X106000Y140000D02*
Y154000D01*
X96000Y140000D02*
Y154000D01*
X146000Y140000D02*
Y154000D01*
X136000Y140000D02*
Y154000D01*
X166000Y140000D02*
Y154000D01*
X156000Y140000D02*
Y154000D01*
X186000Y140000D02*
Y154000D01*
X206000Y140000D02*
Y154000D01*
X196000Y140000D02*
Y154000D01*
X226000Y140000D02*
Y154000D01*
X216000Y140000D02*
Y154000D01*
X266000Y68000D02*
Y80000D01*
X226000Y68000D02*
Y80000D01*
X216000Y68000D02*
Y80000D01*
X206000Y68000D02*
Y80000D01*
X196000Y68000D02*
Y80000D01*
X186000Y68000D02*
Y80000D01*
X46000Y68000D02*
Y80000D01*
X66000Y68000D02*
Y80000D01*
X56000Y68000D02*
Y80000D01*
X76000Y68000D02*
Y80000D01*
X106000Y68000D02*
Y80000D01*
X96000Y68000D02*
Y80000D01*
X126000Y68000D02*
Y80000D01*
X116000Y68000D02*
Y80000D01*
X146000Y68000D02*
Y80000D01*
X136000Y68000D02*
Y80000D01*
X156000Y68000D02*
Y80000D01*
X166000Y68000D02*
Y80000D01*
X1000Y15748D02*
X303000D01*
X303000Y205000D02*
X303000Y15748D01*
X1000Y205000D02*
X303000D01*
X1000D02*
X1000Y15748D01*
D12*
X138091Y168898D02*
D03*
X145374D02*
D03*
D18*
X36000Y154000D02*
Y169685D01*
Y140000D02*
Y154000D01*
D19*
X166000Y46000D02*
X176000D01*
X156000D02*
X166000D01*
Y56000D02*
X176000D01*
X156000D02*
X166000D01*
X176000D02*
Y68000D01*
Y80000D01*
Y46000D02*
Y56000D01*
D20*
X56000Y140000D02*
Y154000D01*
D21*
X36000Y68000D02*
D03*
X226000D02*
D03*
X216000D02*
D03*
X206000D02*
D03*
X256000D02*
D03*
X246000D02*
D03*
X236000D02*
D03*
X166000D02*
D03*
X176000D02*
D03*
X186000D02*
D03*
X196000D02*
D03*
X126000D02*
D03*
X136000D02*
D03*
X146000D02*
D03*
X156000D02*
D03*
X86000D02*
D03*
X96000D02*
D03*
X106000D02*
D03*
X116000D02*
D03*
X76000D02*
D03*
X66000D02*
D03*
X56000D02*
D03*
X46000D02*
D03*
X256000Y140000D02*
D03*
X266000D02*
D03*
X236000D02*
D03*
X246000D02*
D03*
X226000D02*
D03*
Y80000D02*
D03*
X206000Y140000D02*
D03*
X216000D02*
D03*
X156000D02*
D03*
X166000D02*
D03*
X136000D02*
D03*
X146000D02*
D03*
X186000D02*
D03*
X196000D02*
D03*
X176000D02*
D03*
X256000Y80000D02*
D03*
X266000D02*
D03*
X236000D02*
D03*
X246000D02*
D03*
X206000D02*
D03*
X216000D02*
D03*
X156000D02*
D03*
X166000D02*
D03*
X136000D02*
D03*
X146000D02*
D03*
X186000D02*
D03*
X196000D02*
D03*
X176000D02*
D03*
X116000Y140000D02*
D03*
X126000D02*
D03*
X96000D02*
D03*
X106000D02*
D03*
X76000D02*
D03*
X86000D02*
D03*
X56000D02*
D03*
X66000D02*
D03*
X36000D02*
D03*
X46000D02*
D03*
X116000Y80000D02*
D03*
X126000D02*
D03*
X86000D02*
D03*
X96000D02*
D03*
X106000D02*
D03*
X36000D02*
D03*
X46000D02*
D03*
X66000D02*
D03*
X76000D02*
D03*
X56000D02*
D03*
X45669Y169291D02*
D03*
X55512D02*
D03*
X35827Y169685D02*
D03*
X65354Y169291D02*
D03*
X288583Y64567D02*
D03*
Y74410D02*
D03*
X288583Y84252D02*
D03*
X288976Y135827D02*
D03*
Y145669D02*
D03*
X288976Y155512D02*
D03*
X256000Y154000D02*
D03*
X246000D02*
D03*
X236000D02*
D03*
X226000D02*
D03*
X186000D02*
D03*
X196000D02*
D03*
X206000D02*
D03*
X216000D02*
D03*
X146000D02*
D03*
X156000D02*
D03*
X166000D02*
D03*
X176000D02*
D03*
X106000D02*
D03*
X116000D02*
D03*
X126000D02*
D03*
X136000D02*
D03*
X66000D02*
D03*
X56000D02*
D03*
X46000D02*
D03*
X96000D02*
D03*
X86000D02*
D03*
X76000D02*
D03*
X266000D02*
D03*
X212992Y169291D02*
D03*
X222835D02*
D03*
X256890Y50197D02*
D03*
X247047D02*
D03*
X126000Y46000D02*
D03*
X136000D02*
D03*
X116000Y56000D02*
D03*
X126000D02*
D03*
X136000D02*
D03*
X148189Y181496D02*
D03*
X138189D02*
D03*
X111181Y181102D02*
D03*
X101181D02*
D03*
X220965Y50787D02*
D03*
X211122D02*
D03*
X253937Y169291D02*
D03*
X263779D02*
D03*
X86000Y46000D02*
D03*
X96000D02*
D03*
X76000Y56000D02*
D03*
X86000D02*
D03*
X96000D02*
D03*
X166000Y46000D02*
D03*
X176000D02*
D03*
X156000Y56000D02*
D03*
X166000D02*
D03*
X176000D02*
D03*
D22*
X266000Y68000D02*
D03*
X36000Y154000D02*
D03*
X116000Y46000D02*
D03*
X128189Y181496D02*
D03*
X91181Y181102D02*
D03*
X76000Y46000D02*
D03*
X156000D02*
D03*
D23*
X12000Y193000D02*
D03*
X290000Y110500D02*
D03*
D24*
X15748Y27559D02*
D03*
D25*
X80709Y173228D02*
D03*
X78500Y91000D02*
D03*
M02*
