%TF.GenerationSoftware,Altium Limited,Altium Designer,19.1.8 (144)*%
G04 Layer_Color=8388736*
%FSLAX26Y26*%
%MOIN*%
%TF.FileFunction,Soldermask,Top*%
%TF.Part,Single*%
G01*
G75*
%TA.AperFunction,SMDPad,CuDef*%
%ADD29R,0.049339X0.063118*%
%TA.AperFunction,ComponentPad*%
%ADD31C,0.068000*%
%ADD32R,0.068000X0.068000*%
%TA.AperFunction,ViaPad*%
%ADD33C,0.108000*%
%ADD34O,0.108000X0.108480*%
%ADD35C,0.058000*%
D29*
X1380000Y1825000D02*
D03*
X1452835D02*
D03*
D31*
X2890000Y211575D02*
D03*
Y310000D02*
D03*
X2893937Y408425D02*
D03*
Y1946850D02*
D03*
X2890000Y1848425D02*
D03*
Y1750000D02*
D03*
X2658425Y1920000D02*
D03*
X2560000D02*
D03*
X2111575Y210000D02*
D03*
X2210000D02*
D03*
X560000Y800000D02*
D03*
X760000D02*
D03*
X660000D02*
D03*
X460000D02*
D03*
X360000D02*
D03*
X1060000D02*
D03*
X960000D02*
D03*
X860000D02*
D03*
X1260000D02*
D03*
X1160000D02*
D03*
X460000Y1400000D02*
D03*
X360000D02*
D03*
X660000D02*
D03*
X560000D02*
D03*
X860000D02*
D03*
X760000D02*
D03*
X1060000D02*
D03*
X960000D02*
D03*
X1260000D02*
D03*
X1160000D02*
D03*
X1760000Y800000D02*
D03*
X1960000D02*
D03*
X1860000D02*
D03*
X1460000D02*
D03*
X1360000D02*
D03*
X1660000D02*
D03*
X1560000D02*
D03*
X2160000D02*
D03*
X2060000D02*
D03*
X2360000D02*
D03*
X2260000D02*
D03*
X2660000D02*
D03*
X2460000D02*
D03*
X1760000Y1400000D02*
D03*
X1960000D02*
D03*
X1860000D02*
D03*
X1460000D02*
D03*
X1360000D02*
D03*
X1660000D02*
D03*
X1560000D02*
D03*
X2160000D02*
D03*
X2060000D02*
D03*
X2560000Y800000D02*
D03*
X2260000Y1400000D02*
D03*
X2460000D02*
D03*
X2360000D02*
D03*
X2660000D02*
D03*
X2560000D02*
D03*
X2190000Y1920000D02*
D03*
X2288425D02*
D03*
X656850D02*
D03*
X558425D02*
D03*
X460000D02*
D03*
X361575Y1923937D02*
D03*
X2570000Y210000D02*
D03*
X2471575D02*
D03*
X2560000Y1695000D02*
D03*
X2460000D02*
D03*
X2360000D02*
D03*
X2260000D02*
D03*
X1860000D02*
D03*
X1960000D02*
D03*
X2060000D02*
D03*
X2160000D02*
D03*
X1460000D02*
D03*
X1560000D02*
D03*
X1660000D02*
D03*
X1760000D02*
D03*
X1060000D02*
D03*
X1160000D02*
D03*
X1260000D02*
D03*
X1360000D02*
D03*
X660000D02*
D03*
X560000D02*
D03*
X460000D02*
D03*
X960000D02*
D03*
X860000D02*
D03*
X760000D02*
D03*
X2660000D02*
D03*
X1380000Y1950000D02*
D03*
X1480000D02*
D03*
X1015000D02*
D03*
X1115000D02*
D03*
X460000Y500000D02*
D03*
X560000D02*
D03*
X660000D02*
D03*
X760000D02*
D03*
X1160000D02*
D03*
X1060000D02*
D03*
X960000D02*
D03*
X860000D02*
D03*
X1560000D02*
D03*
X1460000D02*
D03*
X1360000D02*
D03*
X1260000D02*
D03*
X1960000D02*
D03*
X1860000D02*
D03*
X1760000D02*
D03*
X1660000D02*
D03*
X2360000D02*
D03*
X2460000D02*
D03*
X2560000D02*
D03*
X2060000D02*
D03*
X2160000D02*
D03*
X2260000D02*
D03*
X360000D02*
D03*
X1660000Y140000D02*
D03*
X1760000D02*
D03*
X1560000Y240000D02*
D03*
X1660000D02*
D03*
X1760000D02*
D03*
X860000Y140000D02*
D03*
X960000D02*
D03*
X760000Y240000D02*
D03*
X860000D02*
D03*
X960000D02*
D03*
X1260000Y140000D02*
D03*
X1360000D02*
D03*
X1160000Y240000D02*
D03*
X1260000D02*
D03*
X1360000D02*
D03*
D32*
X360000Y1695000D02*
D03*
X1280000Y1950000D02*
D03*
X915000D02*
D03*
X2660000Y500000D02*
D03*
X1560000Y140000D02*
D03*
X760000D02*
D03*
X1160000D02*
D03*
D33*
X120000Y1930000D02*
D03*
X2900000Y1105000D02*
D03*
D34*
X140000Y220000D02*
D03*
D35*
X870000Y1870000D02*
D03*
X785000Y910000D02*
D03*
%TF.MD5,fb8f1f09da058f59438050810750c251*%
M02*
