G04*
G04 #@! TF.GenerationSoftware,Altium Limited,Altium Designer,19.1.8 (144)*
G04*
G04 Layer_Color=32768*
%FSLAX25Y25*%
%MOIN*%
G70*
G01*
G75*
%ADD12C,0.01000*%
%ADD39C,0.00394*%
%ADD40C,0.00197*%
D12*
X145500Y343000D02*
Y387000D01*
X89000D02*
X145500D01*
X89000Y300500D02*
Y387000D01*
Y300500D02*
X145500D01*
Y343500D01*
X82500Y300500D02*
Y343500D01*
X26000Y300500D02*
X82500D01*
X26000D02*
Y387000D01*
X82500D01*
Y343000D02*
Y387000D01*
D39*
X47016Y255514D02*
Y259451D01*
X45048Y257483D02*
X48985D01*
X52548Y230535D02*
X56485D01*
X54516Y228567D02*
Y232504D01*
X55048Y199500D02*
X58985D01*
X57016Y197531D02*
Y201468D01*
X159232Y317841D02*
X163169D01*
X161200Y315872D02*
Y319809D01*
X292779Y211815D02*
Y215752D01*
X290811Y213784D02*
X294748D01*
X82150Y44197D02*
X86087D01*
X84118Y42228D02*
Y46165D01*
D40*
X43473Y264176D02*
X50559D01*
X43473Y250790D02*
X50559D01*
Y264176D01*
X43473Y250790D02*
Y264176D01*
X66327Y214197D02*
Y246874D01*
X42705Y214197D02*
Y246874D01*
X66327D01*
X42705Y214197D02*
X66327D01*
X53276Y192807D02*
Y206193D01*
X60756Y192807D02*
Y206193D01*
X53276Y192807D02*
X60756D01*
X53276Y206193D02*
X60756D01*
X154507Y314298D02*
Y321384D01*
X167893Y314298D02*
Y321384D01*
X154507D02*
X167893D01*
X154507Y314298D02*
X167893D01*
X286087Y217524D02*
X299472D01*
X286087Y210043D02*
X299472D01*
X286087D02*
Y217524D01*
X299472Y210043D02*
Y217524D01*
X87858Y37504D02*
Y50890D01*
X80378Y37504D02*
Y50890D01*
X87858D01*
X80378Y37504D02*
X87858D01*
M02*
