G04*
G04 #@! TF.GenerationSoftware,Altium Limited,Altium Designer,19.1.8 (144)*
G04*
G04 Layer_Color=16711935*
%FSLAX25Y25*%
%MOIN*%
G70*
G01*
G75*
%ADD24C,0.06800*%
%ADD25R,0.06800X0.06800*%
%ADD26C,0.06706*%
%ADD27R,0.06706X0.06706*%
%ADD28R,0.06800X0.06800*%
%ADD29C,0.07099*%
D24*
X104500Y318500D02*
D03*
X114500D02*
D03*
X124500D02*
D03*
X109500Y308500D02*
D03*
X119500D02*
D03*
X97000Y343500D02*
D03*
X137000D02*
D03*
X74000D02*
D03*
X34000D02*
D03*
X56500Y308500D02*
D03*
X46500D02*
D03*
X61500Y318500D02*
D03*
X51500D02*
D03*
X41500D02*
D03*
X332602Y203998D02*
D03*
Y213841D02*
D03*
X29000Y195102D02*
D03*
Y185260D02*
D03*
Y175417D02*
D03*
Y165575D02*
D03*
X28606Y155732D02*
D03*
X212661Y113841D02*
D03*
Y123841D02*
D03*
Y133841D02*
D03*
Y273841D02*
D03*
Y263841D02*
D03*
Y253841D02*
D03*
X152661Y133841D02*
D03*
X212661Y103841D02*
D03*
Y93841D02*
D03*
Y83841D02*
D03*
Y73841D02*
D03*
Y63841D02*
D03*
Y53841D02*
D03*
Y43841D02*
D03*
X152661D02*
D03*
Y53841D02*
D03*
Y63841D02*
D03*
Y73841D02*
D03*
Y83841D02*
D03*
Y93841D02*
D03*
Y103841D02*
D03*
Y113841D02*
D03*
Y123841D02*
D03*
X212661Y243841D02*
D03*
Y233841D02*
D03*
Y223841D02*
D03*
Y213841D02*
D03*
Y203841D02*
D03*
Y193841D02*
D03*
Y183841D02*
D03*
Y173841D02*
D03*
Y163841D02*
D03*
Y153841D02*
D03*
Y143841D02*
D03*
X152661D02*
D03*
Y153841D02*
D03*
Y163841D02*
D03*
Y173841D02*
D03*
Y183841D02*
D03*
Y193841D02*
D03*
Y203841D02*
D03*
Y213841D02*
D03*
Y223841D02*
D03*
Y233841D02*
D03*
Y243841D02*
D03*
Y253841D02*
D03*
Y263841D02*
D03*
Y273841D02*
D03*
X29000Y80650D02*
D03*
Y90493D02*
D03*
X351000Y373500D02*
D03*
X353000Y13000D02*
D03*
X13500Y13000D02*
D03*
X11500Y375000D02*
D03*
X353000Y76000D02*
D03*
Y86000D02*
D03*
Y144000D02*
D03*
Y154000D02*
D03*
X300500Y101500D02*
D03*
Y91500D02*
D03*
Y81500D02*
D03*
Y71500D02*
D03*
X330500D02*
D03*
Y81500D02*
D03*
Y91500D02*
D03*
Y101500D02*
D03*
X300500Y168000D02*
D03*
Y158000D02*
D03*
Y148000D02*
D03*
Y138000D02*
D03*
X330500D02*
D03*
Y148000D02*
D03*
Y158000D02*
D03*
Y168000D02*
D03*
X29000Y54335D02*
D03*
Y44492D02*
D03*
Y127169D02*
D03*
Y117327D02*
D03*
D25*
X129500Y308500D02*
D03*
X66500D02*
D03*
D26*
X204000Y349500D02*
D03*
X214000D02*
D03*
X204000Y339500D02*
D03*
X214000D02*
D03*
X204000Y329500D02*
D03*
X268213Y43841D02*
D03*
Y53841D02*
D03*
Y63841D02*
D03*
Y73841D02*
D03*
Y83841D02*
D03*
Y93841D02*
D03*
Y103841D02*
D03*
Y113841D02*
D03*
Y123841D02*
D03*
Y133841D02*
D03*
Y143841D02*
D03*
Y153841D02*
D03*
Y163841D02*
D03*
Y173841D02*
D03*
Y183841D02*
D03*
Y193841D02*
D03*
Y203841D02*
D03*
Y213841D02*
D03*
Y223841D02*
D03*
Y233841D02*
D03*
Y243841D02*
D03*
Y253841D02*
D03*
Y263841D02*
D03*
X102425Y43841D02*
D03*
Y53841D02*
D03*
Y63841D02*
D03*
Y73841D02*
D03*
Y83841D02*
D03*
Y93841D02*
D03*
Y103841D02*
D03*
Y113841D02*
D03*
Y123841D02*
D03*
Y133841D02*
D03*
Y143841D02*
D03*
Y153841D02*
D03*
Y163841D02*
D03*
Y173841D02*
D03*
Y183841D02*
D03*
Y193841D02*
D03*
Y203841D02*
D03*
Y213841D02*
D03*
Y223841D02*
D03*
Y233841D02*
D03*
Y243841D02*
D03*
Y253841D02*
D03*
Y263841D02*
D03*
X177661Y317841D02*
D03*
Y327841D02*
D03*
X261000Y329500D02*
D03*
X271000Y339500D02*
D03*
X261000D02*
D03*
X271000Y349500D02*
D03*
X261000D02*
D03*
X232000Y329500D02*
D03*
X242000Y339500D02*
D03*
X232000D02*
D03*
X242000Y349500D02*
D03*
X232000D02*
D03*
D27*
X214000Y329500D02*
D03*
X268213Y273841D02*
D03*
X102425D02*
D03*
X177661Y307841D02*
D03*
X271000Y329500D02*
D03*
X242000D02*
D03*
D28*
X353000Y96000D02*
D03*
Y164000D02*
D03*
D29*
X103803Y12996D02*
D03*
X113803D02*
D03*
X123803D02*
D03*
M02*
