G04*
G04 #@! TF.GenerationSoftware,Altium Limited,Altium Designer,19.1.8 (144)*
G04*
G04 Layer_Physical_Order=1*
G04 Layer_Color=255*
%FSLAX25Y25*%
%MOIN*%
G70*
G01*
G75*
%ADD12C,0.01000*%
%ADD14R,0.05118X0.04134*%
%ADD15O,0.02559X0.06496*%
%ADD16R,0.05512X0.04134*%
%ADD17R,0.04134X0.05118*%
%ADD18R,0.04134X0.05512*%
%ADD30C,0.01968*%
%ADD31C,0.02000*%
%ADD32C,0.06000*%
%ADD33R,0.06000X0.06000*%
%ADD34C,0.05906*%
%ADD35R,0.05906X0.05906*%
%ADD36R,0.06000X0.06000*%
%ADD37C,0.06299*%
G36*
X340000Y364000D02*
X362000D01*
Y24000D01*
X342000D01*
Y2000D01*
X24000D01*
Y24374D01*
X2000D01*
Y366000D01*
X22000D01*
Y384000D01*
X340000D01*
Y364000D01*
D02*
G37*
%LPC*%
G36*
X214500Y353421D02*
Y350000D01*
X217921D01*
X217851Y350532D01*
X217453Y351493D01*
X216819Y352319D01*
X215993Y352953D01*
X215032Y353351D01*
X214500Y353421D01*
D02*
G37*
G36*
X204500D02*
Y350000D01*
X207921D01*
X207851Y350532D01*
X207453Y351493D01*
X206819Y352319D01*
X205993Y352953D01*
X205032Y353351D01*
X204500Y353421D01*
D02*
G37*
G36*
X213500Y353421D02*
X212968Y353351D01*
X212007Y352953D01*
X211181Y352319D01*
X210547Y351493D01*
X210149Y350532D01*
X210079Y350000D01*
X213500D01*
Y353421D01*
D02*
G37*
G36*
X203500D02*
X202968Y353351D01*
X202007Y352953D01*
X201181Y352319D01*
X200547Y351493D01*
X200149Y350532D01*
X200079Y350000D01*
X203500D01*
Y353421D01*
D02*
G37*
G36*
X217921Y349000D02*
X214500D01*
Y345579D01*
X215032Y345649D01*
X215993Y346047D01*
X216819Y346681D01*
X217453Y347507D01*
X217851Y348468D01*
X217921Y349000D01*
D02*
G37*
G36*
X207921D02*
X204500D01*
Y345579D01*
X205032Y345649D01*
X205993Y346047D01*
X206819Y346681D01*
X207453Y347507D01*
X207851Y348468D01*
X207921Y349000D01*
D02*
G37*
G36*
X213500D02*
X210079D01*
X210149Y348468D01*
X210547Y347507D01*
X211181Y346681D01*
X212007Y346047D01*
X212968Y345649D01*
X213500Y345579D01*
Y349000D01*
D02*
G37*
G36*
X203500D02*
X200079D01*
X200149Y348468D01*
X200547Y347507D01*
X201181Y346681D01*
X202007Y346047D01*
X202968Y345649D01*
X203500Y345579D01*
Y349000D01*
D02*
G37*
G36*
X271000Y353487D02*
X269968Y353351D01*
X269007Y352953D01*
X268181Y352319D01*
X267547Y351493D01*
X267149Y350532D01*
X267013Y349500D01*
X267149Y348468D01*
X267547Y347507D01*
X268181Y346681D01*
X269007Y346047D01*
X269968Y345649D01*
X271000Y345513D01*
X272032Y345649D01*
X272993Y346047D01*
X273819Y346681D01*
X274453Y347507D01*
X274851Y348468D01*
X274987Y349500D01*
X274851Y350532D01*
X274453Y351493D01*
X273819Y352319D01*
X272993Y352953D01*
X272032Y353351D01*
X271000Y353487D01*
D02*
G37*
G36*
X261000D02*
X259968Y353351D01*
X259007Y352953D01*
X258181Y352319D01*
X257547Y351493D01*
X257149Y350532D01*
X257013Y349500D01*
X257149Y348468D01*
X257547Y347507D01*
X258181Y346681D01*
X259007Y346047D01*
X259968Y345649D01*
X261000Y345513D01*
X262032Y345649D01*
X262993Y346047D01*
X263819Y346681D01*
X264453Y347507D01*
X264851Y348468D01*
X264987Y349500D01*
X264851Y350532D01*
X264453Y351493D01*
X263819Y352319D01*
X262993Y352953D01*
X262032Y353351D01*
X261000Y353487D01*
D02*
G37*
G36*
X214500Y343421D02*
Y340000D01*
X217921D01*
X217851Y340532D01*
X217453Y341493D01*
X216819Y342319D01*
X215993Y342953D01*
X215032Y343351D01*
X214500Y343421D01*
D02*
G37*
G36*
X204500D02*
Y340000D01*
X207921D01*
X207851Y340532D01*
X207453Y341493D01*
X206819Y342319D01*
X205993Y342953D01*
X205032Y343351D01*
X204500Y343421D01*
D02*
G37*
G36*
X213500Y343421D02*
X212968Y343351D01*
X212007Y342953D01*
X211181Y342319D01*
X210547Y341493D01*
X210149Y340532D01*
X210079Y340000D01*
X213500D01*
Y343421D01*
D02*
G37*
G36*
X203500D02*
X202968Y343351D01*
X202007Y342953D01*
X201181Y342319D01*
X200547Y341493D01*
X200149Y340532D01*
X200079Y340000D01*
X203500D01*
Y343421D01*
D02*
G37*
G36*
X137000Y350933D02*
X135550Y350791D01*
X134155Y350368D01*
X132870Y349681D01*
X131744Y348756D01*
X130819Y347630D01*
X130132Y346345D01*
X129709Y344950D01*
X129567Y343500D01*
X129709Y342050D01*
X130132Y340655D01*
X130819Y339370D01*
X131744Y338244D01*
X132870Y337319D01*
X134155Y336632D01*
X135550Y336209D01*
X137000Y336067D01*
X138450Y336209D01*
X139845Y336632D01*
X141130Y337319D01*
X142256Y338244D01*
X143181Y339370D01*
X143868Y340655D01*
X144291Y342050D01*
X144433Y343500D01*
X144291Y344950D01*
X143868Y346345D01*
X143181Y347630D01*
X142256Y348756D01*
X141130Y349681D01*
X139845Y350368D01*
X138450Y350791D01*
X137000Y350933D01*
D02*
G37*
G36*
X97000D02*
X95550Y350791D01*
X94155Y350368D01*
X92870Y349681D01*
X91744Y348756D01*
X90819Y347630D01*
X90132Y346345D01*
X89709Y344950D01*
X89567Y343500D01*
X89709Y342050D01*
X90132Y340655D01*
X90819Y339370D01*
X91744Y338244D01*
X92870Y337319D01*
X94155Y336632D01*
X95550Y336209D01*
X97000Y336067D01*
X98450Y336209D01*
X99845Y336632D01*
X101130Y337319D01*
X102256Y338244D01*
X103181Y339370D01*
X103868Y340655D01*
X104291Y342050D01*
X104433Y343500D01*
X104291Y344950D01*
X103868Y346345D01*
X103181Y347630D01*
X102256Y348756D01*
X101130Y349681D01*
X99845Y350368D01*
X98450Y350791D01*
X97000Y350933D01*
D02*
G37*
G36*
X74000D02*
X72550Y350791D01*
X71155Y350368D01*
X69870Y349681D01*
X68744Y348756D01*
X67819Y347630D01*
X67132Y346345D01*
X66709Y344950D01*
X66567Y343500D01*
X66709Y342050D01*
X67132Y340655D01*
X67819Y339370D01*
X68744Y338244D01*
X69870Y337319D01*
X71155Y336632D01*
X72550Y336209D01*
X74000Y336067D01*
X75450Y336209D01*
X76845Y336632D01*
X78130Y337319D01*
X79256Y338244D01*
X80181Y339370D01*
X80868Y340655D01*
X81291Y342050D01*
X81433Y343500D01*
X81291Y344950D01*
X80868Y346345D01*
X80181Y347630D01*
X79256Y348756D01*
X78130Y349681D01*
X76845Y350368D01*
X75450Y350791D01*
X74000Y350933D01*
D02*
G37*
G36*
X34000D02*
X32550Y350791D01*
X31155Y350368D01*
X29870Y349681D01*
X28744Y348756D01*
X27819Y347630D01*
X27132Y346345D01*
X26709Y344950D01*
X26567Y343500D01*
X26709Y342050D01*
X27132Y340655D01*
X27819Y339370D01*
X28744Y338244D01*
X29870Y337319D01*
X31155Y336632D01*
X32550Y336209D01*
X34000Y336067D01*
X35450Y336209D01*
X36845Y336632D01*
X38130Y337319D01*
X39256Y338244D01*
X40181Y339370D01*
X40868Y340655D01*
X41291Y342050D01*
X41433Y343500D01*
X41291Y344950D01*
X40868Y346345D01*
X40181Y347630D01*
X39256Y348756D01*
X38130Y349681D01*
X36845Y350368D01*
X35450Y350791D01*
X34000Y350933D01*
D02*
G37*
G36*
X217921Y339000D02*
X214500D01*
Y335579D01*
X215032Y335649D01*
X215993Y336047D01*
X216819Y336681D01*
X217453Y337507D01*
X217851Y338468D01*
X217921Y339000D01*
D02*
G37*
G36*
X207921D02*
X204500D01*
Y335579D01*
X205032Y335649D01*
X205993Y336047D01*
X206819Y336681D01*
X207453Y337507D01*
X207851Y338468D01*
X207921Y339000D01*
D02*
G37*
G36*
X213500D02*
X210079D01*
X210149Y338468D01*
X210547Y337507D01*
X211181Y336681D01*
X212007Y336047D01*
X212968Y335649D01*
X213500Y335579D01*
Y339000D01*
D02*
G37*
G36*
X203500D02*
X200079D01*
X200149Y338468D01*
X200547Y337507D01*
X201181Y336681D01*
X202007Y336047D01*
X202968Y335649D01*
X203500Y335579D01*
Y339000D01*
D02*
G37*
G36*
X271000Y343487D02*
X269968Y343351D01*
X269007Y342953D01*
X268181Y342319D01*
X267547Y341493D01*
X267149Y340532D01*
X267013Y339500D01*
X267149Y338468D01*
X267547Y337507D01*
X268181Y336681D01*
X269007Y336047D01*
X269968Y335649D01*
X271000Y335513D01*
X272032Y335649D01*
X272993Y336047D01*
X273819Y336681D01*
X274453Y337507D01*
X274851Y338468D01*
X274987Y339500D01*
X274851Y340532D01*
X274453Y341493D01*
X273819Y342319D01*
X272993Y342953D01*
X272032Y343351D01*
X271000Y343487D01*
D02*
G37*
G36*
X261000D02*
X259968Y343351D01*
X259007Y342953D01*
X258181Y342319D01*
X257547Y341493D01*
X257149Y340532D01*
X257013Y339500D01*
X257149Y338468D01*
X257547Y337507D01*
X258181Y336681D01*
X259007Y336047D01*
X259968Y335649D01*
X261000Y335513D01*
X262032Y335649D01*
X262993Y336047D01*
X263819Y336681D01*
X264453Y337507D01*
X264851Y338468D01*
X264987Y339500D01*
X264851Y340532D01*
X264453Y341493D01*
X263819Y342319D01*
X262993Y342953D01*
X262032Y343351D01*
X261000Y343487D01*
D02*
G37*
G36*
X242000Y353487D02*
X240968Y353351D01*
X240007Y352953D01*
X239181Y352319D01*
X238547Y351493D01*
X238149Y350532D01*
X238013Y349500D01*
X238149Y348468D01*
X238547Y347507D01*
X239181Y346681D01*
X239961Y346082D01*
Y342918D01*
X239181Y342319D01*
X238547Y341493D01*
X238149Y340532D01*
X238013Y339500D01*
X238149Y338468D01*
X238547Y337507D01*
X239181Y336681D01*
X239961Y336082D01*
Y333453D01*
X238047D01*
Y331539D01*
X235418D01*
X234819Y332319D01*
X234039Y332918D01*
Y336082D01*
X234819Y336681D01*
X235453Y337507D01*
X235851Y338468D01*
X235987Y339500D01*
X235851Y340532D01*
X235453Y341493D01*
X234819Y342319D01*
X234039Y342918D01*
Y346082D01*
X234819Y346681D01*
X235453Y347507D01*
X235851Y348468D01*
X235987Y349500D01*
X235851Y350532D01*
X235453Y351493D01*
X234819Y352319D01*
X233993Y352953D01*
X233032Y353351D01*
X232000Y353487D01*
X230968Y353351D01*
X230007Y352953D01*
X229181Y352319D01*
X228547Y351493D01*
X228149Y350532D01*
X228013Y349500D01*
X228149Y348468D01*
X228547Y347507D01*
X229181Y346681D01*
X229961Y346082D01*
Y342918D01*
X229181Y342319D01*
X228547Y341493D01*
X228149Y340532D01*
X228013Y339500D01*
X228149Y338468D01*
X228547Y337507D01*
X229181Y336681D01*
X229961Y336082D01*
Y332918D01*
X229181Y332319D01*
X228547Y331493D01*
X228149Y330532D01*
X228013Y329500D01*
X228141Y328525D01*
X211220Y311603D01*
X210777Y310942D01*
X210622Y310161D01*
Y277318D01*
X209809Y276694D01*
X209172Y275864D01*
X197497D01*
X172931Y300431D01*
X172274Y300869D01*
X171500Y301023D01*
X112238D01*
X109239Y304022D01*
X109460Y304471D01*
X109500Y304466D01*
X110544Y304603D01*
X111517Y305006D01*
X112353Y305647D01*
X112994Y306483D01*
X113397Y307456D01*
X113534Y308500D01*
X113397Y309544D01*
X112994Y310517D01*
X112353Y311353D01*
X111517Y311994D01*
X110544Y312397D01*
X109500Y312534D01*
X108456Y312397D01*
X107483Y311994D01*
X107039Y311654D01*
X106539Y311900D01*
Y315023D01*
X107353Y315647D01*
X107994Y316483D01*
X108397Y317456D01*
X108535Y318500D01*
X108397Y319544D01*
X107994Y320517D01*
X107353Y321353D01*
X106517Y321994D01*
X105544Y322397D01*
X104500Y322534D01*
X104332Y322512D01*
X100513Y326331D01*
X99857Y326769D01*
X99083Y326923D01*
X47900D01*
X47126Y326769D01*
X46469Y326331D01*
X42537Y322398D01*
X41500Y322534D01*
X40456Y322397D01*
X39483Y321994D01*
X38647Y321353D01*
X38006Y320517D01*
X37603Y319544D01*
X37466Y318500D01*
X37603Y317456D01*
X38006Y316483D01*
X38647Y315647D01*
X39483Y315006D01*
X40456Y314603D01*
X41500Y314465D01*
X42544Y314603D01*
X43517Y315006D01*
X44353Y315647D01*
X44994Y316483D01*
X45397Y317456D01*
X45535Y318500D01*
X45398Y319537D01*
X48738Y322877D01*
X50363D01*
X50456Y322397D01*
X49483Y321994D01*
X48647Y321353D01*
X48006Y320517D01*
X47603Y319544D01*
X47466Y318500D01*
X47603Y317456D01*
X48006Y316483D01*
X48647Y315647D01*
X49483Y315006D01*
X50456Y314603D01*
X51500Y314465D01*
X52544Y314603D01*
X53517Y315006D01*
X54353Y315647D01*
X54994Y316483D01*
X55397Y317456D01*
X55534Y318500D01*
X55397Y319544D01*
X54994Y320517D01*
X54353Y321353D01*
X53517Y321994D01*
X52544Y322397D01*
X52637Y322877D01*
X60363D01*
X60456Y322397D01*
X59483Y321994D01*
X58647Y321353D01*
X58006Y320517D01*
X57603Y319544D01*
X57465Y318500D01*
X57603Y317456D01*
X58006Y316483D01*
X58647Y315647D01*
X59483Y315006D01*
X59971Y314804D01*
Y311326D01*
X59497Y311165D01*
X59353Y311353D01*
X58517Y311994D01*
X57544Y312397D01*
X56500Y312534D01*
X55456Y312397D01*
X54483Y311994D01*
X53647Y311353D01*
X53006Y310517D01*
X52603Y309544D01*
X52465Y308500D01*
X52603Y307456D01*
X53006Y306483D01*
X53647Y305647D01*
X54483Y305006D01*
X54971Y304804D01*
Y248743D01*
X52151Y245923D01*
X52016Y245950D01*
X51127Y245773D01*
X50373Y245269D01*
X49869Y244515D01*
X49771Y244024D01*
X49261D01*
X49163Y244515D01*
X48660Y245269D01*
X48546Y245346D01*
Y250774D01*
X50575D01*
Y256908D01*
X43457D01*
Y250774D01*
X45487D01*
Y245346D01*
X45373Y245269D01*
X44869Y244515D01*
X44692Y243626D01*
Y239689D01*
X44869Y238800D01*
X45373Y238046D01*
X46127Y237542D01*
X47016Y237365D01*
X47906Y237542D01*
X48660Y238046D01*
X49163Y238800D01*
X49261Y239291D01*
X49771D01*
X49869Y238800D01*
X50373Y238046D01*
X51127Y237542D01*
X52016Y237365D01*
X52906Y237542D01*
X53660Y238046D01*
X54163Y238800D01*
X54261Y239291D01*
X54771D01*
X54869Y238800D01*
X55373Y238046D01*
X56127Y237542D01*
X57016Y237365D01*
X57906Y237542D01*
X58660Y238046D01*
X59163Y238800D01*
X59261Y239291D01*
X59771D01*
X59869Y238800D01*
X60373Y238046D01*
X61127Y237542D01*
X62016Y237365D01*
X62906Y237542D01*
X63660Y238046D01*
X64163Y238800D01*
X64340Y239689D01*
Y243626D01*
X64163Y244515D01*
X63660Y245269D01*
X62906Y245773D01*
X62178Y245918D01*
X61964Y246411D01*
X62581Y247028D01*
X62913Y247525D01*
X63029Y248110D01*
Y304500D01*
X66000D01*
Y308500D01*
Y312500D01*
X63029D01*
Y314804D01*
X63517Y315006D01*
X64353Y315647D01*
X64994Y316483D01*
X65397Y317456D01*
X65535Y318500D01*
X65397Y319544D01*
X64994Y320517D01*
X64353Y321353D01*
X63517Y321994D01*
X62544Y322397D01*
X62637Y322877D01*
X98245D01*
X100888Y320233D01*
X100603Y319544D01*
X100466Y318500D01*
X100603Y317456D01*
X101006Y316483D01*
X101647Y315647D01*
X102461Y315023D01*
Y305900D01*
X102616Y305120D01*
X103058Y304458D01*
X103127Y304412D01*
X109969Y297569D01*
X110626Y297131D01*
X111400Y296977D01*
X170662D01*
X195229Y272410D01*
X195885Y271972D01*
X196659Y271818D01*
X209172D01*
X209809Y270988D01*
X210644Y270347D01*
X211617Y269944D01*
X212661Y269806D01*
X213706Y269944D01*
X214679Y270347D01*
X215514Y270988D01*
X216155Y271824D01*
X216357Y272312D01*
X264260D01*
Y269888D01*
X272165D01*
Y277794D01*
X264260D01*
Y275370D01*
X216357D01*
X216155Y275858D01*
X215514Y276694D01*
X214701Y277318D01*
Y309317D01*
X231025Y325641D01*
X232000Y325513D01*
X233032Y325649D01*
X233993Y326047D01*
X234819Y326681D01*
X235418Y327461D01*
X238047D01*
Y325547D01*
X245953D01*
Y333453D01*
X244039D01*
Y336082D01*
X244819Y336681D01*
X245453Y337507D01*
X245851Y338468D01*
X245987Y339500D01*
X245851Y340532D01*
X245453Y341493D01*
X244819Y342319D01*
X244039Y342918D01*
Y346082D01*
X244819Y346681D01*
X245453Y347507D01*
X245851Y348468D01*
X245987Y349500D01*
X245851Y350532D01*
X245453Y351493D01*
X244819Y352319D01*
X243993Y352953D01*
X243032Y353351D01*
X242000Y353487D01*
D02*
G37*
G36*
X217953Y333453D02*
X214500D01*
Y330000D01*
X217953D01*
Y333453D01*
D02*
G37*
G36*
X204500Y333421D02*
Y330000D01*
X207921D01*
X207851Y330532D01*
X207453Y331493D01*
X206819Y332319D01*
X205993Y332953D01*
X205032Y333351D01*
X204500Y333421D01*
D02*
G37*
G36*
X203500Y333421D02*
X202968Y333351D01*
X202007Y332953D01*
X201181Y332319D01*
X200547Y331493D01*
X200149Y330532D01*
X200079Y330000D01*
X203500D01*
Y333421D01*
D02*
G37*
G36*
X213500Y333453D02*
X210047D01*
Y330000D01*
X213500D01*
Y333453D01*
D02*
G37*
G36*
X207921Y329000D02*
X204500D01*
Y325579D01*
X205032Y325649D01*
X205993Y326047D01*
X206819Y326681D01*
X207453Y327507D01*
X207851Y328468D01*
X207921Y329000D01*
D02*
G37*
G36*
X203500D02*
X200079D01*
X200149Y328468D01*
X200547Y327507D01*
X201181Y326681D01*
X202007Y326047D01*
X202968Y325649D01*
X203500Y325579D01*
Y329000D01*
D02*
G37*
G36*
X274953Y333453D02*
X267047D01*
Y325547D01*
X274953D01*
Y333453D01*
D02*
G37*
G36*
X217953Y329000D02*
X214500D01*
Y325547D01*
X217953D01*
Y329000D01*
D02*
G37*
G36*
X213500D02*
X210047D01*
Y325547D01*
X213500D01*
Y329000D01*
D02*
G37*
G36*
X261000Y333487D02*
X259968Y333351D01*
X259007Y332953D01*
X258181Y332319D01*
X257547Y331493D01*
X257149Y330532D01*
X257013Y329500D01*
X257149Y328468D01*
X257547Y327507D01*
X258181Y326681D01*
X259007Y326047D01*
X259968Y325649D01*
X261000Y325513D01*
X262032Y325649D01*
X262993Y326047D01*
X263819Y326681D01*
X264453Y327507D01*
X264851Y328468D01*
X264987Y329500D01*
X264851Y330532D01*
X264453Y331493D01*
X263819Y332319D01*
X262993Y332953D01*
X262032Y333351D01*
X261000Y333487D01*
D02*
G37*
G36*
X177661Y331828D02*
X176629Y331692D01*
X175668Y331294D01*
X174842Y330660D01*
X174209Y329834D01*
X173810Y328873D01*
X173675Y327841D01*
X173810Y326809D01*
X174209Y325847D01*
X174842Y325022D01*
X175668Y324388D01*
X176629Y323990D01*
X177661Y323854D01*
X178693Y323990D01*
X179655Y324388D01*
X180481Y325022D01*
X181114Y325847D01*
X181512Y326809D01*
X181648Y327841D01*
X181512Y328873D01*
X181114Y329834D01*
X180481Y330660D01*
X179655Y331294D01*
X178693Y331692D01*
X177661Y331828D01*
D02*
G37*
G36*
Y321828D02*
X176629Y321692D01*
X175668Y321293D01*
X174842Y320660D01*
X174209Y319834D01*
X174016Y319370D01*
X167909D01*
Y321400D01*
X161775D01*
Y314282D01*
X167909D01*
Y316311D01*
X174016D01*
X174209Y315847D01*
X174842Y315022D01*
X175668Y314388D01*
X176629Y313990D01*
X177661Y313854D01*
X178693Y313990D01*
X179655Y314388D01*
X180481Y315022D01*
X181114Y315847D01*
X181512Y316809D01*
X181648Y317841D01*
X181512Y318873D01*
X181114Y319834D01*
X180481Y320660D01*
X179655Y321293D01*
X178693Y321692D01*
X177661Y321828D01*
D02*
G37*
G36*
X114500Y322534D02*
X113456Y322397D01*
X112483Y321994D01*
X111647Y321353D01*
X111006Y320517D01*
X110603Y319544D01*
X110466Y318500D01*
X110603Y317456D01*
X111006Y316483D01*
X111647Y315647D01*
X112483Y315006D01*
X113456Y314603D01*
X114500Y314465D01*
X115544Y314603D01*
X116517Y315006D01*
X117353Y315647D01*
X117994Y316483D01*
X118397Y317456D01*
X118535Y318500D01*
X118397Y319544D01*
X117994Y320517D01*
X117353Y321353D01*
X116517Y321994D01*
X115544Y322397D01*
X114500Y322534D01*
D02*
G37*
G36*
X124500D02*
X123456Y322397D01*
X122483Y321994D01*
X121647Y321353D01*
X121006Y320517D01*
X120603Y319544D01*
X120466Y318500D01*
X120603Y317456D01*
X121006Y316483D01*
X121647Y315647D01*
X122483Y315006D01*
X123456Y314603D01*
X124500Y314465D01*
X125544Y314603D01*
X126517Y315006D01*
X127353Y315647D01*
X127994Y316483D01*
X128196Y316971D01*
X154491D01*
Y314282D01*
X160625D01*
Y321400D01*
X154491D01*
Y320029D01*
X128196D01*
X127994Y320517D01*
X127353Y321353D01*
X126517Y321994D01*
X125544Y322397D01*
X124500Y322534D01*
D02*
G37*
G36*
X70500Y312500D02*
X67000D01*
Y309000D01*
X70500D01*
Y312500D01*
D02*
G37*
G36*
X133500D02*
X130000D01*
Y309000D01*
X133500D01*
Y312500D01*
D02*
G37*
G36*
X129000D02*
X125500D01*
Y309000D01*
X129000D01*
Y312500D01*
D02*
G37*
G36*
X133500Y308000D02*
X130000D01*
Y304500D01*
X133500D01*
Y308000D01*
D02*
G37*
G36*
X129000D02*
X125500D01*
Y304500D01*
X129000D01*
Y308000D01*
D02*
G37*
G36*
X70500D02*
X67000D01*
Y304500D01*
X70500D01*
Y308000D01*
D02*
G37*
G36*
X119500Y312534D02*
X118456Y312397D01*
X117483Y311994D01*
X116647Y311353D01*
X116006Y310517D01*
X115603Y309544D01*
X115465Y308500D01*
X115603Y307456D01*
X116006Y306483D01*
X116647Y305647D01*
X117483Y305006D01*
X118456Y304603D01*
X119500Y304466D01*
X120544Y304603D01*
X121517Y305006D01*
X122353Y305647D01*
X122994Y306483D01*
X123397Y307456D01*
X123535Y308500D01*
X123397Y309544D01*
X122994Y310517D01*
X122353Y311353D01*
X121517Y311994D01*
X120544Y312397D01*
X119500Y312534D01*
D02*
G37*
G36*
X46500D02*
X45456Y312397D01*
X44483Y311994D01*
X43647Y311353D01*
X43006Y310517D01*
X42603Y309544D01*
X42465Y308500D01*
X42603Y307456D01*
X43006Y306483D01*
X43647Y305647D01*
X44483Y305006D01*
X45456Y304603D01*
X46500Y304466D01*
X47544Y304603D01*
X48517Y305006D01*
X49353Y305647D01*
X49994Y306483D01*
X50397Y307456D01*
X50534Y308500D01*
X50397Y309544D01*
X49994Y310517D01*
X49353Y311353D01*
X48517Y311994D01*
X47544Y312397D01*
X46500Y312534D01*
D02*
G37*
G36*
X181614Y311793D02*
X173709D01*
Y303888D01*
X181614D01*
Y311793D01*
D02*
G37*
G36*
X153161Y277810D02*
Y274341D01*
X156630D01*
X156559Y274885D01*
X156155Y275858D01*
X155514Y276694D01*
X154679Y277335D01*
X153706Y277738D01*
X153161Y277810D01*
D02*
G37*
G36*
X152161D02*
X151617Y277738D01*
X150644Y277335D01*
X149809Y276694D01*
X149167Y275858D01*
X148764Y274885D01*
X148693Y274341D01*
X152161D01*
Y277810D01*
D02*
G37*
G36*
X106378Y277794D02*
X102925D01*
Y274341D01*
X106378D01*
Y277794D01*
D02*
G37*
G36*
X101925D02*
X98472D01*
Y274341D01*
X101925D01*
Y277794D01*
D02*
G37*
G36*
X106378Y273341D02*
X102925D01*
Y269888D01*
X106378D01*
Y273341D01*
D02*
G37*
G36*
X101925D02*
X98472D01*
Y269888D01*
X101925D01*
Y273341D01*
D02*
G37*
G36*
X156630Y273341D02*
X153161D01*
Y269872D01*
X153706Y269944D01*
X154679Y270347D01*
X155514Y270988D01*
X156155Y271824D01*
X156559Y272797D01*
X156630Y273341D01*
D02*
G37*
G36*
X152161D02*
X148693D01*
X148764Y272797D01*
X149167Y271824D01*
X149809Y270988D01*
X150644Y270347D01*
X151617Y269944D01*
X152161Y269872D01*
Y273341D01*
D02*
G37*
G36*
X152661Y267876D02*
X151617Y267738D01*
X150644Y267335D01*
X149809Y266694D01*
X149167Y265858D01*
X148965Y265370D01*
X106070D01*
X105878Y265834D01*
X105244Y266660D01*
X104419Y267294D01*
X103457Y267692D01*
X102425Y267828D01*
X101393Y267692D01*
X100432Y267294D01*
X99606Y266660D01*
X98972Y265834D01*
X98574Y264873D01*
X98438Y263841D01*
X98574Y262809D01*
X98972Y261847D01*
X99606Y261022D01*
X100432Y260388D01*
X101393Y259990D01*
X102425Y259854D01*
X103457Y259990D01*
X104419Y260388D01*
X105244Y261022D01*
X105878Y261847D01*
X106070Y262312D01*
X148965D01*
X149167Y261824D01*
X149809Y260988D01*
X150644Y260347D01*
X151617Y259944D01*
X152661Y259806D01*
X153706Y259944D01*
X154679Y260347D01*
X155514Y260988D01*
X156155Y261824D01*
X156559Y262797D01*
X156696Y263841D01*
X156559Y264885D01*
X156155Y265858D01*
X155514Y266694D01*
X154679Y267335D01*
X153706Y267738D01*
X152661Y267876D01*
D02*
G37*
G36*
X213161Y267810D02*
Y264341D01*
X216630D01*
X216559Y264885D01*
X216155Y265858D01*
X215514Y266694D01*
X214679Y267335D01*
X213706Y267738D01*
X213161Y267810D01*
D02*
G37*
G36*
X212161D02*
X211617Y267738D01*
X210644Y267335D01*
X209809Y266694D01*
X209167Y265858D01*
X208764Y264885D01*
X208693Y264341D01*
X212161D01*
Y267810D01*
D02*
G37*
G36*
X268713Y267762D02*
Y264341D01*
X272134D01*
X272064Y264873D01*
X271665Y265834D01*
X271032Y266660D01*
X270206Y267294D01*
X269245Y267692D01*
X268713Y267762D01*
D02*
G37*
G36*
X267713D02*
X267181Y267692D01*
X266219Y267294D01*
X265393Y266660D01*
X264760Y265834D01*
X264362Y264873D01*
X264292Y264341D01*
X267713D01*
Y267762D01*
D02*
G37*
G36*
X50575Y264191D02*
X47516D01*
Y261624D01*
X50575D01*
Y264191D01*
D02*
G37*
G36*
X46516D02*
X43457D01*
Y261624D01*
X46516D01*
Y264191D01*
D02*
G37*
G36*
X267713Y263341D02*
X264292D01*
X264362Y262809D01*
X264760Y261847D01*
X265393Y261022D01*
X266219Y260388D01*
X267181Y259990D01*
X267713Y259920D01*
Y263341D01*
D02*
G37*
G36*
X272134D02*
X268713D01*
Y259920D01*
X269245Y259990D01*
X270206Y260388D01*
X271032Y261022D01*
X271665Y261847D01*
X272064Y262809D01*
X272134Y263341D01*
D02*
G37*
G36*
X216630Y263341D02*
X213161D01*
Y259872D01*
X213706Y259944D01*
X214679Y260347D01*
X215514Y260988D01*
X216155Y261824D01*
X216559Y262797D01*
X216630Y263341D01*
D02*
G37*
G36*
X212161D02*
X208693D01*
X208764Y262797D01*
X209167Y261824D01*
X209809Y260988D01*
X210644Y260347D01*
X211617Y259944D01*
X212161Y259872D01*
Y263341D01*
D02*
G37*
G36*
X50575Y260624D02*
X47516D01*
Y258057D01*
X50575D01*
Y260624D01*
D02*
G37*
G36*
X46516D02*
X43457D01*
Y258057D01*
X46516D01*
Y260624D01*
D02*
G37*
G36*
X152661Y257875D02*
X151617Y257738D01*
X150644Y257335D01*
X149809Y256694D01*
X149167Y255858D01*
X148965Y255370D01*
X106070D01*
X105878Y255834D01*
X105244Y256660D01*
X104419Y257294D01*
X103457Y257692D01*
X102425Y257828D01*
X101393Y257692D01*
X100432Y257294D01*
X99606Y256660D01*
X98972Y255834D01*
X98574Y254873D01*
X98438Y253841D01*
X98574Y252809D01*
X98972Y251848D01*
X99606Y251022D01*
X100432Y250388D01*
X101393Y249990D01*
X102425Y249854D01*
X103457Y249990D01*
X104419Y250388D01*
X105244Y251022D01*
X105878Y251848D01*
X106070Y252312D01*
X148965D01*
X149167Y251824D01*
X149809Y250988D01*
X150644Y250347D01*
X151617Y249944D01*
X152661Y249806D01*
X153706Y249944D01*
X154679Y250347D01*
X155514Y250988D01*
X156155Y251824D01*
X156559Y252797D01*
X156696Y253841D01*
X156559Y254885D01*
X156155Y255858D01*
X155514Y256694D01*
X154679Y257335D01*
X153706Y257738D01*
X152661Y257875D01*
D02*
G37*
G36*
X212661D02*
X211617Y257738D01*
X210644Y257335D01*
X209809Y256694D01*
X209167Y255858D01*
X208764Y254885D01*
X208627Y253841D01*
X208764Y252797D01*
X209167Y251824D01*
X209809Y250988D01*
X210644Y250347D01*
X211617Y249944D01*
X212661Y249806D01*
X213706Y249944D01*
X214679Y250347D01*
X215514Y250988D01*
X216155Y251824D01*
X216357Y252312D01*
X264568D01*
X264760Y251848D01*
X265393Y251022D01*
X266219Y250388D01*
X267181Y249990D01*
X268213Y249854D01*
X269245Y249990D01*
X270206Y250388D01*
X271032Y251022D01*
X271665Y251848D01*
X272064Y252809D01*
X272200Y253841D01*
X272064Y254873D01*
X271665Y255834D01*
X271032Y256660D01*
X270206Y257294D01*
X269245Y257692D01*
X268213Y257828D01*
X267181Y257692D01*
X266219Y257294D01*
X265393Y256660D01*
X264760Y255834D01*
X264568Y255370D01*
X216357D01*
X216155Y255858D01*
X215514Y256694D01*
X214679Y257335D01*
X213706Y257738D01*
X212661Y257875D01*
D02*
G37*
G36*
X152661Y247875D02*
X151617Y247738D01*
X150644Y247335D01*
X149809Y246694D01*
X149167Y245858D01*
X148965Y245370D01*
X106070D01*
X105878Y245834D01*
X105244Y246660D01*
X104419Y247294D01*
X103457Y247692D01*
X102425Y247828D01*
X101393Y247692D01*
X100432Y247294D01*
X99606Y246660D01*
X98972Y245834D01*
X98574Y244873D01*
X98438Y243841D01*
X98574Y242809D01*
X98972Y241847D01*
X99606Y241022D01*
X100432Y240388D01*
X101393Y239990D01*
X102425Y239854D01*
X103457Y239990D01*
X104419Y240388D01*
X105244Y241022D01*
X105878Y241847D01*
X106070Y242312D01*
X148965D01*
X149167Y241824D01*
X149809Y240988D01*
X150644Y240347D01*
X151617Y239944D01*
X152661Y239806D01*
X153706Y239944D01*
X154679Y240347D01*
X155514Y240988D01*
X156155Y241824D01*
X156559Y242797D01*
X156696Y243841D01*
X156559Y244885D01*
X156155Y245858D01*
X155514Y246694D01*
X154679Y247335D01*
X153706Y247738D01*
X152661Y247875D01*
D02*
G37*
G36*
X212661D02*
X211617Y247738D01*
X210644Y247335D01*
X209809Y246694D01*
X209167Y245858D01*
X208764Y244885D01*
X208627Y243841D01*
X208764Y242797D01*
X209167Y241824D01*
X209809Y240988D01*
X210644Y240347D01*
X211617Y239944D01*
X212661Y239806D01*
X213706Y239944D01*
X214679Y240347D01*
X215514Y240988D01*
X216155Y241824D01*
X216357Y242312D01*
X264568D01*
X264760Y241847D01*
X265393Y241022D01*
X266219Y240388D01*
X267181Y239990D01*
X268213Y239854D01*
X269245Y239990D01*
X270206Y240388D01*
X271032Y241022D01*
X271665Y241847D01*
X272064Y242809D01*
X272200Y243841D01*
X272064Y244873D01*
X271665Y245834D01*
X271032Y246660D01*
X270206Y247294D01*
X269245Y247692D01*
X268213Y247828D01*
X267181Y247692D01*
X266219Y247294D01*
X265393Y246660D01*
X264760Y245834D01*
X264568Y245370D01*
X216357D01*
X216155Y245858D01*
X215514Y246694D01*
X214679Y247335D01*
X213706Y247738D01*
X212661Y247875D01*
D02*
G37*
G36*
X152661Y237876D02*
X151617Y237738D01*
X150644Y237335D01*
X149809Y236694D01*
X149167Y235858D01*
X148965Y235370D01*
X106070D01*
X105878Y235834D01*
X105244Y236660D01*
X104419Y237294D01*
X103457Y237692D01*
X102425Y237828D01*
X101393Y237692D01*
X100432Y237294D01*
X99606Y236660D01*
X98972Y235834D01*
X98780Y235370D01*
X59475D01*
X58890Y235254D01*
X58394Y234922D01*
X47151Y223679D01*
X47016Y223706D01*
X46127Y223529D01*
X45373Y223025D01*
X44869Y222271D01*
X44692Y221382D01*
Y217445D01*
X44869Y216556D01*
X45373Y215801D01*
X46127Y215298D01*
X47016Y215121D01*
X47906Y215298D01*
X48660Y215801D01*
X49163Y216556D01*
X49261Y217047D01*
X49771D01*
X49869Y216556D01*
X50373Y215801D01*
X51127Y215298D01*
X51516Y215220D01*
Y219413D01*
X52516D01*
Y215220D01*
X52906Y215298D01*
X53660Y215801D01*
X54163Y216556D01*
X54261Y217047D01*
X54771D01*
X54869Y216556D01*
X55373Y215801D01*
X55487Y215725D01*
Y213910D01*
X30532Y188955D01*
X30044Y189157D01*
X29000Y189294D01*
X27956Y189157D01*
X26983Y188754D01*
X26147Y188113D01*
X25506Y187277D01*
X25103Y186304D01*
X24965Y185260D01*
X25103Y184216D01*
X25305Y183728D01*
X22919Y181341D01*
X22587Y180845D01*
X22471Y180260D01*
Y153975D01*
X22587Y153389D01*
X22919Y152893D01*
X43052Y132759D01*
X43548Y132428D01*
X44134Y132312D01*
X98780D01*
X98972Y131848D01*
X99606Y131022D01*
X100432Y130388D01*
X101393Y129990D01*
X102425Y129854D01*
X103457Y129990D01*
X104419Y130388D01*
X105244Y131022D01*
X105878Y131848D01*
X106070Y132312D01*
X148965D01*
X149167Y131824D01*
X149809Y130988D01*
X150644Y130347D01*
X151617Y129944D01*
X152661Y129806D01*
X153706Y129944D01*
X154679Y130347D01*
X155514Y130988D01*
X156155Y131824D01*
X156559Y132797D01*
X156696Y133841D01*
X156559Y134885D01*
X156155Y135858D01*
X155514Y136694D01*
X154679Y137335D01*
X153706Y137738D01*
X152661Y137875D01*
X151617Y137738D01*
X150644Y137335D01*
X149809Y136694D01*
X149167Y135858D01*
X148965Y135370D01*
X106070D01*
X105878Y135834D01*
X105244Y136660D01*
X104419Y137294D01*
X103457Y137692D01*
X102425Y137828D01*
X101393Y137692D01*
X100432Y137294D01*
X99606Y136660D01*
X98972Y135834D01*
X98780Y135370D01*
X44767D01*
X28905Y151233D01*
X29084Y151761D01*
X29651Y151835D01*
X30624Y152238D01*
X31459Y152879D01*
X32100Y153715D01*
X32302Y154203D01*
X74632D01*
X75217Y154319D01*
X75713Y154651D01*
X83374Y162312D01*
X98780D01*
X98972Y161847D01*
X99606Y161022D01*
X100432Y160388D01*
X101393Y159990D01*
X102425Y159854D01*
X103457Y159990D01*
X104419Y160388D01*
X105244Y161022D01*
X105878Y161847D01*
X106070Y162312D01*
X148965D01*
X149167Y161824D01*
X149809Y160988D01*
X150644Y160347D01*
X151617Y159944D01*
X152661Y159806D01*
X153706Y159944D01*
X154679Y160347D01*
X155514Y160988D01*
X156155Y161824D01*
X156559Y162797D01*
X156696Y163841D01*
X156559Y164885D01*
X156155Y165858D01*
X155514Y166694D01*
X154679Y167335D01*
X153706Y167738D01*
X152661Y167876D01*
X151617Y167738D01*
X150644Y167335D01*
X149809Y166694D01*
X149167Y165858D01*
X148965Y165370D01*
X106070D01*
X105878Y165834D01*
X105244Y166660D01*
X104419Y167294D01*
X103457Y167692D01*
X102425Y167828D01*
X101393Y167692D01*
X100432Y167294D01*
X99606Y166660D01*
X98972Y165834D01*
X98780Y165370D01*
X82740D01*
X82155Y165254D01*
X81659Y164922D01*
X73998Y157262D01*
X32302D01*
X32100Y157749D01*
X31459Y158585D01*
X30624Y159226D01*
X29651Y159629D01*
X28606Y159767D01*
X27562Y159629D01*
X26589Y159226D01*
X26029Y158797D01*
X25529Y159043D01*
Y162749D01*
X26003Y162910D01*
X26147Y162722D01*
X26983Y162081D01*
X27956Y161678D01*
X29000Y161540D01*
X30044Y161678D01*
X31017Y162081D01*
X31853Y162722D01*
X32494Y163558D01*
X32897Y164531D01*
X33035Y165575D01*
X32897Y166619D01*
X32494Y167592D01*
X31853Y168428D01*
X31017Y169069D01*
X30044Y169472D01*
X29000Y169609D01*
X27956Y169472D01*
X26983Y169069D01*
X26147Y168428D01*
X26003Y168240D01*
X25529Y168400D01*
Y172592D01*
X26003Y172752D01*
X26147Y172564D01*
X26983Y171923D01*
X27956Y171520D01*
X29000Y171383D01*
X30044Y171520D01*
X31017Y171923D01*
X31853Y172564D01*
X32494Y173400D01*
X32696Y173888D01*
X84002D01*
X84587Y174004D01*
X85083Y174336D01*
X100929Y190182D01*
X101393Y189990D01*
X102425Y189854D01*
X103457Y189990D01*
X104419Y190388D01*
X105244Y191022D01*
X105878Y191848D01*
X106070Y192312D01*
X148965D01*
X149167Y191824D01*
X149809Y190988D01*
X150644Y190347D01*
X151617Y189944D01*
X152661Y189806D01*
X153706Y189944D01*
X154679Y190347D01*
X155514Y190988D01*
X156155Y191824D01*
X156559Y192797D01*
X156696Y193841D01*
X156559Y194885D01*
X156155Y195858D01*
X155514Y196694D01*
X154679Y197335D01*
X153706Y197738D01*
X152661Y197875D01*
X151617Y197738D01*
X150644Y197335D01*
X149809Y196694D01*
X149167Y195858D01*
X148965Y195370D01*
X106070D01*
X105878Y195834D01*
X105244Y196660D01*
X104419Y197294D01*
X103457Y197692D01*
X102425Y197828D01*
X101393Y197692D01*
X100432Y197294D01*
X99606Y196660D01*
X98972Y195834D01*
X98574Y194873D01*
X98438Y193841D01*
X98574Y192809D01*
X98766Y192345D01*
X83368Y176947D01*
X32696D01*
X32494Y177435D01*
X31853Y178270D01*
X31017Y178911D01*
X30044Y179314D01*
X29000Y179452D01*
X27956Y179314D01*
X26983Y178911D01*
X26147Y178270D01*
X26003Y178082D01*
X25529Y178243D01*
Y179626D01*
X27468Y181565D01*
X27956Y181363D01*
X29000Y181225D01*
X30044Y181363D01*
X31017Y181766D01*
X31853Y182407D01*
X32494Y183243D01*
X32897Y184216D01*
X33035Y185260D01*
X32897Y186304D01*
X32695Y186792D01*
X55025Y209122D01*
X55487Y208930D01*
Y206737D01*
X55471Y206656D01*
Y206209D01*
X53260D01*
Y200075D01*
X60772D01*
Y206209D01*
X58830D01*
X58546Y206672D01*
Y213276D01*
Y215725D01*
X58660Y215801D01*
X59163Y216556D01*
X59261Y217047D01*
X59771D01*
X59869Y216556D01*
X60373Y215801D01*
X61127Y215298D01*
X62016Y215121D01*
X62906Y215298D01*
X63660Y215801D01*
X64163Y216556D01*
X64340Y217445D01*
Y217884D01*
X77917D01*
X78503Y218000D01*
X78999Y218332D01*
X83374Y222707D01*
X98616D01*
X98972Y221848D01*
X99606Y221022D01*
X100432Y220388D01*
X101393Y219990D01*
X102425Y219854D01*
X103457Y219990D01*
X104419Y220388D01*
X105244Y221022D01*
X105878Y221848D01*
X106070Y222312D01*
X148965D01*
X149167Y221824D01*
X149809Y220988D01*
X150644Y220347D01*
X151617Y219944D01*
X152661Y219806D01*
X153706Y219944D01*
X154679Y220347D01*
X155514Y220988D01*
X156155Y221824D01*
X156559Y222797D01*
X156696Y223841D01*
X156559Y224885D01*
X156155Y225858D01*
X155514Y226694D01*
X154679Y227335D01*
X153706Y227738D01*
X152661Y227875D01*
X151617Y227738D01*
X150644Y227335D01*
X149809Y226694D01*
X149167Y225858D01*
X148965Y225370D01*
X106070D01*
X105878Y225834D01*
X105244Y226660D01*
X104419Y227294D01*
X103457Y227692D01*
X102425Y227828D01*
X101393Y227692D01*
X100432Y227294D01*
X99606Y226660D01*
X98972Y225834D01*
X98944Y225766D01*
X82740D01*
X82155Y225649D01*
X81659Y225318D01*
X77284Y220943D01*
X64340D01*
Y221382D01*
X64163Y222271D01*
X63660Y223025D01*
X62906Y223529D01*
X62016Y223706D01*
X61127Y223529D01*
X60373Y223025D01*
X59869Y222271D01*
X59771Y221779D01*
X59261D01*
X59163Y222271D01*
X58660Y223025D01*
X57906Y223529D01*
X57016Y223706D01*
X56127Y223529D01*
X55373Y223025D01*
X54869Y222271D01*
X54771Y221779D01*
X54261D01*
X54163Y222271D01*
X53660Y223025D01*
X52906Y223529D01*
X52178Y223674D01*
X51964Y224167D01*
X60109Y232312D01*
X98780D01*
X98972Y231848D01*
X99606Y231022D01*
X100432Y230388D01*
X101393Y229990D01*
X102425Y229854D01*
X103457Y229990D01*
X104419Y230388D01*
X105244Y231022D01*
X105878Y231848D01*
X106070Y232312D01*
X148965D01*
X149167Y231824D01*
X149809Y230988D01*
X150644Y230347D01*
X151617Y229944D01*
X152661Y229806D01*
X153706Y229944D01*
X154679Y230347D01*
X155514Y230988D01*
X156155Y231824D01*
X156559Y232797D01*
X156696Y233841D01*
X156559Y234885D01*
X156155Y235858D01*
X155514Y236694D01*
X154679Y237335D01*
X153706Y237738D01*
X152661Y237876D01*
D02*
G37*
G36*
X212661D02*
X211617Y237738D01*
X210644Y237335D01*
X209809Y236694D01*
X209167Y235858D01*
X208764Y234885D01*
X208627Y233841D01*
X208764Y232797D01*
X209167Y231824D01*
X209809Y230988D01*
X210644Y230347D01*
X211617Y229944D01*
X212661Y229806D01*
X213706Y229944D01*
X214679Y230347D01*
X215514Y230988D01*
X216155Y231824D01*
X216357Y232312D01*
X264568D01*
X264760Y231848D01*
X265393Y231022D01*
X266219Y230388D01*
X267181Y229990D01*
X268213Y229854D01*
X269245Y229990D01*
X270206Y230388D01*
X271032Y231022D01*
X271665Y231848D01*
X272064Y232809D01*
X272200Y233841D01*
X272064Y234873D01*
X271665Y235834D01*
X271032Y236660D01*
X270206Y237294D01*
X269245Y237692D01*
X268213Y237828D01*
X267181Y237692D01*
X266219Y237294D01*
X265393Y236660D01*
X264760Y235834D01*
X264568Y235370D01*
X216357D01*
X216155Y235858D01*
X215514Y236694D01*
X214679Y237335D01*
X213706Y237738D01*
X212661Y237876D01*
D02*
G37*
G36*
Y227875D02*
X211617Y227738D01*
X210644Y227335D01*
X209809Y226694D01*
X209167Y225858D01*
X208764Y224885D01*
X208627Y223841D01*
X208764Y222797D01*
X209167Y221824D01*
X209809Y220988D01*
X210644Y220347D01*
X211617Y219944D01*
X212661Y219806D01*
X213706Y219944D01*
X214679Y220347D01*
X215514Y220988D01*
X216155Y221824D01*
X216357Y222312D01*
X264568D01*
X264760Y221848D01*
X265393Y221022D01*
X266219Y220388D01*
X267181Y219990D01*
X268213Y219854D01*
X269245Y219990D01*
X270206Y220388D01*
X271032Y221022D01*
X271665Y221848D01*
X272064Y222809D01*
X272200Y223841D01*
X272064Y224873D01*
X271665Y225834D01*
X271032Y226660D01*
X270206Y227294D01*
X269245Y227692D01*
X268213Y227828D01*
X267181Y227692D01*
X266219Y227294D01*
X265393Y226660D01*
X264760Y225834D01*
X264568Y225370D01*
X216357D01*
X216155Y225858D01*
X215514Y226694D01*
X214679Y227335D01*
X213706Y227738D01*
X212661Y227875D01*
D02*
G37*
G36*
X152661Y217876D02*
X151617Y217738D01*
X150644Y217335D01*
X149809Y216694D01*
X149167Y215858D01*
X148965Y215370D01*
X106070D01*
X105878Y215834D01*
X105244Y216660D01*
X104419Y217294D01*
X103457Y217692D01*
X102425Y217828D01*
X101393Y217692D01*
X100432Y217294D01*
X99606Y216660D01*
X98972Y215834D01*
X98574Y214873D01*
X98438Y213841D01*
X98574Y212809D01*
X98972Y211847D01*
X99606Y211022D01*
X100432Y210388D01*
X101393Y209990D01*
X102425Y209854D01*
X103457Y209990D01*
X104419Y210388D01*
X105244Y211022D01*
X105878Y211847D01*
X106070Y212312D01*
X148965D01*
X149167Y211824D01*
X149809Y210988D01*
X150644Y210347D01*
X151617Y209944D01*
X152661Y209806D01*
X153706Y209944D01*
X154679Y210347D01*
X155514Y210988D01*
X156155Y211824D01*
X156559Y212797D01*
X156696Y213841D01*
X156559Y214885D01*
X156155Y215858D01*
X155514Y216694D01*
X154679Y217335D01*
X153706Y217738D01*
X152661Y217876D01*
D02*
G37*
G36*
X333102Y217810D02*
Y214341D01*
X336571D01*
X336499Y214885D01*
X336096Y215858D01*
X335455Y216694D01*
X334620Y217335D01*
X333647Y217738D01*
X333102Y217810D01*
D02*
G37*
G36*
X332102D02*
X331558Y217738D01*
X330585Y217335D01*
X329749Y216694D01*
X329108Y215858D01*
X328705Y214885D01*
X328634Y214341D01*
X332102D01*
Y217810D01*
D02*
G37*
G36*
X299488Y217539D02*
X296921D01*
Y214283D01*
X299488D01*
Y217539D01*
D02*
G37*
G36*
X295921D02*
X293354D01*
Y214283D01*
X295921D01*
Y217539D01*
D02*
G37*
G36*
X299488Y213283D02*
X296921D01*
Y210028D01*
X299488D01*
Y213283D01*
D02*
G37*
G36*
X336571Y213341D02*
X333102D01*
Y209872D01*
X333647Y209944D01*
X334620Y210347D01*
X335455Y210988D01*
X336096Y211824D01*
X336499Y212797D01*
X336571Y213341D01*
D02*
G37*
G36*
X332102D02*
X328634D01*
X328705Y212797D01*
X329108Y211824D01*
X329749Y210988D01*
X330585Y210347D01*
X331558Y209944D01*
X332102Y209872D01*
Y213341D01*
D02*
G37*
G36*
X212661Y217876D02*
X211617Y217738D01*
X210644Y217335D01*
X209809Y216694D01*
X209167Y215858D01*
X208764Y214885D01*
X208627Y213841D01*
X208764Y212797D01*
X209167Y211824D01*
X209809Y210988D01*
X210644Y210347D01*
X211617Y209944D01*
X212661Y209806D01*
X213706Y209944D01*
X214679Y210347D01*
X215514Y210988D01*
X216155Y211824D01*
X216357Y212312D01*
X264568D01*
X264760Y211847D01*
X265393Y211022D01*
X266219Y210388D01*
X267181Y209990D01*
X268213Y209854D01*
X269245Y209990D01*
X270206Y210388D01*
X271032Y211022D01*
X271665Y211847D01*
X271858Y212312D01*
X286071D01*
Y210028D01*
X290042D01*
X297152Y202917D01*
X297649Y202586D01*
X298234Y202469D01*
X328906D01*
X329108Y201981D01*
X329749Y201146D01*
X330585Y200504D01*
X331558Y200101D01*
X332602Y199964D01*
X333647Y200101D01*
X334620Y200504D01*
X335455Y201146D01*
X336096Y201981D01*
X336499Y202954D01*
X336637Y203998D01*
X336499Y205043D01*
X336096Y206016D01*
X335455Y206851D01*
X334620Y207492D01*
X333647Y207895D01*
X332602Y208033D01*
X331558Y207895D01*
X330585Y207492D01*
X329749Y206851D01*
X329108Y206016D01*
X328906Y205528D01*
X298867D01*
X294830Y209566D01*
X295021Y210028D01*
X295921D01*
Y213283D01*
X293354D01*
Y211694D01*
X292892Y211503D01*
X292205Y212190D01*
Y217539D01*
X286071D01*
Y215370D01*
X271858D01*
X271665Y215834D01*
X271032Y216660D01*
X270206Y217294D01*
X269245Y217692D01*
X268213Y217828D01*
X267181Y217692D01*
X266219Y217294D01*
X265393Y216660D01*
X264760Y215834D01*
X264568Y215370D01*
X216357D01*
X216155Y215858D01*
X215514Y216694D01*
X214679Y217335D01*
X213706Y217738D01*
X212661Y217876D01*
D02*
G37*
G36*
X102425Y207828D02*
X101393Y207692D01*
X100432Y207294D01*
X99606Y206660D01*
X98972Y205834D01*
X98574Y204873D01*
X98438Y203841D01*
X98574Y202809D01*
X98972Y201848D01*
X99606Y201022D01*
X100432Y200388D01*
X101393Y199990D01*
X102425Y199854D01*
X103457Y199990D01*
X104419Y200388D01*
X105244Y201022D01*
X105878Y201848D01*
X106276Y202809D01*
X106412Y203841D01*
X106276Y204873D01*
X105878Y205834D01*
X105244Y206660D01*
X104419Y207294D01*
X103457Y207692D01*
X102425Y207828D01*
D02*
G37*
G36*
X152661Y207875D02*
X151617Y207738D01*
X150644Y207335D01*
X149809Y206694D01*
X149167Y205858D01*
X148764Y204885D01*
X148627Y203841D01*
X148764Y202797D01*
X149167Y201824D01*
X149809Y200988D01*
X150644Y200347D01*
X151617Y199944D01*
X152661Y199806D01*
X153706Y199944D01*
X154679Y200347D01*
X155514Y200988D01*
X156155Y201824D01*
X156559Y202797D01*
X156696Y203841D01*
X156559Y204885D01*
X156155Y205858D01*
X155514Y206694D01*
X154679Y207335D01*
X153706Y207738D01*
X152661Y207875D01*
D02*
G37*
G36*
X60772Y198925D02*
X57516D01*
Y196358D01*
X60772D01*
Y198925D01*
D02*
G37*
G36*
X56516D02*
X53260D01*
Y196358D01*
X56516D01*
Y198925D01*
D02*
G37*
G36*
X29500Y199071D02*
Y195602D01*
X32969D01*
X32897Y196147D01*
X32494Y197120D01*
X31853Y197955D01*
X31017Y198596D01*
X30044Y198999D01*
X29500Y199071D01*
D02*
G37*
G36*
X28500D02*
X27956Y198999D01*
X26983Y198596D01*
X26147Y197955D01*
X25506Y197120D01*
X25103Y196147D01*
X25031Y195602D01*
X28500D01*
Y199071D01*
D02*
G37*
G36*
X60772Y195358D02*
X57516D01*
Y192791D01*
X60772D01*
Y195358D01*
D02*
G37*
G36*
X56516D02*
X53260D01*
Y192791D01*
X56516D01*
Y195358D01*
D02*
G37*
G36*
X32969Y194602D02*
X29500D01*
Y191134D01*
X30044Y191205D01*
X31017Y191608D01*
X31853Y192250D01*
X32494Y193085D01*
X32897Y194058D01*
X32969Y194602D01*
D02*
G37*
G36*
X28500D02*
X25031D01*
X25103Y194058D01*
X25506Y193085D01*
X26147Y192250D01*
X26983Y191608D01*
X27956Y191205D01*
X28500Y191134D01*
Y194602D01*
D02*
G37*
G36*
X212661Y197875D02*
X211617Y197738D01*
X210644Y197335D01*
X209809Y196694D01*
X209167Y195858D01*
X208764Y194885D01*
X208627Y193841D01*
X208764Y192797D01*
X209167Y191824D01*
X209809Y190988D01*
X210644Y190347D01*
X211617Y189944D01*
X212661Y189806D01*
X213706Y189944D01*
X214679Y190347D01*
X215514Y190988D01*
X216155Y191824D01*
X216357Y192312D01*
X264568D01*
X264760Y191848D01*
X265393Y191022D01*
X266219Y190388D01*
X267181Y189990D01*
X268213Y189854D01*
X269245Y189990D01*
X270206Y190388D01*
X271032Y191022D01*
X271665Y191848D01*
X272064Y192809D01*
X272200Y193841D01*
X272064Y194873D01*
X271665Y195834D01*
X271032Y196660D01*
X270206Y197294D01*
X269245Y197692D01*
X268213Y197828D01*
X267181Y197692D01*
X266219Y197294D01*
X265393Y196660D01*
X264760Y195834D01*
X264568Y195370D01*
X216357D01*
X216155Y195858D01*
X215514Y196694D01*
X214679Y197335D01*
X213706Y197738D01*
X212661Y197875D01*
D02*
G37*
G36*
X152661Y187875D02*
X151617Y187738D01*
X150644Y187335D01*
X149809Y186694D01*
X149167Y185858D01*
X148965Y185370D01*
X106070D01*
X105878Y185834D01*
X105244Y186660D01*
X104419Y187294D01*
X103457Y187692D01*
X102425Y187828D01*
X101393Y187692D01*
X100432Y187294D01*
X99606Y186660D01*
X98972Y185834D01*
X98574Y184873D01*
X98438Y183841D01*
X98574Y182809D01*
X98972Y181848D01*
X99606Y181022D01*
X100432Y180388D01*
X101393Y179990D01*
X102425Y179854D01*
X103457Y179990D01*
X104419Y180388D01*
X105244Y181022D01*
X105878Y181848D01*
X106070Y182312D01*
X148965D01*
X149167Y181824D01*
X149809Y180988D01*
X150644Y180347D01*
X151617Y179944D01*
X152661Y179806D01*
X153706Y179944D01*
X154679Y180347D01*
X155514Y180988D01*
X156155Y181824D01*
X156559Y182797D01*
X156696Y183841D01*
X156559Y184885D01*
X156155Y185858D01*
X155514Y186694D01*
X154679Y187335D01*
X153706Y187738D01*
X152661Y187875D01*
D02*
G37*
G36*
Y177875D02*
X151617Y177738D01*
X150644Y177335D01*
X149809Y176694D01*
X149167Y175858D01*
X148965Y175370D01*
X106070D01*
X105878Y175834D01*
X105244Y176660D01*
X104419Y177294D01*
X103457Y177692D01*
X102425Y177828D01*
X101393Y177692D01*
X100432Y177294D01*
X99606Y176660D01*
X98972Y175834D01*
X98574Y174873D01*
X98438Y173841D01*
X98574Y172809D01*
X98972Y171847D01*
X99606Y171022D01*
X100432Y170388D01*
X101393Y169990D01*
X102425Y169854D01*
X103457Y169990D01*
X104419Y170388D01*
X105244Y171022D01*
X105878Y171847D01*
X106070Y172312D01*
X148965D01*
X149167Y171824D01*
X149809Y170988D01*
X150644Y170347D01*
X151617Y169944D01*
X152661Y169806D01*
X153706Y169944D01*
X154679Y170347D01*
X155514Y170988D01*
X156155Y171824D01*
X156559Y172797D01*
X156696Y173841D01*
X156559Y174885D01*
X156155Y175858D01*
X155514Y176694D01*
X154679Y177335D01*
X153706Y177738D01*
X152661Y177875D01*
D02*
G37*
G36*
X212661D02*
X211617Y177738D01*
X210644Y177335D01*
X209809Y176694D01*
X209167Y175858D01*
X208764Y174885D01*
X208627Y173841D01*
X208764Y172797D01*
X209167Y171824D01*
X209809Y170988D01*
X210644Y170347D01*
X211617Y169944D01*
X212661Y169806D01*
X213706Y169944D01*
X214679Y170347D01*
X215514Y170988D01*
X216155Y171824D01*
X216357Y172312D01*
X264568D01*
X264760Y171847D01*
X265393Y171022D01*
X266219Y170388D01*
X267181Y169990D01*
X268213Y169854D01*
X269245Y169990D01*
X270206Y170388D01*
X271032Y171022D01*
X271665Y171847D01*
X272064Y172809D01*
X272200Y173841D01*
X272064Y174873D01*
X271665Y175834D01*
X271032Y176660D01*
X270206Y177294D01*
X269245Y177692D01*
X268213Y177828D01*
X267181Y177692D01*
X266219Y177294D01*
X265393Y176660D01*
X264760Y175834D01*
X264568Y175370D01*
X216357D01*
X216155Y175858D01*
X215514Y176694D01*
X214679Y177335D01*
X213706Y177738D01*
X212661Y177875D01*
D02*
G37*
G36*
X330500Y172035D02*
X329456Y171897D01*
X328483Y171494D01*
X327647Y170853D01*
X327006Y170017D01*
X326603Y169044D01*
X326466Y168000D01*
X326603Y166956D01*
X327006Y165983D01*
X327647Y165147D01*
X328483Y164506D01*
X329456Y164103D01*
X330500Y163965D01*
X331544Y164103D01*
X332517Y164506D01*
X333353Y165147D01*
X333994Y165983D01*
X334397Y166956D01*
X334535Y168000D01*
X334397Y169044D01*
X333994Y170017D01*
X333353Y170853D01*
X332517Y171494D01*
X331544Y171897D01*
X330500Y172035D01*
D02*
G37*
G36*
X300500D02*
X299456Y171897D01*
X298483Y171494D01*
X297647Y170853D01*
X297006Y170017D01*
X296603Y169044D01*
X296465Y168000D01*
X296603Y166956D01*
X297006Y165983D01*
X297647Y165147D01*
X298483Y164506D01*
X299456Y164103D01*
X300500Y163965D01*
X301544Y164103D01*
X302517Y164506D01*
X303353Y165147D01*
X303994Y165983D01*
X304397Y166956D01*
X304535Y168000D01*
X304397Y169044D01*
X303994Y170017D01*
X303353Y170853D01*
X302517Y171494D01*
X301544Y171897D01*
X300500Y172035D01*
D02*
G37*
G36*
X357000Y168000D02*
X349000D01*
Y160000D01*
X357000D01*
Y168000D01*
D02*
G37*
G36*
X212661Y167876D02*
X211617Y167738D01*
X210644Y167335D01*
X209809Y166694D01*
X209167Y165858D01*
X208764Y164885D01*
X208627Y163841D01*
X208764Y162797D01*
X209167Y161824D01*
X209809Y160988D01*
X210644Y160347D01*
X211617Y159944D01*
X212661Y159806D01*
X213706Y159944D01*
X214679Y160347D01*
X215514Y160988D01*
X216155Y161824D01*
X216357Y162312D01*
X264568D01*
X264760Y161847D01*
X265393Y161022D01*
X266219Y160388D01*
X267181Y159990D01*
X268213Y159854D01*
X269245Y159990D01*
X270206Y160388D01*
X271032Y161022D01*
X271665Y161847D01*
X272064Y162809D01*
X272200Y163841D01*
X272064Y164873D01*
X271665Y165834D01*
X271032Y166660D01*
X270206Y167294D01*
X269245Y167692D01*
X268213Y167828D01*
X267181Y167692D01*
X266219Y167294D01*
X265393Y166660D01*
X264760Y165834D01*
X264568Y165370D01*
X216357D01*
X216155Y165858D01*
X215514Y166694D01*
X214679Y167335D01*
X213706Y167738D01*
X212661Y167876D01*
D02*
G37*
G36*
X152661Y157876D02*
X151617Y157738D01*
X150644Y157335D01*
X149809Y156694D01*
X149167Y155858D01*
X148965Y155370D01*
X106070D01*
X105878Y155834D01*
X105244Y156660D01*
X104419Y157294D01*
X103457Y157692D01*
X102425Y157828D01*
X101393Y157692D01*
X100432Y157294D01*
X99606Y156660D01*
X98972Y155834D01*
X98574Y154873D01*
X98438Y153841D01*
X98574Y152809D01*
X98972Y151848D01*
X99606Y151022D01*
X100432Y150388D01*
X101393Y149990D01*
X102425Y149854D01*
X103457Y149990D01*
X104419Y150388D01*
X105244Y151022D01*
X105878Y151848D01*
X106070Y152312D01*
X148965D01*
X149167Y151824D01*
X149809Y150988D01*
X150644Y150347D01*
X151617Y149944D01*
X152661Y149806D01*
X153706Y149944D01*
X154679Y150347D01*
X155514Y150988D01*
X156155Y151824D01*
X156559Y152797D01*
X156696Y153841D01*
X156559Y154885D01*
X156155Y155858D01*
X155514Y156694D01*
X154679Y157335D01*
X153706Y157738D01*
X152661Y157876D01*
D02*
G37*
G36*
X330500Y162034D02*
X329456Y161897D01*
X328483Y161494D01*
X327647Y160853D01*
X327006Y160017D01*
X326603Y159044D01*
X326466Y158000D01*
X326603Y156956D01*
X327006Y155983D01*
X327647Y155147D01*
X328483Y154506D01*
X329456Y154103D01*
X330500Y153965D01*
X331544Y154103D01*
X332517Y154506D01*
X333353Y155147D01*
X333994Y155983D01*
X334397Y156956D01*
X334535Y158000D01*
X334397Y159044D01*
X333994Y160017D01*
X333353Y160853D01*
X332517Y161494D01*
X331544Y161897D01*
X330500Y162034D01*
D02*
G37*
G36*
X212661Y207875D02*
X211617Y207738D01*
X210644Y207335D01*
X209809Y206694D01*
X209167Y205858D01*
X208764Y204885D01*
X208627Y203841D01*
X208764Y202797D01*
X209167Y201824D01*
X209809Y200988D01*
X210644Y200347D01*
X211617Y199944D01*
X212661Y199806D01*
X213706Y199944D01*
X214679Y200347D01*
X215514Y200988D01*
X216155Y201824D01*
X216357Y202312D01*
X264568D01*
X264760Y201848D01*
X265393Y201022D01*
X266219Y200388D01*
X267181Y199990D01*
X268213Y199854D01*
X269245Y199990D01*
X270206Y200388D01*
X271032Y201022D01*
X271665Y201848D01*
X271858Y202312D01*
X279366D01*
X288242Y193436D01*
Y168728D01*
X288359Y168143D01*
X288690Y167647D01*
X296805Y159532D01*
X296603Y159044D01*
X296465Y158000D01*
X296603Y156956D01*
X297006Y155983D01*
X297647Y155147D01*
X298483Y154506D01*
X299456Y154103D01*
X300500Y153965D01*
X301544Y154103D01*
X302517Y154506D01*
X303353Y155147D01*
X303994Y155983D01*
X304397Y156956D01*
X304535Y158000D01*
X304397Y159044D01*
X303994Y160017D01*
X303353Y160853D01*
X302517Y161494D01*
X301544Y161897D01*
X300500Y162034D01*
X299456Y161897D01*
X298968Y161695D01*
X291301Y169362D01*
Y194069D01*
X291185Y194655D01*
X290853Y195151D01*
X281081Y204922D01*
X280585Y205254D01*
X280000Y205370D01*
X271858D01*
X271665Y205834D01*
X271032Y206660D01*
X270206Y207294D01*
X269245Y207692D01*
X268213Y207828D01*
X267181Y207692D01*
X266219Y207294D01*
X265393Y206660D01*
X264760Y205834D01*
X264568Y205370D01*
X216357D01*
X216155Y205858D01*
X215514Y206694D01*
X214679Y207335D01*
X213706Y207738D01*
X212661Y207875D01*
D02*
G37*
G36*
X353000Y158035D02*
X351956Y157897D01*
X350983Y157494D01*
X350147Y156853D01*
X349506Y156017D01*
X349103Y155044D01*
X348966Y154000D01*
X349103Y152956D01*
X349506Y151983D01*
X350147Y151147D01*
X350983Y150506D01*
X351956Y150103D01*
X353000Y149966D01*
X354044Y150103D01*
X355017Y150506D01*
X355853Y151147D01*
X356494Y151983D01*
X356897Y152956D01*
X357034Y154000D01*
X356897Y155044D01*
X356494Y156017D01*
X355853Y156853D01*
X355017Y157494D01*
X354044Y157897D01*
X353000Y158035D01*
D02*
G37*
G36*
X212661Y157876D02*
X211617Y157738D01*
X210644Y157335D01*
X209809Y156694D01*
X209167Y155858D01*
X208764Y154885D01*
X208627Y153841D01*
X208764Y152797D01*
X209167Y151824D01*
X209809Y150988D01*
X210644Y150347D01*
X211617Y149944D01*
X212661Y149806D01*
X213706Y149944D01*
X214679Y150347D01*
X215514Y150988D01*
X216155Y151824D01*
X216357Y152312D01*
X264568D01*
X264760Y151848D01*
X265393Y151022D01*
X266219Y150388D01*
X267181Y149990D01*
X268213Y149854D01*
X269245Y149990D01*
X270206Y150388D01*
X271032Y151022D01*
X271665Y151848D01*
X272064Y152809D01*
X272200Y153841D01*
X272064Y154873D01*
X271665Y155834D01*
X271032Y156660D01*
X270206Y157294D01*
X269245Y157692D01*
X268213Y157828D01*
X267181Y157692D01*
X266219Y157294D01*
X265393Y156660D01*
X264760Y155834D01*
X264568Y155370D01*
X216357D01*
X216155Y155858D01*
X215514Y156694D01*
X214679Y157335D01*
X213706Y157738D01*
X212661Y157876D01*
D02*
G37*
G36*
X152661Y147875D02*
X151617Y147738D01*
X150644Y147335D01*
X149809Y146694D01*
X149167Y145858D01*
X148965Y145370D01*
X106070D01*
X105878Y145834D01*
X105244Y146660D01*
X104419Y147294D01*
X103457Y147692D01*
X102425Y147828D01*
X101393Y147692D01*
X100432Y147294D01*
X99606Y146660D01*
X98972Y145834D01*
X98574Y144873D01*
X98438Y143841D01*
X98574Y142809D01*
X98972Y141848D01*
X99606Y141022D01*
X100432Y140388D01*
X101393Y139990D01*
X102425Y139854D01*
X103457Y139990D01*
X104419Y140388D01*
X105244Y141022D01*
X105878Y141848D01*
X106070Y142312D01*
X148965D01*
X149167Y141824D01*
X149809Y140988D01*
X150644Y140347D01*
X151617Y139944D01*
X152661Y139806D01*
X153706Y139944D01*
X154679Y140347D01*
X155514Y140988D01*
X156155Y141824D01*
X156559Y142797D01*
X156696Y143841D01*
X156559Y144885D01*
X156155Y145858D01*
X155514Y146694D01*
X154679Y147335D01*
X153706Y147738D01*
X152661Y147875D01*
D02*
G37*
G36*
X330500Y152034D02*
X329456Y151897D01*
X328483Y151494D01*
X327647Y150853D01*
X327006Y150017D01*
X326603Y149044D01*
X326466Y148000D01*
X326603Y146956D01*
X327006Y145983D01*
X327647Y145147D01*
X328483Y144506D01*
X329456Y144103D01*
X330500Y143965D01*
X331544Y144103D01*
X332517Y144506D01*
X333353Y145147D01*
X333994Y145983D01*
X334397Y146956D01*
X334535Y148000D01*
X334397Y149044D01*
X333994Y150017D01*
X333353Y150853D01*
X332517Y151494D01*
X331544Y151897D01*
X330500Y152034D01*
D02*
G37*
G36*
X300500D02*
X299456Y151897D01*
X298483Y151494D01*
X297647Y150853D01*
X297006Y150017D01*
X296603Y149044D01*
X296465Y148000D01*
X296603Y146956D01*
X297006Y145983D01*
X297647Y145147D01*
X298483Y144506D01*
X299456Y144103D01*
X300500Y143965D01*
X301544Y144103D01*
X302517Y144506D01*
X303353Y145147D01*
X303994Y145983D01*
X304397Y146956D01*
X304535Y148000D01*
X304397Y149044D01*
X303994Y150017D01*
X303353Y150853D01*
X302517Y151494D01*
X301544Y151897D01*
X300500Y152034D01*
D02*
G37*
G36*
X353000Y148035D02*
X351956Y147897D01*
X350983Y147494D01*
X350147Y146853D01*
X349506Y146017D01*
X349103Y145044D01*
X348966Y144000D01*
X349103Y142956D01*
X349506Y141983D01*
X350147Y141147D01*
X350983Y140506D01*
X351956Y140103D01*
X353000Y139965D01*
X354044Y140103D01*
X355017Y140506D01*
X355853Y141147D01*
X356494Y141983D01*
X356897Y142956D01*
X357034Y144000D01*
X356897Y145044D01*
X356494Y146017D01*
X355853Y146853D01*
X355017Y147494D01*
X354044Y147897D01*
X353000Y148035D01*
D02*
G37*
G36*
X212661Y147875D02*
X211617Y147738D01*
X210644Y147335D01*
X209809Y146694D01*
X209167Y145858D01*
X208764Y144885D01*
X208627Y143841D01*
X208764Y142797D01*
X209167Y141824D01*
X209809Y140988D01*
X210644Y140347D01*
X211617Y139944D01*
X212661Y139806D01*
X213706Y139944D01*
X214679Y140347D01*
X215514Y140988D01*
X216155Y141824D01*
X216357Y142312D01*
X264568D01*
X264760Y141848D01*
X265393Y141022D01*
X266219Y140388D01*
X267181Y139990D01*
X268213Y139854D01*
X269245Y139990D01*
X270206Y140388D01*
X271032Y141022D01*
X271665Y141848D01*
X272064Y142809D01*
X272200Y143841D01*
X272064Y144873D01*
X271665Y145834D01*
X271032Y146660D01*
X270206Y147294D01*
X269245Y147692D01*
X268213Y147828D01*
X267181Y147692D01*
X266219Y147294D01*
X265393Y146660D01*
X264760Y145834D01*
X264568Y145370D01*
X216357D01*
X216155Y145858D01*
X215514Y146694D01*
X214679Y147335D01*
X213706Y147738D01*
X212661Y147875D01*
D02*
G37*
G36*
X301000Y141969D02*
Y138500D01*
X304469D01*
X304397Y139044D01*
X303994Y140017D01*
X303353Y140853D01*
X302517Y141494D01*
X301544Y141897D01*
X301000Y141969D01*
D02*
G37*
G36*
X300000D02*
X299456Y141897D01*
X298483Y141494D01*
X297647Y140853D01*
X297006Y140017D01*
X296603Y139044D01*
X296531Y138500D01*
X300000D01*
Y141969D01*
D02*
G37*
G36*
X212161Y137810D02*
X211617Y137738D01*
X210644Y137335D01*
X209809Y136694D01*
X209167Y135858D01*
X208764Y134885D01*
X208693Y134341D01*
X212161D01*
Y137810D01*
D02*
G37*
G36*
X268713Y137762D02*
Y134341D01*
X272134D01*
X272064Y134873D01*
X271665Y135834D01*
X271032Y136660D01*
X270206Y137294D01*
X269245Y137692D01*
X268713Y137762D01*
D02*
G37*
G36*
X304469Y137500D02*
X301000D01*
Y134031D01*
X301544Y134103D01*
X302517Y134506D01*
X303353Y135147D01*
X303994Y135983D01*
X304397Y136956D01*
X304469Y137500D01*
D02*
G37*
G36*
X300000D02*
X296531D01*
X296603Y136956D01*
X297006Y135983D01*
X297647Y135147D01*
X298483Y134506D01*
X299456Y134103D01*
X300000Y134031D01*
Y137500D01*
D02*
G37*
G36*
X330500Y142034D02*
X329456Y141897D01*
X328483Y141494D01*
X327647Y140853D01*
X327006Y140017D01*
X326603Y139044D01*
X326466Y138000D01*
X326603Y136956D01*
X327006Y135983D01*
X327647Y135147D01*
X328483Y134506D01*
X329456Y134103D01*
X330500Y133966D01*
X331544Y134103D01*
X332517Y134506D01*
X333353Y135147D01*
X333994Y135983D01*
X334397Y136956D01*
X334535Y138000D01*
X334397Y139044D01*
X333994Y140017D01*
X333353Y140853D01*
X332517Y141494D01*
X331544Y141897D01*
X330500Y142034D01*
D02*
G37*
G36*
X213161Y137810D02*
Y133841D01*
Y129872D01*
X213706Y129944D01*
X214679Y130347D01*
X215514Y130988D01*
X216155Y131824D01*
X216357Y132312D01*
X264568D01*
X264760Y131848D01*
X265393Y131022D01*
X266219Y130388D01*
X267181Y129990D01*
X267713Y129920D01*
Y133841D01*
Y137762D01*
X267181Y137692D01*
X266219Y137294D01*
X265393Y136660D01*
X264760Y135834D01*
X264568Y135370D01*
X216357D01*
X216155Y135858D01*
X215514Y136694D01*
X214679Y137335D01*
X213706Y137738D01*
X213161Y137810D01*
D02*
G37*
G36*
X272134Y133341D02*
X268713D01*
Y129920D01*
X269245Y129990D01*
X270206Y130388D01*
X271032Y131022D01*
X271665Y131848D01*
X272064Y132809D01*
X272134Y133341D01*
D02*
G37*
G36*
X212161Y133341D02*
X208693D01*
X208764Y132797D01*
X209167Y131824D01*
X209809Y130988D01*
X210644Y130347D01*
X211617Y129944D01*
X212161Y129872D01*
Y133341D01*
D02*
G37*
G36*
X152661Y127875D02*
X151617Y127738D01*
X150644Y127335D01*
X149809Y126694D01*
X149167Y125858D01*
X148965Y125370D01*
X106070D01*
X105878Y125834D01*
X105244Y126660D01*
X104419Y127294D01*
X103457Y127692D01*
X102425Y127828D01*
X101393Y127692D01*
X100432Y127294D01*
X99606Y126660D01*
X98972Y125834D01*
X98574Y124873D01*
X98438Y123841D01*
X98574Y122809D01*
X98972Y121847D01*
X99606Y121022D01*
X100432Y120388D01*
X101393Y119990D01*
X102425Y119854D01*
X103457Y119990D01*
X104419Y120388D01*
X105244Y121022D01*
X105878Y121847D01*
X106070Y122312D01*
X148965D01*
X149167Y121824D01*
X149809Y120988D01*
X150644Y120347D01*
X151617Y119944D01*
X152661Y119806D01*
X153706Y119944D01*
X154679Y120347D01*
X155514Y120988D01*
X156155Y121824D01*
X156559Y122797D01*
X156696Y123841D01*
X156559Y124885D01*
X156155Y125858D01*
X155514Y126694D01*
X154679Y127335D01*
X153706Y127738D01*
X152661Y127875D01*
D02*
G37*
G36*
X212661D02*
X211617Y127738D01*
X210644Y127335D01*
X209809Y126694D01*
X209167Y125858D01*
X208764Y124885D01*
X208627Y123841D01*
X208764Y122797D01*
X209167Y121824D01*
X209809Y120988D01*
X210644Y120347D01*
X211617Y119944D01*
X212661Y119806D01*
X213706Y119944D01*
X214679Y120347D01*
X215514Y120988D01*
X216155Y121824D01*
X216357Y122312D01*
X264568D01*
X264760Y121847D01*
X265393Y121022D01*
X266219Y120388D01*
X267181Y119990D01*
X268213Y119854D01*
X269245Y119990D01*
X270206Y120388D01*
X271032Y121022D01*
X271665Y121847D01*
X272064Y122809D01*
X272200Y123841D01*
X272064Y124873D01*
X271665Y125834D01*
X271032Y126660D01*
X270206Y127294D01*
X269245Y127692D01*
X268213Y127828D01*
X267181Y127692D01*
X266219Y127294D01*
X265393Y126660D01*
X264760Y125834D01*
X264568Y125370D01*
X216357D01*
X216155Y125858D01*
X215514Y126694D01*
X214679Y127335D01*
X213706Y127738D01*
X212661Y127875D01*
D02*
G37*
G36*
X29500Y121295D02*
Y117827D01*
X32969D01*
X32897Y118371D01*
X32494Y119344D01*
X31853Y120180D01*
X31017Y120821D01*
X30044Y121224D01*
X29500Y121295D01*
D02*
G37*
G36*
X28500D02*
X27956Y121224D01*
X26983Y120821D01*
X26147Y120180D01*
X25506Y119344D01*
X25103Y118371D01*
X25031Y117827D01*
X28500D01*
Y121295D01*
D02*
G37*
G36*
X152661Y117876D02*
X151617Y117738D01*
X150644Y117335D01*
X149809Y116694D01*
X149167Y115858D01*
X148965Y115370D01*
X106070D01*
X105878Y115834D01*
X105244Y116660D01*
X104419Y117294D01*
X103457Y117692D01*
X102425Y117828D01*
X101393Y117692D01*
X100432Y117294D01*
X99606Y116660D01*
X98972Y115834D01*
X98574Y114873D01*
X98438Y113841D01*
X98574Y112809D01*
X98972Y111847D01*
X99606Y111022D01*
X100432Y110388D01*
X101393Y109990D01*
X102425Y109854D01*
X103457Y109990D01*
X104419Y110388D01*
X105244Y111022D01*
X105878Y111847D01*
X106070Y112312D01*
X148965D01*
X149167Y111824D01*
X149809Y110988D01*
X150644Y110347D01*
X151617Y109944D01*
X152661Y109806D01*
X153706Y109944D01*
X154679Y110347D01*
X155514Y110988D01*
X156155Y111824D01*
X156559Y112797D01*
X156696Y113841D01*
X156559Y114885D01*
X156155Y115858D01*
X155514Y116694D01*
X154679Y117335D01*
X153706Y117738D01*
X152661Y117876D01*
D02*
G37*
G36*
X32969Y116827D02*
X29500D01*
Y113358D01*
X30044Y113430D01*
X31017Y113833D01*
X31853Y114474D01*
X32494Y115310D01*
X32897Y116283D01*
X32969Y116827D01*
D02*
G37*
G36*
X28500D02*
X25031D01*
X25103Y116283D01*
X25506Y115310D01*
X26147Y114474D01*
X26983Y113833D01*
X27956Y113430D01*
X28500Y113358D01*
Y116827D01*
D02*
G37*
G36*
X212661Y117876D02*
X211617Y117738D01*
X210644Y117335D01*
X209809Y116694D01*
X209167Y115858D01*
X208764Y114885D01*
X208627Y113841D01*
X208764Y112797D01*
X209167Y111824D01*
X209809Y110988D01*
X210644Y110347D01*
X211617Y109944D01*
X212661Y109806D01*
X213706Y109944D01*
X214679Y110347D01*
X215514Y110988D01*
X216155Y111824D01*
X216357Y112312D01*
X264568D01*
X264760Y111847D01*
X265393Y111022D01*
X266219Y110388D01*
X267181Y109990D01*
X268213Y109854D01*
X269245Y109990D01*
X270206Y110388D01*
X271032Y111022D01*
X271665Y111847D01*
X272064Y112809D01*
X272200Y113841D01*
X272064Y114873D01*
X271665Y115834D01*
X271032Y116660D01*
X270206Y117294D01*
X269245Y117692D01*
X268213Y117828D01*
X267181Y117692D01*
X266219Y117294D01*
X265393Y116660D01*
X264760Y115834D01*
X264568Y115370D01*
X216357D01*
X216155Y115858D01*
X215514Y116694D01*
X214679Y117335D01*
X213706Y117738D01*
X212661Y117876D01*
D02*
G37*
G36*
X152661Y107876D02*
X151617Y107738D01*
X150644Y107335D01*
X149809Y106694D01*
X149167Y105858D01*
X148965Y105370D01*
X106070D01*
X105878Y105834D01*
X105244Y106660D01*
X104419Y107294D01*
X103457Y107692D01*
X102425Y107828D01*
X101393Y107692D01*
X100432Y107294D01*
X99606Y106660D01*
X98972Y105834D01*
X98574Y104873D01*
X98438Y103841D01*
X98574Y102809D01*
X98972Y101848D01*
X99606Y101022D01*
X100432Y100388D01*
X101393Y99990D01*
X102425Y99854D01*
X103457Y99990D01*
X104419Y100388D01*
X105244Y101022D01*
X105878Y101848D01*
X106070Y102312D01*
X148965D01*
X149167Y101824D01*
X149809Y100988D01*
X150644Y100347D01*
X151617Y99944D01*
X152661Y99806D01*
X153706Y99944D01*
X154679Y100347D01*
X155514Y100988D01*
X156155Y101824D01*
X156559Y102797D01*
X156696Y103841D01*
X156559Y104885D01*
X156155Y105858D01*
X155514Y106694D01*
X154679Y107335D01*
X153706Y107738D01*
X152661Y107876D01*
D02*
G37*
G36*
X212661D02*
X211617Y107738D01*
X210644Y107335D01*
X209809Y106694D01*
X209167Y105858D01*
X208764Y104885D01*
X208627Y103841D01*
X208764Y102797D01*
X209167Y101824D01*
X209809Y100988D01*
X210644Y100347D01*
X211617Y99944D01*
X212661Y99806D01*
X213706Y99944D01*
X214679Y100347D01*
X215514Y100988D01*
X216155Y101824D01*
X216357Y102312D01*
X264568D01*
X264760Y101848D01*
X265393Y101022D01*
X266219Y100388D01*
X267181Y99990D01*
X268213Y99854D01*
X269245Y99990D01*
X270206Y100388D01*
X271032Y101022D01*
X271665Y101848D01*
X272064Y102809D01*
X272200Y103841D01*
X272064Y104873D01*
X271665Y105834D01*
X271032Y106660D01*
X270206Y107294D01*
X269245Y107692D01*
X268213Y107828D01*
X267181Y107692D01*
X266219Y107294D01*
X265393Y106660D01*
X264760Y105834D01*
X264568Y105370D01*
X216357D01*
X216155Y105858D01*
X215514Y106694D01*
X214679Y107335D01*
X213706Y107738D01*
X212661Y107876D01*
D02*
G37*
G36*
X300500Y105535D02*
X299456Y105397D01*
X298483Y104994D01*
X297647Y104353D01*
X297006Y103517D01*
X296603Y102544D01*
X296465Y101500D01*
X296603Y100456D01*
X297006Y99483D01*
X297647Y98647D01*
X298483Y98006D01*
X299456Y97603D01*
X300500Y97465D01*
X301544Y97603D01*
X302517Y98006D01*
X303353Y98647D01*
X303994Y99483D01*
X304397Y100456D01*
X304535Y101500D01*
X304397Y102544D01*
X303994Y103517D01*
X303353Y104353D01*
X302517Y104994D01*
X301544Y105397D01*
X300500Y105535D01*
D02*
G37*
G36*
X152661Y97875D02*
X151617Y97738D01*
X150644Y97335D01*
X149809Y96694D01*
X149167Y95858D01*
X148965Y95370D01*
X106070D01*
X105878Y95834D01*
X105244Y96660D01*
X104419Y97294D01*
X103457Y97692D01*
X102425Y97828D01*
X101393Y97692D01*
X100432Y97294D01*
X99606Y96660D01*
X98972Y95834D01*
X98574Y94873D01*
X98438Y93841D01*
X98574Y92809D01*
X98972Y91847D01*
X99606Y91022D01*
X100432Y90388D01*
X101393Y89990D01*
X102425Y89854D01*
X103457Y89990D01*
X104419Y90388D01*
X105244Y91022D01*
X105878Y91847D01*
X106070Y92312D01*
X148965D01*
X149167Y91824D01*
X149809Y90988D01*
X150644Y90347D01*
X151617Y89944D01*
X152661Y89806D01*
X153706Y89944D01*
X154679Y90347D01*
X155514Y90988D01*
X156155Y91824D01*
X156559Y92797D01*
X156696Y93841D01*
X156559Y94885D01*
X156155Y95858D01*
X155514Y96694D01*
X154679Y97335D01*
X153706Y97738D01*
X152661Y97875D01*
D02*
G37*
G36*
X330500Y105535D02*
X329456Y105397D01*
X328483Y104994D01*
X327647Y104353D01*
X327006Y103517D01*
X326603Y102544D01*
X326466Y101500D01*
X326603Y100456D01*
X327006Y99483D01*
X327647Y98647D01*
X328483Y98006D01*
X329456Y97603D01*
X330500Y97465D01*
X331544Y97603D01*
X332517Y98006D01*
X333353Y98647D01*
X333994Y99483D01*
X334196Y99971D01*
X346866D01*
X349000Y97837D01*
Y92000D01*
X357000D01*
Y100000D01*
X351163D01*
X348581Y102581D01*
X348085Y102913D01*
X347500Y103029D01*
X334196D01*
X333994Y103517D01*
X333353Y104353D01*
X332517Y104994D01*
X331544Y105397D01*
X330500Y105535D01*
D02*
G37*
G36*
X212661Y97875D02*
X211617Y97738D01*
X210644Y97335D01*
X209809Y96694D01*
X209167Y95858D01*
X208764Y94885D01*
X208627Y93841D01*
X208764Y92797D01*
X209167Y91824D01*
X209809Y90988D01*
X210644Y90347D01*
X211617Y89944D01*
X212661Y89806D01*
X213706Y89944D01*
X214679Y90347D01*
X215514Y90988D01*
X216155Y91824D01*
X216357Y92312D01*
X264568D01*
X264760Y91847D01*
X265393Y91022D01*
X266219Y90388D01*
X267181Y89990D01*
X268213Y89854D01*
X269245Y89990D01*
X270206Y90388D01*
X271032Y91022D01*
X271665Y91847D01*
X272064Y92809D01*
X272200Y93841D01*
X272064Y94873D01*
X271665Y95834D01*
X271032Y96660D01*
X270206Y97294D01*
X269245Y97692D01*
X268213Y97828D01*
X267181Y97692D01*
X266219Y97294D01*
X265393Y96660D01*
X264760Y95834D01*
X264568Y95370D01*
X216357D01*
X216155Y95858D01*
X215514Y96694D01*
X214679Y97335D01*
X213706Y97738D01*
X212661Y97875D01*
D02*
G37*
G36*
X330500Y95534D02*
X329456Y95397D01*
X328483Y94994D01*
X327647Y94353D01*
X327006Y93517D01*
X326603Y92544D01*
X326466Y91500D01*
X326603Y90456D01*
X327006Y89483D01*
X327647Y88647D01*
X328483Y88006D01*
X329456Y87603D01*
X330500Y87466D01*
X331544Y87603D01*
X332517Y88006D01*
X333353Y88647D01*
X333994Y89483D01*
X334397Y90456D01*
X334535Y91500D01*
X334397Y92544D01*
X333994Y93517D01*
X333353Y94353D01*
X332517Y94994D01*
X331544Y95397D01*
X330500Y95534D01*
D02*
G37*
G36*
X212661Y187875D02*
X211617Y187738D01*
X210644Y187335D01*
X209809Y186694D01*
X209167Y185858D01*
X208764Y184885D01*
X208627Y183841D01*
X208764Y182797D01*
X209167Y181824D01*
X209809Y180988D01*
X210644Y180347D01*
X211617Y179944D01*
X212661Y179806D01*
X213706Y179944D01*
X214679Y180347D01*
X215514Y180988D01*
X216155Y181824D01*
X216357Y182312D01*
X264568D01*
X264760Y181848D01*
X265393Y181022D01*
X266219Y180388D01*
X267181Y179990D01*
X268213Y179854D01*
X269245Y179990D01*
X270206Y180388D01*
X271032Y181022D01*
X271665Y181848D01*
X271858Y182312D01*
X275026D01*
X279971Y177366D01*
Y110500D01*
X280087Y109915D01*
X280419Y109419D01*
X296805Y93032D01*
X296603Y92544D01*
X296465Y91500D01*
X296603Y90456D01*
X297006Y89483D01*
X297647Y88647D01*
X298483Y88006D01*
X299456Y87603D01*
X300500Y87466D01*
X301544Y87603D01*
X302517Y88006D01*
X303353Y88647D01*
X303994Y89483D01*
X304397Y90456D01*
X304535Y91500D01*
X304397Y92544D01*
X303994Y93517D01*
X303353Y94353D01*
X302517Y94994D01*
X301544Y95397D01*
X300500Y95534D01*
X299456Y95397D01*
X298968Y95195D01*
X283029Y111134D01*
Y178000D01*
X282913Y178585D01*
X282581Y179081D01*
X276741Y184922D01*
X276244Y185254D01*
X275659Y185370D01*
X271858D01*
X271665Y185834D01*
X271032Y186660D01*
X270206Y187294D01*
X269245Y187692D01*
X268213Y187828D01*
X267181Y187692D01*
X266219Y187294D01*
X265393Y186660D01*
X264760Y185834D01*
X264568Y185370D01*
X216357D01*
X216155Y185858D01*
X215514Y186694D01*
X214679Y187335D01*
X213706Y187738D01*
X212661Y187875D01*
D02*
G37*
G36*
X152661Y87875D02*
X151617Y87738D01*
X150644Y87335D01*
X149809Y86694D01*
X149167Y85858D01*
X148965Y85370D01*
X106070D01*
X105878Y85834D01*
X105244Y86660D01*
X104419Y87294D01*
X103457Y87692D01*
X102425Y87828D01*
X101393Y87692D01*
X100432Y87294D01*
X99606Y86660D01*
X98972Y85834D01*
X98574Y84873D01*
X98438Y83841D01*
X98574Y82809D01*
X98972Y81848D01*
X99606Y81022D01*
X100432Y80388D01*
X101393Y79990D01*
X102425Y79854D01*
X103457Y79990D01*
X104419Y80388D01*
X105244Y81022D01*
X105878Y81848D01*
X106070Y82312D01*
X148965D01*
X149167Y81824D01*
X149809Y80988D01*
X150644Y80347D01*
X151617Y79944D01*
X152661Y79806D01*
X153706Y79944D01*
X154679Y80347D01*
X155514Y80988D01*
X156155Y81824D01*
X156559Y82797D01*
X156696Y83841D01*
X156559Y84885D01*
X156155Y85858D01*
X155514Y86694D01*
X154679Y87335D01*
X153706Y87738D01*
X152661Y87875D01*
D02*
G37*
G36*
X353000Y90035D02*
X351956Y89897D01*
X350983Y89494D01*
X350147Y88853D01*
X349506Y88017D01*
X349103Y87044D01*
X348966Y86000D01*
X349103Y84956D01*
X349305Y84468D01*
X347867Y83029D01*
X334196D01*
X333994Y83517D01*
X333353Y84353D01*
X332517Y84994D01*
X331544Y85397D01*
X330500Y85535D01*
X329456Y85397D01*
X328483Y84994D01*
X327647Y84353D01*
X327006Y83517D01*
X326603Y82544D01*
X326466Y81500D01*
X326603Y80456D01*
X327006Y79483D01*
X327647Y78647D01*
X328483Y78006D01*
X329456Y77603D01*
X330500Y77465D01*
X331544Y77603D01*
X332517Y78006D01*
X333353Y78647D01*
X333994Y79483D01*
X334196Y79971D01*
X348500D01*
X349085Y80087D01*
X349581Y80419D01*
X351468Y82305D01*
X351956Y82103D01*
X353000Y81966D01*
X354044Y82103D01*
X355017Y82506D01*
X355853Y83147D01*
X356494Y83983D01*
X356897Y84956D01*
X357034Y86000D01*
X356897Y87044D01*
X356494Y88017D01*
X355853Y88853D01*
X355017Y89494D01*
X354044Y89897D01*
X353000Y90035D01*
D02*
G37*
G36*
X29500Y84619D02*
Y81150D01*
X32969D01*
X32897Y81694D01*
X32494Y82667D01*
X31853Y83503D01*
X31017Y84144D01*
X30044Y84547D01*
X29500Y84619D01*
D02*
G37*
G36*
X28500D02*
X27956Y84547D01*
X26983Y84144D01*
X26147Y83503D01*
X25506Y82667D01*
X25103Y81694D01*
X25031Y81150D01*
X28500D01*
Y84619D01*
D02*
G37*
G36*
X212661Y87875D02*
X211617Y87738D01*
X210644Y87335D01*
X209809Y86694D01*
X209167Y85858D01*
X208764Y84885D01*
X208627Y83841D01*
X208764Y82797D01*
X209167Y81824D01*
X209809Y80988D01*
X210644Y80347D01*
X211617Y79944D01*
X212661Y79806D01*
X213706Y79944D01*
X214679Y80347D01*
X215514Y80988D01*
X216155Y81824D01*
X216357Y82312D01*
X264568D01*
X264760Y81848D01*
X265393Y81022D01*
X266219Y80388D01*
X267181Y79990D01*
X268213Y79854D01*
X269245Y79990D01*
X270206Y80388D01*
X271032Y81022D01*
X271665Y81848D01*
X272064Y82809D01*
X272200Y83841D01*
X272064Y84873D01*
X271665Y85834D01*
X271032Y86660D01*
X270206Y87294D01*
X269245Y87692D01*
X268213Y87828D01*
X267181Y87692D01*
X266219Y87294D01*
X265393Y86660D01*
X264760Y85834D01*
X264568Y85370D01*
X216357D01*
X216155Y85858D01*
X215514Y86694D01*
X214679Y87335D01*
X213706Y87738D01*
X212661Y87875D01*
D02*
G37*
G36*
X300500Y85535D02*
X299456Y85397D01*
X298483Y84994D01*
X297647Y84353D01*
X297006Y83517D01*
X296603Y82544D01*
X296465Y81500D01*
X296603Y80456D01*
X297006Y79483D01*
X297647Y78647D01*
X298483Y78006D01*
X299456Y77603D01*
X300500Y77465D01*
X301544Y77603D01*
X302517Y78006D01*
X303353Y78647D01*
X303994Y79483D01*
X304397Y80456D01*
X304535Y81500D01*
X304397Y82544D01*
X303994Y83517D01*
X303353Y84353D01*
X302517Y84994D01*
X301544Y85397D01*
X300500Y85535D01*
D02*
G37*
G36*
X32969Y80150D02*
X29500D01*
Y76681D01*
X30044Y76753D01*
X31017Y77156D01*
X31853Y77797D01*
X32494Y78633D01*
X32897Y79606D01*
X32969Y80150D01*
D02*
G37*
G36*
X28500D02*
X25031D01*
X25103Y79606D01*
X25506Y78633D01*
X26147Y77797D01*
X26983Y77156D01*
X27956Y76753D01*
X28500Y76681D01*
Y80150D01*
D02*
G37*
G36*
X353000Y80035D02*
X351956Y79897D01*
X350983Y79494D01*
X350147Y78853D01*
X349506Y78017D01*
X349103Y77044D01*
X348966Y76000D01*
X349103Y74956D01*
X349305Y74468D01*
X347867Y73029D01*
X334196D01*
X333994Y73517D01*
X333353Y74353D01*
X332517Y74994D01*
X331544Y75397D01*
X330500Y75534D01*
X329456Y75397D01*
X328483Y74994D01*
X327647Y74353D01*
X327006Y73517D01*
X326603Y72544D01*
X326466Y71500D01*
X326603Y70456D01*
X327006Y69483D01*
X327647Y68647D01*
X328483Y68006D01*
X329456Y67603D01*
X330500Y67466D01*
X331544Y67603D01*
X332517Y68006D01*
X333353Y68647D01*
X333994Y69483D01*
X334196Y69971D01*
X348500D01*
X349085Y70087D01*
X349581Y70419D01*
X351468Y72305D01*
X351956Y72103D01*
X353000Y71965D01*
X354044Y72103D01*
X355017Y72506D01*
X355853Y73147D01*
X356494Y73983D01*
X356897Y74956D01*
X357034Y76000D01*
X356897Y77044D01*
X356494Y78017D01*
X355853Y78853D01*
X355017Y79494D01*
X354044Y79897D01*
X353000Y80035D01*
D02*
G37*
G36*
X301000Y75469D02*
Y72000D01*
X304469D01*
X304397Y72544D01*
X303994Y73517D01*
X303353Y74353D01*
X302517Y74994D01*
X301544Y75397D01*
X301000Y75469D01*
D02*
G37*
G36*
X300000D02*
X299456Y75397D01*
X298483Y74994D01*
X297647Y74353D01*
X297006Y73517D01*
X296603Y72544D01*
X296531Y72000D01*
X300000D01*
Y75469D01*
D02*
G37*
G36*
X212661Y77876D02*
X211617Y77738D01*
X210644Y77335D01*
X209809Y76694D01*
X209167Y75858D01*
X208764Y74885D01*
X208627Y73841D01*
X208764Y72797D01*
X209167Y71824D01*
X209809Y70988D01*
X210644Y70347D01*
X211617Y69944D01*
X212661Y69806D01*
X213706Y69944D01*
X214679Y70347D01*
X215514Y70988D01*
X216155Y71824D01*
X216357Y72312D01*
X264568D01*
X264760Y71847D01*
X265393Y71022D01*
X266219Y70388D01*
X267181Y69990D01*
X268213Y69854D01*
X269245Y69990D01*
X270206Y70388D01*
X271032Y71022D01*
X271665Y71847D01*
X272064Y72809D01*
X272200Y73841D01*
X272064Y74873D01*
X271665Y75834D01*
X271032Y76660D01*
X270206Y77294D01*
X269245Y77692D01*
X268213Y77828D01*
X267181Y77692D01*
X266219Y77294D01*
X265393Y76660D01*
X264760Y75834D01*
X264568Y75370D01*
X216357D01*
X216155Y75858D01*
X215514Y76694D01*
X214679Y77335D01*
X213706Y77738D01*
X212661Y77876D01*
D02*
G37*
G36*
X29000Y131204D02*
X27956Y131066D01*
X26983Y130663D01*
X26147Y130022D01*
X25506Y129187D01*
X25103Y128214D01*
X24965Y127169D01*
X25103Y126125D01*
X25506Y125152D01*
X26147Y124317D01*
X26983Y123675D01*
X27956Y123272D01*
X29000Y123135D01*
X30044Y123272D01*
X31017Y123675D01*
X31853Y124317D01*
X32494Y125152D01*
X32696Y125640D01*
X48463D01*
X98766Y75337D01*
X98574Y74873D01*
X98438Y73841D01*
X98574Y72809D01*
X98972Y71847D01*
X99606Y71022D01*
X100432Y70388D01*
X101393Y69990D01*
X102425Y69854D01*
X103457Y69990D01*
X104419Y70388D01*
X105244Y71022D01*
X105878Y71847D01*
X106070Y72312D01*
X148965D01*
X149167Y71824D01*
X149809Y70988D01*
X150644Y70347D01*
X151617Y69944D01*
X152661Y69806D01*
X153706Y69944D01*
X154679Y70347D01*
X155514Y70988D01*
X156155Y71824D01*
X156559Y72797D01*
X156696Y73841D01*
X156559Y74885D01*
X156155Y75858D01*
X155514Y76694D01*
X154679Y77335D01*
X153706Y77738D01*
X152661Y77876D01*
X151617Y77738D01*
X150644Y77335D01*
X149809Y76694D01*
X149167Y75858D01*
X148965Y75370D01*
X106070D01*
X105878Y75834D01*
X105244Y76660D01*
X104419Y77294D01*
X103457Y77692D01*
X102425Y77828D01*
X101393Y77692D01*
X100929Y77500D01*
X50178Y128251D01*
X49682Y128582D01*
X49097Y128699D01*
X32696D01*
X32494Y129187D01*
X31853Y130022D01*
X31017Y130663D01*
X30044Y131066D01*
X29000Y131204D01*
D02*
G37*
G36*
X304469Y71000D02*
X301000D01*
Y67531D01*
X301544Y67603D01*
X302517Y68006D01*
X303353Y68647D01*
X303994Y69483D01*
X304397Y70456D01*
X304469Y71000D01*
D02*
G37*
G36*
X300000D02*
X296531D01*
X296603Y70456D01*
X297006Y69483D01*
X297647Y68647D01*
X298483Y68006D01*
X299456Y67603D01*
X300000Y67531D01*
Y71000D01*
D02*
G37*
G36*
X212661Y67875D02*
X211617Y67738D01*
X210644Y67335D01*
X209809Y66694D01*
X209167Y65858D01*
X208764Y64885D01*
X208627Y63841D01*
X208764Y62797D01*
X209167Y61824D01*
X209809Y60988D01*
X210644Y60347D01*
X211617Y59944D01*
X212661Y59806D01*
X213706Y59944D01*
X214679Y60347D01*
X215514Y60988D01*
X216155Y61824D01*
X216357Y62312D01*
X264568D01*
X264760Y61848D01*
X265393Y61022D01*
X266219Y60388D01*
X267181Y59990D01*
X268213Y59854D01*
X269245Y59990D01*
X270206Y60388D01*
X271032Y61022D01*
X271665Y61848D01*
X272064Y62809D01*
X272200Y63841D01*
X272064Y64873D01*
X271665Y65834D01*
X271032Y66660D01*
X270206Y67294D01*
X269245Y67692D01*
X268213Y67828D01*
X267181Y67692D01*
X266219Y67294D01*
X265393Y66660D01*
X264760Y65834D01*
X264568Y65370D01*
X216357D01*
X216155Y65858D01*
X215514Y66694D01*
X214679Y67335D01*
X213706Y67738D01*
X212661Y67875D01*
D02*
G37*
G36*
X29000Y94527D02*
X27956Y94390D01*
X26983Y93987D01*
X26147Y93345D01*
X25506Y92510D01*
X25103Y91537D01*
X24965Y90493D01*
X25103Y89448D01*
X25506Y88475D01*
X26147Y87640D01*
X26983Y86999D01*
X27956Y86596D01*
X29000Y86458D01*
X30044Y86596D01*
X31017Y86999D01*
X31853Y87640D01*
X32494Y88475D01*
X32696Y88963D01*
X44115D01*
X70318Y62760D01*
X70814Y62428D01*
X71400Y62312D01*
X98780D01*
X98972Y61848D01*
X99606Y61022D01*
X100432Y60388D01*
X101393Y59990D01*
X102425Y59854D01*
X103457Y59990D01*
X104419Y60388D01*
X105244Y61022D01*
X105878Y61848D01*
X106070Y62312D01*
X148965D01*
X149167Y61824D01*
X149809Y60988D01*
X150644Y60347D01*
X151617Y59944D01*
X152661Y59806D01*
X153706Y59944D01*
X154679Y60347D01*
X155514Y60988D01*
X156155Y61824D01*
X156559Y62797D01*
X156696Y63841D01*
X156559Y64885D01*
X156155Y65858D01*
X155514Y66694D01*
X154679Y67335D01*
X153706Y67738D01*
X152661Y67875D01*
X151617Y67738D01*
X150644Y67335D01*
X149809Y66694D01*
X149167Y65858D01*
X148965Y65370D01*
X106070D01*
X105878Y65834D01*
X105244Y66660D01*
X104419Y67294D01*
X103457Y67692D01*
X102425Y67828D01*
X101393Y67692D01*
X100432Y67294D01*
X99606Y66660D01*
X98972Y65834D01*
X98780Y65370D01*
X72033D01*
X45829Y91574D01*
X45333Y91906D01*
X44748Y92022D01*
X32696D01*
X32494Y92510D01*
X31853Y93345D01*
X31017Y93987D01*
X30044Y94390D01*
X29000Y94527D01*
D02*
G37*
G36*
X212661Y57876D02*
X211617Y57738D01*
X210644Y57335D01*
X209809Y56694D01*
X209167Y55858D01*
X208764Y54885D01*
X208627Y53841D01*
X208764Y52797D01*
X209167Y51824D01*
X209809Y50988D01*
X210644Y50347D01*
X211617Y49944D01*
X212661Y49806D01*
X213706Y49944D01*
X214679Y50347D01*
X215514Y50988D01*
X216155Y51824D01*
X216357Y52312D01*
X264568D01*
X264760Y51847D01*
X265393Y51022D01*
X266219Y50388D01*
X267181Y49990D01*
X268213Y49854D01*
X269245Y49990D01*
X270206Y50388D01*
X271032Y51022D01*
X271665Y51847D01*
X272064Y52809D01*
X272200Y53841D01*
X272064Y54873D01*
X271665Y55834D01*
X271032Y56660D01*
X270206Y57294D01*
X269245Y57692D01*
X268213Y57828D01*
X267181Y57692D01*
X266219Y57294D01*
X265393Y56660D01*
X264760Y55834D01*
X264568Y55370D01*
X216357D01*
X216155Y55858D01*
X215514Y56694D01*
X214679Y57335D01*
X213706Y57738D01*
X212661Y57876D01*
D02*
G37*
G36*
X29000Y58369D02*
X27956Y58232D01*
X26983Y57829D01*
X26147Y57187D01*
X25506Y56352D01*
X25103Y55379D01*
X24965Y54335D01*
X25103Y53290D01*
X25506Y52317D01*
X26147Y51482D01*
X26983Y50841D01*
X27956Y50438D01*
X29000Y50300D01*
X30044Y50438D01*
X31017Y50841D01*
X31853Y51482D01*
X32489Y52312D01*
X82282D01*
X82599Y51925D01*
X82589Y51872D01*
Y50906D01*
X80362D01*
Y44772D01*
X87874D01*
Y50906D01*
X86021D01*
X85814Y51406D01*
X86720Y52312D01*
X98780D01*
X98972Y51847D01*
X99606Y51022D01*
X100432Y50388D01*
X101393Y49990D01*
X102425Y49854D01*
X103457Y49990D01*
X104419Y50388D01*
X105244Y51022D01*
X105878Y51847D01*
X106070Y52312D01*
X148965D01*
X149167Y51824D01*
X149809Y50988D01*
X150644Y50347D01*
X151617Y49944D01*
X152661Y49806D01*
X153706Y49944D01*
X154679Y50347D01*
X155514Y50988D01*
X156155Y51824D01*
X156559Y52797D01*
X156696Y53841D01*
X156559Y54885D01*
X156155Y55858D01*
X155514Y56694D01*
X154679Y57335D01*
X153706Y57738D01*
X152661Y57876D01*
X151617Y57738D01*
X150644Y57335D01*
X149809Y56694D01*
X149167Y55858D01*
X148965Y55370D01*
X106070D01*
X105878Y55834D01*
X105244Y56660D01*
X104419Y57294D01*
X103457Y57692D01*
X102425Y57828D01*
X101393Y57692D01*
X100432Y57294D01*
X99606Y56660D01*
X98972Y55834D01*
X98780Y55370D01*
X32898D01*
X32897Y55379D01*
X32494Y56352D01*
X31853Y57187D01*
X31017Y57829D01*
X30044Y58232D01*
X29000Y58369D01*
D02*
G37*
G36*
X152661Y47875D02*
X151617Y47738D01*
X150644Y47335D01*
X149809Y46694D01*
X149167Y45858D01*
X148965Y45370D01*
X106070D01*
X105878Y45834D01*
X105244Y46660D01*
X104419Y47294D01*
X103457Y47692D01*
X102425Y47828D01*
X101393Y47692D01*
X100432Y47294D01*
X99606Y46660D01*
X98972Y45834D01*
X98574Y44873D01*
X98438Y43841D01*
X98574Y42809D01*
X98972Y41848D01*
X99606Y41022D01*
X100432Y40388D01*
X100896Y40196D01*
Y24374D01*
X101012Y23789D01*
X101344Y23293D01*
X109994Y14643D01*
X109760Y14079D01*
X109618Y12996D01*
X109760Y11913D01*
X110178Y10903D01*
X110844Y10036D01*
X111710Y9371D01*
X112720Y8953D01*
X113803Y8811D01*
X114886Y8953D01*
X115896Y9371D01*
X116763Y10036D01*
X117428Y10903D01*
X117846Y11913D01*
X117989Y12996D01*
X117846Y14079D01*
X117428Y15089D01*
X116763Y15956D01*
X115896Y16621D01*
X114886Y17039D01*
X113803Y17181D01*
X112720Y17039D01*
X112157Y16805D01*
X103955Y25008D01*
Y40196D01*
X104419Y40388D01*
X105244Y41022D01*
X105878Y41848D01*
X106070Y42312D01*
X148965D01*
X149167Y41824D01*
X149809Y40988D01*
X150644Y40347D01*
X151617Y39944D01*
X152661Y39806D01*
X153706Y39944D01*
X154679Y40347D01*
X155514Y40988D01*
X156155Y41824D01*
X156559Y42797D01*
X156696Y43841D01*
X156559Y44885D01*
X156155Y45858D01*
X155514Y46694D01*
X154679Y47335D01*
X153706Y47738D01*
X152661Y47875D01*
D02*
G37*
G36*
X29500Y48461D02*
Y44992D01*
X32969D01*
X32897Y45536D01*
X32494Y46509D01*
X31853Y47345D01*
X31017Y47986D01*
X30044Y48389D01*
X29500Y48461D01*
D02*
G37*
G36*
X28500D02*
X27956Y48389D01*
X26983Y47986D01*
X26147Y47345D01*
X25506Y46509D01*
X25103Y45536D01*
X25031Y44992D01*
X28500D01*
Y48461D01*
D02*
G37*
G36*
X87874Y43622D02*
X84618D01*
Y41055D01*
X87874D01*
Y43622D01*
D02*
G37*
G36*
X83618D02*
X80362D01*
Y41055D01*
X83618D01*
Y43622D01*
D02*
G37*
G36*
X32969Y43992D02*
X29500D01*
Y40523D01*
X30044Y40595D01*
X31017Y40998D01*
X31853Y41639D01*
X32494Y42475D01*
X32897Y43448D01*
X32969Y43992D01*
D02*
G37*
G36*
X28500D02*
X25031D01*
X25103Y43448D01*
X25506Y42475D01*
X26147Y41639D01*
X26983Y40998D01*
X27956Y40595D01*
X28500Y40523D01*
Y43992D01*
D02*
G37*
G36*
X212661Y47875D02*
X211617Y47738D01*
X210644Y47335D01*
X209809Y46694D01*
X209167Y45858D01*
X208764Y44885D01*
X208627Y43841D01*
X208764Y42797D01*
X209167Y41824D01*
X209809Y40988D01*
X210644Y40347D01*
X211617Y39944D01*
X212661Y39806D01*
X213706Y39944D01*
X214679Y40347D01*
X215514Y40988D01*
X216155Y41824D01*
X216357Y42312D01*
X264568D01*
X264760Y41848D01*
X265393Y41022D01*
X266219Y40388D01*
X267181Y39990D01*
X268213Y39854D01*
X269245Y39990D01*
X270206Y40388D01*
X271032Y41022D01*
X271665Y41848D01*
X272064Y42809D01*
X272200Y43841D01*
X272064Y44873D01*
X271665Y45834D01*
X271032Y46660D01*
X270206Y47294D01*
X269245Y47692D01*
X268213Y47828D01*
X267181Y47692D01*
X266219Y47294D01*
X265393Y46660D01*
X264760Y45834D01*
X264568Y45370D01*
X216357D01*
X216155Y45858D01*
X215514Y46694D01*
X214679Y47335D01*
X213706Y47738D01*
X212661Y47875D01*
D02*
G37*
G36*
X87874Y40055D02*
X84618D01*
Y37488D01*
X87874D01*
Y40055D01*
D02*
G37*
G36*
X83618D02*
X80362D01*
Y37488D01*
X83618D01*
Y40055D01*
D02*
G37*
G36*
X104303Y17116D02*
Y13496D01*
X107923D01*
X107846Y14079D01*
X107428Y15089D01*
X106763Y15956D01*
X105896Y16621D01*
X104886Y17039D01*
X104303Y17116D01*
D02*
G37*
G36*
X103303D02*
X102720Y17039D01*
X101710Y16621D01*
X100844Y15956D01*
X100179Y15089D01*
X99760Y14079D01*
X99684Y13496D01*
X103303D01*
Y17116D01*
D02*
G37*
G36*
X107923Y12496D02*
X104303D01*
Y8877D01*
X104886Y8953D01*
X105896Y9371D01*
X106763Y10036D01*
X107428Y10903D01*
X107846Y11913D01*
X107923Y12496D01*
D02*
G37*
G36*
X103303D02*
X99684D01*
X99760Y11913D01*
X100179Y10903D01*
X100844Y10036D01*
X101710Y9371D01*
X102720Y8953D01*
X103303Y8877D01*
Y12496D01*
D02*
G37*
G36*
X123803Y17181D02*
X122720Y17039D01*
X121710Y16621D01*
X120844Y15956D01*
X120178Y15089D01*
X119760Y14079D01*
X119618Y12996D01*
X119760Y11913D01*
X120178Y10903D01*
X120844Y10036D01*
X121710Y9371D01*
X122720Y8953D01*
X123803Y8811D01*
X124886Y8953D01*
X125896Y9371D01*
X126763Y10036D01*
X127428Y10903D01*
X127846Y11913D01*
X127989Y12996D01*
X127846Y14079D01*
X127428Y15089D01*
X126763Y15956D01*
X125896Y16621D01*
X124886Y17039D01*
X123803Y17181D01*
D02*
G37*
%LPD*%
G36*
X59971Y305675D02*
Y248743D01*
X58036Y246809D01*
X57648Y247128D01*
X57913Y247525D01*
X58029Y248110D01*
Y304804D01*
X58517Y305006D01*
X59353Y305647D01*
X59497Y305835D01*
X59971Y305675D01*
D02*
G37*
D12*
X104500Y317636D02*
X104932Y318068D01*
X102425Y183841D02*
X152661D01*
X268213Y203841D02*
X280000D01*
X289772Y194069D01*
Y168728D02*
Y194069D01*
Y168728D02*
X300500Y158000D01*
X268213Y183841D02*
X268588Y183466D01*
X268963Y183841D01*
X275659D02*
X281500Y178000D01*
X268963Y183841D02*
X275659D01*
X281500Y110500D02*
Y178000D01*
Y110500D02*
X300500Y91500D01*
X330500Y101500D02*
X347500D01*
X353000Y96000D01*
X348500Y81500D02*
X353000Y86000D01*
X330500Y81500D02*
X348500D01*
Y71500D02*
X353000Y76000D01*
X330500Y71500D02*
X348500D01*
X289138Y213094D02*
X298234Y203998D01*
X289138Y213094D02*
Y213784D01*
X298234Y203998D02*
X332602D01*
X104500Y318500D02*
X104932Y318068D01*
X164842Y317841D02*
X177661D01*
X164842Y317841D02*
X164842Y317841D01*
X157785Y318500D02*
X158444Y317841D01*
X125374Y318500D02*
X125579Y318705D01*
X124715Y317841D02*
X125374Y318500D01*
X157785D01*
X124500D02*
X125374D01*
X47016Y241657D02*
Y253841D01*
X57000Y203158D02*
Y206656D01*
Y203158D02*
X57016Y203142D01*
Y206672D02*
Y213276D01*
X57000Y206656D02*
X57016Y206672D01*
X84002Y175417D02*
X102425Y193841D01*
X29000Y175417D02*
X84002D01*
X24000Y180260D02*
X29000Y185260D01*
X24000Y153975D02*
Y180260D01*
Y153975D02*
X44134Y133841D01*
X102425D01*
X104500Y318500D02*
Y319483D01*
X61500Y248110D02*
Y318500D01*
X57016Y243626D02*
X61500Y248110D01*
X57016Y241657D02*
Y243626D01*
X52016D02*
X56500Y248110D01*
X52016Y242642D02*
Y243626D01*
X56500Y248110D02*
Y308500D01*
X109500Y307147D02*
Y308500D01*
X57016Y213276D02*
Y219413D01*
X29000Y185260D02*
X57016Y213276D01*
X82740Y163841D02*
X102425D01*
X74632Y155732D02*
X82740Y163841D01*
X28606Y155732D02*
X74632D01*
X212661Y273841D02*
X268213D01*
Y213841D02*
X288490D01*
X86087Y53841D02*
X102425D01*
X29494D02*
X86087D01*
X84118Y51872D02*
X86087Y53841D01*
X84118Y47839D02*
Y51872D01*
X102425Y24374D02*
Y43841D01*
Y24374D02*
X113803Y12996D01*
X29000Y90493D02*
X44748D01*
X71400Y63841D01*
X102425D01*
X29000Y54335D02*
X29494Y53841D01*
X49097Y127169D02*
X102425Y73841D01*
X29000Y127169D02*
X49097D01*
X29000Y116421D02*
Y117327D01*
X47016Y219413D02*
Y221382D01*
X59475Y233841D01*
X102425D01*
Y263841D02*
X152661D01*
X102425Y253841D02*
X152661D01*
X102425Y243841D02*
X152661D01*
X102425Y233841D02*
X152661D01*
X102425Y223841D02*
X152661D01*
X102425Y213841D02*
X152661D01*
X102425Y193841D02*
X152661D01*
X102425Y173841D02*
X152661D01*
X102425Y163841D02*
X152661D01*
X102425Y153841D02*
X152661D01*
X102425Y143841D02*
X152661D01*
X102425Y133841D02*
X152661D01*
X102425Y123841D02*
X152661D01*
X102425Y113841D02*
X152661D01*
X102425Y103841D02*
X152661D01*
X102425Y93841D02*
X152661D01*
X102425Y83841D02*
X152661D01*
X102425Y73841D02*
X152661D01*
X102425Y63841D02*
X152661D01*
X102425Y43841D02*
X152661D01*
X212661D02*
X268213D01*
X212661Y53841D02*
X268213D01*
X212661Y63841D02*
X268213D01*
X212661Y73841D02*
X268213D01*
X212661Y83841D02*
X268213D01*
X212661Y93841D02*
X268213D01*
X212661Y103841D02*
X268213D01*
X212661Y113841D02*
X268213D01*
X212661Y123841D02*
X268213D01*
X212661Y133841D02*
X268213D01*
X212661Y143841D02*
X268213D01*
X212661Y153841D02*
X268213D01*
X212661Y163841D02*
X268213D01*
X212661Y173841D02*
X268213D01*
X212661Y183841D02*
X268213D01*
X212661Y193841D02*
X268213D01*
X212661Y203841D02*
X268213D01*
X212661Y213841D02*
X268213D01*
X212661Y223841D02*
X268213D01*
X212661Y233841D02*
X268213D01*
X212661Y243841D02*
X268213D01*
X212661Y253841D02*
X268213D01*
X102425Y53841D02*
X152661D01*
X158444Y317841D02*
X158444Y317841D01*
X163523Y318038D02*
X163720Y317841D01*
X82740Y224236D02*
X102030D01*
X102425Y223841D01*
X77917Y219413D02*
X82740Y224236D01*
X62016Y219413D02*
X77917D01*
D14*
X47016Y261124D02*
D03*
Y253841D02*
D03*
D15*
X62016Y241657D02*
D03*
X57016D02*
D03*
X52016D02*
D03*
X47016D02*
D03*
X62016Y219413D02*
D03*
X57016D02*
D03*
X52016D02*
D03*
X47016D02*
D03*
D16*
X57016Y195858D02*
D03*
Y203142D02*
D03*
X84118Y47839D02*
D03*
Y40555D02*
D03*
D17*
X157558Y317841D02*
D03*
X164842D02*
D03*
D18*
X289138Y213784D02*
D03*
X296421D02*
D03*
D30*
X99083Y324900D02*
X104500Y319483D01*
X47900Y324900D02*
X99083D01*
X41500Y318500D02*
X47900Y324900D01*
X104500Y305900D02*
X111400Y299000D01*
X171500D01*
X196659Y273841D02*
X212661D01*
X171500Y299000D02*
X196659Y273841D01*
D31*
X104500Y305900D02*
Y317636D01*
X232000Y329500D02*
X242000D01*
X232000Y339500D02*
Y349500D01*
Y329500D02*
Y339500D01*
X242000D02*
Y349500D01*
Y329500D02*
Y339500D01*
X212661Y310161D02*
X232000Y329500D01*
X212661Y273841D02*
Y310161D01*
D32*
X104500Y318500D02*
D03*
X114500D02*
D03*
X124500D02*
D03*
X109500Y308500D02*
D03*
X119500D02*
D03*
X97000Y343500D02*
D03*
X137000D02*
D03*
X74000D02*
D03*
X34000D02*
D03*
X56500Y308500D02*
D03*
X46500D02*
D03*
X61500Y318500D02*
D03*
X51500D02*
D03*
X41500D02*
D03*
X332602Y203998D02*
D03*
Y213841D02*
D03*
X29000Y195102D02*
D03*
Y185260D02*
D03*
Y175417D02*
D03*
Y165575D02*
D03*
X28606Y155732D02*
D03*
X212661Y113841D02*
D03*
Y123841D02*
D03*
Y133841D02*
D03*
Y273841D02*
D03*
Y263841D02*
D03*
Y253841D02*
D03*
X152661Y133841D02*
D03*
X212661Y103841D02*
D03*
Y93841D02*
D03*
Y83841D02*
D03*
Y73841D02*
D03*
Y63841D02*
D03*
Y53841D02*
D03*
Y43841D02*
D03*
X152661D02*
D03*
Y53841D02*
D03*
Y63841D02*
D03*
Y73841D02*
D03*
Y83841D02*
D03*
Y93841D02*
D03*
Y103841D02*
D03*
Y113841D02*
D03*
Y123841D02*
D03*
X212661Y243841D02*
D03*
Y233841D02*
D03*
Y223841D02*
D03*
Y213841D02*
D03*
Y203841D02*
D03*
Y193841D02*
D03*
Y183841D02*
D03*
Y173841D02*
D03*
Y163841D02*
D03*
Y153841D02*
D03*
Y143841D02*
D03*
X152661D02*
D03*
Y153841D02*
D03*
Y163841D02*
D03*
Y173841D02*
D03*
Y183841D02*
D03*
Y193841D02*
D03*
Y203841D02*
D03*
Y213841D02*
D03*
Y223841D02*
D03*
Y233841D02*
D03*
Y243841D02*
D03*
Y253841D02*
D03*
Y263841D02*
D03*
Y273841D02*
D03*
X29000Y80650D02*
D03*
Y90493D02*
D03*
X351000Y373500D02*
D03*
X353000Y13000D02*
D03*
X13500Y13000D02*
D03*
X11500Y375000D02*
D03*
X353000Y76000D02*
D03*
Y86000D02*
D03*
Y144000D02*
D03*
Y154000D02*
D03*
X300500Y101500D02*
D03*
Y91500D02*
D03*
Y81500D02*
D03*
Y71500D02*
D03*
X330500D02*
D03*
Y81500D02*
D03*
Y91500D02*
D03*
Y101500D02*
D03*
X300500Y168000D02*
D03*
Y158000D02*
D03*
Y148000D02*
D03*
Y138000D02*
D03*
X330500D02*
D03*
Y148000D02*
D03*
Y158000D02*
D03*
Y168000D02*
D03*
X29000Y54335D02*
D03*
Y44492D02*
D03*
Y127169D02*
D03*
Y117327D02*
D03*
D33*
X129500Y308500D02*
D03*
X66500D02*
D03*
D34*
X204000Y349500D02*
D03*
X214000D02*
D03*
X204000Y339500D02*
D03*
X214000D02*
D03*
X204000Y329500D02*
D03*
X268213Y43841D02*
D03*
Y53841D02*
D03*
Y63841D02*
D03*
Y73841D02*
D03*
Y83841D02*
D03*
Y93841D02*
D03*
Y103841D02*
D03*
Y113841D02*
D03*
Y123841D02*
D03*
Y133841D02*
D03*
Y143841D02*
D03*
Y153841D02*
D03*
Y163841D02*
D03*
Y173841D02*
D03*
Y183841D02*
D03*
Y193841D02*
D03*
Y203841D02*
D03*
Y213841D02*
D03*
Y223841D02*
D03*
Y233841D02*
D03*
Y243841D02*
D03*
Y253841D02*
D03*
Y263841D02*
D03*
X102425Y43841D02*
D03*
Y53841D02*
D03*
Y63841D02*
D03*
Y73841D02*
D03*
Y83841D02*
D03*
Y93841D02*
D03*
Y103841D02*
D03*
Y113841D02*
D03*
Y123841D02*
D03*
Y133841D02*
D03*
Y143841D02*
D03*
Y153841D02*
D03*
Y163841D02*
D03*
Y173841D02*
D03*
Y183841D02*
D03*
Y193841D02*
D03*
Y203841D02*
D03*
Y213841D02*
D03*
Y223841D02*
D03*
Y233841D02*
D03*
Y243841D02*
D03*
Y253841D02*
D03*
Y263841D02*
D03*
X177661Y317841D02*
D03*
Y327841D02*
D03*
X261000Y329500D02*
D03*
X271000Y339500D02*
D03*
X261000D02*
D03*
X271000Y349500D02*
D03*
X261000D02*
D03*
X232000Y329500D02*
D03*
X242000Y339500D02*
D03*
X232000D02*
D03*
X242000Y349500D02*
D03*
X232000D02*
D03*
D35*
X214000Y329500D02*
D03*
X268213Y273841D02*
D03*
X102425D02*
D03*
X177661Y307841D02*
D03*
X271000Y329500D02*
D03*
X242000D02*
D03*
D36*
X353000Y96000D02*
D03*
Y164000D02*
D03*
D37*
X103803Y12996D02*
D03*
X113803D02*
D03*
X123803D02*
D03*
M02*
