M48
;Layer_Color=9474304
;FILE_FORMAT=2:5
INCH,TZ
;TYPE=PLATED
T1F00S00C0.01181
T2F00S00C0.02800
T3F00S00C0.03000
T4F00S00C0.03504
T5F00S00C0.03543
T6F00S00C0.03937
T7F00S00C0.04000
T8F00S00C0.04016
T9F00S00C0.15748
;TYPE=NON_PLATED
T10F00S00C0.12795
%
T01
X75411Y306395
X89000Y305198
T02
X97325Y233559
T03
X257874Y106939
Y116939
Y126939
Y136939
X287874
Y126939
Y116939
Y106939
X286221Y182843
Y192842
Y202842
Y212842
X256221
Y202842
Y192842
Y182843
T04
X102592Y296870
X112592
X122592
X117592Y306870
X107592
X97592
X165732Y307370
X175732
X185732
X190732Y297370
X180732
X170732
T05
X73847Y99621
X126258Y103277
Y93277
Y83277
Y73277
Y63277
Y53277
Y43277
X235933Y43965
Y53965
Y63965
Y73965
Y83965
Y93965
X270532Y55228
X280374
X235933Y103965
Y113965
Y123965
Y133965
Y143965
Y153965
Y163965
Y173965
Y183965
Y193965
Y203965
Y213965
Y223965
Y233965
Y243965
Y253965
X287402Y255906
Y246063
X126258Y243277
Y233277
Y223277
Y213277
Y203277
Y193277
Y183277
Y173277
Y163277
Y153277
Y143277
Y133277
Y123277
Y113277
Y253277
X73657Y233526
Y223684
Y213841
Y203998
Y194156
X73335Y172707
Y162865
X73657Y141651
Y131808
X73847Y109463
X126258Y263277
Y273277
X221682Y310051
Y320051
Y330051
X240000
X250000
Y340051
X240000
Y350051
X250000
X266153
Y340051
Y330051
X276153
Y340051
Y350051
X292362
Y340051
Y330051
X302362
Y340051
Y350051
X235933Y273965
Y263965
T06
X88976Y49213
X98976
X108976
T07
X152661Y43841
Y53841
Y63841
Y73841
Y83841
Y93841
X212661
Y83841
Y73841
Y63841
Y53841
Y43841
Y103841
Y113841
Y123841
Y133841
Y143841
Y153841
Y163841
Y173841
Y183841
Y193841
Y203841
Y213841
Y223841
Y233841
Y243841
Y253841
X152661
Y243841
Y233841
Y223841
Y213841
Y203841
Y193841
Y183841
Y173841
Y163841
Y153841
Y143841
Y133841
Y123841
Y113841
Y103841
Y263841
Y273841
X212661
Y263841
T08
X307874Y112343
Y122343
Y132343
X312992Y182913
Y192913
Y202913
T09
X66929Y41384
X320539Y42577
X68898Y354331
X320866Y353150
T10
X90092Y331870
X130092
X158232Y332370
X198232
M30
