%TF.GenerationSoftware,Altium Limited,Altium Designer,19.1.8 (144)*%
G04 Layer_Color=255*
%FSLAX26Y26*%
%MOIN*%
%TF.FileFunction,Pads,Top*%
%TF.Part,Single*%
G01*
G75*
%TA.AperFunction,SMDPad,CuDef*%
%ADD10R,0.051181X0.041339*%
%ADD11O,0.025591X0.064961*%
%ADD12R,0.055118X0.041339*%
%ADD13R,0.041339X0.051181*%
%ADD14R,0.041339X0.055118*%
%TA.AperFunction,ComponentPad*%
%ADD18C,0.060000*%
%ADD19R,0.060000X0.060000*%
%ADD20C,0.059055*%
%ADD21R,0.059055X0.059055*%
%TA.AperFunction,ViaPad*%
%ADD22C,0.060000*%
%TA.AperFunction,ComponentPad*%
%ADD23R,0.060000X0.060000*%
%ADD24C,0.062992*%
D10*
X470161Y2611244D02*
D03*
Y2538410D02*
D03*
D11*
X620161Y2416575D02*
D03*
X570161D02*
D03*
X520161D02*
D03*
X470161D02*
D03*
X620161Y2194134D02*
D03*
X570161D02*
D03*
X520161D02*
D03*
X470161D02*
D03*
D12*
X570161Y1958583D02*
D03*
Y2031417D02*
D03*
X841181Y478386D02*
D03*
Y405551D02*
D03*
D13*
X1575584Y3178409D02*
D03*
X1648419D02*
D03*
D14*
X2891378Y2137835D02*
D03*
X2964213D02*
D03*
D18*
X1045000Y3185000D02*
D03*
X1145000D02*
D03*
X1245000D02*
D03*
X1095000Y3085000D02*
D03*
X1195000D02*
D03*
X970000Y3435000D02*
D03*
X1370000D02*
D03*
X740000D02*
D03*
X340000D02*
D03*
X565000Y3085000D02*
D03*
X465000D02*
D03*
X615000Y3185000D02*
D03*
X515000D02*
D03*
X415000D02*
D03*
X3326023Y2039984D02*
D03*
Y2138410D02*
D03*
X290000Y1951024D02*
D03*
Y1852598D02*
D03*
Y1754173D02*
D03*
Y1655748D02*
D03*
X286063Y1557323D02*
D03*
X2126614Y1138409D02*
D03*
Y1238409D02*
D03*
Y1338409D02*
D03*
Y2738410D02*
D03*
Y2638410D02*
D03*
Y2538410D02*
D03*
X1526614Y1338409D02*
D03*
X2126614Y1038409D02*
D03*
Y938409D02*
D03*
Y838409D02*
D03*
Y738409D02*
D03*
Y638409D02*
D03*
Y538409D02*
D03*
Y438409D02*
D03*
X1526614D02*
D03*
Y538409D02*
D03*
Y638409D02*
D03*
Y738409D02*
D03*
Y838409D02*
D03*
Y938409D02*
D03*
Y1038409D02*
D03*
Y1138409D02*
D03*
Y1238409D02*
D03*
X2126614Y2438410D02*
D03*
Y2338410D02*
D03*
Y2238410D02*
D03*
Y2138410D02*
D03*
Y2038409D02*
D03*
Y1938409D02*
D03*
Y1838409D02*
D03*
Y1738409D02*
D03*
Y1638409D02*
D03*
Y1538409D02*
D03*
Y1438409D02*
D03*
X1526614D02*
D03*
Y1538409D02*
D03*
Y1638409D02*
D03*
Y1738409D02*
D03*
Y1838409D02*
D03*
Y1938409D02*
D03*
Y2038409D02*
D03*
Y2138410D02*
D03*
Y2238410D02*
D03*
Y2338410D02*
D03*
Y2438410D02*
D03*
Y2538410D02*
D03*
Y2638410D02*
D03*
Y2738410D02*
D03*
X290000Y806501D02*
D03*
Y904926D02*
D03*
X3530000Y760000D02*
D03*
Y860000D02*
D03*
Y1440000D02*
D03*
Y1540000D02*
D03*
X3005000Y1015000D02*
D03*
Y915000D02*
D03*
Y815000D02*
D03*
Y715000D02*
D03*
X3305000D02*
D03*
Y815000D02*
D03*
Y915000D02*
D03*
Y1015000D02*
D03*
X3005000Y1680000D02*
D03*
Y1580000D02*
D03*
Y1480000D02*
D03*
Y1380000D02*
D03*
X3305000D02*
D03*
Y1480000D02*
D03*
Y1580000D02*
D03*
Y1680000D02*
D03*
X290000Y543346D02*
D03*
Y444921D02*
D03*
Y1271693D02*
D03*
Y1173268D02*
D03*
D19*
X1295000Y3085000D02*
D03*
X665000D02*
D03*
D20*
X2040000Y3495000D02*
D03*
X2140000D02*
D03*
X2040000Y3395000D02*
D03*
X2140000D02*
D03*
X2040000Y3295000D02*
D03*
X2682126Y438409D02*
D03*
Y538409D02*
D03*
Y638409D02*
D03*
Y738409D02*
D03*
Y838409D02*
D03*
Y938409D02*
D03*
Y1038409D02*
D03*
Y1138409D02*
D03*
Y1238409D02*
D03*
Y1338409D02*
D03*
Y1438409D02*
D03*
Y1538409D02*
D03*
Y1638409D02*
D03*
Y1738409D02*
D03*
Y1838409D02*
D03*
Y1938409D02*
D03*
Y2038409D02*
D03*
Y2138410D02*
D03*
Y2238410D02*
D03*
Y2338410D02*
D03*
Y2438410D02*
D03*
Y2538410D02*
D03*
Y2638410D02*
D03*
X1024252Y438409D02*
D03*
Y538409D02*
D03*
Y638409D02*
D03*
Y738409D02*
D03*
Y838409D02*
D03*
Y938409D02*
D03*
Y1038409D02*
D03*
Y1138409D02*
D03*
Y1238409D02*
D03*
Y1338409D02*
D03*
Y1438409D02*
D03*
Y1538409D02*
D03*
Y1638409D02*
D03*
Y1738409D02*
D03*
Y1838409D02*
D03*
Y1938409D02*
D03*
Y2038409D02*
D03*
Y2138410D02*
D03*
Y2238410D02*
D03*
Y2338410D02*
D03*
Y2438410D02*
D03*
Y2538410D02*
D03*
Y2638410D02*
D03*
X1776614Y3178408D02*
D03*
Y3278408D02*
D03*
X2610000Y3295000D02*
D03*
X2710000Y3395000D02*
D03*
X2610000D02*
D03*
X2710000Y3495000D02*
D03*
X2610000D02*
D03*
X2320000Y3295000D02*
D03*
X2420000Y3395000D02*
D03*
X2320000D02*
D03*
X2420000Y3495000D02*
D03*
X2320000D02*
D03*
D21*
X2140000Y3295000D02*
D03*
X2682126Y2738410D02*
D03*
X1024252D02*
D03*
X1776614Y3078408D02*
D03*
X2710000Y3295000D02*
D03*
X2420000D02*
D03*
D22*
X3510000Y3735000D02*
D03*
X3529996Y130000D02*
D03*
X135000Y130000D02*
D03*
X115000Y3750000D02*
D03*
D23*
X3530000Y960000D02*
D03*
Y1640000D02*
D03*
D24*
X1038032Y129961D02*
D03*
X1138032D02*
D03*
X1238032D02*
D03*
%TF.MD5,099f8d93c87f4a654806dd8cf5e93e96*%
M02*
