G04*
G04 #@! TF.GenerationSoftware,Altium Limited,Altium Designer,20.0.12 (288)*
G04*
G04 Layer_Color=65535*
%FSLAX25Y25*%
%MOIN*%
G70*
G01*
G75*
%ADD10C,0.02362*%
%ADD11C,0.00984*%
%ADD12C,0.01000*%
%ADD13C,0.00787*%
G36*
X259677Y310144D02*
X261430D01*
Y309852D01*
X263184D01*
Y309560D01*
X264937D01*
Y309267D01*
X266691D01*
Y308975D01*
X268445D01*
Y308683D01*
X266691D01*
Y308391D01*
X264937D01*
Y308098D01*
X263184D01*
Y307806D01*
X261430D01*
Y307514D01*
X259677D01*
Y307222D01*
X259092D01*
Y307514D01*
X257338D01*
Y307806D01*
X255585D01*
Y308098D01*
X253831D01*
Y308391D01*
X252078D01*
Y308683D01*
X250324D01*
Y308975D01*
X252078D01*
Y309267D01*
X253831D01*
Y309560D01*
X255585D01*
Y309852D01*
X257338D01*
Y310144D01*
X259092D01*
Y310437D01*
X259677D01*
Y310144D01*
D02*
G37*
G36*
X275751Y303422D02*
X275459D01*
Y303130D01*
X275167D01*
Y302837D01*
X274875D01*
Y302545D01*
X274583D01*
Y302253D01*
X274290D01*
Y301961D01*
Y301668D01*
X273998D01*
Y301376D01*
X273706D01*
Y301084D01*
X273413D01*
Y300792D01*
X273121D01*
Y300499D01*
X272829D01*
Y300207D01*
Y299915D01*
X272537D01*
Y299623D01*
X272244D01*
Y299330D01*
X271952D01*
Y299038D01*
X271660D01*
Y298746D01*
X271368D01*
Y298453D01*
Y298161D01*
X271075D01*
Y297869D01*
X270783D01*
Y297577D01*
X270491D01*
Y297284D01*
X270198D01*
Y296992D01*
X269906D01*
Y296700D01*
Y296408D01*
X269614D01*
Y296115D01*
X269322D01*
Y295823D01*
X269029D01*
Y295531D01*
Y295238D01*
Y294946D01*
X268737D01*
Y294654D01*
Y294362D01*
X268445D01*
Y294069D01*
Y293777D01*
Y293485D01*
X268152D01*
Y293193D01*
Y292900D01*
X267860D01*
Y292608D01*
Y292316D01*
Y292023D01*
X267568D01*
Y291731D01*
Y291439D01*
X267276D01*
Y291147D01*
Y290854D01*
Y290562D01*
X266983D01*
Y290270D01*
Y289978D01*
X266691D01*
Y289685D01*
Y289393D01*
Y289101D01*
X266399D01*
Y288808D01*
Y288516D01*
X266107D01*
Y288224D01*
Y287932D01*
Y287639D01*
X265814D01*
Y287347D01*
Y287055D01*
X265522D01*
Y286763D01*
Y286470D01*
Y286178D01*
X265230D01*
Y285886D01*
Y285594D01*
X264937D01*
Y285301D01*
Y285009D01*
Y284717D01*
X264645D01*
Y284424D01*
Y284132D01*
X264353D01*
Y283840D01*
Y283548D01*
Y283255D01*
X264061D01*
Y283548D01*
Y283840D01*
Y284132D01*
Y284424D01*
Y284717D01*
Y285009D01*
X264353D01*
Y285301D01*
Y285594D01*
Y285886D01*
Y286178D01*
Y286470D01*
Y286763D01*
X264645D01*
Y287055D01*
Y287347D01*
Y287639D01*
Y287932D01*
Y288224D01*
Y288516D01*
X264937D01*
Y288808D01*
Y289101D01*
Y289393D01*
Y289685D01*
Y289978D01*
X265230D01*
Y290270D01*
Y290562D01*
Y290854D01*
Y291147D01*
Y291439D01*
Y291731D01*
X265522D01*
Y292023D01*
Y292316D01*
Y292608D01*
Y292900D01*
Y293193D01*
Y293485D01*
X265814D01*
Y293777D01*
Y294069D01*
Y294362D01*
Y294654D01*
Y294946D01*
Y295238D01*
X266107D01*
Y295531D01*
Y295823D01*
Y296115D01*
Y296408D01*
Y296700D01*
Y296992D01*
X266399D01*
Y297284D01*
Y297577D01*
Y297869D01*
Y298161D01*
X266983D01*
Y298453D01*
X267276D01*
Y298746D01*
X267860D01*
Y299038D01*
X268152D01*
Y299330D01*
X268737D01*
Y299623D01*
X269029D01*
Y299915D01*
X269614D01*
Y300207D01*
X270198D01*
Y300499D01*
X270491D01*
Y300792D01*
X271075D01*
Y301084D01*
X271368D01*
Y301376D01*
X271952D01*
Y301668D01*
X272244D01*
Y301961D01*
X272829D01*
Y302253D01*
X273413D01*
Y302545D01*
X273706D01*
Y302837D01*
X274290D01*
Y303130D01*
X274583D01*
Y303422D01*
X275167D01*
Y303714D01*
X275751D01*
Y303422D01*
D02*
G37*
G36*
X243602D02*
X244186D01*
Y303130D01*
X244479D01*
Y302837D01*
X245063D01*
Y302545D01*
X245355D01*
Y302253D01*
X245940D01*
Y301961D01*
X246232D01*
Y301668D01*
X246817D01*
Y301376D01*
X247401D01*
Y301084D01*
X247693D01*
Y300792D01*
X248278D01*
Y300499D01*
X248570D01*
Y300207D01*
X249155D01*
Y299915D01*
X249447D01*
Y299623D01*
X250032D01*
Y299330D01*
X250616D01*
Y299038D01*
X250908D01*
Y298746D01*
X251493D01*
Y298453D01*
X251785D01*
Y298161D01*
X252370D01*
Y297869D01*
Y297577D01*
Y297284D01*
Y296992D01*
X252662D01*
Y296700D01*
Y296408D01*
Y296115D01*
Y295823D01*
Y295531D01*
Y295238D01*
X252954D01*
Y294946D01*
Y294654D01*
Y294362D01*
Y294069D01*
Y293777D01*
Y293485D01*
X253247D01*
Y293193D01*
Y292900D01*
Y292608D01*
Y292316D01*
Y292023D01*
Y291731D01*
X253539D01*
Y291439D01*
Y291147D01*
Y290854D01*
Y290562D01*
Y290270D01*
Y289978D01*
X253831D01*
Y289685D01*
Y289393D01*
Y289101D01*
Y288808D01*
Y288516D01*
Y288224D01*
X254123D01*
Y287932D01*
Y287639D01*
Y287347D01*
Y287055D01*
Y286763D01*
Y286470D01*
X254416D01*
Y286178D01*
Y285886D01*
Y285594D01*
Y285301D01*
Y285009D01*
Y284717D01*
X254708D01*
Y284424D01*
Y284132D01*
Y283840D01*
Y283548D01*
Y283255D01*
X254416D01*
Y283548D01*
Y283840D01*
X254123D01*
Y284132D01*
Y284424D01*
Y284717D01*
X253831D01*
Y285009D01*
Y285301D01*
X253539D01*
Y285594D01*
Y285886D01*
Y286178D01*
X253247D01*
Y286470D01*
Y286763D01*
X252954D01*
Y287055D01*
Y287347D01*
Y287639D01*
X252662D01*
Y287932D01*
Y288224D01*
X252370D01*
Y288516D01*
Y288808D01*
Y289101D01*
X252078D01*
Y289393D01*
Y289685D01*
X251785D01*
Y289978D01*
Y290270D01*
Y290562D01*
X251493D01*
Y290854D01*
Y291147D01*
X251201D01*
Y291439D01*
Y291731D01*
Y292023D01*
X250908D01*
Y292316D01*
Y292608D01*
X250616D01*
Y292900D01*
Y293193D01*
Y293485D01*
X250324D01*
Y293777D01*
Y294069D01*
X250032D01*
Y294362D01*
Y294654D01*
Y294946D01*
X249739D01*
Y295238D01*
Y295531D01*
X249447D01*
Y295823D01*
Y296115D01*
X249155D01*
Y296408D01*
X248863D01*
Y296700D01*
Y296992D01*
X248570D01*
Y297284D01*
X248278D01*
Y297577D01*
X247986D01*
Y297869D01*
X247693D01*
Y298161D01*
X247401D01*
Y298453D01*
Y298746D01*
X247109D01*
Y299038D01*
X246817D01*
Y299330D01*
X246524D01*
Y299623D01*
X246232D01*
Y299915D01*
X245940D01*
Y300207D01*
Y300499D01*
X245648D01*
Y300792D01*
X245355D01*
Y301084D01*
X245063D01*
Y301376D01*
X244771D01*
Y301668D01*
X244479D01*
Y301961D01*
Y302253D01*
X244186D01*
Y302545D01*
X243894D01*
Y302837D01*
X243602D01*
Y303130D01*
X243309D01*
Y303422D01*
X243017D01*
Y303714D01*
X243602D01*
Y303422D01*
D02*
G37*
G36*
X274875Y306929D02*
X274290D01*
Y306637D01*
X273998D01*
Y306345D01*
X273413D01*
Y306052D01*
X273121D01*
Y305760D01*
X272537D01*
Y305468D01*
X272244D01*
Y305176D01*
X271660D01*
Y304883D01*
X271368D01*
Y304591D01*
X270783D01*
Y304299D01*
X270491D01*
Y304007D01*
X269906D01*
Y303714D01*
X269322D01*
Y303422D01*
X269029D01*
Y303130D01*
X268445D01*
Y302837D01*
X268152D01*
Y302545D01*
X267568D01*
Y302253D01*
X267276D01*
Y301961D01*
X266691D01*
Y301668D01*
X266399D01*
Y301376D01*
X265814D01*
Y301084D01*
X265522D01*
Y300792D01*
X264937D01*
Y300499D01*
X264645D01*
Y300207D01*
X264061D01*
Y299915D01*
Y299623D01*
Y299330D01*
X263768D01*
Y299038D01*
Y298746D01*
Y298453D01*
Y298161D01*
Y297869D01*
Y297577D01*
X263476D01*
Y297284D01*
Y296992D01*
Y296700D01*
Y296408D01*
Y296115D01*
Y295823D01*
Y295531D01*
X263184D01*
Y295238D01*
Y294946D01*
Y294654D01*
Y294362D01*
Y294069D01*
Y293777D01*
X262892D01*
Y293485D01*
Y293193D01*
Y292900D01*
Y292608D01*
Y292316D01*
Y292023D01*
X262599D01*
Y291731D01*
Y291439D01*
Y291147D01*
Y290854D01*
Y290562D01*
Y290270D01*
Y289978D01*
X262307D01*
Y289685D01*
Y289393D01*
Y289101D01*
Y288808D01*
Y288516D01*
Y288224D01*
X262015D01*
Y287932D01*
Y287639D01*
Y287347D01*
Y287055D01*
Y286763D01*
Y286470D01*
Y286178D01*
X261722D01*
Y285886D01*
Y285594D01*
Y285301D01*
Y285009D01*
Y284717D01*
Y284424D01*
X261430D01*
Y284132D01*
Y283840D01*
Y283548D01*
Y283255D01*
Y282963D01*
Y282671D01*
X261138D01*
Y282379D01*
Y282086D01*
Y281794D01*
Y281502D01*
Y281209D01*
Y280917D01*
Y280625D01*
X260846D01*
Y280333D01*
Y280040D01*
Y279748D01*
Y279456D01*
Y279164D01*
Y278871D01*
X260553D01*
Y279164D01*
Y279456D01*
Y279748D01*
Y280040D01*
Y280333D01*
Y280625D01*
Y280917D01*
Y281209D01*
Y281502D01*
Y281794D01*
Y282086D01*
Y282379D01*
Y282671D01*
Y282963D01*
Y283255D01*
Y283548D01*
Y283840D01*
Y284132D01*
Y284424D01*
Y284717D01*
Y285009D01*
Y285301D01*
Y285594D01*
Y285886D01*
Y286178D01*
Y286470D01*
Y286763D01*
Y287055D01*
Y287347D01*
Y287639D01*
Y287932D01*
Y288224D01*
Y288516D01*
Y288808D01*
Y289101D01*
Y289393D01*
Y289685D01*
Y289978D01*
Y290270D01*
Y290562D01*
Y290854D01*
Y291147D01*
Y291439D01*
Y291731D01*
Y292023D01*
Y292316D01*
Y292608D01*
Y292900D01*
Y293193D01*
Y293485D01*
Y293777D01*
Y294069D01*
Y294362D01*
Y294654D01*
Y294946D01*
Y295238D01*
Y295531D01*
Y295823D01*
Y296115D01*
Y296408D01*
Y296700D01*
Y296992D01*
Y297284D01*
Y297577D01*
Y297869D01*
Y298161D01*
Y298453D01*
Y298746D01*
Y299038D01*
Y299330D01*
Y299623D01*
Y299915D01*
Y300207D01*
Y300499D01*
Y300792D01*
Y301084D01*
Y301376D01*
Y301668D01*
Y301961D01*
Y302253D01*
Y302545D01*
Y302837D01*
Y303130D01*
Y303422D01*
Y303714D01*
Y304007D01*
Y304299D01*
Y304591D01*
Y304883D01*
X260846D01*
Y305176D01*
X262599D01*
Y305468D01*
X264353D01*
Y305760D01*
X266107D01*
Y306052D01*
X267860D01*
Y306345D01*
X269614D01*
Y306637D01*
X271660D01*
Y306929D01*
X273413D01*
Y307222D01*
X274875D01*
Y306929D01*
D02*
G37*
G36*
X245355D02*
X247109D01*
Y306637D01*
X248863D01*
Y306345D01*
X250908D01*
Y306052D01*
X252662D01*
Y305760D01*
X254416D01*
Y305468D01*
X256169D01*
Y305176D01*
X257923D01*
Y304883D01*
X258215D01*
Y304591D01*
Y304299D01*
Y304007D01*
Y303714D01*
Y303422D01*
Y303130D01*
Y302837D01*
Y302545D01*
Y302253D01*
Y301961D01*
Y301668D01*
Y301376D01*
Y301084D01*
Y300792D01*
Y300499D01*
Y300207D01*
Y299915D01*
Y299623D01*
Y299330D01*
Y299038D01*
Y298746D01*
Y298453D01*
Y298161D01*
Y297869D01*
Y297577D01*
Y297284D01*
Y296992D01*
Y296700D01*
Y296408D01*
Y296115D01*
Y295823D01*
Y295531D01*
Y295238D01*
Y294946D01*
Y294654D01*
Y294362D01*
Y294069D01*
Y293777D01*
Y293485D01*
Y293193D01*
Y292900D01*
Y292608D01*
Y292316D01*
Y292023D01*
Y291731D01*
Y291439D01*
Y291147D01*
Y290854D01*
Y290562D01*
Y290270D01*
Y289978D01*
Y289685D01*
Y289393D01*
Y289101D01*
Y288808D01*
Y288516D01*
Y288224D01*
Y287932D01*
Y287639D01*
Y287347D01*
Y287055D01*
Y286763D01*
Y286470D01*
Y286178D01*
Y285886D01*
Y285594D01*
Y285301D01*
Y285009D01*
Y284717D01*
Y284424D01*
Y284132D01*
Y283840D01*
Y283548D01*
Y283255D01*
Y282963D01*
Y282671D01*
Y282379D01*
Y282086D01*
Y281794D01*
Y281502D01*
Y281209D01*
Y280917D01*
Y280625D01*
Y280333D01*
Y280040D01*
Y279748D01*
Y279456D01*
Y279164D01*
Y278871D01*
Y278579D01*
X257923D01*
Y278871D01*
Y279164D01*
Y279456D01*
Y279748D01*
Y280040D01*
Y280333D01*
Y280625D01*
X257631D01*
Y280917D01*
Y281209D01*
Y281502D01*
Y281794D01*
Y282086D01*
Y282379D01*
X257338D01*
Y282671D01*
Y282963D01*
Y283255D01*
Y283548D01*
Y283840D01*
Y284132D01*
Y284424D01*
X257046D01*
Y284717D01*
Y285009D01*
Y285301D01*
Y285594D01*
Y285886D01*
Y286178D01*
X256754D01*
Y286470D01*
Y286763D01*
Y287055D01*
Y287347D01*
Y287639D01*
Y287932D01*
X256462D01*
Y288224D01*
Y288516D01*
Y288808D01*
Y289101D01*
Y289393D01*
Y289685D01*
Y289978D01*
X256169D01*
Y290270D01*
Y290562D01*
Y290854D01*
Y291147D01*
Y291439D01*
Y291731D01*
X255877D01*
Y292023D01*
Y292316D01*
Y292608D01*
Y292900D01*
Y293193D01*
Y293485D01*
Y293777D01*
X255585D01*
Y294069D01*
Y294362D01*
Y294654D01*
Y294946D01*
Y295238D01*
Y295531D01*
X255293D01*
Y295823D01*
Y296115D01*
Y296408D01*
Y296700D01*
Y296992D01*
Y297284D01*
X255000D01*
Y297577D01*
Y297869D01*
Y298161D01*
Y298453D01*
Y298746D01*
Y299038D01*
Y299330D01*
X254708D01*
Y299623D01*
Y299915D01*
Y300207D01*
X254123D01*
Y300499D01*
X253831D01*
Y300792D01*
X253247D01*
Y301084D01*
X252954D01*
Y301376D01*
X252370D01*
Y301668D01*
X252078D01*
Y301961D01*
X251493D01*
Y302253D01*
X251201D01*
Y302545D01*
X250616D01*
Y302837D01*
X250032D01*
Y303130D01*
X249739D01*
Y303422D01*
X249155D01*
Y303714D01*
X248863D01*
Y304007D01*
X248278D01*
Y304299D01*
X247986D01*
Y304591D01*
X247401D01*
Y304883D01*
X247109D01*
Y305176D01*
X246524D01*
Y305468D01*
X246232D01*
Y305760D01*
X245648D01*
Y306052D01*
X245355D01*
Y306345D01*
X244771D01*
Y306637D01*
X244479D01*
Y306929D01*
X243894D01*
Y307222D01*
X245355D01*
Y306929D01*
D02*
G37*
G36*
X308979Y309543D02*
X309053D01*
X309228Y309524D01*
X309423Y309496D01*
X309626Y309450D01*
X309848Y309395D01*
X310061Y309321D01*
X310070D01*
X310089Y309312D01*
X310116Y309302D01*
X310153Y309284D01*
X310255Y309228D01*
X310385Y309163D01*
X310523Y309071D01*
X310671Y308960D01*
X310810Y308840D01*
X310940Y308692D01*
X310958Y308673D01*
X310995Y308618D01*
X311051Y308535D01*
X311125Y308414D01*
X311199Y308266D01*
X311282Y308081D01*
X311365Y307878D01*
X311430Y307646D01*
X310662Y307443D01*
Y307452D01*
X310653Y307462D01*
X310644Y307489D01*
X310634Y307526D01*
X310607Y307610D01*
X310570Y307720D01*
X310514Y307850D01*
X310449Y307970D01*
X310385Y308100D01*
X310301Y308211D01*
X310292Y308220D01*
X310264Y308257D01*
X310209Y308303D01*
X310144Y308368D01*
X310061Y308442D01*
X309950Y308516D01*
X309830Y308590D01*
X309691Y308655D01*
X309672Y308664D01*
X309626Y308682D01*
X309543Y308710D01*
X309432Y308747D01*
X309302Y308775D01*
X309154Y308803D01*
X308988Y308821D01*
X308812Y308830D01*
X308710D01*
X308664Y308821D01*
X308609D01*
X308470Y308812D01*
X308313Y308784D01*
X308137Y308756D01*
X307970Y308710D01*
X307804Y308646D01*
X307785Y308636D01*
X307730Y308618D01*
X307656Y308572D01*
X307563Y308525D01*
X307452Y308451D01*
X307332Y308377D01*
X307221Y308285D01*
X307119Y308183D01*
X307110Y308174D01*
X307073Y308137D01*
X307027Y308072D01*
X306971Y307998D01*
X306907Y307906D01*
X306842Y307794D01*
X306777Y307674D01*
X306712Y307545D01*
Y307536D01*
X306703Y307517D01*
X306694Y307489D01*
X306675Y307443D01*
X306657Y307387D01*
X306638Y307323D01*
X306611Y307249D01*
X306592Y307166D01*
X306546Y306971D01*
X306509Y306749D01*
X306481Y306518D01*
X306472Y306259D01*
Y306250D01*
Y306222D01*
Y306176D01*
X306481Y306120D01*
Y306046D01*
X306490Y305954D01*
X306500Y305861D01*
X306509Y305760D01*
X306546Y305528D01*
X306592Y305288D01*
X306666Y305047D01*
X306759Y304816D01*
Y304807D01*
X306777Y304788D01*
X306786Y304761D01*
X306814Y304724D01*
X306879Y304622D01*
X306981Y304492D01*
X307101Y304353D01*
X307249Y304215D01*
X307425Y304085D01*
X307619Y303965D01*
X307628D01*
X307647Y303956D01*
X307674Y303937D01*
X307721Y303919D01*
X307767Y303900D01*
X307832Y303882D01*
X307980Y303826D01*
X308165Y303780D01*
X308368Y303734D01*
X308590Y303697D01*
X308821Y303688D01*
X308914D01*
X308969Y303697D01*
X309025D01*
X309164Y303715D01*
X309330Y303734D01*
X309506Y303771D01*
X309700Y303826D01*
X309894Y303891D01*
X309904D01*
X309922Y303900D01*
X309941Y303909D01*
X309978Y303928D01*
X310079Y303974D01*
X310190Y304030D01*
X310320Y304095D01*
X310459Y304169D01*
X310588Y304252D01*
X310699Y304344D01*
Y305547D01*
X308812D01*
Y306305D01*
X311532D01*
Y303928D01*
X311522Y303919D01*
X311504Y303909D01*
X311467Y303882D01*
X311421Y303845D01*
X311365Y303808D01*
X311300Y303762D01*
X311217Y303706D01*
X311134Y303650D01*
X310940Y303530D01*
X310718Y303401D01*
X310486Y303280D01*
X310237Y303179D01*
X310227D01*
X310209Y303169D01*
X310172Y303160D01*
X310126Y303142D01*
X310061Y303123D01*
X309987Y303096D01*
X309904Y303077D01*
X309820Y303059D01*
X309617Y303012D01*
X309386Y302966D01*
X309136Y302938D01*
X308877Y302929D01*
X308784D01*
X308720Y302938D01*
X308636D01*
X308535Y302947D01*
X308424Y302966D01*
X308303Y302975D01*
X308035Y303031D01*
X307748Y303096D01*
X307452Y303197D01*
X307304Y303253D01*
X307156Y303327D01*
X307147Y303336D01*
X307119Y303345D01*
X307082Y303373D01*
X307027Y303401D01*
X306962Y303447D01*
X306897Y303493D01*
X306722Y303623D01*
X306537Y303789D01*
X306342Y303993D01*
X306157Y304224D01*
X305991Y304492D01*
Y304502D01*
X305972Y304529D01*
X305954Y304566D01*
X305926Y304631D01*
X305898Y304696D01*
X305871Y304788D01*
X305834Y304881D01*
X305797Y304992D01*
X305760Y305112D01*
X305723Y305251D01*
X305695Y305389D01*
X305667Y305538D01*
X305621Y305861D01*
X305602Y306204D01*
Y306213D01*
Y306250D01*
Y306296D01*
X305612Y306361D01*
Y306444D01*
X305621Y306546D01*
X305639Y306647D01*
X305649Y306768D01*
X305676Y306897D01*
X305695Y307036D01*
X305769Y307332D01*
X305861Y307637D01*
X305991Y307943D01*
X306000Y307952D01*
X306009Y307979D01*
X306028Y308016D01*
X306065Y308072D01*
X306102Y308146D01*
X306148Y308220D01*
X306278Y308396D01*
X306435Y308599D01*
X306629Y308793D01*
X306851Y308988D01*
X306981Y309071D01*
X307110Y309154D01*
X307119Y309163D01*
X307147Y309173D01*
X307184Y309191D01*
X307240Y309219D01*
X307314Y309247D01*
X307397Y309284D01*
X307489Y309321D01*
X307600Y309358D01*
X307721Y309395D01*
X307850Y309422D01*
X307989Y309459D01*
X308137Y309487D01*
X308461Y309534D01*
X308627Y309552D01*
X308923D01*
X308979Y309543D01*
D02*
G37*
G36*
X295945Y303040D02*
X295067D01*
X291718Y308063D01*
Y303040D01*
X290904D01*
Y309441D01*
X291774D01*
X295131Y304409D01*
Y309441D01*
X295945D01*
Y303040D01*
D02*
G37*
G36*
X300071D02*
X299183D01*
X296704Y309441D01*
X297629D01*
X299294Y304788D01*
Y304779D01*
X299303Y304761D01*
X299312Y304733D01*
X299331Y304696D01*
X299340Y304640D01*
X299359Y304585D01*
X299405Y304446D01*
X299460Y304289D01*
X299516Y304113D01*
X299627Y303743D01*
Y303752D01*
X299636Y303771D01*
X299645Y303799D01*
X299655Y303836D01*
X299682Y303937D01*
X299729Y304076D01*
X299775Y304233D01*
X299830Y304409D01*
X299895Y304594D01*
X299969Y304788D01*
X301708Y309441D01*
X302568D01*
X300071Y303040D01*
D02*
G37*
G36*
X313594Y303799D02*
X316749D01*
Y303040D01*
X312743D01*
Y309441D01*
X313594D01*
Y303799D01*
D02*
G37*
G36*
X287084Y309432D02*
X287269Y309422D01*
X287454Y309404D01*
X287639Y309376D01*
X287796Y309349D01*
X287805D01*
X287824Y309339D01*
X287852D01*
X287889Y309321D01*
X287990Y309293D01*
X288120Y309247D01*
X288268Y309182D01*
X288425Y309099D01*
X288582Y309006D01*
X288730Y308886D01*
X288740Y308877D01*
X288749Y308868D01*
X288777Y308840D01*
X288814Y308812D01*
X288906Y308719D01*
X289017Y308590D01*
X289137Y308433D01*
X289267Y308248D01*
X289387Y308035D01*
X289489Y307794D01*
Y307785D01*
X289498Y307767D01*
X289517Y307730D01*
X289526Y307674D01*
X289554Y307610D01*
X289572Y307536D01*
X289591Y307452D01*
X289618Y307350D01*
X289646Y307249D01*
X289665Y307129D01*
X289711Y306870D01*
X289739Y306583D01*
X289748Y306268D01*
Y306259D01*
Y306241D01*
Y306194D01*
Y306148D01*
X289739Y306083D01*
Y306009D01*
X289729Y305834D01*
X289702Y305630D01*
X289674Y305417D01*
X289628Y305195D01*
X289572Y304973D01*
Y304964D01*
X289563Y304945D01*
X289554Y304918D01*
X289544Y304881D01*
X289507Y304779D01*
X289452Y304649D01*
X289396Y304502D01*
X289322Y304353D01*
X289230Y304196D01*
X289137Y304048D01*
X289128Y304030D01*
X289091Y303983D01*
X289036Y303919D01*
X288962Y303836D01*
X288878Y303743D01*
X288777Y303650D01*
X288675Y303549D01*
X288555Y303466D01*
X288536Y303456D01*
X288499Y303429D01*
X288434Y303392D01*
X288342Y303345D01*
X288231Y303290D01*
X288101Y303243D01*
X287953Y303188D01*
X287787Y303142D01*
X287768D01*
X287741Y303133D01*
X287713Y303123D01*
X287620Y303114D01*
X287491Y303096D01*
X287343Y303077D01*
X287167Y303059D01*
X286973Y303049D01*
X286760Y303040D01*
X284457D01*
Y309441D01*
X286917D01*
X287084Y309432D01*
D02*
G37*
G36*
X303045Y300751D02*
X302258D01*
Y301649D01*
X303045D01*
Y300751D01*
D02*
G37*
G36*
X323515Y299984D02*
X323617Y299965D01*
X323737Y299928D01*
X323867Y299882D01*
X324014Y299817D01*
X324172Y299734D01*
X323885Y299012D01*
X323876Y299022D01*
X323839Y299040D01*
X323783Y299068D01*
X323709Y299096D01*
X323626Y299124D01*
X323524Y299151D01*
X323423Y299170D01*
X323321Y299179D01*
X323274D01*
X323228Y299170D01*
X323164Y299161D01*
X323099Y299142D01*
X323015Y299114D01*
X322932Y299077D01*
X322858Y299022D01*
X322849Y299012D01*
X322821Y298994D01*
X322794Y298957D01*
X322747Y298911D01*
X322701Y298846D01*
X322655Y298772D01*
X322608Y298689D01*
X322571Y298587D01*
X322562Y298569D01*
X322553Y298513D01*
X322534Y298430D01*
X322507Y298319D01*
X322479Y298180D01*
X322461Y298023D01*
X322451Y297856D01*
X322442Y297671D01*
Y295248D01*
X321656D01*
Y299891D01*
X322368D01*
Y299188D01*
X322377Y299198D01*
X322414Y299262D01*
X322461Y299345D01*
X322534Y299447D01*
X322608Y299549D01*
X322692Y299660D01*
X322775Y299752D01*
X322858Y299827D01*
X322867Y299836D01*
X322895Y299854D01*
X322951Y299882D01*
X323006Y299910D01*
X323080Y299938D01*
X323173Y299965D01*
X323265Y299984D01*
X323367Y299993D01*
X323432D01*
X323515Y299984D01*
D02*
G37*
G36*
X286108Y295248D02*
X285405D01*
Y295923D01*
X285396Y295914D01*
X285377Y295886D01*
X285349Y295849D01*
X285303Y295803D01*
X285248Y295747D01*
X285183Y295673D01*
X285109Y295608D01*
X285016Y295534D01*
X284915Y295461D01*
X284804Y295396D01*
X284683Y295331D01*
X284554Y295266D01*
X284406Y295220D01*
X284258Y295183D01*
X284091Y295155D01*
X283925Y295146D01*
X283860D01*
X283777Y295155D01*
X283675Y295164D01*
X283555Y295183D01*
X283425Y295211D01*
X283296Y295248D01*
X283157Y295303D01*
X283139Y295312D01*
X283102Y295331D01*
X283037Y295368D01*
X282963Y295414D01*
X282871Y295470D01*
X282787Y295534D01*
X282704Y295608D01*
X282630Y295692D01*
X282621Y295701D01*
X282602Y295738D01*
X282575Y295784D01*
X282538Y295858D01*
X282491Y295941D01*
X282454Y296043D01*
X282417Y296154D01*
X282389Y296274D01*
Y296284D01*
X282380Y296321D01*
X282371Y296376D01*
Y296450D01*
X282362Y296561D01*
X282352Y296681D01*
X282343Y296839D01*
Y297014D01*
Y299891D01*
X283130D01*
Y297310D01*
Y297301D01*
Y297283D01*
Y297255D01*
Y297209D01*
Y297107D01*
X283139Y296977D01*
Y296839D01*
X283148Y296700D01*
X283157Y296580D01*
X283176Y296478D01*
Y296469D01*
X283194Y296432D01*
X283213Y296376D01*
X283241Y296302D01*
X283287Y296228D01*
X283342Y296145D01*
X283407Y296071D01*
X283490Y295997D01*
X283500Y295988D01*
X283537Y295969D01*
X283583Y295941D01*
X283657Y295914D01*
X283740Y295877D01*
X283842Y295849D01*
X283953Y295830D01*
X284082Y295821D01*
X284147D01*
X284212Y295830D01*
X284295Y295840D01*
X284397Y295867D01*
X284508Y295895D01*
X284628Y295941D01*
X284748Y295997D01*
X284767Y296006D01*
X284804Y296034D01*
X284859Y296071D01*
X284924Y296127D01*
X284998Y296200D01*
X285072Y296284D01*
X285137Y296376D01*
X285192Y296487D01*
X285202Y296506D01*
X285211Y296543D01*
X285229Y296617D01*
X285257Y296719D01*
X285285Y296848D01*
X285303Y297005D01*
X285313Y297190D01*
X285322Y297403D01*
Y299891D01*
X286108D01*
Y295248D01*
D02*
G37*
G36*
X310010Y299355D02*
X310019Y299364D01*
X310038Y299382D01*
X310066Y299410D01*
X310112Y299457D01*
X310158Y299503D01*
X310223Y299558D01*
X310306Y299614D01*
X310389Y299678D01*
X310482Y299734D01*
X310583Y299790D01*
X310824Y299891D01*
X310953Y299938D01*
X311092Y299965D01*
X311240Y299984D01*
X311388Y299993D01*
X311472D01*
X311573Y299984D01*
X311694Y299965D01*
X311832Y299947D01*
X311980Y299910D01*
X312128Y299854D01*
X312276Y299790D01*
X312295Y299780D01*
X312341Y299752D01*
X312406Y299706D01*
X312489Y299641D01*
X312572Y299558D01*
X312665Y299466D01*
X312748Y299355D01*
X312822Y299225D01*
X312831Y299207D01*
X312850Y299161D01*
X312877Y299077D01*
X312905Y298957D01*
X312933Y298809D01*
X312961Y298633D01*
X312979Y298421D01*
X312988Y298180D01*
Y295248D01*
X312202D01*
Y298189D01*
Y298199D01*
Y298217D01*
Y298245D01*
Y298282D01*
X312193Y298383D01*
X312175Y298513D01*
X312138Y298652D01*
X312091Y298791D01*
X312027Y298929D01*
X311943Y299040D01*
X311934Y299049D01*
X311897Y299086D01*
X311842Y299133D01*
X311758Y299179D01*
X311656Y299235D01*
X311536Y299271D01*
X311388Y299308D01*
X311222Y299318D01*
X311166D01*
X311102Y299308D01*
X311009Y299299D01*
X310916Y299271D01*
X310806Y299244D01*
X310695Y299198D01*
X310574Y299133D01*
X310565Y299124D01*
X310528Y299096D01*
X310472Y299059D01*
X310408Y299003D01*
X310334Y298929D01*
X310260Y298846D01*
X310195Y298744D01*
X310139Y298633D01*
X310130Y298615D01*
X310121Y298578D01*
X310103Y298504D01*
X310075Y298411D01*
X310047Y298291D01*
X310029Y298143D01*
X310019Y297976D01*
X310010Y297782D01*
Y295248D01*
X309224D01*
Y301649D01*
X310010D01*
Y299355D01*
D02*
G37*
G36*
X303045Y295248D02*
X302258D01*
Y299891D01*
X303045D01*
Y295248D01*
D02*
G37*
G36*
X301259Y300890D02*
X297781D01*
Y298911D01*
X300788D01*
Y298152D01*
X297781D01*
Y295248D01*
X296931D01*
Y301649D01*
X301259D01*
Y300890D01*
D02*
G37*
G36*
X293082Y295248D02*
X292296D01*
Y301649D01*
X293082D01*
Y295248D01*
D02*
G37*
G36*
X281363Y300890D02*
X277885D01*
Y298911D01*
X280891D01*
Y298152D01*
X277885D01*
Y295248D01*
X277034D01*
Y301649D01*
X281363D01*
Y300890D01*
D02*
G37*
G36*
X315116Y299891D02*
X315912D01*
Y299281D01*
X315116D01*
Y296552D01*
Y296533D01*
Y296497D01*
Y296441D01*
X315125Y296376D01*
X315135Y296228D01*
X315144Y296164D01*
X315153Y296117D01*
X315162Y296099D01*
X315190Y296062D01*
X315227Y296016D01*
X315292Y295969D01*
X315310Y295960D01*
X315356Y295941D01*
X315440Y295923D01*
X315560Y295914D01*
X315652D01*
X315699Y295923D01*
X315763D01*
X315838Y295932D01*
X315912Y295941D01*
X316013Y295248D01*
X315995D01*
X315958Y295238D01*
X315893Y295229D01*
X315810Y295220D01*
X315717Y295201D01*
X315616Y295192D01*
X315412Y295183D01*
X315338D01*
X315264Y295192D01*
X315172Y295201D01*
X315060Y295211D01*
X314949Y295238D01*
X314848Y295266D01*
X314746Y295312D01*
X314737Y295322D01*
X314709Y295340D01*
X314672Y295368D01*
X314616Y295414D01*
X314570Y295461D01*
X314515Y295525D01*
X314459Y295590D01*
X314422Y295673D01*
Y295683D01*
X314404Y295720D01*
X314394Y295784D01*
X314376Y295877D01*
X314357Y295997D01*
X314348Y296071D01*
Y296154D01*
X314339Y296256D01*
X314330Y296358D01*
Y296469D01*
Y296598D01*
Y299281D01*
X313747D01*
Y299891D01*
X314330D01*
Y301038D01*
X315116Y301510D01*
Y299891D01*
D02*
G37*
G36*
X318742Y299984D02*
X318816Y299974D01*
X318909Y299956D01*
X319010Y299938D01*
X319130Y299910D01*
X319241Y299882D01*
X319371Y299836D01*
X319491Y299790D01*
X319621Y299725D01*
X319750Y299651D01*
X319880Y299568D01*
X320000Y299466D01*
X320111Y299355D01*
X320120Y299345D01*
X320139Y299327D01*
X320166Y299290D01*
X320203Y299235D01*
X320250Y299170D01*
X320296Y299096D01*
X320352Y299003D01*
X320407Y298892D01*
X320462Y298772D01*
X320518Y298642D01*
X320564Y298495D01*
X320610Y298337D01*
X320648Y298162D01*
X320675Y297976D01*
X320694Y297782D01*
X320703Y297569D01*
Y297560D01*
Y297523D01*
Y297459D01*
X320694Y297366D01*
X317225D01*
Y297357D01*
Y297329D01*
X317234Y297292D01*
Y297236D01*
X317244Y297172D01*
X317262Y297098D01*
X317290Y296931D01*
X317345Y296746D01*
X317419Y296543D01*
X317521Y296358D01*
X317651Y296191D01*
X317660D01*
X317669Y296173D01*
X317724Y296127D01*
X317808Y296062D01*
X317919Y295997D01*
X318067Y295923D01*
X318233Y295858D01*
X318418Y295812D01*
X318520Y295803D01*
X318631Y295794D01*
X318705D01*
X318788Y295803D01*
X318890Y295821D01*
X319001Y295849D01*
X319130Y295886D01*
X319251Y295941D01*
X319371Y296016D01*
X319380Y296025D01*
X319426Y296062D01*
X319482Y296117D01*
X319547Y296191D01*
X319621Y296293D01*
X319704Y296423D01*
X319787Y296570D01*
X319861Y296746D01*
X320675Y296644D01*
Y296635D01*
X320666Y296617D01*
X320657Y296580D01*
X320638Y296524D01*
X320610Y296469D01*
X320583Y296395D01*
X320509Y296237D01*
X320416Y296062D01*
X320287Y295877D01*
X320139Y295701D01*
X319954Y295534D01*
X319945D01*
X319926Y295516D01*
X319898Y295497D01*
X319861Y295470D01*
X319806Y295442D01*
X319750Y295414D01*
X319676Y295377D01*
X319593Y295340D01*
X319500Y295303D01*
X319408Y295266D01*
X319177Y295211D01*
X318918Y295164D01*
X318631Y295146D01*
X318529D01*
X318464Y295155D01*
X318381Y295164D01*
X318280Y295183D01*
X318168Y295201D01*
X318048Y295220D01*
X317789Y295294D01*
X317651Y295350D01*
X317521Y295405D01*
X317382Y295479D01*
X317253Y295562D01*
X317132Y295655D01*
X317012Y295766D01*
X317003Y295775D01*
X316985Y295794D01*
X316957Y295830D01*
X316920Y295886D01*
X316874Y295951D01*
X316827Y296025D01*
X316772Y296117D01*
X316716Y296219D01*
X316661Y296339D01*
X316605Y296469D01*
X316559Y296617D01*
X316513Y296774D01*
X316476Y296940D01*
X316448Y297126D01*
X316429Y297320D01*
X316420Y297523D01*
Y297533D01*
Y297579D01*
Y297634D01*
X316429Y297717D01*
X316439Y297819D01*
X316448Y297930D01*
X316466Y298060D01*
X316494Y298189D01*
X316568Y298485D01*
X316615Y298633D01*
X316670Y298791D01*
X316744Y298938D01*
X316827Y299077D01*
X316920Y299216D01*
X317021Y299345D01*
X317031Y299355D01*
X317049Y299373D01*
X317086Y299401D01*
X317132Y299447D01*
X317188Y299494D01*
X317262Y299549D01*
X317345Y299614D01*
X317447Y299669D01*
X317549Y299734D01*
X317669Y299790D01*
X317798Y299845D01*
X317937Y299891D01*
X318085Y299938D01*
X318243Y299965D01*
X318409Y299984D01*
X318585Y299993D01*
X318677D01*
X318742Y299984D01*
D02*
G37*
G36*
X289392D02*
X289466Y299974D01*
X289558Y299956D01*
X289660Y299938D01*
X289780Y299910D01*
X289891Y299882D01*
X290021Y299836D01*
X290141Y299790D01*
X290270Y299725D01*
X290400Y299651D01*
X290529Y299568D01*
X290650Y299466D01*
X290761Y299355D01*
X290770Y299345D01*
X290789Y299327D01*
X290816Y299290D01*
X290853Y299235D01*
X290899Y299170D01*
X290946Y299096D01*
X291001Y299003D01*
X291057Y298892D01*
X291112Y298772D01*
X291168Y298642D01*
X291214Y298495D01*
X291260Y298337D01*
X291297Y298162D01*
X291325Y297976D01*
X291343Y297782D01*
X291353Y297569D01*
Y297560D01*
Y297523D01*
Y297459D01*
X291343Y297366D01*
X287875D01*
Y297357D01*
Y297329D01*
X287884Y297292D01*
Y297236D01*
X287893Y297172D01*
X287912Y297098D01*
X287940Y296931D01*
X287995Y296746D01*
X288069Y296543D01*
X288171Y296358D01*
X288300Y296191D01*
X288310D01*
X288319Y296173D01*
X288374Y296127D01*
X288457Y296062D01*
X288568Y295997D01*
X288717Y295923D01*
X288883Y295858D01*
X289068Y295812D01*
X289170Y295803D01*
X289281Y295794D01*
X289355D01*
X289438Y295803D01*
X289540Y295821D01*
X289651Y295849D01*
X289780Y295886D01*
X289900Y295941D01*
X290021Y296016D01*
X290030Y296025D01*
X290076Y296062D01*
X290132Y296117D01*
X290196Y296191D01*
X290270Y296293D01*
X290354Y296423D01*
X290437Y296570D01*
X290511Y296746D01*
X291325Y296644D01*
Y296635D01*
X291316Y296617D01*
X291306Y296580D01*
X291288Y296524D01*
X291260Y296469D01*
X291232Y296395D01*
X291159Y296237D01*
X291066Y296062D01*
X290936Y295877D01*
X290789Y295701D01*
X290603Y295534D01*
X290594D01*
X290576Y295516D01*
X290548Y295497D01*
X290511Y295470D01*
X290456Y295442D01*
X290400Y295414D01*
X290326Y295377D01*
X290243Y295340D01*
X290150Y295303D01*
X290058Y295266D01*
X289826Y295211D01*
X289567Y295164D01*
X289281Y295146D01*
X289179D01*
X289114Y295155D01*
X289031Y295164D01*
X288929Y295183D01*
X288818Y295201D01*
X288698Y295220D01*
X288439Y295294D01*
X288300Y295350D01*
X288171Y295405D01*
X288032Y295479D01*
X287902Y295562D01*
X287782Y295655D01*
X287662Y295766D01*
X287653Y295775D01*
X287634Y295794D01*
X287607Y295830D01*
X287569Y295886D01*
X287523Y295951D01*
X287477Y296025D01*
X287421Y296117D01*
X287366Y296219D01*
X287311Y296339D01*
X287255Y296469D01*
X287209Y296617D01*
X287162Y296774D01*
X287125Y296940D01*
X287098Y297126D01*
X287079Y297320D01*
X287070Y297523D01*
Y297533D01*
Y297579D01*
Y297634D01*
X287079Y297717D01*
X287088Y297819D01*
X287098Y297930D01*
X287116Y298060D01*
X287144Y298189D01*
X287218Y298485D01*
X287264Y298633D01*
X287320Y298791D01*
X287394Y298938D01*
X287477Y299077D01*
X287569Y299216D01*
X287671Y299345D01*
X287681Y299355D01*
X287699Y299373D01*
X287736Y299401D01*
X287782Y299447D01*
X287838Y299494D01*
X287912Y299549D01*
X287995Y299614D01*
X288097Y299669D01*
X288198Y299734D01*
X288319Y299790D01*
X288448Y299845D01*
X288587Y299891D01*
X288735Y299938D01*
X288892Y299965D01*
X289059Y299984D01*
X289234Y299993D01*
X289327D01*
X289392Y299984D01*
D02*
G37*
G36*
X306088D02*
X306153Y299974D01*
X306236Y299956D01*
X306329Y299938D01*
X306430Y299910D01*
X306532Y299873D01*
X306643Y299827D01*
X306754Y299771D01*
X306874Y299706D01*
X306985Y299632D01*
X307096Y299540D01*
X307207Y299438D01*
X307309Y299318D01*
Y299891D01*
X308031D01*
Y295877D01*
Y295867D01*
Y295830D01*
Y295775D01*
Y295701D01*
X308021Y295618D01*
Y295516D01*
X308012Y295405D01*
X308003Y295285D01*
X307975Y295035D01*
X307938Y294776D01*
X307910Y294656D01*
X307882Y294545D01*
X307845Y294443D01*
X307808Y294351D01*
Y294341D01*
X307799Y294332D01*
X307762Y294276D01*
X307716Y294193D01*
X307642Y294092D01*
X307540Y293981D01*
X307420Y293860D01*
X307272Y293740D01*
X307105Y293638D01*
X307096D01*
X307087Y293629D01*
X307059Y293611D01*
X307022Y293601D01*
X306976Y293573D01*
X306921Y293555D01*
X306782Y293509D01*
X306615Y293453D01*
X306412Y293416D01*
X306181Y293379D01*
X305931Y293370D01*
X305848D01*
X305792Y293379D01*
X305718D01*
X305644Y293389D01*
X305552Y293398D01*
X305450Y293416D01*
X305237Y293462D01*
X305015Y293527D01*
X304793Y293620D01*
X304590Y293749D01*
X304580Y293759D01*
X304571Y293768D01*
X304506Y293823D01*
X304432Y293906D01*
X304340Y294027D01*
X304247Y294184D01*
X304164Y294378D01*
X304136Y294489D01*
X304118Y294609D01*
X304099Y294730D01*
Y294868D01*
X304867Y294767D01*
Y294748D01*
X304876Y294711D01*
X304895Y294647D01*
X304913Y294563D01*
X304950Y294480D01*
X304996Y294397D01*
X305052Y294314D01*
X305126Y294249D01*
X305145Y294239D01*
X305182Y294212D01*
X305246Y294175D01*
X305339Y294138D01*
X305450Y294092D01*
X305589Y294055D01*
X305755Y294027D01*
X305931Y294018D01*
X306023D01*
X306116Y294027D01*
X306245Y294045D01*
X306375Y294073D01*
X306514Y294110D01*
X306652Y294165D01*
X306772Y294239D01*
X306782Y294249D01*
X306819Y294276D01*
X306874Y294332D01*
X306939Y294397D01*
X307004Y294489D01*
X307068Y294591D01*
X307133Y294711D01*
X307179Y294850D01*
Y294859D01*
X307189Y294896D01*
X307198Y294970D01*
X307207Y295063D01*
X307217Y295128D01*
Y295201D01*
X307226Y295285D01*
Y295377D01*
Y295479D01*
X307235Y295599D01*
Y295720D01*
Y295858D01*
X307226Y295849D01*
X307207Y295830D01*
X307179Y295803D01*
X307142Y295766D01*
X307096Y295720D01*
X307031Y295664D01*
X306958Y295608D01*
X306884Y295553D01*
X306689Y295442D01*
X306476Y295340D01*
X306356Y295303D01*
X306227Y295275D01*
X306088Y295257D01*
X305949Y295248D01*
X305903D01*
X305857Y295257D01*
X305792D01*
X305709Y295266D01*
X305616Y295285D01*
X305515Y295303D01*
X305403Y295331D01*
X305283Y295368D01*
X305163Y295414D01*
X305043Y295470D01*
X304913Y295534D01*
X304793Y295618D01*
X304673Y295710D01*
X304562Y295812D01*
X304460Y295932D01*
X304451Y295941D01*
X304441Y295960D01*
X304414Y296006D01*
X304377Y296053D01*
X304340Y296127D01*
X304293Y296200D01*
X304247Y296293D01*
X304201Y296404D01*
X304155Y296515D01*
X304109Y296644D01*
X304062Y296774D01*
X304025Y296922D01*
X303960Y297236D01*
X303951Y297412D01*
X303942Y297588D01*
Y297597D01*
Y297616D01*
Y297653D01*
Y297699D01*
X303951Y297764D01*
Y297829D01*
X303970Y297995D01*
X303997Y298180D01*
X304044Y298383D01*
X304099Y298596D01*
X304183Y298809D01*
Y298818D01*
X304192Y298837D01*
X304210Y298865D01*
X304229Y298902D01*
X304284Y299003D01*
X304358Y299133D01*
X304460Y299271D01*
X304580Y299410D01*
X304719Y299558D01*
X304876Y299678D01*
X304886D01*
X304895Y299688D01*
X304923Y299706D01*
X304960Y299725D01*
X305052Y299780D01*
X305182Y299836D01*
X305339Y299891D01*
X305524Y299947D01*
X305727Y299984D01*
X305949Y299993D01*
X306032D01*
X306088Y299984D01*
D02*
G37*
G36*
X279806Y290927D02*
X279871D01*
X280046Y290909D01*
X280241Y290881D01*
X280444Y290835D01*
X280666Y290779D01*
X280870Y290705D01*
X280879D01*
X280897Y290696D01*
X280925Y290677D01*
X280962Y290659D01*
X281054Y290613D01*
X281175Y290529D01*
X281313Y290437D01*
X281452Y290317D01*
X281582Y290178D01*
X281702Y290021D01*
Y290011D01*
X281711Y290002D01*
X281730Y289974D01*
X281748Y289947D01*
X281795Y289854D01*
X281850Y289734D01*
X281915Y289586D01*
X281961Y289410D01*
X282007Y289225D01*
X282026Y289022D01*
X281212Y288957D01*
Y288966D01*
Y288985D01*
X281203Y289012D01*
X281193Y289059D01*
X281166Y289160D01*
X281129Y289299D01*
X281073Y289447D01*
X280990Y289595D01*
X280888Y289734D01*
X280759Y289863D01*
X280740Y289873D01*
X280694Y289910D01*
X280601Y289965D01*
X280481Y290021D01*
X280324Y290076D01*
X280139Y290132D01*
X279907Y290169D01*
X279648Y290178D01*
X279519D01*
X279464Y290169D01*
X279390Y290159D01*
X279223Y290141D01*
X279038Y290104D01*
X278853Y290058D01*
X278677Y289984D01*
X278603Y289937D01*
X278529Y289891D01*
X278511Y289882D01*
X278474Y289845D01*
X278418Y289780D01*
X278363Y289706D01*
X278298Y289604D01*
X278242Y289493D01*
X278205Y289364D01*
X278187Y289216D01*
Y289197D01*
Y289160D01*
X278196Y289096D01*
X278215Y289022D01*
X278242Y288929D01*
X278289Y288837D01*
X278344Y288744D01*
X278428Y288652D01*
X278437Y288642D01*
X278483Y288615D01*
X278520Y288587D01*
X278557Y288568D01*
X278612Y288541D01*
X278677Y288504D01*
X278761Y288476D01*
X278853Y288439D01*
X278955Y288402D01*
X279075Y288356D01*
X279205Y288319D01*
X279352Y288272D01*
X279519Y288235D01*
X279704Y288189D01*
X279713D01*
X279750Y288180D01*
X279806Y288171D01*
X279871Y288152D01*
X279954Y288134D01*
X280055Y288106D01*
X280157Y288078D01*
X280268Y288050D01*
X280509Y287986D01*
X280740Y287921D01*
X280851Y287884D01*
X280953Y287847D01*
X281045Y287819D01*
X281119Y287782D01*
X281129D01*
X281147Y287773D01*
X281175Y287754D01*
X281212Y287736D01*
X281313Y287680D01*
X281434Y287606D01*
X281573Y287505D01*
X281711Y287394D01*
X281841Y287264D01*
X281952Y287125D01*
X281961Y287107D01*
X281998Y287061D01*
X282035Y286977D01*
X282090Y286866D01*
X282137Y286737D01*
X282183Y286580D01*
X282211Y286404D01*
X282220Y286219D01*
Y286210D01*
Y286200D01*
Y286173D01*
Y286136D01*
X282202Y286034D01*
X282183Y285904D01*
X282146Y285756D01*
X282100Y285599D01*
X282026Y285433D01*
X281924Y285257D01*
Y285248D01*
X281915Y285238D01*
X281869Y285183D01*
X281804Y285100D01*
X281711Y285007D01*
X281591Y284896D01*
X281443Y284776D01*
X281276Y284665D01*
X281082Y284563D01*
X281073D01*
X281054Y284554D01*
X281027Y284545D01*
X280990Y284526D01*
X280934Y284508D01*
X280870Y284480D01*
X280721Y284443D01*
X280546Y284397D01*
X280333Y284350D01*
X280102Y284323D01*
X279852Y284313D01*
X279704D01*
X279630Y284323D01*
X279547D01*
X279454Y284332D01*
X279343Y284341D01*
X279112Y284378D01*
X278871Y284415D01*
X278631Y284480D01*
X278400Y284563D01*
X278391D01*
X278372Y284572D01*
X278344Y284591D01*
X278307Y284609D01*
X278196Y284665D01*
X278067Y284748D01*
X277919Y284859D01*
X277762Y284989D01*
X277613Y285146D01*
X277475Y285322D01*
Y285331D01*
X277456Y285349D01*
X277447Y285377D01*
X277419Y285414D01*
X277401Y285460D01*
X277373Y285516D01*
X277308Y285655D01*
X277243Y285830D01*
X277188Y286025D01*
X277151Y286247D01*
X277133Y286478D01*
X277928Y286552D01*
Y286543D01*
Y286533D01*
X277937Y286506D01*
Y286469D01*
X277956Y286385D01*
X277983Y286265D01*
X278021Y286145D01*
X278058Y286006D01*
X278122Y285877D01*
X278187Y285756D01*
X278196Y285747D01*
X278224Y285710D01*
X278270Y285645D01*
X278344Y285581D01*
X278437Y285497D01*
X278538Y285414D01*
X278677Y285331D01*
X278825Y285257D01*
X278835D01*
X278844Y285248D01*
X278871Y285238D01*
X278899Y285229D01*
X278992Y285201D01*
X279112Y285164D01*
X279260Y285127D01*
X279427Y285100D01*
X279611Y285081D01*
X279815Y285072D01*
X279898D01*
X279991Y285081D01*
X280102Y285090D01*
X280231Y285109D01*
X280379Y285127D01*
X280527Y285164D01*
X280666Y285211D01*
X280684Y285220D01*
X280731Y285238D01*
X280796Y285275D01*
X280879Y285312D01*
X280962Y285377D01*
X281054Y285442D01*
X281147Y285516D01*
X281221Y285608D01*
X281230Y285618D01*
X281249Y285655D01*
X281276Y285701D01*
X281313Y285775D01*
X281350Y285849D01*
X281378Y285941D01*
X281397Y286043D01*
X281406Y286154D01*
Y286163D01*
Y286210D01*
X281397Y286265D01*
X281387Y286339D01*
X281360Y286413D01*
X281332Y286506D01*
X281286Y286598D01*
X281221Y286681D01*
X281212Y286691D01*
X281184Y286718D01*
X281147Y286755D01*
X281082Y286811D01*
X281008Y286866D01*
X280907Y286931D01*
X280786Y286996D01*
X280647Y287051D01*
X280638Y287061D01*
X280592Y287070D01*
X280518Y287098D01*
X280472Y287107D01*
X280407Y287125D01*
X280342Y287153D01*
X280259Y287172D01*
X280167Y287199D01*
X280055Y287227D01*
X279944Y287255D01*
X279815Y287292D01*
X279667Y287329D01*
X279510Y287366D01*
X279501D01*
X279473Y287375D01*
X279427Y287384D01*
X279371Y287403D01*
X279297Y287421D01*
X279214Y287440D01*
X279029Y287495D01*
X278825Y287560D01*
X278612Y287625D01*
X278428Y287690D01*
X278344Y287727D01*
X278270Y287764D01*
X278261D01*
X278252Y287773D01*
X278196Y287810D01*
X278113Y287856D01*
X278021Y287930D01*
X277909Y288013D01*
X277799Y288115D01*
X277688Y288235D01*
X277595Y288365D01*
X277586Y288383D01*
X277558Y288430D01*
X277521Y288504D01*
X277484Y288596D01*
X277447Y288716D01*
X277410Y288855D01*
X277382Y289003D01*
X277373Y289160D01*
Y289170D01*
Y289179D01*
Y289207D01*
Y289244D01*
X277392Y289336D01*
X277410Y289456D01*
X277438Y289595D01*
X277484Y289752D01*
X277549Y289910D01*
X277641Y290067D01*
Y290076D01*
X277650Y290085D01*
X277697Y290141D01*
X277762Y290215D01*
X277845Y290307D01*
X277956Y290409D01*
X278095Y290520D01*
X278261Y290622D01*
X278446Y290714D01*
X278455D01*
X278474Y290724D01*
X278502Y290733D01*
X278538Y290751D01*
X278585Y290770D01*
X278649Y290788D01*
X278788Y290825D01*
X278964Y290862D01*
X279168Y290899D01*
X279380Y290927D01*
X279621Y290936D01*
X279741D01*
X279806Y290927D01*
D02*
G37*
G36*
X295429Y284424D02*
X294615D01*
Y289780D01*
X292746Y284424D01*
X291988D01*
X290138Y289873D01*
Y284424D01*
X289324D01*
Y290825D01*
X290591D01*
X292108Y286284D01*
Y286274D01*
X292118Y286256D01*
X292127Y286228D01*
X292145Y286182D01*
X292182Y286071D01*
X292229Y285932D01*
X292275Y285775D01*
X292330Y285618D01*
X292376Y285470D01*
X292413Y285340D01*
X292423Y285359D01*
X292432Y285405D01*
X292460Y285488D01*
X292497Y285599D01*
X292543Y285747D01*
X292608Y285923D01*
X292672Y286126D01*
X292756Y286367D01*
X294291Y290825D01*
X295429D01*
Y284424D01*
D02*
G37*
G36*
X311200Y290844D02*
X311274Y290835D01*
X311367Y290825D01*
X311469Y290807D01*
X311570Y290788D01*
X311811Y290724D01*
X312051Y290631D01*
X312172Y290576D01*
X312292Y290511D01*
X312403Y290428D01*
X312505Y290335D01*
X312514Y290326D01*
X312532Y290317D01*
X312551Y290280D01*
X312588Y290243D01*
X312634Y290196D01*
X312680Y290132D01*
X312726Y290067D01*
X312782Y289984D01*
X312875Y289808D01*
X312967Y289586D01*
X313004Y289475D01*
X313022Y289345D01*
X313041Y289216D01*
X313050Y289077D01*
Y289059D01*
Y289012D01*
X313041Y288938D01*
X313032Y288837D01*
X313013Y288726D01*
X312976Y288596D01*
X312939Y288457D01*
X312884Y288319D01*
X312875Y288300D01*
X312856Y288254D01*
X312819Y288180D01*
X312764Y288078D01*
X312689Y287967D01*
X312597Y287828D01*
X312486Y287690D01*
X312356Y287532D01*
X312338Y287514D01*
X312292Y287458D01*
X312245Y287412D01*
X312199Y287366D01*
X312144Y287310D01*
X312070Y287236D01*
X311996Y287162D01*
X311903Y287079D01*
X311811Y286987D01*
X311700Y286885D01*
X311579Y286783D01*
X311450Y286663D01*
X311302Y286543D01*
X311154Y286413D01*
X311145Y286404D01*
X311126Y286385D01*
X311089Y286358D01*
X311043Y286321D01*
X310987Y286265D01*
X310923Y286210D01*
X310775Y286089D01*
X310617Y285951D01*
X310470Y285812D01*
X310340Y285692D01*
X310284Y285645D01*
X310238Y285599D01*
X310229Y285590D01*
X310201Y285562D01*
X310164Y285525D01*
X310118Y285470D01*
X310072Y285405D01*
X310016Y285340D01*
X309905Y285183D01*
X313059D01*
Y284424D01*
X308814D01*
Y284434D01*
Y284471D01*
Y284526D01*
X308823Y284600D01*
X308832Y284683D01*
X308851Y284776D01*
X308869Y284868D01*
X308906Y284970D01*
Y284979D01*
X308915Y284989D01*
X308934Y285044D01*
X308971Y285127D01*
X309027Y285238D01*
X309101Y285368D01*
X309193Y285516D01*
X309295Y285664D01*
X309424Y285821D01*
Y285830D01*
X309443Y285840D01*
X309489Y285895D01*
X309572Y285978D01*
X309693Y286099D01*
X309831Y286237D01*
X310007Y286404D01*
X310220Y286589D01*
X310451Y286783D01*
X310460Y286792D01*
X310497Y286820D01*
X310553Y286866D01*
X310617Y286922D01*
X310701Y286996D01*
X310803Y287079D01*
X310904Y287172D01*
X311024Y287273D01*
X311256Y287495D01*
X311487Y287717D01*
X311598Y287828D01*
X311700Y287939D01*
X311792Y288041D01*
X311866Y288143D01*
Y288152D01*
X311885Y288161D01*
X311903Y288189D01*
X311922Y288226D01*
X311986Y288328D01*
X312060Y288448D01*
X312125Y288596D01*
X312190Y288753D01*
X312227Y288929D01*
X312245Y289096D01*
Y289105D01*
Y289114D01*
X312236Y289170D01*
X312227Y289262D01*
X312199Y289364D01*
X312162Y289493D01*
X312098Y289623D01*
X312014Y289752D01*
X311903Y289882D01*
X311885Y289900D01*
X311839Y289937D01*
X311774Y289984D01*
X311672Y290048D01*
X311543Y290104D01*
X311395Y290159D01*
X311219Y290196D01*
X311024Y290206D01*
X310969D01*
X310932Y290196D01*
X310821Y290187D01*
X310691Y290159D01*
X310553Y290122D01*
X310396Y290058D01*
X310247Y289974D01*
X310109Y289863D01*
X310090Y289845D01*
X310053Y289799D01*
X309998Y289725D01*
X309942Y289614D01*
X309877Y289484D01*
X309822Y289318D01*
X309785Y289133D01*
X309767Y288920D01*
X308962Y289003D01*
Y289012D01*
X308971Y289040D01*
Y289086D01*
X308980Y289151D01*
X308999Y289225D01*
X309017Y289308D01*
X309045Y289410D01*
X309073Y289512D01*
X309147Y289734D01*
X309258Y289956D01*
X309323Y290067D01*
X309406Y290178D01*
X309489Y290280D01*
X309581Y290372D01*
X309591Y290381D01*
X309609Y290391D01*
X309637Y290418D01*
X309683Y290446D01*
X309739Y290483D01*
X309804Y290520D01*
X309877Y290566D01*
X309970Y290613D01*
X310072Y290659D01*
X310183Y290705D01*
X310303Y290742D01*
X310433Y290779D01*
X310571Y290807D01*
X310719Y290835D01*
X310876Y290844D01*
X311043Y290853D01*
X311136D01*
X311200Y290844D01*
D02*
G37*
G36*
X301247Y290844D02*
X301321Y290835D01*
X301414Y290825D01*
X301516Y290807D01*
X301617Y290788D01*
X301858Y290724D01*
X302098Y290631D01*
X302219Y290576D01*
X302339Y290511D01*
X302450Y290428D01*
X302552Y290335D01*
X302561Y290326D01*
X302579Y290317D01*
X302598Y290280D01*
X302635Y290243D01*
X302681Y290196D01*
X302727Y290132D01*
X302773Y290067D01*
X302829Y289984D01*
X302922Y289808D01*
X303014Y289586D01*
X303051Y289475D01*
X303069Y289345D01*
X303088Y289216D01*
X303097Y289077D01*
Y289059D01*
Y289012D01*
X303088Y288938D01*
X303079Y288837D01*
X303060Y288726D01*
X303023Y288596D01*
X302986Y288457D01*
X302931Y288319D01*
X302922Y288300D01*
X302903Y288254D01*
X302866Y288180D01*
X302811Y288078D01*
X302736Y287967D01*
X302644Y287828D01*
X302533Y287690D01*
X302403Y287532D01*
X302385Y287514D01*
X302339Y287458D01*
X302292Y287412D01*
X302246Y287366D01*
X302191Y287310D01*
X302117Y287236D01*
X302043Y287162D01*
X301950Y287079D01*
X301858Y286987D01*
X301747Y286885D01*
X301626Y286783D01*
X301497Y286663D01*
X301349Y286543D01*
X301201Y286413D01*
X301192Y286404D01*
X301173Y286385D01*
X301136Y286358D01*
X301090Y286321D01*
X301034Y286265D01*
X300970Y286210D01*
X300822Y286089D01*
X300664Y285951D01*
X300517Y285812D01*
X300387Y285692D01*
X300331Y285645D01*
X300285Y285599D01*
X300276Y285590D01*
X300248Y285562D01*
X300211Y285525D01*
X300165Y285470D01*
X300119Y285405D01*
X300063Y285340D01*
X299952Y285183D01*
X303106D01*
Y284424D01*
X298861D01*
Y284434D01*
Y284471D01*
Y284526D01*
X298870Y284600D01*
X298879Y284683D01*
X298898Y284776D01*
X298916Y284868D01*
X298953Y284970D01*
Y284979D01*
X298962Y284989D01*
X298981Y285044D01*
X299018Y285127D01*
X299074Y285238D01*
X299148Y285368D01*
X299240Y285516D01*
X299342Y285664D01*
X299471Y285821D01*
Y285830D01*
X299490Y285840D01*
X299536Y285895D01*
X299619Y285978D01*
X299740Y286099D01*
X299878Y286237D01*
X300054Y286404D01*
X300267Y286589D01*
X300498Y286783D01*
X300507Y286792D01*
X300544Y286820D01*
X300600Y286866D01*
X300664Y286922D01*
X300748Y286996D01*
X300850Y287079D01*
X300951Y287172D01*
X301072Y287273D01*
X301303Y287495D01*
X301534Y287717D01*
X301645Y287828D01*
X301747Y287939D01*
X301839Y288041D01*
X301913Y288143D01*
Y288152D01*
X301932Y288161D01*
X301950Y288189D01*
X301969Y288226D01*
X302033Y288328D01*
X302108Y288448D01*
X302172Y288596D01*
X302237Y288753D01*
X302274Y288929D01*
X302292Y289096D01*
Y289105D01*
Y289114D01*
X302283Y289170D01*
X302274Y289262D01*
X302246Y289364D01*
X302209Y289493D01*
X302145Y289623D01*
X302061Y289752D01*
X301950Y289882D01*
X301932Y289900D01*
X301886Y289937D01*
X301821Y289984D01*
X301719Y290048D01*
X301589Y290104D01*
X301442Y290159D01*
X301266Y290196D01*
X301072Y290206D01*
X301016D01*
X300979Y290196D01*
X300868Y290187D01*
X300739Y290159D01*
X300600Y290122D01*
X300443Y290058D01*
X300294Y289974D01*
X300156Y289863D01*
X300137Y289845D01*
X300100Y289799D01*
X300045Y289725D01*
X299989Y289614D01*
X299924Y289484D01*
X299869Y289318D01*
X299832Y289133D01*
X299814Y288920D01*
X299009Y289003D01*
Y289012D01*
X299018Y289040D01*
Y289086D01*
X299027Y289151D01*
X299046Y289225D01*
X299064Y289308D01*
X299092Y289410D01*
X299120Y289512D01*
X299194Y289734D01*
X299305Y289956D01*
X299370Y290067D01*
X299453Y290178D01*
X299536Y290280D01*
X299628Y290372D01*
X299638Y290381D01*
X299656Y290391D01*
X299684Y290418D01*
X299730Y290446D01*
X299786Y290483D01*
X299851Y290520D01*
X299924Y290566D01*
X300017Y290613D01*
X300119Y290659D01*
X300230Y290705D01*
X300350Y290742D01*
X300480Y290779D01*
X300618Y290807D01*
X300766Y290835D01*
X300923Y290844D01*
X301090Y290853D01*
X301183D01*
X301247Y290844D01*
D02*
G37*
G36*
X288029Y290067D02*
X284246D01*
Y288115D01*
X287789D01*
Y287357D01*
X284246D01*
Y285183D01*
X288177D01*
Y284424D01*
X283395D01*
Y290825D01*
X288029D01*
Y290067D01*
D02*
G37*
G36*
X316177Y290844D02*
X316297Y290825D01*
X316436Y290798D01*
X316584Y290761D01*
X316741Y290714D01*
X316889Y290640D01*
X316898D01*
X316908Y290631D01*
X316954Y290603D01*
X317028Y290557D01*
X317120Y290492D01*
X317222Y290400D01*
X317333Y290298D01*
X317435Y290178D01*
X317536Y290039D01*
X317546Y290021D01*
X317583Y289974D01*
X317620Y289891D01*
X317685Y289771D01*
X317740Y289632D01*
X317814Y289475D01*
X317879Y289290D01*
X317934Y289086D01*
Y289077D01*
X317944Y289059D01*
X317953Y289031D01*
X317962Y288985D01*
X317971Y288929D01*
X317981Y288864D01*
X317999Y288781D01*
X318008Y288689D01*
X318027Y288587D01*
X318036Y288476D01*
X318045Y288346D01*
X318064Y288217D01*
X318073Y288069D01*
Y287921D01*
X318082Y287754D01*
Y287579D01*
Y287569D01*
Y287532D01*
Y287468D01*
Y287394D01*
X318073Y287292D01*
Y287181D01*
X318064Y287061D01*
X318055Y286931D01*
X318027Y286635D01*
X317981Y286330D01*
X317925Y286034D01*
X317888Y285895D01*
X317842Y285756D01*
Y285747D01*
X317832Y285729D01*
X317814Y285692D01*
X317795Y285645D01*
X317777Y285581D01*
X317740Y285516D01*
X317666Y285359D01*
X317573Y285192D01*
X317453Y285007D01*
X317315Y284841D01*
X317148Y284683D01*
X317139D01*
X317129Y284665D01*
X317102Y284646D01*
X317065Y284628D01*
X317019Y284600D01*
X316972Y284563D01*
X316833Y284498D01*
X316667Y284434D01*
X316473Y284369D01*
X316242Y284332D01*
X315992Y284313D01*
X315899D01*
X315834Y284323D01*
X315760Y284332D01*
X315668Y284350D01*
X315566Y284369D01*
X315455Y284397D01*
X315344Y284434D01*
X315224Y284471D01*
X315104Y284526D01*
X314984Y284591D01*
X314863Y284665D01*
X314743Y284757D01*
X314632Y284859D01*
X314530Y284970D01*
X314521Y284979D01*
X314503Y285007D01*
X314475Y285053D01*
X314428Y285127D01*
X314382Y285211D01*
X314336Y285322D01*
X314271Y285451D01*
X314216Y285599D01*
X314160Y285766D01*
X314105Y285960D01*
X314049Y286173D01*
X314003Y286413D01*
X313957Y286672D01*
X313929Y286950D01*
X313911Y287255D01*
X313901Y287579D01*
Y287588D01*
Y287625D01*
Y287690D01*
Y287764D01*
X313911Y287865D01*
Y287976D01*
X313920Y288097D01*
X313929Y288235D01*
X313957Y288522D01*
X314003Y288827D01*
X314058Y289133D01*
X314095Y289271D01*
X314132Y289410D01*
Y289419D01*
X314142Y289438D01*
X314160Y289475D01*
X314179Y289521D01*
X314197Y289586D01*
X314234Y289651D01*
X314308Y289808D01*
X314401Y289974D01*
X314521Y290150D01*
X314660Y290326D01*
X314826Y290474D01*
X314836D01*
X314845Y290492D01*
X314873Y290511D01*
X314910Y290529D01*
X314956Y290566D01*
X315011Y290594D01*
X315150Y290668D01*
X315317Y290733D01*
X315511Y290798D01*
X315742Y290835D01*
X315992Y290853D01*
X316075D01*
X316177Y290844D01*
D02*
G37*
G36*
X306224D02*
X306344Y290825D01*
X306483Y290798D01*
X306631Y290761D01*
X306788Y290714D01*
X306936Y290640D01*
X306945D01*
X306955Y290631D01*
X307001Y290603D01*
X307075Y290557D01*
X307167Y290492D01*
X307269Y290400D01*
X307380Y290298D01*
X307482Y290178D01*
X307583Y290039D01*
X307593Y290021D01*
X307630Y289974D01*
X307667Y289891D01*
X307732Y289771D01*
X307787Y289632D01*
X307861Y289475D01*
X307926Y289290D01*
X307981Y289086D01*
Y289077D01*
X307991Y289059D01*
X308000Y289031D01*
X308009Y288985D01*
X308018Y288929D01*
X308028Y288864D01*
X308046Y288781D01*
X308055Y288689D01*
X308074Y288587D01*
X308083Y288476D01*
X308092Y288346D01*
X308111Y288217D01*
X308120Y288069D01*
Y287921D01*
X308129Y287754D01*
Y287579D01*
Y287569D01*
Y287532D01*
Y287468D01*
Y287394D01*
X308120Y287292D01*
Y287181D01*
X308111Y287061D01*
X308102Y286931D01*
X308074Y286635D01*
X308028Y286330D01*
X307972Y286034D01*
X307935Y285895D01*
X307889Y285756D01*
Y285747D01*
X307879Y285729D01*
X307861Y285692D01*
X307842Y285645D01*
X307824Y285581D01*
X307787Y285516D01*
X307713Y285359D01*
X307621Y285192D01*
X307500Y285007D01*
X307362Y284841D01*
X307195Y284683D01*
X307186D01*
X307176Y284665D01*
X307149Y284646D01*
X307112Y284628D01*
X307066Y284600D01*
X307019Y284563D01*
X306880Y284498D01*
X306714Y284434D01*
X306520Y284369D01*
X306289Y284332D01*
X306039Y284313D01*
X305946D01*
X305882Y284323D01*
X305807Y284332D01*
X305715Y284350D01*
X305613Y284369D01*
X305502Y284397D01*
X305391Y284434D01*
X305271Y284471D01*
X305151Y284526D01*
X305030Y284591D01*
X304910Y284665D01*
X304790Y284757D01*
X304679Y284859D01*
X304577Y284970D01*
X304568Y284979D01*
X304550Y285007D01*
X304522Y285053D01*
X304475Y285127D01*
X304429Y285211D01*
X304383Y285322D01*
X304318Y285451D01*
X304263Y285599D01*
X304207Y285766D01*
X304152Y285960D01*
X304096Y286173D01*
X304050Y286413D01*
X304004Y286672D01*
X303976Y286950D01*
X303958Y287255D01*
X303948Y287579D01*
Y287588D01*
Y287625D01*
Y287690D01*
Y287764D01*
X303958Y287865D01*
Y287976D01*
X303967Y288097D01*
X303976Y288235D01*
X304004Y288522D01*
X304050Y288827D01*
X304105Y289133D01*
X304142Y289271D01*
X304180Y289410D01*
Y289419D01*
X304189Y289438D01*
X304207Y289475D01*
X304226Y289521D01*
X304244Y289586D01*
X304281Y289651D01*
X304355Y289808D01*
X304448Y289974D01*
X304568Y290150D01*
X304707Y290326D01*
X304873Y290474D01*
X304883D01*
X304892Y290492D01*
X304920Y290511D01*
X304957Y290529D01*
X305003Y290566D01*
X305058Y290594D01*
X305197Y290668D01*
X305363Y290733D01*
X305558Y290798D01*
X305789Y290835D01*
X306039Y290853D01*
X306122D01*
X306224Y290844D01*
D02*
G37*
%LPC*%
G36*
X286788Y308682D02*
X285308D01*
Y303799D01*
X286825D01*
X286890Y303808D01*
X287028Y303817D01*
X287186Y303826D01*
X287352Y303845D01*
X287519Y303872D01*
X287657Y303909D01*
X287676Y303919D01*
X287722Y303928D01*
X287787Y303956D01*
X287870Y303993D01*
X287963Y304048D01*
X288055Y304104D01*
X288148Y304169D01*
X288240Y304242D01*
X288249Y304261D01*
X288286Y304298D01*
X288342Y304363D01*
X288407Y304455D01*
X288481Y304575D01*
X288564Y304714D01*
X288638Y304872D01*
X288703Y305047D01*
Y305057D01*
X288712Y305075D01*
X288721Y305103D01*
X288730Y305140D01*
X288740Y305186D01*
X288758Y305251D01*
X288777Y305315D01*
X288795Y305389D01*
X288823Y305574D01*
X288851Y305787D01*
X288869Y306028D01*
X288878Y306287D01*
Y306296D01*
Y306333D01*
Y306379D01*
X288869Y306453D01*
Y306537D01*
X288860Y306629D01*
X288851Y306740D01*
X288841Y306851D01*
X288795Y307101D01*
X288740Y307360D01*
X288656Y307600D01*
X288601Y307720D01*
X288545Y307822D01*
Y307832D01*
X288527Y307850D01*
X288508Y307878D01*
X288490Y307915D01*
X288416Y308007D01*
X288323Y308118D01*
X288203Y308239D01*
X288064Y308359D01*
X287907Y308460D01*
X287741Y308544D01*
X287722Y308553D01*
X287676Y308562D01*
X287593Y308590D01*
X287472Y308618D01*
X287324Y308636D01*
X287139Y308664D01*
X287028Y308673D01*
X286908D01*
X286788Y308682D01*
D02*
G37*
G36*
X318594Y299345D02*
X318538D01*
X318501Y299336D01*
X318400Y299327D01*
X318280Y299299D01*
X318131Y299253D01*
X317974Y299188D01*
X317826Y299096D01*
X317678Y298975D01*
X317660Y298957D01*
X317623Y298911D01*
X317558Y298828D01*
X317493Y298716D01*
X317419Y298587D01*
X317354Y298421D01*
X317299Y298226D01*
X317271Y298013D01*
X319870D01*
Y298023D01*
Y298041D01*
X319861Y298069D01*
Y298106D01*
X319843Y298217D01*
X319815Y298337D01*
X319769Y298485D01*
X319723Y298624D01*
X319649Y298763D01*
X319565Y298883D01*
Y298892D01*
X319547Y298902D01*
X319500Y298957D01*
X319417Y299031D01*
X319306Y299114D01*
X319167Y299198D01*
X319001Y299271D01*
X318807Y299327D01*
X318705Y299336D01*
X318594Y299345D01*
D02*
G37*
G36*
X289244D02*
X289188D01*
X289151Y299336D01*
X289050Y299327D01*
X288929Y299299D01*
X288781Y299253D01*
X288624Y299188D01*
X288476Y299096D01*
X288328Y298975D01*
X288310Y298957D01*
X288273Y298911D01*
X288208Y298828D01*
X288143Y298716D01*
X288069Y298587D01*
X288004Y298421D01*
X287949Y298226D01*
X287921Y298013D01*
X290520D01*
Y298023D01*
Y298041D01*
X290511Y298069D01*
Y298106D01*
X290493Y298217D01*
X290465Y298337D01*
X290419Y298485D01*
X290372Y298624D01*
X290298Y298763D01*
X290215Y298883D01*
Y298892D01*
X290196Y298902D01*
X290150Y298957D01*
X290067Y299031D01*
X289956Y299114D01*
X289817Y299198D01*
X289651Y299271D01*
X289457Y299327D01*
X289355Y299336D01*
X289244Y299345D01*
D02*
G37*
G36*
X306106D02*
X305959D01*
X305922Y299336D01*
X305820Y299327D01*
X305699Y299290D01*
X305552Y299244D01*
X305403Y299161D01*
X305256Y299059D01*
X305182Y298985D01*
X305107Y298911D01*
Y298902D01*
X305089Y298892D01*
X305070Y298865D01*
X305052Y298828D01*
X305024Y298791D01*
X304996Y298735D01*
X304960Y298670D01*
X304932Y298596D01*
X304895Y298513D01*
X304858Y298411D01*
X304830Y298309D01*
X304802Y298199D01*
X304784Y298069D01*
X304765Y297939D01*
X304747Y297801D01*
Y297643D01*
Y297634D01*
Y297606D01*
Y297560D01*
X304756Y297496D01*
Y297422D01*
X304765Y297329D01*
X304793Y297135D01*
X304839Y296913D01*
X304895Y296700D01*
X304987Y296487D01*
X305043Y296395D01*
X305107Y296311D01*
X305126Y296293D01*
X305172Y296247D01*
X305246Y296182D01*
X305357Y296108D01*
X305487Y296025D01*
X305644Y295960D01*
X305820Y295914D01*
X305912Y295904D01*
X306014Y295895D01*
X306069D01*
X306106Y295904D01*
X306208Y295914D01*
X306338Y295951D01*
X306476Y295997D01*
X306634Y296071D01*
X306782Y296173D01*
X306856Y296237D01*
X306930Y296311D01*
Y296321D01*
X306948Y296330D01*
X306967Y296358D01*
X306985Y296395D01*
X307013Y296432D01*
X307050Y296487D01*
X307078Y296552D01*
X307115Y296635D01*
X307152Y296719D01*
X307179Y296811D01*
X307217Y296922D01*
X307244Y297042D01*
X307263Y297163D01*
X307281Y297301D01*
X307300Y297459D01*
Y297616D01*
Y297625D01*
Y297653D01*
Y297699D01*
X307291Y297755D01*
Y297829D01*
X307281Y297912D01*
X307254Y298097D01*
X307207Y298309D01*
X307142Y298522D01*
X307050Y298735D01*
X306985Y298828D01*
X306921Y298911D01*
Y298920D01*
X306902Y298929D01*
X306856Y298975D01*
X306772Y299049D01*
X306662Y299133D01*
X306532Y299207D01*
X306375Y299281D01*
X306199Y299327D01*
X306106Y299345D01*
D02*
G37*
G36*
X315983Y290206D02*
X315927D01*
X315890Y290196D01*
X315788Y290178D01*
X315668Y290150D01*
X315529Y290095D01*
X315381Y290011D01*
X315307Y289956D01*
X315233Y289900D01*
X315168Y289826D01*
X315104Y289743D01*
Y289734D01*
X315085Y289715D01*
X315067Y289678D01*
X315039Y289632D01*
X315011Y289558D01*
X314974Y289475D01*
X314947Y289373D01*
X314910Y289253D01*
X314873Y289114D01*
X314836Y288957D01*
X314798Y288781D01*
X314771Y288587D01*
X314743Y288365D01*
X314724Y288124D01*
X314715Y287865D01*
X314706Y287579D01*
Y287560D01*
Y287514D01*
Y287431D01*
X314715Y287320D01*
Y287199D01*
X314724Y287051D01*
X314734Y286894D01*
X314752Y286728D01*
X314798Y286367D01*
X314826Y286191D01*
X314863Y286025D01*
X314900Y285867D01*
X314956Y285719D01*
X315011Y285590D01*
X315076Y285479D01*
Y285470D01*
X315094Y285460D01*
X315141Y285396D01*
X315224Y285312D01*
X315326Y285220D01*
X315464Y285127D01*
X315622Y285044D01*
X315797Y284979D01*
X315890Y284970D01*
X315992Y284961D01*
X316047D01*
X316084Y284970D01*
X316177Y284989D01*
X316306Y285026D01*
X316445Y285090D01*
X316602Y285183D01*
X316676Y285238D01*
X316750Y285312D01*
X316824Y285386D01*
X316898Y285479D01*
Y285488D01*
X316917Y285507D01*
X316935Y285534D01*
X316954Y285581D01*
X316991Y285645D01*
X317019Y285729D01*
X317056Y285821D01*
X317092Y285932D01*
X317120Y286071D01*
X317157Y286219D01*
X317194Y286395D01*
X317222Y286580D01*
X317241Y286802D01*
X317259Y287033D01*
X317278Y287292D01*
Y287579D01*
Y287588D01*
Y287597D01*
Y287643D01*
Y287727D01*
X317268Y287838D01*
Y287958D01*
X317259Y288106D01*
X317250Y288263D01*
X317231Y288439D01*
X317185Y288790D01*
X317157Y288966D01*
X317120Y289133D01*
X317083Y289290D01*
X317028Y289438D01*
X316972Y289567D01*
X316908Y289678D01*
Y289688D01*
X316889Y289697D01*
X316870Y289725D01*
X316843Y289762D01*
X316759Y289845D01*
X316658Y289947D01*
X316519Y290039D01*
X316362Y290122D01*
X316279Y290159D01*
X316186Y290187D01*
X316084Y290196D01*
X315983Y290206D01*
D02*
G37*
G36*
X306030D02*
X305974D01*
X305937Y290196D01*
X305835Y290178D01*
X305715Y290150D01*
X305576Y290095D01*
X305428Y290011D01*
X305354Y289956D01*
X305280Y289900D01*
X305216Y289826D01*
X305151Y289743D01*
Y289734D01*
X305132Y289715D01*
X305114Y289678D01*
X305086Y289632D01*
X305058Y289558D01*
X305021Y289475D01*
X304994Y289373D01*
X304957Y289253D01*
X304920Y289114D01*
X304883Y288957D01*
X304845Y288781D01*
X304818Y288587D01*
X304790Y288365D01*
X304771Y288124D01*
X304762Y287865D01*
X304753Y287579D01*
Y287560D01*
Y287514D01*
Y287431D01*
X304762Y287320D01*
Y287199D01*
X304771Y287051D01*
X304781Y286894D01*
X304799Y286728D01*
X304845Y286367D01*
X304873Y286191D01*
X304910Y286025D01*
X304947Y285867D01*
X305003Y285719D01*
X305058Y285590D01*
X305123Y285479D01*
Y285470D01*
X305141Y285460D01*
X305188Y285396D01*
X305271Y285312D01*
X305373Y285220D01*
X305511Y285127D01*
X305669Y285044D01*
X305844Y284979D01*
X305937Y284970D01*
X306039Y284961D01*
X306094D01*
X306131Y284970D01*
X306224Y284989D01*
X306353Y285026D01*
X306492Y285090D01*
X306649Y285183D01*
X306723Y285238D01*
X306797Y285312D01*
X306871Y285386D01*
X306945Y285479D01*
Y285488D01*
X306964Y285507D01*
X306982Y285534D01*
X307001Y285581D01*
X307038Y285645D01*
X307066Y285729D01*
X307102Y285821D01*
X307139Y285932D01*
X307167Y286071D01*
X307204Y286219D01*
X307241Y286395D01*
X307269Y286580D01*
X307288Y286802D01*
X307306Y287033D01*
X307325Y287292D01*
Y287579D01*
Y287588D01*
Y287597D01*
Y287643D01*
Y287727D01*
X307315Y287838D01*
Y287958D01*
X307306Y288106D01*
X307297Y288263D01*
X307278Y288439D01*
X307232Y288790D01*
X307204Y288966D01*
X307167Y289133D01*
X307130Y289290D01*
X307075Y289438D01*
X307019Y289567D01*
X306955Y289678D01*
Y289688D01*
X306936Y289697D01*
X306918Y289725D01*
X306890Y289762D01*
X306806Y289845D01*
X306705Y289947D01*
X306566Y290039D01*
X306409Y290122D01*
X306326Y290159D01*
X306233Y290187D01*
X306131Y290196D01*
X306030Y290206D01*
D02*
G37*
%LPD*%
D10*
X93677Y257247D02*
G03*
X93677Y257247I-1181J0D01*
G01*
D11*
X87948Y248487D02*
G03*
X87948Y248487I-492J0D01*
G01*
D12*
X267220Y220843D02*
G03*
X275220Y220843I4000J0D01*
G01*
X268874Y144939D02*
G03*
X276874Y144939I4000J0D01*
G01*
X275220Y220843D02*
X291220D01*
X251220D02*
X267220D01*
X291220Y177842D02*
Y220843D01*
X251220Y177842D02*
X291220D01*
X251220D02*
Y220843D01*
X276874Y144939D02*
X292874D01*
X252874D02*
X268874D01*
X292874Y101939D02*
Y144939D01*
X252874Y101939D02*
X292874D01*
X252874D02*
Y144939D01*
X288347Y276054D02*
X284349D01*
Y273055D01*
X286348D01*
X284349D01*
Y270056D01*
X290347D02*
Y271056D01*
X291346D01*
Y270056D01*
X290347D01*
X295345Y276054D02*
Y270056D01*
X299344D01*
X301343D02*
X303342D01*
X302343D01*
Y274055D01*
X301343D01*
X308341Y268057D02*
X309341D01*
X310340Y269056D01*
Y274055D01*
X307341D01*
X306341Y273055D01*
Y271056D01*
X307341Y270056D01*
X310340D01*
X312339Y276054D02*
Y270056D01*
Y273055D01*
X313339Y274055D01*
X315338D01*
X316338Y273055D01*
Y270056D01*
X319337Y275054D02*
Y274055D01*
X318338D01*
X320337D01*
X319337D01*
Y271056D01*
X320337Y270056D01*
X90431Y225011D02*
X91431Y226010D01*
Y228010D01*
X90431Y229009D01*
X89432D01*
X88432Y228010D01*
Y226010D01*
X87432Y225011D01*
X86433D01*
X85433Y226010D01*
Y228010D01*
X86433Y229009D01*
X89432Y219012D02*
Y222012D01*
X88432Y223011D01*
X86433D01*
X85433Y222012D01*
Y219012D01*
X89432Y217013D02*
X85433D01*
X87432D01*
X88432Y216014D01*
X89432Y215014D01*
Y214014D01*
X85433Y208016D02*
Y210016D01*
X86433Y211015D01*
X88432D01*
X89432Y210016D01*
Y208016D01*
X88432Y207016D01*
X87432D01*
Y211015D01*
X85433Y202018D02*
Y204017D01*
X86433Y205017D01*
X88432D01*
X89432Y204017D01*
Y202018D01*
X88432Y201018D01*
X87432D01*
Y205017D01*
X85433Y199019D02*
X89432D01*
Y196020D01*
X88432Y195020D01*
X85433D01*
X304552Y87902D02*
Y83903D01*
X307552D01*
Y85902D01*
Y83903D01*
X310550D01*
Y89901D02*
X309551D01*
Y90900D01*
X310550D01*
Y89901D01*
X304552Y94899D02*
X310550D01*
Y98898D01*
Y100897D02*
X309551D01*
Y101897D01*
X310550D01*
Y100897D01*
X309848Y166634D02*
X315846D01*
X313847Y168633D01*
X315846Y170633D01*
X309848D01*
X315846Y172632D02*
X314847D01*
Y173632D01*
X315846D01*
Y172632D01*
X242005Y319217D02*
X241006Y320217D01*
X239006D01*
X238007Y319217D01*
Y315218D01*
X239006Y314219D01*
X241006D01*
X242005Y315218D01*
Y317218D01*
X240006D01*
X244005Y314219D02*
Y320217D01*
X248003Y314219D01*
Y320217D01*
X250003D02*
Y314219D01*
X253002D01*
X254001Y315218D01*
Y319217D01*
X253002Y320217D01*
X250003D01*
X268059Y319802D02*
X264061D01*
Y316803D01*
X266060Y317802D01*
X267060D01*
X268059Y316803D01*
Y314803D01*
X267060Y313804D01*
X265060D01*
X264061Y314803D01*
X270059Y319802D02*
Y315803D01*
X272058Y313804D01*
X274058Y315803D01*
Y319802D01*
X179041Y67062D02*
X185039D01*
Y70061D01*
X184040Y71061D01*
X180041D01*
X179041Y70061D01*
Y67062D01*
X181041Y74060D02*
Y76059D01*
X182040Y77059D01*
X185039D01*
Y74060D01*
X184040Y73060D01*
X183040Y74060D01*
Y77059D01*
X185039Y79058D02*
Y82057D01*
X184040Y83057D01*
X183040Y82057D01*
Y80058D01*
X182040Y79058D01*
X181041Y80058D01*
Y83057D01*
X179041Y85056D02*
X185039D01*
X182040D01*
X181041Y86056D01*
Y88055D01*
X182040Y89055D01*
X185039D01*
X179041Y91054D02*
X185039D01*
Y94053D01*
X184040Y95053D01*
X183040D01*
X182040D01*
X181041Y94053D01*
Y91054D01*
X185039Y98052D02*
Y100051D01*
X184040Y101051D01*
X182040D01*
X181041Y100051D01*
Y98052D01*
X182040Y97052D01*
X184040D01*
X185039Y98052D01*
X181041Y104050D02*
Y106049D01*
X182040Y107049D01*
X185039D01*
Y104050D01*
X184040Y103050D01*
X183040Y104050D01*
Y107049D01*
X181041Y109048D02*
X185039D01*
X183040D01*
X182040Y110048D01*
X181041Y111048D01*
Y112047D01*
X179041Y119045D02*
X185039D01*
Y116046D01*
X184040Y115047D01*
X182040D01*
X181041Y116046D01*
Y119045D01*
X185039Y131041D02*
Y127043D01*
X181041Y131041D01*
X180041D01*
X179041Y130042D01*
Y128042D01*
X180041Y127043D01*
Y133041D02*
X179041Y134040D01*
Y136040D01*
X180041Y137039D01*
X184040D01*
X185039Y136040D01*
Y134040D01*
X184040Y133041D01*
X180041D01*
X185039Y143037D02*
Y139039D01*
X181041Y143037D01*
X180041D01*
X179041Y142038D01*
Y140038D01*
X180041Y139039D01*
Y145037D02*
X179041Y146036D01*
Y148036D01*
X180041Y149036D01*
X184040D01*
X185039Y148036D01*
Y146036D01*
X184040Y145037D01*
X180041D01*
X181041Y157033D02*
X185039Y159032D01*
X181041Y161032D01*
X185039Y167030D02*
Y163031D01*
X181041Y167030D01*
X180041D01*
X179041Y166030D01*
Y164031D01*
X180041Y163031D01*
X185039Y169029D02*
X184040D01*
Y170029D01*
X185039D01*
Y169029D01*
X180041Y174027D02*
X179041Y175027D01*
Y177026D01*
X180041Y178026D01*
X184040D01*
X185039Y177026D01*
Y175027D01*
X184040Y174027D01*
X180041D01*
X121912Y281692D02*
Y287690D01*
X124911D01*
X125910Y286690D01*
Y284691D01*
X124911Y283691D01*
X121912D01*
X131908Y281692D02*
X127910D01*
X131908Y285690D01*
Y286690D01*
X130909Y287690D01*
X128909D01*
X127910Y286690D01*
X294882Y49514D02*
Y55512D01*
X297881D01*
X298881Y54513D01*
Y52513D01*
X297881Y51514D01*
X294882D01*
X300880Y49514D02*
X302879D01*
X301880D01*
Y55512D01*
X300880Y54513D01*
X308877Y49514D02*
Y55512D01*
X305878Y52513D01*
X309877D01*
X270532Y73715D02*
Y67717D01*
X273531D01*
X274530Y68717D01*
Y69717D01*
X273531Y70716D01*
X270532D01*
X273531D01*
X274530Y71716D01*
Y72716D01*
X273531Y73715D01*
X270532D01*
X276530Y71716D02*
Y67717D01*
Y69717D01*
X277529Y70716D01*
X278529Y71716D01*
X279529D01*
X282528Y67717D02*
Y68717D01*
X283527D01*
Y67717D01*
X282528D01*
X293524Y73715D02*
Y67717D01*
X297523D01*
X299522D02*
X301522D01*
X300522D01*
Y71716D01*
X299522D01*
X306520Y65718D02*
X307520D01*
X308519Y66718D01*
Y71716D01*
X305520D01*
X304521Y70716D01*
Y68717D01*
X305520Y67717D01*
X308519D01*
X310519Y73715D02*
Y67717D01*
Y70716D01*
X311518Y71716D01*
X313518D01*
X314517Y70716D01*
Y67717D01*
X317516Y72716D02*
Y71716D01*
X316517D01*
X318516D01*
X317516D01*
Y68717D01*
X318516Y67717D01*
X255371Y264871D02*
X254372Y265871D01*
X252372D01*
X251373Y264871D01*
Y260872D01*
X252372Y259873D01*
X254372D01*
X255371Y260872D01*
X261369Y259873D02*
X257371D01*
X261369Y263872D01*
Y264871D01*
X260370Y265871D01*
X258370D01*
X257371Y264871D01*
X75185Y287933D02*
X81183D01*
Y284934D01*
X80183Y283934D01*
X78184D01*
X77184Y284934D01*
Y287933D01*
Y285933D02*
X75185Y283934D01*
Y277936D02*
Y281935D01*
X79184Y277936D01*
X80183D01*
X81183Y278936D01*
Y280935D01*
X80183Y281935D01*
X80846Y255596D02*
X81846Y256596D01*
Y258595D01*
X80846Y259595D01*
X76847D01*
X75848Y258595D01*
Y256596D01*
X76847Y255596D01*
X75848Y253597D02*
Y251598D01*
Y252597D01*
X81846D01*
X80846Y253597D01*
X284161Y229682D02*
Y235680D01*
X287160D01*
X288160Y234681D01*
Y232681D01*
X287160Y231682D01*
X284161D01*
X290159Y230682D02*
X291159Y229682D01*
X293158D01*
X294158Y230682D01*
Y234681D01*
X293158Y235680D01*
X291159D01*
X290159Y234681D01*
Y233681D01*
X291159Y232681D01*
X294158D01*
X181412Y288084D02*
X179412D01*
X180412D01*
Y283086D01*
X179412Y282086D01*
X178413D01*
X177413Y283086D01*
X183411Y282086D02*
X185410D01*
X184411D01*
Y288084D01*
X183411Y287085D01*
X303375Y140845D02*
Y146843D01*
X306374D01*
X307373Y145843D01*
Y143844D01*
X306374Y142844D01*
X303375D01*
X309373Y145843D02*
X310373Y146843D01*
X312372D01*
X313372Y145843D01*
Y144844D01*
X312372Y143844D01*
X313372Y142844D01*
Y141845D01*
X312372Y140845D01*
X310373D01*
X309373Y141845D01*
Y142844D01*
X310373Y143844D01*
X309373Y144844D01*
Y145843D01*
X310373Y143844D02*
X312372D01*
X305385Y211445D02*
Y217444D01*
X308384D01*
X309384Y216444D01*
Y214444D01*
X308384Y213445D01*
X305385D01*
X311383Y217444D02*
X315382D01*
Y216444D01*
X311383Y212445D01*
Y211445D01*
X268546Y171061D02*
Y166063D01*
X269546Y165063D01*
X271545D01*
X272545Y166063D01*
Y171061D01*
X274544Y170062D02*
X275544Y171061D01*
X277543D01*
X278543Y170062D01*
Y169062D01*
X277543Y168062D01*
X276543D01*
X277543D01*
X278543Y167063D01*
Y166063D01*
X277543Y165063D01*
X275544D01*
X274544Y166063D01*
X268341Y98575D02*
Y93577D01*
X269341Y92577D01*
X271340D01*
X272340Y93577D01*
Y98575D01*
X278338Y92577D02*
X274339D01*
X278338Y96576D01*
Y97576D01*
X277338Y98575D01*
X275339D01*
X274339Y97576D01*
X117598Y260010D02*
X112600D01*
X111600Y259010D01*
Y257011D01*
X112600Y256011D01*
X117598D01*
X111600Y254012D02*
Y252012D01*
Y253012D01*
X117598D01*
X116598Y254012D01*
X235871Y290696D02*
X229873D01*
Y293694D01*
X230873Y294694D01*
X232872D01*
X233872Y293694D01*
Y290696D01*
Y292695D02*
X235871Y294694D01*
Y296694D02*
Y298693D01*
Y297693D01*
X229873D01*
X230873Y296694D01*
X266363Y356988D02*
Y362986D01*
X269362D01*
X270361Y361987D01*
Y359987D01*
X269362Y358987D01*
X266363D01*
X276359Y362986D02*
X274360Y361987D01*
X272361Y359987D01*
Y357988D01*
X273360Y356988D01*
X275360D01*
X276359Y357988D01*
Y358987D01*
X275360Y359987D01*
X272361D01*
X103759Y213890D02*
X109757D01*
Y210891D01*
X108758Y209892D01*
X106758D01*
X105759Y210891D01*
Y213890D01*
X103759Y204893D02*
X109757D01*
X106758Y207892D01*
Y203893D01*
X231543Y282372D02*
Y288370D01*
X234542D01*
X235542Y287371D01*
Y285371D01*
X234542Y284372D01*
X231543D01*
X237541Y287371D02*
X238541Y288370D01*
X240540D01*
X241540Y287371D01*
Y286371D01*
X240540Y285371D01*
X239541D01*
X240540D01*
X241540Y284372D01*
Y283372D01*
X240540Y282372D01*
X238541D01*
X237541Y283372D01*
X217283Y338494D02*
Y344492D01*
X220282D01*
X221281Y343493D01*
Y341493D01*
X220282Y340494D01*
X217283D01*
X223281Y338494D02*
X225280D01*
X224280D01*
Y344492D01*
X223281Y343493D01*
X75340Y330639D02*
Y332638D01*
Y331639D01*
X70342D01*
X69342Y332638D01*
Y333638D01*
X70342Y334638D01*
X69342Y324641D02*
Y328640D01*
X73341Y324641D01*
X74341D01*
X75340Y325641D01*
Y327640D01*
X74341Y328640D01*
X237811Y356988D02*
Y362986D01*
X240810D01*
X241810Y361987D01*
Y359987D01*
X240810Y358987D01*
X237811D01*
X243809Y356988D02*
X245809D01*
X244809D01*
Y362986D01*
X243809Y361987D01*
X248808D02*
X249807Y362986D01*
X251807D01*
X252806Y361987D01*
Y357988D01*
X251807Y356988D01*
X249807D01*
X248808Y357988D01*
Y361987D01*
X98801Y65674D02*
X99801Y66674D01*
Y68673D01*
X98801Y69673D01*
X94803D01*
X93803Y68673D01*
Y66674D01*
X94803Y65674D01*
X98801Y63675D02*
X99801Y62675D01*
Y60676D01*
X98801Y59676D01*
X97802D01*
X96802Y60676D01*
Y61676D01*
Y60676D01*
X95802Y59676D01*
X94803D01*
X93803Y60676D01*
Y62675D01*
X94803Y63675D01*
X290748Y356988D02*
Y362986D01*
X293747D01*
X294747Y361987D01*
Y359987D01*
X293747Y358987D01*
X290748D01*
X296746Y356988D02*
X298745D01*
X297746D01*
Y362986D01*
X296746Y361987D01*
X301745Y356988D02*
X303744D01*
X302744D01*
Y362986D01*
X301745Y361987D01*
X287212Y318802D02*
X288212Y319802D01*
X290212D01*
X291211Y318802D01*
Y317802D01*
X290212Y316803D01*
X289212D01*
X290212D01*
X291211Y315803D01*
Y314803D01*
X290212Y313804D01*
X288212D01*
X287212Y314803D01*
X293211Y319802D02*
Y315803D01*
X295210Y313804D01*
X297209Y315803D01*
Y319802D01*
X299209Y318802D02*
X300208Y319802D01*
X302208D01*
X303207Y318802D01*
Y317802D01*
X302208Y316803D01*
X301208D01*
X302208D01*
X303207Y315803D01*
Y314803D01*
X302208Y313804D01*
X300208D01*
X299209Y314803D01*
X102400Y174257D02*
X108398D01*
Y171257D01*
X107398Y170258D01*
X105399D01*
X104400Y171257D01*
Y174257D01*
X102400Y168258D02*
Y166259D01*
Y167259D01*
X108398D01*
X107398Y168258D01*
X102400Y159261D02*
Y163260D01*
X106399Y159261D01*
X107398D01*
X108398Y160261D01*
Y162260D01*
X107398Y163260D01*
X91104Y182707D02*
X85106D01*
X87106Y180708D01*
X85106Y178708D01*
X91104D01*
X85106Y176709D02*
Y174710D01*
Y175709D01*
X89105D01*
Y176709D01*
X83107Y171711D02*
X89105D01*
Y168712D01*
X88105Y167712D01*
X86106D01*
X85106Y168712D01*
Y171711D01*
Y162714D02*
Y164713D01*
X86106Y165713D01*
X88105D01*
X89105Y164713D01*
Y162714D01*
X88105Y161714D01*
X87106D01*
Y165713D01*
X89105Y159715D02*
X85106D01*
X87106D01*
X88105Y158715D01*
X89105Y157715D01*
Y156716D01*
X95656Y38765D02*
X94656Y39765D01*
X92657D01*
X91657Y38765D01*
Y37765D01*
X92657Y36766D01*
X94656D01*
X95656Y35766D01*
Y34767D01*
X94656Y33767D01*
X92657D01*
X91657Y34767D01*
X97655Y33767D02*
X99655D01*
X98655D01*
Y39765D01*
X97655Y38765D01*
X103095Y141651D02*
X109093D01*
Y138652D01*
X108094Y137652D01*
X106094D01*
X105095Y138652D01*
Y141651D01*
X103095Y135652D02*
Y133653D01*
Y134653D01*
X109093D01*
X108094Y135652D01*
Y130654D02*
X109093Y129654D01*
Y127655D01*
X108094Y126655D01*
X107094D01*
X106094Y127655D01*
Y128655D01*
Y127655D01*
X105095Y126655D01*
X104095D01*
X103095Y127655D01*
Y129654D01*
X104095Y130654D01*
X85106Y149460D02*
X91104D01*
Y146461D01*
X90105Y145461D01*
X88105D01*
X87106Y146461D01*
Y149460D01*
Y147461D02*
X85106Y145461D01*
Y140463D02*
Y142462D01*
X86106Y143462D01*
X88105D01*
X89105Y142462D01*
Y140463D01*
X88105Y139463D01*
X87106D01*
Y143462D01*
X85106Y137464D02*
Y134465D01*
X86106Y133465D01*
X87106Y134465D01*
Y136464D01*
X88105Y137464D01*
X89105Y136464D01*
Y133465D01*
X85106Y128467D02*
Y130466D01*
X86106Y131466D01*
X88105D01*
X89105Y130466D01*
Y128467D01*
X88105Y127467D01*
X87106D01*
Y131466D01*
X90105Y124468D02*
X89105D01*
Y125468D01*
Y123469D01*
Y124468D01*
X86106D01*
X85106Y123469D01*
X101871Y103522D02*
X107869D01*
Y100523D01*
X106869Y99523D01*
X104870D01*
X103870Y100523D01*
Y103522D01*
X107869Y93525D02*
Y97524D01*
X104870D01*
X105869Y95524D01*
Y94525D01*
X104870Y93525D01*
X102870D01*
X101871Y94525D01*
Y96524D01*
X102870Y97524D01*
X91104Y114257D02*
X85106D01*
X88105D01*
Y110258D01*
X91104D01*
X85106D01*
Y108258D02*
X86106D01*
Y107259D01*
X85106D01*
Y108258D01*
X91104Y103260D02*
X85106D01*
Y99261D01*
Y97262D02*
Y95263D01*
Y96262D01*
X89105D01*
Y97262D01*
X83107Y90264D02*
Y89265D01*
X84106Y88265D01*
X89105D01*
Y91264D01*
X88105Y92264D01*
X86106D01*
X85106Y91264D01*
Y88265D01*
X91104Y86266D02*
X85106D01*
X88105D01*
X89105Y85266D01*
Y83267D01*
X88105Y82267D01*
X85106D01*
X90105Y79268D02*
X89105D01*
Y80268D01*
Y78268D01*
Y79268D01*
X86106D01*
X85106Y78268D01*
Y75269D02*
Y72270D01*
X86106Y71270D01*
X87106Y72270D01*
Y74269D01*
X88105Y75269D01*
X89105Y74269D01*
Y71270D01*
D13*
X108243Y253310D02*
Y265909D01*
X88558Y253310D02*
Y265909D01*
X108243D01*
X88558Y253310D02*
X108243D01*
X287362Y355051D02*
X307362D01*
X287362Y325051D02*
X307362D01*
X287362D02*
Y355051D01*
X307362Y325051D02*
Y355051D01*
Y335884D02*
Y355051D01*
X235000D02*
X255000D01*
X235000Y325051D02*
X255000D01*
X235000D02*
Y355051D01*
X255000Y325051D02*
Y355051D01*
Y335884D02*
Y355051D01*
X261153D02*
X281153D01*
X261153Y325051D02*
X281153D01*
X261153D02*
Y355051D01*
X281153Y325051D02*
Y355051D01*
Y335884D02*
Y355051D01*
X147661Y278841D02*
X217661D01*
Y38841D02*
Y278841D01*
X147661Y38841D02*
X217661D01*
X147661D02*
Y278841D01*
X177661Y273841D02*
Y278841D01*
Y273841D02*
X187661D01*
Y278841D01*
X240933Y38965D02*
Y271465D01*
Y278965D01*
X230933D02*
X240933D01*
X230933Y38965D02*
Y278965D01*
Y38965D02*
X240933D01*
X131258Y38277D02*
Y270777D01*
Y278277D01*
X121258D02*
X131258D01*
X121258Y38277D02*
Y278277D01*
Y38277D02*
X131258D01*
X226682Y305051D02*
Y335051D01*
X216682D02*
X226682D01*
X216682Y305051D02*
Y335051D01*
Y305051D02*
X226682D01*
M02*
