G04*
G04 #@! TF.GenerationSoftware,Altium Limited,Altium Designer,19.1.8 (144)*
G04*
G04 Layer_Color=65535*
%FSLAX25Y25*%
%MOIN*%
G70*
G01*
G75*
%ADD10C,0.02362*%
%ADD11C,0.00984*%
%ADD12C,0.01000*%
%ADD13C,0.00787*%
G36*
X324385Y300899D02*
X326138D01*
Y300606D01*
X327892D01*
Y300314D01*
X329645D01*
Y300022D01*
X331399D01*
Y299729D01*
X333153D01*
Y299437D01*
X331399D01*
Y299145D01*
X329645D01*
Y298853D01*
X327892D01*
Y298560D01*
X326138D01*
Y298268D01*
X324385D01*
Y297976D01*
X323800D01*
Y298268D01*
X322046D01*
Y298560D01*
X320293D01*
Y298853D01*
X318539D01*
Y299145D01*
X316786D01*
Y299437D01*
X315032D01*
Y299729D01*
X316786D01*
Y300022D01*
X318539D01*
Y300314D01*
X320293D01*
Y300606D01*
X322046D01*
Y300899D01*
X323800D01*
Y301191D01*
X324385D01*
Y300899D01*
D02*
G37*
G36*
X340459Y294176D02*
X340167D01*
Y293884D01*
X339875D01*
Y293592D01*
X339583D01*
Y293300D01*
X339290D01*
Y293007D01*
X338998D01*
Y292715D01*
Y292423D01*
X338706D01*
Y292130D01*
X338414D01*
Y291838D01*
X338121D01*
Y291546D01*
X337829D01*
Y291254D01*
X337537D01*
Y290961D01*
Y290669D01*
X337245D01*
Y290377D01*
X336952D01*
Y290085D01*
X336660D01*
Y289792D01*
X336368D01*
Y289500D01*
X336075D01*
Y289208D01*
Y288915D01*
X335783D01*
Y288623D01*
X335491D01*
Y288331D01*
X335199D01*
Y288039D01*
X334906D01*
Y287746D01*
X334614D01*
Y287454D01*
Y287162D01*
X334322D01*
Y286870D01*
X334030D01*
Y286577D01*
X333737D01*
Y286285D01*
Y285993D01*
Y285700D01*
X333445D01*
Y285408D01*
Y285116D01*
X333153D01*
Y284824D01*
Y284531D01*
Y284239D01*
X332860D01*
Y283947D01*
Y283655D01*
X332568D01*
Y283362D01*
Y283070D01*
Y282778D01*
X332276D01*
Y282486D01*
Y282193D01*
X331984D01*
Y281901D01*
Y281609D01*
Y281316D01*
X331691D01*
Y281024D01*
Y280732D01*
X331399D01*
Y280440D01*
Y280147D01*
Y279855D01*
X331107D01*
Y279563D01*
Y279271D01*
X330815D01*
Y278978D01*
Y278686D01*
Y278394D01*
X330522D01*
Y278101D01*
Y277809D01*
X330230D01*
Y277517D01*
Y277225D01*
Y276932D01*
X329938D01*
Y276640D01*
Y276348D01*
X329645D01*
Y276056D01*
Y275763D01*
Y275471D01*
X329353D01*
Y275179D01*
Y274886D01*
X329061D01*
Y274594D01*
Y274302D01*
Y274010D01*
X328769D01*
Y274302D01*
Y274594D01*
Y274886D01*
Y275179D01*
Y275471D01*
Y275763D01*
X329061D01*
Y276056D01*
Y276348D01*
Y276640D01*
Y276932D01*
Y277225D01*
Y277517D01*
X329353D01*
Y277809D01*
Y278101D01*
Y278394D01*
Y278686D01*
Y278978D01*
Y279271D01*
X329645D01*
Y279563D01*
Y279855D01*
Y280147D01*
Y280440D01*
Y280732D01*
X329938D01*
Y281024D01*
Y281316D01*
Y281609D01*
Y281901D01*
Y282193D01*
Y282486D01*
X330230D01*
Y282778D01*
Y283070D01*
Y283362D01*
Y283655D01*
Y283947D01*
Y284239D01*
X330522D01*
Y284531D01*
Y284824D01*
Y285116D01*
Y285408D01*
Y285700D01*
Y285993D01*
X330815D01*
Y286285D01*
Y286577D01*
Y286870D01*
Y287162D01*
Y287454D01*
Y287746D01*
X331107D01*
Y288039D01*
Y288331D01*
Y288623D01*
Y288915D01*
X331691D01*
Y289208D01*
X331984D01*
Y289500D01*
X332568D01*
Y289792D01*
X332860D01*
Y290085D01*
X333445D01*
Y290377D01*
X333737D01*
Y290669D01*
X334322D01*
Y290961D01*
X334906D01*
Y291254D01*
X335199D01*
Y291546D01*
X335783D01*
Y291838D01*
X336075D01*
Y292130D01*
X336660D01*
Y292423D01*
X336952D01*
Y292715D01*
X337537D01*
Y293007D01*
X338121D01*
Y293300D01*
X338414D01*
Y293592D01*
X338998D01*
Y293884D01*
X339290D01*
Y294176D01*
X339875D01*
Y294469D01*
X340459D01*
Y294176D01*
D02*
G37*
G36*
X308310D02*
X308894D01*
Y293884D01*
X309187D01*
Y293592D01*
X309771D01*
Y293300D01*
X310063D01*
Y293007D01*
X310648D01*
Y292715D01*
X310940D01*
Y292423D01*
X311525D01*
Y292130D01*
X312109D01*
Y291838D01*
X312401D01*
Y291546D01*
X312986D01*
Y291254D01*
X313278D01*
Y290961D01*
X313863D01*
Y290669D01*
X314155D01*
Y290377D01*
X314740D01*
Y290085D01*
X315324D01*
Y289792D01*
X315616D01*
Y289500D01*
X316201D01*
Y289208D01*
X316493D01*
Y288915D01*
X317078D01*
Y288623D01*
Y288331D01*
Y288039D01*
Y287746D01*
X317370D01*
Y287454D01*
Y287162D01*
Y286870D01*
Y286577D01*
Y286285D01*
Y285993D01*
X317662D01*
Y285700D01*
Y285408D01*
Y285116D01*
Y284824D01*
Y284531D01*
Y284239D01*
X317955D01*
Y283947D01*
Y283655D01*
Y283362D01*
Y283070D01*
Y282778D01*
Y282486D01*
X318247D01*
Y282193D01*
Y281901D01*
Y281609D01*
Y281316D01*
Y281024D01*
Y280732D01*
X318539D01*
Y280440D01*
Y280147D01*
Y279855D01*
Y279563D01*
Y279271D01*
Y278978D01*
X318831D01*
Y278686D01*
Y278394D01*
Y278101D01*
Y277809D01*
Y277517D01*
Y277225D01*
X319124D01*
Y276932D01*
Y276640D01*
Y276348D01*
Y276056D01*
Y275763D01*
Y275471D01*
X319416D01*
Y275179D01*
Y274886D01*
Y274594D01*
Y274302D01*
Y274010D01*
X319124D01*
Y274302D01*
Y274594D01*
X318831D01*
Y274886D01*
Y275179D01*
Y275471D01*
X318539D01*
Y275763D01*
Y276056D01*
X318247D01*
Y276348D01*
Y276640D01*
Y276932D01*
X317955D01*
Y277225D01*
Y277517D01*
X317662D01*
Y277809D01*
Y278101D01*
Y278394D01*
X317370D01*
Y278686D01*
Y278978D01*
X317078D01*
Y279271D01*
Y279563D01*
Y279855D01*
X316786D01*
Y280147D01*
Y280440D01*
X316493D01*
Y280732D01*
Y281024D01*
Y281316D01*
X316201D01*
Y281609D01*
Y281901D01*
X315909D01*
Y282193D01*
Y282486D01*
Y282778D01*
X315616D01*
Y283070D01*
Y283362D01*
X315324D01*
Y283655D01*
Y283947D01*
Y284239D01*
X315032D01*
Y284531D01*
Y284824D01*
X314740D01*
Y285116D01*
Y285408D01*
Y285700D01*
X314447D01*
Y285993D01*
Y286285D01*
X314155D01*
Y286577D01*
Y286870D01*
X313863D01*
Y287162D01*
X313570D01*
Y287454D01*
Y287746D01*
X313278D01*
Y288039D01*
X312986D01*
Y288331D01*
X312694D01*
Y288623D01*
X312401D01*
Y288915D01*
X312109D01*
Y289208D01*
Y289500D01*
X311817D01*
Y289792D01*
X311525D01*
Y290085D01*
X311232D01*
Y290377D01*
X310940D01*
Y290669D01*
X310648D01*
Y290961D01*
Y291254D01*
X310355D01*
Y291546D01*
X310063D01*
Y291838D01*
X309771D01*
Y292130D01*
X309479D01*
Y292423D01*
X309187D01*
Y292715D01*
Y293007D01*
X308894D01*
Y293300D01*
X308602D01*
Y293592D01*
X308310D01*
Y293884D01*
X308017D01*
Y294176D01*
X307725D01*
Y294469D01*
X308310D01*
Y294176D01*
D02*
G37*
G36*
X339583Y297684D02*
X338998D01*
Y297391D01*
X338706D01*
Y297099D01*
X338121D01*
Y296807D01*
X337829D01*
Y296515D01*
X337245D01*
Y296222D01*
X336952D01*
Y295930D01*
X336368D01*
Y295638D01*
X336075D01*
Y295345D01*
X335491D01*
Y295053D01*
X335199D01*
Y294761D01*
X334614D01*
Y294469D01*
X334030D01*
Y294176D01*
X333737D01*
Y293884D01*
X333153D01*
Y293592D01*
X332860D01*
Y293300D01*
X332276D01*
Y293007D01*
X331984D01*
Y292715D01*
X331399D01*
Y292423D01*
X331107D01*
Y292130D01*
X330522D01*
Y291838D01*
X330230D01*
Y291546D01*
X329645D01*
Y291254D01*
X329353D01*
Y290961D01*
X328769D01*
Y290669D01*
Y290377D01*
Y290085D01*
X328476D01*
Y289792D01*
Y289500D01*
Y289208D01*
Y288915D01*
Y288623D01*
Y288331D01*
X328184D01*
Y288039D01*
Y287746D01*
Y287454D01*
Y287162D01*
Y286870D01*
Y286577D01*
Y286285D01*
X327892D01*
Y285993D01*
Y285700D01*
Y285408D01*
Y285116D01*
Y284824D01*
Y284531D01*
X327600D01*
Y284239D01*
Y283947D01*
Y283655D01*
Y283362D01*
Y283070D01*
Y282778D01*
X327307D01*
Y282486D01*
Y282193D01*
Y281901D01*
Y281609D01*
Y281316D01*
Y281024D01*
Y280732D01*
X327015D01*
Y280440D01*
Y280147D01*
Y279855D01*
Y279563D01*
Y279271D01*
Y278978D01*
X326723D01*
Y278686D01*
Y278394D01*
Y278101D01*
Y277809D01*
Y277517D01*
Y277225D01*
Y276932D01*
X326431D01*
Y276640D01*
Y276348D01*
Y276056D01*
Y275763D01*
Y275471D01*
Y275179D01*
X326138D01*
Y274886D01*
Y274594D01*
Y274302D01*
Y274010D01*
Y273717D01*
Y273425D01*
X325846D01*
Y273133D01*
Y272840D01*
Y272548D01*
Y272256D01*
Y271964D01*
Y271671D01*
Y271379D01*
X325554D01*
Y271087D01*
Y270795D01*
Y270502D01*
Y270210D01*
Y269918D01*
Y269625D01*
X325261D01*
Y269918D01*
Y270210D01*
Y270502D01*
Y270795D01*
Y271087D01*
Y271379D01*
Y271671D01*
Y271964D01*
Y272256D01*
Y272548D01*
Y272840D01*
Y273133D01*
Y273425D01*
Y273717D01*
Y274010D01*
Y274302D01*
Y274594D01*
Y274886D01*
Y275179D01*
Y275471D01*
Y275763D01*
Y276056D01*
Y276348D01*
Y276640D01*
Y276932D01*
Y277225D01*
Y277517D01*
Y277809D01*
Y278101D01*
Y278394D01*
Y278686D01*
Y278978D01*
Y279271D01*
Y279563D01*
Y279855D01*
Y280147D01*
Y280440D01*
Y280732D01*
Y281024D01*
Y281316D01*
Y281609D01*
Y281901D01*
Y282193D01*
Y282486D01*
Y282778D01*
Y283070D01*
Y283362D01*
Y283655D01*
Y283947D01*
Y284239D01*
Y284531D01*
Y284824D01*
Y285116D01*
Y285408D01*
Y285700D01*
Y285993D01*
Y286285D01*
Y286577D01*
Y286870D01*
Y287162D01*
Y287454D01*
Y287746D01*
Y288039D01*
Y288331D01*
Y288623D01*
Y288915D01*
Y289208D01*
Y289500D01*
Y289792D01*
Y290085D01*
Y290377D01*
Y290669D01*
Y290961D01*
Y291254D01*
Y291546D01*
Y291838D01*
Y292130D01*
Y292423D01*
Y292715D01*
Y293007D01*
Y293300D01*
Y293592D01*
Y293884D01*
Y294176D01*
Y294469D01*
Y294761D01*
Y295053D01*
Y295345D01*
Y295638D01*
X325554D01*
Y295930D01*
X327307D01*
Y296222D01*
X329061D01*
Y296515D01*
X330815D01*
Y296807D01*
X332568D01*
Y297099D01*
X334322D01*
Y297391D01*
X336368D01*
Y297684D01*
X338121D01*
Y297976D01*
X339583D01*
Y297684D01*
D02*
G37*
G36*
X310063D02*
X311817D01*
Y297391D01*
X313570D01*
Y297099D01*
X315616D01*
Y296807D01*
X317370D01*
Y296515D01*
X319124D01*
Y296222D01*
X320877D01*
Y295930D01*
X322631D01*
Y295638D01*
X322923D01*
Y295345D01*
Y295053D01*
Y294761D01*
Y294469D01*
Y294176D01*
Y293884D01*
Y293592D01*
Y293300D01*
Y293007D01*
Y292715D01*
Y292423D01*
Y292130D01*
Y291838D01*
Y291546D01*
Y291254D01*
Y290961D01*
Y290669D01*
Y290377D01*
Y290085D01*
Y289792D01*
Y289500D01*
Y289208D01*
Y288915D01*
Y288623D01*
Y288331D01*
Y288039D01*
Y287746D01*
Y287454D01*
Y287162D01*
Y286870D01*
Y286577D01*
Y286285D01*
Y285993D01*
Y285700D01*
Y285408D01*
Y285116D01*
Y284824D01*
Y284531D01*
Y284239D01*
Y283947D01*
Y283655D01*
Y283362D01*
Y283070D01*
Y282778D01*
Y282486D01*
Y282193D01*
Y281901D01*
Y281609D01*
Y281316D01*
Y281024D01*
Y280732D01*
Y280440D01*
Y280147D01*
Y279855D01*
Y279563D01*
Y279271D01*
Y278978D01*
Y278686D01*
Y278394D01*
Y278101D01*
Y277809D01*
Y277517D01*
Y277225D01*
Y276932D01*
Y276640D01*
Y276348D01*
Y276056D01*
Y275763D01*
Y275471D01*
Y275179D01*
Y274886D01*
Y274594D01*
Y274302D01*
Y274010D01*
Y273717D01*
Y273425D01*
Y273133D01*
Y272840D01*
Y272548D01*
Y272256D01*
Y271964D01*
Y271671D01*
Y271379D01*
Y271087D01*
Y270795D01*
Y270502D01*
Y270210D01*
Y269918D01*
Y269625D01*
Y269333D01*
X322631D01*
Y269625D01*
Y269918D01*
Y270210D01*
Y270502D01*
Y270795D01*
Y271087D01*
Y271379D01*
X322339D01*
Y271671D01*
Y271964D01*
Y272256D01*
Y272548D01*
Y272840D01*
Y273133D01*
X322046D01*
Y273425D01*
Y273717D01*
Y274010D01*
Y274302D01*
Y274594D01*
Y274886D01*
Y275179D01*
X321754D01*
Y275471D01*
Y275763D01*
Y276056D01*
Y276348D01*
Y276640D01*
Y276932D01*
X321462D01*
Y277225D01*
Y277517D01*
Y277809D01*
Y278101D01*
Y278394D01*
Y278686D01*
X321170D01*
Y278978D01*
Y279271D01*
Y279563D01*
Y279855D01*
Y280147D01*
Y280440D01*
Y280732D01*
X320877D01*
Y281024D01*
Y281316D01*
Y281609D01*
Y281901D01*
Y282193D01*
Y282486D01*
X320585D01*
Y282778D01*
Y283070D01*
Y283362D01*
Y283655D01*
Y283947D01*
Y284239D01*
Y284531D01*
X320293D01*
Y284824D01*
Y285116D01*
Y285408D01*
Y285700D01*
Y285993D01*
Y286285D01*
X320001D01*
Y286577D01*
Y286870D01*
Y287162D01*
Y287454D01*
Y287746D01*
Y288039D01*
X319708D01*
Y288331D01*
Y288623D01*
Y288915D01*
Y289208D01*
Y289500D01*
Y289792D01*
Y290085D01*
X319416D01*
Y290377D01*
Y290669D01*
Y290961D01*
X318831D01*
Y291254D01*
X318539D01*
Y291546D01*
X317955D01*
Y291838D01*
X317662D01*
Y292130D01*
X317078D01*
Y292423D01*
X316786D01*
Y292715D01*
X316201D01*
Y293007D01*
X315909D01*
Y293300D01*
X315324D01*
Y293592D01*
X314740D01*
Y293884D01*
X314447D01*
Y294176D01*
X313863D01*
Y294469D01*
X313570D01*
Y294761D01*
X312986D01*
Y295053D01*
X312694D01*
Y295345D01*
X312109D01*
Y295638D01*
X311817D01*
Y295930D01*
X311232D01*
Y296222D01*
X310940D01*
Y296515D01*
X310355D01*
Y296807D01*
X310063D01*
Y297099D01*
X309479D01*
Y297391D01*
X309187D01*
Y297684D01*
X308602D01*
Y297976D01*
X310063D01*
Y297684D01*
D02*
G37*
G36*
X332380Y267673D02*
X332454D01*
X332630Y267654D01*
X332824Y267627D01*
X333027Y267580D01*
X333249Y267525D01*
X333462Y267451D01*
X333471D01*
X333490Y267441D01*
X333518Y267432D01*
X333555Y267414D01*
X333656Y267358D01*
X333786Y267293D01*
X333925Y267201D01*
X334073Y267090D01*
X334211Y266970D01*
X334341Y266822D01*
X334359Y266803D01*
X334396Y266748D01*
X334452Y266664D01*
X334526Y266544D01*
X334600Y266396D01*
X334683Y266211D01*
X334766Y266008D01*
X334831Y265776D01*
X334063Y265573D01*
Y265582D01*
X334054Y265591D01*
X334045Y265619D01*
X334036Y265656D01*
X334008Y265739D01*
X333971Y265850D01*
X333915Y265980D01*
X333851Y266100D01*
X333786Y266230D01*
X333703Y266341D01*
X333693Y266350D01*
X333666Y266387D01*
X333610Y266433D01*
X333545Y266498D01*
X333462Y266572D01*
X333351Y266646D01*
X333231Y266720D01*
X333092Y266785D01*
X333074Y266794D01*
X333027Y266812D01*
X332944Y266840D01*
X332833Y266877D01*
X332704Y266905D01*
X332556Y266933D01*
X332389Y266951D01*
X332213Y266960D01*
X332112D01*
X332065Y266951D01*
X332010D01*
X331871Y266942D01*
X331714Y266914D01*
X331538Y266886D01*
X331372Y266840D01*
X331205Y266775D01*
X331187Y266766D01*
X331131Y266748D01*
X331057Y266702D01*
X330965Y266655D01*
X330854Y266581D01*
X330733Y266507D01*
X330622Y266415D01*
X330521Y266313D01*
X330511Y266304D01*
X330474Y266267D01*
X330428Y266202D01*
X330373Y266128D01*
X330308Y266035D01*
X330243Y265924D01*
X330178Y265804D01*
X330114Y265675D01*
Y265666D01*
X330104Y265647D01*
X330095Y265619D01*
X330077Y265573D01*
X330058Y265517D01*
X330040Y265453D01*
X330012Y265379D01*
X329993Y265295D01*
X329947Y265101D01*
X329910Y264879D01*
X329882Y264648D01*
X329873Y264389D01*
Y264380D01*
Y264352D01*
Y264306D01*
X329882Y264250D01*
Y264176D01*
X329892Y264084D01*
X329901Y263991D01*
X329910Y263889D01*
X329947Y263658D01*
X329993Y263418D01*
X330067Y263177D01*
X330160Y262946D01*
Y262937D01*
X330178Y262918D01*
X330188Y262891D01*
X330215Y262854D01*
X330280Y262752D01*
X330382Y262622D01*
X330502Y262483D01*
X330650Y262345D01*
X330826Y262215D01*
X331020Y262095D01*
X331029D01*
X331048Y262086D01*
X331076Y262067D01*
X331122Y262049D01*
X331168Y262030D01*
X331233Y262012D01*
X331381Y261956D01*
X331566Y261910D01*
X331769Y261864D01*
X331991Y261827D01*
X332223Y261818D01*
X332315D01*
X332371Y261827D01*
X332426D01*
X332565Y261845D01*
X332731Y261864D01*
X332907Y261901D01*
X333101Y261956D01*
X333296Y262021D01*
X333305D01*
X333323Y262030D01*
X333342Y262039D01*
X333379Y262058D01*
X333481Y262104D01*
X333592Y262160D01*
X333721Y262224D01*
X333860Y262298D01*
X333989Y262382D01*
X334100Y262474D01*
Y263677D01*
X332213D01*
Y264435D01*
X334933D01*
Y262058D01*
X334924Y262049D01*
X334905Y262039D01*
X334868Y262012D01*
X334822Y261975D01*
X334766Y261938D01*
X334702Y261891D01*
X334618Y261836D01*
X334535Y261781D01*
X334341Y261660D01*
X334119Y261531D01*
X333888Y261410D01*
X333638Y261309D01*
X333629D01*
X333610Y261299D01*
X333573Y261290D01*
X333527Y261272D01*
X333462Y261253D01*
X333388Y261226D01*
X333305Y261207D01*
X333222Y261189D01*
X333018Y261142D01*
X332787Y261096D01*
X332537Y261068D01*
X332278Y261059D01*
X332186D01*
X332121Y261068D01*
X332038D01*
X331936Y261077D01*
X331825Y261096D01*
X331705Y261105D01*
X331436Y261161D01*
X331150Y261226D01*
X330854Y261327D01*
X330706Y261383D01*
X330558Y261457D01*
X330548Y261466D01*
X330521Y261475D01*
X330484Y261503D01*
X330428Y261531D01*
X330363Y261577D01*
X330299Y261623D01*
X330123Y261753D01*
X329938Y261919D01*
X329744Y262123D01*
X329559Y262354D01*
X329392Y262622D01*
Y262631D01*
X329374Y262659D01*
X329355Y262696D01*
X329327Y262761D01*
X329300Y262826D01*
X329272Y262918D01*
X329235Y263011D01*
X329198Y263122D01*
X329161Y263242D01*
X329124Y263381D01*
X329096Y263520D01*
X329068Y263667D01*
X329022Y263991D01*
X329004Y264333D01*
Y264343D01*
Y264380D01*
Y264426D01*
X329013Y264491D01*
Y264574D01*
X329022Y264676D01*
X329041Y264777D01*
X329050Y264898D01*
X329078Y265027D01*
X329096Y265166D01*
X329170Y265462D01*
X329263Y265767D01*
X329392Y266072D01*
X329401Y266082D01*
X329411Y266109D01*
X329429Y266146D01*
X329466Y266202D01*
X329503Y266276D01*
X329549Y266350D01*
X329679Y266526D01*
X329836Y266729D01*
X330030Y266923D01*
X330252Y267118D01*
X330382Y267201D01*
X330511Y267284D01*
X330521Y267293D01*
X330548Y267303D01*
X330585Y267321D01*
X330641Y267349D01*
X330715Y267377D01*
X330798Y267414D01*
X330891Y267451D01*
X331002Y267488D01*
X331122Y267525D01*
X331251Y267552D01*
X331390Y267589D01*
X331538Y267617D01*
X331862Y267664D01*
X332028Y267682D01*
X332324D01*
X332380Y267673D01*
D02*
G37*
G36*
X319347Y261170D02*
X318468D01*
X315119Y266193D01*
Y261170D01*
X314305D01*
Y267571D01*
X315175D01*
X318533Y262539D01*
Y267571D01*
X319347D01*
Y261170D01*
D02*
G37*
G36*
X323472D02*
X322584D01*
X320105Y267571D01*
X321030D01*
X322695Y262918D01*
Y262909D01*
X322704Y262891D01*
X322714Y262863D01*
X322732Y262826D01*
X322741Y262770D01*
X322760Y262715D01*
X322806Y262576D01*
X322862Y262419D01*
X322917Y262243D01*
X323028Y261873D01*
Y261882D01*
X323037Y261901D01*
X323047Y261929D01*
X323056Y261965D01*
X323084Y262067D01*
X323130Y262206D01*
X323176Y262363D01*
X323232Y262539D01*
X323296Y262724D01*
X323370Y262918D01*
X325109Y267571D01*
X325970D01*
X323472Y261170D01*
D02*
G37*
G36*
X336996Y261929D02*
X340150D01*
Y261170D01*
X336145D01*
Y267571D01*
X336996D01*
Y261929D01*
D02*
G37*
G36*
X310485Y267562D02*
X310670Y267552D01*
X310855Y267534D01*
X311040Y267506D01*
X311197Y267478D01*
X311207D01*
X311225Y267469D01*
X311253D01*
X311290Y267451D01*
X311392Y267423D01*
X311521Y267377D01*
X311669Y267312D01*
X311826Y267229D01*
X311984Y267136D01*
X312132Y267016D01*
X312141Y267007D01*
X312150Y266997D01*
X312178Y266970D01*
X312215Y266942D01*
X312307Y266849D01*
X312418Y266720D01*
X312539Y266563D01*
X312668Y266378D01*
X312788Y266165D01*
X312890Y265924D01*
Y265915D01*
X312899Y265897D01*
X312918Y265860D01*
X312927Y265804D01*
X312955Y265739D01*
X312973Y265666D01*
X312992Y265582D01*
X313020Y265480D01*
X313047Y265379D01*
X313066Y265258D01*
X313112Y264999D01*
X313140Y264713D01*
X313149Y264398D01*
Y264389D01*
Y264370D01*
Y264324D01*
Y264278D01*
X313140Y264213D01*
Y264139D01*
X313131Y263964D01*
X313103Y263760D01*
X313075Y263547D01*
X313029Y263325D01*
X312973Y263103D01*
Y263094D01*
X312964Y263075D01*
X312955Y263048D01*
X312946Y263011D01*
X312909Y262909D01*
X312853Y262779D01*
X312798Y262631D01*
X312724Y262483D01*
X312631Y262326D01*
X312539Y262178D01*
X312529Y262160D01*
X312492Y262113D01*
X312437Y262049D01*
X312363Y261965D01*
X312280Y261873D01*
X312178Y261781D01*
X312076Y261679D01*
X311956Y261595D01*
X311937Y261586D01*
X311900Y261558D01*
X311836Y261522D01*
X311743Y261475D01*
X311632Y261420D01*
X311503Y261373D01*
X311355Y261318D01*
X311188Y261272D01*
X311170D01*
X311142Y261262D01*
X311114Y261253D01*
X311022Y261244D01*
X310892Y261226D01*
X310744Y261207D01*
X310568Y261189D01*
X310374Y261179D01*
X310161Y261170D01*
X307858D01*
Y267571D01*
X310319D01*
X310485Y267562D01*
D02*
G37*
G36*
X325202Y258881D02*
X324416D01*
Y259779D01*
X325202D01*
Y258881D01*
D02*
G37*
G36*
X345672Y258114D02*
X345774Y258095D01*
X345894Y258058D01*
X346024Y258012D01*
X346172Y257947D01*
X346329Y257864D01*
X346042Y257142D01*
X346033Y257152D01*
X345996Y257170D01*
X345940Y257198D01*
X345866Y257226D01*
X345783Y257254D01*
X345681Y257281D01*
X345580Y257300D01*
X345478Y257309D01*
X345432D01*
X345385Y257300D01*
X345321Y257291D01*
X345256Y257272D01*
X345173Y257244D01*
X345089Y257207D01*
X345015Y257152D01*
X345006Y257142D01*
X344978Y257124D01*
X344951Y257087D01*
X344904Y257041D01*
X344858Y256976D01*
X344812Y256902D01*
X344766Y256819D01*
X344729Y256717D01*
X344719Y256698D01*
X344710Y256643D01*
X344692Y256560D01*
X344664Y256449D01*
X344636Y256310D01*
X344618Y256153D01*
X344608Y255986D01*
X344599Y255801D01*
Y253378D01*
X343813D01*
Y258021D01*
X344525D01*
Y257318D01*
X344534Y257328D01*
X344571Y257392D01*
X344618Y257475D01*
X344692Y257577D01*
X344766Y257679D01*
X344849Y257790D01*
X344932Y257882D01*
X345015Y257957D01*
X345025Y257966D01*
X345052Y257984D01*
X345108Y258012D01*
X345163Y258040D01*
X345237Y258067D01*
X345330Y258095D01*
X345422Y258114D01*
X345524Y258123D01*
X345589D01*
X345672Y258114D01*
D02*
G37*
G36*
X310753Y253378D02*
X310050D01*
Y254053D01*
X310041Y254044D01*
X310023Y254016D01*
X309995Y253979D01*
X309949Y253933D01*
X309893Y253877D01*
X309828Y253803D01*
X309754Y253738D01*
X309662Y253664D01*
X309560Y253590D01*
X309449Y253526D01*
X309329Y253461D01*
X309199Y253396D01*
X309051Y253350D01*
X308903Y253313D01*
X308737Y253285D01*
X308570Y253276D01*
X308506D01*
X308422Y253285D01*
X308321Y253294D01*
X308200Y253313D01*
X308071Y253341D01*
X307941Y253378D01*
X307803Y253433D01*
X307784Y253443D01*
X307747Y253461D01*
X307682Y253498D01*
X307608Y253544D01*
X307516Y253600D01*
X307433Y253664D01*
X307349Y253738D01*
X307275Y253822D01*
X307266Y253831D01*
X307248Y253868D01*
X307220Y253914D01*
X307183Y253988D01*
X307137Y254071D01*
X307100Y254173D01*
X307063Y254284D01*
X307035Y254404D01*
Y254414D01*
X307026Y254451D01*
X307016Y254506D01*
Y254580D01*
X307007Y254691D01*
X306998Y254812D01*
X306989Y254969D01*
Y255145D01*
Y258021D01*
X307775D01*
Y255440D01*
Y255431D01*
Y255413D01*
Y255385D01*
Y255339D01*
Y255237D01*
X307784Y255107D01*
Y254969D01*
X307793Y254830D01*
X307803Y254710D01*
X307821Y254608D01*
Y254599D01*
X307840Y254562D01*
X307858Y254506D01*
X307886Y254432D01*
X307932Y254358D01*
X307988Y254275D01*
X308052Y254201D01*
X308136Y254127D01*
X308145Y254118D01*
X308182Y254099D01*
X308228Y254071D01*
X308302Y254044D01*
X308385Y254007D01*
X308487Y253979D01*
X308598Y253960D01*
X308728Y253951D01*
X308792D01*
X308857Y253960D01*
X308940Y253970D01*
X309042Y253997D01*
X309153Y254025D01*
X309273Y254071D01*
X309394Y254127D01*
X309412Y254136D01*
X309449Y254164D01*
X309505Y254201D01*
X309569Y254257D01*
X309643Y254330D01*
X309717Y254414D01*
X309782Y254506D01*
X309838Y254617D01*
X309847Y254636D01*
X309856Y254673D01*
X309875Y254747D01*
X309902Y254849D01*
X309930Y254978D01*
X309949Y255135D01*
X309958Y255320D01*
X309967Y255533D01*
Y258021D01*
X310753D01*
Y253378D01*
D02*
G37*
G36*
X332167Y257485D02*
X332176Y257494D01*
X332195Y257512D01*
X332223Y257540D01*
X332269Y257587D01*
X332315Y257633D01*
X332380Y257688D01*
X332463Y257744D01*
X332546Y257808D01*
X332639Y257864D01*
X332741Y257920D01*
X332981Y258021D01*
X333111Y258067D01*
X333249Y258095D01*
X333397Y258114D01*
X333545Y258123D01*
X333629D01*
X333730Y258114D01*
X333851Y258095D01*
X333989Y258077D01*
X334137Y258040D01*
X334285Y257984D01*
X334433Y257920D01*
X334452Y257910D01*
X334498Y257882D01*
X334563Y257836D01*
X334646Y257771D01*
X334729Y257688D01*
X334822Y257596D01*
X334905Y257485D01*
X334979Y257355D01*
X334988Y257337D01*
X335007Y257291D01*
X335035Y257207D01*
X335062Y257087D01*
X335090Y256939D01*
X335118Y256763D01*
X335136Y256551D01*
X335146Y256310D01*
Y253378D01*
X334359D01*
Y256319D01*
Y256329D01*
Y256347D01*
Y256375D01*
Y256412D01*
X334350Y256514D01*
X334332Y256643D01*
X334295Y256782D01*
X334248Y256921D01*
X334184Y257059D01*
X334100Y257170D01*
X334091Y257179D01*
X334054Y257217D01*
X333999Y257263D01*
X333915Y257309D01*
X333814Y257365D01*
X333693Y257401D01*
X333545Y257438D01*
X333379Y257448D01*
X333323D01*
X333259Y257438D01*
X333166Y257429D01*
X333074Y257401D01*
X332963Y257374D01*
X332852Y257328D01*
X332731Y257263D01*
X332722Y257254D01*
X332685Y257226D01*
X332630Y257189D01*
X332565Y257133D01*
X332491Y257059D01*
X332417Y256976D01*
X332352Y256874D01*
X332297Y256763D01*
X332287Y256745D01*
X332278Y256708D01*
X332260Y256634D01*
X332232Y256541D01*
X332204Y256421D01*
X332186Y256273D01*
X332176Y256106D01*
X332167Y255912D01*
Y253378D01*
X331381D01*
Y259779D01*
X332167D01*
Y257485D01*
D02*
G37*
G36*
X325202Y253378D02*
X324416D01*
Y258021D01*
X325202D01*
Y253378D01*
D02*
G37*
G36*
X323417Y259020D02*
X319939D01*
Y257041D01*
X322945D01*
Y256282D01*
X319939D01*
Y253378D01*
X319088D01*
Y259779D01*
X323417D01*
Y259020D01*
D02*
G37*
G36*
X317728Y253378D02*
X316942D01*
Y259779D01*
X317728D01*
Y253378D01*
D02*
G37*
G36*
X306008Y259020D02*
X302530D01*
Y257041D01*
X305536D01*
Y256282D01*
X302530D01*
Y253378D01*
X301679D01*
Y259779D01*
X306008D01*
Y259020D01*
D02*
G37*
G36*
X337273Y258021D02*
X338069D01*
Y257411D01*
X337273D01*
Y254682D01*
Y254663D01*
Y254626D01*
Y254571D01*
X337282Y254506D01*
X337292Y254358D01*
X337301Y254293D01*
X337310Y254247D01*
X337319Y254229D01*
X337347Y254192D01*
X337384Y254146D01*
X337449Y254099D01*
X337467Y254090D01*
X337514Y254071D01*
X337597Y254053D01*
X337717Y254044D01*
X337810D01*
X337856Y254053D01*
X337921D01*
X337995Y254062D01*
X338069Y254071D01*
X338170Y253378D01*
X338152D01*
X338115Y253368D01*
X338050Y253359D01*
X337967Y253350D01*
X337874Y253331D01*
X337773Y253322D01*
X337569Y253313D01*
X337495D01*
X337421Y253322D01*
X337329Y253331D01*
X337218Y253341D01*
X337107Y253368D01*
X337005Y253396D01*
X336903Y253443D01*
X336894Y253452D01*
X336866Y253470D01*
X336829Y253498D01*
X336774Y253544D01*
X336727Y253590D01*
X336672Y253655D01*
X336616Y253720D01*
X336579Y253803D01*
Y253813D01*
X336561Y253850D01*
X336552Y253914D01*
X336533Y254007D01*
X336515Y254127D01*
X336505Y254201D01*
Y254284D01*
X336496Y254386D01*
X336487Y254488D01*
Y254599D01*
Y254728D01*
Y257411D01*
X335904D01*
Y258021D01*
X336487D01*
Y259168D01*
X337273Y259640D01*
Y258021D01*
D02*
G37*
G36*
X340899Y258114D02*
X340973Y258104D01*
X341066Y258086D01*
X341167Y258067D01*
X341288Y258040D01*
X341399Y258012D01*
X341528Y257966D01*
X341648Y257920D01*
X341778Y257855D01*
X341907Y257781D01*
X342037Y257698D01*
X342157Y257596D01*
X342268Y257485D01*
X342277Y257475D01*
X342296Y257457D01*
X342324Y257420D01*
X342361Y257365D01*
X342407Y257300D01*
X342453Y257226D01*
X342509Y257133D01*
X342564Y257022D01*
X342620Y256902D01*
X342675Y256772D01*
X342721Y256625D01*
X342768Y256467D01*
X342805Y256292D01*
X342832Y256106D01*
X342851Y255912D01*
X342860Y255699D01*
Y255690D01*
Y255653D01*
Y255589D01*
X342851Y255496D01*
X339382D01*
Y255487D01*
Y255459D01*
X339391Y255422D01*
Y255366D01*
X339401Y255302D01*
X339419Y255228D01*
X339447Y255061D01*
X339502Y254876D01*
X339576Y254673D01*
X339678Y254488D01*
X339808Y254321D01*
X339817D01*
X339826Y254303D01*
X339882Y254257D01*
X339965Y254192D01*
X340076Y254127D01*
X340224Y254053D01*
X340390Y253988D01*
X340575Y253942D01*
X340677Y253933D01*
X340788Y253924D01*
X340862D01*
X340945Y253933D01*
X341047Y253951D01*
X341158Y253979D01*
X341288Y254016D01*
X341408Y254071D01*
X341528Y254146D01*
X341537Y254155D01*
X341584Y254192D01*
X341639Y254247D01*
X341704Y254321D01*
X341778Y254423D01*
X341861Y254553D01*
X341944Y254700D01*
X342018Y254876D01*
X342832Y254774D01*
Y254765D01*
X342823Y254747D01*
X342814Y254710D01*
X342795Y254654D01*
X342768Y254599D01*
X342740Y254525D01*
X342666Y254367D01*
X342573Y254192D01*
X342444Y254007D01*
X342296Y253831D01*
X342111Y253664D01*
X342102D01*
X342083Y253646D01*
X342055Y253627D01*
X342018Y253600D01*
X341963Y253572D01*
X341907Y253544D01*
X341833Y253507D01*
X341750Y253470D01*
X341658Y253433D01*
X341565Y253396D01*
X341334Y253341D01*
X341075Y253294D01*
X340788Y253276D01*
X340686D01*
X340622Y253285D01*
X340538Y253294D01*
X340437Y253313D01*
X340326Y253331D01*
X340205Y253350D01*
X339946Y253424D01*
X339808Y253480D01*
X339678Y253535D01*
X339539Y253609D01*
X339410Y253692D01*
X339290Y253785D01*
X339169Y253896D01*
X339160Y253905D01*
X339142Y253924D01*
X339114Y253960D01*
X339077Y254016D01*
X339031Y254081D01*
X338984Y254155D01*
X338929Y254247D01*
X338873Y254349D01*
X338818Y254469D01*
X338762Y254599D01*
X338716Y254747D01*
X338670Y254904D01*
X338633Y255070D01*
X338605Y255256D01*
X338587Y255450D01*
X338577Y255653D01*
Y255662D01*
Y255709D01*
Y255764D01*
X338587Y255848D01*
X338596Y255949D01*
X338605Y256060D01*
X338624Y256190D01*
X338651Y256319D01*
X338725Y256615D01*
X338772Y256763D01*
X338827Y256921D01*
X338901Y257068D01*
X338984Y257207D01*
X339077Y257346D01*
X339179Y257475D01*
X339188Y257485D01*
X339206Y257503D01*
X339243Y257531D01*
X339290Y257577D01*
X339345Y257624D01*
X339419Y257679D01*
X339502Y257744D01*
X339604Y257799D01*
X339706Y257864D01*
X339826Y257920D01*
X339956Y257975D01*
X340094Y258021D01*
X340242Y258067D01*
X340400Y258095D01*
X340566Y258114D01*
X340742Y258123D01*
X340834D01*
X340899Y258114D01*
D02*
G37*
G36*
X314037D02*
X314111Y258104D01*
X314204Y258086D01*
X314305Y258067D01*
X314426Y258040D01*
X314537Y258012D01*
X314666Y257966D01*
X314786Y257920D01*
X314916Y257855D01*
X315045Y257781D01*
X315175Y257698D01*
X315295Y257596D01*
X315406Y257485D01*
X315415Y257475D01*
X315434Y257457D01*
X315462Y257420D01*
X315499Y257365D01*
X315545Y257300D01*
X315591Y257226D01*
X315647Y257133D01*
X315702Y257022D01*
X315758Y256902D01*
X315813Y256772D01*
X315859Y256625D01*
X315906Y256467D01*
X315943Y256292D01*
X315970Y256106D01*
X315989Y255912D01*
X315998Y255699D01*
Y255690D01*
Y255653D01*
Y255589D01*
X315989Y255496D01*
X312520D01*
Y255487D01*
Y255459D01*
X312529Y255422D01*
Y255366D01*
X312539Y255302D01*
X312557Y255228D01*
X312585Y255061D01*
X312640Y254876D01*
X312714Y254673D01*
X312816Y254488D01*
X312946Y254321D01*
X312955D01*
X312964Y254303D01*
X313020Y254257D01*
X313103Y254192D01*
X313214Y254127D01*
X313362Y254053D01*
X313528Y253988D01*
X313713Y253942D01*
X313815Y253933D01*
X313926Y253924D01*
X314000D01*
X314083Y253933D01*
X314185Y253951D01*
X314296Y253979D01*
X314426Y254016D01*
X314546Y254071D01*
X314666Y254146D01*
X314675Y254155D01*
X314722Y254192D01*
X314777Y254247D01*
X314842Y254321D01*
X314916Y254423D01*
X314999Y254553D01*
X315082Y254700D01*
X315156Y254876D01*
X315970Y254774D01*
Y254765D01*
X315961Y254747D01*
X315952Y254710D01*
X315933Y254654D01*
X315906Y254599D01*
X315878Y254525D01*
X315804Y254367D01*
X315711Y254192D01*
X315582Y254007D01*
X315434Y253831D01*
X315249Y253664D01*
X315240D01*
X315221Y253646D01*
X315193Y253627D01*
X315156Y253600D01*
X315101Y253572D01*
X315045Y253544D01*
X314971Y253507D01*
X314888Y253470D01*
X314796Y253433D01*
X314703Y253396D01*
X314472Y253341D01*
X314213Y253294D01*
X313926Y253276D01*
X313824D01*
X313760Y253285D01*
X313676Y253294D01*
X313575Y253313D01*
X313464Y253331D01*
X313343Y253350D01*
X313084Y253424D01*
X312946Y253480D01*
X312816Y253535D01*
X312677Y253609D01*
X312548Y253692D01*
X312428Y253785D01*
X312307Y253896D01*
X312298Y253905D01*
X312280Y253924D01*
X312252Y253960D01*
X312215Y254016D01*
X312169Y254081D01*
X312122Y254155D01*
X312067Y254247D01*
X312011Y254349D01*
X311956Y254469D01*
X311900Y254599D01*
X311854Y254747D01*
X311808Y254904D01*
X311771Y255070D01*
X311743Y255256D01*
X311725Y255450D01*
X311715Y255653D01*
Y255662D01*
Y255709D01*
Y255764D01*
X311725Y255848D01*
X311734Y255949D01*
X311743Y256060D01*
X311762Y256190D01*
X311789Y256319D01*
X311863Y256615D01*
X311910Y256763D01*
X311965Y256921D01*
X312039Y257068D01*
X312122Y257207D01*
X312215Y257346D01*
X312317Y257475D01*
X312326Y257485D01*
X312344Y257503D01*
X312381Y257531D01*
X312428Y257577D01*
X312483Y257624D01*
X312557Y257679D01*
X312640Y257744D01*
X312742Y257799D01*
X312844Y257864D01*
X312964Y257920D01*
X313094Y257975D01*
X313232Y258021D01*
X313380Y258067D01*
X313538Y258095D01*
X313704Y258114D01*
X313880Y258123D01*
X313972D01*
X314037Y258114D01*
D02*
G37*
G36*
X328245D02*
X328310Y258104D01*
X328393Y258086D01*
X328486Y258067D01*
X328587Y258040D01*
X328689Y258003D01*
X328800Y257957D01*
X328911Y257901D01*
X329031Y257836D01*
X329142Y257762D01*
X329253Y257670D01*
X329364Y257568D01*
X329466Y257448D01*
Y258021D01*
X330188D01*
Y254007D01*
Y253997D01*
Y253960D01*
Y253905D01*
Y253831D01*
X330178Y253748D01*
Y253646D01*
X330169Y253535D01*
X330160Y253415D01*
X330132Y253165D01*
X330095Y252906D01*
X330067Y252786D01*
X330040Y252675D01*
X330003Y252573D01*
X329966Y252481D01*
Y252471D01*
X329956Y252462D01*
X329919Y252407D01*
X329873Y252323D01*
X329799Y252221D01*
X329697Y252111D01*
X329577Y251990D01*
X329429Y251870D01*
X329263Y251768D01*
X329253D01*
X329244Y251759D01*
X329216Y251741D01*
X329179Y251731D01*
X329133Y251704D01*
X329078Y251685D01*
X328939Y251639D01*
X328772Y251583D01*
X328569Y251546D01*
X328338Y251509D01*
X328088Y251500D01*
X328005D01*
X327949Y251509D01*
X327875D01*
X327801Y251519D01*
X327709Y251528D01*
X327607Y251546D01*
X327394Y251592D01*
X327172Y251657D01*
X326950Y251750D01*
X326747Y251879D01*
X326737Y251888D01*
X326728Y251898D01*
X326663Y251953D01*
X326589Y252036D01*
X326497Y252157D01*
X326404Y252314D01*
X326321Y252508D01*
X326293Y252619D01*
X326275Y252740D01*
X326256Y252860D01*
Y252998D01*
X327024Y252897D01*
Y252878D01*
X327033Y252841D01*
X327052Y252777D01*
X327070Y252693D01*
X327107Y252610D01*
X327154Y252527D01*
X327209Y252444D01*
X327283Y252379D01*
X327302Y252369D01*
X327339Y252342D01*
X327403Y252305D01*
X327496Y252268D01*
X327607Y252221D01*
X327746Y252185D01*
X327912Y252157D01*
X328088Y252148D01*
X328180D01*
X328273Y252157D01*
X328402Y252175D01*
X328532Y252203D01*
X328671Y252240D01*
X328809Y252295D01*
X328930Y252369D01*
X328939Y252379D01*
X328976Y252407D01*
X329031Y252462D01*
X329096Y252527D01*
X329161Y252619D01*
X329226Y252721D01*
X329290Y252841D01*
X329337Y252980D01*
Y252989D01*
X329346Y253026D01*
X329355Y253100D01*
X329364Y253193D01*
X329374Y253257D01*
Y253331D01*
X329383Y253415D01*
Y253507D01*
Y253609D01*
X329392Y253729D01*
Y253850D01*
Y253988D01*
X329383Y253979D01*
X329364Y253960D01*
X329337Y253933D01*
X329300Y253896D01*
X329253Y253850D01*
X329189Y253794D01*
X329115Y253738D01*
X329041Y253683D01*
X328846Y253572D01*
X328634Y253470D01*
X328513Y253433D01*
X328384Y253405D01*
X328245Y253387D01*
X328106Y253378D01*
X328060D01*
X328014Y253387D01*
X327949D01*
X327866Y253396D01*
X327773Y253415D01*
X327672Y253433D01*
X327561Y253461D01*
X327440Y253498D01*
X327320Y253544D01*
X327200Y253600D01*
X327070Y253664D01*
X326950Y253748D01*
X326830Y253840D01*
X326719Y253942D01*
X326617Y254062D01*
X326608Y254071D01*
X326599Y254090D01*
X326571Y254136D01*
X326534Y254183D01*
X326497Y254257D01*
X326451Y254330D01*
X326404Y254423D01*
X326358Y254534D01*
X326312Y254645D01*
X326266Y254774D01*
X326219Y254904D01*
X326182Y255052D01*
X326118Y255366D01*
X326108Y255542D01*
X326099Y255718D01*
Y255727D01*
Y255746D01*
Y255783D01*
Y255829D01*
X326108Y255894D01*
Y255959D01*
X326127Y256125D01*
X326155Y256310D01*
X326201Y256514D01*
X326256Y256726D01*
X326340Y256939D01*
Y256948D01*
X326349Y256967D01*
X326367Y256995D01*
X326386Y257031D01*
X326441Y257133D01*
X326515Y257263D01*
X326617Y257401D01*
X326737Y257540D01*
X326876Y257688D01*
X327033Y257808D01*
X327043D01*
X327052Y257818D01*
X327080Y257836D01*
X327117Y257855D01*
X327209Y257910D01*
X327339Y257966D01*
X327496Y258021D01*
X327681Y258077D01*
X327884Y258114D01*
X328106Y258123D01*
X328190D01*
X328245Y258114D01*
D02*
G37*
%LPC*%
G36*
X310189Y266812D02*
X308709D01*
Y261929D01*
X310226D01*
X310291Y261938D01*
X310430Y261947D01*
X310587Y261956D01*
X310753Y261975D01*
X310920Y262002D01*
X311059Y262039D01*
X311077Y262049D01*
X311123Y262058D01*
X311188Y262086D01*
X311271Y262123D01*
X311364Y262178D01*
X311456Y262234D01*
X311549Y262298D01*
X311641Y262372D01*
X311651Y262391D01*
X311688Y262428D01*
X311743Y262493D01*
X311808Y262585D01*
X311882Y262705D01*
X311965Y262844D01*
X312039Y263001D01*
X312104Y263177D01*
Y263187D01*
X312113Y263205D01*
X312122Y263233D01*
X312132Y263270D01*
X312141Y263316D01*
X312159Y263381D01*
X312178Y263445D01*
X312196Y263520D01*
X312224Y263704D01*
X312252Y263917D01*
X312270Y264158D01*
X312280Y264417D01*
Y264426D01*
Y264463D01*
Y264509D01*
X312270Y264583D01*
Y264666D01*
X312261Y264759D01*
X312252Y264870D01*
X312243Y264981D01*
X312196Y265231D01*
X312141Y265490D01*
X312058Y265730D01*
X312002Y265850D01*
X311947Y265952D01*
Y265962D01*
X311928Y265980D01*
X311910Y266008D01*
X311891Y266045D01*
X311817Y266137D01*
X311725Y266248D01*
X311604Y266368D01*
X311466Y266489D01*
X311308Y266590D01*
X311142Y266674D01*
X311123Y266683D01*
X311077Y266692D01*
X310994Y266720D01*
X310874Y266748D01*
X310726Y266766D01*
X310541Y266794D01*
X310430Y266803D01*
X310309D01*
X310189Y266812D01*
D02*
G37*
G36*
X340751Y257475D02*
X340696D01*
X340659Y257466D01*
X340557Y257457D01*
X340437Y257429D01*
X340289Y257383D01*
X340131Y257318D01*
X339983Y257226D01*
X339835Y257105D01*
X339817Y257087D01*
X339780Y257041D01*
X339715Y256958D01*
X339650Y256846D01*
X339576Y256717D01*
X339512Y256551D01*
X339456Y256356D01*
X339428Y256143D01*
X342028D01*
Y256153D01*
Y256171D01*
X342018Y256199D01*
Y256236D01*
X342000Y256347D01*
X341972Y256467D01*
X341926Y256615D01*
X341880Y256754D01*
X341806Y256893D01*
X341722Y257013D01*
Y257022D01*
X341704Y257031D01*
X341658Y257087D01*
X341574Y257161D01*
X341463Y257244D01*
X341325Y257328D01*
X341158Y257401D01*
X340964Y257457D01*
X340862Y257466D01*
X340751Y257475D01*
D02*
G37*
G36*
X313889D02*
X313834D01*
X313797Y257466D01*
X313695Y257457D01*
X313575Y257429D01*
X313427Y257383D01*
X313269Y257318D01*
X313121Y257226D01*
X312973Y257105D01*
X312955Y257087D01*
X312918Y257041D01*
X312853Y256958D01*
X312788Y256846D01*
X312714Y256717D01*
X312650Y256551D01*
X312594Y256356D01*
X312566Y256143D01*
X315166D01*
Y256153D01*
Y256171D01*
X315156Y256199D01*
Y256236D01*
X315138Y256347D01*
X315110Y256467D01*
X315064Y256615D01*
X315018Y256754D01*
X314944Y256893D01*
X314860Y257013D01*
Y257022D01*
X314842Y257031D01*
X314796Y257087D01*
X314712Y257161D01*
X314601Y257244D01*
X314463Y257328D01*
X314296Y257401D01*
X314102Y257457D01*
X314000Y257466D01*
X313889Y257475D01*
D02*
G37*
G36*
X328264D02*
X328116D01*
X328079Y257466D01*
X327977Y257457D01*
X327857Y257420D01*
X327709Y257374D01*
X327561Y257291D01*
X327413Y257189D01*
X327339Y257115D01*
X327265Y257041D01*
Y257031D01*
X327246Y257022D01*
X327228Y256995D01*
X327209Y256958D01*
X327181Y256921D01*
X327154Y256865D01*
X327117Y256800D01*
X327089Y256726D01*
X327052Y256643D01*
X327015Y256541D01*
X326987Y256439D01*
X326959Y256329D01*
X326941Y256199D01*
X326922Y256069D01*
X326904Y255931D01*
Y255773D01*
Y255764D01*
Y255736D01*
Y255690D01*
X326913Y255626D01*
Y255552D01*
X326922Y255459D01*
X326950Y255265D01*
X326996Y255043D01*
X327052Y254830D01*
X327144Y254617D01*
X327200Y254525D01*
X327265Y254441D01*
X327283Y254423D01*
X327329Y254377D01*
X327403Y254312D01*
X327514Y254238D01*
X327644Y254155D01*
X327801Y254090D01*
X327977Y254044D01*
X328069Y254034D01*
X328171Y254025D01*
X328227D01*
X328264Y254034D01*
X328365Y254044D01*
X328495Y254081D01*
X328634Y254127D01*
X328791Y254201D01*
X328939Y254303D01*
X329013Y254367D01*
X329087Y254441D01*
Y254451D01*
X329105Y254460D01*
X329124Y254488D01*
X329142Y254525D01*
X329170Y254562D01*
X329207Y254617D01*
X329235Y254682D01*
X329272Y254765D01*
X329309Y254849D01*
X329337Y254941D01*
X329374Y255052D01*
X329401Y255172D01*
X329420Y255293D01*
X329438Y255431D01*
X329457Y255589D01*
Y255746D01*
Y255755D01*
Y255783D01*
Y255829D01*
X329448Y255885D01*
Y255959D01*
X329438Y256042D01*
X329411Y256227D01*
X329364Y256439D01*
X329300Y256652D01*
X329207Y256865D01*
X329142Y256958D01*
X329078Y257041D01*
Y257050D01*
X329059Y257059D01*
X329013Y257105D01*
X328930Y257179D01*
X328819Y257263D01*
X328689Y257337D01*
X328532Y257411D01*
X328356Y257457D01*
X328264Y257475D01*
D02*
G37*
%LPD*%
D10*
X49792Y228173D02*
G03*
X49792Y228173I-1181J0D01*
G01*
D11*
X44063Y219413D02*
G03*
X44063Y219413I-492J0D01*
G01*
D12*
X311500Y109500D02*
G03*
X319500Y109500I4000J0D01*
G01*
X311500Y176000D02*
G03*
X319500Y176000I4000J0D01*
G01*
Y109500D02*
X335500D01*
X295500D02*
X311500D01*
X335500Y66500D02*
Y109500D01*
X295500Y66500D02*
X335500D01*
X295500D02*
Y109500D01*
X319500Y176000D02*
X335500D01*
X295500D02*
X311500D01*
X335500Y133000D02*
Y176000D01*
X295500Y133000D02*
X335500D01*
X295500D02*
Y176000D01*
X350899Y53999D02*
Y50000D01*
X353898D01*
Y51999D01*
Y50000D01*
X356897D01*
Y55998D02*
X355897D01*
Y56998D01*
X356897D01*
Y55998D01*
X350899Y60996D02*
X356897D01*
Y64995D01*
Y66995D02*
X355897D01*
Y67994D01*
X356897D01*
Y66995D01*
X350496Y128427D02*
X356494D01*
X354495Y130426D01*
X356494Y132425D01*
X350496D01*
X356494Y134425D02*
X355494D01*
Y135424D01*
X356494D01*
Y134425D01*
X202999Y320498D02*
X201999Y321498D01*
X200000D01*
X199000Y320498D01*
Y316500D01*
X200000Y315500D01*
X201999D01*
X202999Y316500D01*
Y318499D01*
X200999D01*
X204998Y315500D02*
Y321498D01*
X208997Y315500D01*
Y321498D01*
X210996D02*
Y315500D01*
X213995D01*
X214995Y316500D01*
Y320498D01*
X213995Y321498D01*
X210996D01*
X230499D02*
X226500D01*
Y318499D01*
X228499Y319499D01*
X229499D01*
X230499Y318499D01*
Y316500D01*
X229499Y315500D01*
X227500D01*
X226500Y316500D01*
X232498Y321498D02*
Y317499D01*
X234497Y315500D01*
X236497Y317499D01*
Y321498D01*
X174000Y20641D02*
Y14643D01*
X176999D01*
X177999Y15642D01*
Y19641D01*
X176999Y20641D01*
X174000D01*
X180998Y18641D02*
X182997D01*
X183997Y17642D01*
Y14643D01*
X180998D01*
X179998Y15642D01*
X180998Y16642D01*
X183997D01*
X185996Y14643D02*
X188995D01*
X189995Y15642D01*
X188995Y16642D01*
X186996D01*
X185996Y17642D01*
X186996Y18641D01*
X189995D01*
X191994Y20641D02*
Y14643D01*
Y17642D01*
X192994Y18641D01*
X194993D01*
X195993Y17642D01*
Y14643D01*
X197992Y20641D02*
Y14643D01*
X200991D01*
X201991Y15642D01*
Y16642D01*
Y17642D01*
X200991Y18641D01*
X197992D01*
X204990Y14643D02*
X206989D01*
X207989Y15642D01*
Y17642D01*
X206989Y18641D01*
X204990D01*
X203990Y17642D01*
Y15642D01*
X204990Y14643D01*
X210988Y18641D02*
X212987D01*
X213987Y17642D01*
Y14643D01*
X210988D01*
X209988Y15642D01*
X210988Y16642D01*
X213987D01*
X215986Y18641D02*
Y14643D01*
Y16642D01*
X216986Y17642D01*
X217986Y18641D01*
X218985D01*
X225983Y20641D02*
Y14643D01*
X222984D01*
X221985Y15642D01*
Y17642D01*
X222984Y18641D01*
X225983D01*
X237979Y14643D02*
X233981D01*
X237979Y18641D01*
Y19641D01*
X236980Y20641D01*
X234980D01*
X233981Y19641D01*
X239979D02*
X240978Y20641D01*
X242978D01*
X243977Y19641D01*
Y15642D01*
X242978Y14643D01*
X240978D01*
X239979Y15642D01*
Y19641D01*
X249975Y14643D02*
X245977D01*
X249975Y18641D01*
Y19641D01*
X248976Y20641D01*
X246976D01*
X245977Y19641D01*
X251975D02*
X252975Y20641D01*
X254974D01*
X255974Y19641D01*
Y15642D01*
X254974Y14643D01*
X252975D01*
X251975Y15642D01*
Y19641D01*
X263971Y18641D02*
X265970Y14643D01*
X267970Y18641D01*
X269969Y19641D02*
X270969Y20641D01*
X272968D01*
X273968Y19641D01*
Y15642D01*
X272968Y14643D01*
X270969D01*
X269969Y15642D01*
Y19641D01*
X275967Y14643D02*
Y15642D01*
X276967D01*
Y14643D01*
X275967D01*
X280965D02*
X282965D01*
X281965D01*
Y20641D01*
X280965Y19641D01*
X47703Y189842D02*
X48703Y190842D01*
Y192841D01*
X47703Y193841D01*
X46704D01*
X45704Y192841D01*
Y190842D01*
X44704Y189842D01*
X43705D01*
X42705Y190842D01*
Y192841D01*
X43705Y193841D01*
X46704Y183844D02*
Y186843D01*
X45704Y187843D01*
X43705D01*
X42705Y186843D01*
Y183844D01*
X46704Y181845D02*
X42705D01*
X44704D01*
X45704Y180845D01*
X46704Y179845D01*
Y178846D01*
X42705Y172848D02*
Y174847D01*
X43705Y175847D01*
X45704D01*
X46704Y174847D01*
Y172848D01*
X45704Y171848D01*
X44704D01*
Y175847D01*
X42705Y166850D02*
Y168849D01*
X43705Y169849D01*
X45704D01*
X46704Y168849D01*
Y166850D01*
X45704Y165850D01*
X44704D01*
Y169849D01*
X42705Y163851D02*
X46704D01*
Y160852D01*
X45704Y159852D01*
X42705D01*
X292141Y314831D02*
X290475Y316497D01*
X287142D01*
X285476Y314831D01*
Y313164D01*
X287142Y311498D01*
X290475D01*
X292141Y309832D01*
Y308166D01*
X290475Y306500D01*
X287142D01*
X285476Y308166D01*
X302138Y316497D02*
X295473D01*
Y306500D01*
X302138D01*
X295473Y311498D02*
X298805D01*
X305470Y306500D02*
Y316497D01*
X308802Y313164D01*
X312134Y316497D01*
Y306500D01*
X332128D02*
X325464D01*
X332128Y313164D01*
Y314831D01*
X330462Y316497D01*
X327130D01*
X325464Y314831D01*
X335460D02*
X337126Y316497D01*
X340459D01*
X342125Y314831D01*
Y308166D01*
X340459Y306500D01*
X337126D01*
X335460Y308166D01*
Y314831D01*
X352121Y306500D02*
X345457D01*
X352121Y313164D01*
Y314831D01*
X350455Y316497D01*
X347123D01*
X345457Y314831D01*
X355454D02*
X357120Y316497D01*
X360452D01*
X362118Y314831D01*
Y308166D01*
X360452Y306500D01*
X357120D01*
X355454Y308166D01*
Y314831D01*
X49792Y266500D02*
X43794D01*
Y269499D01*
X44793Y270499D01*
X46793D01*
X47792Y269499D01*
Y266500D01*
Y268499D02*
X49792Y270499D01*
Y276497D02*
Y272498D01*
X45793Y276497D01*
X44793D01*
X43794Y275497D01*
Y273498D01*
X44793Y272498D01*
X65002Y200251D02*
X64002Y199251D01*
Y197252D01*
X65002Y196252D01*
X69000D01*
X70000Y197252D01*
Y199251D01*
X69000Y200251D01*
X70000Y202250D02*
Y204249D01*
Y203250D01*
X64002D01*
X65002Y202250D01*
X323803Y227484D02*
Y233482D01*
X326802D01*
X327802Y232483D01*
Y230483D01*
X326802Y229484D01*
X323803D01*
X329801Y228484D02*
X330801Y227484D01*
X332800D01*
X333800Y228484D01*
Y232483D01*
X332800Y233482D01*
X330801D01*
X329801Y232483D01*
Y231483D01*
X330801Y230483D01*
X333800D01*
X135211Y282389D02*
X136211Y283389D01*
X138210D01*
X139210Y282389D01*
Y281390D01*
X138210Y280390D01*
X137211D01*
X138210D01*
X139210Y279390D01*
Y278391D01*
X138210Y277391D01*
X136211D01*
X135211Y278391D01*
X94425Y296998D02*
X92426D01*
X93426D01*
Y292000D01*
X92426Y291000D01*
X91426D01*
X90426Y292000D01*
X96425Y291000D02*
X98424D01*
X97424D01*
Y296998D01*
X96425Y295998D01*
X348501Y104502D02*
Y110500D01*
X351500D01*
X352500Y109501D01*
Y107501D01*
X351500Y106502D01*
X348501D01*
X354499Y109501D02*
X355499Y110500D01*
X357498D01*
X358498Y109501D01*
Y108501D01*
X357498Y107501D01*
X358498Y106502D01*
Y105502D01*
X357498Y104502D01*
X355499D01*
X354499Y105502D01*
Y106502D01*
X355499Y107501D01*
X354499Y108501D01*
Y109501D01*
X355499Y107501D02*
X357498D01*
X348501Y172456D02*
Y178454D01*
X351500D01*
X352500Y177454D01*
Y175455D01*
X351500Y174455D01*
X348501D01*
X354499Y178454D02*
X358498D01*
Y177454D01*
X354499Y173456D01*
Y172456D01*
X296001Y185541D02*
Y180543D01*
X297001Y179543D01*
X299000D01*
X299999Y180543D01*
Y185541D01*
X301999Y184542D02*
X302998Y185541D01*
X304998D01*
X305998Y184542D01*
Y183542D01*
X304998Y182542D01*
X303998D01*
X304998D01*
X305998Y181543D01*
Y180543D01*
X304998Y179543D01*
X302998D01*
X301999Y180543D01*
X296001Y119041D02*
Y114043D01*
X297001Y113043D01*
X299000D01*
X299999Y114043D01*
Y119041D01*
X305998Y113043D02*
X301999D01*
X305998Y117042D01*
Y118042D01*
X304998Y119041D01*
X302998D01*
X301999Y118042D01*
X34002Y226205D02*
X39000D01*
X40000Y227204D01*
Y229204D01*
X39000Y230203D01*
X34002D01*
X40000Y232203D02*
Y234202D01*
Y233203D01*
X34002D01*
X35002Y232203D01*
X156476Y323000D02*
Y328998D01*
X159475D01*
X160475Y327998D01*
Y325999D01*
X159475Y324999D01*
X156476D01*
X158475D02*
X160475Y323000D01*
X162474D02*
X164473D01*
X163473D01*
Y328998D01*
X162474Y327998D01*
X227601Y357943D02*
Y363941D01*
X230600D01*
X231599Y362942D01*
Y360942D01*
X230600Y359943D01*
X227601D01*
X237598Y363941D02*
X235598Y362942D01*
X233599Y360942D01*
Y358943D01*
X234598Y357943D01*
X236598D01*
X237598Y358943D01*
Y359943D01*
X236598Y360942D01*
X233599D01*
X16068Y208210D02*
Y214208D01*
X19067D01*
X20066Y213209D01*
Y211209D01*
X19067Y210210D01*
X16068D01*
X25065Y208210D02*
Y214208D01*
X22066Y211209D01*
X26065D01*
X263823Y282249D02*
Y288247D01*
X266822D01*
X267822Y287247D01*
Y285248D01*
X266822Y284248D01*
X263823D01*
X269821Y287247D02*
X270821Y288247D01*
X272820D01*
X273820Y287247D01*
Y286247D01*
X272820Y285248D01*
X271820D01*
X272820D01*
X273820Y284248D01*
Y283248D01*
X272820Y282249D01*
X270821D01*
X269821Y283248D01*
X98079Y282256D02*
Y288254D01*
X101078D01*
X102077Y287254D01*
Y285255D01*
X101078Y284255D01*
X98079D01*
X108075Y282256D02*
X104077D01*
X108075Y286255D01*
Y287254D01*
X107076Y288254D01*
X105077D01*
X104077Y287254D01*
X173262Y336284D02*
Y342282D01*
X176261D01*
X177261Y341283D01*
Y339283D01*
X176261Y338283D01*
X173262D01*
X179260Y336284D02*
X181260D01*
X180260D01*
Y342282D01*
X179260Y341283D01*
X31999Y295498D02*
X29999D01*
X30999D01*
Y290500D01*
X29999Y289500D01*
X29000D01*
X28000Y290500D01*
X37997Y289500D02*
X33998D01*
X37997Y293499D01*
Y294498D01*
X36997Y295498D01*
X34998D01*
X33998Y294498D01*
X201000Y357500D02*
Y363498D01*
X203999D01*
X204999Y362498D01*
Y360499D01*
X203999Y359499D01*
X201000D01*
X206998Y357500D02*
X208997D01*
X207998D01*
Y363498D01*
X206998Y362498D01*
X211996D02*
X212996Y363498D01*
X214996D01*
X215995Y362498D01*
Y358500D01*
X214996Y357500D01*
X212996D01*
X211996Y358500D01*
Y362498D01*
X85285Y58942D02*
X84285Y59941D01*
X82285D01*
X81286Y58942D01*
Y54943D01*
X82285Y53943D01*
X84285D01*
X85285Y54943D01*
X87284Y58942D02*
X88284Y59941D01*
X90283D01*
X91283Y58942D01*
Y57942D01*
X90283Y56942D01*
X89283D01*
X90283D01*
X91283Y55943D01*
Y54943D01*
X90283Y53943D01*
X88284D01*
X87284Y54943D01*
X291000Y225579D02*
X290000Y226578D01*
X288000D01*
X287001Y225579D01*
Y221580D01*
X288000Y220580D01*
X290000D01*
X291000Y221580D01*
X296998Y220580D02*
X292999D01*
X296998Y224579D01*
Y225579D01*
X295998Y226578D01*
X293999D01*
X292999Y225579D01*
X256588Y357943D02*
Y363941D01*
X259587D01*
X260587Y362942D01*
Y360942D01*
X259587Y359943D01*
X256588D01*
X262586Y357943D02*
X264586D01*
X263586D01*
Y363941D01*
X262586Y362942D01*
X267585Y357943D02*
X269584D01*
X268584D01*
Y363941D01*
X267585Y362942D01*
X256588Y320142D02*
X257588Y321141D01*
X259587D01*
X260587Y320142D01*
Y319142D01*
X259587Y318142D01*
X258588D01*
X259587D01*
X260587Y317143D01*
Y316143D01*
X259587Y315143D01*
X257588D01*
X256588Y316143D01*
X262586Y321141D02*
Y317143D01*
X264586Y315143D01*
X266585Y317143D01*
Y321141D01*
X268584Y320142D02*
X269584Y321141D01*
X271583D01*
X272583Y320142D01*
Y319142D01*
X271583Y318142D01*
X270584D01*
X271583D01*
X272583Y317143D01*
Y316143D01*
X271583Y315143D01*
X269584D01*
X268584Y316143D01*
X49809Y134628D02*
X43811D01*
X45810Y132629D01*
X43811Y130630D01*
X49809D01*
X43811Y128630D02*
Y126631D01*
Y127631D01*
X47810D01*
Y128630D01*
X41812Y123632D02*
X47810D01*
Y120633D01*
X46810Y119633D01*
X44811D01*
X43811Y120633D01*
Y123632D01*
Y114635D02*
Y116634D01*
X44811Y117634D01*
X46810D01*
X47810Y116634D01*
Y114635D01*
X46810Y113635D01*
X45810D01*
Y117634D01*
X47810Y111636D02*
X43811D01*
X45810D01*
X46810Y110636D01*
X47810Y109636D01*
Y108637D01*
X100285Y31531D02*
X99285Y32530D01*
X97285D01*
X96286Y31531D01*
Y30531D01*
X97285Y29531D01*
X99285D01*
X100285Y28532D01*
Y27532D01*
X99285Y26532D01*
X97285D01*
X96286Y27532D01*
X102284Y26532D02*
X104283D01*
X103284D01*
Y32530D01*
X102284Y31531D01*
X44748Y99886D02*
X50746D01*
Y96887D01*
X49746Y95888D01*
X47747D01*
X46747Y96887D01*
Y99886D01*
Y97887D02*
X44748Y95888D01*
Y90889D02*
Y92889D01*
X45748Y93888D01*
X47747D01*
X48747Y92889D01*
Y90889D01*
X47747Y89890D01*
X46747D01*
Y93888D01*
X44748Y87890D02*
Y84891D01*
X45748Y83891D01*
X46747Y84891D01*
Y86891D01*
X47747Y87890D01*
X48747Y86891D01*
Y83891D01*
X44748Y78893D02*
Y80892D01*
X45748Y81892D01*
X47747D01*
X48747Y80892D01*
Y78893D01*
X47747Y77893D01*
X46747D01*
Y81892D01*
X49746Y74894D02*
X48747D01*
Y75894D01*
Y73895D01*
Y74894D01*
X45748D01*
X44748Y73895D01*
X50746Y63728D02*
X44748D01*
X47747D01*
Y59730D01*
X50746D01*
X44748D01*
X48747Y56731D02*
Y54731D01*
X47747Y53732D01*
X44748D01*
Y56731D01*
X45748Y57730D01*
X46747Y56731D01*
Y53732D01*
X48747Y51732D02*
Y47734D01*
X44748Y51732D01*
Y47734D01*
X50746Y45734D02*
X44748D01*
Y41736D01*
Y39736D02*
Y37737D01*
Y38736D01*
X48747D01*
Y39736D01*
X42749Y32738D02*
Y31739D01*
X43748Y30739D01*
X48747D01*
Y33738D01*
X47747Y34738D01*
X45748D01*
X44748Y33738D01*
Y30739D01*
X50746Y28740D02*
X44748D01*
X47747D01*
X48747Y27740D01*
Y25741D01*
X47747Y24741D01*
X44748D01*
X49746Y21742D02*
X48747D01*
Y22742D01*
Y20742D01*
Y21742D01*
X45748D01*
X44748Y20742D01*
Y17743D02*
Y14744D01*
X45748Y13745D01*
X46747Y14744D01*
Y16744D01*
X47747Y17743D01*
X48747Y16744D01*
Y13745D01*
D13*
X219000Y335333D02*
Y354500D01*
Y324500D02*
Y354500D01*
X199000Y324500D02*
Y354500D01*
Y324500D02*
X219000D01*
X199000Y354500D02*
X219000D01*
X64359Y224236D02*
Y236835D01*
X44674Y224236D02*
Y236835D01*
X64359D01*
X44674Y224236D02*
X64359D01*
X187661Y273841D02*
Y278841D01*
X177661Y273841D02*
X187661D01*
X177661D02*
Y278841D01*
X147661Y38841D02*
Y278841D01*
Y38841D02*
X217661D01*
Y278841D01*
X147661D02*
X217661D01*
X273213Y38841D02*
Y271341D01*
Y278841D01*
X263213D02*
X273213D01*
X263213Y38841D02*
Y278841D01*
Y38841D02*
X273213D01*
X107425D02*
Y271341D01*
Y278841D01*
X97425D02*
X107425D01*
X97425Y38841D02*
Y278841D01*
Y38841D02*
X107425D01*
X182661Y302841D02*
Y332841D01*
X172661D02*
X182661D01*
X172661Y302841D02*
Y332841D01*
Y302841D02*
X182661D01*
X256000Y354500D02*
X276000D01*
X256000Y324500D02*
X276000D01*
X256000D02*
Y354500D01*
X276000Y324500D02*
Y354500D01*
Y335333D02*
Y354500D01*
X227000D02*
X247000D01*
X227000Y324500D02*
X247000D01*
X227000D02*
Y354500D01*
X247000Y324500D02*
Y354500D01*
Y335333D02*
Y354500D01*
M02*
