M48
;Layer_Color=9474304
;FILE_FORMAT=2:5
INCH,TZ
;TYPE=PLATED
T1F00S00C0.03000
T2F00S00C0.03504
T3F00S00C0.03543
T4F00S00C0.03937
T5F00S00C0.04000
T6F00S00C0.04016
T7F00S00C0.15748
;TYPE=NON_PLATED
T8F00S00C0.12795
%
T01
X300500Y71500
Y81500
Y91500
Y101500
X330500
Y91500
Y81500
Y71500
Y138000
Y148000
Y158000
Y168000
X300500
Y158000
Y148000
Y138000
T02
X46500Y308500
X56500
X66500
X61500Y318500
X51500
X41500
X104500
X114500
X124500
X119500Y308500
X109500
X129500
T03
X29000Y44492
Y54335
Y80650
Y90493
X102425Y93841
Y83841
Y73841
Y63841
Y53841
Y43841
X268213
Y53841
Y63841
Y73841
Y83841
Y93841
Y103841
Y113841
Y123841
Y133841
Y143841
Y153841
Y163841
Y173841
Y183841
Y193841
Y203841
Y213841
Y223841
Y233841
Y243841
Y253841
X332602Y213841
Y203998
X102425Y203841
Y193841
Y183841
Y173841
Y163841
Y153841
Y143841
Y133841
Y123841
Y113841
Y103841
Y213841
Y223841
Y233841
Y243841
Y253841
X29000Y195102
Y185260
Y175417
Y165575
X28606Y155732
X29000Y127169
Y117327
X102425Y263841
Y273841
X177661Y307841
Y317841
Y327841
X204000Y329500
Y339500
Y349500
X214000
Y339500
Y329500
X232000
Y339500
Y349500
X242000
Y339500
Y329500
X261000
X271000
Y339500
X261000
Y349500
X271000
X268213Y273841
Y263841
T04
X103803Y12996
X113803
X123803
T05
X152661Y43841
Y53841
Y63841
Y73841
Y83841
Y93841
X212661
Y83841
Y73841
Y63841
Y53841
Y43841
Y103841
Y113841
Y123841
Y133841
Y143841
Y153841
Y163841
Y173841
Y183841
Y193841
Y203841
Y213841
Y223841
Y233841
Y243841
Y253841
X152661
Y243841
Y233841
Y223841
Y213841
Y203841
Y193841
Y183841
Y173841
Y163841
Y153841
Y143841
Y133841
Y123841
Y113841
Y103841
Y263841
Y273841
X212661
Y263841
T06
X353000Y76000
Y86000
Y96000
Y144000
Y154000
Y164000
T07
X13500Y13000
X353000Y13000
X11500Y375000
X351000Y373500
T08
X34000Y343500
X74000
X97000
X137000
M30
