M48
;Layer_Color=9474304
;FILE_FORMAT=2:5
INCH,LZ
;TYPE=PLATED
T1F00S00C0.03000
T2F00S00C0.03504
T3F00S00C0.03543
T4F00S00C0.03937
T5F00S00C0.04000
T6F00S00C0.04016
T7F00S00C0.15748
;TYPE=NON_PLATED
T8F00S00C0.12795
%
T01
X03005Y00715
Y00815
Y00915
Y01015
X03305
Y00915
Y00815
Y00715
Y0138
Y0148
Y0158
Y0168
X03005
Y0158
Y0148
Y0138
T02
X00465Y03085
X00565
X00665
X00615Y03185
X00515
X00415
X01045
X01145
X01245
X01195Y03085
X01095
X01295
T03
X0029Y0044492
Y0054335
Y008065
Y0090493
X0102425Y0093841
Y0083841
Y0073841
Y0063841
Y0053841
Y0043841
X0268213
Y0053841
Y0063841
Y0073841
Y0083841
Y0093841
Y0103841
Y0113841
Y0123841
Y0133841
Y0143841
Y0153841
Y0163841
Y0173841
Y0183841
Y0193841
Y0203841
Y0213841
Y0223841
Y0233841
Y0243841
Y0253841
X0332602Y0213841
Y0203998
X0102425Y0203841
Y0193841
Y0183841
Y0173841
Y0163841
Y0153841
Y0143841
Y0133841
Y0123841
Y0113841
Y0103841
Y0213841
Y0223841
Y0233841
Y0243841
Y0253841
X0029Y0195102
Y018526
Y0175417
Y0165575
X0028606Y0155732
X0029Y0127169
Y0117327
X0102425Y0263841
Y0273841
X0177661Y0307841
Y0317841
Y0327841
X0204Y03295
Y03395
Y03495
X0214
Y03395
Y03295
X0232
Y03395
Y03495
X0242
Y03395
Y03295
X0261
X0271
Y03395
X0261
Y03495
X0271
X0268213Y0273841
Y0263841
T04
X0103803Y0012996
X0113803
X0123803
T05
X0152661Y0043841
Y0053841
Y0063841
Y0073841
Y0083841
Y0093841
X0212661
Y0083841
Y0073841
Y0063841
Y0053841
Y0043841
Y0103841
Y0113841
Y0123841
Y0133841
Y0143841
Y0153841
Y0163841
Y0173841
Y0183841
Y0193841
Y0203841
Y0213841
Y0223841
Y0233841
Y0243841
Y0253841
X0152661
Y0243841
Y0233841
Y0223841
Y0213841
Y0203841
Y0193841
Y0183841
Y0173841
Y0163841
Y0153841
Y0143841
Y0133841
Y0123841
Y0113841
Y0103841
Y0263841
Y0273841
X0212661
Y0263841
T06
X0353Y0076
Y0086
Y0096
Y0144
Y0154
Y0164
T07
X00135Y0013
X0353Y0013
X00115Y0375
X0351Y03735
T08
X0034Y03435
X0074
X0097
X0137
M30
