%TF.GenerationSoftware,Altium Limited,Altium Designer,19.1.8 (144)*%
G04 Layer_Color=32768*
%FSLAX26Y26*%
%MOIN*%
%TF.FileFunction,Other,Mechanical_15*%
%TF.Part,Single*%
G01*
G75*
%TA.AperFunction,NonConductor*%
%ADD35C,0.010000*%
%ADD42C,0.003937*%
%ADD43C,0.001968*%
D35*
X1455000Y3430000D02*
Y3870000D01*
X890000D02*
X1455000D01*
X890000Y3005000D02*
Y3870000D01*
Y3005000D02*
X1455000D01*
Y3435000D01*
X825000Y3005000D02*
Y3435000D01*
X260000Y3005000D02*
X825000D01*
X260000D02*
Y3870000D01*
X825000D01*
Y3430000D02*
Y3870000D01*
D42*
X470161Y2555142D02*
Y2594512D01*
X450476Y2574827D02*
X489846D01*
X525476Y2305354D02*
X564846D01*
X545161Y2285669D02*
Y2325039D01*
X550476Y1995000D02*
X589846D01*
X570161Y1975315D02*
Y2014685D01*
X1592317Y3178409D02*
X1631687D01*
X1612002Y3158724D02*
Y3198094D01*
X2927795Y2118149D02*
Y2157520D01*
X2908110Y2137835D02*
X2947480D01*
X821496Y441969D02*
X860866D01*
X841181Y422284D02*
Y461654D01*
D43*
X434728Y2641756D02*
X505594D01*
X434728Y2507898D02*
X505594D01*
Y2641756D01*
X434728Y2507898D02*
Y2641756D01*
X663272Y2141968D02*
Y2468740D01*
X427051Y2141968D02*
Y2468740D01*
X663272D01*
X427051Y2141968D02*
X663272D01*
X532760Y1928071D02*
Y2061929D01*
X607563Y1928071D02*
Y2061929D01*
X532760Y1928071D02*
X607563D01*
X532760Y2061929D02*
X607563D01*
X1545073Y3142976D02*
Y3213842D01*
X1678931Y3142976D02*
Y3213842D01*
X1545073D02*
X1678931D01*
X1545073Y3142976D02*
X1678931D01*
X2860866Y2175236D02*
X2994724D01*
X2860866Y2100433D02*
X2994724D01*
X2860866D02*
Y2175236D01*
X2994724Y2100433D02*
Y2175236D01*
X878583Y375039D02*
Y508898D01*
X803779Y375039D02*
Y508898D01*
X878583D01*
X803779Y375039D02*
X878583D01*
%TF.MD5,a575e98d6974fd1213873e7a62b94575*%
M02*
