%TF.GenerationSoftware,Altium Limited,Altium Designer,19.1.8 (144)*%
G04 Layer_Color=2752767*
%FSLAX26Y26*%
%MOIN*%
%TF.FileFunction,Drawing*%
%TF.Part,Single*%
G01*
G75*
%TA.AperFunction,NonConductor*%
%ADD58C,0.005000*%
%ADD59C,0.006667*%
D58*
X1025000Y3165000D02*
Y3205000D01*
X1065000D01*
Y3165000D01*
X1025000D01*
X1125000D02*
Y3205000D01*
X1165000D01*
Y3165000D01*
X1125000D01*
X1225000D02*
Y3205000D01*
X1265000D01*
Y3165000D01*
X1225000D01*
X1075000Y3065000D02*
Y3105000D01*
X1115000D01*
Y3065000D01*
X1075000D01*
X1175000D02*
Y3105000D01*
X1215000D01*
Y3065000D01*
X1175000D01*
X1275000D02*
Y3105000D01*
X1315000D01*
Y3065000D01*
X1275000D01*
X645000D02*
Y3105000D01*
X685000D01*
Y3065000D01*
X645000D01*
X545000D02*
Y3105000D01*
X585000D01*
Y3065000D01*
X545000D01*
X445000D02*
Y3105000D01*
X485000D01*
Y3065000D01*
X445000D01*
X595000Y3165000D02*
Y3205000D01*
X635000D01*
Y3165000D01*
X595000D01*
X495000D02*
Y3205000D01*
X535000D01*
Y3165000D01*
X495000D01*
X395000D02*
Y3205000D01*
X435000D01*
Y3165000D01*
X395000D01*
X2040000Y3475000D02*
X2020000Y3515000D01*
X2060000D01*
X2040000Y3475000D01*
X2140000D02*
X2120000Y3515000D01*
X2160000D01*
X2140000Y3475000D01*
X2040000Y3375000D02*
X2020000Y3415000D01*
X2060000D01*
X2040000Y3375000D01*
X2140000D02*
X2120000Y3415000D01*
X2160000D01*
X2140000Y3375000D01*
X2040000Y3275000D02*
X2020000Y3315000D01*
X2060000D01*
X2040000Y3275000D01*
X2140000D02*
X2120000Y3315000D01*
X2160000D01*
X2140000Y3275000D01*
X3326023Y2019984D02*
X3306023Y2059984D01*
X3346023D01*
X3326023Y2019984D01*
Y2118410D02*
X3306023Y2158410D01*
X3346023D01*
X3326023Y2118410D01*
X290000Y1931024D02*
X270000Y1971024D01*
X310000D01*
X290000Y1931024D01*
Y1832598D02*
X270000Y1872598D01*
X310000D01*
X290000Y1832598D01*
Y1734173D02*
X270000Y1774173D01*
X310000D01*
X290000Y1734173D01*
Y1635748D02*
X270000Y1675748D01*
X310000D01*
X290000Y1635748D01*
X286063Y1537323D02*
X266063Y1577323D01*
X306063D01*
X286063Y1537323D01*
X2126614Y1118409D02*
X2136614Y1128409D01*
X2146614D01*
X2136614Y1138409D01*
X2146614Y1148409D01*
X2136614D01*
X2126614Y1158409D01*
X2116614Y1148409D01*
X2106614D01*
X2116614Y1138409D01*
X2106614Y1128409D01*
X2116614D01*
X2126614Y1118409D01*
Y1218409D02*
X2136614Y1228409D01*
X2146614D01*
X2136614Y1238409D01*
X2146614Y1248409D01*
X2136614D01*
X2126614Y1258409D01*
X2116614Y1248409D01*
X2106614D01*
X2116614Y1238409D01*
X2106614Y1228409D01*
X2116614D01*
X2126614Y1218409D01*
Y1318409D02*
X2136614Y1328409D01*
X2146614D01*
X2136614Y1338409D01*
X2146614Y1348409D01*
X2136614D01*
X2126614Y1358409D01*
X2116614Y1348409D01*
X2106614D01*
X2116614Y1338409D01*
X2106614Y1328409D01*
X2116614D01*
X2126614Y1318409D01*
Y2718410D02*
X2136614Y2728410D01*
X2146614D01*
X2136614Y2738410D01*
X2146614Y2748410D01*
X2136614D01*
X2126614Y2758410D01*
X2116614Y2748410D01*
X2106614D01*
X2116614Y2738410D01*
X2106614Y2728410D01*
X2116614D01*
X2126614Y2718410D01*
Y2618410D02*
X2136614Y2628410D01*
X2146614D01*
X2136614Y2638410D01*
X2146614Y2648410D01*
X2136614D01*
X2126614Y2658410D01*
X2116614Y2648410D01*
X2106614D01*
X2116614Y2638410D01*
X2106614Y2628410D01*
X2116614D01*
X2126614Y2618410D01*
Y2518410D02*
X2136614Y2528410D01*
X2146614D01*
X2136614Y2538410D01*
X2146614Y2548410D01*
X2136614D01*
X2126614Y2558410D01*
X2116614Y2548410D01*
X2106614D01*
X2116614Y2538410D01*
X2106614Y2528410D01*
X2116614D01*
X2126614Y2518410D01*
X1526614Y1318409D02*
X1536614Y1328409D01*
X1546614D01*
X1536614Y1338409D01*
X1546614Y1348409D01*
X1536614D01*
X1526614Y1358409D01*
X1516614Y1348409D01*
X1506614D01*
X1516614Y1338409D01*
X1506614Y1328409D01*
X1516614D01*
X1526614Y1318409D01*
X2126614Y1018409D02*
X2136614Y1028409D01*
X2146614D01*
X2136614Y1038409D01*
X2146614Y1048409D01*
X2136614D01*
X2126614Y1058409D01*
X2116614Y1048409D01*
X2106614D01*
X2116614Y1038409D01*
X2106614Y1028409D01*
X2116614D01*
X2126614Y1018409D01*
Y918409D02*
X2136614Y928409D01*
X2146614D01*
X2136614Y938409D01*
X2146614Y948409D01*
X2136614D01*
X2126614Y958409D01*
X2116614Y948409D01*
X2106614D01*
X2116614Y938409D01*
X2106614Y928409D01*
X2116614D01*
X2126614Y918409D01*
Y818409D02*
X2136614Y828409D01*
X2146614D01*
X2136614Y838409D01*
X2146614Y848409D01*
X2136614D01*
X2126614Y858409D01*
X2116614Y848409D01*
X2106614D01*
X2116614Y838409D01*
X2106614Y828409D01*
X2116614D01*
X2126614Y818409D01*
Y718409D02*
X2136614Y728409D01*
X2146614D01*
X2136614Y738409D01*
X2146614Y748409D01*
X2136614D01*
X2126614Y758409D01*
X2116614Y748409D01*
X2106614D01*
X2116614Y738409D01*
X2106614Y728409D01*
X2116614D01*
X2126614Y718409D01*
Y618409D02*
X2136614Y628409D01*
X2146614D01*
X2136614Y638409D01*
X2146614Y648409D01*
X2136614D01*
X2126614Y658409D01*
X2116614Y648409D01*
X2106614D01*
X2116614Y638409D01*
X2106614Y628409D01*
X2116614D01*
X2126614Y618409D01*
Y518409D02*
X2136614Y528409D01*
X2146614D01*
X2136614Y538409D01*
X2146614Y548409D01*
X2136614D01*
X2126614Y558409D01*
X2116614Y548409D01*
X2106614D01*
X2116614Y538409D01*
X2106614Y528409D01*
X2116614D01*
X2126614Y518409D01*
Y418409D02*
X2136614Y428409D01*
X2146614D01*
X2136614Y438409D01*
X2146614Y448409D01*
X2136614D01*
X2126614Y458409D01*
X2116614Y448409D01*
X2106614D01*
X2116614Y438409D01*
X2106614Y428409D01*
X2116614D01*
X2126614Y418409D01*
X1526614D02*
X1536614Y428409D01*
X1546614D01*
X1536614Y438409D01*
X1546614Y448409D01*
X1536614D01*
X1526614Y458409D01*
X1516614Y448409D01*
X1506614D01*
X1516614Y438409D01*
X1506614Y428409D01*
X1516614D01*
X1526614Y418409D01*
Y518409D02*
X1536614Y528409D01*
X1546614D01*
X1536614Y538409D01*
X1546614Y548409D01*
X1536614D01*
X1526614Y558409D01*
X1516614Y548409D01*
X1506614D01*
X1516614Y538409D01*
X1506614Y528409D01*
X1516614D01*
X1526614Y518409D01*
Y618409D02*
X1536614Y628409D01*
X1546614D01*
X1536614Y638409D01*
X1546614Y648409D01*
X1536614D01*
X1526614Y658409D01*
X1516614Y648409D01*
X1506614D01*
X1516614Y638409D01*
X1506614Y628409D01*
X1516614D01*
X1526614Y618409D01*
Y718409D02*
X1536614Y728409D01*
X1546614D01*
X1536614Y738409D01*
X1546614Y748409D01*
X1536614D01*
X1526614Y758409D01*
X1516614Y748409D01*
X1506614D01*
X1516614Y738409D01*
X1506614Y728409D01*
X1516614D01*
X1526614Y718409D01*
Y818409D02*
X1536614Y828409D01*
X1546614D01*
X1536614Y838409D01*
X1546614Y848409D01*
X1536614D01*
X1526614Y858409D01*
X1516614Y848409D01*
X1506614D01*
X1516614Y838409D01*
X1506614Y828409D01*
X1516614D01*
X1526614Y818409D01*
Y918409D02*
X1536614Y928409D01*
X1546614D01*
X1536614Y938409D01*
X1546614Y948409D01*
X1536614D01*
X1526614Y958409D01*
X1516614Y948409D01*
X1506614D01*
X1516614Y938409D01*
X1506614Y928409D01*
X1516614D01*
X1526614Y918409D01*
Y1018409D02*
X1536614Y1028409D01*
X1546614D01*
X1536614Y1038409D01*
X1546614Y1048409D01*
X1536614D01*
X1526614Y1058409D01*
X1516614Y1048409D01*
X1506614D01*
X1516614Y1038409D01*
X1506614Y1028409D01*
X1516614D01*
X1526614Y1018409D01*
Y1118409D02*
X1536614Y1128409D01*
X1546614D01*
X1536614Y1138409D01*
X1546614Y1148409D01*
X1536614D01*
X1526614Y1158409D01*
X1516614Y1148409D01*
X1506614D01*
X1516614Y1138409D01*
X1506614Y1128409D01*
X1516614D01*
X1526614Y1118409D01*
Y1218409D02*
X1536614Y1228409D01*
X1546614D01*
X1536614Y1238409D01*
X1546614Y1248409D01*
X1536614D01*
X1526614Y1258409D01*
X1516614Y1248409D01*
X1506614D01*
X1516614Y1238409D01*
X1506614Y1228409D01*
X1516614D01*
X1526614Y1218409D01*
X2126614Y2418410D02*
X2136614Y2428410D01*
X2146614D01*
X2136614Y2438410D01*
X2146614Y2448410D01*
X2136614D01*
X2126614Y2458410D01*
X2116614Y2448410D01*
X2106614D01*
X2116614Y2438410D01*
X2106614Y2428410D01*
X2116614D01*
X2126614Y2418410D01*
Y2318410D02*
X2136614Y2328410D01*
X2146614D01*
X2136614Y2338410D01*
X2146614Y2348410D01*
X2136614D01*
X2126614Y2358410D01*
X2116614Y2348410D01*
X2106614D01*
X2116614Y2338410D01*
X2106614Y2328410D01*
X2116614D01*
X2126614Y2318410D01*
Y2218410D02*
X2136614Y2228410D01*
X2146614D01*
X2136614Y2238410D01*
X2146614Y2248410D01*
X2136614D01*
X2126614Y2258410D01*
X2116614Y2248410D01*
X2106614D01*
X2116614Y2238410D01*
X2106614Y2228410D01*
X2116614D01*
X2126614Y2218410D01*
Y2118410D02*
X2136614Y2128410D01*
X2146614D01*
X2136614Y2138410D01*
X2146614Y2148410D01*
X2136614D01*
X2126614Y2158410D01*
X2116614Y2148410D01*
X2106614D01*
X2116614Y2138410D01*
X2106614Y2128410D01*
X2116614D01*
X2126614Y2118410D01*
Y2018409D02*
X2136614Y2028409D01*
X2146614D01*
X2136614Y2038409D01*
X2146614Y2048410D01*
X2136614D01*
X2126614Y2058410D01*
X2116614Y2048410D01*
X2106614D01*
X2116614Y2038409D01*
X2106614Y2028409D01*
X2116614D01*
X2126614Y2018409D01*
Y1918409D02*
X2136614Y1928409D01*
X2146614D01*
X2136614Y1938409D01*
X2146614Y1948409D01*
X2136614D01*
X2126614Y1958409D01*
X2116614Y1948409D01*
X2106614D01*
X2116614Y1938409D01*
X2106614Y1928409D01*
X2116614D01*
X2126614Y1918409D01*
Y1818409D02*
X2136614Y1828409D01*
X2146614D01*
X2136614Y1838409D01*
X2146614Y1848409D01*
X2136614D01*
X2126614Y1858409D01*
X2116614Y1848409D01*
X2106614D01*
X2116614Y1838409D01*
X2106614Y1828409D01*
X2116614D01*
X2126614Y1818409D01*
Y1718409D02*
X2136614Y1728409D01*
X2146614D01*
X2136614Y1738409D01*
X2146614Y1748409D01*
X2136614D01*
X2126614Y1758409D01*
X2116614Y1748409D01*
X2106614D01*
X2116614Y1738409D01*
X2106614Y1728409D01*
X2116614D01*
X2126614Y1718409D01*
Y1618409D02*
X2136614Y1628409D01*
X2146614D01*
X2136614Y1638409D01*
X2146614Y1648409D01*
X2136614D01*
X2126614Y1658409D01*
X2116614Y1648409D01*
X2106614D01*
X2116614Y1638409D01*
X2106614Y1628409D01*
X2116614D01*
X2126614Y1618409D01*
Y1518409D02*
X2136614Y1528409D01*
X2146614D01*
X2136614Y1538409D01*
X2146614Y1548409D01*
X2136614D01*
X2126614Y1558409D01*
X2116614Y1548409D01*
X2106614D01*
X2116614Y1538409D01*
X2106614Y1528409D01*
X2116614D01*
X2126614Y1518409D01*
Y1418409D02*
X2136614Y1428409D01*
X2146614D01*
X2136614Y1438409D01*
X2146614Y1448409D01*
X2136614D01*
X2126614Y1458409D01*
X2116614Y1448409D01*
X2106614D01*
X2116614Y1438409D01*
X2106614Y1428409D01*
X2116614D01*
X2126614Y1418409D01*
X1526614D02*
X1536614Y1428409D01*
X1546614D01*
X1536614Y1438409D01*
X1546614Y1448409D01*
X1536614D01*
X1526614Y1458409D01*
X1516614Y1448409D01*
X1506614D01*
X1516614Y1438409D01*
X1506614Y1428409D01*
X1516614D01*
X1526614Y1418409D01*
Y1518409D02*
X1536614Y1528409D01*
X1546614D01*
X1536614Y1538409D01*
X1546614Y1548409D01*
X1536614D01*
X1526614Y1558409D01*
X1516614Y1548409D01*
X1506614D01*
X1516614Y1538409D01*
X1506614Y1528409D01*
X1516614D01*
X1526614Y1518409D01*
Y1618409D02*
X1536614Y1628409D01*
X1546614D01*
X1536614Y1638409D01*
X1546614Y1648409D01*
X1536614D01*
X1526614Y1658409D01*
X1516614Y1648409D01*
X1506614D01*
X1516614Y1638409D01*
X1506614Y1628409D01*
X1516614D01*
X1526614Y1618409D01*
Y1718409D02*
X1536614Y1728409D01*
X1546614D01*
X1536614Y1738409D01*
X1546614Y1748409D01*
X1536614D01*
X1526614Y1758409D01*
X1516614Y1748409D01*
X1506614D01*
X1516614Y1738409D01*
X1506614Y1728409D01*
X1516614D01*
X1526614Y1718409D01*
Y1818409D02*
X1536614Y1828409D01*
X1546614D01*
X1536614Y1838409D01*
X1546614Y1848409D01*
X1536614D01*
X1526614Y1858409D01*
X1516614Y1848409D01*
X1506614D01*
X1516614Y1838409D01*
X1506614Y1828409D01*
X1516614D01*
X1526614Y1818409D01*
Y1918409D02*
X1536614Y1928409D01*
X1546614D01*
X1536614Y1938409D01*
X1546614Y1948409D01*
X1536614D01*
X1526614Y1958409D01*
X1516614Y1948409D01*
X1506614D01*
X1516614Y1938409D01*
X1506614Y1928409D01*
X1516614D01*
X1526614Y1918409D01*
Y2018409D02*
X1536614Y2028409D01*
X1546614D01*
X1536614Y2038409D01*
X1546614Y2048410D01*
X1536614D01*
X1526614Y2058410D01*
X1516614Y2048410D01*
X1506614D01*
X1516614Y2038409D01*
X1506614Y2028409D01*
X1516614D01*
X1526614Y2018409D01*
Y2118410D02*
X1536614Y2128410D01*
X1546614D01*
X1536614Y2138410D01*
X1546614Y2148410D01*
X1536614D01*
X1526614Y2158410D01*
X1516614Y2148410D01*
X1506614D01*
X1516614Y2138410D01*
X1506614Y2128410D01*
X1516614D01*
X1526614Y2118410D01*
Y2218410D02*
X1536614Y2228410D01*
X1546614D01*
X1536614Y2238410D01*
X1546614Y2248410D01*
X1536614D01*
X1526614Y2258410D01*
X1516614Y2248410D01*
X1506614D01*
X1516614Y2238410D01*
X1506614Y2228410D01*
X1516614D01*
X1526614Y2218410D01*
Y2318410D02*
X1536614Y2328410D01*
X1546614D01*
X1536614Y2338410D01*
X1546614Y2348410D01*
X1536614D01*
X1526614Y2358410D01*
X1516614Y2348410D01*
X1506614D01*
X1516614Y2338410D01*
X1506614Y2328410D01*
X1516614D01*
X1526614Y2318410D01*
Y2418410D02*
X1536614Y2428410D01*
X1546614D01*
X1536614Y2438410D01*
X1546614Y2448410D01*
X1536614D01*
X1526614Y2458410D01*
X1516614Y2448410D01*
X1506614D01*
X1516614Y2438410D01*
X1506614Y2428410D01*
X1516614D01*
X1526614Y2418410D01*
Y2518410D02*
X1536614Y2528410D01*
X1546614D01*
X1536614Y2538410D01*
X1546614Y2548410D01*
X1536614D01*
X1526614Y2558410D01*
X1516614Y2548410D01*
X1506614D01*
X1516614Y2538410D01*
X1506614Y2528410D01*
X1516614D01*
X1526614Y2518410D01*
Y2618410D02*
X1536614Y2628410D01*
X1546614D01*
X1536614Y2638410D01*
X1546614Y2648410D01*
X1536614D01*
X1526614Y2658410D01*
X1516614Y2648410D01*
X1506614D01*
X1516614Y2638410D01*
X1506614Y2628410D01*
X1516614D01*
X1526614Y2618410D01*
Y2718410D02*
X1536614Y2728410D01*
X1546614D01*
X1536614Y2738410D01*
X1546614Y2748410D01*
X1536614D01*
X1526614Y2758410D01*
X1516614Y2748410D01*
X1506614D01*
X1516614Y2738410D01*
X1506614Y2728410D01*
X1516614D01*
X1526614Y2718410D01*
X290000Y786501D02*
X270000Y826501D01*
X310000D01*
X290000Y786501D01*
Y884926D02*
X270000Y924926D01*
X310000D01*
X290000Y884926D01*
X3490000Y3715000D02*
X3500000Y3735000D01*
X3490000Y3755000D01*
X3510000Y3745000D01*
X3530000Y3755000D01*
X3520000Y3735000D01*
X3530000Y3715000D01*
X3510000Y3725000D01*
X3490000Y3715000D01*
X3509996Y110000D02*
X3519996Y130000D01*
X3509996Y150000D01*
X3529996Y140000D01*
X3549996Y150000D01*
X3539996Y130000D01*
X3549996Y110000D01*
X3529996Y120000D01*
X3509996Y110000D01*
X115000Y110000D02*
X125000Y130000D01*
X115000Y150000D01*
X135000Y140000D01*
X155000Y150000D01*
X145000Y130000D01*
X155000Y110000D01*
X135000Y120000D01*
X115000Y110000D01*
X95000Y3730000D02*
X105000Y3750000D01*
X95000Y3770000D01*
X115000Y3760000D01*
X135000Y3770000D01*
X125000Y3750000D01*
X135000Y3730000D01*
X115000Y3740000D01*
X95000Y3730000D01*
X3520000Y750000D02*
Y740000D01*
X3540000D01*
Y750000D01*
X3550000D01*
Y770000D01*
X3540000D01*
Y780000D01*
X3520000D01*
Y770000D01*
X3510000D01*
Y750000D01*
X3520000D01*
Y850000D02*
Y840000D01*
X3540000D01*
Y850000D01*
X3550000D01*
Y870000D01*
X3540000D01*
Y880000D01*
X3520000D01*
Y870000D01*
X3510000D01*
Y850000D01*
X3520000D01*
Y950000D02*
Y940000D01*
X3540000D01*
Y950000D01*
X3550000D01*
Y970000D01*
X3540000D01*
Y980000D01*
X3520000D01*
Y970000D01*
X3510000D01*
Y950000D01*
X3520000D01*
Y1430000D02*
Y1420000D01*
X3540000D01*
Y1430000D01*
X3550000D01*
Y1450000D01*
X3540000D01*
Y1460000D01*
X3520000D01*
Y1450000D01*
X3510000D01*
Y1430000D01*
X3520000D01*
Y1530000D02*
Y1520000D01*
X3540000D01*
Y1530000D01*
X3550000D01*
Y1550000D01*
X3540000D01*
Y1560000D01*
X3520000D01*
Y1550000D01*
X3510000D01*
Y1530000D01*
X3520000D01*
Y1630000D02*
Y1620000D01*
X3540000D01*
Y1630000D01*
X3550000D01*
Y1650000D01*
X3540000D01*
Y1660000D01*
X3520000D01*
Y1650000D01*
X3510000D01*
Y1630000D01*
X3520000D01*
X2985000Y995000D02*
X2995000D01*
X3005000Y1005000D01*
X3015000Y995000D01*
X3025000D01*
Y1005000D01*
X3015000Y1015000D01*
X3025000Y1025000D01*
Y1035000D01*
X3015000D01*
X3005000Y1025000D01*
X2995000Y1035000D01*
X2985000D01*
Y1025000D01*
X2995000Y1015000D01*
X2985000Y1005000D01*
Y995000D01*
Y895000D02*
X2995000D01*
X3005000Y905000D01*
X3015000Y895000D01*
X3025000D01*
Y905000D01*
X3015000Y915000D01*
X3025000Y925000D01*
Y935000D01*
X3015000D01*
X3005000Y925000D01*
X2995000Y935000D01*
X2985000D01*
Y925000D01*
X2995000Y915000D01*
X2985000Y905000D01*
Y895000D01*
Y795000D02*
X2995000D01*
X3005000Y805000D01*
X3015000Y795000D01*
X3025000D01*
Y805000D01*
X3015000Y815000D01*
X3025000Y825000D01*
Y835000D01*
X3015000D01*
X3005000Y825000D01*
X2995000Y835000D01*
X2985000D01*
Y825000D01*
X2995000Y815000D01*
X2985000Y805000D01*
Y795000D01*
Y695000D02*
X2995000D01*
X3005000Y705000D01*
X3015000Y695000D01*
X3025000D01*
Y705000D01*
X3015000Y715000D01*
X3025000Y725000D01*
Y735000D01*
X3015000D01*
X3005000Y725000D01*
X2995000Y735000D01*
X2985000D01*
Y725000D01*
X2995000Y715000D01*
X2985000Y705000D01*
Y695000D01*
X3285000D02*
X3295000D01*
X3305000Y705000D01*
X3315000Y695000D01*
X3325000D01*
Y705000D01*
X3315000Y715000D01*
X3325000Y725000D01*
Y735000D01*
X3315000D01*
X3305000Y725000D01*
X3295000Y735000D01*
X3285000D01*
Y725000D01*
X3295000Y715000D01*
X3285000Y705000D01*
Y695000D01*
Y795000D02*
X3295000D01*
X3305000Y805000D01*
X3315000Y795000D01*
X3325000D01*
Y805000D01*
X3315000Y815000D01*
X3325000Y825000D01*
Y835000D01*
X3315000D01*
X3305000Y825000D01*
X3295000Y835000D01*
X3285000D01*
Y825000D01*
X3295000Y815000D01*
X3285000Y805000D01*
Y795000D01*
Y895000D02*
X3295000D01*
X3305000Y905000D01*
X3315000Y895000D01*
X3325000D01*
Y905000D01*
X3315000Y915000D01*
X3325000Y925000D01*
Y935000D01*
X3315000D01*
X3305000Y925000D01*
X3295000Y935000D01*
X3285000D01*
Y925000D01*
X3295000Y915000D01*
X3285000Y905000D01*
Y895000D01*
Y995000D02*
X3295000D01*
X3305000Y1005000D01*
X3315000Y995000D01*
X3325000D01*
Y1005000D01*
X3315000Y1015000D01*
X3325000Y1025000D01*
Y1035000D01*
X3315000D01*
X3305000Y1025000D01*
X3295000Y1035000D01*
X3285000D01*
Y1025000D01*
X3295000Y1015000D01*
X3285000Y1005000D01*
Y995000D01*
X2985000Y1660000D02*
X2995000D01*
X3005000Y1670000D01*
X3015000Y1660000D01*
X3025000D01*
Y1670000D01*
X3015000Y1680000D01*
X3025000Y1690000D01*
Y1700000D01*
X3015000D01*
X3005000Y1690000D01*
X2995000Y1700000D01*
X2985000D01*
Y1690000D01*
X2995000Y1680000D01*
X2985000Y1670000D01*
Y1660000D01*
Y1560000D02*
X2995000D01*
X3005000Y1570000D01*
X3015000Y1560000D01*
X3025000D01*
Y1570000D01*
X3015000Y1580000D01*
X3025000Y1590000D01*
Y1600000D01*
X3015000D01*
X3005000Y1590000D01*
X2995000Y1600000D01*
X2985000D01*
Y1590000D01*
X2995000Y1580000D01*
X2985000Y1570000D01*
Y1560000D01*
Y1460000D02*
X2995000D01*
X3005000Y1470000D01*
X3015000Y1460000D01*
X3025000D01*
Y1470000D01*
X3015000Y1480000D01*
X3025000Y1490000D01*
Y1500000D01*
X3015000D01*
X3005000Y1490000D01*
X2995000Y1500000D01*
X2985000D01*
Y1490000D01*
X2995000Y1480000D01*
X2985000Y1470000D01*
Y1460000D01*
Y1360000D02*
X2995000D01*
X3005000Y1370000D01*
X3015000Y1360000D01*
X3025000D01*
Y1370000D01*
X3015000Y1380000D01*
X3025000Y1390000D01*
Y1400000D01*
X3015000D01*
X3005000Y1390000D01*
X2995000Y1400000D01*
X2985000D01*
Y1390000D01*
X2995000Y1380000D01*
X2985000Y1370000D01*
Y1360000D01*
X3285000D02*
X3295000D01*
X3305000Y1370000D01*
X3315000Y1360000D01*
X3325000D01*
Y1370000D01*
X3315000Y1380000D01*
X3325000Y1390000D01*
Y1400000D01*
X3315000D01*
X3305000Y1390000D01*
X3295000Y1400000D01*
X3285000D01*
Y1390000D01*
X3295000Y1380000D01*
X3285000Y1370000D01*
Y1360000D01*
Y1460000D02*
X3295000D01*
X3305000Y1470000D01*
X3315000Y1460000D01*
X3325000D01*
Y1470000D01*
X3315000Y1480000D01*
X3325000Y1490000D01*
Y1500000D01*
X3315000D01*
X3305000Y1490000D01*
X3295000Y1500000D01*
X3285000D01*
Y1490000D01*
X3295000Y1480000D01*
X3285000Y1470000D01*
Y1460000D01*
Y1560000D02*
X3295000D01*
X3305000Y1570000D01*
X3315000Y1560000D01*
X3325000D01*
Y1570000D01*
X3315000Y1580000D01*
X3325000Y1590000D01*
Y1600000D01*
X3315000D01*
X3305000Y1590000D01*
X3295000Y1600000D01*
X3285000D01*
Y1590000D01*
X3295000Y1580000D01*
X3285000Y1570000D01*
Y1560000D01*
Y1660000D02*
X3295000D01*
X3305000Y1670000D01*
X3315000Y1660000D01*
X3325000D01*
Y1670000D01*
X3315000Y1680000D01*
X3325000Y1690000D01*
Y1700000D01*
X3315000D01*
X3305000Y1690000D01*
X3295000Y1700000D01*
X3285000D01*
Y1690000D01*
X3295000Y1680000D01*
X3285000Y1670000D01*
Y1660000D01*
X290000Y523346D02*
X270000Y563346D01*
X310000D01*
X290000Y523346D01*
Y424921D02*
X270000Y464921D01*
X310000D01*
X290000Y424921D01*
Y1251693D02*
X270000Y1291693D01*
X310000D01*
X290000Y1251693D01*
Y1153268D02*
X270000Y1193268D01*
X310000D01*
X290000Y1153268D01*
X2682126Y2718410D02*
X2662126Y2758410D01*
X2702126D01*
X2682126Y2718410D01*
Y418409D02*
X2662126Y458409D01*
X2702126D01*
X2682126Y418409D01*
Y518409D02*
X2662126Y558409D01*
X2702126D01*
X2682126Y518409D01*
Y618409D02*
X2662126Y658409D01*
X2702126D01*
X2682126Y618409D01*
Y718409D02*
X2662126Y758409D01*
X2702126D01*
X2682126Y718409D01*
Y818409D02*
X2662126Y858409D01*
X2702126D01*
X2682126Y818409D01*
Y918409D02*
X2662126Y958409D01*
X2702126D01*
X2682126Y918409D01*
Y1018409D02*
X2662126Y1058409D01*
X2702126D01*
X2682126Y1018409D01*
Y1118409D02*
X2662126Y1158409D01*
X2702126D01*
X2682126Y1118409D01*
Y1218409D02*
X2662126Y1258409D01*
X2702126D01*
X2682126Y1218409D01*
Y1318409D02*
X2662126Y1358409D01*
X2702126D01*
X2682126Y1318409D01*
Y1418409D02*
X2662126Y1458409D01*
X2702126D01*
X2682126Y1418409D01*
Y1518409D02*
X2662126Y1558409D01*
X2702126D01*
X2682126Y1518409D01*
Y1618409D02*
X2662126Y1658409D01*
X2702126D01*
X2682126Y1618409D01*
Y1718409D02*
X2662126Y1758409D01*
X2702126D01*
X2682126Y1718409D01*
Y1818409D02*
X2662126Y1858409D01*
X2702126D01*
X2682126Y1818409D01*
Y1918409D02*
X2662126Y1958409D01*
X2702126D01*
X2682126Y1918409D01*
Y2018409D02*
X2662126Y2058410D01*
X2702126D01*
X2682126Y2018409D01*
Y2118410D02*
X2662126Y2158410D01*
X2702126D01*
X2682126Y2118410D01*
Y2218410D02*
X2662126Y2258410D01*
X2702126D01*
X2682126Y2218410D01*
Y2318410D02*
X2662126Y2358410D01*
X2702126D01*
X2682126Y2318410D01*
Y2418410D02*
X2662126Y2458410D01*
X2702126D01*
X2682126Y2418410D01*
Y2518410D02*
X2662126Y2558410D01*
X2702126D01*
X2682126Y2518410D01*
Y2618410D02*
X2662126Y2658410D01*
X2702126D01*
X2682126Y2618410D01*
X1024252Y2718410D02*
X1004252Y2758410D01*
X1044252D01*
X1024252Y2718410D01*
Y418409D02*
X1004252Y458409D01*
X1044252D01*
X1024252Y418409D01*
Y518409D02*
X1004252Y558409D01*
X1044252D01*
X1024252Y518409D01*
Y618409D02*
X1004252Y658409D01*
X1044252D01*
X1024252Y618409D01*
Y718409D02*
X1004252Y758409D01*
X1044252D01*
X1024252Y718409D01*
Y818409D02*
X1004252Y858409D01*
X1044252D01*
X1024252Y818409D01*
Y918409D02*
X1004252Y958409D01*
X1044252D01*
X1024252Y918409D01*
Y1018409D02*
X1004252Y1058409D01*
X1044252D01*
X1024252Y1018409D01*
Y1118409D02*
X1004252Y1158409D01*
X1044252D01*
X1024252Y1118409D01*
Y1218409D02*
X1004252Y1258409D01*
X1044252D01*
X1024252Y1218409D01*
Y1318409D02*
X1004252Y1358409D01*
X1044252D01*
X1024252Y1318409D01*
Y1418409D02*
X1004252Y1458409D01*
X1044252D01*
X1024252Y1418409D01*
Y1518409D02*
X1004252Y1558409D01*
X1044252D01*
X1024252Y1518409D01*
Y1618409D02*
X1004252Y1658409D01*
X1044252D01*
X1024252Y1618409D01*
Y1718409D02*
X1004252Y1758409D01*
X1044252D01*
X1024252Y1718409D01*
Y1818409D02*
X1004252Y1858409D01*
X1044252D01*
X1024252Y1818409D01*
Y1918409D02*
X1004252Y1958409D01*
X1044252D01*
X1024252Y1918409D01*
Y2018409D02*
X1004252Y2058410D01*
X1044252D01*
X1024252Y2018409D01*
Y2118410D02*
X1004252Y2158410D01*
X1044252D01*
X1024252Y2118410D01*
Y2218410D02*
X1004252Y2258410D01*
X1044252D01*
X1024252Y2218410D01*
Y2318410D02*
X1004252Y2358410D01*
X1044252D01*
X1024252Y2318410D01*
Y2418410D02*
X1004252Y2458410D01*
X1044252D01*
X1024252Y2418410D01*
Y2518410D02*
X1004252Y2558410D01*
X1044252D01*
X1024252Y2518410D01*
Y2618410D02*
X1004252Y2658410D01*
X1044252D01*
X1024252Y2618410D01*
X1776614Y3058408D02*
X1756614Y3098408D01*
X1796614D01*
X1776614Y3058408D01*
Y3158408D02*
X1756614Y3198408D01*
X1796614D01*
X1776614Y3158408D01*
Y3258408D02*
X1756614Y3298408D01*
X1796614D01*
X1776614Y3258408D01*
X2710000Y3275000D02*
X2690000Y3315000D01*
X2730000D01*
X2710000Y3275000D01*
X2610000D02*
X2590000Y3315000D01*
X2630000D01*
X2610000Y3275000D01*
X2710000Y3375000D02*
X2690000Y3415000D01*
X2730000D01*
X2710000Y3375000D01*
X2610000D02*
X2590000Y3415000D01*
X2630000D01*
X2610000Y3375000D01*
X2710000Y3475000D02*
X2690000Y3515000D01*
X2730000D01*
X2710000Y3475000D01*
X2610000D02*
X2590000Y3515000D01*
X2630000D01*
X2610000Y3475000D01*
X2420000Y3275000D02*
X2400000Y3315000D01*
X2440000D01*
X2420000Y3275000D01*
X2320000D02*
X2300000Y3315000D01*
X2340000D01*
X2320000Y3275000D01*
X2420000Y3375000D02*
X2400000Y3415000D01*
X2440000D01*
X2420000Y3375000D01*
X2320000D02*
X2300000Y3415000D01*
X2340000D01*
X2320000Y3375000D01*
X2420000Y3475000D02*
X2400000Y3515000D01*
X2440000D01*
X2420000Y3475000D01*
X2320000D02*
X2300000Y3515000D01*
X2340000D01*
X2320000Y3475000D01*
X1018032Y129961D02*
X1038032Y149961D01*
X1058032Y129961D01*
X1038032Y109961D01*
X1018032Y129961D01*
X1118032D02*
X1138032Y149961D01*
X1158032Y129961D01*
X1138032Y109961D01*
X1118032Y129961D01*
X1218032D02*
X1238032Y149961D01*
X1258032Y129961D01*
X1238032Y109961D01*
X1218032Y129961D01*
D59*
X990000Y3435000D02*
G03*
X990000Y3435000I-20000J0D01*
G01*
X1390000D02*
G03*
X1390000Y3435000I-20000J0D01*
G01*
X760000D02*
G03*
X760000Y3435000I-20000J0D01*
G01*
X360000D02*
G03*
X360000Y3435000I-20000J0D01*
G01*
%TF.MD5,833f7cea26dcaa60832512a012a66fee*%
M02*
