G04*
G04 #@! TF.GenerationSoftware,Altium Limited,Altium Designer,20.0.12 (288)*
G04*
G04 Layer_Color=32768*
%FSLAX25Y25*%
%MOIN*%
G70*
G01*
G75*
%ADD12C,0.01000*%
D12*
X80976Y39213D02*
Y59213D01*
X116976D01*
Y39213D02*
Y59213D01*
X80976Y39213D02*
X116976D01*
X290532Y18811D02*
Y64228D01*
X260886Y18811D02*
X290532D01*
X260886D02*
Y64480D01*
X290532D01*
X37240Y121651D02*
X82657D01*
X37240D02*
Y151296D01*
X82909D01*
Y121651D02*
Y151296D01*
X36917Y152707D02*
X82335D01*
X36917D02*
Y182353D01*
X82587D01*
Y152707D02*
Y182353D01*
X278402Y266063D02*
X323819D01*
Y236417D02*
Y266063D01*
X278150Y236417D02*
X323819D01*
X278150D02*
Y266063D01*
X302874Y107343D02*
X312874D01*
Y137343D01*
X302874D02*
X312874D01*
X302874Y107343D02*
Y137343D01*
X307992Y177913D02*
X317992D01*
Y207914D01*
X307992D02*
X317992D01*
X307992Y177913D02*
Y207914D01*
X37429Y89463D02*
X82846D01*
X37429D02*
Y119109D01*
X83098D01*
Y89463D02*
Y119109D01*
X73657Y184510D02*
X83303D01*
Y243172D01*
X36650D02*
X83303D01*
X36650Y184510D02*
Y243172D01*
Y184510D02*
X83303D01*
X251220Y177842D02*
Y217843D01*
X291220D01*
Y177842D02*
Y217843D01*
X251220Y177842D02*
X291220D01*
X252874Y101939D02*
Y141939D01*
X292874D01*
Y101939D02*
Y141939D01*
X252874Y101939D02*
X292874D01*
M02*
