%TF.GenerationSoftware,Altium Limited,Altium Designer,19.1.8 (144)*%
G04 Layer_Color=128*
%FSLAX26Y26*%
%MOIN*%
%TF.FileFunction,Drillmap*%
%TF.Part,Single*%
G01*
G75*
%TA.AperFunction,NonConductor*%
%ADD58C,0.005000*%
D58*
X1027480Y3185000D02*
X1062520D01*
X1045000Y3167480D02*
Y3202520D01*
X1127480Y3185000D02*
X1162520D01*
X1145000Y3167480D02*
Y3202520D01*
X1227480Y3185000D02*
X1262520D01*
X1245000Y3167480D02*
Y3202520D01*
X1077480Y3085000D02*
X1112520D01*
X1095000Y3067480D02*
Y3102520D01*
X1177480Y3085000D02*
X1212520D01*
X1195000Y3067480D02*
Y3102520D01*
X1277480Y3085000D02*
X1312520D01*
X1295000Y3067480D02*
Y3102520D01*
X906024Y3435000D02*
X1033976D01*
X970000Y3371024D02*
Y3498976D01*
X1306024Y3435000D02*
X1433976D01*
X1370000Y3371024D02*
Y3498976D01*
X676024Y3435000D02*
X803976D01*
X740000Y3371024D02*
Y3498976D01*
X276024Y3435000D02*
X403976D01*
X340000Y3371024D02*
Y3498976D01*
X647480Y3085000D02*
X682520D01*
X665000Y3067480D02*
Y3102520D01*
X547480Y3085000D02*
X582520D01*
X565000Y3067480D02*
Y3102520D01*
X447480Y3085000D02*
X482520D01*
X465000Y3067480D02*
Y3102520D01*
X597480Y3185000D02*
X632520D01*
X615000Y3167480D02*
Y3202520D01*
X497480Y3185000D02*
X532520D01*
X515000Y3167480D02*
Y3202520D01*
X397480Y3185000D02*
X432520D01*
X415000Y3167480D02*
Y3202520D01*
X2022284Y3495000D02*
X2057716D01*
X2040000Y3477284D02*
Y3512716D01*
X2122284Y3495000D02*
X2157716D01*
X2140000Y3477284D02*
Y3512716D01*
X2022284Y3395000D02*
X2057716D01*
X2040000Y3377284D02*
Y3412716D01*
X2122284Y3395000D02*
X2157716D01*
X2140000Y3377284D02*
Y3412716D01*
X2022284Y3295000D02*
X2057716D01*
X2040000Y3277284D02*
Y3312716D01*
X2122284Y3295000D02*
X2157716D01*
X2140000Y3277284D02*
Y3312716D01*
X3308307Y2039984D02*
X3343740D01*
X3326023Y2022268D02*
Y2057701D01*
X3308307Y2138410D02*
X3343740D01*
X3326023Y2120693D02*
Y2156126D01*
X272284Y1951024D02*
X307716D01*
X290000Y1933307D02*
Y1968740D01*
X272284Y1852598D02*
X307716D01*
X290000Y1834882D02*
Y1870315D01*
X272284Y1754173D02*
X307716D01*
X290000Y1736457D02*
Y1771890D01*
X272284Y1655748D02*
X307716D01*
X290000Y1638032D02*
Y1673465D01*
X268346Y1557323D02*
X303779D01*
X286063Y1539606D02*
Y1575039D01*
X2106614Y1138409D02*
X2146614D01*
X2126614Y1118409D02*
Y1158409D01*
X2106614Y1238409D02*
X2146614D01*
X2126614Y1218409D02*
Y1258409D01*
X2106614Y1338409D02*
X2146614D01*
X2126614Y1318409D02*
Y1358409D01*
X2106614Y2738410D02*
X2146614D01*
X2126614Y2718410D02*
Y2758410D01*
X2106614Y2638410D02*
X2146614D01*
X2126614Y2618410D02*
Y2658410D01*
X2106614Y2538410D02*
X2146614D01*
X2126614Y2518410D02*
Y2558410D01*
X1506614Y1338409D02*
X1546614D01*
X1526614Y1318409D02*
Y1358409D01*
X2106614Y1038409D02*
X2146614D01*
X2126614Y1018409D02*
Y1058409D01*
X2106614Y938409D02*
X2146614D01*
X2126614Y918409D02*
Y958409D01*
X2106614Y838409D02*
X2146614D01*
X2126614Y818409D02*
Y858409D01*
X2106614Y738409D02*
X2146614D01*
X2126614Y718409D02*
Y758409D01*
X2106614Y638409D02*
X2146614D01*
X2126614Y618409D02*
Y658409D01*
X2106614Y538409D02*
X2146614D01*
X2126614Y518409D02*
Y558409D01*
X2106614Y438409D02*
X2146614D01*
X2126614Y418409D02*
Y458409D01*
X1506614Y438409D02*
X1546614D01*
X1526614Y418409D02*
Y458409D01*
X1506614Y538409D02*
X1546614D01*
X1526614Y518409D02*
Y558409D01*
X1506614Y638409D02*
X1546614D01*
X1526614Y618409D02*
Y658409D01*
X1506614Y738409D02*
X1546614D01*
X1526614Y718409D02*
Y758409D01*
X1506614Y838409D02*
X1546614D01*
X1526614Y818409D02*
Y858409D01*
X1506614Y938409D02*
X1546614D01*
X1526614Y918409D02*
Y958409D01*
X1506614Y1038409D02*
X1546614D01*
X1526614Y1018409D02*
Y1058409D01*
X1506614Y1138409D02*
X1546614D01*
X1526614Y1118409D02*
Y1158409D01*
X1506614Y1238409D02*
X1546614D01*
X1526614Y1218409D02*
Y1258409D01*
X2106614Y2438410D02*
X2146614D01*
X2126614Y2418410D02*
Y2458410D01*
X2106614Y2338410D02*
X2146614D01*
X2126614Y2318410D02*
Y2358410D01*
X2106614Y2238410D02*
X2146614D01*
X2126614Y2218410D02*
Y2258410D01*
X2106614Y2138410D02*
X2146614D01*
X2126614Y2118410D02*
Y2158410D01*
X2106614Y2038409D02*
X2146614D01*
X2126614Y2018409D02*
Y2058410D01*
X2106614Y1938409D02*
X2146614D01*
X2126614Y1918409D02*
Y1958409D01*
X2106614Y1838409D02*
X2146614D01*
X2126614Y1818409D02*
Y1858409D01*
X2106614Y1738409D02*
X2146614D01*
X2126614Y1718409D02*
Y1758409D01*
X2106614Y1638409D02*
X2146614D01*
X2126614Y1618409D02*
Y1658409D01*
X2106614Y1538409D02*
X2146614D01*
X2126614Y1518409D02*
Y1558409D01*
X2106614Y1438409D02*
X2146614D01*
X2126614Y1418409D02*
Y1458409D01*
X1506614Y1438409D02*
X1546614D01*
X1526614Y1418409D02*
Y1458409D01*
X1506614Y1538409D02*
X1546614D01*
X1526614Y1518409D02*
Y1558409D01*
X1506614Y1638409D02*
X1546614D01*
X1526614Y1618409D02*
Y1658409D01*
X1506614Y1738409D02*
X1546614D01*
X1526614Y1718409D02*
Y1758409D01*
X1506614Y1838409D02*
X1546614D01*
X1526614Y1818409D02*
Y1858409D01*
X1506614Y1938409D02*
X1546614D01*
X1526614Y1918409D02*
Y1958409D01*
X1506614Y2038409D02*
X1546614D01*
X1526614Y2018409D02*
Y2058410D01*
X1506614Y2138410D02*
X1546614D01*
X1526614Y2118410D02*
Y2158410D01*
X1506614Y2238410D02*
X1546614D01*
X1526614Y2218410D02*
Y2258410D01*
X1506614Y2338410D02*
X1546614D01*
X1526614Y2318410D02*
Y2358410D01*
X1506614Y2438410D02*
X1546614D01*
X1526614Y2418410D02*
Y2458410D01*
X1506614Y2538410D02*
X1546614D01*
X1526614Y2518410D02*
Y2558410D01*
X1506614Y2638410D02*
X1546614D01*
X1526614Y2618410D02*
Y2658410D01*
X1506614Y2738410D02*
X1546614D01*
X1526614Y2718410D02*
Y2758410D01*
X272284Y806501D02*
X307716D01*
X290000Y788784D02*
Y824217D01*
X272284Y904926D02*
X307716D01*
X290000Y887210D02*
Y922643D01*
X3431260Y3735000D02*
X3588740D01*
X3510000Y3656260D02*
Y3813740D01*
X3451256Y130000D02*
X3608736D01*
X3529996Y51260D02*
Y208740D01*
X56260Y130000D02*
X213740D01*
X135000Y51260D02*
Y208740D01*
X36260Y3750000D02*
X193740D01*
X115000Y3671260D02*
Y3828740D01*
X3509921Y760000D02*
X3550079D01*
X3530000Y739921D02*
Y780079D01*
X3509921Y860000D02*
X3550079D01*
X3530000Y839921D02*
Y880079D01*
X3509921Y960000D02*
X3550079D01*
X3530000Y939921D02*
Y980079D01*
X3509921Y1440000D02*
X3550079D01*
X3530000Y1419921D02*
Y1460079D01*
X3509921Y1540000D02*
X3550079D01*
X3530000Y1519921D02*
Y1560079D01*
X3509921Y1640000D02*
X3550079D01*
X3530000Y1619921D02*
Y1660079D01*
X2990000Y1015000D02*
X3020000D01*
X3005000Y1000000D02*
Y1030000D01*
X2990000Y915000D02*
X3020000D01*
X3005000Y900000D02*
Y930000D01*
X2990000Y815000D02*
X3020000D01*
X3005000Y800000D02*
Y830000D01*
X2990000Y715000D02*
X3020000D01*
X3005000Y700000D02*
Y730000D01*
X3290000Y715000D02*
X3320000D01*
X3305000Y700000D02*
Y730000D01*
X3290000Y815000D02*
X3320000D01*
X3305000Y800000D02*
Y830000D01*
X3290000Y915000D02*
X3320000D01*
X3305000Y900000D02*
Y930000D01*
X3290000Y1015000D02*
X3320000D01*
X3305000Y1000000D02*
Y1030000D01*
X2990000Y1680000D02*
X3020000D01*
X3005000Y1665000D02*
Y1695000D01*
X2990000Y1580000D02*
X3020000D01*
X3005000Y1565000D02*
Y1595000D01*
X2990000Y1480000D02*
X3020000D01*
X3005000Y1465000D02*
Y1495000D01*
X2990000Y1380000D02*
X3020000D01*
X3005000Y1365000D02*
Y1395000D01*
X3290000Y1380000D02*
X3320000D01*
X3305000Y1365000D02*
Y1395000D01*
X3290000Y1480000D02*
X3320000D01*
X3305000Y1465000D02*
Y1495000D01*
X3290000Y1580000D02*
X3320000D01*
X3305000Y1565000D02*
Y1595000D01*
X3290000Y1680000D02*
X3320000D01*
X3305000Y1665000D02*
Y1695000D01*
X272284Y543346D02*
X307716D01*
X290000Y525630D02*
Y561063D01*
X272284Y444921D02*
X307716D01*
X290000Y427205D02*
Y462638D01*
X272284Y1271693D02*
X307716D01*
X290000Y1253976D02*
Y1289409D01*
X272284Y1173268D02*
X307716D01*
X290000Y1155551D02*
Y1190984D01*
X2664410Y2738410D02*
X2699843D01*
X2682126Y2720693D02*
Y2756126D01*
X2664410Y438409D02*
X2699843D01*
X2682126Y420693D02*
Y456126D01*
X2664410Y538409D02*
X2699843D01*
X2682126Y520693D02*
Y556126D01*
X2664410Y638409D02*
X2699843D01*
X2682126Y620693D02*
Y656126D01*
X2664410Y738409D02*
X2699843D01*
X2682126Y720693D02*
Y756126D01*
X2664410Y838409D02*
X2699843D01*
X2682126Y820693D02*
Y856126D01*
X2664410Y938409D02*
X2699843D01*
X2682126Y920693D02*
Y956126D01*
X2664410Y1038409D02*
X2699843D01*
X2682126Y1020693D02*
Y1056126D01*
X2664410Y1138409D02*
X2699843D01*
X2682126Y1120693D02*
Y1156126D01*
X2664410Y1238409D02*
X2699843D01*
X2682126Y1220693D02*
Y1256126D01*
X2664410Y1338409D02*
X2699843D01*
X2682126Y1320693D02*
Y1356126D01*
X2664410Y1438409D02*
X2699843D01*
X2682126Y1420693D02*
Y1456126D01*
X2664410Y1538409D02*
X2699843D01*
X2682126Y1520693D02*
Y1556126D01*
X2664410Y1638409D02*
X2699843D01*
X2682126Y1620693D02*
Y1656126D01*
X2664410Y1738409D02*
X2699843D01*
X2682126Y1720693D02*
Y1756126D01*
X2664410Y1838409D02*
X2699843D01*
X2682126Y1820693D02*
Y1856126D01*
X2664410Y1938409D02*
X2699843D01*
X2682126Y1920693D02*
Y1956126D01*
X2664410Y2038409D02*
X2699843D01*
X2682126Y2020693D02*
Y2056126D01*
X2664410Y2138410D02*
X2699843D01*
X2682126Y2120693D02*
Y2156126D01*
X2664410Y2238410D02*
X2699843D01*
X2682126Y2220693D02*
Y2256126D01*
X2664410Y2338410D02*
X2699843D01*
X2682126Y2320693D02*
Y2356126D01*
X2664410Y2438410D02*
X2699843D01*
X2682126Y2420693D02*
Y2456126D01*
X2664410Y2538410D02*
X2699843D01*
X2682126Y2520693D02*
Y2556126D01*
X2664410Y2638410D02*
X2699843D01*
X2682126Y2620693D02*
Y2656126D01*
X1006535Y2738410D02*
X1041968D01*
X1024252Y2720693D02*
Y2756126D01*
X1006535Y438409D02*
X1041968D01*
X1024252Y420693D02*
Y456126D01*
X1006535Y538409D02*
X1041968D01*
X1024252Y520693D02*
Y556126D01*
X1006535Y638409D02*
X1041968D01*
X1024252Y620693D02*
Y656126D01*
X1006535Y738409D02*
X1041968D01*
X1024252Y720693D02*
Y756126D01*
X1006535Y838409D02*
X1041968D01*
X1024252Y820693D02*
Y856126D01*
X1006535Y938409D02*
X1041968D01*
X1024252Y920693D02*
Y956126D01*
X1006535Y1038409D02*
X1041968D01*
X1024252Y1020693D02*
Y1056126D01*
X1006535Y1138409D02*
X1041968D01*
X1024252Y1120693D02*
Y1156126D01*
X1006535Y1238409D02*
X1041968D01*
X1024252Y1220693D02*
Y1256126D01*
X1006535Y1338409D02*
X1041968D01*
X1024252Y1320693D02*
Y1356126D01*
X1006535Y1438409D02*
X1041968D01*
X1024252Y1420693D02*
Y1456126D01*
X1006535Y1538409D02*
X1041968D01*
X1024252Y1520693D02*
Y1556126D01*
X1006535Y1638409D02*
X1041968D01*
X1024252Y1620693D02*
Y1656126D01*
X1006535Y1738409D02*
X1041968D01*
X1024252Y1720693D02*
Y1756126D01*
X1006535Y1838409D02*
X1041968D01*
X1024252Y1820693D02*
Y1856126D01*
X1006535Y1938409D02*
X1041968D01*
X1024252Y1920693D02*
Y1956126D01*
X1006535Y2038409D02*
X1041968D01*
X1024252Y2020693D02*
Y2056126D01*
X1006535Y2138410D02*
X1041968D01*
X1024252Y2120693D02*
Y2156126D01*
X1006535Y2238410D02*
X1041968D01*
X1024252Y2220693D02*
Y2256126D01*
X1006535Y2338410D02*
X1041968D01*
X1024252Y2320693D02*
Y2356126D01*
X1006535Y2438410D02*
X1041968D01*
X1024252Y2420693D02*
Y2456126D01*
X1006535Y2538410D02*
X1041968D01*
X1024252Y2520693D02*
Y2556126D01*
X1006535Y2638410D02*
X1041968D01*
X1024252Y2620693D02*
Y2656126D01*
X1758898Y3078408D02*
X1794331D01*
X1776614Y3060691D02*
Y3096124D01*
X1758898Y3178408D02*
X1794331D01*
X1776614Y3160691D02*
Y3196124D01*
X1758898Y3278408D02*
X1794331D01*
X1776614Y3260691D02*
Y3296124D01*
X2692284Y3295000D02*
X2727716D01*
X2710000Y3277284D02*
Y3312716D01*
X2592284Y3295000D02*
X2627716D01*
X2610000Y3277284D02*
Y3312716D01*
X2692284Y3395000D02*
X2727716D01*
X2710000Y3377284D02*
Y3412716D01*
X2592284Y3395000D02*
X2627716D01*
X2610000Y3377284D02*
Y3412716D01*
X2692284Y3495000D02*
X2727716D01*
X2710000Y3477284D02*
Y3512716D01*
X2592284Y3495000D02*
X2627716D01*
X2610000Y3477284D02*
Y3512716D01*
X2402284Y3295000D02*
X2437716D01*
X2420000Y3277284D02*
Y3312716D01*
X2302284Y3295000D02*
X2337716D01*
X2320000Y3277284D02*
Y3312716D01*
X2402284Y3395000D02*
X2437716D01*
X2420000Y3377284D02*
Y3412716D01*
X2302284Y3395000D02*
X2337716D01*
X2320000Y3377284D02*
Y3412716D01*
X2402284Y3495000D02*
X2437716D01*
X2420000Y3477284D02*
Y3512716D01*
X2302284Y3495000D02*
X2337716D01*
X2320000Y3477284D02*
Y3512716D01*
X1018346Y129961D02*
X1057716D01*
X1038032Y110276D02*
Y149646D01*
X1118347Y129961D02*
X1157716D01*
X1138032Y110276D02*
Y149646D01*
X1218347Y129961D02*
X1257716D01*
X1238032Y110276D02*
Y149646D01*
%TF.MD5,c428ccf75aadd6d5a6e75f737a3f04eb*%
M02*
