G04*
G04 #@! TF.GenerationSoftware,Altium Limited,Altium Designer,19.1.8 (144)*
G04*
G04 Layer_Color=8421504*
%FSLAX25Y25*%
%MOIN*%
G70*
G01*
G75*
%ADD12C,0.01000*%
%ADD14C,0.00394*%
%ADD15C,0.00197*%
%ADD16R,0.05118X0.04134*%
%ADD17O,0.02559X0.06496*%
%ADD18R,0.05512X0.04134*%
%ADD19R,0.04134X0.05118*%
%ADD20R,0.04134X0.05512*%
D12*
X142661Y33841D02*
Y283841D01*
Y33841D02*
X222661D01*
Y283841D01*
X142661D02*
X222661D01*
X323602Y223998D02*
X345602D01*
X345988Y194353D02*
Y223998D01*
X323350Y194353D02*
X345988D01*
X323350D02*
Y223998D01*
X15811Y146087D02*
X38252D01*
X15614Y146283D02*
X15811Y146087D01*
X15614Y146283D02*
Y204748D01*
X38252D01*
Y146087D02*
Y204748D01*
X28606Y146087D02*
X38252D01*
Y70493D02*
Y100138D01*
X15614D02*
X38252D01*
X15614Y70493D02*
Y100138D01*
X16000Y70493D02*
X38000D01*
X348000Y71000D02*
Y101001D01*
X358000D01*
Y71000D02*
Y101001D01*
X348000Y71000D02*
X358000D01*
X348000Y139000D02*
Y169001D01*
X358000D01*
Y139000D02*
Y169001D01*
X348000Y139000D02*
X358000D01*
X295500Y66500D02*
Y106500D01*
X335500D01*
Y66500D02*
Y106500D01*
X295500Y66500D02*
X335500D01*
X295500Y133000D02*
Y173000D01*
X335500D01*
Y133000D02*
Y173000D01*
X295500Y133000D02*
X335500D01*
X16000Y34335D02*
X38000D01*
X15614D02*
Y63980D01*
X38252D01*
Y34335D02*
Y63980D01*
X16000Y107169D02*
X38000D01*
X15614D02*
Y136815D01*
X38252D01*
Y107169D02*
Y136815D01*
X95803Y2996D02*
X131803D01*
Y22996D01*
X95803D02*
X131803D01*
X95803Y2996D02*
Y22996D01*
X145500Y343000D02*
Y387000D01*
X89000D02*
X145500D01*
X89000Y300500D02*
Y387000D01*
Y300500D02*
X145500D01*
Y343500D01*
X82500Y300500D02*
Y343500D01*
X26000Y300500D02*
X82500D01*
X26000D02*
Y387000D01*
X82500D01*
Y343000D02*
Y387000D01*
D14*
X50185Y226205D02*
G03*
X50185Y226205I-1969J0D01*
G01*
X44536Y261715D02*
X49496D01*
X44536Y253250D02*
X49496D01*
Y261715D01*
X44536Y253250D02*
Y261715D01*
X64359Y222661D02*
Y238409D01*
X44674Y222661D02*
Y238409D01*
X64359D01*
X44674Y222661D02*
X64359D01*
X54536Y195268D02*
Y203732D01*
X59496Y195268D02*
Y203732D01*
X54536Y195268D02*
X59496D01*
X54536Y203732D02*
X59496D01*
X156968Y315360D02*
Y320321D01*
X165433Y315360D02*
Y320321D01*
X156968D02*
X165433D01*
X156968Y315360D02*
X165433D01*
X288547Y216264D02*
X297012D01*
X288547Y211303D02*
X297012D01*
X288547D02*
Y216264D01*
X297012Y211303D02*
Y216264D01*
X86598Y39965D02*
Y48429D01*
X81638Y39965D02*
Y48429D01*
X86598D01*
X81638Y39965D02*
X86598D01*
X47016Y255514D02*
Y259451D01*
X45048Y257483D02*
X48985D01*
X52548Y230535D02*
X56485D01*
X54516Y228567D02*
Y232504D01*
X55048Y199500D02*
X58985D01*
X57016Y197531D02*
Y201468D01*
X159232Y317841D02*
X163169D01*
X161200Y315872D02*
Y319809D01*
X292779Y211815D02*
Y215752D01*
X290811Y213784D02*
X294748D01*
X82150Y44197D02*
X86087D01*
X84118Y42228D02*
Y46165D01*
D15*
X43473Y264176D02*
X50559D01*
X43473Y250790D02*
X50559D01*
Y264176D01*
X43473Y250790D02*
Y264176D01*
X66327Y214197D02*
Y246874D01*
X42705Y214197D02*
Y246874D01*
X66327D01*
X42705Y214197D02*
X66327D01*
X53276Y192807D02*
Y206193D01*
X60756Y192807D02*
Y206193D01*
X53276Y192807D02*
X60756D01*
X53276Y206193D02*
X60756D01*
X154507Y314298D02*
Y321384D01*
X167893Y314298D02*
Y321384D01*
X154507D02*
X167893D01*
X154507Y314298D02*
X167893D01*
X286087Y217524D02*
X299472D01*
X286087Y210043D02*
X299472D01*
X286087D02*
Y217524D01*
X299472Y210043D02*
Y217524D01*
X87858Y37504D02*
Y50890D01*
X80378Y37504D02*
Y50890D01*
X87858D01*
X80378Y37504D02*
X87858D01*
D16*
X47016Y261124D02*
D03*
Y253841D02*
D03*
D17*
X62016Y241657D02*
D03*
X57016D02*
D03*
X52016D02*
D03*
X47016D02*
D03*
X62016Y219413D02*
D03*
X57016D02*
D03*
X52016D02*
D03*
X47016D02*
D03*
D18*
X57016Y195858D02*
D03*
Y203142D02*
D03*
X84118Y47839D02*
D03*
Y40555D02*
D03*
D19*
X157558Y317841D02*
D03*
X164842D02*
D03*
D20*
X289138Y213784D02*
D03*
X296421D02*
D03*
M02*
