G04*
G04 #@! TF.GenerationSoftware,Altium Limited,Altium Designer,20.0.12 (288)*
G04*
G04 Layer_Physical_Order=1*
G04 Layer_Color=255*
%FSLAX25Y25*%
%MOIN*%
G70*
G01*
G75*
%ADD12C,0.01000*%
%ADD14O,0.02559X0.06496*%
%ADD15R,0.05118X0.04134*%
%ADD16R,0.05512X0.04134*%
%ADD24C,0.02000*%
%ADD25R,0.24672X0.36863*%
%ADD26R,0.24508X0.36551*%
%ADD27C,0.05906*%
%ADD28R,0.05906X0.05906*%
%ADD29C,0.06000*%
%ADD30R,0.06000X0.06000*%
%ADD31C,0.05000*%
%ADD32C,0.02362*%
G36*
X311811Y342870D02*
X327376Y342870D01*
X327729Y342517D01*
X327729Y52903D01*
X311024Y52903D01*
X311024Y35433D01*
X76378Y35433D01*
X76378Y50047D01*
X67469Y50047D01*
X66929Y50100D01*
X66389Y50047D01*
X60264D01*
X60264Y234913D01*
X60764Y235096D01*
X70351Y225509D01*
X70001Y224663D01*
X69872Y223684D01*
X70001Y222704D01*
X70379Y221791D01*
X70981Y221007D01*
X71765Y220406D01*
X72678Y220027D01*
X73657Y219898D01*
X74637Y220027D01*
X75550Y220406D01*
X76334Y221007D01*
X76935Y221791D01*
X77314Y222704D01*
X77443Y223684D01*
X77314Y224663D01*
X76935Y225576D01*
X76334Y226360D01*
X75550Y226961D01*
X74637Y227340D01*
X73657Y227469D01*
X72678Y227340D01*
X72389Y227220D01*
X62897Y236712D01*
Y252999D01*
X62950Y253034D01*
X63366Y252812D01*
X66706D01*
Y255379D01*
X65517D01*
X65325Y255840D01*
X66213Y256728D01*
X70761D01*
Y258270D01*
X91213D01*
X96265Y253218D01*
X96018Y252757D01*
X95901Y252780D01*
X95012Y252603D01*
X94257Y252099D01*
X93754Y251345D01*
X93577Y250456D01*
Y248987D01*
X95901D01*
X98225D01*
Y250126D01*
X98226Y250128D01*
X98725Y250362D01*
X98781Y250316D01*
Y246519D01*
X98942Y245708D01*
X99402Y245020D01*
X100090Y244560D01*
X100901Y244399D01*
X101712Y244560D01*
X102400Y245020D01*
X102860Y245708D01*
X103021Y246519D01*
Y250456D01*
X102980Y250661D01*
X103394Y251074D01*
X103855Y250828D01*
X103781Y250456D01*
Y246519D01*
X103942Y245708D01*
X104402Y245020D01*
X104575Y244903D01*
Y235183D01*
X104676Y234676D01*
X104964Y234246D01*
X116870Y222340D01*
X117300Y222052D01*
X117807Y221951D01*
X122745D01*
X122980Y221384D01*
X123582Y220600D01*
X124365Y219999D01*
X125278Y219621D01*
X126258Y219492D01*
X127238Y219621D01*
X128151Y219999D01*
X128935Y220600D01*
X129536Y221384D01*
X129888Y222233D01*
X149265D01*
X149383Y221948D01*
X149985Y221164D01*
X150769Y220563D01*
X151682Y220185D01*
X152661Y220056D01*
X153641Y220185D01*
X154554Y220563D01*
X155338Y221164D01*
X155939Y221948D01*
X156318Y222861D01*
X156447Y223841D01*
X156318Y224821D01*
X155939Y225733D01*
X155338Y226517D01*
X154554Y227119D01*
X153641Y227497D01*
X152661Y227626D01*
X151682Y227497D01*
X150769Y227119D01*
X149985Y226517D01*
X149383Y225733D01*
X149032Y224884D01*
X129654D01*
X129536Y225169D01*
X128935Y225953D01*
X128151Y226555D01*
X127238Y226933D01*
X126258Y227062D01*
X125278Y226933D01*
X124365Y226555D01*
X123582Y225953D01*
X122980Y225169D01*
X122745Y224602D01*
X118356D01*
X107226Y235732D01*
Y244903D01*
X107400Y245020D01*
X107860Y245708D01*
X108021Y246519D01*
Y250456D01*
X107860Y251267D01*
X107400Y251955D01*
X106712Y252415D01*
X105901Y252576D01*
X105529Y252502D01*
X105282Y252963D01*
X109678Y257359D01*
X125000D01*
X125099Y256859D01*
X124365Y256555D01*
X123582Y255953D01*
X122980Y255169D01*
X122602Y254257D01*
X122473Y253277D01*
X122602Y252297D01*
X122980Y251384D01*
X123582Y250600D01*
X124365Y249999D01*
X125278Y249621D01*
X126258Y249492D01*
X127238Y249621D01*
X128151Y249999D01*
X128935Y250600D01*
X129536Y251384D01*
X129888Y252233D01*
X149265D01*
X149383Y251948D01*
X149985Y251165D01*
X150769Y250563D01*
X151682Y250185D01*
X152661Y250056D01*
X153641Y250185D01*
X154554Y250563D01*
X155338Y251165D01*
X155939Y251948D01*
X156318Y252861D01*
X156447Y253841D01*
X156318Y254821D01*
X155939Y255733D01*
X155338Y256517D01*
X154893Y256859D01*
X155063Y257359D01*
X184861D01*
X189316Y252904D01*
X189746Y252616D01*
X190253Y252516D01*
X209149D01*
X209383Y251948D01*
X209985Y251165D01*
X210769Y250563D01*
X211682Y250185D01*
X212661Y250056D01*
X213641Y250185D01*
X214554Y250563D01*
X215338Y251165D01*
X215939Y251948D01*
X216200Y252577D01*
X232446D01*
X232655Y252072D01*
X233257Y251288D01*
X234040Y250687D01*
X234953Y250308D01*
X235933Y250180D01*
X236913Y250308D01*
X237826Y250687D01*
X238610Y251288D01*
X239211Y252072D01*
X239589Y252985D01*
X239718Y253965D01*
X239589Y254944D01*
X239211Y255857D01*
X238610Y256641D01*
X237826Y257243D01*
X236913Y257621D01*
X235933Y257750D01*
X234953Y257621D01*
X234040Y257243D01*
X233257Y256641D01*
X232655Y255857D01*
X232395Y255228D01*
X216149D01*
X215939Y255733D01*
X215338Y256517D01*
X214554Y257119D01*
X213641Y257497D01*
X212661Y257626D01*
X211682Y257497D01*
X210769Y257119D01*
X209985Y256517D01*
X209383Y255733D01*
X209149Y255166D01*
X190803D01*
X186347Y259622D01*
X185917Y259909D01*
X185410Y260010D01*
X154525D01*
X154426Y260510D01*
X154554Y260563D01*
X155338Y261164D01*
X155939Y261948D01*
X156318Y262861D01*
X156447Y263841D01*
X156318Y264821D01*
X155939Y265734D01*
X155338Y266517D01*
X154554Y267119D01*
X153641Y267497D01*
X152661Y267626D01*
X151682Y267497D01*
X150769Y267119D01*
X149985Y266517D01*
X149383Y265734D01*
X149032Y264884D01*
X129654D01*
X129536Y265169D01*
X128935Y265953D01*
X128151Y266555D01*
X127238Y266933D01*
X126258Y267062D01*
X125278Y266933D01*
X124365Y266555D01*
X123582Y265953D01*
X122980Y265169D01*
X122602Y264257D01*
X122473Y263277D01*
X122602Y262297D01*
X122980Y261384D01*
X123582Y260600D01*
X123734Y260483D01*
X123574Y260010D01*
X109129D01*
X108622Y259909D01*
X108192Y259622D01*
X101106Y252535D01*
X100901Y252576D01*
X100696Y252535D01*
X92699Y260532D01*
X92269Y260820D01*
X91762Y260921D01*
X70761D01*
Y262462D01*
X63650D01*
Y257914D01*
X60764Y255028D01*
X60264Y255211D01*
Y344488D01*
X79724Y344488D01*
Y361221D01*
X311811Y361221D01*
X311811Y342870D01*
D02*
G37*
G36*
X149383Y261948D02*
X149985Y261164D01*
X150769Y260563D01*
X150897Y260510D01*
X150798Y260010D01*
X128943D01*
X128782Y260483D01*
X128935Y260600D01*
X129536Y261384D01*
X129888Y262233D01*
X149265D01*
X149383Y261948D01*
D02*
G37*
G36*
X150430Y256859D02*
X149985Y256517D01*
X149383Y255733D01*
X149032Y254884D01*
X129654D01*
X129536Y255169D01*
X128935Y255953D01*
X128151Y256555D01*
X127417Y256859D01*
X127516Y257359D01*
X150260D01*
X150430Y256859D01*
D02*
G37*
%LPC*%
G36*
X309333Y359622D02*
X284661D01*
X284349Y359560D01*
X284084Y359383D01*
X283825Y359144D01*
X283481Y359248D01*
X283169Y359310D01*
X258661D01*
X258349Y359248D01*
X258085Y359071D01*
X257908Y358806D01*
X257846Y358494D01*
Y321943D01*
X257908Y321631D01*
X258085Y321367D01*
X258349Y321190D01*
X258661Y321128D01*
X283169D01*
X283481Y321190D01*
X283564Y321245D01*
X283915Y321327D01*
X284266Y321245D01*
X284349Y321190D01*
X284661Y321128D01*
X309333D01*
X309645Y321190D01*
X309909Y321367D01*
X310086Y321631D01*
X310148Y321943D01*
Y358806D01*
X310086Y359119D01*
X309909Y359383D01*
X309645Y359560D01*
X309333Y359622D01*
D02*
G37*
G36*
X250500Y353972D02*
Y350551D01*
X253921D01*
X253851Y351083D01*
X253453Y352044D01*
X252819Y352870D01*
X251993Y353504D01*
X251032Y353902D01*
X250500Y353972D01*
D02*
G37*
G36*
X240500D02*
Y350551D01*
X243921D01*
X243851Y351083D01*
X243453Y352044D01*
X242819Y352870D01*
X241993Y353504D01*
X241032Y353902D01*
X240500Y353972D01*
D02*
G37*
G36*
X249500D02*
X248968Y353902D01*
X248007Y353504D01*
X247181Y352870D01*
X246547Y352044D01*
X246149Y351083D01*
X246079Y350551D01*
X249500D01*
Y353972D01*
D02*
G37*
G36*
X239500D02*
X238968Y353902D01*
X238007Y353504D01*
X237181Y352870D01*
X236547Y352044D01*
X236149Y351083D01*
X236079Y350551D01*
X239500D01*
Y353972D01*
D02*
G37*
G36*
X253921Y349551D02*
X250500D01*
Y346130D01*
X251032Y346200D01*
X251993Y346598D01*
X252819Y347232D01*
X253453Y348058D01*
X253851Y349019D01*
X253921Y349551D01*
D02*
G37*
G36*
X243921D02*
X240500D01*
Y346130D01*
X241032Y346200D01*
X241993Y346598D01*
X242819Y347232D01*
X243453Y348058D01*
X243851Y349019D01*
X243921Y349551D01*
D02*
G37*
G36*
X249500D02*
X246079D01*
X246149Y349019D01*
X246547Y348058D01*
X247181Y347232D01*
X248007Y346598D01*
X248968Y346200D01*
X249500Y346130D01*
Y349551D01*
D02*
G37*
G36*
X239500D02*
X236079D01*
X236149Y349019D01*
X236547Y348058D01*
X237181Y347232D01*
X238007Y346598D01*
X238968Y346200D01*
X239500Y346130D01*
Y349551D01*
D02*
G37*
G36*
X250500Y343972D02*
Y340551D01*
X253921D01*
X253851Y341083D01*
X253453Y342044D01*
X252819Y342870D01*
X251993Y343504D01*
X251032Y343902D01*
X250500Y343972D01*
D02*
G37*
G36*
X240500D02*
Y340551D01*
X243921D01*
X243851Y341083D01*
X243453Y342044D01*
X242819Y342870D01*
X241993Y343504D01*
X241032Y343902D01*
X240500Y343972D01*
D02*
G37*
G36*
X249500D02*
X248968Y343902D01*
X248007Y343504D01*
X247181Y342870D01*
X246547Y342044D01*
X246149Y341083D01*
X246079Y340551D01*
X249500D01*
Y343972D01*
D02*
G37*
G36*
X239500D02*
X238968Y343902D01*
X238007Y343504D01*
X237181Y342870D01*
X236547Y342044D01*
X236149Y341083D01*
X236079Y340551D01*
X239500D01*
Y343972D01*
D02*
G37*
G36*
X253921Y339551D02*
X250500D01*
Y336130D01*
X251032Y336200D01*
X251993Y336598D01*
X252819Y337232D01*
X253453Y338057D01*
X253851Y339019D01*
X253921Y339551D01*
D02*
G37*
G36*
X243921D02*
X240500D01*
Y336130D01*
X241032Y336200D01*
X241993Y336598D01*
X242819Y337232D01*
X243453Y338057D01*
X243851Y339019D01*
X243921Y339551D01*
D02*
G37*
G36*
X249500D02*
X246079D01*
X246149Y339019D01*
X246547Y338057D01*
X247181Y337232D01*
X248007Y336598D01*
X248968Y336200D01*
X249500Y336130D01*
Y339551D01*
D02*
G37*
G36*
X239500D02*
X236079D01*
X236149Y339019D01*
X236547Y338057D01*
X237181Y337232D01*
X238007Y336598D01*
X238968Y336200D01*
X239500Y336130D01*
Y339551D01*
D02*
G37*
G36*
X253953Y334004D02*
X250500D01*
Y330551D01*
X253953D01*
Y334004D01*
D02*
G37*
G36*
X240500Y333972D02*
Y330551D01*
X243921D01*
X243851Y331083D01*
X243453Y332044D01*
X242819Y332870D01*
X241993Y333504D01*
X241032Y333902D01*
X240500Y333972D01*
D02*
G37*
G36*
X239500D02*
X238968Y333902D01*
X238007Y333504D01*
X237181Y332870D01*
X236547Y332044D01*
X236149Y331083D01*
X236079Y330551D01*
X239500D01*
Y333972D01*
D02*
G37*
G36*
X249500Y334004D02*
X246047D01*
Y330551D01*
X249500D01*
Y334004D01*
D02*
G37*
G36*
X221682Y333836D02*
X220702Y333707D01*
X219789Y333329D01*
X219005Y332727D01*
X218404Y331943D01*
X218026Y331031D01*
X217897Y330051D01*
X218026Y329071D01*
X218404Y328158D01*
X219005Y327374D01*
X219789Y326773D01*
X220702Y326395D01*
X221682Y326266D01*
X222661Y326395D01*
X223574Y326773D01*
X224358Y327374D01*
X224960Y328158D01*
X225338Y329071D01*
X225467Y330051D01*
X225338Y331031D01*
X224960Y331943D01*
X224358Y332727D01*
X223574Y333329D01*
X222661Y333707D01*
X221682Y333836D01*
D02*
G37*
G36*
X243921Y329551D02*
X240500D01*
Y326130D01*
X241032Y326200D01*
X241993Y326598D01*
X242819Y327232D01*
X243453Y328058D01*
X243851Y329019D01*
X243921Y329551D01*
D02*
G37*
G36*
X239500D02*
X236079D01*
X236149Y329019D01*
X236547Y328058D01*
X237181Y327232D01*
X238007Y326598D01*
X238968Y326200D01*
X239500Y326130D01*
Y329551D01*
D02*
G37*
G36*
X253953D02*
X250500D01*
Y326098D01*
X253953D01*
Y329551D01*
D02*
G37*
G36*
X249500D02*
X246047D01*
Y326098D01*
X249500D01*
Y329551D01*
D02*
G37*
G36*
X198232Y339602D02*
X196821Y339463D01*
X195465Y339052D01*
X194214Y338384D01*
X193118Y337484D01*
X192219Y336388D01*
X191550Y335138D01*
X191139Y333781D01*
X191000Y332370D01*
X191139Y330959D01*
X191550Y329602D01*
X192219Y328352D01*
X193118Y327256D01*
X194214Y326356D01*
X195465Y325688D01*
X196821Y325276D01*
X198232Y325138D01*
X199643Y325276D01*
X201000Y325688D01*
X202250Y326356D01*
X203346Y327256D01*
X204246Y328352D01*
X204914Y329602D01*
X205326Y330959D01*
X205465Y332370D01*
X205326Y333781D01*
X204914Y335138D01*
X204246Y336388D01*
X203346Y337484D01*
X202250Y338384D01*
X201000Y339052D01*
X199643Y339463D01*
X198232Y339602D01*
D02*
G37*
G36*
X158232D02*
X156821Y339463D01*
X155464Y339052D01*
X154214Y338384D01*
X153118Y337484D01*
X152219Y336388D01*
X151550Y335138D01*
X151139Y333781D01*
X151000Y332370D01*
X151139Y330959D01*
X151550Y329602D01*
X152219Y328352D01*
X153118Y327256D01*
X154214Y326356D01*
X155464Y325688D01*
X156821Y325276D01*
X158232Y325138D01*
X159643Y325276D01*
X161000Y325688D01*
X162250Y326356D01*
X163346Y327256D01*
X164246Y328352D01*
X164914Y329602D01*
X165326Y330959D01*
X165465Y332370D01*
X165326Y333781D01*
X164914Y335138D01*
X164246Y336388D01*
X163346Y337484D01*
X162250Y338384D01*
X161000Y339052D01*
X159643Y339463D01*
X158232Y339602D01*
D02*
G37*
G36*
X130092Y339103D02*
X128681Y338964D01*
X127324Y338552D01*
X126074Y337884D01*
X124978Y336984D01*
X124078Y335888D01*
X123410Y334638D01*
X122998Y333281D01*
X122860Y331870D01*
X122998Y330459D01*
X123410Y329102D01*
X124078Y327852D01*
X124978Y326756D01*
X126074Y325856D01*
X127324Y325188D01*
X128681Y324777D01*
X130092Y324638D01*
X131503Y324777D01*
X132860Y325188D01*
X134110Y325856D01*
X135206Y326756D01*
X136106Y327852D01*
X136774Y329102D01*
X137186Y330459D01*
X137325Y331870D01*
X137186Y333281D01*
X136774Y334638D01*
X136106Y335888D01*
X135206Y336984D01*
X134110Y337884D01*
X132860Y338552D01*
X131503Y338964D01*
X130092Y339103D01*
D02*
G37*
G36*
X90092D02*
X88681Y338964D01*
X87324Y338552D01*
X86074Y337884D01*
X84978Y336984D01*
X84078Y335888D01*
X83410Y334638D01*
X82999Y333281D01*
X82860Y331870D01*
X82999Y330459D01*
X83410Y329102D01*
X84078Y327852D01*
X84978Y326756D01*
X86074Y325856D01*
X87324Y325188D01*
X88681Y324777D01*
X90092Y324638D01*
X91503Y324777D01*
X92860Y325188D01*
X94110Y325856D01*
X95206Y326756D01*
X96106Y327852D01*
X96774Y329102D01*
X97185Y330459D01*
X97325Y331870D01*
X97185Y333281D01*
X96774Y334638D01*
X96106Y335888D01*
X95206Y336984D01*
X94110Y337884D01*
X92860Y338552D01*
X91503Y338964D01*
X90092Y339103D01*
D02*
G37*
G36*
X221682Y323836D02*
X220702Y323707D01*
X219789Y323329D01*
X219005Y322727D01*
X218404Y321943D01*
X218026Y321031D01*
X217897Y320051D01*
X218026Y319071D01*
X218404Y318158D01*
X219005Y317374D01*
X219789Y316773D01*
X220702Y316395D01*
X221682Y316266D01*
X222661Y316395D01*
X223574Y316773D01*
X224358Y317374D01*
X224960Y318158D01*
X225195Y318725D01*
X228064D01*
X229300Y317489D01*
Y314495D01*
X229325Y314367D01*
Y310061D01*
X236043D01*
Y315795D01*
X231951D01*
Y318038D01*
X231850Y318546D01*
X231562Y318976D01*
X229550Y320988D01*
X229120Y321275D01*
X228613Y321376D01*
X225195D01*
X224960Y321943D01*
X224358Y322727D01*
X223574Y323329D01*
X222661Y323707D01*
X221682Y323836D01*
D02*
G37*
G36*
X225434Y313804D02*
X217929D01*
Y306298D01*
X225434D01*
Y313804D01*
D02*
G37*
G36*
X175732Y311203D02*
X174740Y311072D01*
X173816Y310689D01*
X173022Y310080D01*
X172413Y309286D01*
X172030Y308362D01*
X171899Y307370D01*
X172030Y306378D01*
X172413Y305454D01*
X173022Y304660D01*
X173816Y304051D01*
X174740Y303668D01*
X175732Y303537D01*
X176724Y303668D01*
X177649Y304051D01*
X178443Y304660D01*
X179052Y305454D01*
X179435Y306378D01*
X179565Y307370D01*
X179435Y308362D01*
X179052Y309286D01*
X178443Y310080D01*
X177649Y310689D01*
X176724Y311072D01*
X175732Y311203D01*
D02*
G37*
G36*
X107592Y310703D02*
X106600Y310572D01*
X105676Y310189D01*
X104882Y309580D01*
X104273Y308786D01*
X103890Y307862D01*
X103759Y306870D01*
X103890Y305878D01*
X104273Y304954D01*
X104882Y304160D01*
X105676Y303551D01*
X106600Y303168D01*
X107592Y303037D01*
X108584Y303168D01*
X109508Y303551D01*
X110302Y304160D01*
X110911Y304954D01*
X111294Y305878D01*
X111425Y306870D01*
X111294Y307862D01*
X110911Y308786D01*
X110302Y309580D01*
X109508Y310189D01*
X108584Y310572D01*
X107592Y310703D01*
D02*
G37*
G36*
X117592D02*
X116600Y310572D01*
X115676Y310189D01*
X114882Y309580D01*
X114273Y308786D01*
X113890Y307862D01*
X113759Y306870D01*
X113890Y305878D01*
X114273Y304954D01*
X114882Y304160D01*
X115676Y303551D01*
X115974Y303427D01*
Y299526D01*
X115474Y299356D01*
X115302Y299580D01*
X114508Y300189D01*
X113584Y300572D01*
X112592Y300703D01*
X111600Y300572D01*
X110676Y300189D01*
X109882Y299580D01*
X109273Y298786D01*
X108890Y297862D01*
X108759Y296870D01*
X108890Y295878D01*
X109273Y294954D01*
X109882Y294160D01*
X110676Y293551D01*
X111267Y293306D01*
Y289940D01*
X96106Y274780D01*
X95901Y274820D01*
X95090Y274659D01*
X94402Y274199D01*
X93942Y273511D01*
X93781Y272700D01*
Y268763D01*
X93942Y267952D01*
X94402Y267264D01*
X95090Y266804D01*
X95901Y266643D01*
X96712Y266804D01*
X97400Y267264D01*
X97860Y267952D01*
X98021Y268763D01*
Y272700D01*
X97980Y272905D01*
X98394Y273318D01*
X98855Y273072D01*
X98781Y272700D01*
Y268763D01*
X98942Y267952D01*
X99402Y267264D01*
X100090Y266804D01*
X100901Y266643D01*
X101712Y266804D01*
X102400Y267264D01*
X102860Y267952D01*
X103021Y268763D01*
Y272690D01*
X103372Y272981D01*
X103793Y272763D01*
X103781Y272700D01*
Y268763D01*
X103942Y267952D01*
X104402Y267264D01*
X105089Y266804D01*
X105901Y266643D01*
X106712Y266804D01*
X107400Y267264D01*
X107860Y267952D01*
X108021Y268763D01*
Y272700D01*
X107860Y273511D01*
X107400Y274199D01*
X106712Y274659D01*
X105901Y274820D01*
X105814Y274803D01*
X105568Y275264D01*
X118237Y287933D01*
X118524Y288363D01*
X118625Y288870D01*
Y292870D01*
X122092D01*
Y296870D01*
Y300870D01*
X118625D01*
Y303185D01*
X119508Y303551D01*
X120302Y304160D01*
X120911Y304954D01*
X121294Y305878D01*
X121425Y306870D01*
X121294Y307862D01*
X120911Y308786D01*
X120302Y309580D01*
X119508Y310189D01*
X118584Y310572D01*
X117592Y310703D01*
D02*
G37*
G36*
X185732Y311203D02*
X184740Y311072D01*
X183816Y310689D01*
X183022Y310080D01*
X182413Y309286D01*
X182030Y308362D01*
X181899Y307370D01*
X182030Y306378D01*
X182413Y305454D01*
X183022Y304660D01*
X183816Y304051D01*
X184740Y303668D01*
X185732Y303537D01*
X186724Y303668D01*
X187315Y303913D01*
X189396Y301832D01*
X189205Y301370D01*
X186732D01*
Y297870D01*
X190732D01*
X194732D01*
Y300345D01*
X228218D01*
X228725Y300446D01*
X229155Y300733D01*
X231200Y302778D01*
X236043D01*
Y308512D01*
X229325D01*
Y304652D01*
X227668Y302995D01*
X191981D01*
X189190Y305787D01*
X189435Y306378D01*
X189565Y307370D01*
X189435Y308362D01*
X189052Y309286D01*
X188443Y310080D01*
X187649Y310689D01*
X186724Y311072D01*
X185732Y311203D01*
D02*
G37*
G36*
X126592Y300870D02*
X123092D01*
Y297370D01*
X126592D01*
Y300870D01*
D02*
G37*
G36*
X180732Y301203D02*
X179740Y301072D01*
X178816Y300689D01*
X178022Y300080D01*
X177413Y299286D01*
X177030Y298362D01*
X176900Y297370D01*
X177030Y296378D01*
X177413Y295454D01*
X178022Y294660D01*
X178816Y294051D01*
X179740Y293668D01*
X180732Y293537D01*
X181724Y293668D01*
X182649Y294051D01*
X183442Y294660D01*
X184052Y295454D01*
X184434Y296378D01*
X184565Y297370D01*
X184434Y298362D01*
X184052Y299286D01*
X183442Y300080D01*
X182649Y300689D01*
X181724Y301072D01*
X180732Y301203D01*
D02*
G37*
G36*
X157602Y316826D02*
X106222D01*
X105715Y316725D01*
X105285Y316437D01*
X99175Y310327D01*
X98584Y310572D01*
X97592Y310703D01*
X96600Y310572D01*
X95676Y310189D01*
X94882Y309580D01*
X94273Y308786D01*
X93890Y307862D01*
X93759Y306870D01*
X93890Y305878D01*
X94273Y304954D01*
X94882Y304160D01*
X95676Y303551D01*
X96600Y303168D01*
X97592Y303037D01*
X98584Y303168D01*
X99508Y303551D01*
X100302Y304160D01*
X100911Y304954D01*
X101294Y305878D01*
X101425Y306870D01*
X101294Y307862D01*
X101049Y308453D01*
X106771Y314175D01*
X157053D01*
X162275Y308953D01*
X162030Y308362D01*
X161899Y307370D01*
X162030Y306378D01*
X162413Y305454D01*
X163022Y304660D01*
X163816Y304051D01*
X164407Y303806D01*
Y286709D01*
X164508Y286201D01*
X164795Y285771D01*
X176724Y273842D01*
X177154Y273555D01*
X177661Y273454D01*
X208927D01*
X209005Y272861D01*
X209383Y271948D01*
X209985Y271164D01*
X210769Y270563D01*
X211682Y270185D01*
X212661Y270056D01*
X213641Y270185D01*
X214554Y270563D01*
X215338Y271164D01*
X215939Y271948D01*
X216174Y272516D01*
X232180D01*
Y270212D01*
X239686D01*
Y277717D01*
X232180D01*
Y275166D01*
X216174D01*
X215939Y275733D01*
X215338Y276517D01*
X214554Y277119D01*
X213641Y277497D01*
X212661Y277626D01*
X211682Y277497D01*
X210769Y277119D01*
X209985Y276517D01*
X209668Y276105D01*
X178210D01*
X167058Y287258D01*
Y295095D01*
X167558Y295265D01*
X168022Y294660D01*
X168816Y294051D01*
X169740Y293668D01*
X170732Y293537D01*
X171724Y293668D01*
X172649Y294051D01*
X173442Y294660D01*
X174052Y295454D01*
X174434Y296378D01*
X174565Y297370D01*
X174434Y298362D01*
X174052Y299286D01*
X173442Y300080D01*
X172649Y300689D01*
X171724Y301072D01*
X170732Y301203D01*
X169740Y301072D01*
X168816Y300689D01*
X168022Y300080D01*
X167558Y299475D01*
X167058Y299645D01*
Y303806D01*
X167649Y304051D01*
X168442Y304660D01*
X169052Y305454D01*
X169434Y306378D01*
X169565Y307370D01*
X169434Y308362D01*
X169052Y309286D01*
X168442Y310080D01*
X167649Y310689D01*
X166724Y311072D01*
X165732Y311203D01*
X164740Y311072D01*
X164149Y310827D01*
X158540Y316437D01*
X158109Y316725D01*
X157602Y316826D01*
D02*
G37*
G36*
X194732Y296870D02*
X191232D01*
Y293370D01*
X194732D01*
Y296870D01*
D02*
G37*
G36*
X190232D02*
X186732D01*
Y293370D01*
X190232D01*
Y296870D01*
D02*
G37*
G36*
X102592Y300703D02*
X101600Y300572D01*
X100676Y300189D01*
X99882Y299580D01*
X99273Y298786D01*
X98890Y297862D01*
X98759Y296870D01*
X98890Y295878D01*
X99273Y294954D01*
X99882Y294160D01*
X100676Y293551D01*
X101600Y293168D01*
X102592Y293037D01*
X103584Y293168D01*
X104508Y293551D01*
X105302Y294160D01*
X105911Y294954D01*
X106294Y295878D01*
X106425Y296870D01*
X106294Y297862D01*
X105911Y298786D01*
X105302Y299580D01*
X104508Y300189D01*
X103584Y300572D01*
X102592Y300703D01*
D02*
G37*
G36*
X126592Y296370D02*
X123092D01*
Y292870D01*
X126592D01*
Y296370D01*
D02*
G37*
G36*
X71417Y286908D02*
X68358D01*
Y284341D01*
X71417D01*
Y286908D01*
D02*
G37*
G36*
X67358D02*
X64299D01*
Y284341D01*
X67358D01*
Y286908D01*
D02*
G37*
G36*
X71417Y283341D02*
X68358D01*
Y280774D01*
X71417D01*
Y283341D01*
D02*
G37*
G36*
X67358D02*
X64299D01*
Y280774D01*
X67358D01*
Y283341D01*
D02*
G37*
G36*
X153161Y277762D02*
Y274341D01*
X156582D01*
X156512Y274873D01*
X156114Y275834D01*
X155481Y276660D01*
X154655Y277294D01*
X153693Y277692D01*
X153161Y277762D01*
D02*
G37*
G36*
X152161D02*
X151629Y277692D01*
X150668Y277294D01*
X149842Y276660D01*
X149209Y275834D01*
X148810Y274873D01*
X148740Y274341D01*
X152161D01*
Y277762D01*
D02*
G37*
G36*
X130211Y277230D02*
X126758D01*
Y273777D01*
X130211D01*
Y277230D01*
D02*
G37*
G36*
X125758D02*
X122305D01*
Y273777D01*
X125758D01*
Y277230D01*
D02*
G37*
G36*
X156582Y273341D02*
X153161D01*
Y269920D01*
X153693Y269990D01*
X154655Y270388D01*
X155481Y271022D01*
X156114Y271848D01*
X156512Y272809D01*
X156582Y273341D01*
D02*
G37*
G36*
X152161D02*
X148740D01*
X148810Y272809D01*
X149209Y271848D01*
X149842Y271022D01*
X150668Y270388D01*
X151629Y269990D01*
X152161Y269920D01*
Y273341D01*
D02*
G37*
G36*
X130211Y272777D02*
X126758D01*
Y269324D01*
X130211D01*
Y272777D01*
D02*
G37*
G36*
X125758D02*
X122305D01*
Y269324D01*
X125758D01*
Y272777D01*
D02*
G37*
G36*
X71217Y279424D02*
X64499D01*
Y273691D01*
X69342D01*
X73239Y269794D01*
X73669Y269507D01*
X74176Y269406D01*
X88781D01*
Y268763D01*
X88942Y267952D01*
X89402Y267264D01*
X90089Y266804D01*
X90901Y266643D01*
X91712Y266804D01*
X92400Y267264D01*
X92860Y267952D01*
X93021Y268763D01*
Y272700D01*
X92860Y273511D01*
X92400Y274199D01*
X91712Y274659D01*
X90901Y274820D01*
X90089Y274659D01*
X89402Y274199D01*
X88942Y273511D01*
X88781Y272700D01*
Y272057D01*
X74725D01*
X71217Y275565D01*
Y279424D01*
D02*
G37*
G36*
X236433Y267886D02*
Y264465D01*
X239854D01*
X239784Y264997D01*
X239386Y265958D01*
X238752Y266784D01*
X237927Y267417D01*
X236965Y267816D01*
X236433Y267886D01*
D02*
G37*
G36*
X235433D02*
X234901Y267816D01*
X233940Y267417D01*
X233114Y266784D01*
X232480Y265958D01*
X232082Y264997D01*
X232012Y264465D01*
X235433D01*
Y267886D01*
D02*
G37*
G36*
X213161Y267762D02*
Y264341D01*
X216582D01*
X216512Y264873D01*
X216114Y265834D01*
X215481Y266660D01*
X214655Y267294D01*
X213693Y267692D01*
X213161Y267762D01*
D02*
G37*
G36*
X212161D02*
X211630Y267692D01*
X210668Y267294D01*
X209842Y266660D01*
X209209Y265834D01*
X208810Y264873D01*
X208740Y264341D01*
X212161D01*
Y267762D01*
D02*
G37*
G36*
X239854Y263465D02*
X236433D01*
Y260044D01*
X236965Y260114D01*
X237927Y260512D01*
X238752Y261145D01*
X239386Y261971D01*
X239784Y262933D01*
X239854Y263465D01*
D02*
G37*
G36*
X235433D02*
X232012D01*
X232082Y262933D01*
X232480Y261971D01*
X233114Y261145D01*
X233940Y260512D01*
X234901Y260114D01*
X235433Y260044D01*
Y263465D01*
D02*
G37*
G36*
X216582Y263341D02*
X213161D01*
Y259920D01*
X213693Y259990D01*
X214655Y260388D01*
X215481Y261022D01*
X216114Y261847D01*
X216512Y262809D01*
X216582Y263341D01*
D02*
G37*
G36*
X212161D02*
X208740D01*
X208810Y262809D01*
X209209Y261847D01*
X209842Y261022D01*
X210668Y260388D01*
X211630Y259990D01*
X212161Y259920D01*
Y263341D01*
D02*
G37*
G36*
X287902Y259826D02*
Y256405D01*
X291323D01*
X291253Y256937D01*
X290854Y257899D01*
X290221Y258725D01*
X289395Y259358D01*
X288433Y259756D01*
X287902Y259826D01*
D02*
G37*
G36*
X286902Y259826D02*
X286370Y259756D01*
X285408Y259358D01*
X284582Y258725D01*
X283949Y257899D01*
X283551Y256937D01*
X283481Y256405D01*
X286902D01*
Y259826D01*
D02*
G37*
G36*
X257959Y256757D02*
X254703D01*
Y254191D01*
X257959D01*
Y256757D01*
D02*
G37*
G36*
X253703D02*
X250447D01*
Y254191D01*
X253703D01*
Y256757D01*
D02*
G37*
G36*
X70961Y255379D02*
X67706D01*
Y252812D01*
X70961D01*
Y255379D01*
D02*
G37*
G36*
X291323Y255405D02*
X287902D01*
Y251985D01*
X288433Y252055D01*
X289395Y252453D01*
X290221Y253086D01*
X290854Y253912D01*
X291253Y254874D01*
X291323Y255405D01*
D02*
G37*
G36*
X286902D02*
X283481D01*
X283551Y254874D01*
X283949Y253912D01*
X284582Y253086D01*
X285408Y252453D01*
X286370Y252055D01*
X286902Y251985D01*
Y255405D01*
D02*
G37*
G36*
X257959Y253191D02*
X254703D01*
Y250624D01*
X257959D01*
Y253191D01*
D02*
G37*
G36*
X253703D02*
X250447D01*
Y250624D01*
X253703D01*
Y253191D01*
D02*
G37*
G36*
X70961Y251812D02*
X67706D01*
Y249245D01*
X70961D01*
Y251812D01*
D02*
G37*
G36*
X66706D02*
X63450D01*
Y249245D01*
X66706D01*
Y251812D01*
D02*
G37*
G36*
X287402Y249848D02*
X286422Y249719D01*
X285509Y249341D01*
X284725Y248740D01*
X284123Y247955D01*
X284031Y247733D01*
X257759D01*
Y249274D01*
X250647D01*
Y243540D01*
X252878D01*
Y232784D01*
X237480Y217386D01*
X236913Y217621D01*
X235933Y217750D01*
X234953Y217621D01*
X234040Y217243D01*
X233257Y216641D01*
X232655Y215857D01*
X232395Y215228D01*
X216149D01*
X215939Y215734D01*
X215338Y216517D01*
X214554Y217119D01*
X213641Y217497D01*
X212661Y217626D01*
X211682Y217497D01*
X210769Y217119D01*
X209985Y216517D01*
X209383Y215734D01*
X209005Y214821D01*
X208876Y213841D01*
X209005Y212861D01*
X209383Y211948D01*
X209985Y211164D01*
X210769Y210563D01*
X211682Y210185D01*
X212661Y210056D01*
X213641Y210185D01*
X214554Y210563D01*
X215338Y211164D01*
X215939Y211948D01*
X216200Y212577D01*
X232446D01*
X232655Y212072D01*
X233257Y211288D01*
X234040Y210687D01*
X234953Y210308D01*
X235933Y210179D01*
X236913Y210308D01*
X237826Y210687D01*
X238610Y211288D01*
X239211Y212072D01*
X239589Y212985D01*
X239718Y213965D01*
X239589Y214944D01*
X239354Y215511D01*
X255140Y231297D01*
X255428Y231728D01*
X255529Y232235D01*
Y243540D01*
X257759D01*
Y245082D01*
X283746D01*
X284123Y244170D01*
X284725Y243387D01*
X285509Y242785D01*
X286422Y242407D01*
X287402Y242278D01*
X288381Y242407D01*
X289294Y242785D01*
X290078Y243387D01*
X290680Y244170D01*
X291058Y245083D01*
X291187Y246063D01*
X291058Y247043D01*
X290680Y247955D01*
X290078Y248740D01*
X289294Y249341D01*
X288381Y249719D01*
X287402Y249848D01*
D02*
G37*
G36*
X235933Y247750D02*
X234953Y247621D01*
X234040Y247243D01*
X233257Y246641D01*
X232655Y245857D01*
X232395Y245228D01*
X216149D01*
X215939Y245733D01*
X215338Y246517D01*
X214554Y247119D01*
X213641Y247497D01*
X212661Y247626D01*
X211682Y247497D01*
X210769Y247119D01*
X209985Y246517D01*
X209383Y245733D01*
X209005Y244821D01*
X208876Y243841D01*
X209005Y242861D01*
X209383Y241948D01*
X209985Y241164D01*
X210769Y240563D01*
X211682Y240185D01*
X212661Y240056D01*
X213641Y240185D01*
X214554Y240563D01*
X215338Y241164D01*
X215939Y241948D01*
X216200Y242577D01*
X232446D01*
X232655Y242072D01*
X233257Y241288D01*
X234040Y240687D01*
X234953Y240308D01*
X235933Y240179D01*
X236913Y240308D01*
X237826Y240687D01*
X238610Y241288D01*
X239211Y242072D01*
X239589Y242985D01*
X239718Y243965D01*
X239589Y244944D01*
X239211Y245857D01*
X238610Y246641D01*
X237826Y247243D01*
X236913Y247621D01*
X235933Y247750D01*
D02*
G37*
G36*
X152661Y247626D02*
X151682Y247497D01*
X150769Y247119D01*
X149985Y246517D01*
X149383Y245733D01*
X149032Y244884D01*
X129654D01*
X129536Y245169D01*
X128935Y245953D01*
X128151Y246555D01*
X127238Y246933D01*
X126258Y247062D01*
X125278Y246933D01*
X124365Y246555D01*
X123582Y245953D01*
X122980Y245169D01*
X122602Y244256D01*
X122473Y243277D01*
X122602Y242297D01*
X122980Y241384D01*
X123582Y240600D01*
X124365Y239999D01*
X125278Y239621D01*
X126258Y239492D01*
X127238Y239621D01*
X128151Y239999D01*
X128935Y240600D01*
X129536Y241384D01*
X129888Y242233D01*
X149265D01*
X149383Y241948D01*
X149985Y241164D01*
X150769Y240563D01*
X151682Y240185D01*
X152661Y240056D01*
X153641Y240185D01*
X154554Y240563D01*
X155338Y241164D01*
X155939Y241948D01*
X156318Y242861D01*
X156447Y243841D01*
X156318Y244821D01*
X155939Y245733D01*
X155338Y246517D01*
X154554Y247119D01*
X153641Y247497D01*
X152661Y247626D01*
D02*
G37*
G36*
X98225Y247987D02*
X96401D01*
Y244294D01*
X96790Y244372D01*
X97544Y244875D01*
X98048Y245630D01*
X98225Y246519D01*
Y247987D01*
D02*
G37*
G36*
X95401D02*
X93577D01*
Y246519D01*
X93754Y245630D01*
X94257Y244875D01*
X95012Y244372D01*
X95401Y244294D01*
Y247987D01*
D02*
G37*
G36*
X235933Y237750D02*
X234953Y237621D01*
X234040Y237243D01*
X233257Y236641D01*
X232655Y235857D01*
X232395Y235228D01*
X216149D01*
X215939Y235734D01*
X215338Y236517D01*
X214554Y237119D01*
X213641Y237497D01*
X212661Y237626D01*
X211682Y237497D01*
X210769Y237119D01*
X209985Y236517D01*
X209383Y235734D01*
X209005Y234821D01*
X208876Y233841D01*
X209005Y232861D01*
X209383Y231948D01*
X209985Y231165D01*
X210769Y230563D01*
X211682Y230185D01*
X212661Y230056D01*
X213641Y230185D01*
X214554Y230563D01*
X215338Y231165D01*
X215939Y231948D01*
X216200Y232577D01*
X232446D01*
X232655Y232072D01*
X233257Y231288D01*
X234040Y230687D01*
X234953Y230308D01*
X235933Y230180D01*
X236913Y230308D01*
X237826Y230687D01*
X238610Y231288D01*
X239211Y232072D01*
X239589Y232985D01*
X239718Y233965D01*
X239589Y234944D01*
X239211Y235857D01*
X238610Y236641D01*
X237826Y237243D01*
X236913Y237621D01*
X235933Y237750D01*
D02*
G37*
G36*
X152661Y237626D02*
X151682Y237497D01*
X150769Y237119D01*
X149985Y236517D01*
X149383Y235734D01*
X149032Y234884D01*
X129654D01*
X129536Y235169D01*
X128935Y235953D01*
X128151Y236555D01*
X127238Y236933D01*
X126258Y237062D01*
X125278Y236933D01*
X124365Y236555D01*
X123582Y235953D01*
X122980Y235169D01*
X122602Y234257D01*
X122473Y233277D01*
X122602Y232297D01*
X122980Y231384D01*
X123582Y230600D01*
X124365Y229999D01*
X125278Y229621D01*
X126258Y229492D01*
X127238Y229621D01*
X128151Y229999D01*
X128935Y230600D01*
X129536Y231384D01*
X129888Y232233D01*
X149265D01*
X149383Y231948D01*
X149985Y231165D01*
X150769Y230563D01*
X151682Y230185D01*
X152661Y230056D01*
X153641Y230185D01*
X154554Y230563D01*
X155338Y231165D01*
X155939Y231948D01*
X156318Y232861D01*
X156447Y233841D01*
X156318Y234821D01*
X155939Y235734D01*
X155338Y236517D01*
X154554Y237119D01*
X153641Y237497D01*
X152661Y237626D01*
D02*
G37*
G36*
X74157Y237447D02*
Y234026D01*
X77578D01*
X77508Y234558D01*
X77110Y235519D01*
X76477Y236345D01*
X75651Y236979D01*
X74689Y237377D01*
X74157Y237447D01*
D02*
G37*
G36*
X73157D02*
X72625Y237377D01*
X71664Y236979D01*
X70838Y236345D01*
X70205Y235519D01*
X69806Y234558D01*
X69736Y234026D01*
X73157D01*
Y237447D01*
D02*
G37*
G36*
X90901Y252576D02*
X90089Y252415D01*
X89402Y251955D01*
X88942Y251267D01*
X88781Y250456D01*
Y246519D01*
X88942Y245708D01*
X89402Y245020D01*
X89575Y244903D01*
Y239983D01*
X89676Y239475D01*
X89964Y239045D01*
X94250Y234759D01*
X94109Y234420D01*
X93996Y233559D01*
X94109Y232697D01*
X94442Y231895D01*
X94971Y231205D01*
X95660Y230676D01*
X96463Y230344D01*
X97325Y230230D01*
X98186Y230344D01*
X98989Y230676D01*
X99678Y231205D01*
X100207Y231895D01*
X100540Y232697D01*
X100653Y233559D01*
X100540Y234420D01*
X100207Y235223D01*
X99678Y235912D01*
X98989Y236441D01*
X98186Y236774D01*
X97325Y236887D01*
X96463Y236774D01*
X96124Y236634D01*
X92226Y240531D01*
Y244903D01*
X92400Y245020D01*
X92860Y245708D01*
X93021Y246519D01*
Y250456D01*
X92860Y251267D01*
X92400Y251955D01*
X91712Y252415D01*
X90901Y252576D01*
D02*
G37*
G36*
X77578Y233026D02*
X74157D01*
Y229605D01*
X74689Y229675D01*
X75651Y230073D01*
X76477Y230707D01*
X77110Y231533D01*
X77508Y232494D01*
X77578Y233026D01*
D02*
G37*
G36*
X73157D02*
X69736D01*
X69806Y232494D01*
X70205Y231533D01*
X70838Y230707D01*
X71664Y230073D01*
X72625Y229675D01*
X73157Y229605D01*
Y233026D01*
D02*
G37*
G36*
X235933Y227750D02*
X234953Y227621D01*
X234040Y227243D01*
X233257Y226641D01*
X232655Y225857D01*
X232395Y225228D01*
X216149D01*
X215939Y225733D01*
X215338Y226517D01*
X214554Y227119D01*
X213641Y227497D01*
X212661Y227626D01*
X211682Y227497D01*
X210769Y227119D01*
X209985Y226517D01*
X209383Y225733D01*
X209005Y224821D01*
X208876Y223841D01*
X209005Y222861D01*
X209383Y221948D01*
X209985Y221164D01*
X210769Y220563D01*
X211682Y220185D01*
X212661Y220056D01*
X213641Y220185D01*
X214554Y220563D01*
X215338Y221164D01*
X215939Y221948D01*
X216200Y222577D01*
X232446D01*
X232655Y222072D01*
X233257Y221288D01*
X234040Y220687D01*
X234953Y220308D01*
X235933Y220180D01*
X236913Y220308D01*
X237826Y220687D01*
X238610Y221288D01*
X239211Y222072D01*
X239589Y222985D01*
X239718Y223965D01*
X239589Y224944D01*
X239211Y225857D01*
X238610Y226641D01*
X237826Y227243D01*
X236913Y227621D01*
X235933Y227750D01*
D02*
G37*
G36*
X152661Y217626D02*
X151682Y217497D01*
X150769Y217119D01*
X149985Y216517D01*
X149383Y215734D01*
X149032Y214884D01*
X129654D01*
X129536Y215169D01*
X128935Y215953D01*
X128151Y216555D01*
X127238Y216933D01*
X126258Y217062D01*
X125278Y216933D01*
X124365Y216555D01*
X123582Y215953D01*
X122980Y215169D01*
X122602Y214257D01*
X122473Y213277D01*
X122602Y212297D01*
X122980Y211384D01*
X123582Y210600D01*
X124365Y209999D01*
X125278Y209621D01*
X126258Y209492D01*
X127238Y209621D01*
X128151Y209999D01*
X128935Y210600D01*
X129536Y211384D01*
X129888Y212233D01*
X149265D01*
X149383Y211948D01*
X149985Y211164D01*
X150769Y210563D01*
X151682Y210185D01*
X152661Y210056D01*
X153641Y210185D01*
X154554Y210563D01*
X155338Y211164D01*
X155939Y211948D01*
X156318Y212861D01*
X156447Y213841D01*
X156318Y214821D01*
X155939Y215734D01*
X155338Y216517D01*
X154554Y217119D01*
X153641Y217497D01*
X152661Y217626D01*
D02*
G37*
G36*
X73657D02*
X72678Y217497D01*
X71765Y217119D01*
X70981Y216517D01*
X70379Y215734D01*
X70001Y214821D01*
X69872Y213841D01*
X70001Y212861D01*
X70379Y211948D01*
X70981Y211164D01*
X71765Y210563D01*
X72678Y210185D01*
X73657Y210056D01*
X74637Y210185D01*
X75550Y210563D01*
X76334Y211164D01*
X76935Y211948D01*
X77314Y212861D01*
X77443Y213841D01*
X77314Y214821D01*
X76935Y215734D01*
X76334Y216517D01*
X75550Y217119D01*
X74637Y217497D01*
X73657Y217626D01*
D02*
G37*
G36*
X256221Y216675D02*
X255228Y216545D01*
X254304Y216162D01*
X253510Y215553D01*
X252901Y214759D01*
X252518Y213835D01*
X252388Y212842D01*
X252518Y211851D01*
X252901Y210926D01*
X253510Y210132D01*
X254304Y209523D01*
X255228Y209140D01*
X256221Y209010D01*
X257212Y209140D01*
X258137Y209523D01*
X258931Y210132D01*
X259540Y210926D01*
X259923Y211851D01*
X260053Y212842D01*
X259923Y213835D01*
X259540Y214759D01*
X258931Y215553D01*
X258137Y216162D01*
X257212Y216545D01*
X256221Y216675D01*
D02*
G37*
G36*
X235933Y207750D02*
X234953Y207621D01*
X234040Y207243D01*
X233257Y206641D01*
X232655Y205857D01*
X232395Y205228D01*
X216149D01*
X215939Y205733D01*
X215338Y206517D01*
X214554Y207119D01*
X213641Y207497D01*
X212661Y207626D01*
X211682Y207497D01*
X210769Y207119D01*
X209985Y206517D01*
X209383Y205733D01*
X209005Y204821D01*
X208876Y203841D01*
X209005Y202861D01*
X209383Y201948D01*
X209985Y201165D01*
X210769Y200563D01*
X211682Y200185D01*
X212661Y200056D01*
X213641Y200185D01*
X214554Y200563D01*
X215338Y201165D01*
X215939Y201948D01*
X216200Y202577D01*
X232446D01*
X232655Y202072D01*
X233257Y201288D01*
X234040Y200687D01*
X234953Y200308D01*
X235933Y200180D01*
X236913Y200308D01*
X237826Y200687D01*
X238610Y201288D01*
X239211Y202072D01*
X239214Y202078D01*
X252488D01*
X252518Y201851D01*
X252901Y200926D01*
X253510Y200132D01*
X254304Y199523D01*
X255228Y199140D01*
X256221Y199010D01*
X257212Y199140D01*
X258137Y199523D01*
X258931Y200132D01*
X259540Y200926D01*
X259923Y201851D01*
X260053Y202842D01*
X259923Y203835D01*
X259540Y204759D01*
X258931Y205553D01*
X258137Y206162D01*
X257212Y206545D01*
X256221Y206675D01*
X255228Y206545D01*
X254304Y206162D01*
X253510Y205553D01*
X252901Y204759D01*
X252889Y204729D01*
X239617D01*
X239589Y204944D01*
X239211Y205857D01*
X238610Y206641D01*
X237826Y207243D01*
X236913Y207621D01*
X235933Y207750D01*
D02*
G37*
G36*
X73657Y207784D02*
X72678Y207655D01*
X71765Y207277D01*
X70981Y206675D01*
X70379Y205891D01*
X70001Y204978D01*
X69872Y203998D01*
X70001Y203019D01*
X70379Y202106D01*
X70981Y201322D01*
X71765Y200720D01*
X72678Y200342D01*
X73657Y200213D01*
X74637Y200342D01*
X75550Y200720D01*
X76334Y201322D01*
X76935Y202106D01*
X77314Y203019D01*
X77443Y203998D01*
X77314Y204978D01*
X76935Y205891D01*
X76334Y206675D01*
X75550Y207277D01*
X74637Y207655D01*
X73657Y207784D01*
D02*
G37*
G36*
X152661Y207626D02*
X151682Y207497D01*
X150769Y207119D01*
X149985Y206517D01*
X149383Y205733D01*
X149005Y204821D01*
X148876Y203841D01*
X149005Y202861D01*
X149383Y201948D01*
X149985Y201165D01*
X150769Y200563D01*
X151682Y200185D01*
X152661Y200056D01*
X153641Y200185D01*
X154554Y200563D01*
X155338Y201165D01*
X155939Y201948D01*
X156318Y202861D01*
X156447Y203841D01*
X156318Y204821D01*
X155939Y205733D01*
X155338Y206517D01*
X154554Y207119D01*
X153641Y207497D01*
X152661Y207626D01*
D02*
G37*
G36*
X126258Y207062D02*
X125278Y206933D01*
X124365Y206555D01*
X123582Y205953D01*
X122980Y205169D01*
X122602Y204257D01*
X122473Y203277D01*
X122602Y202297D01*
X122980Y201384D01*
X123582Y200600D01*
X124365Y199999D01*
X125278Y199621D01*
X126258Y199492D01*
X127238Y199621D01*
X128151Y199999D01*
X128935Y200600D01*
X129536Y201384D01*
X129914Y202297D01*
X130043Y203277D01*
X129914Y204257D01*
X129536Y205169D01*
X128935Y205953D01*
X128151Y206555D01*
X127238Y206933D01*
X126258Y207062D01*
D02*
G37*
G36*
X286221Y216675D02*
X285228Y216545D01*
X284304Y216162D01*
X283510Y215553D01*
X282901Y214759D01*
X282518Y213835D01*
X282388Y212842D01*
X282518Y211851D01*
X282901Y210926D01*
X283510Y210132D01*
X284304Y209523D01*
X285228Y209140D01*
X286221Y209010D01*
X287212Y209140D01*
X288137Y209523D01*
X288931Y210132D01*
X289540Y210926D01*
X289785Y211517D01*
X300346D01*
X309239Y202624D01*
Y199161D01*
X316745D01*
Y206666D01*
X309239D01*
X309239Y206666D01*
Y206666D01*
X308792Y206820D01*
X301832Y213780D01*
X301402Y214067D01*
X300895Y214168D01*
X289785D01*
X289540Y214759D01*
X288931Y215553D01*
X288137Y216162D01*
X287212Y216545D01*
X286221Y216675D01*
D02*
G37*
G36*
Y206675D02*
X285228Y206545D01*
X284304Y206162D01*
X283510Y205553D01*
X282901Y204759D01*
X282518Y203835D01*
X282388Y202842D01*
X282518Y201851D01*
X282901Y200926D01*
X283510Y200132D01*
X284304Y199523D01*
X285228Y199140D01*
X286221Y199010D01*
X287212Y199140D01*
X288137Y199523D01*
X288931Y200132D01*
X289540Y200926D01*
X289923Y201851D01*
X290053Y202842D01*
X289923Y203835D01*
X289540Y204759D01*
X288931Y205553D01*
X288137Y206162D01*
X287212Y206545D01*
X286221Y206675D01*
D02*
G37*
G36*
X235933Y197750D02*
X234953Y197621D01*
X234040Y197243D01*
X233257Y196641D01*
X232655Y195857D01*
X232395Y195228D01*
X216149D01*
X215939Y195733D01*
X215338Y196517D01*
X214554Y197119D01*
X213641Y197497D01*
X212661Y197626D01*
X211682Y197497D01*
X210769Y197119D01*
X209985Y196517D01*
X209383Y195733D01*
X209005Y194821D01*
X208876Y193841D01*
X209005Y192861D01*
X209383Y191948D01*
X209985Y191165D01*
X210769Y190563D01*
X211682Y190185D01*
X212661Y190056D01*
X213641Y190185D01*
X214554Y190563D01*
X215338Y191165D01*
X215939Y191948D01*
X216200Y192577D01*
X232446D01*
X232655Y192072D01*
X233257Y191288D01*
X234040Y190687D01*
X234953Y190308D01*
X235933Y190180D01*
X236913Y190308D01*
X237826Y190687D01*
X238610Y191288D01*
X239211Y192072D01*
X239589Y192985D01*
X239718Y193965D01*
X239589Y194944D01*
X239211Y195857D01*
X238610Y196641D01*
X237826Y197243D01*
X236913Y197621D01*
X235933Y197750D01*
D02*
G37*
G36*
X152661Y197626D02*
X151682Y197497D01*
X150769Y197119D01*
X149985Y196517D01*
X149383Y195733D01*
X149032Y194884D01*
X129654D01*
X129536Y195169D01*
X128935Y195953D01*
X128151Y196555D01*
X127238Y196933D01*
X126258Y197062D01*
X125278Y196933D01*
X124365Y196555D01*
X123582Y195953D01*
X122980Y195169D01*
X122602Y194256D01*
X122473Y193277D01*
X122602Y192297D01*
X122980Y191384D01*
X123582Y190600D01*
X124365Y189999D01*
X125278Y189621D01*
X126258Y189492D01*
X127238Y189621D01*
X128151Y189999D01*
X128935Y190600D01*
X129536Y191384D01*
X129888Y192233D01*
X149265D01*
X149383Y191948D01*
X149985Y191165D01*
X150769Y190563D01*
X151682Y190185D01*
X152661Y190056D01*
X153641Y190185D01*
X154554Y190563D01*
X155338Y191165D01*
X155939Y191948D01*
X156318Y192861D01*
X156447Y193841D01*
X156318Y194821D01*
X155939Y195733D01*
X155338Y196517D01*
X154554Y197119D01*
X153641Y197497D01*
X152661Y197626D01*
D02*
G37*
G36*
X312992Y196698D02*
X312013Y196570D01*
X311100Y196191D01*
X310316Y195590D01*
X309714Y194806D01*
X309465Y194203D01*
X289770D01*
X289540Y194759D01*
X288931Y195553D01*
X288137Y196162D01*
X287212Y196545D01*
X286221Y196675D01*
X285228Y196545D01*
X284304Y196162D01*
X283510Y195553D01*
X282901Y194759D01*
X282518Y193834D01*
X282388Y192842D01*
X282518Y191850D01*
X282901Y190926D01*
X283510Y190132D01*
X284304Y189523D01*
X285228Y189140D01*
X286221Y189010D01*
X287212Y189140D01*
X288137Y189523D01*
X288931Y190132D01*
X289540Y190926D01*
X289799Y191552D01*
X309494D01*
X309714Y191021D01*
X310316Y190237D01*
X311100Y189635D01*
X312013Y189257D01*
X312992Y189128D01*
X313972Y189257D01*
X314885Y189635D01*
X315669Y190237D01*
X316270Y191021D01*
X316648Y191934D01*
X316777Y192913D01*
X316648Y193893D01*
X316270Y194806D01*
X315669Y195590D01*
X314885Y196191D01*
X313972Y196570D01*
X312992Y196698D01*
D02*
G37*
G36*
X256221Y196675D02*
X255228Y196545D01*
X254304Y196162D01*
X253510Y195553D01*
X252901Y194759D01*
X252518Y193834D01*
X252388Y192842D01*
X252518Y191850D01*
X252901Y190926D01*
X253510Y190132D01*
X254304Y189523D01*
X255228Y189140D01*
X256221Y189010D01*
X257212Y189140D01*
X258137Y189523D01*
X258931Y190132D01*
X259540Y190926D01*
X259923Y191850D01*
X260053Y192842D01*
X259923Y193834D01*
X259540Y194759D01*
X258931Y195553D01*
X258137Y196162D01*
X257212Y196545D01*
X256221Y196675D01*
D02*
G37*
G36*
X235933Y187750D02*
X234953Y187621D01*
X234040Y187243D01*
X233257Y186641D01*
X232655Y185857D01*
X232395Y185228D01*
X216149D01*
X215939Y185733D01*
X215338Y186517D01*
X214554Y187119D01*
X213641Y187497D01*
X212661Y187626D01*
X211682Y187497D01*
X210769Y187119D01*
X209985Y186517D01*
X209383Y185733D01*
X209005Y184821D01*
X208876Y183841D01*
X209005Y182861D01*
X209383Y181948D01*
X209985Y181165D01*
X210769Y180563D01*
X211682Y180185D01*
X212661Y180056D01*
X213641Y180185D01*
X214554Y180563D01*
X215338Y181165D01*
X215939Y181948D01*
X216200Y182577D01*
X232446D01*
X232655Y182072D01*
X233257Y181288D01*
X234040Y180687D01*
X234953Y180308D01*
X235933Y180180D01*
X236913Y180308D01*
X237826Y180687D01*
X238610Y181288D01*
X239211Y182072D01*
X239446Y182639D01*
X242754D01*
X263340Y162053D01*
Y134279D01*
X259457Y130396D01*
X258866Y130641D01*
X257874Y130771D01*
X256882Y130641D01*
X255958Y130258D01*
X255164Y129649D01*
X254555Y128855D01*
X254172Y127931D01*
X254041Y126939D01*
X254172Y125947D01*
X254555Y125022D01*
X255164Y124228D01*
X255958Y123619D01*
X256882Y123236D01*
X257874Y123106D01*
X258866Y123236D01*
X259790Y123619D01*
X260584Y124228D01*
X261193Y125022D01*
X261576Y125947D01*
X261707Y126939D01*
X261576Y127931D01*
X261331Y128522D01*
X265603Y132793D01*
X265890Y133223D01*
X265991Y133730D01*
Y162602D01*
X265890Y163109D01*
X265603Y163540D01*
X244240Y184902D01*
X243810Y185189D01*
X243303Y185290D01*
X239446D01*
X239211Y185857D01*
X238610Y186641D01*
X237826Y187243D01*
X236913Y187621D01*
X235933Y187750D01*
D02*
G37*
G36*
X152661Y187626D02*
X151682Y187497D01*
X150769Y187119D01*
X149985Y186517D01*
X149383Y185733D01*
X149032Y184884D01*
X129654D01*
X129536Y185169D01*
X128935Y185953D01*
X128151Y186555D01*
X127238Y186933D01*
X126258Y187062D01*
X125278Y186933D01*
X124365Y186555D01*
X123582Y185953D01*
X122980Y185169D01*
X122602Y184256D01*
X122473Y183277D01*
X122602Y182297D01*
X122980Y181384D01*
X123582Y180600D01*
X124365Y179999D01*
X125278Y179621D01*
X126258Y179492D01*
X127238Y179621D01*
X128151Y179999D01*
X128935Y180600D01*
X129536Y181384D01*
X129888Y182233D01*
X149265D01*
X149383Y181948D01*
X149985Y181165D01*
X150769Y180563D01*
X151682Y180185D01*
X152661Y180056D01*
X153641Y180185D01*
X154554Y180563D01*
X155338Y181165D01*
X155939Y181948D01*
X156318Y182861D01*
X156447Y183841D01*
X156318Y184821D01*
X155939Y185733D01*
X155338Y186517D01*
X154554Y187119D01*
X153641Y187497D01*
X152661Y187626D01*
D02*
G37*
G36*
X312992Y186698D02*
X312013Y186569D01*
X311100Y186191D01*
X310316Y185590D01*
X309714Y184806D01*
X309465Y184203D01*
X289770D01*
X289540Y184759D01*
X288931Y185553D01*
X288137Y186162D01*
X287212Y186545D01*
X286221Y186675D01*
X285228Y186545D01*
X284304Y186162D01*
X283510Y185553D01*
X282901Y184759D01*
X282518Y183835D01*
X282388Y182843D01*
X282518Y181851D01*
X282901Y180926D01*
X283510Y180132D01*
X284304Y179523D01*
X285228Y179140D01*
X286221Y179010D01*
X287212Y179140D01*
X288137Y179523D01*
X288931Y180132D01*
X289540Y180926D01*
X289799Y181553D01*
X309494D01*
X309714Y181021D01*
X310316Y180237D01*
X311100Y179635D01*
X312013Y179257D01*
X312992Y179128D01*
X313972Y179257D01*
X314885Y179635D01*
X315669Y180237D01*
X316270Y181021D01*
X316648Y181934D01*
X316777Y182913D01*
X316648Y183893D01*
X316270Y184806D01*
X315669Y185590D01*
X314885Y186191D01*
X313972Y186569D01*
X312992Y186698D01*
D02*
G37*
G36*
X256720Y186811D02*
Y183343D01*
X260189D01*
X260118Y183887D01*
X259715Y184860D01*
X259073Y185695D01*
X258238Y186337D01*
X257265Y186740D01*
X256720Y186811D01*
D02*
G37*
G36*
X255720D02*
X255176Y186740D01*
X254203Y186337D01*
X253368Y185695D01*
X252727Y184860D01*
X252323Y183887D01*
X252252Y183343D01*
X255720D01*
Y186811D01*
D02*
G37*
G36*
X260189Y182343D02*
X256720D01*
Y178874D01*
X257265Y178946D01*
X258238Y179349D01*
X259073Y179990D01*
X259715Y180825D01*
X260118Y181798D01*
X260189Y182343D01*
D02*
G37*
G36*
X255720D02*
X252252D01*
X252323Y181798D01*
X252727Y180825D01*
X253368Y179990D01*
X254203Y179349D01*
X255176Y178946D01*
X255720Y178874D01*
Y182343D01*
D02*
G37*
G36*
X235933Y177750D02*
X234953Y177621D01*
X234040Y177243D01*
X233257Y176641D01*
X232655Y175857D01*
X232395Y175228D01*
X216149D01*
X215939Y175733D01*
X215338Y176517D01*
X214554Y177119D01*
X213641Y177497D01*
X212661Y177626D01*
X211682Y177497D01*
X210769Y177119D01*
X209985Y176517D01*
X209383Y175733D01*
X209005Y174821D01*
X208876Y173841D01*
X209005Y172861D01*
X209383Y171948D01*
X209985Y171165D01*
X210769Y170563D01*
X211682Y170185D01*
X212661Y170056D01*
X213641Y170185D01*
X214554Y170563D01*
X215338Y171165D01*
X215939Y171948D01*
X216200Y172577D01*
X232446D01*
X232655Y172072D01*
X233257Y171288D01*
X234040Y170687D01*
X234953Y170308D01*
X235933Y170179D01*
X236913Y170308D01*
X237826Y170687D01*
X238610Y171288D01*
X239211Y172072D01*
X239589Y172985D01*
X239718Y173965D01*
X239589Y174944D01*
X239211Y175857D01*
X238610Y176641D01*
X237826Y177243D01*
X236913Y177621D01*
X235933Y177750D01*
D02*
G37*
G36*
X152661Y177626D02*
X151682Y177497D01*
X150769Y177119D01*
X149985Y176517D01*
X149383Y175733D01*
X149032Y174884D01*
X129654D01*
X129536Y175169D01*
X128935Y175953D01*
X128151Y176555D01*
X127238Y176933D01*
X126258Y177062D01*
X125278Y176933D01*
X124365Y176555D01*
X123582Y175953D01*
X122980Y175169D01*
X122602Y174257D01*
X122473Y173277D01*
X122602Y172297D01*
X122980Y171384D01*
X123582Y170600D01*
X124365Y169999D01*
X125278Y169621D01*
X126258Y169492D01*
X127238Y169621D01*
X128151Y169999D01*
X128935Y170600D01*
X129536Y171384D01*
X129888Y172233D01*
X149265D01*
X149383Y171948D01*
X149985Y171165D01*
X150769Y170563D01*
X151682Y170185D01*
X152661Y170056D01*
X153641Y170185D01*
X154554Y170563D01*
X155338Y171165D01*
X155939Y171948D01*
X156318Y172861D01*
X156447Y173841D01*
X156318Y174821D01*
X155939Y175733D01*
X155338Y176517D01*
X154554Y177119D01*
X153641Y177497D01*
X152661Y177626D01*
D02*
G37*
G36*
X235933Y167750D02*
X234953Y167621D01*
X234040Y167243D01*
X233257Y166641D01*
X232655Y165857D01*
X232395Y165228D01*
X216149D01*
X215939Y165734D01*
X215338Y166517D01*
X214554Y167119D01*
X213641Y167497D01*
X212661Y167626D01*
X211682Y167497D01*
X210769Y167119D01*
X209985Y166517D01*
X209383Y165734D01*
X209005Y164821D01*
X208876Y163841D01*
X209005Y162861D01*
X209383Y161948D01*
X209985Y161164D01*
X210769Y160563D01*
X211682Y160185D01*
X212661Y160056D01*
X213641Y160185D01*
X214554Y160563D01*
X215338Y161164D01*
X215939Y161948D01*
X216200Y162577D01*
X232446D01*
X232655Y162072D01*
X233257Y161288D01*
X234040Y160687D01*
X234953Y160308D01*
X235933Y160179D01*
X236913Y160308D01*
X237826Y160687D01*
X238610Y161288D01*
X239211Y162072D01*
X239589Y162985D01*
X239718Y163965D01*
X239589Y164944D01*
X239211Y165857D01*
X238610Y166641D01*
X237826Y167243D01*
X236913Y167621D01*
X235933Y167750D01*
D02*
G37*
G36*
X73835Y166786D02*
Y163365D01*
X77256D01*
X77186Y163897D01*
X76787Y164858D01*
X76154Y165684D01*
X75328Y166317D01*
X74366Y166716D01*
X73835Y166786D01*
D02*
G37*
G36*
X72835D02*
X72303Y166716D01*
X71341Y166317D01*
X70516Y165684D01*
X69882Y164858D01*
X69484Y163897D01*
X69414Y163365D01*
X72835D01*
Y166786D01*
D02*
G37*
G36*
X73657Y197941D02*
X72678Y197812D01*
X71765Y197434D01*
X70981Y196832D01*
X70379Y196048D01*
X70001Y195136D01*
X69872Y194156D01*
X70001Y193176D01*
X70379Y192263D01*
X70981Y191479D01*
X71765Y190878D01*
X72678Y190500D01*
X73657Y190371D01*
X74637Y190500D01*
X75204Y190735D01*
X103259Y162680D01*
X103689Y162393D01*
X104196Y162292D01*
X122604D01*
X122980Y161384D01*
X123582Y160600D01*
X124365Y159999D01*
X125278Y159621D01*
X126258Y159492D01*
X127238Y159621D01*
X128151Y159999D01*
X128935Y160600D01*
X129536Y161384D01*
X129888Y162233D01*
X149265D01*
X149383Y161948D01*
X149985Y161164D01*
X150769Y160563D01*
X151682Y160185D01*
X152661Y160056D01*
X153641Y160185D01*
X154554Y160563D01*
X155338Y161164D01*
X155939Y161948D01*
X156318Y162861D01*
X156447Y163841D01*
X156318Y164821D01*
X155939Y165734D01*
X155338Y166517D01*
X154554Y167119D01*
X153641Y167497D01*
X152661Y167626D01*
X151682Y167497D01*
X150769Y167119D01*
X149985Y166517D01*
X149383Y165734D01*
X149032Y164884D01*
X129654D01*
X129536Y165169D01*
X128935Y165953D01*
X128151Y166555D01*
X127238Y166933D01*
X126258Y167062D01*
X125278Y166933D01*
X124365Y166555D01*
X123582Y165953D01*
X122980Y165169D01*
X122886Y164943D01*
X104745D01*
X77079Y192609D01*
X77314Y193176D01*
X77443Y194156D01*
X77314Y195136D01*
X76935Y196048D01*
X76334Y196832D01*
X75550Y197434D01*
X74637Y197812D01*
X73657Y197941D01*
D02*
G37*
G36*
X77256Y162365D02*
X73835D01*
Y158944D01*
X74366Y159014D01*
X75328Y159412D01*
X76154Y160046D01*
X76787Y160871D01*
X77186Y161833D01*
X77256Y162365D01*
D02*
G37*
G36*
X72835D02*
X69414D01*
X69484Y161833D01*
X69882Y160871D01*
X70516Y160046D01*
X71341Y159412D01*
X72303Y159014D01*
X72835Y158944D01*
Y162365D01*
D02*
G37*
G36*
X235933Y157750D02*
X234953Y157621D01*
X234040Y157243D01*
X233257Y156641D01*
X232655Y155857D01*
X232395Y155228D01*
X216149D01*
X215939Y155734D01*
X215338Y156517D01*
X214554Y157119D01*
X213641Y157497D01*
X212661Y157626D01*
X211682Y157497D01*
X210769Y157119D01*
X209985Y156517D01*
X209383Y155734D01*
X209005Y154821D01*
X208876Y153841D01*
X209005Y152861D01*
X209383Y151948D01*
X209985Y151164D01*
X210769Y150563D01*
X211682Y150185D01*
X212661Y150056D01*
X213641Y150185D01*
X214554Y150563D01*
X215338Y151164D01*
X215939Y151948D01*
X216200Y152577D01*
X232446D01*
X232655Y152072D01*
X233257Y151288D01*
X234040Y150687D01*
X234953Y150308D01*
X235933Y150180D01*
X236913Y150308D01*
X237826Y150687D01*
X238610Y151288D01*
X239211Y152072D01*
X239589Y152985D01*
X239718Y153965D01*
X239589Y154944D01*
X239211Y155857D01*
X238610Y156641D01*
X237826Y157243D01*
X236913Y157621D01*
X235933Y157750D01*
D02*
G37*
G36*
X152661Y157626D02*
X151682Y157497D01*
X150769Y157119D01*
X149985Y156517D01*
X149383Y155734D01*
X149032Y154884D01*
X129654D01*
X129536Y155169D01*
X128935Y155953D01*
X128151Y156555D01*
X127238Y156933D01*
X126258Y157062D01*
X125278Y156933D01*
X124365Y156555D01*
X123582Y155953D01*
X122980Y155169D01*
X122602Y154256D01*
X122473Y153277D01*
X122602Y152297D01*
X122980Y151384D01*
X123582Y150600D01*
X124365Y149999D01*
X125278Y149621D01*
X126258Y149492D01*
X127238Y149621D01*
X128151Y149999D01*
X128935Y150600D01*
X129536Y151384D01*
X129888Y152233D01*
X149265D01*
X149383Y151948D01*
X149985Y151164D01*
X150769Y150563D01*
X151682Y150185D01*
X152661Y150056D01*
X153641Y150185D01*
X154554Y150563D01*
X155338Y151164D01*
X155939Y151948D01*
X156318Y152861D01*
X156447Y153841D01*
X156318Y154821D01*
X155939Y155734D01*
X155338Y156517D01*
X154554Y157119D01*
X153641Y157497D01*
X152661Y157626D01*
D02*
G37*
G36*
Y147626D02*
X151682Y147497D01*
X150769Y147119D01*
X149985Y146517D01*
X149383Y145733D01*
X149032Y144884D01*
X129654D01*
X129536Y145169D01*
X128935Y145953D01*
X128151Y146555D01*
X127238Y146933D01*
X126258Y147062D01*
X125278Y146933D01*
X124365Y146555D01*
X123582Y145953D01*
X122980Y145169D01*
X122602Y144256D01*
X122473Y143277D01*
X122602Y142297D01*
X122980Y141384D01*
X123582Y140600D01*
X124365Y139999D01*
X125278Y139621D01*
X126258Y139492D01*
X127238Y139621D01*
X128151Y139999D01*
X128935Y140600D01*
X129536Y141384D01*
X129888Y142233D01*
X149265D01*
X149383Y141948D01*
X149985Y141165D01*
X150769Y140563D01*
X151682Y140185D01*
X152661Y140056D01*
X153641Y140185D01*
X154554Y140563D01*
X155338Y141165D01*
X155939Y141948D01*
X156318Y142861D01*
X156447Y143841D01*
X156318Y144821D01*
X155939Y145733D01*
X155338Y146517D01*
X154554Y147119D01*
X153641Y147497D01*
X152661Y147626D01*
D02*
G37*
G36*
X235933Y147750D02*
X234953Y147621D01*
X234040Y147243D01*
X233257Y146641D01*
X232655Y145857D01*
X232277Y144944D01*
X232148Y143965D01*
X232277Y142985D01*
X232655Y142072D01*
X233257Y141288D01*
X234040Y140687D01*
X234953Y140308D01*
X235933Y140180D01*
X236913Y140308D01*
X237826Y140687D01*
X238610Y141288D01*
X239211Y142072D01*
X239589Y142985D01*
X239718Y143965D01*
X239589Y144944D01*
X239211Y145857D01*
X238610Y146641D01*
X237826Y147243D01*
X236913Y147621D01*
X235933Y147750D01*
D02*
G37*
G36*
X212661Y147626D02*
X211682Y147497D01*
X210769Y147119D01*
X209985Y146517D01*
X209383Y145733D01*
X209005Y144821D01*
X208876Y143841D01*
X209005Y142861D01*
X209383Y141948D01*
X209985Y141165D01*
X210769Y140563D01*
X211682Y140185D01*
X212661Y140056D01*
X213641Y140185D01*
X214554Y140563D01*
X215338Y141165D01*
X215939Y141948D01*
X216318Y142861D01*
X216446Y143841D01*
X216318Y144821D01*
X215939Y145733D01*
X215338Y146517D01*
X214554Y147119D01*
X213641Y147497D01*
X212661Y147626D01*
D02*
G37*
G36*
X152661Y137626D02*
X151682Y137497D01*
X150769Y137119D01*
X149985Y136517D01*
X149383Y135733D01*
X149032Y134884D01*
X129654D01*
X129536Y135169D01*
X128935Y135953D01*
X128151Y136555D01*
X127238Y136933D01*
X126258Y137062D01*
X125278Y136933D01*
X124365Y136555D01*
X123582Y135953D01*
X122980Y135169D01*
X122602Y134256D01*
X122473Y133277D01*
X122602Y132297D01*
X122980Y131384D01*
X123582Y130600D01*
X124365Y129999D01*
X125278Y129621D01*
X126258Y129492D01*
X127238Y129621D01*
X128151Y129999D01*
X128935Y130600D01*
X129536Y131384D01*
X129888Y132233D01*
X149265D01*
X149383Y131948D01*
X149985Y131165D01*
X150769Y130563D01*
X151682Y130185D01*
X152661Y130056D01*
X153641Y130185D01*
X154554Y130563D01*
X155338Y131165D01*
X155939Y131948D01*
X156318Y132861D01*
X156447Y133841D01*
X156318Y134821D01*
X155939Y135733D01*
X155338Y136517D01*
X154554Y137119D01*
X153641Y137497D01*
X152661Y137626D01*
D02*
G37*
G36*
X236433Y137886D02*
Y134465D01*
X239854D01*
X239784Y134996D01*
X239386Y135958D01*
X238752Y136784D01*
X237927Y137417D01*
X236965Y137816D01*
X236433Y137886D01*
D02*
G37*
G36*
X235433D02*
X234901Y137816D01*
X233940Y137417D01*
X233114Y136784D01*
X232480Y135958D01*
X232082Y134996D01*
X232012Y134465D01*
X235433D01*
Y137886D01*
D02*
G37*
G36*
X213161Y137762D02*
Y134341D01*
X216582D01*
X216512Y134873D01*
X216114Y135834D01*
X215481Y136660D01*
X214655Y137294D01*
X213693Y137692D01*
X213161Y137762D01*
D02*
G37*
G36*
X212161D02*
X211630Y137692D01*
X210668Y137294D01*
X209842Y136660D01*
X209209Y135834D01*
X208810Y134873D01*
X208740Y134341D01*
X212161D01*
Y137762D01*
D02*
G37*
G36*
X257874Y140771D02*
X256882Y140641D01*
X255958Y140258D01*
X255164Y139649D01*
X254555Y138855D01*
X254172Y137931D01*
X254041Y136939D01*
X254172Y135947D01*
X254555Y135022D01*
X255164Y134228D01*
X255958Y133619D01*
X256882Y133236D01*
X257874Y133106D01*
X258866Y133236D01*
X259790Y133619D01*
X260584Y134228D01*
X261193Y135022D01*
X261576Y135947D01*
X261707Y136939D01*
X261576Y137931D01*
X261193Y138855D01*
X260584Y139649D01*
X259790Y140258D01*
X258866Y140641D01*
X257874Y140771D01*
D02*
G37*
G36*
X74157Y135729D02*
Y132308D01*
X77578D01*
X77508Y132840D01*
X77110Y133801D01*
X76477Y134627D01*
X75651Y135261D01*
X74689Y135659D01*
X74157Y135729D01*
D02*
G37*
G36*
X73157D02*
X72625Y135659D01*
X71664Y135261D01*
X70838Y134627D01*
X70205Y133801D01*
X69806Y132840D01*
X69736Y132308D01*
X73157D01*
Y135729D01*
D02*
G37*
G36*
X239854Y133465D02*
X236433D01*
Y130044D01*
X236965Y130114D01*
X237927Y130512D01*
X238752Y131146D01*
X239386Y131971D01*
X239784Y132933D01*
X239854Y133465D01*
D02*
G37*
G36*
X235433D02*
X232012D01*
X232082Y132933D01*
X232480Y131971D01*
X233114Y131146D01*
X233940Y130512D01*
X234901Y130114D01*
X235433Y130044D01*
Y133465D01*
D02*
G37*
G36*
X216582Y133341D02*
X213161D01*
Y129920D01*
X213693Y129990D01*
X214655Y130388D01*
X215481Y131022D01*
X216114Y131848D01*
X216512Y132809D01*
X216582Y133341D01*
D02*
G37*
G36*
X212161D02*
X208740D01*
X208810Y132809D01*
X209209Y131848D01*
X209842Y131022D01*
X210668Y130388D01*
X211630Y129990D01*
X212161Y129920D01*
Y133341D01*
D02*
G37*
G36*
X287874Y140771D02*
X286882Y140641D01*
X285958Y140258D01*
X285164Y139649D01*
X284555Y138855D01*
X284172Y137931D01*
X284041Y136939D01*
X284172Y135947D01*
X284555Y135022D01*
X285164Y134228D01*
X285958Y133619D01*
X286882Y133236D01*
X287874Y133106D01*
X288866Y133236D01*
X289790Y133619D01*
X290584Y134228D01*
X291193Y135022D01*
X291438Y135613D01*
X301220D01*
X304121Y132712D01*
Y128590D01*
X311627D01*
Y136095D01*
X304487D01*
X302706Y137876D01*
X302276Y138163D01*
X301769Y138264D01*
X291438D01*
X291193Y138855D01*
X290584Y139649D01*
X289790Y140258D01*
X288866Y140641D01*
X287874Y140771D01*
D02*
G37*
G36*
X77578Y131308D02*
X74157D01*
Y127887D01*
X74689Y127957D01*
X75651Y128355D01*
X76477Y128989D01*
X77110Y129815D01*
X77508Y130776D01*
X77578Y131308D01*
D02*
G37*
G36*
X73157D02*
X69736D01*
X69806Y130776D01*
X70205Y129815D01*
X70838Y128989D01*
X71664Y128355D01*
X72625Y127957D01*
X73157Y127887D01*
Y131308D01*
D02*
G37*
G36*
X235933Y127750D02*
X234953Y127621D01*
X234040Y127243D01*
X233257Y126641D01*
X232655Y125857D01*
X232395Y125228D01*
X216149D01*
X215939Y125733D01*
X215338Y126517D01*
X214554Y127119D01*
X213641Y127497D01*
X212661Y127626D01*
X211682Y127497D01*
X210769Y127119D01*
X209985Y126517D01*
X209383Y125733D01*
X209005Y124821D01*
X208876Y123841D01*
X209005Y122861D01*
X209383Y121948D01*
X209985Y121165D01*
X210769Y120563D01*
X211682Y120185D01*
X212661Y120056D01*
X213641Y120185D01*
X214554Y120563D01*
X215338Y121165D01*
X215939Y121948D01*
X216200Y122577D01*
X232446D01*
X232655Y122072D01*
X233257Y121288D01*
X234040Y120687D01*
X234953Y120308D01*
X235933Y120179D01*
X236913Y120308D01*
X237826Y120687D01*
X238610Y121288D01*
X239211Y122072D01*
X239589Y122985D01*
X239718Y123965D01*
X239589Y124944D01*
X239211Y125857D01*
X238610Y126641D01*
X237826Y127243D01*
X236913Y127621D01*
X235933Y127750D01*
D02*
G37*
G36*
X152661Y127626D02*
X151682Y127497D01*
X150769Y127119D01*
X149985Y126517D01*
X149383Y125733D01*
X149032Y124884D01*
X129654D01*
X129536Y125169D01*
X128935Y125953D01*
X128151Y126555D01*
X127238Y126933D01*
X126258Y127062D01*
X125278Y126933D01*
X124365Y126555D01*
X123582Y125953D01*
X122980Y125169D01*
X122602Y124257D01*
X122473Y123277D01*
X122602Y122297D01*
X122980Y121384D01*
X123582Y120600D01*
X124365Y119999D01*
X125278Y119621D01*
X126258Y119492D01*
X127238Y119621D01*
X128151Y119999D01*
X128935Y120600D01*
X129536Y121384D01*
X129888Y122233D01*
X149265D01*
X149383Y121948D01*
X149985Y121165D01*
X150769Y120563D01*
X151682Y120185D01*
X152661Y120056D01*
X153641Y120185D01*
X154554Y120563D01*
X155338Y121165D01*
X155939Y121948D01*
X156318Y122861D01*
X156447Y123841D01*
X156318Y124821D01*
X155939Y125733D01*
X155338Y126517D01*
X154554Y127119D01*
X153641Y127497D01*
X152661Y127626D01*
D02*
G37*
G36*
X287874Y130771D02*
X286882Y130641D01*
X285958Y130258D01*
X285164Y129649D01*
X284555Y128855D01*
X284172Y127931D01*
X284041Y126939D01*
X284172Y125947D01*
X284555Y125022D01*
X285164Y124228D01*
X285958Y123619D01*
X286882Y123236D01*
X287874Y123106D01*
X288866Y123236D01*
X289790Y123619D01*
X290584Y124228D01*
X291193Y125022D01*
X291576Y125947D01*
X291707Y126939D01*
X291576Y127931D01*
X291193Y128855D01*
X290584Y129649D01*
X289790Y130258D01*
X288866Y130641D01*
X287874Y130771D01*
D02*
G37*
G36*
X307874Y126128D02*
X306894Y125999D01*
X305981Y125620D01*
X305198Y125019D01*
X304596Y124235D01*
X304218Y123322D01*
X304089Y122343D01*
X304132Y122012D01*
X300384Y118264D01*
X291438D01*
X291193Y118855D01*
X290584Y119649D01*
X289790Y120258D01*
X288866Y120641D01*
X287874Y120771D01*
X286882Y120641D01*
X285958Y120258D01*
X285164Y119649D01*
X284555Y118855D01*
X284172Y117931D01*
X284041Y116939D01*
X284172Y115947D01*
X284555Y115022D01*
X285164Y114228D01*
X285958Y113619D01*
X286882Y113236D01*
X287874Y113106D01*
X288866Y113236D01*
X289790Y113619D01*
X290584Y114228D01*
X291193Y115022D01*
X291438Y115613D01*
X300933D01*
X301441Y115714D01*
X301871Y116001D01*
X305389Y119519D01*
X305981Y119064D01*
X306894Y118686D01*
X307874Y118557D01*
X308854Y118686D01*
X309767Y119064D01*
X310550Y119666D01*
X311152Y120450D01*
X311530Y121363D01*
X311659Y122343D01*
X311530Y123322D01*
X311152Y124235D01*
X310550Y125019D01*
X309767Y125620D01*
X308854Y125999D01*
X307874Y126128D01*
D02*
G37*
G36*
X73335Y176492D02*
X72355Y176363D01*
X71442Y175985D01*
X70658Y175384D01*
X70057Y174600D01*
X69678Y173687D01*
X69550Y172707D01*
X69678Y171728D01*
X70057Y170815D01*
X70658Y170031D01*
X71442Y169429D01*
X72355Y169051D01*
X73335Y168922D01*
X74314Y169051D01*
X74881Y169286D01*
X100545Y143622D01*
Y117290D01*
X100083Y117099D01*
X77079Y140104D01*
X77314Y140671D01*
X77443Y141651D01*
X77314Y142630D01*
X76935Y143543D01*
X76334Y144327D01*
X75550Y144929D01*
X74637Y145307D01*
X73657Y145436D01*
X72678Y145307D01*
X71765Y144929D01*
X70981Y144327D01*
X70379Y143543D01*
X70001Y142630D01*
X69872Y141651D01*
X70001Y140671D01*
X70379Y139758D01*
X70981Y138974D01*
X71765Y138373D01*
X72678Y137994D01*
X73657Y137865D01*
X74637Y137994D01*
X75204Y138229D01*
X98745Y114688D01*
Y89464D01*
X98846Y88957D01*
X99133Y88527D01*
X122837Y64824D01*
X122602Y64257D01*
X122473Y63277D01*
X122602Y62297D01*
X122980Y61384D01*
X123582Y60600D01*
X124365Y59999D01*
X125278Y59621D01*
X126258Y59492D01*
X127238Y59621D01*
X128151Y59999D01*
X128935Y60600D01*
X129536Y61384D01*
X129888Y62233D01*
X149265D01*
X149383Y61948D01*
X149985Y61164D01*
X150769Y60563D01*
X151682Y60185D01*
X152661Y60056D01*
X153641Y60185D01*
X154554Y60563D01*
X155338Y61164D01*
X155939Y61948D01*
X156318Y62861D01*
X156447Y63841D01*
X156318Y64821D01*
X155939Y65733D01*
X155338Y66517D01*
X154554Y67119D01*
X153641Y67497D01*
X152661Y67626D01*
X151682Y67497D01*
X150769Y67119D01*
X149985Y66517D01*
X149383Y65733D01*
X149032Y64884D01*
X129654D01*
X129536Y65169D01*
X128935Y65953D01*
X128151Y66555D01*
X127238Y66933D01*
X126258Y67062D01*
X125278Y66933D01*
X124711Y66698D01*
X101396Y90013D01*
Y95611D01*
X101858Y95802D01*
X122837Y74824D01*
X122602Y74256D01*
X122473Y73277D01*
X122602Y72297D01*
X122980Y71384D01*
X123582Y70600D01*
X124365Y69999D01*
X125278Y69621D01*
X126258Y69492D01*
X127238Y69621D01*
X128151Y69999D01*
X128935Y70600D01*
X129536Y71384D01*
X129888Y72233D01*
X149265D01*
X149383Y71948D01*
X149985Y71165D01*
X150769Y70563D01*
X151682Y70185D01*
X152661Y70056D01*
X153641Y70185D01*
X154554Y70563D01*
X155338Y71165D01*
X155939Y71948D01*
X156318Y72861D01*
X156447Y73841D01*
X156318Y74821D01*
X155939Y75734D01*
X155338Y76517D01*
X154554Y77119D01*
X153641Y77497D01*
X152661Y77626D01*
X151682Y77497D01*
X150769Y77119D01*
X149985Y76517D01*
X149383Y75734D01*
X149032Y74884D01*
X129654D01*
X129536Y75169D01*
X128935Y75953D01*
X128151Y76555D01*
X127238Y76933D01*
X126258Y77062D01*
X125278Y76933D01*
X124711Y76698D01*
X103196Y98213D01*
Y144171D01*
X103095Y144678D01*
X102808Y145108D01*
X76756Y171160D01*
X76991Y171728D01*
X77120Y172707D01*
X76991Y173687D01*
X76613Y174600D01*
X76011Y175384D01*
X75227Y175985D01*
X74314Y176363D01*
X73335Y176492D01*
D02*
G37*
G36*
X235933Y117750D02*
X234953Y117621D01*
X234040Y117243D01*
X233257Y116641D01*
X232655Y115857D01*
X232395Y115228D01*
X216149D01*
X215939Y115734D01*
X215338Y116517D01*
X214554Y117119D01*
X213641Y117497D01*
X212661Y117626D01*
X211682Y117497D01*
X210769Y117119D01*
X209985Y116517D01*
X209383Y115734D01*
X209005Y114821D01*
X208876Y113841D01*
X209005Y112861D01*
X209383Y111948D01*
X209985Y111164D01*
X210769Y110563D01*
X211682Y110185D01*
X212661Y110056D01*
X213641Y110185D01*
X214554Y110563D01*
X215338Y111164D01*
X215939Y111948D01*
X216200Y112577D01*
X232446D01*
X232655Y112072D01*
X233257Y111288D01*
X234040Y110687D01*
X234953Y110308D01*
X235933Y110179D01*
X236913Y110308D01*
X237826Y110687D01*
X238610Y111288D01*
X239211Y112072D01*
X239589Y112985D01*
X239718Y113965D01*
X239589Y114944D01*
X239211Y115857D01*
X238610Y116641D01*
X237826Y117243D01*
X236913Y117621D01*
X235933Y117750D01*
D02*
G37*
G36*
X152661Y117626D02*
X151682Y117497D01*
X150769Y117119D01*
X149985Y116517D01*
X149383Y115734D01*
X149032Y114884D01*
X129654D01*
X129536Y115169D01*
X128935Y115953D01*
X128151Y116555D01*
X127238Y116933D01*
X126258Y117062D01*
X125278Y116933D01*
X124365Y116555D01*
X123582Y115953D01*
X122980Y115169D01*
X122602Y114257D01*
X122473Y113277D01*
X122602Y112297D01*
X122980Y111384D01*
X123582Y110600D01*
X124365Y109999D01*
X125278Y109621D01*
X126258Y109492D01*
X127238Y109621D01*
X128151Y109999D01*
X128935Y110600D01*
X129536Y111384D01*
X129888Y112233D01*
X149265D01*
X149383Y111948D01*
X149985Y111164D01*
X150769Y110563D01*
X151682Y110185D01*
X152661Y110056D01*
X153641Y110185D01*
X154554Y110563D01*
X155338Y111164D01*
X155939Y111948D01*
X156318Y112861D01*
X156447Y113841D01*
X156318Y114821D01*
X155939Y115734D01*
X155338Y116517D01*
X154554Y117119D01*
X153641Y117497D01*
X152661Y117626D01*
D02*
G37*
G36*
X257874Y120771D02*
X256882Y120641D01*
X255958Y120258D01*
X255164Y119649D01*
X254555Y118855D01*
X254172Y117931D01*
X254041Y116939D01*
X254172Y115947D01*
X254555Y115022D01*
X255164Y114228D01*
X255958Y113619D01*
X256882Y113236D01*
X257874Y113106D01*
X258866Y113236D01*
X259790Y113619D01*
X260584Y114228D01*
X261193Y115022D01*
X261576Y115947D01*
X261707Y116939D01*
X261576Y117931D01*
X261193Y118855D01*
X260584Y119649D01*
X259790Y120258D01*
X258866Y120641D01*
X257874Y120771D01*
D02*
G37*
G36*
X307874Y116128D02*
X306894Y115999D01*
X305981Y115621D01*
X305198Y115019D01*
X304596Y114235D01*
X304218Y113322D01*
X304089Y112343D01*
X304132Y112012D01*
X300384Y108264D01*
X291438D01*
X291193Y108855D01*
X290584Y109649D01*
X289790Y110258D01*
X288866Y110641D01*
X287874Y110771D01*
X286882Y110641D01*
X285958Y110258D01*
X285164Y109649D01*
X284555Y108855D01*
X284172Y107931D01*
X284041Y106939D01*
X284172Y105947D01*
X284555Y105022D01*
X285164Y104228D01*
X285958Y103619D01*
X286882Y103236D01*
X287874Y103106D01*
X288866Y103236D01*
X289790Y103619D01*
X290584Y104228D01*
X291193Y105022D01*
X291438Y105613D01*
X300933D01*
X301441Y105714D01*
X301871Y106001D01*
X305389Y109519D01*
X305981Y109064D01*
X306894Y108686D01*
X307874Y108557D01*
X308854Y108686D01*
X309767Y109064D01*
X310550Y109666D01*
X311152Y110450D01*
X311530Y111363D01*
X311659Y112343D01*
X311530Y113322D01*
X311152Y114235D01*
X310550Y115019D01*
X309767Y115621D01*
X308854Y115999D01*
X307874Y116128D01*
D02*
G37*
G36*
X258374Y110907D02*
Y107439D01*
X261843D01*
X261771Y107983D01*
X261368Y108956D01*
X260727Y109792D01*
X259891Y110433D01*
X258918Y110836D01*
X258374Y110907D01*
D02*
G37*
G36*
X257374D02*
X256830Y110836D01*
X255857Y110433D01*
X255021Y109792D01*
X254380Y108956D01*
X253977Y107983D01*
X253905Y107439D01*
X257374D01*
Y110907D01*
D02*
G37*
G36*
X235933Y107750D02*
X234953Y107621D01*
X234040Y107243D01*
X233257Y106641D01*
X232655Y105857D01*
X232395Y105228D01*
X216149D01*
X215939Y105734D01*
X215338Y106517D01*
X214554Y107119D01*
X213641Y107497D01*
X212661Y107626D01*
X211682Y107497D01*
X210769Y107119D01*
X209985Y106517D01*
X209383Y105734D01*
X209005Y104821D01*
X208876Y103841D01*
X209005Y102861D01*
X209383Y101948D01*
X209985Y101164D01*
X210769Y100563D01*
X211682Y100185D01*
X212661Y100056D01*
X213641Y100185D01*
X214554Y100563D01*
X215338Y101164D01*
X215939Y101948D01*
X216200Y102577D01*
X232446D01*
X232655Y102072D01*
X233257Y101288D01*
X234040Y100687D01*
X234953Y100308D01*
X235933Y100180D01*
X236913Y100308D01*
X237826Y100687D01*
X238610Y101288D01*
X239211Y102072D01*
X239589Y102985D01*
X239718Y103965D01*
X239589Y104944D01*
X239211Y105857D01*
X238610Y106641D01*
X237826Y107243D01*
X236913Y107621D01*
X235933Y107750D01*
D02*
G37*
G36*
X152661Y107626D02*
X151682Y107497D01*
X150769Y107119D01*
X149985Y106517D01*
X149383Y105734D01*
X149032Y104884D01*
X129654D01*
X129536Y105169D01*
X128935Y105953D01*
X128151Y106555D01*
X127238Y106933D01*
X126258Y107062D01*
X125278Y106933D01*
X124365Y106555D01*
X123582Y105953D01*
X122980Y105169D01*
X122602Y104256D01*
X122473Y103277D01*
X122602Y102297D01*
X122980Y101384D01*
X123582Y100600D01*
X124365Y99999D01*
X125278Y99621D01*
X126258Y99492D01*
X127238Y99621D01*
X128151Y99999D01*
X128935Y100600D01*
X129536Y101384D01*
X129888Y102233D01*
X149265D01*
X149383Y101948D01*
X149985Y101164D01*
X150769Y100563D01*
X151682Y100185D01*
X152661Y100056D01*
X153641Y100185D01*
X154554Y100563D01*
X155338Y101164D01*
X155939Y101948D01*
X156318Y102861D01*
X156447Y103841D01*
X156318Y104821D01*
X155939Y105734D01*
X155338Y106517D01*
X154554Y107119D01*
X153641Y107497D01*
X152661Y107626D01*
D02*
G37*
G36*
X261843Y106439D02*
X258374D01*
Y102970D01*
X258918Y103042D01*
X259891Y103445D01*
X260727Y104086D01*
X261368Y104921D01*
X261771Y105894D01*
X261843Y106439D01*
D02*
G37*
G36*
X257374D02*
X253905D01*
X253977Y105894D01*
X254380Y104921D01*
X255021Y104086D01*
X255857Y103445D01*
X256830Y103042D01*
X257374Y102970D01*
Y106439D01*
D02*
G37*
G36*
X74347Y103542D02*
Y100121D01*
X77767D01*
X77697Y100653D01*
X77299Y101614D01*
X76666Y102440D01*
X75840Y103073D01*
X74878Y103472D01*
X74347Y103542D01*
D02*
G37*
G36*
X73347D02*
X72815Y103472D01*
X71853Y103073D01*
X71027Y102440D01*
X70394Y101614D01*
X69995Y100653D01*
X69925Y100121D01*
X73347D01*
Y103542D01*
D02*
G37*
G36*
X77767Y99121D02*
X74347D01*
Y95700D01*
X74878Y95770D01*
X75840Y96168D01*
X76666Y96802D01*
X77299Y97627D01*
X77697Y98589D01*
X77767Y99121D01*
D02*
G37*
G36*
X73347D02*
X69925D01*
X69995Y98589D01*
X70394Y97627D01*
X71027Y96802D01*
X71853Y96168D01*
X72815Y95770D01*
X73347Y95700D01*
Y99121D01*
D02*
G37*
G36*
X235933Y97750D02*
X234953Y97621D01*
X234040Y97243D01*
X233257Y96641D01*
X232655Y95857D01*
X232395Y95228D01*
X216149D01*
X215939Y95733D01*
X215338Y96517D01*
X214554Y97119D01*
X213641Y97497D01*
X212661Y97626D01*
X211682Y97497D01*
X210769Y97119D01*
X209985Y96517D01*
X209383Y95733D01*
X209005Y94821D01*
X208876Y93841D01*
X209005Y92861D01*
X209383Y91948D01*
X209985Y91164D01*
X210769Y90563D01*
X211682Y90185D01*
X212661Y90056D01*
X213641Y90185D01*
X214554Y90563D01*
X215338Y91164D01*
X215939Y91948D01*
X216200Y92577D01*
X232446D01*
X232655Y92072D01*
X233257Y91288D01*
X234040Y90687D01*
X234953Y90308D01*
X235933Y90180D01*
X236913Y90308D01*
X237826Y90687D01*
X238610Y91288D01*
X239211Y92072D01*
X239589Y92985D01*
X239718Y93965D01*
X239589Y94944D01*
X239211Y95857D01*
X238610Y96641D01*
X237826Y97243D01*
X236913Y97621D01*
X235933Y97750D01*
D02*
G37*
G36*
X152661Y97626D02*
X151682Y97497D01*
X150769Y97119D01*
X149985Y96517D01*
X149383Y95733D01*
X149032Y94884D01*
X129654D01*
X129536Y95169D01*
X128935Y95953D01*
X128151Y96555D01*
X127238Y96933D01*
X126258Y97062D01*
X125278Y96933D01*
X124365Y96555D01*
X123582Y95953D01*
X122980Y95169D01*
X122602Y94257D01*
X122473Y93277D01*
X122602Y92297D01*
X122980Y91384D01*
X123582Y90600D01*
X124365Y89999D01*
X125278Y89621D01*
X126258Y89492D01*
X127238Y89621D01*
X128151Y89999D01*
X128935Y90600D01*
X129536Y91384D01*
X129888Y92233D01*
X149265D01*
X149383Y91948D01*
X149985Y91164D01*
X150769Y90563D01*
X151682Y90185D01*
X152661Y90056D01*
X153641Y90185D01*
X154554Y90563D01*
X155338Y91164D01*
X155939Y91948D01*
X156318Y92861D01*
X156447Y93841D01*
X156318Y94821D01*
X155939Y95733D01*
X155338Y96517D01*
X154554Y97119D01*
X153641Y97497D01*
X152661Y97626D01*
D02*
G37*
G36*
X235933Y87750D02*
X234953Y87621D01*
X234040Y87243D01*
X233257Y86641D01*
X232655Y85857D01*
X232395Y85228D01*
X216149D01*
X215939Y85733D01*
X215338Y86517D01*
X214554Y87119D01*
X213641Y87497D01*
X212661Y87626D01*
X211682Y87497D01*
X210769Y87119D01*
X209985Y86517D01*
X209383Y85733D01*
X209005Y84821D01*
X208876Y83841D01*
X209005Y82861D01*
X209383Y81948D01*
X209985Y81164D01*
X210769Y80563D01*
X211682Y80185D01*
X212661Y80056D01*
X213641Y80185D01*
X214554Y80563D01*
X215338Y81164D01*
X215939Y81948D01*
X216200Y82577D01*
X232446D01*
X232655Y82072D01*
X233257Y81288D01*
X234040Y80687D01*
X234953Y80308D01*
X235933Y80180D01*
X236913Y80308D01*
X237826Y80687D01*
X238610Y81288D01*
X239211Y82072D01*
X239589Y82985D01*
X239718Y83965D01*
X239589Y84944D01*
X239211Y85857D01*
X238610Y86641D01*
X237826Y87243D01*
X236913Y87621D01*
X235933Y87750D01*
D02*
G37*
G36*
X152661Y87626D02*
X151682Y87497D01*
X150769Y87119D01*
X149985Y86517D01*
X149383Y85733D01*
X149032Y84884D01*
X129654D01*
X129536Y85169D01*
X128935Y85953D01*
X128151Y86555D01*
X127238Y86933D01*
X126258Y87062D01*
X125278Y86933D01*
X124365Y86555D01*
X123582Y85953D01*
X122980Y85169D01*
X122602Y84257D01*
X122473Y83277D01*
X122602Y82297D01*
X122980Y81384D01*
X123582Y80600D01*
X124365Y79999D01*
X125278Y79621D01*
X126258Y79492D01*
X127238Y79621D01*
X128151Y79999D01*
X128935Y80600D01*
X129536Y81384D01*
X129888Y82233D01*
X149265D01*
X149383Y81948D01*
X149985Y81164D01*
X150769Y80563D01*
X151682Y80185D01*
X152661Y80056D01*
X153641Y80185D01*
X154554Y80563D01*
X155338Y81164D01*
X155939Y81948D01*
X156318Y82861D01*
X156447Y83841D01*
X156318Y84821D01*
X155939Y85733D01*
X155338Y86517D01*
X154554Y87119D01*
X153641Y87497D01*
X152661Y87626D01*
D02*
G37*
G36*
X235933Y77750D02*
X234953Y77621D01*
X234040Y77243D01*
X233257Y76641D01*
X232655Y75857D01*
X232395Y75228D01*
X216149D01*
X215939Y75734D01*
X215338Y76517D01*
X214554Y77119D01*
X213641Y77497D01*
X212661Y77626D01*
X211682Y77497D01*
X210769Y77119D01*
X209985Y76517D01*
X209383Y75734D01*
X209005Y74821D01*
X208876Y73841D01*
X209005Y72861D01*
X209383Y71948D01*
X209985Y71165D01*
X210769Y70563D01*
X211682Y70185D01*
X212661Y70056D01*
X213641Y70185D01*
X214554Y70563D01*
X215338Y71165D01*
X215939Y71948D01*
X216200Y72577D01*
X232446D01*
X232655Y72072D01*
X233257Y71288D01*
X234040Y70687D01*
X234953Y70308D01*
X235933Y70179D01*
X236913Y70308D01*
X237826Y70687D01*
X238610Y71288D01*
X239211Y72072D01*
X239589Y72985D01*
X239718Y73965D01*
X239589Y74944D01*
X239211Y75857D01*
X238610Y76641D01*
X237826Y77243D01*
X236913Y77621D01*
X235933Y77750D01*
D02*
G37*
G36*
Y67750D02*
X234953Y67621D01*
X234040Y67243D01*
X233257Y66641D01*
X232655Y65857D01*
X232277Y64944D01*
X232189Y64276D01*
X231661Y64097D01*
X230980Y64778D01*
X230550Y65065D01*
X230042Y65166D01*
X216174D01*
X215939Y65733D01*
X215338Y66517D01*
X214554Y67119D01*
X213641Y67497D01*
X212661Y67626D01*
X211682Y67497D01*
X210769Y67119D01*
X209985Y66517D01*
X209383Y65733D01*
X209005Y64821D01*
X208876Y63841D01*
X209005Y62861D01*
X209383Y61948D01*
X209985Y61164D01*
X210769Y60563D01*
X211682Y60185D01*
X212661Y60056D01*
X213641Y60185D01*
X214554Y60563D01*
X215338Y61164D01*
X215939Y61948D01*
X216174Y62515D01*
X229493D01*
X234236Y57773D01*
X234138Y57283D01*
X234040Y57243D01*
X233257Y56641D01*
X232655Y55857D01*
X232395Y55228D01*
X216149D01*
X215939Y55734D01*
X215338Y56517D01*
X214554Y57119D01*
X213641Y57497D01*
X212661Y57626D01*
X211682Y57497D01*
X210769Y57119D01*
X209985Y56517D01*
X209383Y55734D01*
X209005Y54821D01*
X208876Y53841D01*
X209005Y52861D01*
X209383Y51948D01*
X209985Y51165D01*
X210769Y50563D01*
X211682Y50185D01*
X212661Y50056D01*
X213641Y50185D01*
X214554Y50563D01*
X215338Y51165D01*
X215939Y51948D01*
X216200Y52577D01*
X232446D01*
X232655Y52072D01*
X233257Y51288D01*
X234040Y50687D01*
X234953Y50308D01*
X235933Y50179D01*
X236913Y50308D01*
X237826Y50687D01*
X238610Y51288D01*
X239211Y52072D01*
X239589Y52985D01*
X239718Y53965D01*
X239589Y54944D01*
X239211Y55857D01*
X238801Y56392D01*
X239047Y56892D01*
X255668D01*
X258269Y54291D01*
X258699Y54004D01*
X259206Y53903D01*
X267019D01*
X267254Y53336D01*
X267855Y52552D01*
X268639Y51950D01*
X269552Y51572D01*
X270532Y51443D01*
X271511Y51572D01*
X272424Y51950D01*
X273208Y52552D01*
X273810Y53336D01*
X274188Y54249D01*
X274317Y55228D01*
X274188Y56208D01*
X273810Y57121D01*
X273208Y57905D01*
X272424Y58506D01*
X271511Y58884D01*
X270532Y59013D01*
X269552Y58884D01*
X268639Y58506D01*
X267855Y57905D01*
X267254Y57121D01*
X267019Y56554D01*
X259755D01*
X257154Y59155D01*
X256724Y59442D01*
X256217Y59543D01*
X236543D01*
X236398Y59736D01*
X236622Y60270D01*
X236913Y60308D01*
X237826Y60687D01*
X238610Y61288D01*
X239211Y62072D01*
X239589Y62985D01*
X239718Y63965D01*
X239589Y64944D01*
X239211Y65857D01*
X238610Y66641D01*
X237826Y67243D01*
X236913Y67621D01*
X235933Y67750D01*
D02*
G37*
G36*
X108476Y65456D02*
X105220D01*
Y62890D01*
X108476D01*
Y65456D01*
D02*
G37*
G36*
X112732Y61890D02*
X109476D01*
Y59323D01*
X112732D01*
Y61890D01*
D02*
G37*
G36*
X108476D02*
X105220D01*
Y59323D01*
X108476D01*
Y61890D01*
D02*
G37*
G36*
X280874Y59149D02*
Y55728D01*
X284295D01*
X284225Y56260D01*
X283827Y57222D01*
X283193Y58047D01*
X282367Y58681D01*
X281406Y59079D01*
X280874Y59149D01*
D02*
G37*
G36*
X279874Y59149D02*
X279342Y59079D01*
X278381Y58681D01*
X277555Y58047D01*
X276921Y57222D01*
X276523Y56260D01*
X276453Y55728D01*
X279874D01*
Y59149D01*
D02*
G37*
G36*
Y54728D02*
X276453D01*
X276523Y54196D01*
X276921Y53235D01*
X277555Y52409D01*
X278381Y51775D01*
X279342Y51377D01*
X279874Y51307D01*
Y54728D01*
D02*
G37*
G36*
X284295D02*
X280874D01*
Y51307D01*
X281406Y51377D01*
X282367Y51775D01*
X283193Y52409D01*
X283827Y53235D01*
X284225Y54196D01*
X284295Y54728D01*
D02*
G37*
G36*
X73847Y113248D02*
X72867Y113119D01*
X71954Y112741D01*
X71170Y112140D01*
X70568Y111356D01*
X70190Y110443D01*
X70061Y109463D01*
X70190Y108484D01*
X70568Y107571D01*
X71170Y106787D01*
X71954Y106185D01*
X72867Y105807D01*
X73847Y105678D01*
X74826Y105807D01*
X75393Y106042D01*
X86076Y95359D01*
Y92133D01*
X86177Y91626D01*
X86464Y91196D01*
X105420Y72240D01*
Y66806D01*
X110854D01*
X111742Y65918D01*
X111551Y65456D01*
X109476D01*
Y62890D01*
X112732D01*
Y64275D01*
X113194Y64466D01*
X122837Y54824D01*
X122602Y54256D01*
X122473Y53277D01*
X122602Y52297D01*
X122980Y51384D01*
X123582Y50600D01*
X124365Y49999D01*
X125278Y49621D01*
X126258Y49492D01*
X127238Y49621D01*
X128151Y49999D01*
X128935Y50600D01*
X129536Y51384D01*
X129888Y52233D01*
X149265D01*
X149383Y51948D01*
X149985Y51165D01*
X150769Y50563D01*
X151682Y50185D01*
X152661Y50056D01*
X153641Y50185D01*
X154554Y50563D01*
X155338Y51165D01*
X155939Y51948D01*
X156318Y52861D01*
X156447Y53841D01*
X156318Y54821D01*
X155939Y55734D01*
X155338Y56517D01*
X154554Y57119D01*
X153641Y57497D01*
X152661Y57626D01*
X151682Y57497D01*
X150769Y57119D01*
X149985Y56517D01*
X149383Y55734D01*
X149032Y54884D01*
X129654D01*
X129536Y55169D01*
X128935Y55953D01*
X128151Y56555D01*
X127238Y56933D01*
X126258Y57062D01*
X125278Y56933D01*
X124711Y56698D01*
X112532Y68877D01*
Y72540D01*
X108869D01*
X88727Y92682D01*
Y95908D01*
X88626Y96415D01*
X88339Y96845D01*
X77268Y107916D01*
X77503Y108484D01*
X77632Y109463D01*
X77503Y110443D01*
X77125Y111356D01*
X76523Y112140D01*
X75739Y112741D01*
X74826Y113119D01*
X73847Y113248D01*
D02*
G37*
G36*
X89476Y53134D02*
Y49713D01*
X92897D01*
X92827Y50244D01*
X92429Y51206D01*
X91795Y52032D01*
X90970Y52665D01*
X90008Y53064D01*
X89476Y53134D01*
D02*
G37*
G36*
X88476D02*
X87945Y53064D01*
X86983Y52665D01*
X86157Y52032D01*
X85524Y51206D01*
X85125Y50244D01*
X85055Y49713D01*
X88476D01*
Y53134D01*
D02*
G37*
G36*
X108976Y52998D02*
X107997Y52869D01*
X107084Y52491D01*
X106300Y51889D01*
X105698Y51105D01*
X105320Y50192D01*
X105191Y49213D01*
X105320Y48233D01*
X105698Y47320D01*
X106300Y46536D01*
X107084Y45935D01*
X107997Y45557D01*
X108976Y45428D01*
X109956Y45557D01*
X110869Y45935D01*
X111653Y46536D01*
X112254Y47320D01*
X112633Y48233D01*
X112761Y49213D01*
X112633Y50192D01*
X112254Y51105D01*
X111653Y51889D01*
X110869Y52491D01*
X109956Y52869D01*
X108976Y52998D01*
D02*
G37*
G36*
X92897Y48713D02*
X89476D01*
Y45292D01*
X90008Y45362D01*
X90970Y45760D01*
X91795Y46393D01*
X92429Y47219D01*
X92827Y48181D01*
X92897Y48713D01*
D02*
G37*
G36*
X88476D02*
X85055D01*
X85125Y48181D01*
X85524Y47219D01*
X86157Y46393D01*
X86983Y45760D01*
X87945Y45362D01*
X88476Y45292D01*
Y48713D01*
D02*
G37*
G36*
X235933Y47750D02*
X234953Y47621D01*
X234040Y47243D01*
X233257Y46641D01*
X232655Y45857D01*
X232395Y45228D01*
X216149D01*
X215939Y45733D01*
X215338Y46517D01*
X214554Y47119D01*
X213641Y47497D01*
X212661Y47626D01*
X211682Y47497D01*
X210769Y47119D01*
X209985Y46517D01*
X209383Y45733D01*
X209005Y44821D01*
X208876Y43841D01*
X209005Y42861D01*
X209383Y41948D01*
X209985Y41164D01*
X210769Y40563D01*
X211682Y40185D01*
X212661Y40056D01*
X213641Y40185D01*
X214554Y40563D01*
X215338Y41164D01*
X215939Y41948D01*
X216200Y42577D01*
X232446D01*
X232655Y42072D01*
X233257Y41288D01*
X234040Y40687D01*
X234953Y40308D01*
X235933Y40179D01*
X236913Y40308D01*
X237826Y40687D01*
X238610Y41288D01*
X239211Y42072D01*
X239589Y42985D01*
X239718Y43965D01*
X239589Y44944D01*
X239211Y45857D01*
X238610Y46641D01*
X237826Y47243D01*
X236913Y47621D01*
X235933Y47750D01*
D02*
G37*
G36*
X98976Y52998D02*
X97997Y52869D01*
X97084Y52491D01*
X96300Y51889D01*
X95698Y51105D01*
X95320Y50192D01*
X95191Y49213D01*
X95320Y48233D01*
X95698Y47320D01*
X96300Y46536D01*
X97084Y45935D01*
X97997Y45557D01*
X98976Y45428D01*
X99956Y45557D01*
X100197Y45656D01*
X103514Y42340D01*
X103944Y42052D01*
X104451Y41951D01*
X122745D01*
X122980Y41384D01*
X123582Y40600D01*
X124365Y39999D01*
X125278Y39621D01*
X126258Y39492D01*
X127238Y39621D01*
X128151Y39999D01*
X128935Y40600D01*
X129536Y41384D01*
X129888Y42233D01*
X149265D01*
X149383Y41948D01*
X149985Y41164D01*
X150769Y40563D01*
X151682Y40185D01*
X152661Y40056D01*
X153641Y40185D01*
X154554Y40563D01*
X155338Y41164D01*
X155939Y41948D01*
X156318Y42861D01*
X156447Y43841D01*
X156318Y44821D01*
X155939Y45733D01*
X155338Y46517D01*
X154554Y47119D01*
X153641Y47497D01*
X152661Y47626D01*
X151682Y47497D01*
X150769Y47119D01*
X149985Y46517D01*
X149383Y45733D01*
X149032Y44884D01*
X129654D01*
X129536Y45169D01*
X128935Y45953D01*
X128151Y46555D01*
X127238Y46933D01*
X126258Y47062D01*
X125278Y46933D01*
X124365Y46555D01*
X123582Y45953D01*
X122980Y45169D01*
X122745Y44602D01*
X105000D01*
X102263Y47340D01*
X102632Y48233D01*
X102761Y49213D01*
X102632Y50192D01*
X102254Y51105D01*
X101653Y51889D01*
X100869Y52491D01*
X99956Y52869D01*
X98976Y52998D01*
D02*
G37*
%LPD*%
G36*
X115974Y294214D02*
Y289419D01*
X101297Y274742D01*
X100901Y274820D01*
X100529Y274746D01*
X100282Y275207D01*
X113529Y288454D01*
X113817Y288884D01*
X113918Y289391D01*
Y293306D01*
X114508Y293551D01*
X115302Y294160D01*
X115474Y294384D01*
X115974Y294214D01*
D02*
G37*
D12*
X259206Y55228D02*
X270532D01*
X256217Y58217D02*
X259206Y55228D01*
X264665Y133730D02*
Y162602D01*
X243303Y183965D02*
X264665Y162602D01*
X257874Y126939D02*
X264665Y133730D01*
X221682Y320051D02*
X228613D01*
X230625Y314495D02*
Y318038D01*
X228613Y320051D02*
X230625Y318038D01*
Y314495D02*
X232192Y312928D01*
X232684D01*
X286509Y246407D02*
X287402Y245515D01*
X254203Y246407D02*
X286509D01*
X61571Y236163D02*
X74051Y223684D01*
X61571Y236163D02*
Y253961D01*
X312957Y182878D02*
X312992Y182913D01*
X286256Y182878D02*
X312957D01*
X286221Y182843D02*
X286256Y182878D01*
X312957Y192878D02*
X312992Y192913D01*
X286256Y192878D02*
X312957D01*
X286221Y192842D02*
X286256Y192878D01*
X306351Y122356D02*
X307874D01*
X306351Y132356D02*
X307874D01*
X87402Y92133D02*
X126258Y53277D01*
X87402Y92133D02*
Y95908D01*
X73847Y109463D02*
X87402Y95908D01*
X191432Y301670D02*
X228218D01*
X232192Y305645D01*
X232684D01*
X98557Y49171D02*
X104451Y43277D01*
X126258D01*
X126540Y233559D02*
X152379D01*
X126258Y233277D02*
X126540Y233559D01*
X90901Y239983D02*
Y248487D01*
Y239983D02*
X97325Y233559D01*
X91762Y259595D02*
X100901Y250456D01*
Y249472D02*
Y250456D01*
X67206Y259595D02*
X91762D01*
X73657Y194156D02*
X104196Y163618D01*
X306351Y112356D02*
X307874D01*
X230042Y63841D02*
X235666Y58217D01*
X256217D01*
X73335Y172707D02*
X101871Y144171D01*
Y97664D02*
Y144171D01*
Y97664D02*
X126258Y73277D01*
X73657Y141651D02*
X100071Y115237D01*
Y89464D02*
Y115237D01*
Y89464D02*
X126258Y63277D01*
X61571Y253961D02*
X67206Y259595D01*
X105901Y235183D02*
X117807Y223277D01*
X105901Y235183D02*
Y248487D01*
X74176Y270731D02*
X90901D01*
X68350Y276557D02*
X74176Y270731D01*
X67858Y276557D02*
X68350D01*
X190253Y253841D02*
X212661D01*
X185410Y258684D02*
X190253Y253841D01*
X109129Y258684D02*
X185410D01*
X100901Y250456D02*
X109129Y258684D01*
X100901Y272471D02*
X117300Y288870D01*
X157602Y315500D02*
X165732Y307370D01*
X97592Y306870D02*
X106222Y315500D01*
X165732Y286709D02*
Y307370D01*
X106222Y315500D02*
X157602D01*
X185732Y307370D02*
X191432Y301670D01*
X117300Y288870D02*
Y306578D01*
X117592Y306870D01*
X100901Y270731D02*
Y272471D01*
X165732Y286709D02*
X177661Y274780D01*
X211723D01*
X212661Y273841D01*
X104196Y163618D02*
X125917D01*
X126258Y163277D01*
X117807Y223277D02*
X126258D01*
X152379Y263559D02*
X152661Y263841D01*
X126540Y263559D02*
X152379D01*
X126258Y263277D02*
X126540Y263559D01*
X152379Y253559D02*
X152661Y253841D01*
X126540Y253559D02*
X152379D01*
X126258Y253277D02*
X126540Y253559D01*
X152379Y243559D02*
X152661Y243841D01*
X126540Y243559D02*
X152379D01*
X126258Y243277D02*
X126540Y243559D01*
X152379Y233559D02*
X152661Y233841D01*
X152379Y223559D02*
X152661Y223841D01*
X126540Y223559D02*
X152379D01*
X126258Y223277D02*
X126540Y223559D01*
X152379Y213559D02*
X152661Y213841D01*
X126540Y213559D02*
X152379D01*
X126258Y213277D02*
X126540Y213559D01*
X152379Y193559D02*
X152661Y193841D01*
X126540Y193559D02*
X152379D01*
X126258Y193277D02*
X126540Y193559D01*
X152379Y183559D02*
X152661Y183841D01*
X126540Y183559D02*
X152379D01*
X126258Y183277D02*
X126540Y183559D01*
X152379Y173559D02*
X152661Y173841D01*
X126540Y173559D02*
X152379D01*
X126258Y173277D02*
X126540Y173559D01*
X152379Y163559D02*
X152661Y163841D01*
X126540Y163559D02*
X152379D01*
X126258Y163277D02*
X126540Y163559D01*
X152379Y153559D02*
X152661Y153841D01*
X126540Y153559D02*
X152379D01*
X126258Y153277D02*
X126540Y153559D01*
X152379Y143559D02*
X152661Y143841D01*
X126540Y143559D02*
X152379D01*
X126258Y143277D02*
X126540Y143559D01*
X152379Y133559D02*
X152661Y133841D01*
X126540Y133559D02*
X152379D01*
X126258Y133277D02*
X126540Y133559D01*
X152379Y123559D02*
X152661Y123841D01*
X126540Y123559D02*
X152379D01*
X126258Y123277D02*
X126540Y123559D01*
X152379Y113559D02*
X152661Y113841D01*
X126540Y113559D02*
X152379D01*
X126258Y113277D02*
X126540Y113559D01*
X152379Y103559D02*
X152661Y103841D01*
X126540Y103559D02*
X152379D01*
X126258Y103277D02*
X126540Y103559D01*
X152379Y93559D02*
X152661Y93841D01*
X126540Y93559D02*
X152379D01*
X126258Y93277D02*
X126540Y93559D01*
X152379Y83559D02*
X152661Y83841D01*
X126540Y83559D02*
X152379D01*
X126258Y83277D02*
X126540Y83559D01*
X152379Y73559D02*
X152661Y73841D01*
X126540Y73559D02*
X152379D01*
X126258Y73277D02*
X126540Y73559D01*
X152379Y63559D02*
X152661Y63841D01*
X126540Y63559D02*
X152379D01*
X126258Y63277D02*
X126540Y63559D01*
X152379Y53559D02*
X152661Y53841D01*
X126540Y53559D02*
X152379D01*
X126258Y53277D02*
X126540Y53559D01*
X152379Y43559D02*
X152661Y43841D01*
X126540Y43559D02*
X152379D01*
X126258Y43277D02*
X126540Y43559D01*
X95901Y270731D02*
Y272700D01*
X112592Y289391D01*
Y296870D01*
X254203Y232235D02*
Y246407D01*
X235933Y213965D02*
X254203Y232235D01*
X235871Y203903D02*
X236370Y203404D01*
X255659D01*
X256221Y202842D01*
X235933Y183965D02*
X243303D01*
X235871Y183903D02*
X235933Y183965D01*
X300895Y212842D02*
X310753Y202985D01*
X286221Y212842D02*
X300895D01*
X301769Y136939D02*
X306351Y132356D01*
X287874Y136939D02*
X301769D01*
X300933Y116939D02*
X306351Y122356D01*
X287874Y116939D02*
X300933D01*
Y106939D02*
X306351Y112356D01*
X287874Y106939D02*
X300933D01*
X212661Y63841D02*
X230042D01*
X235871Y43903D02*
X235933Y43965D01*
X212723Y43903D02*
X235871D01*
X212661Y43841D02*
X212723Y43903D01*
X235871Y53903D02*
X235933Y53965D01*
X212723Y53903D02*
X235871D01*
X212661Y53841D02*
X212723Y53903D01*
X235871Y73903D02*
X235933Y73965D01*
X212723Y73903D02*
X235871D01*
X212661Y73841D02*
X212723Y73903D01*
X235871Y83903D02*
X235933Y83965D01*
X212723Y83903D02*
X235871D01*
X212661Y83841D02*
X212723Y83903D01*
X235871Y93903D02*
X235933Y93965D01*
X212723Y93903D02*
X235871D01*
X212661Y93841D02*
X212723Y93903D01*
X235871Y103903D02*
X235933Y103965D01*
X212723Y103903D02*
X235871D01*
X212661Y103841D02*
X212723Y103903D01*
X235871Y113903D02*
X235933Y113965D01*
X212723Y113903D02*
X235871D01*
X212661Y113841D02*
X212723Y113903D01*
X235871Y123903D02*
X235933Y123965D01*
X212723Y123903D02*
X235871D01*
X212661Y123841D02*
X212723Y123903D01*
X235871Y153903D02*
X235933Y153965D01*
X212723Y153903D02*
X235871D01*
X212661Y153841D02*
X212723Y153903D01*
X235871Y163903D02*
X235933Y163965D01*
X212723Y163903D02*
X235871D01*
X212661Y163841D02*
X212723Y163903D01*
Y183903D02*
X235871D01*
X212661Y183841D02*
X212723Y183903D01*
X235871Y173903D02*
X235933Y173965D01*
X212723Y173903D02*
X235871D01*
X212661Y173841D02*
X212723Y173903D01*
X235871Y193903D02*
X235933Y193965D01*
X212723Y193903D02*
X235871D01*
X212661Y193841D02*
X212723Y193903D01*
Y203903D02*
X235871D01*
X212661Y203841D02*
X212723Y203903D01*
X235871Y213903D02*
X235933Y213965D01*
X212723Y213903D02*
X235871D01*
X212661Y213841D02*
X212723Y213903D01*
X235871Y223903D02*
X235933Y223965D01*
X212723Y223903D02*
X235871D01*
X212661Y223841D02*
X212723Y223903D01*
X235871Y233903D02*
X235933Y233965D01*
X212723Y233903D02*
X235871D01*
X212661Y233841D02*
X212723Y233903D01*
X235871Y243903D02*
X235933Y243965D01*
X212723Y243903D02*
X235871D01*
X212661Y243841D02*
X212723Y243903D01*
X235871Y253903D02*
X235933Y253965D01*
X212723Y253903D02*
X235871D01*
X212661Y253841D02*
X212723Y253903D01*
X235809Y273841D02*
X235933Y273965D01*
X212661Y273841D02*
X235809D01*
D14*
X105901Y270731D02*
D03*
X100901D02*
D03*
X95901D02*
D03*
X90901D02*
D03*
X105901Y248487D02*
D03*
X100901D02*
D03*
X95901D02*
D03*
X90901D02*
D03*
D15*
X67858Y276557D02*
D03*
Y283841D02*
D03*
X232684Y312928D02*
D03*
Y305645D02*
D03*
D16*
X108976Y62390D02*
D03*
Y69673D02*
D03*
X254203Y253691D02*
D03*
Y246407D02*
D03*
X67206Y259595D02*
D03*
Y252312D02*
D03*
D24*
X266153Y340051D02*
Y350051D01*
D25*
X296997Y340375D02*
D03*
D26*
X270915Y340219D02*
D03*
D27*
X108976Y49213D02*
D03*
X98976D02*
D03*
X88976D02*
D03*
X270532Y55228D02*
D03*
X280374D02*
D03*
X73657Y141651D02*
D03*
Y131808D02*
D03*
X73335Y172707D02*
D03*
Y162865D02*
D03*
X292362Y330051D02*
D03*
X302362Y340051D02*
D03*
X292362D02*
D03*
X302362Y350051D02*
D03*
X292362D02*
D03*
X240000Y330051D02*
D03*
X250000Y340051D02*
D03*
X240000D02*
D03*
X250000Y350051D02*
D03*
X240000D02*
D03*
X287402Y246063D02*
D03*
Y255906D02*
D03*
X307874Y122343D02*
D03*
Y112343D02*
D03*
X312992Y192913D02*
D03*
Y182913D02*
D03*
X266153Y330051D02*
D03*
X276153Y340051D02*
D03*
X266153D02*
D03*
X276153Y350051D02*
D03*
X266153D02*
D03*
X73847Y109463D02*
D03*
Y99621D02*
D03*
X73657Y194156D02*
D03*
Y203998D02*
D03*
Y213841D02*
D03*
Y223684D02*
D03*
Y233526D02*
D03*
X152661Y273841D02*
D03*
Y263841D02*
D03*
Y253841D02*
D03*
Y243841D02*
D03*
Y233841D02*
D03*
Y223841D02*
D03*
Y213841D02*
D03*
Y203841D02*
D03*
Y193841D02*
D03*
Y183841D02*
D03*
Y173841D02*
D03*
Y163841D02*
D03*
Y153841D02*
D03*
Y143841D02*
D03*
X212661D02*
D03*
Y153841D02*
D03*
Y163841D02*
D03*
Y173841D02*
D03*
Y183841D02*
D03*
Y193841D02*
D03*
Y203841D02*
D03*
Y213841D02*
D03*
Y223841D02*
D03*
Y233841D02*
D03*
Y243841D02*
D03*
X152661Y123841D02*
D03*
Y113841D02*
D03*
Y103841D02*
D03*
Y93841D02*
D03*
Y83841D02*
D03*
Y73841D02*
D03*
Y63841D02*
D03*
Y53841D02*
D03*
Y43841D02*
D03*
X212661D02*
D03*
Y53841D02*
D03*
Y63841D02*
D03*
Y73841D02*
D03*
Y83841D02*
D03*
Y93841D02*
D03*
Y103841D02*
D03*
X152661Y133841D02*
D03*
X212661Y253841D02*
D03*
Y263841D02*
D03*
Y273841D02*
D03*
Y133841D02*
D03*
Y123841D02*
D03*
Y113841D02*
D03*
X235933Y43965D02*
D03*
Y53965D02*
D03*
Y63965D02*
D03*
Y73965D02*
D03*
Y83965D02*
D03*
Y93965D02*
D03*
Y103965D02*
D03*
Y113965D02*
D03*
Y123965D02*
D03*
Y133965D02*
D03*
Y143965D02*
D03*
Y153965D02*
D03*
Y163965D02*
D03*
Y173965D02*
D03*
Y183965D02*
D03*
Y193965D02*
D03*
Y203965D02*
D03*
Y213965D02*
D03*
Y223965D02*
D03*
Y233965D02*
D03*
Y243965D02*
D03*
Y253965D02*
D03*
Y263965D02*
D03*
X126258Y43277D02*
D03*
Y53277D02*
D03*
Y63277D02*
D03*
Y73277D02*
D03*
Y83277D02*
D03*
Y93277D02*
D03*
Y103277D02*
D03*
Y113277D02*
D03*
Y123277D02*
D03*
Y133277D02*
D03*
Y143277D02*
D03*
Y153277D02*
D03*
Y163277D02*
D03*
Y173277D02*
D03*
Y183277D02*
D03*
Y193277D02*
D03*
Y203277D02*
D03*
Y213277D02*
D03*
Y223277D02*
D03*
Y233277D02*
D03*
Y243277D02*
D03*
Y253277D02*
D03*
Y263277D02*
D03*
X221682Y320051D02*
D03*
Y330051D02*
D03*
D28*
X302362D02*
D03*
X250000D02*
D03*
X307874Y132343D02*
D03*
X312992Y202913D02*
D03*
X276153Y330051D02*
D03*
X235933Y273965D02*
D03*
X126258Y273277D02*
D03*
X221682Y310051D02*
D03*
D29*
X256221Y212842D02*
D03*
Y202842D02*
D03*
Y192842D02*
D03*
Y182843D02*
D03*
X286221D02*
D03*
Y192842D02*
D03*
Y202842D02*
D03*
Y212842D02*
D03*
X257874Y136939D02*
D03*
Y126939D02*
D03*
Y116939D02*
D03*
Y106939D02*
D03*
X287874D02*
D03*
Y116939D02*
D03*
Y126939D02*
D03*
Y136939D02*
D03*
X130092Y331870D02*
D03*
X90092D02*
D03*
X112592Y296870D02*
D03*
X102592D02*
D03*
X117592Y306870D02*
D03*
X107592D02*
D03*
X97592D02*
D03*
X198232Y332370D02*
D03*
X158232D02*
D03*
X180732Y297370D02*
D03*
X170732D02*
D03*
X185732Y307370D02*
D03*
X175732D02*
D03*
X165732D02*
D03*
X320866Y353150D02*
D03*
X320539Y42577D02*
D03*
X66929Y41384D02*
D03*
X68898Y354331D02*
D03*
D30*
X122592Y296870D02*
D03*
X190732Y297370D02*
D03*
D31*
X97325Y233559D02*
D03*
D32*
X89000Y305198D02*
D03*
X75411Y306395D02*
D03*
M02*
